  0
SECTION
  2
HEADER
  9
$MEASUREMENT
  70
  1
  9
$INSUNITS
  70
  4
  0
ENDSEC
  0
SECTION
  2
TABLES
  0
TABLE
  2
LTYPE
 70
     1
  0
LTYPE
  2
CONTINUOUS
 70
    64
  3
Ausgezogene Linie
 72
    65
 73
     0
 40
0.0
  0
ENDTAB
  0
TABLE
  2
LAYER
 70
     3
  0
LAYER
  2
Contour
 70
    64
 62
     7
  6
CONTINUOUS
  0
LAYER
  2
Engraving
 70
    64
 62
     7
  6
CONTINUOUS
  0
LAYER
  2
Reference_points
 70
    64
 62
     1
  6
CONTINUOUS
  0
ENDTAB
  0
TABLE
  2
STYLE
 70
     1
  0
STYLE
  2
TXT
 70
    64
 40
0.0
 41
1.0
 50
0.0
 71
     0
 42
3.500000
  3
TXT
  0
ENDTAB
  0
ENDSEC
  0
SECTION
  2
BLOCKS
  0
ENDSEC
  0
SECTION
  2
ENTITIES
  0
LINE
  8
Contour
 62
   7
 39
0.100
  6
CONTINUOUS
 10
45.38000
 20
128.40000
 30
 0
 11
45.38000
 21
0.00000
  0
LINE
  8
Contour
 62
   7
 39
0.100
  6
CONTINUOUS
 10
45.38000
 20
0.00000
 30
 0
 11
0.00000
 21
0.00000
  0
LINE
  8
Contour
 62
   7
 39
0.100
  6
CONTINUOUS
 10
0.00000
 20
0.00000
 30
 0
 11
0.00000
 21
128.40000
  0
LINE
  8
Contour
 62
   7
 39
0.100
  6
CONTINUOUS
 10
0.00000
 20
128.40000
 30
 0
 11
45.38000
 21
128.40000
  0
LINE
  8
Engraving
 62
   7
 39
0.400
  6
CONTINUOUS
 10
2.79273
 20
38.20300
 30
 0
 11
2.79273
 21
40.76600
  0
LINE
  8
Engraving
 62
   7
 39
0.400
  6
CONTINUOUS
 10
2.79273
 20
40.76600
 30
 0
 11
3.73250
 21
40.76600
  0
ARC
  8
Engraving
 62
   7
 39
0.400
  6
CONTINUOUS
 10
3.73250
 20
40.12525
 30
 0
 40
0.64075
 50
-90.00000
 51
90.00000
  0
LINE
  8
Engraving
 62
   7
 39
0.400
  6
CONTINUOUS
 10
3.73250
 20
39.48450
 30
 0
 11
2.79273
 21
39.48450
  0
LINE
  8
Engraving
 62
   7
 39
0.400
  6
CONTINUOUS
 10
5.01373
 20
40.76600
 30
 0
 11
5.01373
 21
38.54473
  0
ARC
  8
Engraving
 62
   7
 39
0.400
  6
CONTINUOUS
 10
5.36105
 20
38.54464
 30
 0
 40
0.34731
 50
179.98432
 51
259.62682
  0
LINE
  8
Engraving
 62
   7
 39
0.400
  6
CONTINUOUS
 10
7.46258
 20
39.91067
 30
 0
 11
7.46258
 21
38.91394
  0
ARC
  8
Engraving
 62
   7
 39
0.400
  6
CONTINUOUS
 10
6.72216
 20
38.91394
 30
 0
 40
0.74042
 50
-180.00000
 51
0.00000
  0
LINE
  8
Engraving
 62
   7
 39
0.400
  6
CONTINUOUS
 10
5.98173
 20
38.91394
 30
 0
 11
5.98173
 21
39.19872
  0
ARC
  8
Engraving
 62
   7
 39
0.400
  6
CONTINUOUS
 10
6.72216
 20
39.19872
 30
 0
 40
0.74042
 50
0.00000
 51
180.00000
  0
LINE
  8
Engraving
 62
   7
 39
0.400
  6
CONTINUOUS
 10
7.46258
 20
39.19872
 30
 0
 11
7.46258
 21
38.51526
  0
ARC
  8
Engraving
 62
   7
 39
0.400
  6
CONTINUOUS
 10
7.87546
 20
38.55355
 30
 0
 40
0.41466
 50
185.29897
 51
260.11981
  0
LINE
  8
Engraving
 62
   7
 39
0.400
  6
CONTINUOUS
 10
8.48773
 20
39.91067
 30
 0
 11
9.17120
 21
38.28743
  0
LINE
  8
Engraving
 62
   7
 39
0.400
  6
CONTINUOUS
 10
9.91162
 20
39.91067
 30
 0
 11
8.88642
 21
37.60397
  0
ARC
  8
Engraving
 62
   7
 39
0.400
  6
CONTINUOUS
 10
8.49210
 20
37.77911
 30
 0
 40
0.43146
 50
269.41954
 51
336.05092
  0
ARC
  8
Engraving
 62
   7
 39
0.400
  6
CONTINUOUS
 10
3.74290
 20
24.81454
 30
 0
 40
0.67574
 50
36.73449
 51
77.79505
  0
ARC
  8
Engraving
 62
   7
 39
0.400
  6
CONTINUOUS
 10
3.54268
 20
23.90358
 30
 0
 40
1.60844
 50
77.68434
 51
106.40648
  0
ARC
  8
Engraving
 62
   7
 39
0.400
  6
CONTINUOUS
 10
3.30782
 20
24.71783
 30
 0
 40
0.76101
 50
106.75938
 51
144.31597
  0
ARC
  8
Engraving
 62
   7
 39
0.400
  6
CONTINUOUS
 10
3.11296
 20
24.85791
 30
 0
 40
0.52103
 50
144.32844
 51
251.30934
  0
LINE
  8
Engraving
 62
   7
 39
0.400
  6
CONTINUOUS
 10
2.94599
 20
24.36437
 30
 0
 11
3.94271
 21
24.02263
  0
ARC
  8
Engraving
 62
   7
 39
0.400
  6
CONTINUOUS
 10
3.77574
 20
23.52909
 30
 0
 40
0.52103
 50
-35.67156
 51
71.30934
  0
ARC
  8
Engraving
 62
   7
 39
0.400
  6
CONTINUOUS
 10
3.58088
 20
23.66917
 30
 0
 40
0.76101
 50
286.75938
 51
324.31597
  0
ARC
  8
Engraving
 62
   7
 39
0.400
  6
CONTINUOUS
 10
3.34602
 20
24.48342
 30
 0
 40
1.60844
 50
257.68434
 51
286.40648
  0
ARC
  8
Engraving
 62
   7
 39
0.400
  6
CONTINUOUS
 10
3.14580
 20
23.57246
 30
 0
 40
0.67574
 50
216.73449
 51
257.79505
  0
LINE
  8
Engraving
 62
   7
 39
0.400
  6
CONTINUOUS
 10
5.22403
 20
25.47500
 30
 0
 11
5.22403
 21
24.62067
  0
LINE
  8
Engraving
 62
   7
 39
0.400
  6
CONTINUOUS
 10
5.22403
 20
24.62067
 30
 0
 11
5.65120
 21
24.62067
  0
LINE
  8
Engraving
 62
   7
 39
0.400
  6
CONTINUOUS
 10
5.65120
 20
24.62067
 30
 0
 11
4.93926
 21
24.62067
  0
LINE
  8
Engraving
 62
   7
 39
0.400
  6
CONTINUOUS
 10
4.93926
 20
24.62067
 30
 0
 11
5.22403
 21
24.62067
  0
LINE
  8
Engraving
 62
   7
 39
0.400
  6
CONTINUOUS
 10
5.22403
 20
24.62067
 30
 0
 11
5.22403
 21
23.25373
  0
ARC
  8
Engraving
 62
   7
 39
0.400
  6
CONTINUOUS
 10
5.57135
 20
23.25364
 30
 0
 40
0.34731
 50
179.98432
 51
259.62682
  0
LINE
  8
Engraving
 62
   7
 39
0.400
  6
CONTINUOUS
 10
6.33373
 20
23.62294
 30
 0
 11
6.33373
 21
23.90772
  0
ARC
  8
Engraving
 62
   7
 39
0.400
  6
CONTINUOUS
 10
7.04568
 20
23.90772
 30
 0
 40
0.71194
 50
0.00000
 51
180.00000
  0
LINE
  8
Engraving
 62
   7
 39
0.400
  6
CONTINUOUS
 10
7.75762
 20
23.90772
 30
 0
 11
7.75762
 21
23.62294
  0
ARC
  8
Engraving
 62
   7
 39
0.400
  6
CONTINUOUS
 10
7.04568
 20
23.62294
 30
 0
 40
0.71194
 50
-180.00000
 51
0.00000
  0
LINE
  8
Engraving
 62
   7
 39
0.400
  6
CONTINUOUS
 10
8.44073
 20
22.05567
 30
 0
 11
8.44073
 21
23.90672
  0
ARC
  8
Engraving
 62
   7
 39
0.400
  6
CONTINUOUS
 10
9.15268
 20
23.90672
 30
 0
 40
0.71194
 50
0.00000
 51
180.00000
  0
LINE
  8
Engraving
 62
   7
 39
0.400
  6
CONTINUOUS
 10
9.86462
 20
23.90672
 30
 0
 11
9.86462
 21
23.62194
  0
ARC
  8
Engraving
 62
   7
 39
0.400
  6
CONTINUOUS
 10
9.15268
 20
23.62194
 30
 0
 40
0.71194
 50
-180.00000
 51
0.00000
  0
LINE
  8
Engraving
 62
   7
 39
0.400
  6
CONTINUOUS
 10
8.44073
 20
23.62194
 30
 0
 11
8.44073
 21
24.61867
  0
LINE
  8
Engraving
 62
   7
 39
0.400
  6
CONTINUOUS
 10
26.35273
 20
49.65644
 30
 0
 11
26.92229
 21
50.22600
  0
LINE
  8
Engraving
 62
   7
 39
0.400
  6
CONTINUOUS
 10
26.92229
 20
50.22600
 30
 0
 11
26.92229
 21
47.66300
  0
LINE
  8
Engraving
 62
   7
 39
0.400
  6
CONTINUOUS
 10
31.27821
 20
49.96970
 30
 0
 11
31.44908
 21
50.11209
  0
ARC
  8
Engraving
 62
   7
 39
0.400
  6
CONTINUOUS
 10
31.91078
 20
49.57706
 30
 0
 40
0.70669
 50
-40.79241
 51
130.79241
  0
LINE
  8
Engraving
 62
   7
 39
0.400
  6
CONTINUOUS
 10
32.44580
 20
49.11537
 30
 0
 11
31.24973
 21
47.66300
  0
LINE
  8
Engraving
 62
   7
 39
0.400
  6
CONTINUOUS
 10
31.24973
 20
47.66300
 30
 0
 11
32.67362
 21
47.66300
  0
ARC
  8
Engraving
 62
   7
 39
0.400
  6
CONTINUOUS
 10
26.99509
 20
39.38220
 30
 0
 40
0.74777
 50
90.37438
 51
157.00576
  0
ARC
  8
Engraving
 62
   7
 39
0.400
  6
CONTINUOUS
 10
26.99020
 20
39.46073
 30
 0
 40
0.66923
 50
-90.00000
 51
90.00000
  0
ARC
  8
Engraving
 62
   7
 39
0.400
  6
CONTINUOUS
 10
26.99020
 20
38.12227
 30
 0
 40
0.66923
 50
-90.00000
 51
90.00000
  0
ARC
  8
Engraving
 62
   7
 39
0.400
  6
CONTINUOUS
 10
26.99409
 20
38.24488
 30
 0
 40
0.79185
 50
209.76844
 51
269.71869
  0
LINE
  8
Engraving
 62
   7
 39
0.400
  6
CONTINUOUS
 10
32.85507
 20
40.07300
 30
 0
 11
32.00073
 21
37.93717
  0
LINE
  8
Engraving
 62
   7
 39
0.400
  6
CONTINUOUS
 10
32.00073
 20
37.93717
 30
 0
 11
33.42462
 21
37.93717
  0
LINE
  8
Engraving
 62
   7
 39
0.400
  6
CONTINUOUS
 10
33.42462
 20
37.93717
 30
 0
 11
33.13984
 21
37.93717
  0
LINE
  8
Engraving
 62
   7
 39
0.400
  6
CONTINUOUS
 10
33.13984
 20
37.93717
 30
 0
 11
33.13984
 21
38.36433
  0
LINE
  8
Engraving
 62
   7
 39
0.400
  6
CONTINUOUS
 10
33.13984
 20
38.36433
 30
 0
 11
33.13984
 21
37.51000
  0
LINE
  8
Engraving
 62
   7
 39
0.400
  6
CONTINUOUS
 10
27.61671
 20
28.94600
 30
 0
 11
26.33521
 21
28.94600
  0
LINE
  8
Engraving
 62
   7
 39
0.400
  6
CONTINUOUS
 10
26.33521
 20
28.94600
 30
 0
 11
26.33521
 21
27.74993
  0
ARC
  8
Engraving
 62
   7
 39
0.400
  6
CONTINUOUS
 10
26.93124
 20
26.97773
 30
 0
 40
0.97548
 50
84.85750
 51
127.66291
  0
ARC
  8
Engraving
 62
   7
 39
0.400
  6
CONTINUOUS
 10
26.94092
 20
27.12886
 30
 0
 40
0.82410
 50
-44.24474
 51
84.58605
  0
ARC
  8
Engraving
 62
   7
 39
0.400
  6
CONTINUOUS
 10
26.98224
 20
27.09252
 30
 0
 40
0.76914
 50
208.56608
 51
315.54698
  0
ARC
  8
Engraving
 62
   7
 39
0.400
  6
CONTINUOUS
 10
32.79816
 20
27.20886
 30
 0
 40
0.74042
 50
0.00000
 51
180.00000
  0
LINE
  8
Engraving
 62
   7
 39
0.400
  6
CONTINUOUS
 10
33.53858
 20
27.20886
 30
 0
 11
33.53858
 21
27.06647
  0
ARC
  8
Engraving
 62
   7
 39
0.400
  6
CONTINUOUS
 10
32.79816
 20
27.06647
 30
 0
 40
0.74042
 50
-180.00000
 51
0.00000
  0
LINE
  8
Engraving
 62
   7
 39
0.400
  6
CONTINUOUS
 10
32.05773
 20
27.06647
 30
 0
 11
32.05773
 21
28.17710
  0
ARC
  8
Engraving
 62
   7
 39
0.400
  6
CONTINUOUS
 10
32.84650
 20
28.20857
 30
 0
 40
0.78940
 50
45.86651
 51
182.28449
  0
LINE
  8
Engraving
 62
   7
 39
0.400
  6
CONTINUOUS
 10
26.30673
 20
18.24483
 30
 0
 11
26.30673
 21
18.67200
  0
LINE
  8
Engraving
 62
   7
 39
0.400
  6
CONTINUOUS
 10
26.30673
 20
18.67200
 30
 0
 11
27.73062
 21
18.67200
  0
LINE
  8
Engraving
 62
   7
 39
0.400
  6
CONTINUOUS
 10
27.73062
 20
18.67200
 30
 0
 11
26.59151
 21
16.10900
  0
ARC
  8
Engraving
 62
   7
 39
0.400
  6
CONTINUOUS
 10
32.79816
 20
16.79247
 30
 0
 40
0.74042
 50
-90.00000
 51
90.00000
  0
ARC
  8
Engraving
 62
   7
 39
0.400
  6
CONTINUOUS
 10
32.79816
 20
16.79247
 30
 0
 40
0.74042
 50
90.00000
 51
270.00000
  0
ARC
  8
Engraving
 62
   7
 39
0.400
  6
CONTINUOUS
 10
32.79816
 20
18.13092
 30
 0
 40
0.59803
 50
270.00000
 51
450.00000
  0
ARC
  8
Engraving
 62
   7
 39
0.400
  6
CONTINUOUS
 10
32.79816
 20
18.13092
 30
 0
 40
0.59803
 50
90.00000
 51
270.00000
  0
LINE
  8
Engraving
 62
   7
 39
0.400
  6
CONTINUOUS
 10
19.62073
 20
71.20000
 30
 0
 11
19.62073
 21
73.76300
  0
LINE
  8
Engraving
 62
   7
 39
0.400
  6
CONTINUOUS
 10
19.62073
 20
73.76300
 30
 0
 11
20.56050
 21
73.76300
  0
ARC
  8
Engraving
 62
   7
 39
0.400
  6
CONTINUOUS
 10
20.56050
 20
73.12225
 30
 0
 40
0.64075
 50
-90.00000
 51
90.00000
  0
LINE
  8
Engraving
 62
   7
 39
0.400
  6
CONTINUOUS
 10
20.56050
 20
72.48150
 30
 0
 11
19.62073
 21
72.48150
  0
LINE
  8
Engraving
 62
   7
 39
0.400
  6
CONTINUOUS
 10
21.84173
 20
73.76300
 30
 0
 11
21.84173
 21
71.54173
  0
ARC
  8
Engraving
 62
   7
 39
0.400
  6
CONTINUOUS
 10
22.18905
 20
71.54164
 30
 0
 40
0.34731
 50
179.98432
 51
259.62682
  0
LINE
  8
Engraving
 62
   7
 39
0.400
  6
CONTINUOUS
 10
24.29058
 20
72.90767
 30
 0
 11
24.29058
 21
71.91094
  0
ARC
  8
Engraving
 62
   7
 39
0.400
  6
CONTINUOUS
 10
23.55016
 20
71.91094
 30
 0
 40
0.74042
 50
-180.00000
 51
0.00000
  0
LINE
  8
Engraving
 62
   7
 39
0.400
  6
CONTINUOUS
 10
22.80973
 20
71.91094
 30
 0
 11
22.80973
 21
72.19572
  0
ARC
  8
Engraving
 62
   7
 39
0.400
  6
CONTINUOUS
 10
23.55016
 20
72.19572
 30
 0
 40
0.74042
 50
0.00000
 51
180.00000
  0
LINE
  8
Engraving
 62
   7
 39
0.400
  6
CONTINUOUS
 10
24.29058
 20
72.19572
 30
 0
 11
24.29058
 21
71.51226
  0
ARC
  8
Engraving
 62
   7
 39
0.400
  6
CONTINUOUS
 10
24.70346
 20
71.55055
 30
 0
 40
0.41466
 50
185.29897
 51
260.11981
  0
LINE
  8
Engraving
 62
   7
 39
0.400
  6
CONTINUOUS
 10
25.31573
 20
72.90767
 30
 0
 11
25.99920
 21
71.28443
  0
LINE
  8
Engraving
 62
   7
 39
0.400
  6
CONTINUOUS
 10
26.73962
 20
72.90767
 30
 0
 11
25.71442
 21
70.60097
  0
ARC
  8
Engraving
 62
   7
 39
0.400
  6
CONTINUOUS
 10
25.32010
 20
70.77611
 30
 0
 40
0.43146
 50
269.41954
 51
336.05092
  0
ARC
  8
Engraving
 62
   7
 39
0.400
  6
CONTINUOUS
 10
34.99590
 20
73.10254
 30
 0
 40
0.67574
 50
36.73449
 51
77.79505
  0
ARC
  8
Engraving
 62
   7
 39
0.400
  6
CONTINUOUS
 10
34.79568
 20
72.19158
 30
 0
 40
1.60844
 50
77.68434
 51
106.40648
  0
ARC
  8
Engraving
 62
   7
 39
0.400
  6
CONTINUOUS
 10
34.56082
 20
73.00583
 30
 0
 40
0.76101
 50
106.75938
 51
144.31597
  0
ARC
  8
Engraving
 62
   7
 39
0.400
  6
CONTINUOUS
 10
34.36596
 20
73.14591
 30
 0
 40
0.52103
 50
144.32844
 51
251.30934
  0
LINE
  8
Engraving
 62
   7
 39
0.400
  6
CONTINUOUS
 10
34.19899
 20
72.65237
 30
 0
 11
35.19571
 21
72.31063
  0
ARC
  8
Engraving
 62
   7
 39
0.400
  6
CONTINUOUS
 10
35.02874
 20
71.81709
 30
 0
 40
0.52103
 50
-35.67156
 51
71.30934
  0
ARC
  8
Engraving
 62
   7
 39
0.400
  6
CONTINUOUS
 10
34.83388
 20
71.95717
 30
 0
 40
0.76101
 50
286.75938
 51
324.31597
  0
ARC
  8
Engraving
 62
   7
 39
0.400
  6
CONTINUOUS
 10
34.59902
 20
72.77142
 30
 0
 40
1.60844
 50
257.68434
 51
286.40648
  0
ARC
  8
Engraving
 62
   7
 39
0.400
  6
CONTINUOUS
 10
34.39880
 20
71.86046
 30
 0
 40
0.67574
 50
216.73449
 51
257.79505
  0
LINE
  8
Engraving
 62
   7
 39
0.400
  6
CONTINUOUS
 10
36.47703
 20
73.76300
 30
 0
 11
36.47703
 21
72.90867
  0
LINE
  8
Engraving
 62
   7
 39
0.400
  6
CONTINUOUS
 10
36.47703
 20
72.90867
 30
 0
 11
36.90420
 21
72.90867
  0
LINE
  8
Engraving
 62
   7
 39
0.400
  6
CONTINUOUS
 10
36.90420
 20
72.90867
 30
 0
 11
36.19226
 21
72.90867
  0
LINE
  8
Engraving
 62
   7
 39
0.400
  6
CONTINUOUS
 10
36.19226
 20
72.90867
 30
 0
 11
36.47703
 21
72.90867
  0
LINE
  8
Engraving
 62
   7
 39
0.400
  6
CONTINUOUS
 10
36.47703
 20
72.90867
 30
 0
 11
36.47703
 21
71.54173
  0
ARC
  8
Engraving
 62
   7
 39
0.400
  6
CONTINUOUS
 10
36.82435
 20
71.54164
 30
 0
 40
0.34731
 50
179.98432
 51
259.62682
  0
LINE
  8
Engraving
 62
   7
 39
0.400
  6
CONTINUOUS
 10
37.58673
 20
71.91094
 30
 0
 11
37.58673
 21
72.19572
  0
ARC
  8
Engraving
 62
   7
 39
0.400
  6
CONTINUOUS
 10
38.29868
 20
72.19572
 30
 0
 40
0.71194
 50
0.00000
 51
180.00000
  0
LINE
  8
Engraving
 62
   7
 39
0.400
  6
CONTINUOUS
 10
39.01062
 20
72.19572
 30
 0
 11
39.01062
 21
71.91094
  0
ARC
  8
Engraving
 62
   7
 39
0.400
  6
CONTINUOUS
 10
38.29868
 20
71.91094
 30
 0
 40
0.71194
 50
-180.00000
 51
0.00000
  0
LINE
  8
Engraving
 62
   7
 39
0.400
  6
CONTINUOUS
 10
39.69373
 20
70.34367
 30
 0
 11
39.69373
 21
72.19472
  0
ARC
  8
Engraving
 62
   7
 39
0.400
  6
CONTINUOUS
 10
40.40568
 20
72.19472
 30
 0
 40
0.71194
 50
0.00000
 51
180.00000
  0
LINE
  8
Engraving
 62
   7
 39
0.400
  6
CONTINUOUS
 10
41.11762
 20
72.19472
 30
 0
 11
41.11762
 21
71.90994
  0
ARC
  8
Engraving
 62
   7
 39
0.400
  6
CONTINUOUS
 10
40.40568
 20
71.90994
 30
 0
 40
0.71194
 50
-180.00000
 51
0.00000
  0
LINE
  8
Engraving
 62
   7
 39
0.400
  6
CONTINUOUS
 10
39.69373
 20
71.90994
 30
 0
 11
39.69373
 21
72.90667
  0
LINE
  8
Engraving
 62
   7
 39
0.200
  6
CONTINUOUS
 10
11.19033
 20
2.94400
 30
 0
 11
12.58544
 21
2.94400
  0
LINE
  8
Engraving
 62
   7
 39
0.200
  6
CONTINUOUS
 10
12.58544
 20
2.94400
 30
 0
 11
12.63273
 21
2.82577
  0
LINE
  8
Engraving
 62
   7
 39
0.200
  6
CONTINUOUS
 10
12.63273
 20
2.82577
 30
 0
 11
12.63273
 21
3.03858
  0
LINE
  8
Engraving
 62
   7
 39
0.200
  6
CONTINUOUS
 10
12.63273
 20
3.03858
 30
 0
 11
11.11940
 21
3.03858
  0
LINE
  8
Engraving
 62
   7
 39
0.200
  6
CONTINUOUS
 10
11.11940
 20
3.03858
 30
 0
 11
11.11940
 21
2.82577
  0
LINE
  8
Engraving
 62
   7
 39
0.200
  6
CONTINUOUS
 10
11.11940
 20
2.82577
 30
 0
 11
12.63273
 21
2.82577
  0
LINE
  8
Engraving
 62
   7
 39
0.200
  6
CONTINUOUS
 10
13.29469
 20
3.29869
 30
 0
 11
14.00406
 21
3.29869
  0
LINE
  8
Engraving
 62
   7
 39
0.200
  6
CONTINUOUS
 10
14.00406
 20
3.29869
 30
 0
 11
14.05135
 21
3.20410
  0
LINE
  8
Engraving
 62
   7
 39
0.200
  6
CONTINUOUS
 10
14.05135
 20
3.20410
 30
 0
 11
13.22375
 21
3.20410
  0
LINE
  8
Engraving
 62
   7
 39
0.200
  6
CONTINUOUS
 10
13.22375
 20
3.20410
 30
 0
 11
13.22375
 21
3.41692
  0
LINE
  8
Engraving
 62
   7
 39
0.200
  6
CONTINUOUS
 10
13.22375
 20
3.41692
 30
 0
 11
14.05135
 21
3.41692
  0
LINE
  8
Engraving
 62
   7
 39
0.200
  6
CONTINUOUS
 10
14.05135
 20
3.41692
 30
 0
 11
14.05135
 21
3.20410
  0
LINE
  8
Engraving
 62
   7
 39
0.200
  6
CONTINUOUS
 10
14.00406
 20
2.58931
 30
 0
 11
13.29469
 21
2.58931
  0
LINE
  8
Engraving
 62
   7
 39
0.200
  6
CONTINUOUS
 10
13.29469
 20
2.58931
 30
 0
 11
13.22375
 21
2.47108
  0
LINE
  8
Engraving
 62
   7
 39
0.200
  6
CONTINUOUS
 10
13.22375
 20
2.47108
 30
 0
 11
14.05135
 21
2.47108
  0
LINE
  8
Engraving
 62
   7
 39
0.200
  6
CONTINUOUS
 10
14.05135
 20
2.47108
 30
 0
 11
14.05135
 21
2.68390
  0
LINE
  8
Engraving
 62
   7
 39
0.200
  6
CONTINUOUS
 10
14.05135
 20
2.68390
 30
 0
 11
13.22375
 21
2.68390
  0
LINE
  8
Engraving
 62
   7
 39
0.200
  6
CONTINUOUS
 10
13.22375
 20
2.68390
 30
 0
 11
13.22375
 21
2.47108
  0
ARC
  8
Engraving
 62
   7
 39
0.200
  6
CONTINUOUS
 10
16.42738
 20
2.94400
 30
 0
 40
1.54675
 50
143.40100
 51
216.59900
  0
ARC
  8
Engraving
 62
   7
 39
0.200
  6
CONTINUOUS
 10
15.70581
 20
3.48112
 30
 0
 40
0.64722
 50
36.50955
 51
143.49045
  0
ARC
  8
Engraving
 62
   7
 39
0.200
  6
CONTINUOUS
 10
14.98425
 20
2.94400
 30
 0
 40
1.54675
 50
-36.59900
 51
36.59900
  0
ARC
  8
Engraving
 62
   7
 39
0.200
  6
CONTINUOUS
 10
15.70581
 20
2.40688
 30
 0
 40
0.64722
 50
216.50955
 51
323.49045
  0
LINE
  8
Engraving
 62
   7
 39
0.200
  6
CONTINUOUS
 10
15.18560
 20
2.02181
 30
 0
 11
15.09102
 21
2.04546
  0
ARC
  8
Engraving
 62
   7
 39
0.200
  6
CONTINUOUS
 10
16.13874
 20
2.94400
 30
 0
 40
1.38025
 50
139.38312
 51
220.61688
  0
ARC
  8
Engraving
 62
   7
 39
0.200
  6
CONTINUOUS
 10
15.70581
 20
3.32367
 30
 0
 40
0.80449
 50
40.16395
 51
139.83605
  0
ARC
  8
Engraving
 62
   7
 39
0.200
  6
CONTINUOUS
 10
15.27288
 20
2.94400
 30
 0
 40
1.38025
 50
-40.61688
 51
40.61688
  0
ARC
  8
Engraving
 62
   7
 39
0.200
  6
CONTINUOUS
 10
15.70581
 20
2.56433
 30
 0
 40
0.80449
 50
220.16395
 51
319.83605
  0
LINE
  8
Engraving
 62
   7
 39
0.200
  6
CONTINUOUS
 10
15.09102
 20
2.04546
 30
 0
 11
15.13831
 21
1.95087
  0
ARC
  8
Engraving
 62
   7
 39
0.200
  6
CONTINUOUS
 10
15.87344
 20
2.94400
 30
 0
 40
1.23560
 50
126.50955
 51
233.49045
  0
ARC
  8
Engraving
 62
   7
 39
0.200
  6
CONTINUOUS
 10
15.70581
 20
3.17296
 30
 0
 40
0.95184
 50
53.40100
 51
126.59900
  0
ARC
  8
Engraving
 62
   7
 39
0.200
  6
CONTINUOUS
 10
15.53818
 20
2.94400
 30
 0
 40
1.23560
 50
-53.49045
 51
53.49045
  0
ARC
  8
Engraving
 62
   7
 39
0.200
  6
CONTINUOUS
 10
15.70581
 20
2.71504
 30
 0
 40
0.95184
 50
233.40100
 51
306.59900
  0
ARC
  8
Engraving
 62
   7
 39
0.200
  6
CONTINUOUS
 10
15.78857
 20
2.08093
 30
 0
 40
0.37125
 50
52.76517
 51
232.76517
  0
ARC
  8
Engraving
 62
   7
 39
0.200
  6
CONTINUOUS
 10
15.44257
 20
1.92669
 30
 0
 40
0.72661
 50
11.30312
 51
38.24716
  0
ARC
  8
Engraving
 62
   7
 39
0.200
  6
CONTINUOUS
 10
20.44738
 20
2.93741
 30
 0
 40
4.37924
 50
191.43625
 51
200.45455
  0
ARC
  8
Engraving
 62
   7
 39
0.200
  6
CONTINUOUS
 10
16.52612
 20
1.48665
 30
 0
 40
0.19854
 50
203.64691
 51
265.27773
  0
ARC
  8
Engraving
 62
   7
 39
0.200
  6
CONTINUOUS
 10
16.50071
 20
1.59588
 30
 0
 40
0.30722
 50
271.68987
 51
316.23511
  0
ARC
  8
Engraving
 62
   7
 39
0.200
  6
CONTINUOUS
 10
16.61500
 20
1.56239
 30
 0
 40
0.20885
 50
196.92025
 51
301.00473
  0
ARC
  8
Engraving
 62
   7
 39
0.200
  6
CONTINUOUS
 10
10.05598
 20
-0.45383
 30
 0
 40
6.65306
 50
17.09249
 51
22.50526
  0
ARC
  8
Engraving
 62
   7
 39
0.200
  6
CONTINUOUS
 10
15.36374
 20
1.73859
 30
 0
 40
0.91035
 50
22.89457
 51
44.48557
  0
ARC
  8
Engraving
 62
   7
 39
0.200
  6
CONTINUOUS
 10
15.44244
 20
2.03282
 30
 0
 40
0.66626
 50
-2.98116
 51
31.05365
  0
ARC
  8
Engraving
 62
   7
 39
0.200
  6
CONTINUOUS
 10
17.30637
 20
1.95100
 30
 0
 40
1.19951
 50
177.74623
 51
208.24300
  0
ARC
  8
Engraving
 62
   7
 39
0.200
  6
CONTINUOUS
 10
16.48613
 20
1.51376
 30
 0
 40
0.27002
 50
208.87195
 51
331.12805
  0
ARC
  8
Engraving
 62
   7
 39
0.200
  6
CONTINUOUS
 10
15.56656
 20
2.00443
 30
 0
 40
1.31229
 50
331.75365
 51
346.17133
  0
ARC
  8
Engraving
 62
   7
 39
0.200
  6
CONTINUOUS
 10
17.63349
 20
3.10302
 30
 0
 40
0.12947
 50
2.87605
 51
74.44356
  0
LINE
  8
Engraving
 62
   7
 39
0.200
  6
CONTINUOUS
 10
17.66821
 20
3.22775
 30
 0
 11
17.81008
 21
3.25140
  0
LINE
  8
Engraving
 62
   7
 39
0.200
  6
CONTINUOUS
 10
17.81008
 20
3.25140
 30
 0
 11
17.81008
 21
2.21098
  0
ARC
  8
Engraving
 62
   7
 39
0.200
  6
CONTINUOUS
 10
18.18623
 20
2.21265
 30
 0
 40
0.37615
 50
180.25459
 51
288.67006
  0
ARC
  8
Engraving
 62
   7
 39
0.200
  6
CONTINUOUS
 10
18.03027
 20
2.67235
 30
 0
 40
0.86159
 50
288.70992
 51
308.51100
  0
ARC
  8
Engraving
 62
   7
 39
0.200
  6
CONTINUOUS
 10
18.22775
 20
2.55807
 30
 0
 40
0.65453
 50
270.69701
 51
301.19378
  0
ARC
  8
Engraving
 62
   7
 39
0.200
  6
CONTINUOUS
 10
18.23396
 20
2.23288
 30
 0
 40
0.32930
 50
179.69622
 51
270.30378
  0
LINE
  8
Engraving
 62
   7
 39
0.200
  6
CONTINUOUS
 10
17.90467
 20
2.23463
 30
 0
 11
17.90467
 21
3.29869
  0
LINE
  8
Engraving
 62
   7
 39
0.200
  6
CONTINUOUS
 10
17.90467
 20
3.29869
 30
 0
 11
17.43175
 21
3.22775
  0
LINE
  8
Engraving
 62
   7
 39
0.200
  6
CONTINUOUS
 10
17.43175
 20
3.22775
 30
 0
 11
17.54998
 21
3.22775
  0
ARC
  8
Engraving
 62
   7
 39
0.200
  6
CONTINUOUS
 10
17.55085
 20
3.06310
 30
 0
 40
0.16465
 50
-0.30378
 51
90.30378
  0
LINE
  8
Engraving
 62
   7
 39
0.200
  6
CONTINUOUS
 10
17.71550
 20
3.06223
 30
 0
 11
17.71550
 21
2.23463
  0
ARC
  8
Engraving
 62
   7
 39
0.200
  6
CONTINUOUS
 10
18.16133
 20
2.23639
 30
 0
 40
0.44584
 50
180.22623
 51
238.48928
  0
ARC
  8
Engraving
 62
   7
 39
0.200
  6
CONTINUOUS
 10
18.16477
 20
2.23986
 30
 0
 40
0.45060
 50
238.34769
 51
301.65231
  0
ARC
  8
Engraving
 62
   7
 39
0.200
  6
CONTINUOUS
 10
18.01178
 20
2.50044
 30
 0
 40
0.75272
 50
301.15675
 51
333.42447
  0
LINE
  8
Engraving
 62
   7
 39
0.200
  6
CONTINUOUS
 10
18.68498
 20
2.16369
 30
 0
 11
18.73227
 21
1.85629
  0
LINE
  8
Engraving
 62
   7
 39
0.200
  6
CONTINUOUS
 10
18.73227
 20
1.85629
 30
 0
 11
18.94508
 21
1.87994
  0
ARC
  8
Engraving
 62
   7
 39
0.200
  6
CONTINUOUS
 10
18.94421
 20
2.04459
 30
 0
 40
0.16465
 50
179.69622
 51
270.30378
  0
LINE
  8
Engraving
 62
   7
 39
0.200
  6
CONTINUOUS
 10
18.77956
 20
2.04546
 30
 0
 11
18.77956
 21
3.25140
  0
LINE
  8
Engraving
 62
   7
 39
0.200
  6
CONTINUOUS
 10
18.77956
 20
3.25140
 30
 0
 11
18.66133
 21
3.22775
  0
ARC
  8
Engraving
 62
   7
 39
0.200
  6
CONTINUOUS
 10
18.55848
 20
3.08564
 30
 0
 40
0.17543
 50
7.82381
 51
54.10370
  0
LINE
  8
Engraving
 62
   7
 39
0.200
  6
CONTINUOUS
 10
18.73227
 20
3.10952
 30
 0
 11
18.68498
 21
3.06223
  0
LINE
  8
Engraving
 62
   7
 39
0.200
  6
CONTINUOUS
 10
18.68498
 20
3.06223
 30
 0
 11
18.68498
 21
1.80900
  0
LINE
  8
Engraving
 62
   7
 39
0.200
  6
CONTINUOUS
 10
18.68498
 20
1.80900
 30
 0
 11
19.15790
 21
1.87994
  0
LINE
  8
Engraving
 62
   7
 39
0.200
  6
CONTINUOUS
 10
19.15790
 20
1.87994
 30
 0
 11
19.03967
 21
1.87994
  0
ARC
  8
Engraving
 62
   7
 39
0.200
  6
CONTINUOUS
 10
19.03879
 20
2.04459
 30
 0
 40
0.16465
 50
179.69622
 51
270.30378
  0
LINE
  8
Engraving
 62
   7
 39
0.200
  6
CONTINUOUS
 10
18.87415
 20
2.04546
 30
 0
 11
18.87415
 21
3.29869
  0
LINE
  8
Engraving
 62
   7
 39
0.200
  6
CONTINUOUS
 10
18.87415
 20
3.29869
 30
 0
 11
18.40123
 21
3.22775
  0
LINE
  8
Engraving
 62
   7
 39
0.200
  6
CONTINUOUS
 10
18.40123
 20
3.22775
 30
 0
 11
18.51946
 21
3.22775
  0
ARC
  8
Engraving
 62
   7
 39
0.200
  6
CONTINUOUS
 10
18.52033
 20
3.06310
 30
 0
 40
0.16465
 50
-0.30378
 51
90.30378
  0
LINE
  8
Engraving
 62
   7
 39
0.200
  6
CONTINUOUS
 10
20.12708
 20
4.03171
 30
 0
 11
20.12708
 21
3.84254
  0
ARC
  8
Engraving
 62
   7
 39
0.200
  6
CONTINUOUS
 10
20.12708
 20
3.96077
 30
 0
 40
0.11823
 50
270.00000
 51
450.00000
  0
ARC
  8
Engraving
 62
   7
 39
0.200
  6
CONTINUOUS
 10
20.12708
 20
3.96077
 30
 0
 40
0.11823
 50
90.00000
 51
270.00000
  0
ARC
  8
Engraving
 62
   7
 39
0.200
  6
CONTINUOUS
 10
19.77945
 20
2.90377
 30
 0
 40
0.38380
 50
32.41866
 51
57.58134
  0
LINE
  8
Engraving
 62
   7
 39
0.200
  6
CONTINUOUS
 10
19.98521
 20
3.22775
 30
 0
 11
20.12708
 21
3.25140
  0
LINE
  8
Engraving
 62
   7
 39
0.200
  6
CONTINUOUS
 10
20.12708
 20
3.25140
 30
 0
 11
20.12708
 21
1.97452
  0
ARC
  8
Engraving
 62
   7
 39
0.200
  6
CONTINUOUS
 10
19.98289
 20
1.97448
 30
 0
 40
0.14419
 50
-79.62682
 51
0.01568
  0
LINE
  8
Engraving
 62
   7
 39
0.200
  6
CONTINUOUS
 10
20.00885
 20
1.83265
 30
 0
 11
20.24531
 21
1.83265
  0
ARC
  8
Engraving
 62
   7
 39
0.200
  6
CONTINUOUS
 10
20.29761
 20
1.99643
 30
 0
 40
0.17193
 50
187.31981
 51
252.29133
  0
LINE
  8
Engraving
 62
   7
 39
0.200
  6
CONTINUOUS
 10
20.12708
 20
1.97452
 30
 0
 11
20.22167
 21
1.97452
  0
ARC
  8
Engraving
 62
   7
 39
0.200
  6
CONTINUOUS
 10
20.38631
 20
1.97365
 30
 0
 40
0.16465
 50
179.69622
 51
270.30378
  0
LINE
  8
Engraving
 62
   7
 39
0.200
  6
CONTINUOUS
 10
20.38719
 20
1.80900
 30
 0
 11
20.48177
 21
1.80900
  0
LINE
  8
Engraving
 62
   7
 39
0.200
  6
CONTINUOUS
 10
20.48177
 20
1.80900
 30
 0
 11
19.74875
 21
1.80900
  0
LINE
  8
Engraving
 62
   7
 39
0.200
  6
CONTINUOUS
 10
19.74875
 20
1.80900
 30
 0
 11
19.86698
 21
1.80900
  0
ARC
  8
Engraving
 62
   7
 39
0.200
  6
CONTINUOUS
 10
19.86785
 20
1.97365
 30
 0
 40
0.16465
 50
269.69622
 51
360.30378
  0
LINE
  8
Engraving
 62
   7
 39
0.200
  6
CONTINUOUS
 10
20.03250
 20
1.97452
 30
 0
 11
20.03250
 21
3.06223
  0
ARC
  8
Engraving
 62
   7
 39
0.200
  6
CONTINUOUS
 10
19.86785
 20
3.06310
 30
 0
 40
0.16465
 50
359.69622
 51
450.30378
  0
LINE
  8
Engraving
 62
   7
 39
0.200
  6
CONTINUOUS
 10
19.86698
 20
3.22775
 30
 0
 11
19.74875
 21
3.22775
  0
LINE
  8
Engraving
 62
   7
 39
0.200
  6
CONTINUOUS
 10
19.74875
 20
3.22775
 30
 0
 11
20.22167
 21
3.29869
  0
LINE
  8
Engraving
 62
   7
 39
0.200
  6
CONTINUOUS
 10
20.22167
 20
3.29869
 30
 0
 11
20.22167
 21
1.97452
  0
ARC
  8
Engraving
 62
   7
 39
0.200
  6
CONTINUOUS
 10
21.28631
 20
3.08562
 30
 0
 40
0.14297
 50
9.21625
 51
80.78375
  0
LINE
  8
Engraving
 62
   7
 39
0.200
  6
CONTINUOUS
 10
21.30921
 20
3.22675
 30
 0
 11
21.45108
 21
3.25040
  0
LINE
  8
Engraving
 62
   7
 39
0.200
  6
CONTINUOUS
 10
21.45108
 20
3.25040
 30
 0
 11
21.45108
 21
1.97352
  0
ARC
  8
Engraving
 62
   7
 39
0.200
  6
CONTINUOUS
 10
21.29586
 20
1.97454
 30
 0
 40
0.15522
 50
292.99424
 51
359.62562
  0
LINE
  8
Engraving
 62
   7
 39
0.200
  6
CONTINUOUS
 10
21.35650
 20
1.83165
 30
 0
 11
21.54567
 21
1.83165
  0
ARC
  8
Engraving
 62
   7
 39
0.200
  6
CONTINUOUS
 10
21.66436
 20
2.01324
 30
 0
 40
0.21695
 50
190.55012
 51
236.83001
  0
LINE
  8
Engraving
 62
   7
 39
0.200
  6
CONTINUOUS
 10
21.45108
 20
1.97352
 30
 0
 11
21.54567
 21
1.97352
  0
ARC
  8
Engraving
 62
   7
 39
0.200
  6
CONTINUOUS
 10
21.71031
 20
1.97265
 30
 0
 40
0.16465
 50
179.69622
 51
270.30378
  0
LINE
  8
Engraving
 62
   7
 39
0.200
  6
CONTINUOUS
 10
21.71119
 20
1.80800
 30
 0
 11
21.80577
 21
1.80800
  0
LINE
  8
Engraving
 62
   7
 39
0.200
  6
CONTINUOUS
 10
21.80577
 20
1.80800
 30
 0
 11
21.07275
 21
1.80800
  0
LINE
  8
Engraving
 62
   7
 39
0.200
  6
CONTINUOUS
 10
21.07275
 20
1.80800
 30
 0
 11
21.19098
 21
1.80800
  0
ARC
  8
Engraving
 62
   7
 39
0.200
  6
CONTINUOUS
 10
21.19185
 20
1.97265
 30
 0
 40
0.16465
 50
269.69622
 51
360.30378
  0
LINE
  8
Engraving
 62
   7
 39
0.200
  6
CONTINUOUS
 10
21.35650
 20
1.97352
 30
 0
 11
21.35650
 21
3.06123
  0
ARC
  8
Engraving
 62
   7
 39
0.200
  6
CONTINUOUS
 10
21.19185
 20
3.06210
 30
 0
 40
0.16465
 50
359.69622
 51
450.30378
  0
LINE
  8
Engraving
 62
   7
 39
0.200
  6
CONTINUOUS
 10
21.19098
 20
3.22675
 30
 0
 11
21.07275
 21
3.22675
  0
LINE
  8
Engraving
 62
   7
 39
0.200
  6
CONTINUOUS
 10
21.07275
 20
3.22675
 30
 0
 11
21.54567
 21
3.29769
  0
LINE
  8
Engraving
 62
   7
 39
0.200
  6
CONTINUOUS
 10
21.54567
 20
3.29769
 30
 0
 11
21.54567
 21
1.97352
  0
LINE
  8
Engraving
 62
   7
 39
0.200
  6
CONTINUOUS
 10
21.54567
 20
1.97352
 30
 0
 11
21.54567
 21
2.94300
  0
ARC
  8
Engraving
 62
   7
 39
0.200
  6
CONTINUOUS
 10
22.01907
 20
2.74657
 30
 0
 40
0.51254
 50
79.42133
 51
157.46453
  0
ARC
  8
Engraving
 62
   7
 39
0.200
  6
CONTINUOUS
 10
22.06008
 20
2.89384
 30
 0
 40
0.36049
 50
0.29750
 51
81.53127
  0
LINE
  8
Engraving
 62
   7
 39
0.200
  6
CONTINUOUS
 10
22.42056
 20
2.89571
 30
 0
 11
22.42056
 21
1.97352
  0
ARC
  8
Engraving
 62
   7
 39
0.200
  6
CONTINUOUS
 10
22.21398
 20
2.00878
 30
 0
 40
0.20957
 50
302.30534
 51
350.31452
  0
LINE
  8
Engraving
 62
   7
 39
0.200
  6
CONTINUOUS
 10
22.32598
 20
1.83165
 30
 0
 11
22.51515
 21
1.83165
  0
ARC
  8
Engraving
 62
   7
 39
0.200
  6
CONTINUOUS
 10
22.55794
 20
1.96264
 30
 0
 40
0.13781
 50
175.47210
 51
251.90804
  0
LINE
  8
Engraving
 62
   7
 39
0.200
  6
CONTINUOUS
 10
22.42056
 20
1.97352
 30
 0
 11
22.51515
 21
1.97352
  0
ARC
  8
Engraving
 62
   7
 39
0.200
  6
CONTINUOUS
 10
22.67979
 20
1.97265
 30
 0
 40
0.16465
 50
179.69622
 51
270.30378
  0
LINE
  8
Engraving
 62
   7
 39
0.200
  6
CONTINUOUS
 10
22.68067
 20
1.80800
 30
 0
 11
22.79890
 21
1.80800
  0
LINE
  8
Engraving
 62
   7
 39
0.200
  6
CONTINUOUS
 10
22.79890
 20
1.80800
 30
 0
 11
22.04223
 21
1.80800
  0
LINE
  8
Engraving
 62
   7
 39
0.200
  6
CONTINUOUS
 10
22.04223
 20
1.80800
 30
 0
 11
22.16046
 21
1.80800
  0
ARC
  8
Engraving
 62
   7
 39
0.200
  6
CONTINUOUS
 10
22.16133
 20
1.97265
 30
 0
 40
0.16465
 50
269.69622
 51
360.30378
  0
LINE
  8
Engraving
 62
   7
 39
0.200
  6
CONTINUOUS
 10
22.32598
 20
1.97352
 30
 0
 11
22.32598
 21
2.94300
  0
ARC
  8
Engraving
 62
   7
 39
0.200
  6
CONTINUOUS
 10
22.06912
 20
2.93955
 30
 0
 40
0.25688
 50
0.76991
 51
57.33930
  0
ARC
  8
Engraving
 62
   7
 39
0.200
  6
CONTINUOUS
 10
21.96674
 20
2.77663
 30
 0
 40
0.44929
 50
57.55932
 51
132.38016
  0
ARC
  8
Engraving
 62
   7
 39
0.200
  6
CONTINUOUS
 10
22.00480
 20
2.74003
 30
 0
 40
0.50199
 50
132.77319
 51
156.15145
  0
ARC
  8
Engraving
 62
   7
 39
0.200
  6
CONTINUOUS
 10
22.06639
 20
2.73286
 30
 0
 40
0.56152
 50
56.87125
 51
158.02312
  0
ARC
  8
Engraving
 62
   7
 39
0.200
  6
CONTINUOUS
 10
22.20252
 20
2.94122
 30
 0
 40
0.31263
 50
0.32577
 51
56.89515
  0
LINE
  8
Engraving
 62
   7
 39
0.200
  6
CONTINUOUS
 10
22.51515
 20
2.94300
 30
 0
 11
22.51515
 21
1.97352
  0
LINE
  8
Engraving
 62
   7
 39
0.200
  6
CONTINUOUS
 10
23.76808
 20
4.03071
 30
 0
 11
23.76808
 21
3.84154
  0
ARC
  8
Engraving
 62
   7
 39
0.200
  6
CONTINUOUS
 10
23.76808
 20
3.95977
 30
 0
 40
0.11823
 50
270.00000
 51
450.00000
  0
ARC
  8
Engraving
 62
   7
 39
0.200
  6
CONTINUOUS
 10
23.76808
 20
3.95977
 30
 0
 40
0.11823
 50
90.00000
 51
270.00000
  0
ARC
  8
Engraving
 62
   7
 39
0.200
  6
CONTINUOUS
 10
23.42045
 20
2.90277
 30
 0
 40
0.38380
 50
32.41866
 51
57.58134
  0
LINE
  8
Engraving
 62
   7
 39
0.200
  6
CONTINUOUS
 10
23.62621
 20
3.22675
 30
 0
 11
23.76808
 21
3.25040
  0
LINE
  8
Engraving
 62
   7
 39
0.200
  6
CONTINUOUS
 10
23.76808
 20
3.25040
 30
 0
 11
23.76808
 21
1.97352
  0
ARC
  8
Engraving
 62
   7
 39
0.200
  6
CONTINUOUS
 10
23.62389
 20
1.97348
 30
 0
 40
0.14419
 50
-79.62682
 51
0.01568
  0
LINE
  8
Engraving
 62
   7
 39
0.200
  6
CONTINUOUS
 10
23.64985
 20
1.83165
 30
 0
 11
23.88631
 21
1.83165
  0
ARC
  8
Engraving
 62
   7
 39
0.200
  6
CONTINUOUS
 10
23.93861
 20
1.99543
 30
 0
 40
0.17193
 50
187.31981
 51
252.29133
  0
LINE
  8
Engraving
 62
   7
 39
0.200
  6
CONTINUOUS
 10
23.76808
 20
1.97352
 30
 0
 11
23.86267
 21
1.97352
  0
ARC
  8
Engraving
 62
   7
 39
0.200
  6
CONTINUOUS
 10
24.02731
 20
1.97265
 30
 0
 40
0.16465
 50
179.69622
 51
270.30378
  0
LINE
  8
Engraving
 62
   7
 39
0.200
  6
CONTINUOUS
 10
24.02819
 20
1.80800
 30
 0
 11
24.12277
 21
1.80800
  0
LINE
  8
Engraving
 62
   7
 39
0.200
  6
CONTINUOUS
 10
24.12277
 20
1.80800
 30
 0
 11
23.38975
 21
1.80800
  0
LINE
  8
Engraving
 62
   7
 39
0.200
  6
CONTINUOUS
 10
23.38975
 20
1.80800
 30
 0
 11
23.50798
 21
1.80800
  0
ARC
  8
Engraving
 62
   7
 39
0.200
  6
CONTINUOUS
 10
23.50885
 20
1.97265
 30
 0
 40
0.16465
 50
269.69622
 51
360.30378
  0
LINE
  8
Engraving
 62
   7
 39
0.200
  6
CONTINUOUS
 10
23.67350
 20
1.97352
 30
 0
 11
23.67350
 21
3.06123
  0
ARC
  8
Engraving
 62
   7
 39
0.200
  6
CONTINUOUS
 10
23.50885
 20
3.06210
 30
 0
 40
0.16465
 50
359.69622
 51
450.30378
  0
LINE
  8
Engraving
 62
   7
 39
0.200
  6
CONTINUOUS
 10
23.50798
 20
3.22675
 30
 0
 11
23.38975
 21
3.22675
  0
LINE
  8
Engraving
 62
   7
 39
0.200
  6
CONTINUOUS
 10
23.38975
 20
3.22675
 30
 0
 11
23.86267
 21
3.29769
  0
LINE
  8
Engraving
 62
   7
 39
0.200
  6
CONTINUOUS
 10
23.86267
 20
3.29769
 30
 0
 11
23.86267
 21
1.97352
  0
LINE
  8
Engraving
 62
   7
 39
0.200
  6
CONTINUOUS
 10
24.90292
 20
2.56367
 30
 0
 11
25.96698
 21
2.56367
  0
ARC
  8
Engraving
 62
   7
 39
0.200
  6
CONTINUOUS
 10
25.09464
 20
2.55760
 30
 0
 40
0.87236
 50
0.39871
 51
43.20411
  0
ARC
  8
Engraving
 62
   7
 39
0.200
  6
CONTINUOUS
 10
25.34036
 20
2.77896
 30
 0
 40
0.54174
 50
43.92991
 51
136.07009
  0
ARC
  8
Engraving
 62
   7
 39
0.200
  6
CONTINUOUS
 10
25.61529
 20
2.55184
 30
 0
 40
0.89772
 50
137.80410
 51
222.19590
  0
ARC
  8
Engraving
 62
   7
 39
0.200
  6
CONTINUOUS
 10
25.33427
 20
2.29884
 30
 0
 40
0.51959
 50
222.34045
 51
277.20983
  0
ARC
  8
Engraving
 62
   7
 39
0.200
  6
CONTINUOUS
 10
25.34942
 20
2.23478
 30
 0
 40
0.45419
 50
231.78199
 51
276.32722
  0
ARC
  8
Engraving
 62
   7
 39
0.200
  6
CONTINUOUS
 10
25.81373
 20
2.53777
 30
 0
 40
0.99541
 50
145.08389
 51
221.51984
  0
ARC
  8
Engraving
 62
   7
 39
0.200
  6
CONTINUOUS
 10
25.36401
 20
2.88817
 30
 0
 40
0.42713
 50
30.89967
 51
149.10033
  0
ARC
  8
Engraving
 62
   7
 39
0.200
  6
CONTINUOUS
 10
25.11816
 20
2.62753
 30
 0
 40
0.77806
 50
-1.22050
 51
38.09040
  0
LINE
  8
Engraving
 62
   7
 39
0.200
  6
CONTINUOUS
 10
25.89604
 20
2.61096
 30
 0
 11
25.80146
 21
2.56367
  0
ARC
  8
Engraving
 62
   7
 39
0.200
  6
CONTINUOUS
 10
24.52395
 20
2.57073
 30
 0
 40
1.27753
 50
359.68343
 51
384.84612
  0
ARC
  8
Engraving
 62
   7
 39
0.200
  6
CONTINUOUS
 10
25.36401
 20
2.96338
 30
 0
 40
0.35025
 50
24.30182
 51
155.69818
  0
ARC
  8
Engraving
 62
   7
 39
0.200
  6
CONTINUOUS
 10
26.26924
 20
2.54002
 30
 0
 40
1.34957
 50
155.13353
 51
204.86647
  0
ARC
  8
Engraving
 62
   7
 39
0.200
  6
CONTINUOUS
 10
25.33797
 20
2.10459
 30
 0
 40
0.32155
 50
204.25046
 51
272.53454
  0
LINE
  8
Engraving
 62
   7
 39
0.200
  6
CONTINUOUS
 10
25.35219
 20
1.78335
 30
 0
 11
25.39948
 21
1.78335
  0
ARC
  8
Engraving
 62
   7
 39
0.200
  6
CONTINUOUS
 10
25.30243
 20
2.46763
 30
 0
 40
0.69112
 50
278.07192
 51
338.02217
  0
ARC
  8
Engraving
 62
   7
 39
0.200
  6
CONTINUOUS
 10
26.69962
 20
1.92523
 30
 0
 40
0.11823
 50
270.00000
 51
450.00000
  0
ARC
  8
Engraving
 62
   7
 39
0.200
  6
CONTINUOUS
 10
26.69962
 20
1.92523
 30
 0
 40
0.11823
 50
90.00000
 51
270.00000
  0
LINE
  8
Engraving
 62
   7
 39
0.200
  6
CONTINUOUS
 10
26.69962
 20
1.80700
 30
 0
 11
26.69962
 21
1.99617
  0
ARC
  8
Engraving
 62
   7
 39
0.200
  6
CONTINUOUS
 10
27.62231
 20
3.08362
 30
 0
 40
0.14297
 50
9.21625
 51
80.78375
  0
LINE
  8
Engraving
 62
   7
 39
0.200
  6
CONTINUOUS
 10
27.64521
 20
3.22475
 30
 0
 11
27.78708
 21
3.24840
  0
LINE
  8
Engraving
 62
   7
 39
0.200
  6
CONTINUOUS
 10
27.78708
 20
3.24840
 30
 0
 11
27.78708
 21
1.97152
  0
ARC
  8
Engraving
 62
   7
 39
0.200
  6
CONTINUOUS
 10
27.63186
 20
1.97254
 30
 0
 40
0.15522
 50
292.99424
 51
359.62562
  0
LINE
  8
Engraving
 62
   7
 39
0.200
  6
CONTINUOUS
 10
27.69250
 20
1.82965
 30
 0
 11
27.88167
 21
1.82965
  0
ARC
  8
Engraving
 62
   7
 39
0.200
  6
CONTINUOUS
 10
28.00036
 20
2.01124
 30
 0
 40
0.21695
 50
190.55012
 51
236.83001
  0
LINE
  8
Engraving
 62
   7
 39
0.200
  6
CONTINUOUS
 10
27.78708
 20
1.97152
 30
 0
 11
27.88167
 21
1.97152
  0
ARC
  8
Engraving
 62
   7
 39
0.200
  6
CONTINUOUS
 10
28.04631
 20
1.97065
 30
 0
 40
0.16465
 50
179.69622
 51
270.30378
  0
LINE
  8
Engraving
 62
   7
 39
0.200
  6
CONTINUOUS
 10
28.04719
 20
1.80600
 30
 0
 11
28.14177
 21
1.80600
  0
LINE
  8
Engraving
 62
   7
 39
0.200
  6
CONTINUOUS
 10
28.14177
 20
1.80600
 30
 0
 11
27.40875
 21
1.80600
  0
LINE
  8
Engraving
 62
   7
 39
0.200
  6
CONTINUOUS
 10
27.40875
 20
1.80600
 30
 0
 11
27.52698
 21
1.80600
  0
ARC
  8
Engraving
 62
   7
 39
0.200
  6
CONTINUOUS
 10
27.52785
 20
1.97065
 30
 0
 40
0.16465
 50
269.69622
 51
360.30378
  0
LINE
  8
Engraving
 62
   7
 39
0.200
  6
CONTINUOUS
 10
27.69250
 20
1.97152
 30
 0
 11
27.69250
 21
3.05923
  0
ARC
  8
Engraving
 62
   7
 39
0.200
  6
CONTINUOUS
 10
27.52785
 20
3.06010
 30
 0
 40
0.16465
 50
359.69622
 51
450.30378
  0
LINE
  8
Engraving
 62
   7
 39
0.200
  6
CONTINUOUS
 10
27.52698
 20
3.22475
 30
 0
 11
27.40875
 21
3.22475
  0
LINE
  8
Engraving
 62
   7
 39
0.200
  6
CONTINUOUS
 10
27.40875
 20
3.22475
 30
 0
 11
27.88167
 21
3.29569
  0
LINE
  8
Engraving
 62
   7
 39
0.200
  6
CONTINUOUS
 10
27.88167
 20
3.29569
 30
 0
 11
27.88167
 21
1.97152
  0
LINE
  8
Engraving
 62
   7
 39
0.200
  6
CONTINUOUS
 10
27.88167
 20
1.97152
 30
 0
 11
27.88167
 21
2.94100
  0
ARC
  8
Engraving
 62
   7
 39
0.200
  6
CONTINUOUS
 10
28.35507
 20
2.74457
 30
 0
 40
0.51254
 50
79.42133
 51
157.46453
  0
ARC
  8
Engraving
 62
   7
 39
0.200
  6
CONTINUOUS
 10
28.39608
 20
2.89184
 30
 0
 40
0.36049
 50
0.29750
 51
81.53127
  0
LINE
  8
Engraving
 62
   7
 39
0.200
  6
CONTINUOUS
 10
28.75656
 20
2.89371
 30
 0
 11
28.75656
 21
1.97152
  0
ARC
  8
Engraving
 62
   7
 39
0.200
  6
CONTINUOUS
 10
28.54998
 20
2.00678
 30
 0
 40
0.20957
 50
302.30534
 51
350.31452
  0
LINE
  8
Engraving
 62
   7
 39
0.200
  6
CONTINUOUS
 10
28.66198
 20
1.82965
 30
 0
 11
28.85115
 21
1.82965
  0
ARC
  8
Engraving
 62
   7
 39
0.200
  6
CONTINUOUS
 10
28.89394
 20
1.96064
 30
 0
 40
0.13781
 50
175.47210
 51
251.90804
  0
LINE
  8
Engraving
 62
   7
 39
0.200
  6
CONTINUOUS
 10
28.75656
 20
1.97152
 30
 0
 11
28.85115
 21
1.97152
  0
ARC
  8
Engraving
 62
   7
 39
0.200
  6
CONTINUOUS
 10
29.01579
 20
1.97065
 30
 0
 40
0.16465
 50
179.69622
 51
270.30378
  0
LINE
  8
Engraving
 62
   7
 39
0.200
  6
CONTINUOUS
 10
29.01667
 20
1.80600
 30
 0
 11
29.13490
 21
1.80600
  0
LINE
  8
Engraving
 62
   7
 39
0.200
  6
CONTINUOUS
 10
29.13490
 20
1.80600
 30
 0
 11
28.37823
 21
1.80600
  0
LINE
  8
Engraving
 62
   7
 39
0.200
  6
CONTINUOUS
 10
28.37823
 20
1.80600
 30
 0
 11
28.49646
 21
1.80600
  0
ARC
  8
Engraving
 62
   7
 39
0.200
  6
CONTINUOUS
 10
28.49733
 20
1.97065
 30
 0
 40
0.16465
 50
269.69622
 51
360.30378
  0
LINE
  8
Engraving
 62
   7
 39
0.200
  6
CONTINUOUS
 10
28.66198
 20
1.97152
 30
 0
 11
28.66198
 21
2.94100
  0
ARC
  8
Engraving
 62
   7
 39
0.200
  6
CONTINUOUS
 10
28.40512
 20
2.93755
 30
 0
 40
0.25688
 50
0.76991
 51
57.33930
  0
ARC
  8
Engraving
 62
   7
 39
0.200
  6
CONTINUOUS
 10
28.30274
 20
2.77463
 30
 0
 40
0.44929
 50
57.55932
 51
132.38016
  0
ARC
  8
Engraving
 62
   7
 39
0.200
  6
CONTINUOUS
 10
28.34080
 20
2.73803
 30
 0
 40
0.50199
 50
132.77319
 51
156.15145
  0
ARC
  8
Engraving
 62
   7
 39
0.200
  6
CONTINUOUS
 10
28.40239
 20
2.73086
 30
 0
 40
0.56152
 50
56.87125
 51
158.02312
  0
ARC
  8
Engraving
 62
   7
 39
0.200
  6
CONTINUOUS
 10
28.53852
 20
2.93922
 30
 0
 40
0.31263
 50
0.32577
 51
56.89515
  0
LINE
  8
Engraving
 62
   7
 39
0.200
  6
CONTINUOUS
 10
28.85115
 20
2.94100
 30
 0
 11
28.85115
 21
1.97152
  0
ARC
  8
Engraving
 62
   7
 39
0.200
  6
CONTINUOUS
 10
29.92580
 20
3.85452
 30
 0
 40
0.15488
 50
3.20657
 51
76.40457
  0
LINE
  8
Engraving
 62
   7
 39
0.200
  6
CONTINUOUS
 10
29.96221
 20
4.00506
 30
 0
 11
30.10408
 21
4.02871
  0
LINE
  8
Engraving
 62
   7
 39
0.200
  6
CONTINUOUS
 10
30.10408
 20
4.02871
 30
 0
 11
30.10408
 21
1.97152
  0
ARC
  8
Engraving
 62
   7
 39
0.200
  6
CONTINUOUS
 10
29.89080
 20
2.01124
 30
 0
 40
0.21695
 50
303.16999
 51
349.44988
  0
LINE
  8
Engraving
 62
   7
 39
0.200
  6
CONTINUOUS
 10
30.00950
 20
1.82965
 30
 0
 11
30.19867
 21
1.82965
  0
ARC
  8
Engraving
 62
   7
 39
0.200
  6
CONTINUOUS
 10
30.38315
 20
2.05510
 30
 0
 40
0.29131
 50
196.67266
 51
230.70747
  0
LINE
  8
Engraving
 62
   7
 39
0.200
  6
CONTINUOUS
 10
30.10408
 20
1.97152
 30
 0
 11
30.19867
 21
1.97152
  0
ARC
  8
Engraving
 62
   7
 39
0.200
  6
CONTINUOUS
 10
30.36331
 20
1.97065
 30
 0
 40
0.16465
 50
179.69622
 51
270.30378
  0
LINE
  8
Engraving
 62
   7
 39
0.200
  6
CONTINUOUS
 10
30.36419
 20
1.80600
 30
 0
 11
30.45877
 21
1.80600
  0
LINE
  8
Engraving
 62
   7
 39
0.200
  6
CONTINUOUS
 10
30.45877
 20
1.80600
 30
 0
 11
29.72575
 21
1.80600
  0
LINE
  8
Engraving
 62
   7
 39
0.200
  6
CONTINUOUS
 10
29.72575
 20
1.80600
 30
 0
 11
29.84398
 21
1.80600
  0
ARC
  8
Engraving
 62
   7
 39
0.200
  6
CONTINUOUS
 10
29.84485
 20
1.97065
 30
 0
 40
0.16465
 50
269.69622
 51
360.30378
  0
LINE
  8
Engraving
 62
   7
 39
0.200
  6
CONTINUOUS
 10
30.00950
 20
1.97152
 30
 0
 11
30.00950
 21
3.83954
  0
ARC
  8
Engraving
 62
   7
 39
0.200
  6
CONTINUOUS
 10
29.84485
 20
3.84041
 30
 0
 40
0.16465
 50
359.69622
 51
450.30378
  0
LINE
  8
Engraving
 62
   7
 39
0.200
  6
CONTINUOUS
 10
29.84398
 20
4.00506
 30
 0
 11
29.72575
 21
4.00506
  0
LINE
  8
Engraving
 62
   7
 39
0.200
  6
CONTINUOUS
 10
29.72575
 20
4.00506
 30
 0
 11
30.19867
 21
4.07600
  0
LINE
  8
Engraving
 62
   7
 39
0.200
  6
CONTINUOUS
 10
30.19867
 20
4.07600
 30
 0
 11
30.19867
 21
1.97152
  0
LINE
  8
Engraving
 62
   7
 39
0.200
  6
CONTINUOUS
 10
31.12069
 20
3.29569
 30
 0
 11
31.83006
 21
3.29569
  0
LINE
  8
Engraving
 62
   7
 39
0.200
  6
CONTINUOUS
 10
31.83006
 20
3.29569
 30
 0
 11
31.87735
 21
3.20110
  0
LINE
  8
Engraving
 62
   7
 39
0.200
  6
CONTINUOUS
 10
31.87735
 20
3.20110
 30
 0
 11
31.04975
 21
3.20110
  0
LINE
  8
Engraving
 62
   7
 39
0.200
  6
CONTINUOUS
 10
31.04975
 20
3.20110
 30
 0
 11
31.04975
 21
3.41392
  0
LINE
  8
Engraving
 62
   7
 39
0.200
  6
CONTINUOUS
 10
31.04975
 20
3.41392
 30
 0
 11
31.87735
 21
3.41392
  0
LINE
  8
Engraving
 62
   7
 39
0.200
  6
CONTINUOUS
 10
31.87735
 20
3.41392
 30
 0
 11
31.87735
 21
3.20110
  0
LINE
  8
Engraving
 62
   7
 39
0.200
  6
CONTINUOUS
 10
31.83006
 20
2.58631
 30
 0
 11
31.12069
 21
2.58631
  0
LINE
  8
Engraving
 62
   7
 39
0.200
  6
CONTINUOUS
 10
31.12069
 20
2.58631
 30
 0
 11
31.04975
 21
2.46808
  0
LINE
  8
Engraving
 62
   7
 39
0.200
  6
CONTINUOUS
 10
31.04975
 20
2.46808
 30
 0
 11
31.87735
 21
2.46808
  0
LINE
  8
Engraving
 62
   7
 39
0.200
  6
CONTINUOUS
 10
31.87735
 20
2.46808
 30
 0
 11
31.87735
 21
2.68090
  0
LINE
  8
Engraving
 62
   7
 39
0.200
  6
CONTINUOUS
 10
31.87735
 20
2.68090
 30
 0
 11
31.04975
 21
2.68090
  0
LINE
  8
Engraving
 62
   7
 39
0.200
  6
CONTINUOUS
 10
31.04975
 20
2.68090
 30
 0
 11
31.04975
 21
2.46808
  0
LINE
  8
Engraving
 62
   7
 39
0.200
  6
CONTINUOUS
 10
32.56233
 20
2.94100
 30
 0
 11
33.95744
 21
2.94100
  0
LINE
  8
Engraving
 62
   7
 39
0.200
  6
CONTINUOUS
 10
33.95744
 20
2.94100
 30
 0
 11
34.00473
 21
2.82277
  0
LINE
  8
Engraving
 62
   7
 39
0.200
  6
CONTINUOUS
 10
34.00473
 20
2.82277
 30
 0
 11
34.00473
 21
3.03558
  0
LINE
  8
Engraving
 62
   7
 39
0.200
  6
CONTINUOUS
 10
34.00473
 20
3.03558
 30
 0
 11
32.49140
 21
3.03558
  0
LINE
  8
Engraving
 62
   7
 39
0.200
  6
CONTINUOUS
 10
32.49140
 20
3.03558
 30
 0
 11
32.49140
 21
2.82277
  0
LINE
  8
Engraving
 62
   7
 39
0.200
  6
CONTINUOUS
 10
32.49140
 20
2.82277
 30
 0
 11
34.00473
 21
2.82277
  0
ARC
  8
Engraving
 62
   7
 39
0.200
  6
CONTINUOUS
 10
12.88406
 20
126.27693
 30
 0
 40
0.27363
 50
113.61283
 51
166.77603
  0
LINE
  8
Engraving
 62
   7
 39
0.200
  6
CONTINUOUS
 10
12.77446
 20
126.52765
 30
 0
 11
12.46092
 21
126.52765
  0
ARC
  8
Engraving
 62
   7
 39
0.200
  6
CONTINUOUS
 10
12.40479
 20
126.32149
 30
 0
 40
0.21366
 50
4.84082
 51
74.77032
  0
LINE
  8
Engraving
 62
   7
 39
0.200
  6
CONTINUOUS
 10
12.61769
 20
126.33952
 30
 0
 11
12.61769
 21
123.70577
  0
ARC
  8
Engraving
 62
   7
 39
0.200
  6
CONTINUOUS
 10
12.37052
 20
123.87272
 30
 0
 40
0.29827
 50
281.41745
 51
325.96269
  0
LINE
  8
Engraving
 62
   7
 39
0.200
  6
CONTINUOUS
 10
12.42956
 20
123.58035
 30
 0
 11
12.80581
 21
123.58035
  0
ARC
  8
Engraving
 62
   7
 39
0.200
  6
CONTINUOUS
 10
12.86486
 20
123.87272
 30
 0
 40
0.29827
 50
214.03731
 51
258.58255
  0
ARC
  8
Engraving
 62
   7
 39
0.200
  6
CONTINUOUS
 10
12.98923
 20
124.06759
 30
 0
 40
0.51861
 50
224.24019
 51
270.52008
  0
ARC
  8
Engraving
 62
   7
 39
0.200
  6
CONTINUOUS
 10
12.99278
 20
123.76732
 30
 0
 40
0.21832
 50
179.69622
 51
270.30378
  0
LINE
  8
Engraving
 62
   7
 39
0.200
  6
CONTINUOUS
 10
12.77446
 20
123.76848
 30
 0
 11
12.77446
 21
126.33952
  0
ARC
  8
Engraving
 62
   7
 39
0.200
  6
CONTINUOUS
 10
12.99278
 20
126.34068
 30
 0
 40
0.21832
 50
89.69622
 51
180.30378
  0
LINE
  8
Engraving
 62
   7
 39
0.200
  6
CONTINUOUS
 10
12.99394
 20
126.55900
 30
 0
 11
13.21342
 21
126.55900
  0
LINE
  8
Engraving
 62
   7
 39
0.200
  6
CONTINUOUS
 10
13.21342
 20
126.55900
 30
 0
 11
11.99060
 21
126.55900
  0
LINE
  8
Engraving
 62
   7
 39
0.200
  6
CONTINUOUS
 10
11.99060
 20
126.55900
 30
 0
 11
12.24144
 21
126.55900
  0
ARC
  8
Engraving
 62
   7
 39
0.200
  6
CONTINUOUS
 10
12.24260
 20
126.34068
 30
 0
 40
0.21832
 50
-0.30378
 51
90.30378
  0
LINE
  8
Engraving
 62
   7
 39
0.200
  6
CONTINUOUS
 10
12.46092
 20
126.33952
 30
 0
 11
12.46092
 21
123.76848
  0
ARC
  8
Engraving
 62
   7
 39
0.200
  6
CONTINUOUS
 10
12.24260
 20
123.76732
 30
 0
 40
0.21832
 50
-90.30378
 51
0.30378
  0
LINE
  8
Engraving
 62
   7
 39
0.200
  6
CONTINUOUS
 10
12.24144
 20
123.54900
 30
 0
 11
11.99060
 21
123.54900
  0
LINE
  8
Engraving
 62
   7
 39
0.200
  6
CONTINUOUS
 10
11.99060
 20
123.54900
 30
 0
 11
14.53029
 21
123.54900
  0
LINE
  8
Engraving
 62
   7
 39
0.200
  6
CONTINUOUS
 10
14.53029
 20
123.54900
 30
 0
 11
14.56165
 21
124.58369
  0
LINE
  8
Engraving
 62
   7
 39
0.200
  6
CONTINUOUS
 10
14.56165
 20
124.58369
 30
 0
 11
14.53029
 21
124.17608
  0
ARC
  8
Engraving
 62
   7
 39
0.200
  6
CONTINUOUS
 10
13.77800
 20
124.31379
 30
 0
 40
0.76479
 50
269.98432
 51
349.62682
  0
ARC
  8
Engraving
 62
   7
 39
0.200
  6
CONTINUOUS
 10
13.76074
 20
125.99064
 30
 0
 40
2.44170
 50
270.40015
 51
283.01952
  0
ARC
  8
Engraving
 62
   7
 39
0.200
  6
CONTINUOUS
 10
14.19893
 20
123.85735
 30
 0
 40
0.26992
 50
294.48720
 51
354.43745
  0
LINE
  8
Engraving
 62
   7
 39
0.200
  6
CONTINUOUS
 10
15.84692
 20
126.49629
 30
 0
 11
15.84692
 21
126.24546
  0
ARC
  8
Engraving
 62
   7
 39
0.200
  6
CONTINUOUS
 10
15.84692
 20
126.40223
 30
 0
 40
0.15677
 50
270.00000
 51
450.00000
  0
ARC
  8
Engraving
 62
   7
 39
0.200
  6
CONTINUOUS
 10
15.84692
 20
126.40223
 30
 0
 40
0.15677
 50
90.00000
 51
270.00000
  0
ARC
  8
Engraving
 62
   7
 39
0.200
  6
CONTINUOUS
 10
15.38596
 20
125.00065
 30
 0
 40
0.50891
 50
32.41866
 51
57.58134
  0
LINE
  8
Engraving
 62
   7
 39
0.200
  6
CONTINUOUS
 10
15.65879
 20
125.43025
 30
 0
 11
15.84692
 21
125.46160
  0
LINE
  8
Engraving
 62
   7
 39
0.200
  6
CONTINUOUS
 10
15.84692
 20
125.46160
 30
 0
 11
15.84692
 21
123.76848
  0
ARC
  8
Engraving
 62
   7
 39
0.200
  6
CONTINUOUS
 10
15.65572
 20
123.76843
 30
 0
 40
0.19120
 50
-79.62682
 51
0.01568
  0
LINE
  8
Engraving
 62
   7
 39
0.200
  6
CONTINUOUS
 10
15.69015
 20
123.58035
 30
 0
 11
16.00369
 21
123.58035
  0
ARC
  8
Engraving
 62
   7
 39
0.200
  6
CONTINUOUS
 10
16.07303
 20
123.79752
 30
 0
 40
0.22797
 50
187.31981
 51
252.29133
  0
LINE
  8
Engraving
 62
   7
 39
0.200
  6
CONTINUOUS
 10
15.84692
 20
123.76848
 30
 0
 11
15.97233
 21
123.76848
  0
ARC
  8
Engraving
 62
   7
 39
0.200
  6
CONTINUOUS
 10
16.19065
 20
123.76732
 30
 0
 40
0.21832
 50
179.69622
 51
270.30378
  0
LINE
  8
Engraving
 62
   7
 39
0.200
  6
CONTINUOUS
 10
16.19181
 20
123.54900
 30
 0
 11
16.31723
 21
123.54900
  0
LINE
  8
Engraving
 62
   7
 39
0.200
  6
CONTINUOUS
 10
16.31723
 20
123.54900
 30
 0
 11
15.34525
 21
123.54900
  0
LINE
  8
Engraving
 62
   7
 39
0.200
  6
CONTINUOUS
 10
15.34525
 20
123.54900
 30
 0
 11
15.50202
 21
123.54900
  0
ARC
  8
Engraving
 62
   7
 39
0.200
  6
CONTINUOUS
 10
15.50318
 20
123.76732
 30
 0
 40
0.21832
 50
269.69622
 51
360.30378
  0
LINE
  8
Engraving
 62
   7
 39
0.200
  6
CONTINUOUS
 10
15.72150
 20
123.76848
 30
 0
 11
15.72150
 21
125.21077
  0
ARC
  8
Engraving
 62
   7
 39
0.200
  6
CONTINUOUS
 10
15.50318
 20
125.21193
 30
 0
 40
0.21832
 50
359.69622
 51
450.30378
  0
LINE
  8
Engraving
 62
   7
 39
0.200
  6
CONTINUOUS
 10
15.50202
 20
125.43025
 30
 0
 11
15.34525
 21
125.43025
  0
LINE
  8
Engraving
 62
   7
 39
0.200
  6
CONTINUOUS
 10
15.34525
 20
125.43025
 30
 0
 11
15.97233
 21
125.52431
  0
LINE
  8
Engraving
 62
   7
 39
0.200
  6
CONTINUOUS
 10
15.97233
 20
125.52431
 30
 0
 11
15.97233
 21
123.76848
  0
ARC
  8
Engraving
 62
   7
 39
0.200
  6
CONTINUOUS
 10
17.01842
 20
125.86346
 30
 0
 40
0.54253
 50
316.78310
 51
343.72714
  0
LINE
  8
Engraving
 62
   7
 39
0.200
  6
CONTINUOUS
 10
17.53921
 20
125.71144
 30
 0
 11
17.53921
 21
124.04967
  0
ARC
  8
Engraving
 62
   7
 39
0.200
  6
CONTINUOUS
 10
18.00704
 20
124.04719
 30
 0
 40
0.46784
 50
179.69622
 51
270.30378
  0
ARC
  8
Engraving
 62
   7
 39
0.200
  6
CONTINUOUS
 10
17.94086
 20
124.12930
 30
 0
 40
0.55421
 50
277.11649
 51
323.39638
  0
ARC
  8
Engraving
 62
   7
 39
0.200
  6
CONTINUOUS
 10
18.08891
 20
124.10275
 30
 0
 40
0.42484
 50
182.93120
 51
314.32756
  0
LINE
  8
Engraving
 62
   7
 39
0.200
  6
CONTINUOUS
 10
17.66463
 20
124.08102
 30
 0
 11
17.66463
 21
126.27581
  0
ARC
  8
Engraving
 62
   7
 39
0.200
  6
CONTINUOUS
 10
16.57093
 20
126.31546
 30
 0
 40
1.09441
 50
320.36725
 51
357.92384
  0
ARC
  8
Engraving
 62
   7
 39
0.200
  6
CONTINUOUS
 10
17.03231
 20
125.93354
 30
 0
 40
0.49547
 50
296.97068
 51
320.34894
  0
LINE
  8
Engraving
 62
   7
 39
0.200
  6
CONTINUOUS
 10
17.25702
 20
125.49196
 30
 0
 11
17.13160
 21
125.42925
  0
LINE
  8
Engraving
 62
   7
 39
0.200
  6
CONTINUOUS
 10
17.13160
 20
125.42925
 30
 0
 11
17.41379
 21
125.42925
  0
LINE
  8
Engraving
 62
   7
 39
0.200
  6
CONTINUOUS
 10
17.41379
 20
125.42925
 30
 0
 11
17.41379
 21
123.95560
  0
ARC
  8
Engraving
 62
   7
 39
0.200
  6
CONTINUOUS
 10
17.84970
 20
123.95774
 30
 0
 40
0.43591
 50
180.28131
 51
240.23156
  0
ARC
  8
Engraving
 62
   7
 39
0.200
  6
CONTINUOUS
 10
17.89978
 20
124.04143
 30
 0
 40
0.53342
 50
240.02488
 51
299.97512
  0
ARC
  8
Engraving
 62
   7
 39
0.200
  6
CONTINUOUS
 10
17.82231
 20
124.17621
 30
 0
 40
0.68888
 50
299.95629
 51
359.90654
  0
LINE
  8
Engraving
 62
   7
 39
0.200
  6
CONTINUOUS
 10
18.51119
 20
124.17508
 30
 0
 11
18.51119
 21
124.26915
  0
LINE
  8
Engraving
 62
   7
 39
0.200
  6
CONTINUOUS
 10
18.35442
 20
125.42925
 30
 0
 11
17.41379
 21
125.42925
  0
ARC
  8
Engraving
 62
   7
 39
0.200
  6
CONTINUOUS
 10
19.21242
 20
125.86346
 30
 0
 40
0.54253
 50
316.78310
 51
343.72714
  0
LINE
  8
Engraving
 62
   7
 39
0.200
  6
CONTINUOUS
 10
19.73321
 20
125.71144
 30
 0
 11
19.73321
 21
124.04967
  0
ARC
  8
Engraving
 62
   7
 39
0.200
  6
CONTINUOUS
 10
20.20104
 20
124.04719
 30
 0
 40
0.46784
 50
179.69622
 51
270.30378
  0
ARC
  8
Engraving
 62
   7
 39
0.200
  6
CONTINUOUS
 10
20.13486
 20
124.12930
 30
 0
 40
0.55421
 50
277.11649
 51
323.39638
  0
ARC
  8
Engraving
 62
   7
 39
0.200
  6
CONTINUOUS
 10
20.28291
 20
124.10275
 30
 0
 40
0.42484
 50
182.93120
 51
314.32756
  0
LINE
  8
Engraving
 62
   7
 39
0.200
  6
CONTINUOUS
 10
19.85862
 20
124.08102
 30
 0
 11
19.85862
 21
126.27581
  0
ARC
  8
Engraving
 62
   7
 39
0.200
  6
CONTINUOUS
 10
18.76493
 20
126.31546
 30
 0
 40
1.09441
 50
320.36725
 51
357.92384
  0
ARC
  8
Engraving
 62
   7
 39
0.200
  6
CONTINUOUS
 10
19.22631
 20
125.93354
 30
 0
 40
0.49547
 50
296.97068
 51
320.34894
  0
LINE
  8
Engraving
 62
   7
 39
0.200
  6
CONTINUOUS
 10
19.45102
 20
125.49196
 30
 0
 11
19.32560
 21
125.42925
  0
LINE
  8
Engraving
 62
   7
 39
0.200
  6
CONTINUOUS
 10
19.32560
 20
125.42925
 30
 0
 11
19.60779
 21
125.42925
  0
LINE
  8
Engraving
 62
   7
 39
0.200
  6
CONTINUOUS
 10
19.60779
 20
125.42925
 30
 0
 11
19.60779
 21
123.95560
  0
ARC
  8
Engraving
 62
   7
 39
0.200
  6
CONTINUOUS
 10
20.04370
 20
123.95774
 30
 0
 40
0.43591
 50
180.28131
 51
240.23156
  0
ARC
  8
Engraving
 62
   7
 39
0.200
  6
CONTINUOUS
 10
20.09378
 20
124.04143
 30
 0
 40
0.53342
 50
240.02488
 51
299.97512
  0
ARC
  8
Engraving
 62
   7
 39
0.200
  6
CONTINUOUS
 10
20.01631
 20
124.17621
 30
 0
 40
0.68888
 50
299.95629
 51
359.90654
  0
LINE
  8
Engraving
 62
   7
 39
0.200
  6
CONTINUOUS
 10
20.70519
 20
124.17508
 30
 0
 11
20.70519
 21
124.26915
  0
LINE
  8
Engraving
 62
   7
 39
0.200
  6
CONTINUOUS
 10
20.54842
 20
125.42925
 30
 0
 11
19.60779
 21
125.42925
  0
ARC
  8
Engraving
 62
   7
 39
0.200
  6
CONTINUOUS
 10
21.75352
 20
126.26433
 30
 0
 40
0.20537
 50
3.20657
 51
76.40457
  0
LINE
  8
Engraving
 62
   7
 39
0.200
  6
CONTINUOUS
 10
21.80179
 20
126.46394
 30
 0
 11
21.98992
 21
126.49529
  0
LINE
  8
Engraving
 62
   7
 39
0.200
  6
CONTINUOUS
 10
21.98992
 20
126.49529
 30
 0
 11
21.98992
 21
123.76748
  0
ARC
  8
Engraving
 62
   7
 39
0.200
  6
CONTINUOUS
 10
21.70711
 20
123.82015
 30
 0
 40
0.28767
 50
303.16999
 51
349.44988
  0
LINE
  8
Engraving
 62
   7
 39
0.200
  6
CONTINUOUS
 10
21.86450
 20
123.57935
 30
 0
 11
22.11533
 21
123.57935
  0
ARC
  8
Engraving
 62
   7
 39
0.200
  6
CONTINUOUS
 10
22.35996
 20
123.87830
 30
 0
 40
0.38628
 50
196.67266
 51
230.70747
  0
LINE
  8
Engraving
 62
   7
 39
0.200
  6
CONTINUOUS
 10
21.98992
 20
123.76748
 30
 0
 11
22.11533
 21
123.76748
  0
ARC
  8
Engraving
 62
   7
 39
0.200
  6
CONTINUOUS
 10
22.33365
 20
123.76632
 30
 0
 40
0.21832
 50
179.69622
 51
270.30378
  0
LINE
  8
Engraving
 62
   7
 39
0.200
  6
CONTINUOUS
 10
22.33481
 20
123.54800
 30
 0
 11
22.46023
 21
123.54800
  0
LINE
  8
Engraving
 62
   7
 39
0.200
  6
CONTINUOUS
 10
22.46023
 20
123.54800
 30
 0
 11
21.48825
 21
123.54800
  0
LINE
  8
Engraving
 62
   7
 39
0.200
  6
CONTINUOUS
 10
21.48825
 20
123.54800
 30
 0
 11
21.64502
 21
123.54800
  0
ARC
  8
Engraving
 62
   7
 39
0.200
  6
CONTINUOUS
 10
21.64618
 20
123.76632
 30
 0
 40
0.21832
 50
269.69622
 51
360.30378
  0
LINE
  8
Engraving
 62
   7
 39
0.200
  6
CONTINUOUS
 10
21.86450
 20
123.76748
 30
 0
 11
21.86450
 21
126.24446
  0
ARC
  8
Engraving
 62
   7
 39
0.200
  6
CONTINUOUS
 10
21.64618
 20
126.24562
 30
 0
 40
0.21832
 50
359.69622
 51
450.30378
  0
LINE
  8
Engraving
 62
   7
 39
0.200
  6
CONTINUOUS
 10
21.64502
 20
126.46394
 30
 0
 11
21.48825
 21
126.46394
  0
LINE
  8
Engraving
 62
   7
 39
0.200
  6
CONTINUOUS
 10
21.48825
 20
126.46394
 30
 0
 11
22.11533
 21
126.55800
  0
LINE
  8
Engraving
 62
   7
 39
0.200
  6
CONTINUOUS
 10
22.11533
 20
126.55800
 30
 0
 11
22.11533
 21
123.76748
  0
LINE
  8
Engraving
 62
   7
 39
0.200
  6
CONTINUOUS
 10
23.49408
 20
124.55033
 30
 0
 11
24.90502
 21
124.55033
  0
ARC
  8
Engraving
 62
   7
 39
0.200
  6
CONTINUOUS
 10
23.74831
 20
124.54228
 30
 0
 40
1.15674
 50
0.39871
 51
43.20411
  0
ARC
  8
Engraving
 62
   7
 39
0.200
  6
CONTINUOUS
 10
24.07414
 20
124.83582
 30
 0
 40
0.71834
 50
43.92991
 51
136.07009
  0
ARC
  8
Engraving
 62
   7
 39
0.200
  6
CONTINUOUS
 10
24.43868
 20
124.53466
 30
 0
 40
1.19037
 50
137.80410
 51
222.19590
  0
ARC
  8
Engraving
 62
   7
 39
0.200
  6
CONTINUOUS
 10
24.06605
 20
124.19917
 30
 0
 40
0.68898
 50
222.34045
 51
277.20983
  0
ARC
  8
Engraving
 62
   7
 39
0.200
  6
CONTINUOUS
 10
24.08615
 20
124.11423
 30
 0
 40
0.60225
 50
231.78199
 51
276.32722
  0
ARC
  8
Engraving
 62
   7
 39
0.200
  6
CONTINUOUS
 10
24.70181
 20
124.51600
 30
 0
 40
1.31990
 50
145.08389
 51
221.51984
  0
ARC
  8
Engraving
 62
   7
 39
0.200
  6
CONTINUOUS
 10
24.10549
 20
124.98062
 30
 0
 40
0.56638
 50
30.89967
 51
149.10033
  0
ARC
  8
Engraving
 62
   7
 39
0.200
  6
CONTINUOUS
 10
23.77949
 20
124.63502
 30
 0
 40
1.03170
 50
-1.22050
 51
38.09040
  0
LINE
  8
Engraving
 62
   7
 39
0.200
  6
CONTINUOUS
 10
24.81096
 20
124.61304
 30
 0
 11
24.68554
 21
124.55033
  0
ARC
  8
Engraving
 62
   7
 39
0.200
  6
CONTINUOUS
 10
22.99157
 20
124.55969
 30
 0
 40
1.69399
 50
359.68343
 51
384.84612
  0
ARC
  8
Engraving
 62
   7
 39
0.200
  6
CONTINUOUS
 10
24.10549
 20
125.08034
 30
 0
 40
0.46443
 50
24.30182
 51
155.69818
  0
ARC
  8
Engraving
 62
   7
 39
0.200
  6
CONTINUOUS
 10
25.30582
 20
124.51898
 30
 0
 40
1.78952
 50
155.13353
 51
204.86647
  0
ARC
  8
Engraving
 62
   7
 39
0.200
  6
CONTINUOUS
 10
24.07096
 20
123.94160
 30
 0
 40
0.42637
 50
204.25046
 51
272.53454
  0
LINE
  8
Engraving
 62
   7
 39
0.200
  6
CONTINUOUS
 10
24.08981
 20
123.51565
 30
 0
 11
24.15252
 21
123.51565
  0
ARC
  8
Engraving
 62
   7
 39
0.200
  6
CONTINUOUS
 10
24.02384
 20
124.42299
 30
 0
 40
0.91642
 50
278.07192
 51
338.02217
  0
ARC
  8
Engraving
 62
   7
 39
0.200
  6
CONTINUOUS
 10
25.94024
 20
126.33868
 30
 0
 40
0.21832
 50
-0.30378
 51
90.30378
  0
LINE
  8
Engraving
 62
   7
 39
0.200
  6
CONTINUOUS
 10
26.15856
 20
126.33752
 30
 0
 11
26.15856
 21
123.76648
  0
ARC
  8
Engraving
 62
   7
 39
0.200
  6
CONTINUOUS
 10
25.94024
 20
123.76532
 30
 0
 40
0.21832
 50
-90.30378
 51
0.30378
  0
ARC
  8
Engraving
 62
   7
 39
0.200
  6
CONTINUOUS
 10
25.94379
 20
124.06559
 30
 0
 40
0.51861
 50
269.47992
 51
315.75981
  0
LINE
  8
Engraving
 62
   7
 39
0.200
  6
CONTINUOUS
 10
26.31533
 20
123.70377
 30
 0
 11
26.31533
 21
126.40023
  0
ARC
  8
Engraving
 62
   7
 39
0.200
  6
CONTINUOUS
 10
26.68688
 20
126.03841
 30
 0
 40
0.51861
 50
89.47992
 51
135.75981
  0
ARC
  8
Engraving
 62
   7
 39
0.200
  6
CONTINUOUS
 10
26.69043
 20
126.33868
 30
 0
 40
0.21832
 50
89.69622
 51
180.30378
  0
LINE
  8
Engraving
 62
   7
 39
0.200
  6
CONTINUOUS
 10
26.47210
 20
126.33752
 30
 0
 11
26.47210
 21
123.76648
  0
ARC
  8
Engraving
 62
   7
 39
0.200
  6
CONTINUOUS
 10
26.69043
 20
123.76532
 30
 0
 40
0.21832
 50
179.69622
 51
270.30378
  0
ARC
  8
Engraving
 62
   7
 39
0.200
  6
CONTINUOUS
 10
26.68688
 20
124.06559
 30
 0
 40
0.51861
 50
224.24019
 51
270.52008
  0
LINE
  8
Engraving
 62
   7
 39
0.200
  6
CONTINUOUS
 10
26.31533
 20
123.70377
 30
 0
 11
26.31533
 21
126.40023
  0
ARC
  8
Engraving
 62
   7
 39
0.200
  6
CONTINUOUS
 10
25.94379
 20
126.03841
 30
 0
 40
0.51861
 50
44.24019
 51
90.52008
  0
LINE
  8
Engraving
 62
   7
 39
0.200
  6
CONTINUOUS
 10
25.93908
 20
126.55700
 30
 0
 11
25.68825
 21
126.55700
  0
LINE
  8
Engraving
 62
   7
 39
0.200
  6
CONTINUOUS
 10
25.68825
 20
126.55700
 30
 0
 11
27.41273
 21
126.55700
  0
ARC
  8
Engraving
 62
   7
 39
0.200
  6
CONTINUOUS
 10
27.41543
 20
125.73557
 30
 0
 40
0.82143
 50
57.92074
 51
90.18847
  0
ARC
  8
Engraving
 62
   7
 39
0.200
  6
CONTINUOUS
 10
27.44862
 20
125.78846
 30
 0
 40
0.75900
 50
-76.00216
 51
57.92320
  0
LINE
  8
Engraving
 62
   7
 39
0.200
  6
CONTINUOUS
 10
27.63221
 20
125.05200
 30
 0
 11
26.47210
 21
125.05200
  0
LINE
  8
Engraving
 62
   7
 39
0.200
  6
CONTINUOUS
 10
26.47210
 20
125.05200
 30
 0
 11
27.44408
 21
125.05200
  0
ARC
  8
Engraving
 62
   7
 39
0.200
  6
CONTINUOUS
 10
27.12930
 20
125.77294
 30
 0
 40
0.78666
 50
293.58753
 51
445.33712
  0
ARC
  8
Engraving
 62
   7
 39
0.200
  6
CONTINUOUS
 10
27.14327
 20
125.25248
 30
 0
 40
1.30548
 50
68.00470
 51
87.80579
  0
ARC
  8
Engraving
 62
   7
 39
0.200
  6
CONTINUOUS
 10
27.32513
 20
125.78132
 30
 0
 40
0.74760
 50
-63.08318
 51
65.74762
  0
LINE
  8
Engraving
 62
   7
 39
0.200
  6
CONTINUOUS
 10
27.66356
 20
125.11471
 30
 0
 11
27.53815
 21
125.05200
  0
ARC
  8
Engraving
 62
   7
 39
0.200
  6
CONTINUOUS
 10
27.25390
 20
124.31796
 30
 0
 40
0.78715
 50
-78.35893
 51
68.83165
  0
LINE
  8
Engraving
 62
   7
 39
0.200
  6
CONTINUOUS
 10
27.41273
 20
123.54700
 30
 0
 11
27.53815
 21
123.54700
  0
ARC
  8
Engraving
 62
   7
 39
0.200
  6
CONTINUOUS
 10
27.41928
 20
124.31463
 30
 0
 40
0.77678
 50
278.80246
 51
431.67026
  0
ARC
  8
Engraving
 62
   7
 39
0.200
  6
CONTINUOUS
 10
27.63277
 20
124.36332
 30
 0
 40
0.68936
 50
39.43036
 51
87.43954
  0
ARC
  8
Engraving
 62
   7
 39
0.200
  6
CONTINUOUS
 10
27.56356
 20
124.29950
 30
 0
 40
0.78337
 50
-39.82125
 51
39.82125
  0
ARC
  8
Engraving
 62
   7
 39
0.200
  6
CONTINUOUS
 10
27.62812
 20
124.24745
 30
 0
 40
0.70046
 50
270.33465
 51
320.06759
  0
LINE
  8
Engraving
 62
   7
 39
0.200
  6
CONTINUOUS
 10
27.63221
 20
123.54700
 30
 0
 11
25.68825
 21
123.54700
  0
LINE
  8
Engraving
 62
   7
 39
0.200
  6
CONTINUOUS
 10
29.38708
 20
124.55033
 30
 0
 11
30.79802
 21
124.55033
  0
ARC
  8
Engraving
 62
   7
 39
0.200
  6
CONTINUOUS
 10
29.64131
 20
124.54228
 30
 0
 40
1.15674
 50
0.39871
 51
43.20411
  0
ARC
  8
Engraving
 62
   7
 39
0.200
  6
CONTINUOUS
 10
29.96714
 20
124.83582
 30
 0
 40
0.71834
 50
43.92991
 51
136.07009
  0
ARC
  8
Engraving
 62
   7
 39
0.200
  6
CONTINUOUS
 10
30.33168
 20
124.53466
 30
 0
 40
1.19037
 50
137.80410
 51
222.19590
  0
ARC
  8
Engraving
 62
   7
 39
0.200
  6
CONTINUOUS
 10
29.95905
 20
124.19917
 30
 0
 40
0.68898
 50
222.34045
 51
277.20983
  0
ARC
  8
Engraving
 62
   7
 39
0.200
  6
CONTINUOUS
 10
29.97915
 20
124.11423
 30
 0
 40
0.60225
 50
231.78199
 51
276.32722
  0
ARC
  8
Engraving
 62
   7
 39
0.200
  6
CONTINUOUS
 10
30.59481
 20
124.51600
 30
 0
 40
1.31990
 50
145.08389
 51
221.51984
  0
ARC
  8
Engraving
 62
   7
 39
0.200
  6
CONTINUOUS
 10
29.99849
 20
124.98062
 30
 0
 40
0.56638
 50
30.89967
 51
149.10033
  0
ARC
  8
Engraving
 62
   7
 39
0.200
  6
CONTINUOUS
 10
29.67249
 20
124.63502
 30
 0
 40
1.03170
 50
-1.22050
 51
38.09040
  0
LINE
  8
Engraving
 62
   7
 39
0.200
  6
CONTINUOUS
 10
30.70396
 20
124.61304
 30
 0
 11
30.57854
 21
124.55033
  0
ARC
  8
Engraving
 62
   7
 39
0.200
  6
CONTINUOUS
 10
28.88457
 20
124.55969
 30
 0
 40
1.69399
 50
359.68343
 51
384.84612
  0
ARC
  8
Engraving
 62
   7
 39
0.200
  6
CONTINUOUS
 10
29.99849
 20
125.08034
 30
 0
 40
0.46443
 50
24.30182
 51
155.69818
  0
ARC
  8
Engraving
 62
   7
 39
0.200
  6
CONTINUOUS
 10
31.19882
 20
124.51898
 30
 0
 40
1.78952
 50
155.13353
 51
204.86647
  0
ARC
  8
Engraving
 62
   7
 39
0.200
  6
CONTINUOUS
 10
29.96396
 20
123.94160
 30
 0
 40
0.42637
 50
204.25046
 51
272.53454
  0
LINE
  8
Engraving
 62
   7
 39
0.200
  6
CONTINUOUS
 10
29.98281
 20
123.51565
 30
 0
 11
30.04552
 21
123.51565
  0
ARC
  8
Engraving
 62
   7
 39
0.200
  6
CONTINUOUS
 10
29.91684
 20
124.42299
 30
 0
 40
0.91642
 50
278.07192
 51
338.02217
  0
ARC
  8
Engraving
 62
   7
 39
0.200
  6
CONTINUOUS
 10
31.86443
 20
125.24112
 30
 0
 40
0.18958
 50
9.21625
 51
80.78375
  0
LINE
  8
Engraving
 62
   7
 39
0.200
  6
CONTINUOUS
 10
31.89479
 20
125.42825
 30
 0
 11
32.08292
 21
125.45960
  0
LINE
  8
Engraving
 62
   7
 39
0.200
  6
CONTINUOUS
 10
32.08292
 20
125.45960
 30
 0
 11
32.08292
 21
123.76648
  0
ARC
  8
Engraving
 62
   7
 39
0.200
  6
CONTINUOUS
 10
31.87710
 20
123.76782
 30
 0
 40
0.20582
 50
292.99424
 51
359.62562
  0
LINE
  8
Engraving
 62
   7
 39
0.200
  6
CONTINUOUS
 10
31.95750
 20
123.57835
 30
 0
 11
32.20833
 21
123.57835
  0
ARC
  8
Engraving
 62
   7
 39
0.200
  6
CONTINUOUS
 10
32.36573
 20
123.81915
 30
 0
 40
0.28767
 50
190.55012
 51
236.83001
  0
LINE
  8
Engraving
 62
   7
 39
0.200
  6
CONTINUOUS
 10
32.08292
 20
123.76648
 30
 0
 11
32.20833
 21
123.76648
  0
ARC
  8
Engraving
 62
   7
 39
0.200
  6
CONTINUOUS
 10
32.42665
 20
123.76532
 30
 0
 40
0.21832
 50
179.69622
 51
270.30378
  0
LINE
  8
Engraving
 62
   7
 39
0.200
  6
CONTINUOUS
 10
32.42781
 20
123.54700
 30
 0
 11
32.55323
 21
123.54700
  0
LINE
  8
Engraving
 62
   7
 39
0.200
  6
CONTINUOUS
 10
32.55323
 20
123.54700
 30
 0
 11
31.58125
 21
123.54700
  0
LINE
  8
Engraving
 62
   7
 39
0.200
  6
CONTINUOUS
 10
31.58125
 20
123.54700
 30
 0
 11
31.73802
 21
123.54700
  0
ARC
  8
Engraving
 62
   7
 39
0.200
  6
CONTINUOUS
 10
31.73918
 20
123.76532
 30
 0
 40
0.21832
 50
269.69622
 51
360.30378
  0
LINE
  8
Engraving
 62
   7
 39
0.200
  6
CONTINUOUS
 10
31.95750
 20
123.76648
 30
 0
 11
31.95750
 21
125.20877
  0
ARC
  8
Engraving
 62
   7
 39
0.200
  6
CONTINUOUS
 10
31.73918
 20
125.20993
 30
 0
 40
0.21832
 50
359.69622
 51
450.30378
  0
LINE
  8
Engraving
 62
   7
 39
0.200
  6
CONTINUOUS
 10
31.73802
 20
125.42825
 30
 0
 11
31.58125
 21
125.42825
  0
LINE
  8
Engraving
 62
   7
 39
0.200
  6
CONTINUOUS
 10
31.58125
 20
125.42825
 30
 0
 11
32.20833
 21
125.52231
  0
LINE
  8
Engraving
 62
   7
 39
0.200
  6
CONTINUOUS
 10
32.20833
 20
125.52231
 30
 0
 11
32.20833
 21
123.76648
  0
LINE
  8
Engraving
 62
   7
 39
0.200
  6
CONTINUOUS
 10
32.20833
 20
123.76648
 30
 0
 11
32.20833
 21
125.05200
  0
ARC
  8
Engraving
 62
   7
 39
0.200
  6
CONTINUOUS
 10
32.83606
 20
124.79153
 30
 0
 40
0.67963
 50
79.42133
 51
157.46453
  0
ARC
  8
Engraving
 62
   7
 39
0.200
  6
CONTINUOUS
 10
32.89044
 20
124.98681
 30
 0
 40
0.47801
 50
0.29750
 51
81.53127
  0
LINE
  8
Engraving
 62
   7
 39
0.200
  6
CONTINUOUS
 10
33.36844
 20
124.98929
 30
 0
 11
33.36844
 21
123.76648
  0
ARC
  8
Engraving
 62
   7
 39
0.200
  6
CONTINUOUS
 10
33.09451
 20
123.81323
 30
 0
 40
0.27789
 50
302.30534
 51
350.31452
  0
LINE
  8
Engraving
 62
   7
 39
0.200
  6
CONTINUOUS
 10
33.24302
 20
123.57835
 30
 0
 11
33.49385
 21
123.57835
  0
ARC
  8
Engraving
 62
   7
 39
0.200
  6
CONTINUOUS
 10
33.55060
 20
123.75205
 30
 0
 40
0.18273
 50
175.47210
 51
251.90804
  0
LINE
  8
Engraving
 62
   7
 39
0.200
  6
CONTINUOUS
 10
33.36844
 20
123.76648
 30
 0
 11
33.49385
 21
123.76648
  0
ARC
  8
Engraving
 62
   7
 39
0.200
  6
CONTINUOUS
 10
33.71218
 20
123.76532
 30
 0
 40
0.21832
 50
179.69622
 51
270.30378
  0
LINE
  8
Engraving
 62
   7
 39
0.200
  6
CONTINUOUS
 10
33.71333
 20
123.54700
 30
 0
 11
33.87010
 21
123.54700
  0
LINE
  8
Engraving
 62
   7
 39
0.200
  6
CONTINUOUS
 10
33.87010
 20
123.54700
 30
 0
 11
32.86677
 21
123.54700
  0
LINE
  8
Engraving
 62
   7
 39
0.200
  6
CONTINUOUS
 10
32.86677
 20
123.54700
 30
 0
 11
33.02354
 21
123.54700
  0
ARC
  8
Engraving
 62
   7
 39
0.200
  6
CONTINUOUS
 10
33.02470
 20
123.76532
 30
 0
 40
0.21832
 50
269.69622
 51
360.30378
  0
LINE
  8
Engraving
 62
   7
 39
0.200
  6
CONTINUOUS
 10
33.24302
 20
123.76648
 30
 0
 11
33.24302
 21
125.05200
  0
ARC
  8
Engraving
 62
   7
 39
0.200
  6
CONTINUOUS
 10
32.90243
 20
125.04742
 30
 0
 40
0.34062
 50
0.76991
 51
57.33930
  0
ARC
  8
Engraving
 62
   7
 39
0.200
  6
CONTINUOUS
 10
32.76667
 20
124.83140
 30
 0
 40
0.59576
 50
57.55932
 51
132.38016
  0
ARC
  8
Engraving
 62
   7
 39
0.200
  6
CONTINUOUS
 10
32.81714
 20
124.78287
 30
 0
 40
0.66564
 50
132.77319
 51
156.15145
  0
ARC
  8
Engraving
 62
   7
 39
0.200
  6
CONTINUOUS
 10
32.89880
 20
124.77336
 30
 0
 40
0.74457
 50
56.87125
 51
158.02312
  0
ARC
  8
Engraving
 62
   7
 39
0.200
  6
CONTINUOUS
 10
33.07932
 20
125.04964
 30
 0
 40
0.41454
 50
0.32577
 51
56.89515
  0
LINE
  8
Engraving
 62
   7
 39
0.200
  6
CONTINUOUS
 10
33.49385
 20
125.05200
 30
 0
 11
33.49385
 21
123.76648
  0
CIRCLE
  8
Contour
 62
   7
 39
0.100
  6
CONTINUOUS
 10
37.50000
 20
17.30000
 30
 0
 40
3.00000
  0
CIRCLE
  8
Contour
 62
   7
 39
0.100
  6
CONTINUOUS
 10
37.50000
 20
27.95000
 30
 0
 40
3.00000
  0
CIRCLE
  8
Contour
 62
   7
 39
0.100
  6
CONTINUOUS
 10
37.50000
 20
49.40000
 30
 0
 40
3.00000
  0
CIRCLE
  8
Contour
 62
   7
 39
0.100
  6
CONTINUOUS
 10
37.50000
 20
38.80000
 30
 0
 40
3.00000
  0
CIRCLE
  8
Contour
 62
   7
 39
0.100
  6
CONTINUOUS
 10
22.10000
 20
17.30000
 30
 0
 40
3.00000
  0
CIRCLE
  8
Contour
 62
   7
 39
0.100
  6
CONTINUOUS
 10
22.10000
 20
27.95000
 30
 0
 40
3.00000
  0
CIRCLE
  8
Contour
 62
   7
 39
0.100
  6
CONTINUOUS
 10
22.10000
 20
49.40000
 30
 0
 40
3.00000
  0
CIRCLE
  8
Contour
 62
   7
 39
0.100
  6
CONTINUOUS
 10
22.10000
 20
38.80000
 30
 0
 40
3.00000
  0
CIRCLE
  8
Contour
 62
   7
 39
0.100
  6
CONTINUOUS
 10
5.50000
 20
18.80000
 30
 0
 40
3.00000
  0
CIRCLE
  8
Contour
 62
   7
 39
0.100
  6
CONTINUOUS
 10
5.50000
 20
33.50000
 30
 0
 40
3.00000
  0
CIRCLE
  8
Contour
 62
   7
 39
0.100
  6
CONTINUOUS
 10
8.30000
 20
82.35400
 30
 0
 40
4.50000
  0
CIRCLE
  8
Contour
 62
   7
 39
0.100
  6
CONTINUOUS
 10
23.44700
 20
82.40000
 30
 0
 40
6.95000
  0
CIRCLE
  8
Contour
 62
   7
 39
0.100
  6
CONTINUOUS
 10
37.56300
 20
82.40000
 30
 0
 40
6.95000
  0
ARC
  8
Contour
 62
   7
 39
0.100
  6
CONTINUOUS
 10
8.06450
 20
95.00000
 30
 0
 40
1.50000
 50
180.00000
 51
270.00000
  0
LINE
  8
Contour
 62
   7
 39
0.100
  6
CONTINUOUS
 10
8.06450
 20
93.50000
 30
 0
 11
39.98350
 21
93.50000
  0
ARC
  8
Contour
 62
   7
 39
0.100
  6
CONTINUOUS
 10
39.98350
 20
95.00000
 30
 0
 40
1.50000
 50
270.00000
 51
360.00000
  0
LINE
  8
Contour
 62
   7
 39
0.100
  6
CONTINUOUS
 10
41.48350
 20
95.00000
 30
 0
 11
41.48350
 21
107.00000
  0
ARC
  8
Contour
 62
   7
 39
0.100
  6
CONTINUOUS
 10
39.98350
 20
107.00000
 30
 0
 40
1.50000
 50
0.00000
 51
90.00000
  0
LINE
  8
Contour
 62
   7
 39
0.100
  6
CONTINUOUS
 10
39.98350
 20
108.50000
 30
 0
 11
8.06450
 21
108.50000
  0
ARC
  8
Contour
 62
   7
 39
0.100
  6
CONTINUOUS
 10
8.06450
 20
107.00000
 30
 0
 40
1.50000
 50
90.00000
 51
180.00000
  0
LINE
  8
Contour
 62
   7
 39
0.100
  6
CONTINUOUS
 10
6.56450
 20
107.00000
 30
 0
 11
6.56450
 21
95.00000
  0
ARC
  8
Contour
 62
   7
 39
0.100
  6
CONTINUOUS
 10
7.00000
 20
3.00000
 30
 0
 40
3.04998
 50
162.69977
 51
197.30023
  0
ARC
  8
Contour
 62
   7
 39
0.100
  6
CONTINUOUS
 10
5.23367
 20
2.45000
 30
 0
 40
1.20000
 50
197.30751
 51
270.01594
  0
LINE
  8
Contour
 62
   7
 39
0.100
  6
CONTINUOUS
 10
5.23400
 20
1.25000
 30
 0
 11
8.76600
 21
1.25000
  0
ARC
  8
Contour
 62
   7
 39
0.100
  6
CONTINUOUS
 10
8.76633
 20
2.45000
 30
 0
 40
1.20000
 50
269.98406
 51
342.69249
  0
ARC
  8
Contour
 62
   7
 39
0.100
  6
CONTINUOUS
 10
7.00000
 20
3.00000
 30
 0
 40
3.04998
 50
342.69977
 51
377.30023
  0
ARC
  8
Contour
 62
   7
 39
0.100
  6
CONTINUOUS
 10
8.76633
 20
3.55000
 30
 0
 40
1.20000
 50
17.30751
 51
90.01594
  0
LINE
  8
Contour
 62
   7
 39
0.100
  6
CONTINUOUS
 10
8.76600
 20
4.75000
 30
 0
 11
5.23400
 21
4.75000
  0
ARC
  8
Contour
 62
   7
 39
0.100
  6
CONTINUOUS
 10
5.23367
 20
3.55000
 30
 0
 40
1.20000
 50
89.98406
 51
162.69249
  0
ARC
  8
Contour
 62
   7
 39
0.100
  6
CONTINUOUS
 10
7.00000
 20
125.40000
 30
 0
 40
3.04998
 50
162.69977
 51
197.30023
  0
ARC
  8
Contour
 62
   7
 39
0.100
  6
CONTINUOUS
 10
5.23367
 20
124.85000
 30
 0
 40
1.20000
 50
197.30751
 51
270.01594
  0
LINE
  8
Contour
 62
   7
 39
0.100
  6
CONTINUOUS
 10
5.23400
 20
123.65000
 30
 0
 11
8.76600
 21
123.65000
  0
ARC
  8
Contour
 62
   7
 39
0.100
  6
CONTINUOUS
 10
8.76633
 20
124.85000
 30
 0
 40
1.20000
 50
269.98406
 51
342.69249
  0
ARC
  8
Contour
 62
   7
 39
0.100
  6
CONTINUOUS
 10
7.00000
 20
125.40000
 30
 0
 40
3.04998
 50
342.69977
 51
377.30023
  0
ARC
  8
Contour
 62
   7
 39
0.100
  6
CONTINUOUS
 10
8.76633
 20
125.95000
 30
 0
 40
1.20000
 50
17.30751
 51
90.01594
  0
LINE
  8
Contour
 62
   7
 39
0.100
  6
CONTINUOUS
 10
8.76600
 20
127.15000
 30
 0
 11
5.23400
 21
127.15000
  0
ARC
  8
Contour
 62
   7
 39
0.100
  6
CONTINUOUS
 10
5.23367
 20
125.95000
 30
 0
 40
1.20000
 50
89.98406
 51
162.69249
  0
ARC
  8
Contour
 62
   7
 39
0.100
  6
CONTINUOUS
 10
38.00000
 20
125.40000
 30
 0
 40
3.04998
 50
162.69977
 51
197.30023
  0
ARC
  8
Contour
 62
   7
 39
0.100
  6
CONTINUOUS
 10
36.23367
 20
124.85000
 30
 0
 40
1.20000
 50
197.30751
 51
270.01594
  0
LINE
  8
Contour
 62
   7
 39
0.100
  6
CONTINUOUS
 10
36.23400
 20
123.65000
 30
 0
 11
39.76600
 21
123.65000
  0
ARC
  8
Contour
 62
   7
 39
0.100
  6
CONTINUOUS
 10
39.76633
 20
124.85000
 30
 0
 40
1.20000
 50
269.98406
 51
342.69249
  0
ARC
  8
Contour
 62
   7
 39
0.100
  6
CONTINUOUS
 10
38.00000
 20
125.40000
 30
 0
 40
3.04998
 50
342.69977
 51
377.30023
  0
ARC
  8
Contour
 62
   7
 39
0.100
  6
CONTINUOUS
 10
39.76633
 20
125.95000
 30
 0
 40
1.20000
 50
17.30751
 51
90.01594
  0
LINE
  8
Contour
 62
   7
 39
0.100
  6
CONTINUOUS
 10
39.76600
 20
127.15000
 30
 0
 11
36.23400
 21
127.15000
  0
ARC
  8
Contour
 62
   7
 39
0.100
  6
CONTINUOUS
 10
36.23367
 20
125.95000
 30
 0
 40
1.20000
 50
89.98406
 51
162.69249
  0
ARC
  8
Contour
 62
   7
 39
0.100
  6
CONTINUOUS
 10
38.00000
 20
3.00000
 30
 0
 40
3.04998
 50
162.69977
 51
197.30023
  0
ARC
  8
Contour
 62
   7
 39
0.100
  6
CONTINUOUS
 10
36.23367
 20
2.45000
 30
 0
 40
1.20000
 50
197.30751
 51
270.01594
  0
LINE
  8
Contour
 62
   7
 39
0.100
  6
CONTINUOUS
 10
36.23400
 20
1.25000
 30
 0
 11
39.76600
 21
1.25000
  0
ARC
  8
Contour
 62
   7
 39
0.100
  6
CONTINUOUS
 10
39.76633
 20
2.45000
 30
 0
 40
1.20000
 50
269.98406
 51
342.69249
  0
ARC
  8
Contour
 62
   7
 39
0.100
  6
CONTINUOUS
 10
38.00000
 20
3.00000
 30
 0
 40
3.04998
 50
342.69977
 51
377.30023
  0
ARC
  8
Contour
 62
   7
 39
0.100
  6
CONTINUOUS
 10
39.76633
 20
3.55000
 30
 0
 40
1.20000
 50
17.30751
 51
90.01594
  0
LINE
  8
Contour
 62
   7
 39
0.100
  6
CONTINUOUS
 10
39.76600
 20
4.75000
 30
 0
 11
36.23400
 21
4.75000
  0
ARC
  8
Contour
 62
   7
 39
0.100
  6
CONTINUOUS
 10
36.23367
 20
3.55000
 30
 0
 40
1.20000
 50
89.98406
 51
162.69249
  0
ENDSEC
  0
EOF
