%TF.GenerationSoftware,KiCad,Pcbnew,(6.0.7-1)-1*%
%TF.CreationDate,2022-11-17T19:45:24+01:00*%
%TF.ProjectId,LittleBenPanelv2,4c697474-6c65-4426-956e-50616e656c76,rev?*%
%TF.SameCoordinates,Original*%
%TF.FileFunction,Copper,L1,Top*%
%TF.FilePolarity,Positive*%
%FSLAX46Y46*%
G04 Gerber Fmt 4.6, Leading zero omitted, Abs format (unit mm)*
G04 Created by KiCad (PCBNEW (6.0.7-1)-1) date 2022-11-17 19:45:24*
%MOMM*%
%LPD*%
G01*
G04 APERTURE LIST*
G04 APERTURE END LIST*
%TA.AperFunction,NonConductor*%
G36*
X40768204Y-23756764D02*
G01*
X40792010Y-23760463D01*
X40800912Y-23759296D01*
X40800913Y-23759296D01*
X40801937Y-23759162D01*
X40831574Y-23758793D01*
X40930161Y-23769227D01*
X40956166Y-23774802D01*
X41069475Y-23811966D01*
X41093717Y-23822870D01*
X41196697Y-23882992D01*
X41218123Y-23898752D01*
X41246203Y-23924388D01*
X41306187Y-23979151D01*
X41323824Y-23999054D01*
X41393044Y-24096147D01*
X41406111Y-24119311D01*
X41442669Y-24203917D01*
X41446922Y-24218839D01*
X41447782Y-24218579D01*
X41450455Y-24227417D01*
X41451810Y-24236541D01*
X41451826Y-24236575D01*
X41451832Y-24236618D01*
X41455710Y-24245027D01*
X41455711Y-24245030D01*
X41459881Y-24254070D01*
X41467495Y-24275466D01*
X41469330Y-24282605D01*
X41520711Y-24482476D01*
X41523246Y-24494896D01*
X41559794Y-24735138D01*
X41559794Y-24735139D01*
X41561066Y-24747743D01*
X41566011Y-24845910D01*
X41573290Y-24990432D01*
X41573290Y-25003104D01*
X41565738Y-25153056D01*
X41561067Y-25245790D01*
X41559795Y-25258395D01*
X41523243Y-25498656D01*
X41520712Y-25511059D01*
X41520709Y-25511070D01*
X41469325Y-25710953D01*
X41460391Y-25735123D01*
X41455559Y-25744962D01*
X41455554Y-25744994D01*
X41455542Y-25745017D01*
X41453874Y-25754623D01*
X41453872Y-25754629D01*
X41453837Y-25754832D01*
X41445362Y-25783246D01*
X41406057Y-25874225D01*
X41392990Y-25897392D01*
X41331647Y-25983441D01*
X41323781Y-25994474D01*
X41306140Y-26014383D01*
X41273089Y-26044559D01*
X41218092Y-26094773D01*
X41196669Y-26110532D01*
X41093696Y-26170652D01*
X41069447Y-26181560D01*
X40956154Y-26218721D01*
X40930152Y-26224295D01*
X40838165Y-26234031D01*
X40822421Y-26233640D01*
X40822409Y-26234577D01*
X40813430Y-26234465D01*
X40804562Y-26233081D01*
X40795662Y-26234242D01*
X40795660Y-26234242D01*
X40772901Y-26237211D01*
X40756603Y-26238270D01*
X37315406Y-26238270D01*
X37296055Y-26236775D01*
X37295847Y-26236743D01*
X37272268Y-26233078D01*
X37263370Y-26234244D01*
X37263364Y-26234244D01*
X37262344Y-26234378D01*
X37232705Y-26234747D01*
X37134126Y-26224311D01*
X37108119Y-26218734D01*
X37104299Y-26217481D01*
X36994828Y-26181571D01*
X36970579Y-26170662D01*
X36867611Y-26110541D01*
X36846187Y-26094781D01*
X36799037Y-26051731D01*
X36758133Y-26014383D01*
X36740503Y-25994486D01*
X36671288Y-25897391D01*
X36658223Y-25874228D01*
X36621543Y-25789323D01*
X36617449Y-25774959D01*
X36616559Y-25775230D01*
X36613827Y-25766269D01*
X36612450Y-25757001D01*
X36612440Y-25756980D01*
X36612436Y-25756951D01*
X36604379Y-25739479D01*
X36596769Y-25718090D01*
X36543549Y-25511065D01*
X36541014Y-25498644D01*
X36504469Y-25258421D01*
X36504465Y-25258394D01*
X36503193Y-25245790D01*
X36498523Y-25153056D01*
X36490970Y-25003103D01*
X36490970Y-24990432D01*
X36498249Y-24845910D01*
X36503194Y-24747742D01*
X36504466Y-24735138D01*
X36541014Y-24494896D01*
X36543549Y-24482476D01*
X36594929Y-24282605D01*
X36603868Y-24258424D01*
X36605005Y-24256109D01*
X36608695Y-24248597D01*
X36608703Y-24248552D01*
X36608717Y-24248523D01*
X36610418Y-24238726D01*
X36618894Y-24210310D01*
X36658204Y-24119329D01*
X36671265Y-24096174D01*
X36740486Y-23999078D01*
X36758122Y-23979175D01*
X36846173Y-23898783D01*
X36867600Y-23883021D01*
X36970570Y-23822902D01*
X36994827Y-23811991D01*
X37051470Y-23793410D01*
X37108116Y-23774829D01*
X37134122Y-23769252D01*
X37150211Y-23767549D01*
X37226122Y-23759513D01*
X37241856Y-23759898D01*
X37241868Y-23758964D01*
X37250845Y-23759076D01*
X37259714Y-23760460D01*
X37268612Y-23759299D01*
X37268614Y-23759299D01*
X37291374Y-23756329D01*
X37307676Y-23755270D01*
X40748859Y-23755270D01*
X40768204Y-23756764D01*
G37*
%TD.AperFunction*%
%TA.AperFunction,NonConductor*%
G36*
X71768204Y-23756764D02*
G01*
X71792010Y-23760463D01*
X71800912Y-23759296D01*
X71800913Y-23759296D01*
X71801937Y-23759162D01*
X71831574Y-23758793D01*
X71930161Y-23769227D01*
X71956166Y-23774802D01*
X72069475Y-23811966D01*
X72093717Y-23822870D01*
X72196697Y-23882992D01*
X72218123Y-23898752D01*
X72246203Y-23924388D01*
X72306187Y-23979151D01*
X72323824Y-23999054D01*
X72393044Y-24096147D01*
X72406111Y-24119311D01*
X72442669Y-24203917D01*
X72442670Y-24203920D01*
X72446951Y-24218936D01*
X72447811Y-24218676D01*
X72450462Y-24227465D01*
X72451811Y-24236544D01*
X72451826Y-24236576D01*
X72451832Y-24236618D01*
X72455668Y-24244935D01*
X72455669Y-24244939D01*
X72459883Y-24254076D01*
X72467497Y-24275472D01*
X72520714Y-24482479D01*
X72523248Y-24494894D01*
X72529676Y-24537140D01*
X72559800Y-24735145D01*
X72561072Y-24747750D01*
X72565880Y-24843180D01*
X72573297Y-24990430D01*
X72573298Y-25003106D01*
X72561076Y-25245809D01*
X72559802Y-25258418D01*
X72523260Y-25498644D01*
X72523259Y-25498649D01*
X72520726Y-25511063D01*
X72469364Y-25710875D01*
X72460425Y-25735054D01*
X72455559Y-25744962D01*
X72455553Y-25744997D01*
X72455540Y-25745023D01*
X72453969Y-25754072D01*
X72453837Y-25754833D01*
X72445361Y-25783249D01*
X72406057Y-25874225D01*
X72392990Y-25897392D01*
X72331647Y-25983441D01*
X72323781Y-25994474D01*
X72306140Y-26014383D01*
X72273089Y-26044559D01*
X72218092Y-26094773D01*
X72196669Y-26110532D01*
X72093696Y-26170652D01*
X72069447Y-26181560D01*
X71956154Y-26218721D01*
X71930152Y-26224295D01*
X71838165Y-26234031D01*
X71822421Y-26233640D01*
X71822409Y-26234577D01*
X71813430Y-26234465D01*
X71804562Y-26233081D01*
X71795662Y-26234242D01*
X71795660Y-26234242D01*
X71772901Y-26237211D01*
X71756603Y-26238270D01*
X68315406Y-26238270D01*
X68296055Y-26236775D01*
X68295847Y-26236743D01*
X68272268Y-26233078D01*
X68263370Y-26234244D01*
X68263364Y-26234244D01*
X68262344Y-26234378D01*
X68232705Y-26234747D01*
X68134126Y-26224311D01*
X68108119Y-26218734D01*
X68104299Y-26217481D01*
X67994828Y-26181571D01*
X67970579Y-26170662D01*
X67867611Y-26110541D01*
X67846187Y-26094781D01*
X67799037Y-26051731D01*
X67758133Y-26014383D01*
X67740503Y-25994486D01*
X67671286Y-25897389D01*
X67658222Y-25874226D01*
X67621546Y-25789332D01*
X67617482Y-25775072D01*
X67616593Y-25775344D01*
X67613836Y-25766330D01*
X67612451Y-25757004D01*
X67612440Y-25756981D01*
X67612436Y-25756951D01*
X67604379Y-25739478D01*
X67596769Y-25718090D01*
X67594935Y-25710953D01*
X67543551Y-25511065D01*
X67541017Y-25498649D01*
X67534996Y-25459065D01*
X67504471Y-25258402D01*
X67503199Y-25245806D01*
X67490977Y-25003105D01*
X67490978Y-24990429D01*
X67498395Y-24843180D01*
X67503203Y-24747750D01*
X67504475Y-24735147D01*
X67504476Y-24735145D01*
X67541027Y-24494897D01*
X67543561Y-24482484D01*
X67594966Y-24282529D01*
X67603904Y-24258351D01*
X67604697Y-24256737D01*
X67604697Y-24256736D01*
X67608695Y-24248597D01*
X67608702Y-24248556D01*
X67608715Y-24248530D01*
X67610418Y-24238726D01*
X67618894Y-24210309D01*
X67658203Y-24119331D01*
X67671267Y-24096171D01*
X67740486Y-23999078D01*
X67758122Y-23979175D01*
X67846173Y-23898783D01*
X67867600Y-23883021D01*
X67970570Y-23822902D01*
X67994827Y-23811991D01*
X68051471Y-23793410D01*
X68108116Y-23774829D01*
X68134122Y-23769252D01*
X68150211Y-23767549D01*
X68226122Y-23759513D01*
X68241856Y-23759898D01*
X68241868Y-23758964D01*
X68250845Y-23759076D01*
X68259714Y-23760460D01*
X68268612Y-23759299D01*
X68268614Y-23759299D01*
X68291374Y-23756329D01*
X68307676Y-23755270D01*
X71748859Y-23755270D01*
X71768204Y-23756764D01*
G37*
%TD.AperFunction*%
%TA.AperFunction,NonConductor*%
G36*
X55696065Y-61613793D02*
G01*
X55975651Y-61624779D01*
X55985514Y-61625555D01*
X56474070Y-61683379D01*
X56483841Y-61684927D01*
X56729827Y-61733856D01*
X56966353Y-61780905D01*
X56975954Y-61783210D01*
X57293299Y-61872710D01*
X57449442Y-61916747D01*
X57458851Y-61919804D01*
X57920408Y-62090081D01*
X57929545Y-62093866D01*
X58376320Y-62299832D01*
X58385115Y-62304313D01*
X58586962Y-62417352D01*
X58814364Y-62544703D01*
X58822800Y-62549873D01*
X59231848Y-62823191D01*
X59239837Y-62828995D01*
X59405908Y-62959915D01*
X59626187Y-63133569D01*
X59633710Y-63139994D01*
X59754664Y-63251802D01*
X59994979Y-63473947D01*
X60001953Y-63480921D01*
X60156515Y-63648125D01*
X60335906Y-63842190D01*
X60342331Y-63849713D01*
X60501506Y-64051625D01*
X60640741Y-64228243D01*
X60646899Y-64236055D01*
X60652709Y-64244052D01*
X60847011Y-64534844D01*
X60926027Y-64653100D01*
X60931197Y-64661536D01*
X61171587Y-65090785D01*
X61176068Y-65099580D01*
X61352362Y-65481990D01*
X61382033Y-65546352D01*
X61385819Y-65555492D01*
X61556096Y-66017049D01*
X61559153Y-66026458D01*
X61692690Y-66499946D01*
X61694995Y-66509547D01*
X61712275Y-66596419D01*
X61790973Y-66992059D01*
X61792521Y-67001830D01*
X61850345Y-67490386D01*
X61851121Y-67500249D01*
X61857375Y-67659415D01*
X61867392Y-67914341D01*
X61870436Y-67991823D01*
X61870436Y-68001717D01*
X61851121Y-68493291D01*
X61850345Y-68503154D01*
X61792521Y-68991710D01*
X61790973Y-69001481D01*
X61749270Y-69211138D01*
X61696830Y-69474773D01*
X61694997Y-69483986D01*
X61692690Y-69493594D01*
X61642443Y-69671759D01*
X61559153Y-69967082D01*
X61556096Y-69976491D01*
X61385819Y-70438048D01*
X61382034Y-70447185D01*
X61210295Y-70819717D01*
X61176073Y-70893950D01*
X61171587Y-70902755D01*
X61009788Y-71191669D01*
X60931197Y-71332004D01*
X60926027Y-71340440D01*
X60685488Y-71700432D01*
X60652714Y-71749481D01*
X60646905Y-71757477D01*
X60569944Y-71855102D01*
X60342331Y-72143827D01*
X60335906Y-72151350D01*
X60185454Y-72314109D01*
X60001953Y-72512619D01*
X59994979Y-72519593D01*
X59796469Y-72703094D01*
X59633710Y-72853546D01*
X59626187Y-72859971D01*
X59472588Y-72981059D01*
X59239837Y-73164545D01*
X59231848Y-73170349D01*
X59063585Y-73282779D01*
X58822800Y-73443667D01*
X58814364Y-73448837D01*
X58385115Y-73689227D01*
X58376320Y-73693708D01*
X57973161Y-73879567D01*
X57929548Y-73899673D01*
X57920408Y-73903459D01*
X57458851Y-74073736D01*
X57449442Y-74076793D01*
X57293299Y-74120830D01*
X56975954Y-74210330D01*
X56966353Y-74212635D01*
X56729827Y-74259684D01*
X56483841Y-74308613D01*
X56474070Y-74310161D01*
X55985514Y-74367985D01*
X55975651Y-74368761D01*
X55696065Y-74379747D01*
X55484068Y-74388076D01*
X55474192Y-74388076D01*
X55262195Y-74379747D01*
X54982609Y-74368761D01*
X54972746Y-74367985D01*
X54484190Y-74310161D01*
X54474419Y-74308613D01*
X54228433Y-74259684D01*
X53991907Y-74212635D01*
X53982306Y-74210330D01*
X53664961Y-74120830D01*
X53508818Y-74076793D01*
X53499409Y-74073736D01*
X53037852Y-73903459D01*
X53028712Y-73899673D01*
X52985099Y-73879567D01*
X52581940Y-73693708D01*
X52573145Y-73689227D01*
X52143896Y-73448837D01*
X52135460Y-73443667D01*
X51894675Y-73282779D01*
X51726412Y-73170349D01*
X51718423Y-73164545D01*
X51485672Y-72981059D01*
X51332073Y-72859971D01*
X51324550Y-72853546D01*
X51161791Y-72703094D01*
X50963281Y-72519593D01*
X50956307Y-72512619D01*
X50772806Y-72314109D01*
X50622354Y-72151350D01*
X50615929Y-72143827D01*
X50388316Y-71855102D01*
X50311355Y-71757477D01*
X50305546Y-71749481D01*
X50272773Y-71700432D01*
X50032233Y-71340440D01*
X50027063Y-71332004D01*
X49948472Y-71191669D01*
X49786673Y-70902755D01*
X49782187Y-70893950D01*
X49747966Y-70819717D01*
X49576226Y-70447185D01*
X49572441Y-70438048D01*
X49402164Y-69976491D01*
X49399107Y-69967082D01*
X49315817Y-69671759D01*
X49265570Y-69493594D01*
X49263263Y-69483986D01*
X49261431Y-69474773D01*
X49208990Y-69211138D01*
X49167287Y-69001481D01*
X49165739Y-68991710D01*
X49107915Y-68503154D01*
X49107139Y-68493291D01*
X49087824Y-68001717D01*
X49087824Y-67991823D01*
X49090869Y-67914341D01*
X49100885Y-67659415D01*
X49107139Y-67500249D01*
X49107915Y-67490386D01*
X49165739Y-67001830D01*
X49167287Y-66992059D01*
X49245985Y-66596419D01*
X49263265Y-66509547D01*
X49265570Y-66499946D01*
X49399107Y-66026458D01*
X49402164Y-66017049D01*
X49572441Y-65555492D01*
X49576227Y-65546352D01*
X49605898Y-65481990D01*
X49782192Y-65099580D01*
X49786673Y-65090785D01*
X50027063Y-64661536D01*
X50032233Y-64653100D01*
X50111249Y-64534844D01*
X50305551Y-64244052D01*
X50311361Y-64236055D01*
X50317520Y-64228243D01*
X50456754Y-64051625D01*
X50615929Y-63849713D01*
X50622354Y-63842190D01*
X50801745Y-63648125D01*
X50956307Y-63480921D01*
X50963281Y-63473947D01*
X51203596Y-63251802D01*
X51324550Y-63139994D01*
X51332073Y-63133569D01*
X51552352Y-62959915D01*
X51718423Y-62828995D01*
X51726412Y-62823191D01*
X52135460Y-62549873D01*
X52143896Y-62544703D01*
X52371298Y-62417352D01*
X52573145Y-62304313D01*
X52581940Y-62299832D01*
X53028715Y-62093866D01*
X53037852Y-62090081D01*
X53499409Y-61919804D01*
X53508818Y-61916747D01*
X53664961Y-61872710D01*
X53982306Y-61783210D01*
X53991907Y-61780905D01*
X54228433Y-61733856D01*
X54474419Y-61684927D01*
X54484190Y-61683379D01*
X54972746Y-61625555D01*
X54982609Y-61624779D01*
X55262195Y-61613793D01*
X55474192Y-61605464D01*
X55484068Y-61605464D01*
X55696065Y-61613793D01*
G37*
%TD.AperFunction*%
%TA.AperFunction,NonConductor*%
G36*
X69812065Y-61613793D02*
G01*
X70091651Y-61624779D01*
X70101514Y-61625555D01*
X70590070Y-61683379D01*
X70599841Y-61684927D01*
X70845827Y-61733856D01*
X71082353Y-61780905D01*
X71091954Y-61783210D01*
X71409299Y-61872710D01*
X71565442Y-61916747D01*
X71574851Y-61919804D01*
X72036408Y-62090081D01*
X72045545Y-62093866D01*
X72492320Y-62299832D01*
X72501115Y-62304313D01*
X72702962Y-62417352D01*
X72930364Y-62544703D01*
X72938800Y-62549873D01*
X73347848Y-62823191D01*
X73355837Y-62828995D01*
X73521908Y-62959915D01*
X73742187Y-63133569D01*
X73749710Y-63139994D01*
X73870664Y-63251802D01*
X74110979Y-63473947D01*
X74117953Y-63480921D01*
X74272515Y-63648125D01*
X74451906Y-63842190D01*
X74458331Y-63849713D01*
X74617506Y-64051625D01*
X74756741Y-64228243D01*
X74762899Y-64236055D01*
X74768709Y-64244052D01*
X74963011Y-64534844D01*
X75042027Y-64653100D01*
X75047197Y-64661536D01*
X75287587Y-65090785D01*
X75292068Y-65099580D01*
X75468362Y-65481990D01*
X75498033Y-65546352D01*
X75501819Y-65555492D01*
X75672096Y-66017049D01*
X75675153Y-66026458D01*
X75808690Y-66499946D01*
X75810995Y-66509547D01*
X75828275Y-66596419D01*
X75906973Y-66992059D01*
X75908521Y-67001830D01*
X75966345Y-67490386D01*
X75967121Y-67500249D01*
X75973375Y-67659415D01*
X75983392Y-67914341D01*
X75986436Y-67991823D01*
X75986436Y-68001717D01*
X75967121Y-68493291D01*
X75966345Y-68503154D01*
X75908521Y-68991710D01*
X75906973Y-69001481D01*
X75865270Y-69211138D01*
X75812830Y-69474773D01*
X75810997Y-69483986D01*
X75808690Y-69493594D01*
X75758443Y-69671759D01*
X75675153Y-69967082D01*
X75672096Y-69976491D01*
X75501819Y-70438048D01*
X75498034Y-70447185D01*
X75326295Y-70819717D01*
X75292073Y-70893950D01*
X75287587Y-70902755D01*
X75125788Y-71191669D01*
X75047197Y-71332004D01*
X75042027Y-71340440D01*
X74801488Y-71700432D01*
X74768714Y-71749481D01*
X74762905Y-71757477D01*
X74685944Y-71855102D01*
X74458331Y-72143827D01*
X74451906Y-72151350D01*
X74301454Y-72314109D01*
X74117953Y-72512619D01*
X74110979Y-72519593D01*
X73912469Y-72703094D01*
X73749710Y-72853546D01*
X73742187Y-72859971D01*
X73588588Y-72981059D01*
X73355837Y-73164545D01*
X73347848Y-73170349D01*
X73179585Y-73282779D01*
X72938800Y-73443667D01*
X72930364Y-73448837D01*
X72501115Y-73689227D01*
X72492320Y-73693708D01*
X72089161Y-73879567D01*
X72045548Y-73899673D01*
X72036408Y-73903459D01*
X71574851Y-74073736D01*
X71565442Y-74076793D01*
X71409299Y-74120830D01*
X71091954Y-74210330D01*
X71082353Y-74212635D01*
X70845827Y-74259684D01*
X70599841Y-74308613D01*
X70590070Y-74310161D01*
X70101514Y-74367985D01*
X70091651Y-74368761D01*
X69812065Y-74379747D01*
X69600068Y-74388076D01*
X69590192Y-74388076D01*
X69378195Y-74379747D01*
X69098609Y-74368761D01*
X69088746Y-74367985D01*
X68600190Y-74310161D01*
X68590419Y-74308613D01*
X68344433Y-74259684D01*
X68107907Y-74212635D01*
X68098306Y-74210330D01*
X67780961Y-74120830D01*
X67624818Y-74076793D01*
X67615409Y-74073736D01*
X67153852Y-73903459D01*
X67144712Y-73899673D01*
X67101099Y-73879567D01*
X66697940Y-73693708D01*
X66689145Y-73689227D01*
X66259896Y-73448837D01*
X66251460Y-73443667D01*
X66010675Y-73282779D01*
X65842412Y-73170349D01*
X65834423Y-73164545D01*
X65601672Y-72981059D01*
X65448073Y-72859971D01*
X65440550Y-72853546D01*
X65277791Y-72703094D01*
X65079281Y-72519593D01*
X65072307Y-72512619D01*
X64888806Y-72314109D01*
X64738354Y-72151350D01*
X64731929Y-72143827D01*
X64504316Y-71855102D01*
X64427355Y-71757477D01*
X64421546Y-71749481D01*
X64388773Y-71700432D01*
X64148233Y-71340440D01*
X64143063Y-71332004D01*
X64064472Y-71191669D01*
X63902673Y-70902755D01*
X63898187Y-70893950D01*
X63863966Y-70819717D01*
X63692226Y-70447185D01*
X63688441Y-70438048D01*
X63518164Y-69976491D01*
X63515107Y-69967082D01*
X63431817Y-69671759D01*
X63381570Y-69493594D01*
X63379263Y-69483986D01*
X63377431Y-69474773D01*
X63324990Y-69211138D01*
X63283287Y-69001481D01*
X63281739Y-68991710D01*
X63223915Y-68503154D01*
X63223139Y-68493291D01*
X63203824Y-68001717D01*
X63203824Y-67991823D01*
X63206869Y-67914341D01*
X63216885Y-67659415D01*
X63223139Y-67500249D01*
X63223915Y-67490386D01*
X63281739Y-67001830D01*
X63283287Y-66992059D01*
X63361985Y-66596419D01*
X63379265Y-66509547D01*
X63381570Y-66499946D01*
X63515107Y-66026458D01*
X63518164Y-66017049D01*
X63688441Y-65555492D01*
X63692227Y-65546352D01*
X63721898Y-65481990D01*
X63898192Y-65099580D01*
X63902673Y-65090785D01*
X64143063Y-64661536D01*
X64148233Y-64653100D01*
X64227249Y-64534844D01*
X64421551Y-64244052D01*
X64427361Y-64236055D01*
X64433520Y-64228243D01*
X64572754Y-64051625D01*
X64731929Y-63849713D01*
X64738354Y-63842190D01*
X64917745Y-63648125D01*
X65072307Y-63480921D01*
X65079281Y-63473947D01*
X65319596Y-63251802D01*
X65440550Y-63139994D01*
X65448073Y-63133569D01*
X65668352Y-62959915D01*
X65834423Y-62828995D01*
X65842412Y-62823191D01*
X66251460Y-62549873D01*
X66259896Y-62544703D01*
X66487298Y-62417352D01*
X66689145Y-62304313D01*
X66697940Y-62299832D01*
X67144715Y-62093866D01*
X67153852Y-62090081D01*
X67615409Y-61919804D01*
X67624818Y-61916747D01*
X67780961Y-61872710D01*
X68098306Y-61783210D01*
X68107907Y-61780905D01*
X68344433Y-61733856D01*
X68590419Y-61684927D01*
X68600190Y-61683379D01*
X69088746Y-61625555D01*
X69098609Y-61624779D01*
X69378195Y-61613793D01*
X69590192Y-61605464D01*
X69600068Y-61605464D01*
X69812065Y-61613793D01*
G37*
%TD.AperFunction*%
%TA.AperFunction,NonConductor*%
G36*
X40768204Y-146156764D02*
G01*
X40792010Y-146160463D01*
X40800912Y-146159296D01*
X40800913Y-146159296D01*
X40801937Y-146159162D01*
X40831574Y-146158793D01*
X40930161Y-146169227D01*
X40956166Y-146174802D01*
X41069475Y-146211966D01*
X41093717Y-146222870D01*
X41196697Y-146282992D01*
X41218123Y-146298752D01*
X41246203Y-146324388D01*
X41306187Y-146379151D01*
X41323824Y-146399054D01*
X41393044Y-146496147D01*
X41406111Y-146519311D01*
X41442669Y-146603917D01*
X41446922Y-146618839D01*
X41447782Y-146618579D01*
X41450455Y-146627417D01*
X41451810Y-146636541D01*
X41451826Y-146636575D01*
X41451832Y-146636618D01*
X41455710Y-146645027D01*
X41455711Y-146645030D01*
X41459881Y-146654070D01*
X41467495Y-146675466D01*
X41469330Y-146682605D01*
X41520711Y-146882476D01*
X41523246Y-146894896D01*
X41559794Y-147135138D01*
X41559794Y-147135139D01*
X41561066Y-147147743D01*
X41566011Y-147245910D01*
X41573290Y-147390432D01*
X41573290Y-147403104D01*
X41565738Y-147553056D01*
X41561067Y-147645790D01*
X41559795Y-147658395D01*
X41523243Y-147898656D01*
X41520712Y-147911059D01*
X41520709Y-147911070D01*
X41469325Y-148110953D01*
X41460391Y-148135123D01*
X41455559Y-148144962D01*
X41455554Y-148144994D01*
X41455542Y-148145017D01*
X41453874Y-148154623D01*
X41453872Y-148154629D01*
X41453837Y-148154832D01*
X41445362Y-148183246D01*
X41406057Y-148274225D01*
X41392990Y-148297392D01*
X41331647Y-148383441D01*
X41323781Y-148394474D01*
X41306140Y-148414383D01*
X41273089Y-148444559D01*
X41218092Y-148494773D01*
X41196669Y-148510532D01*
X41093696Y-148570652D01*
X41069447Y-148581560D01*
X40956154Y-148618721D01*
X40930152Y-148624295D01*
X40838165Y-148634031D01*
X40822421Y-148633640D01*
X40822409Y-148634577D01*
X40813430Y-148634465D01*
X40804562Y-148633081D01*
X40795662Y-148634242D01*
X40795660Y-148634242D01*
X40772901Y-148637211D01*
X40756603Y-148638270D01*
X37315406Y-148638270D01*
X37296055Y-148636775D01*
X37295847Y-148636743D01*
X37272268Y-148633078D01*
X37263370Y-148634244D01*
X37263364Y-148634244D01*
X37262344Y-148634378D01*
X37232705Y-148634747D01*
X37134126Y-148624311D01*
X37108119Y-148618734D01*
X37104299Y-148617481D01*
X36994828Y-148581571D01*
X36970579Y-148570662D01*
X36867611Y-148510541D01*
X36846187Y-148494781D01*
X36799037Y-148451731D01*
X36758133Y-148414383D01*
X36740503Y-148394486D01*
X36671288Y-148297391D01*
X36658223Y-148274228D01*
X36621543Y-148189323D01*
X36617449Y-148174959D01*
X36616559Y-148175230D01*
X36613827Y-148166269D01*
X36612450Y-148157001D01*
X36612440Y-148156980D01*
X36612436Y-148156951D01*
X36604379Y-148139479D01*
X36596769Y-148118090D01*
X36543549Y-147911065D01*
X36541014Y-147898644D01*
X36504469Y-147658421D01*
X36504465Y-147658394D01*
X36503193Y-147645790D01*
X36498523Y-147553056D01*
X36490970Y-147403103D01*
X36490970Y-147390432D01*
X36498249Y-147245910D01*
X36503194Y-147147742D01*
X36504466Y-147135138D01*
X36541014Y-146894896D01*
X36543549Y-146882476D01*
X36594929Y-146682605D01*
X36603868Y-146658424D01*
X36605005Y-146656109D01*
X36608695Y-146648597D01*
X36608703Y-146648552D01*
X36608717Y-146648523D01*
X36610418Y-146638726D01*
X36618894Y-146610310D01*
X36658204Y-146519329D01*
X36671265Y-146496174D01*
X36740486Y-146399078D01*
X36758122Y-146379175D01*
X36846173Y-146298783D01*
X36867600Y-146283021D01*
X36970570Y-146222902D01*
X36994827Y-146211991D01*
X37051471Y-146193410D01*
X37108116Y-146174829D01*
X37134122Y-146169252D01*
X37150211Y-146167549D01*
X37226122Y-146159513D01*
X37241856Y-146159898D01*
X37241868Y-146158964D01*
X37250845Y-146159076D01*
X37259714Y-146160460D01*
X37268612Y-146159299D01*
X37268614Y-146159299D01*
X37291374Y-146156329D01*
X37307676Y-146155270D01*
X40748859Y-146155270D01*
X40768204Y-146156764D01*
G37*
%TD.AperFunction*%
%TA.AperFunction,NonConductor*%
G36*
X71768204Y-146156764D02*
G01*
X71792010Y-146160463D01*
X71800912Y-146159296D01*
X71800913Y-146159296D01*
X71801937Y-146159162D01*
X71831574Y-146158793D01*
X71930161Y-146169227D01*
X71956166Y-146174802D01*
X72069475Y-146211966D01*
X72093717Y-146222870D01*
X72196697Y-146282992D01*
X72218123Y-146298752D01*
X72246203Y-146324388D01*
X72306187Y-146379151D01*
X72323824Y-146399054D01*
X72393044Y-146496147D01*
X72406111Y-146519311D01*
X72442669Y-146603917D01*
X72442670Y-146603920D01*
X72446951Y-146618936D01*
X72447811Y-146618676D01*
X72450462Y-146627465D01*
X72451811Y-146636544D01*
X72451826Y-146636576D01*
X72451832Y-146636618D01*
X72455668Y-146644935D01*
X72455669Y-146644939D01*
X72459883Y-146654076D01*
X72467497Y-146675472D01*
X72520714Y-146882479D01*
X72523248Y-146894894D01*
X72529676Y-146937140D01*
X72559800Y-147135145D01*
X72561072Y-147147750D01*
X72565880Y-147243180D01*
X72573297Y-147390430D01*
X72573298Y-147403106D01*
X72561076Y-147645809D01*
X72559802Y-147658418D01*
X72523260Y-147898644D01*
X72523259Y-147898649D01*
X72520726Y-147911063D01*
X72469364Y-148110875D01*
X72460425Y-148135054D01*
X72455559Y-148144962D01*
X72455553Y-148144997D01*
X72455540Y-148145023D01*
X72453969Y-148154072D01*
X72453837Y-148154833D01*
X72445361Y-148183249D01*
X72406057Y-148274225D01*
X72392990Y-148297392D01*
X72331647Y-148383441D01*
X72323781Y-148394474D01*
X72306140Y-148414383D01*
X72273089Y-148444559D01*
X72218092Y-148494773D01*
X72196669Y-148510532D01*
X72093696Y-148570652D01*
X72069447Y-148581560D01*
X71956154Y-148618721D01*
X71930152Y-148624295D01*
X71838165Y-148634031D01*
X71822421Y-148633640D01*
X71822409Y-148634577D01*
X71813430Y-148634465D01*
X71804562Y-148633081D01*
X71795662Y-148634242D01*
X71795660Y-148634242D01*
X71772901Y-148637211D01*
X71756603Y-148638270D01*
X68315406Y-148638270D01*
X68296055Y-148636775D01*
X68295847Y-148636743D01*
X68272268Y-148633078D01*
X68263370Y-148634244D01*
X68263364Y-148634244D01*
X68262344Y-148634378D01*
X68232705Y-148634747D01*
X68134126Y-148624311D01*
X68108119Y-148618734D01*
X68104299Y-148617481D01*
X67994828Y-148581571D01*
X67970579Y-148570662D01*
X67867611Y-148510541D01*
X67846187Y-148494781D01*
X67799037Y-148451731D01*
X67758133Y-148414383D01*
X67740503Y-148394486D01*
X67671286Y-148297389D01*
X67658222Y-148274226D01*
X67621546Y-148189332D01*
X67617482Y-148175072D01*
X67616593Y-148175344D01*
X67613836Y-148166330D01*
X67612451Y-148157004D01*
X67612440Y-148156981D01*
X67612436Y-148156951D01*
X67604379Y-148139478D01*
X67596769Y-148118090D01*
X67594935Y-148110953D01*
X67543551Y-147911065D01*
X67541017Y-147898649D01*
X67534996Y-147859065D01*
X67504471Y-147658402D01*
X67503199Y-147645806D01*
X67490977Y-147403105D01*
X67490978Y-147390429D01*
X67498395Y-147243180D01*
X67503203Y-147147750D01*
X67504475Y-147135147D01*
X67504476Y-147135145D01*
X67541027Y-146894897D01*
X67543561Y-146882484D01*
X67594966Y-146682529D01*
X67603904Y-146658351D01*
X67604697Y-146656737D01*
X67604697Y-146656736D01*
X67608695Y-146648597D01*
X67608702Y-146648556D01*
X67608715Y-146648530D01*
X67610418Y-146638726D01*
X67618894Y-146610309D01*
X67658203Y-146519331D01*
X67671267Y-146496171D01*
X67740486Y-146399078D01*
X67758122Y-146379175D01*
X67846173Y-146298783D01*
X67867600Y-146283021D01*
X67970570Y-146222902D01*
X67994827Y-146211991D01*
X68051471Y-146193410D01*
X68108116Y-146174829D01*
X68134122Y-146169252D01*
X68150211Y-146167549D01*
X68226122Y-146159513D01*
X68241856Y-146159898D01*
X68241868Y-146158964D01*
X68250845Y-146159076D01*
X68259714Y-146160460D01*
X68268612Y-146159299D01*
X68268614Y-146159299D01*
X68291374Y-146156329D01*
X68307676Y-146155270D01*
X71748859Y-146155270D01*
X71768204Y-146156764D01*
G37*
%TD.AperFunction*%
%TA.AperFunction,NonConductor*%
G36*
X64385648Y-45306771D02*
G01*
X64390266Y-45307490D01*
X64398704Y-45308804D01*
X64409344Y-45310461D01*
X64418246Y-45309297D01*
X64418248Y-45309297D01*
X64422017Y-45308804D01*
X64449336Y-45308220D01*
X64576608Y-45319357D01*
X64576811Y-45319375D01*
X64598440Y-45323189D01*
X64744087Y-45362217D01*
X64764725Y-45369729D01*
X64901379Y-45433454D01*
X64920399Y-45444435D01*
X65043919Y-45530925D01*
X65060743Y-45545043D01*
X65167357Y-45651657D01*
X65181475Y-45668481D01*
X65267965Y-45792001D01*
X65278946Y-45811021D01*
X65342671Y-45947675D01*
X65350183Y-45968313D01*
X65389211Y-46113960D01*
X65393025Y-46135589D01*
X65403577Y-46256168D01*
X65403023Y-46272651D01*
X65403430Y-46272656D01*
X65403321Y-46281631D01*
X65401939Y-46290504D01*
X65405734Y-46319525D01*
X65406066Y-46322060D01*
X65407130Y-46338400D01*
X65407130Y-52247413D01*
X65405630Y-52266796D01*
X65401939Y-52290504D01*
X65403104Y-52299411D01*
X65403596Y-52303177D01*
X65404181Y-52330495D01*
X65393031Y-52457967D01*
X65389218Y-52479592D01*
X65350195Y-52625234D01*
X65342684Y-52645870D01*
X65278958Y-52782532D01*
X65267980Y-52801546D01*
X65217678Y-52873383D01*
X65181495Y-52925057D01*
X65167379Y-52941880D01*
X65060756Y-53048500D01*
X65043940Y-53062610D01*
X64920419Y-53149097D01*
X64901415Y-53160069D01*
X64764741Y-53223796D01*
X64744118Y-53231301D01*
X64688885Y-53246099D01*
X64598469Y-53270322D01*
X64576838Y-53274135D01*
X64456097Y-53284693D01*
X64439779Y-53284144D01*
X64439774Y-53284571D01*
X64430804Y-53284461D01*
X64421930Y-53283079D01*
X64399386Y-53286026D01*
X64390352Y-53287207D01*
X64374020Y-53288270D01*
X41545987Y-53288270D01*
X41526604Y-53286770D01*
X41502896Y-53283079D01*
X41493989Y-53284244D01*
X41490223Y-53284736D01*
X41462904Y-53285321D01*
X41335428Y-53274170D01*
X41313799Y-53270356D01*
X41168156Y-53231334D01*
X41147516Y-53223822D01*
X41147450Y-53223791D01*
X41010861Y-53160100D01*
X40991843Y-53149120D01*
X40868323Y-53062631D01*
X40851498Y-53048513D01*
X40744887Y-52941902D01*
X40730769Y-52925077D01*
X40644280Y-52801557D01*
X40633298Y-52782536D01*
X40569578Y-52645884D01*
X40562066Y-52625244D01*
X40523044Y-52479601D01*
X40519230Y-52457972D01*
X40508682Y-52337388D01*
X40509237Y-52320906D01*
X40508830Y-52320901D01*
X40508940Y-52311927D01*
X40510321Y-52303056D01*
X40506193Y-52271481D01*
X40505130Y-52255147D01*
X40505130Y-46346152D01*
X40506631Y-46326761D01*
X40508939Y-46311943D01*
X40510321Y-46303070D01*
X40508664Y-46290393D01*
X40508081Y-46263077D01*
X40508144Y-46262364D01*
X40519239Y-46135604D01*
X40523053Y-46113976D01*
X40562085Y-45968326D01*
X40569597Y-45947689D01*
X40633325Y-45811031D01*
X40644306Y-45792012D01*
X40730795Y-45668495D01*
X40744913Y-45651671D01*
X40851531Y-45545053D01*
X40868352Y-45530937D01*
X40991872Y-45444446D01*
X41010891Y-45433465D01*
X41147549Y-45369737D01*
X41168186Y-45362225D01*
X41313836Y-45323193D01*
X41335464Y-45319379D01*
X41387378Y-45314835D01*
X41456048Y-45308824D01*
X41472528Y-45309378D01*
X41472533Y-45308971D01*
X41481508Y-45309080D01*
X41490378Y-45310461D01*
X41499277Y-45309297D01*
X41499279Y-45309297D01*
X41521929Y-45306334D01*
X41538271Y-45305270D01*
X64366261Y-45305270D01*
X64385648Y-45306771D01*
G37*
%TD.AperFunction*%
%TA.AperFunction,NonConductor*%
G36*
X40366130Y-64051710D02*
G01*
X40743210Y-64072792D01*
X40755443Y-64074079D01*
X41128652Y-64131854D01*
X41140706Y-64134329D01*
X41195421Y-64148377D01*
X41506477Y-64228243D01*
X41518237Y-64231883D01*
X41873105Y-64361045D01*
X41884453Y-64365815D01*
X42225024Y-64528989D01*
X42235853Y-64534844D01*
X42558882Y-64730478D01*
X42569087Y-64737362D01*
X42608457Y-64766814D01*
X42871481Y-64963580D01*
X42880956Y-64971418D01*
X43116896Y-65186862D01*
X43159833Y-65226069D01*
X43168504Y-65234801D01*
X43314580Y-65397035D01*
X43421191Y-65515438D01*
X43428971Y-65524976D01*
X43451470Y-65555492D01*
X43653082Y-65828953D01*
X43659894Y-65839207D01*
X43853260Y-66163582D01*
X43859039Y-66174451D01*
X44016727Y-66509554D01*
X44019831Y-66516151D01*
X44024520Y-66527527D01*
X44087863Y-66705414D01*
X44151204Y-66883296D01*
X44154762Y-66895081D01*
X44246122Y-67261506D01*
X44248513Y-67273581D01*
X44296396Y-67597842D01*
X44303679Y-67647163D01*
X44304880Y-67659408D01*
X44321380Y-67996770D01*
X44323437Y-68038818D01*
X44323575Y-68046723D01*
X44322803Y-68102008D01*
X44322129Y-68150259D01*
X44321770Y-68158165D01*
X44292629Y-68536894D01*
X44291087Y-68549102D01*
X44246649Y-68801123D01*
X44225508Y-68921020D01*
X44222781Y-68933018D01*
X44205023Y-68996621D01*
X44121228Y-69296741D01*
X44117343Y-69308422D01*
X43993935Y-69626588D01*
X43980776Y-69660513D01*
X43975769Y-69671759D01*
X43805494Y-70008845D01*
X43799413Y-70019548D01*
X43597065Y-70338398D01*
X43589974Y-70348452D01*
X43446476Y-70532120D01*
X43357474Y-70646037D01*
X43349431Y-70655355D01*
X43088992Y-70928843D01*
X43080077Y-70937332D01*
X42794206Y-71184090D01*
X42784505Y-71191669D01*
X42475921Y-71409351D01*
X42465527Y-71415947D01*
X42137170Y-71602479D01*
X42126183Y-71608030D01*
X41781178Y-71761636D01*
X41769701Y-71766087D01*
X41411375Y-71885286D01*
X41399518Y-71888597D01*
X41031250Y-71972266D01*
X41019127Y-71974403D01*
X40831800Y-71998068D01*
X40644471Y-72021733D01*
X40632202Y-72022678D01*
X40254696Y-72033223D01*
X40242389Y-72032965D01*
X40226971Y-72031887D01*
X39865658Y-72006621D01*
X39853448Y-72005165D01*
X39658940Y-71972266D01*
X39481094Y-71942185D01*
X39469071Y-71939542D01*
X39104634Y-71840527D01*
X39092927Y-71836723D01*
X38739903Y-71702622D01*
X38728622Y-71697694D01*
X38390356Y-71529777D01*
X38379610Y-71523771D01*
X38059354Y-71323653D01*
X38049246Y-71316628D01*
X37750040Y-71086209D01*
X37740665Y-71078230D01*
X37645039Y-70988431D01*
X37465369Y-70819710D01*
X37456841Y-70810880D01*
X37208074Y-70526714D01*
X37200436Y-70517076D01*
X36980592Y-70210003D01*
X36973923Y-70199655D01*
X36785104Y-69872608D01*
X36779479Y-69861664D01*
X36623474Y-69517753D01*
X36618942Y-69506308D01*
X36497240Y-69148811D01*
X36493847Y-69136977D01*
X36407611Y-68769309D01*
X36405389Y-68757201D01*
X36355444Y-68382877D01*
X36354414Y-68370610D01*
X36341234Y-67993197D01*
X36341406Y-67980888D01*
X36365118Y-67603994D01*
X36366490Y-67591761D01*
X36426868Y-67218977D01*
X36429427Y-67206936D01*
X36443163Y-67154947D01*
X36525896Y-66841815D01*
X36529617Y-66830087D01*
X36661255Y-66476124D01*
X36666104Y-66464809D01*
X36831650Y-66125390D01*
X36837580Y-66114603D01*
X36938107Y-65951198D01*
X37035464Y-65792947D01*
X37042414Y-65782797D01*
X37270741Y-65481990D01*
X37278653Y-65472560D01*
X37535236Y-65195475D01*
X37544031Y-65186862D01*
X37738852Y-65013892D01*
X37826444Y-64936124D01*
X37836024Y-64928423D01*
X38141548Y-64706445D01*
X38151841Y-64699710D01*
X38438287Y-64531653D01*
X38477570Y-64508606D01*
X38488479Y-64502903D01*
X38831299Y-64344499D01*
X38842713Y-64339888D01*
X39199341Y-64215696D01*
X39211150Y-64212220D01*
X39578204Y-64123420D01*
X39590296Y-64121113D01*
X39964275Y-64068554D01*
X39976534Y-64067439D01*
X40128348Y-64061076D01*
X40353839Y-64051625D01*
X40366130Y-64051710D01*
G37*
%TD.AperFunction*%
%TA.AperFunction,NonConductor*%
G36*
X69696442Y-98511180D02*
G01*
X69991132Y-98548408D01*
X70006663Y-98551371D01*
X70209900Y-98603554D01*
X70294365Y-98625241D01*
X70309413Y-98630130D01*
X70399387Y-98665753D01*
X70585591Y-98739476D01*
X70599903Y-98746211D01*
X70860198Y-98889311D01*
X70873558Y-98897789D01*
X71113858Y-99072376D01*
X71126050Y-99082462D01*
X71342573Y-99285791D01*
X71353405Y-99297326D01*
X71542748Y-99526202D01*
X71552048Y-99539003D01*
X71711200Y-99789787D01*
X71718823Y-99803653D01*
X71845292Y-100072415D01*
X71851117Y-100087126D01*
X71942909Y-100369632D01*
X71946839Y-100384938D01*
X71994125Y-100632819D01*
X72002499Y-100676716D01*
X72004482Y-100692415D01*
X72023132Y-100988859D01*
X72023132Y-101004681D01*
X72004482Y-101301125D01*
X72002500Y-101316820D01*
X71946839Y-101608602D01*
X71942909Y-101623908D01*
X71908302Y-101730418D01*
X71851117Y-101906414D01*
X71845292Y-101921125D01*
X71718823Y-102189887D01*
X71711200Y-102203753D01*
X71552048Y-102454537D01*
X71542748Y-102467338D01*
X71353405Y-102696214D01*
X71342573Y-102707749D01*
X71126050Y-102911078D01*
X71113858Y-102921164D01*
X70873558Y-103095751D01*
X70860198Y-103104229D01*
X70599903Y-103247329D01*
X70585591Y-103254064D01*
X70399387Y-103327787D01*
X70309413Y-103363410D01*
X70294365Y-103368299D01*
X70209900Y-103389986D01*
X70006663Y-103442169D01*
X69991132Y-103445132D01*
X69721185Y-103479234D01*
X69696441Y-103482360D01*
X69680649Y-103483354D01*
X69383611Y-103483354D01*
X69367819Y-103482360D01*
X69343075Y-103479234D01*
X69073128Y-103445132D01*
X69057597Y-103442169D01*
X68854360Y-103389986D01*
X68769895Y-103368299D01*
X68754847Y-103363410D01*
X68664873Y-103327787D01*
X68478669Y-103254064D01*
X68464357Y-103247329D01*
X68204062Y-103104229D01*
X68190702Y-103095751D01*
X67950402Y-102921164D01*
X67938210Y-102911078D01*
X67721687Y-102707749D01*
X67710855Y-102696214D01*
X67521512Y-102467338D01*
X67512212Y-102454537D01*
X67353060Y-102203753D01*
X67345437Y-102189887D01*
X67218968Y-101921125D01*
X67213143Y-101906414D01*
X67155958Y-101730418D01*
X67121351Y-101623908D01*
X67117421Y-101608602D01*
X67061760Y-101316820D01*
X67059778Y-101301125D01*
X67041128Y-101004681D01*
X67041128Y-100988859D01*
X67059778Y-100692415D01*
X67061761Y-100676716D01*
X67070135Y-100632819D01*
X67117421Y-100384938D01*
X67121351Y-100369632D01*
X67213143Y-100087126D01*
X67218968Y-100072415D01*
X67345437Y-99803653D01*
X67353060Y-99789787D01*
X67512212Y-99539003D01*
X67521512Y-99526202D01*
X67710855Y-99297326D01*
X67721687Y-99285791D01*
X67938210Y-99082462D01*
X67950402Y-99072376D01*
X68190702Y-98897789D01*
X68204062Y-98889311D01*
X68464357Y-98746211D01*
X68478669Y-98739476D01*
X68664873Y-98665753D01*
X68754847Y-98630130D01*
X68769895Y-98625241D01*
X68854360Y-98603554D01*
X69057597Y-98551371D01*
X69073128Y-98548408D01*
X69367818Y-98511180D01*
X69383611Y-98510186D01*
X69680649Y-98510186D01*
X69696442Y-98511180D01*
G37*
%TD.AperFunction*%
%TA.AperFunction,NonConductor*%
G36*
X54296442Y-98511180D02*
G01*
X54591132Y-98548408D01*
X54606663Y-98551371D01*
X54809900Y-98603554D01*
X54894365Y-98625241D01*
X54909413Y-98630130D01*
X54999387Y-98665753D01*
X55185591Y-98739476D01*
X55199903Y-98746211D01*
X55460198Y-98889311D01*
X55473558Y-98897789D01*
X55713858Y-99072376D01*
X55726050Y-99082462D01*
X55942573Y-99285791D01*
X55953405Y-99297326D01*
X56142748Y-99526202D01*
X56152048Y-99539003D01*
X56311200Y-99789787D01*
X56318823Y-99803653D01*
X56445292Y-100072415D01*
X56451117Y-100087126D01*
X56542909Y-100369632D01*
X56546839Y-100384938D01*
X56594125Y-100632819D01*
X56602499Y-100676716D01*
X56604482Y-100692415D01*
X56623132Y-100988859D01*
X56623132Y-101004681D01*
X56604482Y-101301125D01*
X56602500Y-101316820D01*
X56546839Y-101608602D01*
X56542909Y-101623908D01*
X56508302Y-101730418D01*
X56451117Y-101906414D01*
X56445292Y-101921125D01*
X56318823Y-102189887D01*
X56311200Y-102203753D01*
X56152048Y-102454537D01*
X56142748Y-102467338D01*
X55953405Y-102696214D01*
X55942573Y-102707749D01*
X55726050Y-102911078D01*
X55713858Y-102921164D01*
X55473558Y-103095751D01*
X55460198Y-103104229D01*
X55199903Y-103247329D01*
X55185591Y-103254064D01*
X54999387Y-103327787D01*
X54909413Y-103363410D01*
X54894365Y-103368299D01*
X54809900Y-103389986D01*
X54606663Y-103442169D01*
X54591132Y-103445132D01*
X54321185Y-103479234D01*
X54296441Y-103482360D01*
X54280649Y-103483354D01*
X53983611Y-103483354D01*
X53967819Y-103482360D01*
X53943075Y-103479234D01*
X53673128Y-103445132D01*
X53657597Y-103442169D01*
X53454360Y-103389986D01*
X53369895Y-103368299D01*
X53354847Y-103363410D01*
X53264873Y-103327787D01*
X53078669Y-103254064D01*
X53064357Y-103247329D01*
X52804062Y-103104229D01*
X52790702Y-103095751D01*
X52550402Y-102921164D01*
X52538210Y-102911078D01*
X52321687Y-102707749D01*
X52310855Y-102696214D01*
X52121512Y-102467338D01*
X52112212Y-102454537D01*
X51953060Y-102203753D01*
X51945437Y-102189887D01*
X51818968Y-101921125D01*
X51813143Y-101906414D01*
X51755958Y-101730418D01*
X51721351Y-101623908D01*
X51717421Y-101608602D01*
X51661760Y-101316820D01*
X51659778Y-101301125D01*
X51641128Y-101004681D01*
X51641128Y-100988859D01*
X51659778Y-100692415D01*
X51661761Y-100676716D01*
X51670135Y-100632819D01*
X51717421Y-100384938D01*
X51721351Y-100369632D01*
X51813143Y-100087126D01*
X51818968Y-100072415D01*
X51945437Y-99803653D01*
X51953060Y-99789787D01*
X52112212Y-99539003D01*
X52121512Y-99526202D01*
X52310855Y-99297326D01*
X52321687Y-99285791D01*
X52538210Y-99082462D01*
X52550402Y-99072376D01*
X52790702Y-98897789D01*
X52804062Y-98889311D01*
X53064357Y-98746211D01*
X53078669Y-98739476D01*
X53264873Y-98665753D01*
X53354847Y-98630130D01*
X53369895Y-98625241D01*
X53454360Y-98603554D01*
X53657597Y-98551371D01*
X53673128Y-98548408D01*
X53967818Y-98511180D01*
X53983611Y-98510186D01*
X54280649Y-98510186D01*
X54296442Y-98511180D01*
G37*
%TD.AperFunction*%
%TA.AperFunction,NonConductor*%
G36*
X69696442Y-109111180D02*
G01*
X69991132Y-109148408D01*
X70006663Y-109151371D01*
X70209900Y-109203554D01*
X70294365Y-109225241D01*
X70309413Y-109230130D01*
X70399387Y-109265753D01*
X70585591Y-109339476D01*
X70599903Y-109346211D01*
X70860198Y-109489311D01*
X70873558Y-109497789D01*
X71113858Y-109672376D01*
X71126050Y-109682462D01*
X71342573Y-109885791D01*
X71353405Y-109897326D01*
X71542748Y-110126202D01*
X71552048Y-110139003D01*
X71711200Y-110389787D01*
X71718823Y-110403653D01*
X71845292Y-110672415D01*
X71851117Y-110687126D01*
X71942909Y-110969632D01*
X71946839Y-110984938D01*
X71994125Y-111232819D01*
X72002499Y-111276716D01*
X72004482Y-111292415D01*
X72023132Y-111588859D01*
X72023132Y-111604681D01*
X72004482Y-111901125D01*
X72002500Y-111916820D01*
X71946839Y-112208602D01*
X71942909Y-112223908D01*
X71908302Y-112330418D01*
X71851117Y-112506414D01*
X71845292Y-112521125D01*
X71718823Y-112789887D01*
X71711200Y-112803753D01*
X71552048Y-113054537D01*
X71542748Y-113067338D01*
X71353405Y-113296214D01*
X71342576Y-113307746D01*
X71240912Y-113403215D01*
X71126050Y-113511078D01*
X71113858Y-113521164D01*
X70873558Y-113695751D01*
X70860198Y-113704229D01*
X70599903Y-113847329D01*
X70585591Y-113854064D01*
X70399387Y-113927787D01*
X70309413Y-113963410D01*
X70294365Y-113968299D01*
X70209900Y-113989986D01*
X70006663Y-114042169D01*
X69991132Y-114045132D01*
X69721185Y-114079234D01*
X69696441Y-114082360D01*
X69680649Y-114083354D01*
X69383611Y-114083354D01*
X69367819Y-114082360D01*
X69343075Y-114079234D01*
X69073128Y-114045132D01*
X69057597Y-114042169D01*
X68854360Y-113989986D01*
X68769895Y-113968299D01*
X68754847Y-113963410D01*
X68664873Y-113927787D01*
X68478669Y-113854064D01*
X68464357Y-113847329D01*
X68204062Y-113704229D01*
X68190702Y-113695751D01*
X67950402Y-113521164D01*
X67938210Y-113511078D01*
X67823348Y-113403215D01*
X67721684Y-113307746D01*
X67710855Y-113296214D01*
X67521512Y-113067338D01*
X67512212Y-113054537D01*
X67353060Y-112803753D01*
X67345437Y-112789887D01*
X67218968Y-112521125D01*
X67213143Y-112506414D01*
X67155958Y-112330418D01*
X67121351Y-112223908D01*
X67117421Y-112208602D01*
X67061760Y-111916820D01*
X67059778Y-111901125D01*
X67041128Y-111604681D01*
X67041128Y-111588859D01*
X67059778Y-111292415D01*
X67061761Y-111276716D01*
X67070135Y-111232819D01*
X67117421Y-110984938D01*
X67121351Y-110969632D01*
X67213143Y-110687126D01*
X67218968Y-110672415D01*
X67345437Y-110403653D01*
X67353060Y-110389787D01*
X67512212Y-110139003D01*
X67521512Y-110126202D01*
X67710855Y-109897326D01*
X67721687Y-109885791D01*
X67938210Y-109682462D01*
X67950402Y-109672376D01*
X68190702Y-109497789D01*
X68204062Y-109489311D01*
X68464357Y-109346211D01*
X68478669Y-109339476D01*
X68664873Y-109265753D01*
X68754847Y-109230130D01*
X68769895Y-109225241D01*
X68854360Y-109203554D01*
X69057597Y-109151371D01*
X69073128Y-109148408D01*
X69367818Y-109111180D01*
X69383611Y-109110186D01*
X69680649Y-109110186D01*
X69696442Y-109111180D01*
G37*
%TD.AperFunction*%
%TA.AperFunction,NonConductor*%
G36*
X54296442Y-109111180D02*
G01*
X54591132Y-109148408D01*
X54606663Y-109151371D01*
X54809900Y-109203554D01*
X54894365Y-109225241D01*
X54909413Y-109230130D01*
X54999387Y-109265753D01*
X55185591Y-109339476D01*
X55199903Y-109346211D01*
X55460198Y-109489311D01*
X55473558Y-109497789D01*
X55713858Y-109672376D01*
X55726050Y-109682462D01*
X55942573Y-109885791D01*
X55953405Y-109897326D01*
X56142748Y-110126202D01*
X56152048Y-110139003D01*
X56311200Y-110389787D01*
X56318823Y-110403653D01*
X56445292Y-110672415D01*
X56451117Y-110687126D01*
X56542909Y-110969632D01*
X56546839Y-110984938D01*
X56594125Y-111232819D01*
X56602499Y-111276716D01*
X56604482Y-111292415D01*
X56623132Y-111588859D01*
X56623132Y-111604681D01*
X56604482Y-111901125D01*
X56602500Y-111916820D01*
X56546839Y-112208602D01*
X56542909Y-112223908D01*
X56508302Y-112330418D01*
X56451117Y-112506414D01*
X56445292Y-112521125D01*
X56318823Y-112789887D01*
X56311200Y-112803753D01*
X56152048Y-113054537D01*
X56142748Y-113067338D01*
X55953405Y-113296214D01*
X55942576Y-113307746D01*
X55840912Y-113403215D01*
X55726050Y-113511078D01*
X55713858Y-113521164D01*
X55473558Y-113695751D01*
X55460198Y-113704229D01*
X55199903Y-113847329D01*
X55185591Y-113854064D01*
X54999387Y-113927787D01*
X54909413Y-113963410D01*
X54894365Y-113968299D01*
X54809900Y-113989986D01*
X54606663Y-114042169D01*
X54591132Y-114045132D01*
X54321185Y-114079234D01*
X54296441Y-114082360D01*
X54280649Y-114083354D01*
X53983611Y-114083354D01*
X53967819Y-114082360D01*
X53943075Y-114079234D01*
X53673128Y-114045132D01*
X53657597Y-114042169D01*
X53454360Y-113989986D01*
X53369895Y-113968299D01*
X53354847Y-113963410D01*
X53264873Y-113927787D01*
X53078669Y-113854064D01*
X53064357Y-113847329D01*
X52804062Y-113704229D01*
X52790702Y-113695751D01*
X52550402Y-113521164D01*
X52538210Y-113511078D01*
X52423348Y-113403215D01*
X52321684Y-113307746D01*
X52310855Y-113296214D01*
X52121512Y-113067338D01*
X52112212Y-113054537D01*
X51953060Y-112803753D01*
X51945437Y-112789887D01*
X51818968Y-112521125D01*
X51813143Y-112506414D01*
X51755958Y-112330418D01*
X51721351Y-112223908D01*
X51717421Y-112208602D01*
X51661760Y-111916820D01*
X51659778Y-111901125D01*
X51641128Y-111604681D01*
X51641128Y-111588859D01*
X51659778Y-111292415D01*
X51661761Y-111276716D01*
X51670135Y-111232819D01*
X51717421Y-110984938D01*
X51721351Y-110969632D01*
X51813143Y-110687126D01*
X51818968Y-110672415D01*
X51945437Y-110403653D01*
X51953060Y-110389787D01*
X52112212Y-110139003D01*
X52121512Y-110126202D01*
X52310855Y-109897326D01*
X52321687Y-109885791D01*
X52538210Y-109682462D01*
X52550402Y-109672376D01*
X52790702Y-109497789D01*
X52804062Y-109489311D01*
X53064357Y-109346211D01*
X53078669Y-109339476D01*
X53264873Y-109265753D01*
X53354847Y-109230130D01*
X53369895Y-109225241D01*
X53454360Y-109203554D01*
X53657597Y-109151371D01*
X53673128Y-109148408D01*
X53967818Y-109111180D01*
X53983611Y-109110186D01*
X54280649Y-109110186D01*
X54296442Y-109111180D01*
G37*
%TD.AperFunction*%
%TA.AperFunction,NonConductor*%
G36*
X37696442Y-114411180D02*
G01*
X37991132Y-114448408D01*
X38006663Y-114451371D01*
X38209900Y-114503554D01*
X38294365Y-114525241D01*
X38309413Y-114530130D01*
X38399387Y-114565753D01*
X38585591Y-114639476D01*
X38599903Y-114646211D01*
X38860198Y-114789311D01*
X38873558Y-114797789D01*
X39113858Y-114972376D01*
X39126050Y-114982462D01*
X39241460Y-115090839D01*
X39342573Y-115185791D01*
X39353405Y-115197326D01*
X39542748Y-115426202D01*
X39552048Y-115439003D01*
X39711200Y-115689787D01*
X39718823Y-115703653D01*
X39845292Y-115972415D01*
X39851117Y-115987126D01*
X39942909Y-116269632D01*
X39946839Y-116284938D01*
X39994125Y-116532819D01*
X40002499Y-116576716D01*
X40004482Y-116592415D01*
X40023132Y-116888859D01*
X40023132Y-116904681D01*
X40004482Y-117201125D01*
X40002500Y-117216820D01*
X39946839Y-117508602D01*
X39942909Y-117523908D01*
X39908302Y-117630418D01*
X39851117Y-117806414D01*
X39845292Y-117821125D01*
X39718823Y-118089887D01*
X39711200Y-118103753D01*
X39552048Y-118354537D01*
X39542748Y-118367338D01*
X39353405Y-118596214D01*
X39342573Y-118607749D01*
X39126050Y-118811078D01*
X39113858Y-118821164D01*
X38873558Y-118995751D01*
X38860198Y-119004229D01*
X38599903Y-119147329D01*
X38585591Y-119154064D01*
X38399387Y-119227787D01*
X38309413Y-119263410D01*
X38294365Y-119268299D01*
X38209900Y-119289986D01*
X38006663Y-119342169D01*
X37991132Y-119345132D01*
X37721185Y-119379234D01*
X37696441Y-119382360D01*
X37680649Y-119383354D01*
X37383611Y-119383354D01*
X37367819Y-119382360D01*
X37343075Y-119379234D01*
X37073128Y-119345132D01*
X37057597Y-119342169D01*
X36854360Y-119289986D01*
X36769895Y-119268299D01*
X36754847Y-119263410D01*
X36664873Y-119227787D01*
X36478669Y-119154064D01*
X36464357Y-119147329D01*
X36204062Y-119004229D01*
X36190702Y-118995751D01*
X35950402Y-118821164D01*
X35938210Y-118811078D01*
X35721687Y-118607749D01*
X35710855Y-118596214D01*
X35521512Y-118367338D01*
X35512212Y-118354537D01*
X35353060Y-118103753D01*
X35345437Y-118089887D01*
X35218968Y-117821125D01*
X35213143Y-117806414D01*
X35155958Y-117630418D01*
X35121351Y-117523908D01*
X35117421Y-117508602D01*
X35061760Y-117216820D01*
X35059778Y-117201125D01*
X35041128Y-116904681D01*
X35041128Y-116888859D01*
X35059778Y-116592415D01*
X35061761Y-116576716D01*
X35070135Y-116532819D01*
X35117421Y-116284938D01*
X35121351Y-116269632D01*
X35213143Y-115987126D01*
X35218968Y-115972415D01*
X35345437Y-115703653D01*
X35353060Y-115689787D01*
X35512212Y-115439003D01*
X35521512Y-115426202D01*
X35710855Y-115197326D01*
X35721687Y-115185791D01*
X35822801Y-115090839D01*
X35938210Y-114982462D01*
X35950402Y-114972376D01*
X36190702Y-114797789D01*
X36204062Y-114789311D01*
X36464357Y-114646211D01*
X36478669Y-114639476D01*
X36664873Y-114565753D01*
X36754847Y-114530130D01*
X36769895Y-114525241D01*
X36854360Y-114503554D01*
X37057597Y-114451371D01*
X37073128Y-114448408D01*
X37367818Y-114411180D01*
X37383611Y-114410186D01*
X37680649Y-114410186D01*
X37696442Y-114411180D01*
G37*
%TD.AperFunction*%
%TA.AperFunction,NonConductor*%
G36*
X54296442Y-119961180D02*
G01*
X54591132Y-119998408D01*
X54606663Y-120001371D01*
X54809900Y-120053554D01*
X54894365Y-120075241D01*
X54909413Y-120080130D01*
X54971837Y-120104845D01*
X55185591Y-120189476D01*
X55199903Y-120196211D01*
X55460198Y-120339311D01*
X55473558Y-120347789D01*
X55713858Y-120522376D01*
X55726050Y-120532462D01*
X55942573Y-120735791D01*
X55953405Y-120747326D01*
X56142748Y-120976202D01*
X56152048Y-120989003D01*
X56311200Y-121239787D01*
X56318823Y-121253653D01*
X56445292Y-121522415D01*
X56451117Y-121537126D01*
X56542909Y-121819632D01*
X56546839Y-121834938D01*
X56594125Y-122082819D01*
X56602499Y-122126716D01*
X56604482Y-122142415D01*
X56623132Y-122438859D01*
X56623132Y-122454681D01*
X56604482Y-122751125D01*
X56602500Y-122766820D01*
X56546839Y-123058602D01*
X56542909Y-123073908D01*
X56508302Y-123180418D01*
X56451117Y-123356414D01*
X56445292Y-123371125D01*
X56318823Y-123639887D01*
X56311200Y-123653753D01*
X56152048Y-123904537D01*
X56142748Y-123917338D01*
X55953405Y-124146214D01*
X55942573Y-124157749D01*
X55726050Y-124361078D01*
X55713858Y-124371164D01*
X55473558Y-124545751D01*
X55460198Y-124554229D01*
X55199903Y-124697329D01*
X55185591Y-124704064D01*
X54999387Y-124777787D01*
X54909413Y-124813410D01*
X54894365Y-124818299D01*
X54809900Y-124839986D01*
X54606663Y-124892169D01*
X54591132Y-124895132D01*
X54321185Y-124929234D01*
X54296441Y-124932360D01*
X54280649Y-124933354D01*
X53983611Y-124933354D01*
X53967819Y-124932360D01*
X53943075Y-124929234D01*
X53673128Y-124895132D01*
X53657597Y-124892169D01*
X53454360Y-124839986D01*
X53369895Y-124818299D01*
X53354847Y-124813410D01*
X53264873Y-124777787D01*
X53078669Y-124704064D01*
X53064357Y-124697329D01*
X52804062Y-124554229D01*
X52790702Y-124545751D01*
X52550402Y-124371164D01*
X52538210Y-124361078D01*
X52321687Y-124157749D01*
X52310855Y-124146214D01*
X52121512Y-123917338D01*
X52112212Y-123904537D01*
X51953060Y-123653753D01*
X51945437Y-123639887D01*
X51818968Y-123371125D01*
X51813143Y-123356414D01*
X51755958Y-123180418D01*
X51721351Y-123073908D01*
X51717421Y-123058602D01*
X51661760Y-122766820D01*
X51659778Y-122751125D01*
X51641128Y-122454681D01*
X51641128Y-122438859D01*
X51659778Y-122142415D01*
X51661761Y-122126716D01*
X51670135Y-122082819D01*
X51717421Y-121834938D01*
X51721351Y-121819632D01*
X51813143Y-121537126D01*
X51818968Y-121522415D01*
X51945437Y-121253653D01*
X51953060Y-121239787D01*
X52112212Y-120989003D01*
X52121512Y-120976202D01*
X52310855Y-120747326D01*
X52321687Y-120735791D01*
X52538210Y-120532462D01*
X52550402Y-120522376D01*
X52790702Y-120347789D01*
X52804062Y-120339311D01*
X53064357Y-120196211D01*
X53078669Y-120189476D01*
X53292423Y-120104845D01*
X53354847Y-120080130D01*
X53369895Y-120075241D01*
X53454360Y-120053554D01*
X53657597Y-120001371D01*
X53673128Y-119998408D01*
X53967818Y-119961180D01*
X53983611Y-119960186D01*
X54280649Y-119960186D01*
X54296442Y-119961180D01*
G37*
%TD.AperFunction*%
%TA.AperFunction,NonConductor*%
G36*
X69696442Y-119961180D02*
G01*
X69991132Y-119998408D01*
X70006663Y-120001371D01*
X70209900Y-120053554D01*
X70294365Y-120075241D01*
X70309413Y-120080130D01*
X70371837Y-120104845D01*
X70585591Y-120189476D01*
X70599903Y-120196211D01*
X70860198Y-120339311D01*
X70873558Y-120347789D01*
X71113858Y-120522376D01*
X71126050Y-120532462D01*
X71342573Y-120735791D01*
X71353405Y-120747326D01*
X71542748Y-120976202D01*
X71552048Y-120989003D01*
X71711200Y-121239787D01*
X71718823Y-121253653D01*
X71845292Y-121522415D01*
X71851117Y-121537126D01*
X71942909Y-121819632D01*
X71946839Y-121834938D01*
X71994125Y-122082819D01*
X72002499Y-122126716D01*
X72004482Y-122142415D01*
X72023132Y-122438859D01*
X72023132Y-122454681D01*
X72004482Y-122751125D01*
X72002500Y-122766820D01*
X71946839Y-123058602D01*
X71942909Y-123073908D01*
X71908302Y-123180418D01*
X71851117Y-123356414D01*
X71845292Y-123371125D01*
X71718823Y-123639887D01*
X71711200Y-123653753D01*
X71552048Y-123904537D01*
X71542748Y-123917338D01*
X71353405Y-124146214D01*
X71342573Y-124157749D01*
X71126050Y-124361078D01*
X71113858Y-124371164D01*
X70873558Y-124545751D01*
X70860198Y-124554229D01*
X70599903Y-124697329D01*
X70585591Y-124704064D01*
X70399387Y-124777787D01*
X70309413Y-124813410D01*
X70294365Y-124818299D01*
X70209900Y-124839986D01*
X70006663Y-124892169D01*
X69991132Y-124895132D01*
X69721185Y-124929234D01*
X69696441Y-124932360D01*
X69680649Y-124933354D01*
X69383611Y-124933354D01*
X69367819Y-124932360D01*
X69343075Y-124929234D01*
X69073128Y-124895132D01*
X69057597Y-124892169D01*
X68854360Y-124839986D01*
X68769895Y-124818299D01*
X68754847Y-124813410D01*
X68664873Y-124777787D01*
X68478669Y-124704064D01*
X68464357Y-124697329D01*
X68204062Y-124554229D01*
X68190702Y-124545751D01*
X67950402Y-124371164D01*
X67938210Y-124361078D01*
X67721687Y-124157749D01*
X67710855Y-124146214D01*
X67521512Y-123917338D01*
X67512212Y-123904537D01*
X67353060Y-123653753D01*
X67345437Y-123639887D01*
X67218968Y-123371125D01*
X67213143Y-123356414D01*
X67155958Y-123180418D01*
X67121351Y-123073908D01*
X67117421Y-123058602D01*
X67061760Y-122766820D01*
X67059778Y-122751125D01*
X67041128Y-122454681D01*
X67041128Y-122438859D01*
X67059778Y-122142415D01*
X67061761Y-122126716D01*
X67070135Y-122082819D01*
X67117421Y-121834938D01*
X67121351Y-121819632D01*
X67213143Y-121537126D01*
X67218968Y-121522415D01*
X67345437Y-121253653D01*
X67353060Y-121239787D01*
X67512212Y-120989003D01*
X67521512Y-120976202D01*
X67710855Y-120747326D01*
X67721687Y-120735791D01*
X67938210Y-120532462D01*
X67950402Y-120522376D01*
X68190702Y-120347789D01*
X68204062Y-120339311D01*
X68464357Y-120196211D01*
X68478669Y-120189476D01*
X68692423Y-120104845D01*
X68754847Y-120080130D01*
X68769895Y-120075241D01*
X68854360Y-120053554D01*
X69057597Y-120001371D01*
X69073128Y-119998408D01*
X69367818Y-119961180D01*
X69383611Y-119960186D01*
X69680649Y-119960186D01*
X69696442Y-119961180D01*
G37*
%TD.AperFunction*%
%TA.AperFunction,NonConductor*%
G36*
X37696442Y-129111180D02*
G01*
X37991132Y-129148408D01*
X38006663Y-129151371D01*
X38209900Y-129203554D01*
X38294365Y-129225241D01*
X38309413Y-129230130D01*
X38399387Y-129265753D01*
X38585591Y-129339476D01*
X38599903Y-129346211D01*
X38860198Y-129489311D01*
X38873558Y-129497789D01*
X39113858Y-129672376D01*
X39126050Y-129682462D01*
X39203731Y-129755409D01*
X39342573Y-129885791D01*
X39353405Y-129897326D01*
X39542748Y-130126202D01*
X39552048Y-130139002D01*
X39624162Y-130252636D01*
X39711200Y-130389787D01*
X39718823Y-130403653D01*
X39845292Y-130672415D01*
X39851117Y-130687126D01*
X39870215Y-130745903D01*
X39942909Y-130969632D01*
X39946839Y-130984938D01*
X39994125Y-131232819D01*
X40002499Y-131276716D01*
X40004482Y-131292412D01*
X40010698Y-131391221D01*
X40023132Y-131588859D01*
X40023132Y-131604681D01*
X40004482Y-131901125D01*
X40002500Y-131916820D01*
X39946839Y-132208602D01*
X39942909Y-132223908D01*
X39908302Y-132330418D01*
X39851117Y-132506414D01*
X39845292Y-132521125D01*
X39718823Y-132789887D01*
X39711200Y-132803753D01*
X39552048Y-133054537D01*
X39542748Y-133067338D01*
X39353405Y-133296214D01*
X39342573Y-133307749D01*
X39126050Y-133511078D01*
X39113858Y-133521164D01*
X38873558Y-133695751D01*
X38860198Y-133704229D01*
X38599903Y-133847329D01*
X38585591Y-133854064D01*
X38399387Y-133927787D01*
X38309413Y-133963410D01*
X38294365Y-133968299D01*
X38209900Y-133989986D01*
X38006663Y-134042169D01*
X37991132Y-134045132D01*
X37721185Y-134079234D01*
X37696441Y-134082360D01*
X37680649Y-134083354D01*
X37383611Y-134083354D01*
X37367819Y-134082360D01*
X37343075Y-134079234D01*
X37073128Y-134045132D01*
X37057597Y-134042169D01*
X36854360Y-133989986D01*
X36769895Y-133968299D01*
X36754847Y-133963410D01*
X36664873Y-133927787D01*
X36478669Y-133854064D01*
X36464357Y-133847329D01*
X36204062Y-133704229D01*
X36190702Y-133695751D01*
X35950402Y-133521164D01*
X35938210Y-133511078D01*
X35721687Y-133307749D01*
X35710855Y-133296214D01*
X35521512Y-133067338D01*
X35512212Y-133054537D01*
X35353060Y-132803753D01*
X35345437Y-132789887D01*
X35218968Y-132521125D01*
X35213143Y-132506414D01*
X35155958Y-132330418D01*
X35121351Y-132223908D01*
X35117421Y-132208602D01*
X35061760Y-131916820D01*
X35059778Y-131901125D01*
X35041128Y-131604681D01*
X35041128Y-131588859D01*
X35053562Y-131391221D01*
X35059778Y-131292412D01*
X35061761Y-131276716D01*
X35070135Y-131232819D01*
X35117421Y-130984938D01*
X35121351Y-130969632D01*
X35194045Y-130745903D01*
X35213143Y-130687126D01*
X35218968Y-130672415D01*
X35345437Y-130403653D01*
X35353060Y-130389787D01*
X35440099Y-130252636D01*
X35512212Y-130139002D01*
X35521512Y-130126202D01*
X35710855Y-129897326D01*
X35721687Y-129885791D01*
X35860530Y-129755409D01*
X35938210Y-129682462D01*
X35950402Y-129672376D01*
X36190702Y-129497789D01*
X36204062Y-129489311D01*
X36464357Y-129346211D01*
X36478669Y-129339476D01*
X36664873Y-129265753D01*
X36754847Y-129230130D01*
X36769895Y-129225241D01*
X36854360Y-129203554D01*
X37057597Y-129151371D01*
X37073128Y-129148408D01*
X37367818Y-129111180D01*
X37383611Y-129110186D01*
X37680649Y-129110186D01*
X37696442Y-129111180D01*
G37*
%TD.AperFunction*%
%TA.AperFunction,NonConductor*%
G36*
X54296442Y-130611180D02*
G01*
X54591132Y-130648408D01*
X54606663Y-130651371D01*
X54716561Y-130679588D01*
X54894365Y-130725241D01*
X54909413Y-130730130D01*
X54999387Y-130765753D01*
X55185591Y-130839476D01*
X55199903Y-130846211D01*
X55460198Y-130989311D01*
X55473558Y-130997789D01*
X55713858Y-131172376D01*
X55726050Y-131182462D01*
X55942573Y-131385791D01*
X55953405Y-131397326D01*
X56142748Y-131626202D01*
X56152048Y-131639003D01*
X56311200Y-131889787D01*
X56318823Y-131903653D01*
X56445292Y-132172415D01*
X56451117Y-132187126D01*
X56460623Y-132216381D01*
X56542909Y-132469632D01*
X56546839Y-132484938D01*
X56594125Y-132732819D01*
X56602499Y-132776716D01*
X56604482Y-132792415D01*
X56623132Y-133088859D01*
X56623132Y-133104681D01*
X56607309Y-133356196D01*
X56604482Y-133401125D01*
X56602500Y-133416820D01*
X56546839Y-133708602D01*
X56542909Y-133723908D01*
X56501567Y-133851147D01*
X56451117Y-134006414D01*
X56445292Y-134021125D01*
X56318823Y-134289887D01*
X56311201Y-134303751D01*
X56172266Y-134522679D01*
X56152048Y-134554537D01*
X56142748Y-134567338D01*
X55953405Y-134796214D01*
X55942576Y-134807746D01*
X55802820Y-134938986D01*
X55726050Y-135011078D01*
X55713858Y-135021164D01*
X55473558Y-135195751D01*
X55460198Y-135204229D01*
X55199903Y-135347329D01*
X55185591Y-135354064D01*
X54999387Y-135427787D01*
X54909413Y-135463410D01*
X54894365Y-135468299D01*
X54809900Y-135489986D01*
X54606663Y-135542169D01*
X54591132Y-135545132D01*
X54321185Y-135579234D01*
X54296441Y-135582360D01*
X54280649Y-135583354D01*
X53983611Y-135583354D01*
X53967819Y-135582360D01*
X53943075Y-135579234D01*
X53673128Y-135545132D01*
X53657597Y-135542169D01*
X53454360Y-135489986D01*
X53369895Y-135468299D01*
X53354847Y-135463410D01*
X53264873Y-135427787D01*
X53078669Y-135354064D01*
X53064357Y-135347329D01*
X52804062Y-135204229D01*
X52790702Y-135195751D01*
X52550402Y-135021164D01*
X52538210Y-135011078D01*
X52461440Y-134938986D01*
X52321684Y-134807746D01*
X52310855Y-134796214D01*
X52121512Y-134567338D01*
X52112212Y-134554537D01*
X52091994Y-134522679D01*
X51953059Y-134303751D01*
X51945437Y-134289887D01*
X51818968Y-134021125D01*
X51813143Y-134006414D01*
X51762693Y-133851147D01*
X51721351Y-133723908D01*
X51717421Y-133708602D01*
X51661760Y-133416820D01*
X51659778Y-133401125D01*
X51656952Y-133356196D01*
X51641128Y-133104681D01*
X51641128Y-133088859D01*
X51659778Y-132792415D01*
X51661761Y-132776716D01*
X51670135Y-132732819D01*
X51717421Y-132484938D01*
X51721351Y-132469632D01*
X51803637Y-132216381D01*
X51813143Y-132187126D01*
X51818968Y-132172415D01*
X51945437Y-131903653D01*
X51953060Y-131889787D01*
X52112212Y-131639003D01*
X52121512Y-131626202D01*
X52310855Y-131397326D01*
X52321687Y-131385791D01*
X52538210Y-131182462D01*
X52550402Y-131172376D01*
X52790702Y-130997789D01*
X52804062Y-130989311D01*
X53064357Y-130846211D01*
X53078669Y-130839476D01*
X53264873Y-130765753D01*
X53354847Y-130730130D01*
X53369895Y-130725241D01*
X53547699Y-130679588D01*
X53657597Y-130651371D01*
X53673128Y-130648408D01*
X53967818Y-130611180D01*
X53983611Y-130610186D01*
X54280649Y-130610186D01*
X54296442Y-130611180D01*
G37*
%TD.AperFunction*%
%TA.AperFunction,NonConductor*%
G36*
X69696442Y-130611180D02*
G01*
X69991132Y-130648408D01*
X70006663Y-130651371D01*
X70116561Y-130679588D01*
X70294365Y-130725241D01*
X70309413Y-130730130D01*
X70399387Y-130765753D01*
X70585591Y-130839476D01*
X70599903Y-130846211D01*
X70860198Y-130989311D01*
X70873558Y-130997789D01*
X71113858Y-131172376D01*
X71126050Y-131182462D01*
X71342573Y-131385791D01*
X71353405Y-131397326D01*
X71542748Y-131626202D01*
X71552048Y-131639003D01*
X71711200Y-131889787D01*
X71718823Y-131903653D01*
X71845292Y-132172415D01*
X71851117Y-132187126D01*
X71860623Y-132216381D01*
X71942909Y-132469632D01*
X71946839Y-132484938D01*
X71994125Y-132732819D01*
X72002499Y-132776716D01*
X72004482Y-132792415D01*
X72023132Y-133088859D01*
X72023132Y-133104681D01*
X72007309Y-133356196D01*
X72004482Y-133401125D01*
X72002500Y-133416820D01*
X71946839Y-133708602D01*
X71942909Y-133723908D01*
X71901567Y-133851147D01*
X71851117Y-134006414D01*
X71845292Y-134021125D01*
X71718823Y-134289887D01*
X71711201Y-134303751D01*
X71572266Y-134522679D01*
X71552048Y-134554537D01*
X71542748Y-134567338D01*
X71353405Y-134796214D01*
X71342576Y-134807746D01*
X71202820Y-134938986D01*
X71126050Y-135011078D01*
X71113858Y-135021164D01*
X70873558Y-135195751D01*
X70860198Y-135204229D01*
X70599903Y-135347329D01*
X70585591Y-135354064D01*
X70399387Y-135427787D01*
X70309413Y-135463410D01*
X70294365Y-135468299D01*
X70209900Y-135489986D01*
X70006663Y-135542169D01*
X69991132Y-135545132D01*
X69721185Y-135579234D01*
X69696441Y-135582360D01*
X69680649Y-135583354D01*
X69383611Y-135583354D01*
X69367819Y-135582360D01*
X69343075Y-135579234D01*
X69073128Y-135545132D01*
X69057597Y-135542169D01*
X68854360Y-135489986D01*
X68769895Y-135468299D01*
X68754847Y-135463410D01*
X68664873Y-135427787D01*
X68478669Y-135354064D01*
X68464357Y-135347329D01*
X68204062Y-135204229D01*
X68190702Y-135195751D01*
X67950402Y-135021164D01*
X67938210Y-135011078D01*
X67861440Y-134938986D01*
X67721684Y-134807746D01*
X67710855Y-134796214D01*
X67521512Y-134567338D01*
X67512212Y-134554537D01*
X67491994Y-134522679D01*
X67353059Y-134303751D01*
X67345437Y-134289887D01*
X67218968Y-134021125D01*
X67213143Y-134006414D01*
X67162693Y-133851147D01*
X67121351Y-133723908D01*
X67117421Y-133708602D01*
X67061760Y-133416820D01*
X67059778Y-133401125D01*
X67056952Y-133356196D01*
X67041128Y-133104681D01*
X67041128Y-133088859D01*
X67059778Y-132792415D01*
X67061761Y-132776716D01*
X67070135Y-132732819D01*
X67117421Y-132484938D01*
X67121351Y-132469632D01*
X67203637Y-132216381D01*
X67213143Y-132187126D01*
X67218968Y-132172415D01*
X67345437Y-131903653D01*
X67353060Y-131889787D01*
X67512212Y-131639003D01*
X67521512Y-131626202D01*
X67710855Y-131397326D01*
X67721687Y-131385791D01*
X67938210Y-131182462D01*
X67950402Y-131172376D01*
X68190702Y-130997789D01*
X68204062Y-130989311D01*
X68464357Y-130846211D01*
X68478669Y-130839476D01*
X68664873Y-130765753D01*
X68754847Y-130730130D01*
X68769895Y-130725241D01*
X68947699Y-130679588D01*
X69057597Y-130651371D01*
X69073128Y-130648408D01*
X69367818Y-130611180D01*
X69383611Y-130610186D01*
X69680649Y-130610186D01*
X69696442Y-130611180D01*
G37*
%TD.AperFunction*%
%TA.AperFunction,NonConductor*%
G36*
X37051336Y-22525272D02*
G01*
X37097829Y-22578928D01*
X37107933Y-22649202D01*
X37078439Y-22713782D01*
X37018713Y-22752166D01*
X37009631Y-22754470D01*
X36979686Y-22760891D01*
X36789665Y-22801635D01*
X36563194Y-22884873D01*
X36350667Y-22999111D01*
X36156304Y-23142081D01*
X35983961Y-23310947D01*
X35837059Y-23502357D01*
X35718514Y-23712512D01*
X35716898Y-23716647D01*
X35644160Y-23902748D01*
X35639214Y-23913803D01*
X35633550Y-23924987D01*
X35633531Y-23925045D01*
X35633523Y-23925061D01*
X35629644Y-23936999D01*
X35628872Y-23941794D01*
X35628869Y-23941805D01*
X35627533Y-23950099D01*
X35624941Y-23962305D01*
X35589507Y-24096145D01*
X35552872Y-24234523D01*
X35500134Y-24537142D01*
X35473666Y-24843180D01*
X35473666Y-25150360D01*
X35500134Y-25456398D01*
X35552872Y-25759017D01*
X35560896Y-25789323D01*
X35621527Y-26018339D01*
X35624571Y-26033590D01*
X35625474Y-26040226D01*
X35625476Y-26040236D01*
X35626058Y-26044511D01*
X35626072Y-26044558D01*
X35626073Y-26044565D01*
X35627404Y-26049030D01*
X35627406Y-26049037D01*
X35627614Y-26049734D01*
X35627785Y-26050306D01*
X35629644Y-26056541D01*
X35629647Y-26056548D01*
X35629661Y-26056594D01*
X35630595Y-26058556D01*
X35631470Y-26060395D01*
X35631472Y-26060397D01*
X35631673Y-26060821D01*
X35631676Y-26060828D01*
X35634169Y-26066063D01*
X35637759Y-26074358D01*
X35644177Y-26090781D01*
X35701231Y-26236775D01*
X35718517Y-26281009D01*
X35837056Y-26491171D01*
X35839763Y-26494698D01*
X35839764Y-26494700D01*
X35839767Y-26494703D01*
X35983954Y-26682589D01*
X36156295Y-26851463D01*
X36350658Y-26994440D01*
X36563186Y-27108683D01*
X36567352Y-27110214D01*
X36567356Y-27110216D01*
X36676423Y-27150304D01*
X36789660Y-27191925D01*
X36951309Y-27226586D01*
X37021247Y-27241583D01*
X37021249Y-27241583D01*
X37025585Y-27242513D01*
X37030015Y-27242825D01*
X37030018Y-27242825D01*
X37096586Y-27247507D01*
X37229346Y-27256845D01*
X37241348Y-27258271D01*
X37253726Y-27260350D01*
X37260002Y-27260425D01*
X37261409Y-27260442D01*
X37261411Y-27260442D01*
X37266278Y-27260500D01*
X37271091Y-27259809D01*
X37271097Y-27259809D01*
X37293828Y-27256547D01*
X37311724Y-27255270D01*
X40744781Y-27255270D01*
X40765724Y-27257023D01*
X40780608Y-27259532D01*
X40780609Y-27259532D01*
X40785414Y-27260342D01*
X40790286Y-27260403D01*
X40790287Y-27260403D01*
X40791028Y-27260412D01*
X40797966Y-27260499D01*
X40808304Y-27259022D01*
X40817275Y-27258067D01*
X40911384Y-27251450D01*
X41038661Y-27242501D01*
X41042999Y-27241571D01*
X41043006Y-27241570D01*
X41174189Y-27213445D01*
X41274589Y-27191920D01*
X41501067Y-27108684D01*
X41713599Y-26994444D01*
X41717175Y-26991813D01*
X41717179Y-26991811D01*
X41904386Y-26854104D01*
X41907967Y-26851470D01*
X42080312Y-26682598D01*
X42227214Y-26491182D01*
X42345757Y-26281019D01*
X42363443Y-26235766D01*
X42388891Y-26170649D01*
X42420108Y-26090772D01*
X42425049Y-26079728D01*
X42430716Y-26068536D01*
X42430730Y-26068493D01*
X42430736Y-26068481D01*
X42434615Y-26056542D01*
X42435618Y-26050315D01*
X42436725Y-26043445D01*
X42439318Y-26031236D01*
X42510693Y-25761645D01*
X42510695Y-25761634D01*
X42511388Y-25759018D01*
X42564126Y-25456399D01*
X42590594Y-25150361D01*
X42590594Y-24843181D01*
X42564126Y-24537143D01*
X42511388Y-24234524D01*
X42477636Y-24107036D01*
X42442733Y-23975202D01*
X42439689Y-23959951D01*
X42438860Y-23953864D01*
X42438860Y-23953862D01*
X42438202Y-23949030D01*
X42436694Y-23943969D01*
X42436144Y-23942127D01*
X42434616Y-23937000D01*
X42434608Y-23936984D01*
X42434589Y-23936919D01*
X42430560Y-23928456D01*
X42426980Y-23920184D01*
X42347413Y-23716619D01*
X42345796Y-23712482D01*
X42227244Y-23502322D01*
X42080335Y-23310909D01*
X42077161Y-23307799D01*
X41911157Y-23145150D01*
X41911151Y-23145144D01*
X41907983Y-23142041D01*
X41904412Y-23139414D01*
X41904408Y-23139411D01*
X41779244Y-23047347D01*
X41713610Y-22999070D01*
X41709694Y-22996965D01*
X41504989Y-22886938D01*
X41504986Y-22886937D01*
X41501074Y-22884834D01*
X41274594Y-22801600D01*
X41054760Y-22754471D01*
X40992345Y-22720633D01*
X40958133Y-22658424D01*
X40962984Y-22587593D01*
X41005360Y-22530630D01*
X41071805Y-22505619D01*
X41081172Y-22505270D01*
X67983215Y-22505270D01*
X68051336Y-22525272D01*
X68097829Y-22578928D01*
X68107933Y-22649202D01*
X68078439Y-22713782D01*
X68018713Y-22752166D01*
X68009631Y-22754470D01*
X67979686Y-22760891D01*
X67789665Y-22801635D01*
X67563194Y-22884873D01*
X67350667Y-22999111D01*
X67156304Y-23142081D01*
X66983961Y-23310947D01*
X66837059Y-23502357D01*
X66718514Y-23712512D01*
X66716898Y-23716647D01*
X66644160Y-23902748D01*
X66639214Y-23913803D01*
X66633550Y-23924987D01*
X66633534Y-23925036D01*
X66633525Y-23925054D01*
X66629646Y-23936993D01*
X66628872Y-23941795D01*
X66628870Y-23941805D01*
X66627506Y-23950271D01*
X66624914Y-23962475D01*
X66615229Y-23999057D01*
X66552887Y-24234521D01*
X66500145Y-24537139D01*
X66499911Y-24539844D01*
X66499910Y-24539852D01*
X66481928Y-24747760D01*
X66473675Y-24843177D01*
X66473672Y-25150357D01*
X66500137Y-25456394D01*
X66552873Y-25759014D01*
X66621528Y-26018339D01*
X66624571Y-26033587D01*
X66626057Y-26044508D01*
X66626072Y-26044559D01*
X66626073Y-26044565D01*
X66627193Y-26048319D01*
X66627615Y-26049734D01*
X66627615Y-26049753D01*
X66627620Y-26049752D01*
X66629643Y-26056538D01*
X66629645Y-26056542D01*
X66629661Y-26056594D01*
X66631633Y-26060736D01*
X66631634Y-26060739D01*
X66634169Y-26066063D01*
X66637759Y-26074358D01*
X66644177Y-26090781D01*
X66701231Y-26236775D01*
X66718517Y-26281009D01*
X66837056Y-26491171D01*
X66839763Y-26494698D01*
X66839764Y-26494700D01*
X66839767Y-26494703D01*
X66983954Y-26682589D01*
X67156295Y-26851463D01*
X67350658Y-26994440D01*
X67563186Y-27108683D01*
X67567352Y-27110214D01*
X67567356Y-27110216D01*
X67676423Y-27150304D01*
X67789660Y-27191925D01*
X67951309Y-27226586D01*
X68021247Y-27241583D01*
X68021249Y-27241583D01*
X68025585Y-27242513D01*
X68030015Y-27242825D01*
X68030018Y-27242825D01*
X68096586Y-27247507D01*
X68229346Y-27256845D01*
X68241348Y-27258271D01*
X68253726Y-27260350D01*
X68260002Y-27260425D01*
X68261409Y-27260442D01*
X68261411Y-27260442D01*
X68266278Y-27260500D01*
X68271091Y-27259809D01*
X68271097Y-27259809D01*
X68293828Y-27256547D01*
X68311724Y-27255270D01*
X71744781Y-27255270D01*
X71765724Y-27257023D01*
X71780608Y-27259532D01*
X71780609Y-27259532D01*
X71785414Y-27260342D01*
X71790286Y-27260403D01*
X71790287Y-27260403D01*
X71791028Y-27260412D01*
X71797966Y-27260499D01*
X71808304Y-27259022D01*
X71817275Y-27258067D01*
X71911384Y-27251450D01*
X72038661Y-27242501D01*
X72042999Y-27241571D01*
X72043006Y-27241570D01*
X72174189Y-27213445D01*
X72274589Y-27191920D01*
X72501067Y-27108684D01*
X72713599Y-26994444D01*
X72717175Y-26991813D01*
X72717179Y-26991811D01*
X72904386Y-26854104D01*
X72907967Y-26851470D01*
X73080312Y-26682598D01*
X73227214Y-26491182D01*
X73345757Y-26281019D01*
X73363443Y-26235766D01*
X73388891Y-26170649D01*
X73420108Y-26090772D01*
X73425049Y-26079728D01*
X73430716Y-26068536D01*
X73430732Y-26068487D01*
X73430738Y-26068475D01*
X73434617Y-26056536D01*
X73435710Y-26049753D01*
X73436695Y-26043633D01*
X73439288Y-26031421D01*
X73510707Y-25761645D01*
X73511403Y-25759016D01*
X73554611Y-25511070D01*
X73563674Y-25459065D01*
X73563674Y-25459062D01*
X73564139Y-25456396D01*
X73564373Y-25453700D01*
X73590370Y-25153056D01*
X73590370Y-25153049D01*
X73590603Y-25150358D01*
X73590601Y-24843178D01*
X73590366Y-24840455D01*
X73574198Y-24653544D01*
X73564130Y-24537140D01*
X73555677Y-24488634D01*
X73518527Y-24275472D01*
X73511390Y-24234521D01*
X73503287Y-24203917D01*
X73442733Y-23975196D01*
X73439688Y-23959947D01*
X73438876Y-23953983D01*
X73438875Y-23953978D01*
X73438201Y-23949027D01*
X73438178Y-23948951D01*
X73438178Y-23948948D01*
X73437581Y-23946946D01*
X73436695Y-23943975D01*
X73436694Y-23943969D01*
X73435912Y-23941348D01*
X73434615Y-23936997D01*
X73434608Y-23936982D01*
X73434589Y-23936919D01*
X73430560Y-23928456D01*
X73426980Y-23920184D01*
X73347413Y-23716619D01*
X73345796Y-23712482D01*
X73227244Y-23502322D01*
X73080335Y-23310909D01*
X73077161Y-23307799D01*
X72911157Y-23145150D01*
X72911151Y-23145144D01*
X72907983Y-23142041D01*
X72904412Y-23139414D01*
X72904408Y-23139411D01*
X72779244Y-23047347D01*
X72713610Y-22999070D01*
X72709694Y-22996965D01*
X72504989Y-22886938D01*
X72504986Y-22886937D01*
X72501074Y-22884834D01*
X72274594Y-22801600D01*
X72054760Y-22754471D01*
X71992345Y-22720633D01*
X71958133Y-22658424D01*
X71962984Y-22587593D01*
X72005360Y-22530630D01*
X72071805Y-22505619D01*
X72081172Y-22505270D01*
X76777630Y-22505270D01*
X76845751Y-22525272D01*
X76892244Y-22578928D01*
X76903630Y-22631270D01*
X76903630Y-65717360D01*
X76883628Y-65785481D01*
X76829972Y-65831974D01*
X76759698Y-65842078D01*
X76695118Y-65812584D01*
X76658106Y-65757236D01*
X76587750Y-65546352D01*
X76539099Y-65400526D01*
X76537650Y-65397035D01*
X76414139Y-65099590D01*
X76335703Y-64910695D01*
X76097806Y-64436659D01*
X76055659Y-64365815D01*
X75827785Y-63982795D01*
X75826625Y-63980845D01*
X75523549Y-63545587D01*
X75285306Y-63250856D01*
X75191539Y-63134856D01*
X75191535Y-63134852D01*
X75190129Y-63133112D01*
X74828071Y-62745531D01*
X74439228Y-62384828D01*
X74025592Y-62052850D01*
X73589278Y-61751295D01*
X73587333Y-61750147D01*
X73587322Y-61750140D01*
X73134468Y-61482856D01*
X73134465Y-61482854D01*
X73132521Y-61481707D01*
X72657657Y-61245466D01*
X72655573Y-61244609D01*
X72169212Y-61044641D01*
X72169199Y-61044636D01*
X72167119Y-61043781D01*
X71663415Y-60877685D01*
X71192857Y-60759052D01*
X71151300Y-60748575D01*
X71151298Y-60748574D01*
X71149126Y-60748027D01*
X70859551Y-60696706D01*
X70629095Y-60655863D01*
X70629089Y-60655862D01*
X70626882Y-60655471D01*
X70624641Y-60655237D01*
X70624638Y-60655237D01*
X70508878Y-60643172D01*
X70099358Y-60600491D01*
X70097111Y-60600418D01*
X70097105Y-60600418D01*
X69851553Y-60592487D01*
X69569252Y-60583369D01*
X69567013Y-60583457D01*
X69567007Y-60583457D01*
X69242921Y-60596191D01*
X69039279Y-60604192D01*
X69037060Y-60604439D01*
X69037046Y-60604440D01*
X68514388Y-60662604D01*
X68514386Y-60662604D01*
X68512151Y-60662853D01*
X67990567Y-60759052D01*
X67988391Y-60759617D01*
X67988381Y-60759619D01*
X67565064Y-60869491D01*
X67477195Y-60892297D01*
X67475065Y-60893016D01*
X66976795Y-61061186D01*
X66976784Y-61061190D01*
X66974663Y-61061906D01*
X66972588Y-61062776D01*
X66972583Y-61062778D01*
X66534527Y-61246471D01*
X66485545Y-61267011D01*
X66483552Y-61268020D01*
X66483541Y-61268025D01*
X66063425Y-61480701D01*
X66012342Y-61506561D01*
X65557478Y-61779331D01*
X65555650Y-61780613D01*
X65555649Y-61780614D01*
X65551944Y-61783213D01*
X65123280Y-62083925D01*
X65121522Y-62085356D01*
X65121521Y-62085357D01*
X64713728Y-62417352D01*
X64713719Y-62417360D01*
X64711971Y-62418783D01*
X64710329Y-62420328D01*
X64327289Y-62780654D01*
X64327277Y-62780666D01*
X64325656Y-62782191D01*
X64324137Y-62783840D01*
X64324135Y-62783842D01*
X64095822Y-63031696D01*
X63966313Y-63172290D01*
X63964917Y-63174042D01*
X63637182Y-63585324D01*
X63637173Y-63585336D01*
X63635781Y-63587083D01*
X63522343Y-63752446D01*
X63365662Y-63980845D01*
X63335751Y-64024447D01*
X63334610Y-64026396D01*
X63334606Y-64026402D01*
X63135872Y-64365815D01*
X63067759Y-64482143D01*
X62833177Y-64957828D01*
X62832323Y-64959925D01*
X62832322Y-64959928D01*
X62654717Y-65396221D01*
X62610507Y-65451773D01*
X62543282Y-65474605D01*
X62474385Y-65457467D01*
X62425690Y-65405802D01*
X62421649Y-65397035D01*
X62413027Y-65376269D01*
X62219703Y-64910695D01*
X61981806Y-64436659D01*
X61939659Y-64365815D01*
X61711785Y-63982795D01*
X61710625Y-63980845D01*
X61407549Y-63545587D01*
X61169306Y-63250856D01*
X61075539Y-63134856D01*
X61075535Y-63134852D01*
X61074129Y-63133112D01*
X60712071Y-62745531D01*
X60323228Y-62384828D01*
X59909592Y-62052850D01*
X59473278Y-61751295D01*
X59471333Y-61750147D01*
X59471322Y-61750140D01*
X59018468Y-61482856D01*
X59018465Y-61482854D01*
X59016521Y-61481707D01*
X58541657Y-61245466D01*
X58539573Y-61244609D01*
X58053212Y-61044641D01*
X58053199Y-61044636D01*
X58051119Y-61043781D01*
X57547415Y-60877685D01*
X57076857Y-60759052D01*
X57035300Y-60748575D01*
X57035298Y-60748574D01*
X57033126Y-60748027D01*
X56743551Y-60696706D01*
X56513095Y-60655863D01*
X56513089Y-60655862D01*
X56510882Y-60655471D01*
X56508641Y-60655237D01*
X56508638Y-60655237D01*
X56392878Y-60643172D01*
X55983358Y-60600491D01*
X55981111Y-60600418D01*
X55981105Y-60600418D01*
X55735553Y-60592487D01*
X55453252Y-60583369D01*
X55451013Y-60583457D01*
X55451007Y-60583457D01*
X55126921Y-60596191D01*
X54923279Y-60604192D01*
X54921060Y-60604439D01*
X54921046Y-60604440D01*
X54398388Y-60662604D01*
X54398386Y-60662604D01*
X54396151Y-60662853D01*
X53874567Y-60759052D01*
X53872391Y-60759617D01*
X53872381Y-60759619D01*
X53449064Y-60869491D01*
X53361195Y-60892297D01*
X53359065Y-60893016D01*
X52860795Y-61061186D01*
X52860784Y-61061190D01*
X52858663Y-61061906D01*
X52856588Y-61062776D01*
X52856583Y-61062778D01*
X52418527Y-61246471D01*
X52369545Y-61267011D01*
X52367552Y-61268020D01*
X52367541Y-61268025D01*
X51947425Y-61480701D01*
X51896342Y-61506561D01*
X51441478Y-61779331D01*
X51439650Y-61780613D01*
X51439649Y-61780614D01*
X51435944Y-61783213D01*
X51007280Y-62083925D01*
X51005522Y-62085356D01*
X51005521Y-62085357D01*
X50597728Y-62417352D01*
X50597719Y-62417360D01*
X50595971Y-62418783D01*
X50594329Y-62420328D01*
X50211289Y-62780654D01*
X50211277Y-62780666D01*
X50209656Y-62782191D01*
X50208137Y-62783840D01*
X50208135Y-62783842D01*
X49979822Y-63031696D01*
X49850313Y-63172290D01*
X49848917Y-63174042D01*
X49521182Y-63585324D01*
X49521173Y-63585336D01*
X49519781Y-63587083D01*
X49406343Y-63752446D01*
X49249662Y-63980845D01*
X49219751Y-64024447D01*
X49218610Y-64026396D01*
X49218606Y-64026402D01*
X49019872Y-64365815D01*
X48951759Y-64482143D01*
X48717177Y-64957828D01*
X48716323Y-64959925D01*
X48716322Y-64959928D01*
X48622278Y-65190952D01*
X48517205Y-65449067D01*
X48484036Y-65550849D01*
X48375343Y-65884382D01*
X48352868Y-65953347D01*
X48225006Y-66468086D01*
X48134274Y-66990650D01*
X48134049Y-66992885D01*
X48134048Y-66992892D01*
X48086356Y-67466527D01*
X48081136Y-67518363D01*
X48081072Y-67520599D01*
X48081071Y-67520608D01*
X48078787Y-67599902D01*
X48067356Y-67996770D01*
X48065865Y-68048525D01*
X48088537Y-68578422D01*
X48088792Y-68580646D01*
X48088793Y-68580654D01*
X48114423Y-68803869D01*
X48149038Y-69105342D01*
X48149450Y-69107531D01*
X48149451Y-69107540D01*
X48226591Y-69517753D01*
X48247057Y-69626588D01*
X48247629Y-69628761D01*
X48247630Y-69628765D01*
X48310425Y-69867276D01*
X48382094Y-70139492D01*
X48553456Y-70641428D01*
X48554330Y-70643491D01*
X48554333Y-70643500D01*
X48675160Y-70928843D01*
X48760266Y-71129828D01*
X49001467Y-71602191D01*
X49002631Y-71604116D01*
X49002635Y-71604124D01*
X49261995Y-72033223D01*
X49275823Y-72056100D01*
X49581930Y-72489232D01*
X49583366Y-72490983D01*
X49583368Y-72490986D01*
X49656557Y-72580246D01*
X49918222Y-72899370D01*
X50282977Y-73284414D01*
X50674328Y-73642393D01*
X51090272Y-73971476D01*
X51092133Y-73972743D01*
X51092141Y-73972749D01*
X51526805Y-74268700D01*
X51528681Y-74269977D01*
X51530629Y-74271109D01*
X51530633Y-74271111D01*
X51697414Y-74367985D01*
X51987309Y-74536370D01*
X51989317Y-74537352D01*
X51989331Y-74537359D01*
X52333404Y-74705546D01*
X52463810Y-74769290D01*
X52955745Y-74967545D01*
X52957884Y-74968234D01*
X52957890Y-74968236D01*
X53131469Y-75024133D01*
X53460595Y-75130121D01*
X53462779Y-75130655D01*
X53462781Y-75130656D01*
X53973585Y-75255649D01*
X53973595Y-75255651D01*
X53975777Y-75256185D01*
X54498654Y-75345093D01*
X54500881Y-75345309D01*
X54500893Y-75345311D01*
X55024312Y-75396171D01*
X55024325Y-75396172D01*
X55026550Y-75396388D01*
X55028777Y-75396444D01*
X55028787Y-75396445D01*
X55449095Y-75407084D01*
X55556762Y-75409810D01*
X55559007Y-75409706D01*
X55559017Y-75409706D01*
X55851430Y-75396171D01*
X56086577Y-75385287D01*
X56088804Y-75385023D01*
X56088809Y-75385023D01*
X56424336Y-75345311D01*
X56613282Y-75322948D01*
X56615489Y-75322525D01*
X57131989Y-75223530D01*
X57132002Y-75223527D01*
X57134183Y-75223109D01*
X57136348Y-75222531D01*
X57644434Y-75086866D01*
X57644446Y-75086862D01*
X57646612Y-75086284D01*
X57648741Y-75085549D01*
X57648747Y-75085547D01*
X57849116Y-75016359D01*
X58147947Y-74913171D01*
X58325288Y-74837345D01*
X58633542Y-74705546D01*
X58633557Y-74705539D01*
X58635622Y-74704656D01*
X58960449Y-74537359D01*
X59105135Y-74462841D01*
X59105143Y-74462837D01*
X59107140Y-74461808D01*
X59356067Y-74310161D01*
X59558149Y-74187052D01*
X59558152Y-74187050D01*
X59560089Y-74185870D01*
X59561937Y-74184554D01*
X59561945Y-74184549D01*
X59990304Y-73879567D01*
X59990316Y-73879557D01*
X59992150Y-73878252D01*
X60221055Y-73689222D01*
X60399387Y-73541955D01*
X60399392Y-73541950D01*
X60401111Y-73540531D01*
X60499765Y-73446420D01*
X60783257Y-73175982D01*
X60783267Y-73175972D01*
X60784879Y-73174434D01*
X60959655Y-72982021D01*
X61139968Y-72783513D01*
X61139972Y-72783509D01*
X61141491Y-72781836D01*
X61201685Y-72705205D01*
X61467725Y-72366520D01*
X61467729Y-72366515D01*
X61469119Y-72364745D01*
X61470373Y-72362889D01*
X61470382Y-72362877D01*
X61764823Y-71927172D01*
X61764828Y-71927164D01*
X61766089Y-71925298D01*
X62030879Y-71465742D01*
X62262134Y-70988431D01*
X62282521Y-70937332D01*
X62419247Y-70594624D01*
X62463068Y-70538764D01*
X62530132Y-70515464D01*
X62599147Y-70532120D01*
X62648201Y-70583444D01*
X62655519Y-70600605D01*
X62669456Y-70641428D01*
X62670331Y-70643493D01*
X62670335Y-70643505D01*
X62791160Y-70928843D01*
X62876266Y-71129828D01*
X63117467Y-71602191D01*
X63118631Y-71604116D01*
X63118635Y-71604124D01*
X63377995Y-72033223D01*
X63391823Y-72056100D01*
X63697930Y-72489232D01*
X63699366Y-72490983D01*
X63699368Y-72490986D01*
X63772557Y-72580246D01*
X64034222Y-72899370D01*
X64398977Y-73284414D01*
X64790328Y-73642393D01*
X65206272Y-73971476D01*
X65208133Y-73972743D01*
X65208141Y-73972749D01*
X65642805Y-74268700D01*
X65644681Y-74269977D01*
X65646629Y-74271109D01*
X65646633Y-74271111D01*
X65813414Y-74367985D01*
X66103309Y-74536370D01*
X66105317Y-74537352D01*
X66105331Y-74537359D01*
X66449404Y-74705546D01*
X66579810Y-74769290D01*
X67071745Y-74967545D01*
X67073884Y-74968234D01*
X67073890Y-74968236D01*
X67247469Y-75024133D01*
X67576595Y-75130121D01*
X67578779Y-75130655D01*
X67578781Y-75130656D01*
X68089585Y-75255649D01*
X68089595Y-75255651D01*
X68091777Y-75256185D01*
X68614654Y-75345093D01*
X68616881Y-75345309D01*
X68616893Y-75345311D01*
X69140312Y-75396171D01*
X69140325Y-75396172D01*
X69142550Y-75396388D01*
X69144777Y-75396444D01*
X69144787Y-75396445D01*
X69565095Y-75407084D01*
X69672762Y-75409810D01*
X69675007Y-75409706D01*
X69675017Y-75409706D01*
X69967430Y-75396171D01*
X70202577Y-75385287D01*
X70204804Y-75385023D01*
X70204809Y-75385023D01*
X70540336Y-75345311D01*
X70729282Y-75322948D01*
X70731489Y-75322525D01*
X71247989Y-75223530D01*
X71248002Y-75223527D01*
X71250183Y-75223109D01*
X71252348Y-75222531D01*
X71760434Y-75086866D01*
X71760446Y-75086862D01*
X71762612Y-75086284D01*
X71764741Y-75085549D01*
X71764747Y-75085547D01*
X71965116Y-75016359D01*
X72263947Y-74913171D01*
X72441288Y-74837345D01*
X72749542Y-74705546D01*
X72749557Y-74705539D01*
X72751622Y-74704656D01*
X73076449Y-74537359D01*
X73221135Y-74462841D01*
X73221143Y-74462837D01*
X73223140Y-74461808D01*
X73472067Y-74310161D01*
X73674149Y-74187052D01*
X73674152Y-74187050D01*
X73676089Y-74185870D01*
X73677937Y-74184554D01*
X73677945Y-74184549D01*
X74106304Y-73879567D01*
X74106316Y-73879557D01*
X74108150Y-73878252D01*
X74337055Y-73689222D01*
X74515387Y-73541955D01*
X74515392Y-73541950D01*
X74517111Y-73540531D01*
X74615765Y-73446420D01*
X74899257Y-73175982D01*
X74899267Y-73175972D01*
X74900879Y-73174434D01*
X75075655Y-72982021D01*
X75255968Y-72783513D01*
X75255972Y-72783509D01*
X75257491Y-72781836D01*
X75317685Y-72705205D01*
X75583725Y-72366520D01*
X75583729Y-72366515D01*
X75585119Y-72364745D01*
X75586373Y-72362889D01*
X75586382Y-72362877D01*
X75880823Y-71927172D01*
X75880828Y-71927164D01*
X75882089Y-71925298D01*
X76146879Y-71465742D01*
X76378134Y-70988431D01*
X76398521Y-70937332D01*
X76573834Y-70497905D01*
X76574671Y-70495807D01*
X76575350Y-70493675D01*
X76575354Y-70493662D01*
X76657561Y-70235295D01*
X76697276Y-70176446D01*
X76762503Y-70148410D01*
X76832532Y-70160089D01*
X76885131Y-70207775D01*
X76903630Y-70273499D01*
X76903630Y-149762270D01*
X76883628Y-149830391D01*
X76829972Y-149876884D01*
X76777630Y-149888270D01*
X72081077Y-149888270D01*
X72012956Y-149868268D01*
X71966463Y-149814612D01*
X71956359Y-149744338D01*
X71985853Y-149679758D01*
X72045579Y-149641374D01*
X72054664Y-149639070D01*
X72274589Y-149591920D01*
X72501067Y-149508684D01*
X72713599Y-149394444D01*
X72717175Y-149391813D01*
X72717179Y-149391811D01*
X72904386Y-149254104D01*
X72907967Y-149251470D01*
X73080312Y-149082598D01*
X73227214Y-148891182D01*
X73345757Y-148681019D01*
X73363443Y-148635766D01*
X73388891Y-148570649D01*
X73420108Y-148490772D01*
X73425049Y-148479728D01*
X73430716Y-148468536D01*
X73430732Y-148468487D01*
X73430738Y-148468475D01*
X73434617Y-148456536D01*
X73435710Y-148449753D01*
X73436695Y-148443633D01*
X73439288Y-148431421D01*
X73510707Y-148161645D01*
X73511403Y-148159016D01*
X73554611Y-147911070D01*
X73563674Y-147859065D01*
X73563674Y-147859062D01*
X73564139Y-147856396D01*
X73564373Y-147853700D01*
X73590370Y-147553056D01*
X73590370Y-147553049D01*
X73590603Y-147550358D01*
X73590601Y-147243178D01*
X73590366Y-147240455D01*
X73574198Y-147053544D01*
X73564130Y-146937140D01*
X73555677Y-146888634D01*
X73518527Y-146675472D01*
X73511390Y-146634521D01*
X73503287Y-146603917D01*
X73442733Y-146375196D01*
X73439688Y-146359947D01*
X73438876Y-146353983D01*
X73438875Y-146353978D01*
X73438201Y-146349027D01*
X73438178Y-146348951D01*
X73438178Y-146348948D01*
X73437581Y-146346946D01*
X73436695Y-146343975D01*
X73436694Y-146343969D01*
X73435912Y-146341348D01*
X73434615Y-146336997D01*
X73434608Y-146336982D01*
X73434589Y-146336919D01*
X73430560Y-146328456D01*
X73426980Y-146320184D01*
X73347413Y-146116619D01*
X73345796Y-146112482D01*
X73227244Y-145902322D01*
X73080335Y-145710909D01*
X73077161Y-145707799D01*
X72911157Y-145545150D01*
X72911151Y-145545144D01*
X72907983Y-145542041D01*
X72904412Y-145539414D01*
X72904408Y-145539411D01*
X72779244Y-145447347D01*
X72713610Y-145399070D01*
X72709694Y-145396965D01*
X72504989Y-145286938D01*
X72504986Y-145286937D01*
X72501074Y-145284834D01*
X72274594Y-145201600D01*
X72038663Y-145151020D01*
X71834905Y-145136695D01*
X71822875Y-145135265D01*
X71815324Y-145133997D01*
X71810518Y-145133190D01*
X71805648Y-145133132D01*
X71805646Y-145133132D01*
X71804520Y-145133119D01*
X71797966Y-145133041D01*
X71793152Y-145133732D01*
X71793151Y-145133732D01*
X71770438Y-145136992D01*
X71752537Y-145138270D01*
X68319462Y-145138270D01*
X68298524Y-145136518D01*
X68286696Y-145134525D01*
X68278828Y-145133199D01*
X68273964Y-145133138D01*
X68273962Y-145133138D01*
X68272670Y-145133122D01*
X68266276Y-145133042D01*
X68261465Y-145133729D01*
X68261457Y-145133730D01*
X68255896Y-145134525D01*
X68246915Y-145135481D01*
X68109420Y-145145152D01*
X68030020Y-145150737D01*
X68030018Y-145150737D01*
X68025586Y-145151049D01*
X67789665Y-145201635D01*
X67563194Y-145284873D01*
X67350667Y-145399111D01*
X67156304Y-145542081D01*
X66983961Y-145710947D01*
X66837059Y-145902357D01*
X66718514Y-146112512D01*
X66716898Y-146116647D01*
X66644160Y-146302748D01*
X66639214Y-146313803D01*
X66633550Y-146324987D01*
X66633534Y-146325036D01*
X66633525Y-146325054D01*
X66629646Y-146336993D01*
X66628872Y-146341795D01*
X66628870Y-146341805D01*
X66627506Y-146350271D01*
X66624914Y-146362475D01*
X66615229Y-146399057D01*
X66552887Y-146634521D01*
X66500145Y-146937139D01*
X66499911Y-146939844D01*
X66499910Y-146939852D01*
X66481928Y-147147760D01*
X66473675Y-147243177D01*
X66473672Y-147550357D01*
X66500137Y-147856394D01*
X66552873Y-148159014D01*
X66621528Y-148418339D01*
X66624571Y-148433587D01*
X66626057Y-148444508D01*
X66626072Y-148444559D01*
X66626073Y-148444565D01*
X66627193Y-148448319D01*
X66627615Y-148449734D01*
X66627615Y-148449753D01*
X66627620Y-148449752D01*
X66629643Y-148456538D01*
X66629645Y-148456542D01*
X66629661Y-148456594D01*
X66631633Y-148460736D01*
X66631634Y-148460739D01*
X66634169Y-148466063D01*
X66637759Y-148474358D01*
X66644177Y-148490781D01*
X66701231Y-148636775D01*
X66718517Y-148681009D01*
X66837056Y-148891171D01*
X66839763Y-148894698D01*
X66839764Y-148894700D01*
X66839767Y-148894703D01*
X66983954Y-149082589D01*
X67156295Y-149251463D01*
X67350658Y-149394440D01*
X67563186Y-149508683D01*
X67567352Y-149510214D01*
X67567356Y-149510216D01*
X67676423Y-149550304D01*
X67789660Y-149591925D01*
X68005486Y-149638203D01*
X68009528Y-149639070D01*
X68071941Y-149672910D01*
X68106151Y-149735121D01*
X68101297Y-149805951D01*
X68058920Y-149862913D01*
X67992473Y-149887922D01*
X67983111Y-149888270D01*
X41081077Y-149888270D01*
X41012956Y-149868268D01*
X40966463Y-149814612D01*
X40956359Y-149744338D01*
X40985853Y-149679758D01*
X41045579Y-149641374D01*
X41054664Y-149639070D01*
X41274589Y-149591920D01*
X41501067Y-149508684D01*
X41713599Y-149394444D01*
X41717175Y-149391813D01*
X41717179Y-149391811D01*
X41904386Y-149254104D01*
X41907967Y-149251470D01*
X42080312Y-149082598D01*
X42227214Y-148891182D01*
X42345757Y-148681019D01*
X42363443Y-148635766D01*
X42388891Y-148570649D01*
X42420108Y-148490772D01*
X42425049Y-148479728D01*
X42430716Y-148468536D01*
X42430730Y-148468493D01*
X42430736Y-148468481D01*
X42434615Y-148456542D01*
X42435618Y-148450315D01*
X42436725Y-148443445D01*
X42439318Y-148431236D01*
X42510693Y-148161645D01*
X42510695Y-148161634D01*
X42511388Y-148159018D01*
X42564126Y-147856399D01*
X42590594Y-147550361D01*
X42590594Y-147243181D01*
X42564126Y-146937143D01*
X42511388Y-146634524D01*
X42477636Y-146507036D01*
X42442733Y-146375202D01*
X42439689Y-146359951D01*
X42438860Y-146353864D01*
X42438860Y-146353862D01*
X42438202Y-146349030D01*
X42436694Y-146343969D01*
X42436144Y-146342127D01*
X42434616Y-146337000D01*
X42434608Y-146336984D01*
X42434589Y-146336919D01*
X42430560Y-146328456D01*
X42426980Y-146320184D01*
X42347413Y-146116619D01*
X42345796Y-146112482D01*
X42227244Y-145902322D01*
X42080335Y-145710909D01*
X42077161Y-145707799D01*
X41911157Y-145545150D01*
X41911151Y-145545144D01*
X41907983Y-145542041D01*
X41904412Y-145539414D01*
X41904408Y-145539411D01*
X41779244Y-145447347D01*
X41713610Y-145399070D01*
X41709694Y-145396965D01*
X41504989Y-145286938D01*
X41504986Y-145286937D01*
X41501074Y-145284834D01*
X41274594Y-145201600D01*
X41038663Y-145151020D01*
X40834905Y-145136695D01*
X40822875Y-145135265D01*
X40815324Y-145133997D01*
X40810518Y-145133190D01*
X40805648Y-145133132D01*
X40805646Y-145133132D01*
X40804520Y-145133119D01*
X40797966Y-145133041D01*
X40793152Y-145133732D01*
X40793151Y-145133732D01*
X40770438Y-145136992D01*
X40752537Y-145138270D01*
X37319462Y-145138270D01*
X37298524Y-145136518D01*
X37286696Y-145134525D01*
X37278828Y-145133199D01*
X37273964Y-145133138D01*
X37273962Y-145133138D01*
X37272670Y-145133122D01*
X37266276Y-145133042D01*
X37261465Y-145133729D01*
X37261457Y-145133730D01*
X37255896Y-145134525D01*
X37246915Y-145135481D01*
X37109420Y-145145152D01*
X37030020Y-145150737D01*
X37030018Y-145150737D01*
X37025586Y-145151049D01*
X36789665Y-145201635D01*
X36563194Y-145284873D01*
X36350667Y-145399111D01*
X36156304Y-145542081D01*
X35983961Y-145710947D01*
X35837059Y-145902357D01*
X35718514Y-146112512D01*
X35716898Y-146116647D01*
X35644160Y-146302748D01*
X35639214Y-146313803D01*
X35633550Y-146324987D01*
X35633531Y-146325045D01*
X35633523Y-146325061D01*
X35629644Y-146336999D01*
X35628872Y-146341794D01*
X35628869Y-146341805D01*
X35627533Y-146350099D01*
X35624941Y-146362305D01*
X35589507Y-146496145D01*
X35552872Y-146634523D01*
X35500134Y-146937142D01*
X35473666Y-147243180D01*
X35473666Y-147550360D01*
X35500134Y-147856398D01*
X35552872Y-148159017D01*
X35560896Y-148189323D01*
X35621527Y-148418339D01*
X35624571Y-148433590D01*
X35625474Y-148440226D01*
X35625476Y-148440236D01*
X35626058Y-148444511D01*
X35626072Y-148444558D01*
X35626073Y-148444565D01*
X35627404Y-148449030D01*
X35627406Y-148449037D01*
X35627614Y-148449734D01*
X35627785Y-148450306D01*
X35629644Y-148456541D01*
X35629647Y-148456548D01*
X35629661Y-148456594D01*
X35630595Y-148458556D01*
X35631470Y-148460395D01*
X35631472Y-148460397D01*
X35631673Y-148460821D01*
X35631676Y-148460828D01*
X35634169Y-148466063D01*
X35637759Y-148474358D01*
X35644177Y-148490781D01*
X35701231Y-148636775D01*
X35718517Y-148681009D01*
X35837056Y-148891171D01*
X35839763Y-148894698D01*
X35839764Y-148894700D01*
X35839767Y-148894703D01*
X35983954Y-149082589D01*
X36156295Y-149251463D01*
X36350658Y-149394440D01*
X36563186Y-149508683D01*
X36567352Y-149510214D01*
X36567356Y-149510216D01*
X36676423Y-149550304D01*
X36789660Y-149591925D01*
X37005486Y-149638203D01*
X37009528Y-149639070D01*
X37071941Y-149672910D01*
X37106151Y-149735121D01*
X37101297Y-149805951D01*
X37058920Y-149862913D01*
X36992473Y-149887922D01*
X36983111Y-149888270D01*
X32666630Y-149888270D01*
X32598509Y-149868268D01*
X32552016Y-149814612D01*
X32540630Y-149762270D01*
X32540630Y-131596770D01*
X34018815Y-131596770D01*
X34038061Y-131964011D01*
X34038574Y-131967251D01*
X34038575Y-131967259D01*
X34046024Y-132014289D01*
X34095589Y-132327229D01*
X34190769Y-132682444D01*
X34191954Y-132685532D01*
X34191955Y-132685534D01*
X34237335Y-132803753D01*
X34322557Y-133025764D01*
X34324055Y-133028704D01*
X34466236Y-133307749D01*
X34489510Y-133353427D01*
X34689798Y-133661845D01*
X34921228Y-133947637D01*
X35181263Y-134207672D01*
X35467055Y-134439102D01*
X35469830Y-134440904D01*
X35644810Y-134554537D01*
X35775472Y-134639390D01*
X35778406Y-134640885D01*
X35778413Y-134640889D01*
X36083257Y-134796214D01*
X36103136Y-134806343D01*
X36446456Y-134938131D01*
X36801671Y-135033311D01*
X36994688Y-135063882D01*
X37161641Y-135090325D01*
X37161649Y-135090326D01*
X37164889Y-135090839D01*
X37532130Y-135110085D01*
X37899371Y-135090839D01*
X37902611Y-135090326D01*
X37902619Y-135090325D01*
X38069572Y-135063882D01*
X38262589Y-135033311D01*
X38617804Y-134938131D01*
X38961124Y-134806343D01*
X38981003Y-134796214D01*
X39285847Y-134640889D01*
X39285854Y-134640885D01*
X39288788Y-134639390D01*
X39419451Y-134554537D01*
X39594430Y-134440904D01*
X39597205Y-134439102D01*
X39882997Y-134207672D01*
X40143032Y-133947637D01*
X40374462Y-133661845D01*
X40574750Y-133353427D01*
X40598025Y-133307749D01*
X40705524Y-133096770D01*
X50618815Y-133096770D01*
X50638061Y-133464011D01*
X50638574Y-133467251D01*
X50638575Y-133467259D01*
X50646375Y-133516504D01*
X50695589Y-133827229D01*
X50790769Y-134182444D01*
X50791954Y-134185532D01*
X50791955Y-134185534D01*
X50837335Y-134303753D01*
X50922557Y-134525764D01*
X50924055Y-134528704D01*
X51066236Y-134807749D01*
X51089510Y-134853427D01*
X51289798Y-135161845D01*
X51521228Y-135447637D01*
X51781263Y-135707672D01*
X52067055Y-135939102D01*
X52375472Y-136139390D01*
X52378406Y-136140885D01*
X52378413Y-136140889D01*
X52700196Y-136304845D01*
X52703136Y-136306343D01*
X53046456Y-136438131D01*
X53401671Y-136533311D01*
X53594688Y-136563882D01*
X53761641Y-136590325D01*
X53761649Y-136590326D01*
X53764889Y-136590839D01*
X54132130Y-136610085D01*
X54499371Y-136590839D01*
X54502611Y-136590326D01*
X54502619Y-136590325D01*
X54669572Y-136563882D01*
X54862589Y-136533311D01*
X55217804Y-136438131D01*
X55561124Y-136306343D01*
X55564064Y-136304845D01*
X55885847Y-136140889D01*
X55885854Y-136140885D01*
X55888788Y-136139390D01*
X56197205Y-135939102D01*
X56482997Y-135707672D01*
X56743032Y-135447637D01*
X56974462Y-135161845D01*
X57174750Y-134853427D01*
X57198025Y-134807749D01*
X57340205Y-134528704D01*
X57341703Y-134525764D01*
X57426925Y-134303753D01*
X57472305Y-134185534D01*
X57472306Y-134185532D01*
X57473491Y-134182444D01*
X57568671Y-133827229D01*
X57617885Y-133516504D01*
X57625685Y-133467259D01*
X57625686Y-133467251D01*
X57626199Y-133464011D01*
X57645445Y-133096770D01*
X66018815Y-133096770D01*
X66038061Y-133464011D01*
X66038574Y-133467251D01*
X66038575Y-133467259D01*
X66046375Y-133516504D01*
X66095589Y-133827229D01*
X66190769Y-134182444D01*
X66191954Y-134185532D01*
X66191955Y-134185534D01*
X66237335Y-134303753D01*
X66322557Y-134525764D01*
X66324055Y-134528704D01*
X66466236Y-134807749D01*
X66489510Y-134853427D01*
X66689798Y-135161845D01*
X66921228Y-135447637D01*
X67181263Y-135707672D01*
X67467055Y-135939102D01*
X67775472Y-136139390D01*
X67778406Y-136140885D01*
X67778413Y-136140889D01*
X68100196Y-136304845D01*
X68103136Y-136306343D01*
X68446456Y-136438131D01*
X68801671Y-136533311D01*
X68994688Y-136563882D01*
X69161641Y-136590325D01*
X69161649Y-136590326D01*
X69164889Y-136590839D01*
X69532130Y-136610085D01*
X69899371Y-136590839D01*
X69902611Y-136590326D01*
X69902619Y-136590325D01*
X70069572Y-136563882D01*
X70262589Y-136533311D01*
X70617804Y-136438131D01*
X70961124Y-136306343D01*
X70964064Y-136304845D01*
X71285847Y-136140889D01*
X71285854Y-136140885D01*
X71288788Y-136139390D01*
X71597205Y-135939102D01*
X71882997Y-135707672D01*
X72143032Y-135447637D01*
X72374462Y-135161845D01*
X72574750Y-134853427D01*
X72598025Y-134807749D01*
X72740205Y-134528704D01*
X72741703Y-134525764D01*
X72826925Y-134303753D01*
X72872305Y-134185534D01*
X72872306Y-134185532D01*
X72873491Y-134182444D01*
X72968671Y-133827229D01*
X73017885Y-133516504D01*
X73025685Y-133467259D01*
X73025686Y-133467251D01*
X73026199Y-133464011D01*
X73045445Y-133096770D01*
X73026199Y-132729529D01*
X73018742Y-132682444D01*
X72987461Y-132484946D01*
X72968671Y-132366311D01*
X72873491Y-132011096D01*
X72829495Y-131896481D01*
X72742887Y-131670861D01*
X72741703Y-131667776D01*
X72720520Y-131626202D01*
X72576249Y-131343054D01*
X72576245Y-131343047D01*
X72574750Y-131340113D01*
X72374462Y-131031695D01*
X72143032Y-130745903D01*
X71882997Y-130485868D01*
X71597205Y-130254438D01*
X71493656Y-130187193D01*
X71291557Y-130055948D01*
X71291554Y-130055946D01*
X71288788Y-130054150D01*
X71285854Y-130052655D01*
X71285847Y-130052651D01*
X70964064Y-129888695D01*
X70961124Y-129887197D01*
X70617804Y-129755409D01*
X70262589Y-129660229D01*
X70069572Y-129629658D01*
X69902619Y-129603215D01*
X69902611Y-129603214D01*
X69899371Y-129602701D01*
X69532130Y-129583455D01*
X69164889Y-129602701D01*
X69161649Y-129603214D01*
X69161641Y-129603215D01*
X68994688Y-129629658D01*
X68801671Y-129660229D01*
X68446456Y-129755409D01*
X68103136Y-129887197D01*
X68100196Y-129888695D01*
X67778414Y-130052651D01*
X67778407Y-130052655D01*
X67775473Y-130054150D01*
X67467055Y-130254438D01*
X67181263Y-130485868D01*
X66921228Y-130745903D01*
X66689798Y-131031695D01*
X66489510Y-131340113D01*
X66488015Y-131343047D01*
X66488011Y-131343054D01*
X66343740Y-131626202D01*
X66322557Y-131667776D01*
X66321373Y-131670861D01*
X66234766Y-131896481D01*
X66190769Y-132011096D01*
X66095589Y-132366311D01*
X66076799Y-132484946D01*
X66045519Y-132682444D01*
X66038061Y-132729529D01*
X66018815Y-133096770D01*
X57645445Y-133096770D01*
X57626199Y-132729529D01*
X57618742Y-132682444D01*
X57587461Y-132484946D01*
X57568671Y-132366311D01*
X57473491Y-132011096D01*
X57429495Y-131896481D01*
X57342887Y-131670861D01*
X57341703Y-131667776D01*
X57320520Y-131626202D01*
X57176249Y-131343054D01*
X57176245Y-131343047D01*
X57174750Y-131340113D01*
X56974462Y-131031695D01*
X56743032Y-130745903D01*
X56482997Y-130485868D01*
X56197205Y-130254438D01*
X56093656Y-130187193D01*
X55891557Y-130055948D01*
X55891554Y-130055946D01*
X55888788Y-130054150D01*
X55885854Y-130052655D01*
X55885847Y-130052651D01*
X55564064Y-129888695D01*
X55561124Y-129887197D01*
X55217804Y-129755409D01*
X54862589Y-129660229D01*
X54669572Y-129629658D01*
X54502619Y-129603215D01*
X54502611Y-129603214D01*
X54499371Y-129602701D01*
X54132130Y-129583455D01*
X53764889Y-129602701D01*
X53761649Y-129603214D01*
X53761641Y-129603215D01*
X53594688Y-129629658D01*
X53401671Y-129660229D01*
X53046456Y-129755409D01*
X52703136Y-129887197D01*
X52700196Y-129888695D01*
X52378414Y-130052651D01*
X52378407Y-130052655D01*
X52375473Y-130054150D01*
X52067055Y-130254438D01*
X51781263Y-130485868D01*
X51521228Y-130745903D01*
X51289798Y-131031695D01*
X51089510Y-131340113D01*
X51088015Y-131343047D01*
X51088011Y-131343054D01*
X50943740Y-131626202D01*
X50922557Y-131667776D01*
X50921373Y-131670861D01*
X50834766Y-131896481D01*
X50790769Y-132011096D01*
X50695589Y-132366311D01*
X50676799Y-132484946D01*
X50645519Y-132682444D01*
X50638061Y-132729529D01*
X50618815Y-133096770D01*
X40705524Y-133096770D01*
X40740205Y-133028704D01*
X40741703Y-133025764D01*
X40826925Y-132803753D01*
X40872305Y-132685534D01*
X40872306Y-132685532D01*
X40873491Y-132682444D01*
X40968671Y-132327229D01*
X41018236Y-132014289D01*
X41025685Y-131967259D01*
X41025686Y-131967251D01*
X41026199Y-131964011D01*
X41045445Y-131596770D01*
X41026199Y-131229529D01*
X41018745Y-131182462D01*
X40989495Y-130997789D01*
X40968671Y-130866311D01*
X40873491Y-130511096D01*
X40829495Y-130396481D01*
X40742887Y-130170861D01*
X40741703Y-130167776D01*
X40598741Y-129887197D01*
X40576249Y-129843054D01*
X40576245Y-129843047D01*
X40574750Y-129840113D01*
X40374462Y-129531695D01*
X40143032Y-129245903D01*
X39882997Y-128985868D01*
X39597205Y-128754438D01*
X39288788Y-128554150D01*
X39285854Y-128552655D01*
X39285847Y-128552651D01*
X38964064Y-128388695D01*
X38961124Y-128387197D01*
X38617804Y-128255409D01*
X38262589Y-128160229D01*
X38069572Y-128129658D01*
X37902619Y-128103215D01*
X37902611Y-128103214D01*
X37899371Y-128102701D01*
X37532130Y-128083455D01*
X37164889Y-128102701D01*
X37161649Y-128103214D01*
X37161641Y-128103215D01*
X36994688Y-128129658D01*
X36801671Y-128160229D01*
X36446456Y-128255409D01*
X36103136Y-128387197D01*
X36100196Y-128388695D01*
X35778414Y-128552651D01*
X35778407Y-128552655D01*
X35775473Y-128554150D01*
X35467055Y-128754438D01*
X35181263Y-128985868D01*
X34921228Y-129245903D01*
X34689798Y-129531695D01*
X34489510Y-129840113D01*
X34488015Y-129843047D01*
X34488011Y-129843054D01*
X34465519Y-129887197D01*
X34322557Y-130167776D01*
X34321373Y-130170861D01*
X34234766Y-130396481D01*
X34190769Y-130511096D01*
X34095589Y-130866311D01*
X34074765Y-130997789D01*
X34045516Y-131182462D01*
X34038061Y-131229529D01*
X34018815Y-131596770D01*
X32540630Y-131596770D01*
X32540630Y-122446770D01*
X50618815Y-122446770D01*
X50638061Y-122814011D01*
X50695589Y-123177229D01*
X50790769Y-123532444D01*
X50791954Y-123535532D01*
X50791955Y-123535534D01*
X50837335Y-123653753D01*
X50922557Y-123875764D01*
X50924055Y-123878704D01*
X51066236Y-124157749D01*
X51089510Y-124203427D01*
X51289798Y-124511845D01*
X51521228Y-124797637D01*
X51781263Y-125057672D01*
X52067055Y-125289102D01*
X52375472Y-125489390D01*
X52378406Y-125490885D01*
X52378413Y-125490889D01*
X52700196Y-125654845D01*
X52703136Y-125656343D01*
X53046456Y-125788131D01*
X53401671Y-125883311D01*
X53594688Y-125913882D01*
X53761641Y-125940325D01*
X53761649Y-125940326D01*
X53764889Y-125940839D01*
X54132130Y-125960085D01*
X54499371Y-125940839D01*
X54502611Y-125940326D01*
X54502619Y-125940325D01*
X54669572Y-125913882D01*
X54862589Y-125883311D01*
X55217804Y-125788131D01*
X55561124Y-125656343D01*
X55564064Y-125654845D01*
X55885847Y-125490889D01*
X55885854Y-125490885D01*
X55888788Y-125489390D01*
X56197205Y-125289102D01*
X56482997Y-125057672D01*
X56743032Y-124797637D01*
X56974462Y-124511845D01*
X57174750Y-124203427D01*
X57198025Y-124157749D01*
X57340205Y-123878704D01*
X57341703Y-123875764D01*
X57426925Y-123653753D01*
X57472305Y-123535534D01*
X57472306Y-123535532D01*
X57473491Y-123532444D01*
X57568671Y-123177229D01*
X57626199Y-122814011D01*
X57645445Y-122446770D01*
X66018815Y-122446770D01*
X66038061Y-122814011D01*
X66095589Y-123177229D01*
X66190769Y-123532444D01*
X66191954Y-123535532D01*
X66191955Y-123535534D01*
X66237335Y-123653753D01*
X66322557Y-123875764D01*
X66324055Y-123878704D01*
X66466236Y-124157749D01*
X66489510Y-124203427D01*
X66689798Y-124511845D01*
X66921228Y-124797637D01*
X67181263Y-125057672D01*
X67467055Y-125289102D01*
X67775472Y-125489390D01*
X67778406Y-125490885D01*
X67778413Y-125490889D01*
X68100196Y-125654845D01*
X68103136Y-125656343D01*
X68446456Y-125788131D01*
X68801671Y-125883311D01*
X68994688Y-125913882D01*
X69161641Y-125940325D01*
X69161649Y-125940326D01*
X69164889Y-125940839D01*
X69532130Y-125960085D01*
X69899371Y-125940839D01*
X69902611Y-125940326D01*
X69902619Y-125940325D01*
X70069572Y-125913882D01*
X70262589Y-125883311D01*
X70617804Y-125788131D01*
X70961124Y-125656343D01*
X70964064Y-125654845D01*
X71285847Y-125490889D01*
X71285854Y-125490885D01*
X71288788Y-125489390D01*
X71597205Y-125289102D01*
X71882997Y-125057672D01*
X72143032Y-124797637D01*
X72374462Y-124511845D01*
X72574750Y-124203427D01*
X72598025Y-124157749D01*
X72740205Y-123878704D01*
X72741703Y-123875764D01*
X72826925Y-123653753D01*
X72872305Y-123535534D01*
X72872306Y-123535532D01*
X72873491Y-123532444D01*
X72968671Y-123177229D01*
X73026199Y-122814011D01*
X73045445Y-122446770D01*
X73026199Y-122079529D01*
X72968671Y-121716311D01*
X72873491Y-121361096D01*
X72829495Y-121246481D01*
X72742887Y-121020861D01*
X72741703Y-121017776D01*
X72600791Y-120741221D01*
X72576249Y-120693054D01*
X72576245Y-120693047D01*
X72574750Y-120690113D01*
X72374462Y-120381695D01*
X72143032Y-120095903D01*
X71882997Y-119835868D01*
X71597205Y-119604438D01*
X71288788Y-119404150D01*
X71285854Y-119402655D01*
X71285847Y-119402651D01*
X70964064Y-119238695D01*
X70961124Y-119237197D01*
X70736956Y-119151147D01*
X70620894Y-119106595D01*
X70620892Y-119106594D01*
X70617804Y-119105409D01*
X70262589Y-119010229D01*
X70069572Y-118979658D01*
X69902619Y-118953215D01*
X69902611Y-118953214D01*
X69899371Y-118952701D01*
X69532130Y-118933455D01*
X69164889Y-118952701D01*
X69161649Y-118953214D01*
X69161641Y-118953215D01*
X68994688Y-118979658D01*
X68801671Y-119010229D01*
X68446456Y-119105409D01*
X68443368Y-119106594D01*
X68443366Y-119106595D01*
X68327304Y-119151147D01*
X68103136Y-119237197D01*
X68100196Y-119238695D01*
X67778414Y-119402651D01*
X67778407Y-119402655D01*
X67775473Y-119404150D01*
X67467055Y-119604438D01*
X67181263Y-119835868D01*
X66921228Y-120095903D01*
X66689798Y-120381695D01*
X66489510Y-120690113D01*
X66488015Y-120693047D01*
X66488011Y-120693054D01*
X66463469Y-120741221D01*
X66322557Y-121017776D01*
X66321373Y-121020861D01*
X66234766Y-121246481D01*
X66190769Y-121361096D01*
X66095589Y-121716311D01*
X66038061Y-122079529D01*
X66018815Y-122446770D01*
X57645445Y-122446770D01*
X57626199Y-122079529D01*
X57568671Y-121716311D01*
X57473491Y-121361096D01*
X57429495Y-121246481D01*
X57342887Y-121020861D01*
X57341703Y-121017776D01*
X57200791Y-120741221D01*
X57176249Y-120693054D01*
X57176245Y-120693047D01*
X57174750Y-120690113D01*
X56974462Y-120381695D01*
X56743032Y-120095903D01*
X56482997Y-119835868D01*
X56197205Y-119604438D01*
X55888788Y-119404150D01*
X55885854Y-119402655D01*
X55885847Y-119402651D01*
X55564064Y-119238695D01*
X55561124Y-119237197D01*
X55336956Y-119151147D01*
X55220894Y-119106595D01*
X55220892Y-119106594D01*
X55217804Y-119105409D01*
X54862589Y-119010229D01*
X54669572Y-118979658D01*
X54502619Y-118953215D01*
X54502611Y-118953214D01*
X54499371Y-118952701D01*
X54132130Y-118933455D01*
X53764889Y-118952701D01*
X53761649Y-118953214D01*
X53761641Y-118953215D01*
X53594688Y-118979658D01*
X53401671Y-119010229D01*
X53046456Y-119105409D01*
X53043368Y-119106594D01*
X53043366Y-119106595D01*
X52927304Y-119151147D01*
X52703136Y-119237197D01*
X52700196Y-119238695D01*
X52378414Y-119402651D01*
X52378407Y-119402655D01*
X52375473Y-119404150D01*
X52067055Y-119604438D01*
X51781263Y-119835868D01*
X51521228Y-120095903D01*
X51289798Y-120381695D01*
X51089510Y-120690113D01*
X51088015Y-120693047D01*
X51088011Y-120693054D01*
X51063469Y-120741221D01*
X50922557Y-121017776D01*
X50921373Y-121020861D01*
X50834766Y-121246481D01*
X50790769Y-121361096D01*
X50695589Y-121716311D01*
X50638061Y-122079529D01*
X50618815Y-122446770D01*
X32540630Y-122446770D01*
X32540630Y-116896770D01*
X34018815Y-116896770D01*
X34038061Y-117264011D01*
X34095589Y-117627229D01*
X34190769Y-117982444D01*
X34191954Y-117985532D01*
X34191955Y-117985534D01*
X34237335Y-118103753D01*
X34322557Y-118325764D01*
X34324055Y-118328704D01*
X34466236Y-118607749D01*
X34489510Y-118653427D01*
X34689798Y-118961845D01*
X34921228Y-119247637D01*
X35181263Y-119507672D01*
X35467055Y-119739102D01*
X35775472Y-119939390D01*
X35778406Y-119940885D01*
X35778413Y-119940889D01*
X36042095Y-120075241D01*
X36103136Y-120106343D01*
X36312912Y-120186868D01*
X36337251Y-120196211D01*
X36446456Y-120238131D01*
X36801671Y-120333311D01*
X36994688Y-120363882D01*
X37161641Y-120390325D01*
X37161649Y-120390326D01*
X37164889Y-120390839D01*
X37532130Y-120410085D01*
X37899371Y-120390839D01*
X37902611Y-120390326D01*
X37902619Y-120390325D01*
X38069572Y-120363882D01*
X38262589Y-120333311D01*
X38617804Y-120238131D01*
X38727010Y-120196211D01*
X38751348Y-120186868D01*
X38961124Y-120106343D01*
X39022165Y-120075241D01*
X39285847Y-119940889D01*
X39285854Y-119940885D01*
X39288788Y-119939390D01*
X39597205Y-119739102D01*
X39882997Y-119507672D01*
X40143032Y-119247637D01*
X40374462Y-118961845D01*
X40574750Y-118653427D01*
X40598025Y-118607749D01*
X40740205Y-118328704D01*
X40741703Y-118325764D01*
X40826925Y-118103753D01*
X40872305Y-117985534D01*
X40872306Y-117985532D01*
X40873491Y-117982444D01*
X40968671Y-117627229D01*
X41026199Y-117264011D01*
X41045445Y-116896770D01*
X41026199Y-116529529D01*
X40968671Y-116166311D01*
X40873491Y-115811096D01*
X40829495Y-115696481D01*
X40742887Y-115470861D01*
X40741703Y-115467776D01*
X40600791Y-115191221D01*
X40576249Y-115143054D01*
X40576245Y-115143047D01*
X40574750Y-115140113D01*
X40555138Y-115109912D01*
X40376264Y-114834470D01*
X40374462Y-114831695D01*
X40143032Y-114545903D01*
X39882997Y-114285868D01*
X39597205Y-114054438D01*
X39432746Y-113947637D01*
X39291557Y-113855948D01*
X39291554Y-113855946D01*
X39288788Y-113854150D01*
X39285854Y-113852655D01*
X39285847Y-113852651D01*
X38964064Y-113688695D01*
X38961124Y-113687197D01*
X38617804Y-113555409D01*
X38262589Y-113460229D01*
X38069572Y-113429658D01*
X37902619Y-113403215D01*
X37902611Y-113403214D01*
X37899371Y-113402701D01*
X37532130Y-113383455D01*
X37164889Y-113402701D01*
X37161649Y-113403214D01*
X37161641Y-113403215D01*
X36994688Y-113429658D01*
X36801671Y-113460229D01*
X36446456Y-113555409D01*
X36103136Y-113687197D01*
X36100196Y-113688695D01*
X35778414Y-113852651D01*
X35778407Y-113852655D01*
X35775473Y-113854150D01*
X35772707Y-113855946D01*
X35772704Y-113855948D01*
X35602735Y-113966327D01*
X35467055Y-114054438D01*
X35181263Y-114285868D01*
X34921228Y-114545903D01*
X34689798Y-114831695D01*
X34687996Y-114834470D01*
X34509123Y-115109912D01*
X34489510Y-115140113D01*
X34488015Y-115143047D01*
X34488011Y-115143054D01*
X34463469Y-115191221D01*
X34322557Y-115467776D01*
X34321373Y-115470861D01*
X34234766Y-115696481D01*
X34190769Y-115811096D01*
X34095589Y-116166311D01*
X34038061Y-116529529D01*
X34018815Y-116896770D01*
X32540630Y-116896770D01*
X32540630Y-111596770D01*
X50618815Y-111596770D01*
X50638061Y-111964011D01*
X50695589Y-112327229D01*
X50790769Y-112682444D01*
X50791954Y-112685532D01*
X50791955Y-112685534D01*
X50837335Y-112803753D01*
X50922557Y-113025764D01*
X50924055Y-113028704D01*
X51066236Y-113307749D01*
X51089510Y-113353427D01*
X51091306Y-113356193D01*
X51091308Y-113356196D01*
X51158868Y-113460229D01*
X51289798Y-113661845D01*
X51521228Y-113947637D01*
X51781263Y-114207672D01*
X52067055Y-114439102D01*
X52082914Y-114449401D01*
X52235480Y-114548478D01*
X52375472Y-114639390D01*
X52378406Y-114640885D01*
X52378413Y-114640889D01*
X52669709Y-114789311D01*
X52703136Y-114806343D01*
X53046456Y-114938131D01*
X53401671Y-115033311D01*
X53594688Y-115063882D01*
X53761641Y-115090325D01*
X53761649Y-115090326D01*
X53764889Y-115090839D01*
X54132130Y-115110085D01*
X54499371Y-115090839D01*
X54502611Y-115090326D01*
X54502619Y-115090325D01*
X54669572Y-115063882D01*
X54862589Y-115033311D01*
X55217804Y-114938131D01*
X55561124Y-114806343D01*
X55594551Y-114789311D01*
X55885847Y-114640889D01*
X55885854Y-114640885D01*
X55888788Y-114639390D01*
X56028781Y-114548478D01*
X56181346Y-114449401D01*
X56197205Y-114439102D01*
X56482997Y-114207672D01*
X56743032Y-113947637D01*
X56974462Y-113661845D01*
X57105392Y-113460229D01*
X57172952Y-113356196D01*
X57172954Y-113356193D01*
X57174750Y-113353427D01*
X57198025Y-113307749D01*
X57340205Y-113028704D01*
X57341703Y-113025764D01*
X57426925Y-112803753D01*
X57472305Y-112685534D01*
X57472306Y-112685532D01*
X57473491Y-112682444D01*
X57568671Y-112327229D01*
X57626199Y-111964011D01*
X57645445Y-111596770D01*
X66018815Y-111596770D01*
X66038061Y-111964011D01*
X66095589Y-112327229D01*
X66190769Y-112682444D01*
X66191954Y-112685532D01*
X66191955Y-112685534D01*
X66237335Y-112803753D01*
X66322557Y-113025764D01*
X66324055Y-113028704D01*
X66466236Y-113307749D01*
X66489510Y-113353427D01*
X66491306Y-113356193D01*
X66491308Y-113356196D01*
X66558868Y-113460229D01*
X66689798Y-113661845D01*
X66921228Y-113947637D01*
X67181263Y-114207672D01*
X67467055Y-114439102D01*
X67482914Y-114449401D01*
X67635480Y-114548478D01*
X67775472Y-114639390D01*
X67778406Y-114640885D01*
X67778413Y-114640889D01*
X68069709Y-114789311D01*
X68103136Y-114806343D01*
X68446456Y-114938131D01*
X68801671Y-115033311D01*
X68994688Y-115063882D01*
X69161641Y-115090325D01*
X69161649Y-115090326D01*
X69164889Y-115090839D01*
X69532130Y-115110085D01*
X69899371Y-115090839D01*
X69902611Y-115090326D01*
X69902619Y-115090325D01*
X70069572Y-115063882D01*
X70262589Y-115033311D01*
X70617804Y-114938131D01*
X70961124Y-114806343D01*
X70994551Y-114789311D01*
X71285847Y-114640889D01*
X71285854Y-114640885D01*
X71288788Y-114639390D01*
X71428781Y-114548478D01*
X71581346Y-114449401D01*
X71597205Y-114439102D01*
X71882997Y-114207672D01*
X72143032Y-113947637D01*
X72374462Y-113661845D01*
X72505392Y-113460229D01*
X72572952Y-113356196D01*
X72572954Y-113356193D01*
X72574750Y-113353427D01*
X72598025Y-113307749D01*
X72740205Y-113028704D01*
X72741703Y-113025764D01*
X72826925Y-112803753D01*
X72872305Y-112685534D01*
X72872306Y-112685532D01*
X72873491Y-112682444D01*
X72968671Y-112327229D01*
X73026199Y-111964011D01*
X73045445Y-111596770D01*
X73026199Y-111229529D01*
X72968671Y-110866311D01*
X72873491Y-110511096D01*
X72829495Y-110396481D01*
X72742887Y-110170861D01*
X72741703Y-110167776D01*
X72600791Y-109891221D01*
X72576249Y-109843054D01*
X72576245Y-109843047D01*
X72574750Y-109840113D01*
X72374462Y-109531695D01*
X72143032Y-109245903D01*
X71882997Y-108985868D01*
X71597205Y-108754438D01*
X71288788Y-108554150D01*
X71285854Y-108552655D01*
X71285847Y-108552651D01*
X70964064Y-108388695D01*
X70961124Y-108387197D01*
X70617804Y-108255409D01*
X70262589Y-108160229D01*
X70069572Y-108129658D01*
X69902619Y-108103215D01*
X69902611Y-108103214D01*
X69899371Y-108102701D01*
X69532130Y-108083455D01*
X69164889Y-108102701D01*
X69161649Y-108103214D01*
X69161641Y-108103215D01*
X68994688Y-108129658D01*
X68801671Y-108160229D01*
X68446456Y-108255409D01*
X68103136Y-108387197D01*
X68100196Y-108388695D01*
X67778414Y-108552651D01*
X67778407Y-108552655D01*
X67775473Y-108554150D01*
X67467055Y-108754438D01*
X67181263Y-108985868D01*
X66921228Y-109245903D01*
X66689798Y-109531695D01*
X66489510Y-109840113D01*
X66488015Y-109843047D01*
X66488011Y-109843054D01*
X66463469Y-109891221D01*
X66322557Y-110167776D01*
X66321373Y-110170861D01*
X66234766Y-110396481D01*
X66190769Y-110511096D01*
X66095589Y-110866311D01*
X66038061Y-111229529D01*
X66018815Y-111596770D01*
X57645445Y-111596770D01*
X57626199Y-111229529D01*
X57568671Y-110866311D01*
X57473491Y-110511096D01*
X57429495Y-110396481D01*
X57342887Y-110170861D01*
X57341703Y-110167776D01*
X57200791Y-109891221D01*
X57176249Y-109843054D01*
X57176245Y-109843047D01*
X57174750Y-109840113D01*
X56974462Y-109531695D01*
X56743032Y-109245903D01*
X56482997Y-108985868D01*
X56197205Y-108754438D01*
X55888788Y-108554150D01*
X55885854Y-108552655D01*
X55885847Y-108552651D01*
X55564064Y-108388695D01*
X55561124Y-108387197D01*
X55217804Y-108255409D01*
X54862589Y-108160229D01*
X54669572Y-108129658D01*
X54502619Y-108103215D01*
X54502611Y-108103214D01*
X54499371Y-108102701D01*
X54132130Y-108083455D01*
X53764889Y-108102701D01*
X53761649Y-108103214D01*
X53761641Y-108103215D01*
X53594688Y-108129658D01*
X53401671Y-108160229D01*
X53046456Y-108255409D01*
X52703136Y-108387197D01*
X52700196Y-108388695D01*
X52378414Y-108552651D01*
X52378407Y-108552655D01*
X52375473Y-108554150D01*
X52067055Y-108754438D01*
X51781263Y-108985868D01*
X51521228Y-109245903D01*
X51289798Y-109531695D01*
X51089510Y-109840113D01*
X51088015Y-109843047D01*
X51088011Y-109843054D01*
X51063469Y-109891221D01*
X50922557Y-110167776D01*
X50921373Y-110170861D01*
X50834766Y-110396481D01*
X50790769Y-110511096D01*
X50695589Y-110866311D01*
X50638061Y-111229529D01*
X50618815Y-111596770D01*
X32540630Y-111596770D01*
X32540630Y-100996770D01*
X50618815Y-100996770D01*
X50638061Y-101364011D01*
X50695589Y-101727229D01*
X50790769Y-102082444D01*
X50791954Y-102085532D01*
X50791955Y-102085534D01*
X50837335Y-102203753D01*
X50922557Y-102425764D01*
X50924055Y-102428704D01*
X51066236Y-102707749D01*
X51089510Y-102753427D01*
X51289798Y-103061845D01*
X51521228Y-103347637D01*
X51781263Y-103607672D01*
X52067055Y-103839102D01*
X52375472Y-104039390D01*
X52378406Y-104040885D01*
X52378413Y-104040889D01*
X52700196Y-104204845D01*
X52703136Y-104206343D01*
X53046456Y-104338131D01*
X53401671Y-104433311D01*
X53594688Y-104463882D01*
X53761641Y-104490325D01*
X53761649Y-104490326D01*
X53764889Y-104490839D01*
X54132130Y-104510085D01*
X54499371Y-104490839D01*
X54502611Y-104490326D01*
X54502619Y-104490325D01*
X54669572Y-104463882D01*
X54862589Y-104433311D01*
X55217804Y-104338131D01*
X55561124Y-104206343D01*
X55564064Y-104204845D01*
X55885847Y-104040889D01*
X55885854Y-104040885D01*
X55888788Y-104039390D01*
X56197205Y-103839102D01*
X56482997Y-103607672D01*
X56743032Y-103347637D01*
X56974462Y-103061845D01*
X57174750Y-102753427D01*
X57198025Y-102707749D01*
X57340205Y-102428704D01*
X57341703Y-102425764D01*
X57426925Y-102203753D01*
X57472305Y-102085534D01*
X57472306Y-102085532D01*
X57473491Y-102082444D01*
X57568671Y-101727229D01*
X57626199Y-101364011D01*
X57645445Y-100996770D01*
X66018815Y-100996770D01*
X66038061Y-101364011D01*
X66095589Y-101727229D01*
X66190769Y-102082444D01*
X66191954Y-102085532D01*
X66191955Y-102085534D01*
X66237335Y-102203753D01*
X66322557Y-102425764D01*
X66324055Y-102428704D01*
X66466236Y-102707749D01*
X66489510Y-102753427D01*
X66689798Y-103061845D01*
X66921228Y-103347637D01*
X67181263Y-103607672D01*
X67467055Y-103839102D01*
X67775472Y-104039390D01*
X67778406Y-104040885D01*
X67778413Y-104040889D01*
X68100196Y-104204845D01*
X68103136Y-104206343D01*
X68446456Y-104338131D01*
X68801671Y-104433311D01*
X68994688Y-104463882D01*
X69161641Y-104490325D01*
X69161649Y-104490326D01*
X69164889Y-104490839D01*
X69532130Y-104510085D01*
X69899371Y-104490839D01*
X69902611Y-104490326D01*
X69902619Y-104490325D01*
X70069572Y-104463882D01*
X70262589Y-104433311D01*
X70617804Y-104338131D01*
X70961124Y-104206343D01*
X70964064Y-104204845D01*
X71285847Y-104040889D01*
X71285854Y-104040885D01*
X71288788Y-104039390D01*
X71597205Y-103839102D01*
X71882997Y-103607672D01*
X72143032Y-103347637D01*
X72374462Y-103061845D01*
X72574750Y-102753427D01*
X72598025Y-102707749D01*
X72740205Y-102428704D01*
X72741703Y-102425764D01*
X72826925Y-102203753D01*
X72872305Y-102085534D01*
X72872306Y-102085532D01*
X72873491Y-102082444D01*
X72968671Y-101727229D01*
X73026199Y-101364011D01*
X73045445Y-100996770D01*
X73026199Y-100629529D01*
X72968671Y-100266311D01*
X72873491Y-99911096D01*
X72829495Y-99796481D01*
X72742887Y-99570861D01*
X72741703Y-99567776D01*
X72600791Y-99291221D01*
X72576249Y-99243054D01*
X72576245Y-99243047D01*
X72574750Y-99240113D01*
X72374462Y-98931695D01*
X72143032Y-98645903D01*
X71882997Y-98385868D01*
X71597205Y-98154438D01*
X71288788Y-97954150D01*
X71285854Y-97952655D01*
X71285847Y-97952651D01*
X70964064Y-97788695D01*
X70961124Y-97787197D01*
X70617804Y-97655409D01*
X70262589Y-97560229D01*
X70069572Y-97529658D01*
X69902619Y-97503215D01*
X69902611Y-97503214D01*
X69899371Y-97502701D01*
X69532130Y-97483455D01*
X69164889Y-97502701D01*
X69161649Y-97503214D01*
X69161641Y-97503215D01*
X68994688Y-97529658D01*
X68801671Y-97560229D01*
X68446456Y-97655409D01*
X68103136Y-97787197D01*
X68100196Y-97788695D01*
X67778414Y-97952651D01*
X67778407Y-97952655D01*
X67775473Y-97954150D01*
X67467055Y-98154438D01*
X67181263Y-98385868D01*
X66921228Y-98645903D01*
X66689798Y-98931695D01*
X66489510Y-99240113D01*
X66488015Y-99243047D01*
X66488011Y-99243054D01*
X66463469Y-99291221D01*
X66322557Y-99567776D01*
X66321373Y-99570861D01*
X66234766Y-99796481D01*
X66190769Y-99911096D01*
X66095589Y-100266311D01*
X66038061Y-100629529D01*
X66018815Y-100996770D01*
X57645445Y-100996770D01*
X57626199Y-100629529D01*
X57568671Y-100266311D01*
X57473491Y-99911096D01*
X57429495Y-99796481D01*
X57342887Y-99570861D01*
X57341703Y-99567776D01*
X57200791Y-99291221D01*
X57176249Y-99243054D01*
X57176245Y-99243047D01*
X57174750Y-99240113D01*
X56974462Y-98931695D01*
X56743032Y-98645903D01*
X56482997Y-98385868D01*
X56197205Y-98154438D01*
X55888788Y-97954150D01*
X55885854Y-97952655D01*
X55885847Y-97952651D01*
X55564064Y-97788695D01*
X55561124Y-97787197D01*
X55217804Y-97655409D01*
X54862589Y-97560229D01*
X54669572Y-97529658D01*
X54502619Y-97503215D01*
X54502611Y-97503214D01*
X54499371Y-97502701D01*
X54132130Y-97483455D01*
X53764889Y-97502701D01*
X53761649Y-97503214D01*
X53761641Y-97503215D01*
X53594688Y-97529658D01*
X53401671Y-97560229D01*
X53046456Y-97655409D01*
X52703136Y-97787197D01*
X52700196Y-97788695D01*
X52378414Y-97952651D01*
X52378407Y-97952655D01*
X52375473Y-97954150D01*
X52067055Y-98154438D01*
X51781263Y-98385868D01*
X51521228Y-98645903D01*
X51289798Y-98931695D01*
X51089510Y-99240113D01*
X51088015Y-99243047D01*
X51088011Y-99243054D01*
X51063469Y-99291221D01*
X50922557Y-99567776D01*
X50921373Y-99570861D01*
X50834766Y-99796481D01*
X50790769Y-99911096D01*
X50695589Y-100266311D01*
X50638061Y-100629529D01*
X50618815Y-100996770D01*
X32540630Y-100996770D01*
X32540630Y-67911531D01*
X35320300Y-67911531D01*
X35321684Y-67987040D01*
X35328475Y-68357573D01*
X35328774Y-68360348D01*
X35370968Y-68751932D01*
X35376268Y-68801123D01*
X35376813Y-68803864D01*
X35376814Y-68803869D01*
X35445428Y-69148811D01*
X35463302Y-69238669D01*
X35464089Y-69241350D01*
X35464090Y-69241356D01*
X35483765Y-69308422D01*
X35588886Y-69666746D01*
X35589906Y-69669342D01*
X35589907Y-69669345D01*
X35733138Y-70033890D01*
X35752026Y-70081964D01*
X35828641Y-70235295D01*
X35885186Y-70348458D01*
X35951431Y-70481036D01*
X36185522Y-70860802D01*
X36452445Y-71218255D01*
X36454306Y-71220333D01*
X36454307Y-71220334D01*
X36729014Y-71527038D01*
X36750087Y-71550566D01*
X36752124Y-71552469D01*
X36752131Y-71552476D01*
X36912862Y-71702622D01*
X37076091Y-71855102D01*
X37078287Y-71856815D01*
X37078291Y-71856818D01*
X37290965Y-72022678D01*
X37427876Y-72129452D01*
X37461790Y-72151350D01*
X37800313Y-72369932D01*
X37800321Y-72369937D01*
X37802657Y-72371445D01*
X38197465Y-72579164D01*
X38200058Y-72580246D01*
X38606592Y-72749886D01*
X38606597Y-72749888D01*
X38609176Y-72750964D01*
X38611841Y-72751807D01*
X38611847Y-72751809D01*
X38706792Y-72781836D01*
X39034528Y-72885485D01*
X39037258Y-72886088D01*
X39037259Y-72886088D01*
X39429794Y-72972752D01*
X39470155Y-72981663D01*
X39472929Y-72982021D01*
X39472930Y-72982021D01*
X39909837Y-73038378D01*
X39909844Y-73038379D01*
X39912607Y-73038735D01*
X39915394Y-73038845D01*
X39915400Y-73038845D01*
X40173649Y-73048991D01*
X40358381Y-73056249D01*
X40361173Y-73056110D01*
X40361178Y-73056110D01*
X40801143Y-73034208D01*
X40801152Y-73034207D01*
X40803947Y-73034068D01*
X40806724Y-73033680D01*
X40806726Y-73033680D01*
X40884672Y-73022795D01*
X41245777Y-72972366D01*
X41248487Y-72971738D01*
X41248497Y-72971736D01*
X41677645Y-72872264D01*
X41680372Y-72871632D01*
X41903120Y-72798612D01*
X42101640Y-72733534D01*
X42101646Y-72733532D01*
X42104293Y-72732664D01*
X42514182Y-72556561D01*
X42906794Y-72344720D01*
X43279020Y-72098816D01*
X43627912Y-71820796D01*
X43950710Y-71512863D01*
X44165298Y-71268172D01*
X44243004Y-71179565D01*
X44243007Y-71179561D01*
X44244855Y-71177454D01*
X44278193Y-71131821D01*
X44506372Y-70819482D01*
X44508021Y-70817225D01*
X44608158Y-70650898D01*
X44736671Y-70437439D01*
X44736676Y-70437430D01*
X44738122Y-70435028D01*
X44880900Y-70141641D01*
X44932104Y-70036424D01*
X44932105Y-70036421D01*
X44933337Y-70033890D01*
X45071259Y-69671759D01*
X45091124Y-69619602D01*
X45091126Y-69619595D01*
X45092120Y-69616986D01*
X45213215Y-69187618D01*
X45222738Y-69136977D01*
X45295145Y-68751932D01*
X45295147Y-68751920D01*
X45295661Y-68749185D01*
X45312473Y-68576173D01*
X45338592Y-68307376D01*
X45338593Y-68307364D01*
X45338807Y-68305159D01*
X45342863Y-68150259D01*
X45345620Y-68045003D01*
X45345620Y-68044990D01*
X45345678Y-68042770D01*
X45325830Y-67597094D01*
X45314955Y-67516125D01*
X45305929Y-67448931D01*
X45266442Y-67154947D01*
X45229266Y-66990650D01*
X45168602Y-66722558D01*
X45167985Y-66719830D01*
X45031238Y-66295187D01*
X44977752Y-66168874D01*
X44858375Y-65886956D01*
X44858375Y-65886955D01*
X44857285Y-65884382D01*
X44834745Y-65842078D01*
X44648809Y-65493121D01*
X44647501Y-65490666D01*
X44645980Y-65488337D01*
X44405074Y-65119491D01*
X44405071Y-65119487D01*
X44403550Y-65117158D01*
X44382752Y-65090775D01*
X44129090Y-64769007D01*
X44129088Y-64769005D01*
X44127361Y-64766814D01*
X43821122Y-64442409D01*
X43717434Y-64350512D01*
X43489364Y-64148377D01*
X43489357Y-64148372D01*
X43487258Y-64146511D01*
X43128412Y-63881464D01*
X42927579Y-63759115D01*
X42749814Y-63650819D01*
X42749807Y-63650815D01*
X42747425Y-63649364D01*
X42625094Y-63589037D01*
X42398506Y-63477297D01*
X42347314Y-63452052D01*
X41931248Y-63291088D01*
X41794692Y-63251802D01*
X41505201Y-63168518D01*
X41505195Y-63168516D01*
X41502520Y-63167747D01*
X41499783Y-63167218D01*
X41499777Y-63167216D01*
X41315022Y-63131471D01*
X41064524Y-63083006D01*
X41061747Y-63082721D01*
X41061737Y-63082720D01*
X40786919Y-63054563D01*
X40620730Y-63037535D01*
X40617940Y-63037498D01*
X40617932Y-63037498D01*
X40339406Y-63033853D01*
X40174651Y-63031696D01*
X40171851Y-63031909D01*
X40171850Y-63031909D01*
X39732605Y-63065321D01*
X39729818Y-63065533D01*
X39289755Y-63138780D01*
X39285078Y-63139994D01*
X38860663Y-63250150D01*
X38860652Y-63250153D01*
X38857945Y-63250856D01*
X38589571Y-63346683D01*
X38440450Y-63399929D01*
X38440445Y-63399931D01*
X38437807Y-63400873D01*
X38435267Y-63402044D01*
X38435262Y-63402046D01*
X38326791Y-63452052D01*
X38032668Y-63587645D01*
X37645737Y-63809691D01*
X37643445Y-63811293D01*
X37643437Y-63811298D01*
X37403512Y-63978984D01*
X37280075Y-64065255D01*
X37277934Y-64067055D01*
X37277931Y-64067057D01*
X36947875Y-64344499D01*
X36938580Y-64352312D01*
X36936606Y-64354296D01*
X36936602Y-64354300D01*
X36809427Y-64482143D01*
X36623954Y-64668589D01*
X36338689Y-65011583D01*
X36085044Y-65378578D01*
X35865026Y-65766667D01*
X35863867Y-65769216D01*
X35863865Y-65769220D01*
X35681535Y-66170232D01*
X35681530Y-66170243D01*
X35680378Y-66172778D01*
X35679456Y-66175404D01*
X35679451Y-66175416D01*
X35595278Y-66415110D01*
X35532563Y-66593695D01*
X35531872Y-66596415D01*
X35531871Y-66596419D01*
X35428909Y-67001830D01*
X35422749Y-67026086D01*
X35422306Y-67028836D01*
X35422304Y-67028846D01*
X35391680Y-67218977D01*
X35351808Y-67466527D01*
X35351610Y-67469328D01*
X35351609Y-67469334D01*
X35342075Y-67603994D01*
X35320300Y-67911531D01*
X32540630Y-67911531D01*
X32540630Y-52296760D01*
X39482901Y-52296760D01*
X39483591Y-52301578D01*
X39483591Y-52301582D01*
X39483910Y-52303808D01*
X39484911Y-52313420D01*
X39495103Y-52468952D01*
X39501035Y-52559487D01*
X39501838Y-52563526D01*
X39501839Y-52563531D01*
X39549182Y-52801557D01*
X39552397Y-52817720D01*
X39553722Y-52821623D01*
X39630738Y-53048513D01*
X39637026Y-53067039D01*
X39638847Y-53070731D01*
X39638850Y-53070739D01*
X39745599Y-53287207D01*
X39753475Y-53303178D01*
X39899750Y-53522098D01*
X40073350Y-53720050D01*
X40271302Y-53893650D01*
X40490222Y-54039925D01*
X40493917Y-54041747D01*
X40493922Y-54041750D01*
X40722661Y-54154550D01*
X40722669Y-54154553D01*
X40726361Y-54156374D01*
X40975680Y-54241003D01*
X40979722Y-54241807D01*
X40979726Y-54241808D01*
X41229855Y-54291558D01*
X41229857Y-54291558D01*
X41233913Y-54292365D01*
X41360705Y-54300673D01*
X41462249Y-54307327D01*
X41474904Y-54308802D01*
X41479281Y-54309538D01*
X41479289Y-54309539D01*
X41484088Y-54310346D01*
X41490471Y-54310424D01*
X41491781Y-54310440D01*
X41491784Y-54310440D01*
X41496640Y-54310499D01*
X41501448Y-54309810D01*
X41501453Y-54309810D01*
X41524260Y-54306543D01*
X41542125Y-54305270D01*
X64362368Y-54305270D01*
X64383278Y-54307017D01*
X64398250Y-54309537D01*
X64398256Y-54309538D01*
X64403054Y-54310345D01*
X64407918Y-54310405D01*
X64407922Y-54310405D01*
X64409191Y-54310420D01*
X64415606Y-54310499D01*
X64420419Y-54309810D01*
X64420432Y-54309809D01*
X64423175Y-54309416D01*
X64432796Y-54308413D01*
X64674214Y-54292601D01*
X64674217Y-54292601D01*
X64678333Y-54292331D01*
X64682376Y-54291527D01*
X64682383Y-54291526D01*
X64843714Y-54259441D01*
X64936566Y-54240975D01*
X64940479Y-54239647D01*
X65181981Y-54157677D01*
X65181989Y-54157674D01*
X65185886Y-54156351D01*
X65422027Y-54039908D01*
X65425442Y-54037627D01*
X65425446Y-54037624D01*
X65637522Y-53895925D01*
X65640948Y-53893636D01*
X65644050Y-53890916D01*
X65835800Y-53722761D01*
X65835806Y-53722755D01*
X65838902Y-53720040D01*
X66012504Y-53522090D01*
X66014790Y-53518669D01*
X66014796Y-53518661D01*
X66156487Y-53306606D01*
X66158781Y-53303173D01*
X66166131Y-53288270D01*
X66273402Y-53070745D01*
X66273402Y-53070744D01*
X66275231Y-53067036D01*
X66276727Y-53062631D01*
X66358533Y-52821629D01*
X66358535Y-52821623D01*
X66359861Y-52817718D01*
X66411224Y-52559486D01*
X66416459Y-52479601D01*
X66426184Y-52331169D01*
X66427660Y-52318502D01*
X66428400Y-52314106D01*
X66428401Y-52314099D01*
X66429206Y-52309312D01*
X66429359Y-52296760D01*
X66428259Y-52289076D01*
X66425403Y-52269140D01*
X66424130Y-52251275D01*
X66424130Y-46350010D01*
X66425876Y-46329108D01*
X66428399Y-46314111D01*
X66428399Y-46314107D01*
X66429206Y-46309312D01*
X66429359Y-46296760D01*
X66428348Y-46289706D01*
X66427347Y-46280094D01*
X66411485Y-46038150D01*
X66411484Y-46038142D01*
X66411215Y-46034038D01*
X66359847Y-45775813D01*
X66358526Y-45771922D01*
X66358524Y-45771914D01*
X66276536Y-45530396D01*
X66275214Y-45526501D01*
X66273395Y-45522811D01*
X66167938Y-45308971D01*
X66158764Y-45290368D01*
X66012489Y-45071455D01*
X66009777Y-45068363D01*
X66009772Y-45068356D01*
X65841602Y-44876596D01*
X65838893Y-44873507D01*
X65835804Y-44870798D01*
X65644044Y-44702628D01*
X65644037Y-44702623D01*
X65640945Y-44699911D01*
X65422032Y-44553636D01*
X65185899Y-44437186D01*
X65115288Y-44413216D01*
X64940486Y-44353876D01*
X64940478Y-44353874D01*
X64936587Y-44352553D01*
X64678362Y-44301185D01*
X64674252Y-44300916D01*
X64674248Y-44300915D01*
X64577646Y-44294582D01*
X64450027Y-44286214D01*
X64437375Y-44284739D01*
X64434452Y-44284247D01*
X64432984Y-44284000D01*
X64432981Y-44284000D01*
X64428192Y-44283194D01*
X64422078Y-44283119D01*
X64420505Y-44283100D01*
X64420501Y-44283100D01*
X64415640Y-44283041D01*
X64403803Y-44284736D01*
X64388005Y-44286998D01*
X64370145Y-44288270D01*
X41549867Y-44288270D01*
X41528968Y-44286525D01*
X41527125Y-44286215D01*
X41509158Y-44283193D01*
X41504294Y-44283134D01*
X41504293Y-44283134D01*
X41503245Y-44283121D01*
X41496606Y-44283041D01*
X41489559Y-44284051D01*
X41479941Y-44285053D01*
X41238002Y-44300921D01*
X41237998Y-44300921D01*
X41233889Y-44301191D01*
X41029155Y-44341922D01*
X40979755Y-44351750D01*
X40975668Y-44352563D01*
X40971769Y-44353887D01*
X40971764Y-44353888D01*
X40844283Y-44397166D01*
X40726361Y-44437199D01*
X40722671Y-44439019D01*
X40493933Y-44551825D01*
X40493930Y-44551827D01*
X40490233Y-44553650D01*
X40271324Y-44699924D01*
X40268222Y-44702644D01*
X40268216Y-44702649D01*
X40083543Y-44864605D01*
X40073379Y-44873519D01*
X40070663Y-44876616D01*
X39902509Y-45068356D01*
X39902504Y-45068362D01*
X39899784Y-45071464D01*
X39753510Y-45290373D01*
X39751687Y-45294070D01*
X39751685Y-45294073D01*
X39744338Y-45308971D01*
X39637059Y-45526501D01*
X39552423Y-45775808D01*
X39551619Y-45779851D01*
X39551618Y-45779854D01*
X39545416Y-45811031D01*
X39501051Y-46034029D01*
X39500781Y-46038138D01*
X39500781Y-46038142D01*
X39486075Y-46262364D01*
X39484598Y-46275026D01*
X39483055Y-46284194D01*
X39482901Y-46296746D01*
X39483591Y-46301564D01*
X39483591Y-46301568D01*
X39486858Y-46324386D01*
X39488130Y-46342242D01*
X39488130Y-52243517D01*
X39486383Y-52264422D01*
X39483054Y-52284208D01*
X39482901Y-52296760D01*
X32540630Y-52296760D01*
X32540630Y-22631270D01*
X32560632Y-22563149D01*
X32614288Y-22516656D01*
X32666630Y-22505270D01*
X36983215Y-22505270D01*
X37051336Y-22525272D01*
G37*
%TD.AperFunction*%
M02*
