%TF.GenerationSoftware,KiCad,Pcbnew,(6.0.7-1)-1*%
%TF.CreationDate,2022-11-17T19:45:25+01:00*%
%TF.ProjectId,LittleBenPanelv2,4c697474-6c65-4426-956e-50616e656c76,rev?*%
%TF.SameCoordinates,Original*%
%TF.FileFunction,Profile,NP*%
%FSLAX46Y46*%
G04 Gerber Fmt 4.6, Leading zero omitted, Abs format (unit mm)*
G04 Created by KiCad (PCBNEW (6.0.7-1)-1) date 2022-11-17 19:45:25*
%MOMM*%
%LPD*%
G01*
G04 APERTURE LIST*
%TA.AperFunction,Profile*%
%ADD10C,0.200000*%
%TD*%
G04 APERTURE END LIST*
D10*
X37266130Y-26746770D02*
X40798130Y-26746770D01*
X36120153Y-25903765D02*
G75*
G03*
X37266135Y-26746771I1145647J356965D01*
G01*
X67120153Y-148303765D02*
G75*
G03*
X68266135Y-149146771I1145647J356965D01*
G01*
X40798130Y-23246770D02*
X37266130Y-23246770D01*
X71798126Y-26746753D02*
G75*
G03*
X72944126Y-25903770I374J1199953D01*
G01*
X40798130Y-145646770D02*
X37266130Y-145646770D01*
X67120149Y-24089776D02*
G75*
G03*
X67120132Y-25903769I2911951J-907024D01*
G01*
X41944127Y-25903770D02*
G75*
G03*
X41944128Y-24089772I-2911997J907000D01*
G01*
X68266133Y-23246792D02*
G75*
G03*
X67120134Y-24089771I-333J-1200008D01*
G01*
X72532130Y-122446770D02*
G75*
G03*
X72532130Y-122446770I-3000000J0D01*
G01*
X40798126Y-26746753D02*
G75*
G03*
X41944126Y-25903770I374J1199953D01*
G01*
X39996630Y-52296770D02*
G75*
G03*
X41496630Y-53796770I1499970J-30D01*
G01*
X64415630Y-44796770D02*
X41496630Y-44796770D01*
X36120132Y-146489771D02*
G75*
G03*
X36120132Y-148303769I2912008J-906999D01*
G01*
X41944183Y-24089752D02*
G75*
G03*
X40798126Y-23246770I-1145683J-357048D01*
G01*
X57132130Y-100996770D02*
G75*
G03*
X57132130Y-100996770I-3000000J0D01*
G01*
X72532130Y-100996770D02*
G75*
G03*
X72532130Y-100996770I-3000000J0D01*
G01*
X37266133Y-23246792D02*
G75*
G03*
X36120134Y-24089771I-333J-1200008D01*
G01*
X36120153Y-148303765D02*
G75*
G03*
X37266135Y-149146771I1145647J356965D01*
G01*
X44832130Y-68042770D02*
G75*
G03*
X44832130Y-68042770I-4500000J0D01*
G01*
X72944145Y-25903776D02*
G75*
G03*
X72944128Y-24089772I-2912045J906976D01*
G01*
X71798130Y-145646770D02*
X68266130Y-145646770D01*
X67120153Y-25903765D02*
G75*
G03*
X68266135Y-26746771I1145647J356965D01*
G01*
X71798130Y-23246770D02*
X68266130Y-23246770D01*
X40532130Y-131596770D02*
G75*
G03*
X40532130Y-131596770I-3000000J0D01*
G01*
X65915630Y-46296770D02*
G75*
G03*
X64415630Y-44796770I-1500030J-30D01*
G01*
X39996630Y-46296770D02*
X39996630Y-52296770D01*
X68266130Y-149146770D02*
X71798130Y-149146770D01*
X57132130Y-122446770D02*
G75*
G03*
X57132130Y-122446770I-3000000J0D01*
G01*
X41944183Y-146489752D02*
G75*
G03*
X40798126Y-145646770I-1145683J-357048D01*
G01*
X41944127Y-148303770D02*
G75*
G03*
X41944128Y-146489772I-2911997J907000D01*
G01*
X64415630Y-53796730D02*
G75*
G03*
X65915630Y-52296770I70J1499930D01*
G01*
X37266133Y-145646792D02*
G75*
G03*
X36120134Y-146489771I-333J-1200008D01*
G01*
X65915630Y-52296770D02*
X65915630Y-46296770D01*
X40798126Y-149146753D02*
G75*
G03*
X41944126Y-148303770I374J1199953D01*
G01*
X32032130Y-21996770D02*
X77412130Y-21996770D01*
X37266130Y-149146770D02*
X40798130Y-149146770D01*
X72944183Y-24089752D02*
G75*
G03*
X71798126Y-23246770I-1145683J-357048D01*
G01*
X68266130Y-26746770D02*
X71798130Y-26746770D01*
X36120132Y-24089771D02*
G75*
G03*
X36120132Y-25903769I2912008J-906999D01*
G01*
X32032130Y-150396770D02*
X32032130Y-21996770D01*
X40532130Y-116896770D02*
G75*
G03*
X40532130Y-116896770I-3000000J0D01*
G01*
X71798126Y-149146753D02*
G75*
G03*
X72944126Y-148303770I374J1199953D01*
G01*
X68266133Y-145646792D02*
G75*
G03*
X67120134Y-146489771I-333J-1200008D01*
G01*
X72532130Y-133096770D02*
G75*
G03*
X72532130Y-133096770I-3000000J0D01*
G01*
X57132130Y-111596770D02*
G75*
G03*
X57132130Y-111596770I-3000000J0D01*
G01*
X77412130Y-150396770D02*
X32032130Y-150396770D01*
X72944145Y-148303776D02*
G75*
G03*
X72944128Y-146489772I-2912045J906976D01*
G01*
X77412130Y-21996770D02*
X77412130Y-150396770D01*
X67120149Y-146489776D02*
G75*
G03*
X67120132Y-148303769I2911951J-907024D01*
G01*
X62379130Y-67996770D02*
G75*
G03*
X62379130Y-67996770I-6900000J0D01*
G01*
X72944183Y-146489752D02*
G75*
G03*
X71798126Y-145646770I-1145683J-357048D01*
G01*
X57132130Y-133096770D02*
G75*
G03*
X57132130Y-133096770I-3000000J0D01*
G01*
X76495130Y-67996770D02*
G75*
G03*
X76495130Y-67996770I-6900000J0D01*
G01*
X41496630Y-44796770D02*
G75*
G03*
X39996630Y-46296770I70J-1500070D01*
G01*
X72532130Y-111596770D02*
G75*
G03*
X72532130Y-111596770I-3000000J0D01*
G01*
X41496630Y-53796770D02*
X64415630Y-53796770D01*
M02*
