%TF.GenerationSoftware,KiCad,Pcbnew,(6.0.7-1)-1*%
%TF.CreationDate,2022-11-17T19:45:24+01:00*%
%TF.ProjectId,LittleBenPanelv2,4c697474-6c65-4426-956e-50616e656c76,rev?*%
%TF.SameCoordinates,Original*%
%TF.FileFunction,Legend,Top*%
%TF.FilePolarity,Positive*%
%FSLAX46Y46*%
G04 Gerber Fmt 4.6, Leading zero omitted, Abs format (unit mm)*
G04 Created by KiCad (PCBNEW (6.0.7-1)-1) date 2022-11-17 19:45:24*
%MOMM*%
%LPD*%
G01*
G04 APERTURE LIST*
%ADD10C,0.200000*%
%ADD11C,0.500000*%
%ADD12C,0.300000*%
G04 APERTURE END LIST*
D10*
X45209972Y-36281539D02*
X43940987Y-38902971D01*
X60520477Y-148595098D02*
G75*
G03*
X60685998Y-148429497I823J164698D01*
G01*
X51760706Y-30633543D02*
X51902738Y-30836656D01*
X52059171Y-31017902D01*
X52227548Y-31175673D01*
X52405414Y-31308362D01*
X52590313Y-31414362D01*
X52779789Y-31492067D01*
X53019331Y-31546957D01*
X53162652Y-31556159D01*
X56298691Y-39404520D02*
X56424101Y-39404520D01*
X55792100Y-148427500D02*
X55886690Y-148427500D01*
X47770313Y-31833990D02*
X47796547Y-31626693D01*
X47746967Y-31428609D01*
X47674548Y-31316552D01*
X62316336Y-36928538D02*
G75*
G03*
X62096794Y-36709064I-218336J1138D01*
G01*
X51184165Y-33329681D02*
X51184165Y-33329681D01*
X64586350Y-147460020D02*
X65981460Y-147460020D01*
X50938673Y-33221287D02*
X51116726Y-33316037D01*
X51184463Y-33321547D01*
X46885191Y-37276975D02*
X45612734Y-39906377D01*
X53340230Y-26717803D02*
X53189843Y-26547133D01*
X53031959Y-26383861D01*
X52866874Y-26228155D01*
X52694888Y-26080182D01*
X52516299Y-25940111D01*
X52331406Y-25808109D01*
X52140508Y-25684344D01*
X51943902Y-25568983D01*
X51741888Y-25462196D01*
X51534765Y-25364149D01*
X51322830Y-25275010D01*
X51106383Y-25194947D01*
X50885721Y-25124129D01*
X50661145Y-25062722D01*
X50432952Y-25010895D01*
X50201441Y-24968816D01*
X66923903Y-39406523D02*
G75*
G03*
X67143359Y-39625997I218397J-1077D01*
G01*
X47607448Y-31812531D02*
X47595372Y-31608944D01*
X47556806Y-31552678D01*
X47298836Y-31425351D02*
X47162815Y-31580075D01*
X47139351Y-31712273D01*
X51864847Y-30552810D02*
X52005807Y-30752677D01*
X52162542Y-30930648D01*
X52332002Y-31084398D01*
X52511137Y-31211604D01*
X52696897Y-31309942D01*
X52886232Y-31377088D01*
X52962284Y-31394693D01*
X72033021Y-39626000D02*
X72189791Y-39626000D01*
X45247770Y-146984100D02*
X46075370Y-146984100D01*
X62033530Y-148571398D02*
G75*
G03*
X62128103Y-148429504I-118730J181598D01*
G01*
X52127476Y-147291482D02*
G75*
G03*
X52009226Y-147173265I-323976J-205818D01*
G01*
X54704690Y-148593020D02*
X54822920Y-148593020D01*
X50259732Y-148497424D02*
G75*
G03*
X50590773Y-148402849I-7932J654424D01*
G01*
X51056591Y-32680966D02*
X50909128Y-32821531D01*
X50871820Y-32979932D01*
X50593472Y-37071865D02*
X50054484Y-36118231D01*
X55953793Y-39623968D02*
G75*
G03*
X56173268Y-39404523I1207J218268D01*
G01*
X55768476Y-147292482D02*
G75*
G03*
X55650226Y-147174265I-323976J-205818D01*
G01*
X47661808Y-31819497D02*
X47669236Y-31613089D01*
X47596025Y-31474319D01*
X51393418Y-32742601D02*
X51212028Y-32655630D01*
X51056591Y-32680966D01*
X50610653Y-29216427D02*
X50580542Y-29261416D01*
X50901119Y-32988251D02*
X50977343Y-33180501D01*
X51157688Y-33269514D01*
X51186351Y-33270368D01*
X52032870Y-148568370D02*
X52269330Y-148568370D01*
X51187161Y-33254376D02*
X51187161Y-33254376D01*
X60184981Y-37461560D02*
X60184981Y-39123330D01*
X45052636Y-25933738D02*
X44844452Y-25889887D01*
X44641106Y-25915047D01*
X44454777Y-26002748D01*
X44297648Y-26146521D01*
X44181899Y-26339896D01*
X44154618Y-26414259D01*
X72409346Y-37964228D02*
G75*
G03*
X72189794Y-37744754I-218346J1128D01*
G01*
X60733275Y-147199947D02*
G75*
G03*
X59905694Y-147460021I-306875J-470253D01*
G01*
X50264376Y-36295886D02*
X50445127Y-36419067D01*
X50642420Y-36499062D01*
X50848924Y-36532951D01*
X50890685Y-36533940D01*
X49767490Y-38097556D02*
X49964469Y-38160907D01*
X50161510Y-38096400D01*
X50248978Y-37985051D01*
X59551000Y-147176270D02*
X59432770Y-147176270D01*
X51185254Y-33299499D02*
X51185254Y-33299499D01*
X63901370Y-147932940D02*
X63901370Y-147720120D01*
X65981460Y-147460020D02*
X66028750Y-147578250D01*
X50425247Y-148544731D02*
G75*
G03*
X50708992Y-148237330I-389447J644131D01*
G01*
X66767101Y-39469230D02*
X66767101Y-36772770D01*
X49842170Y-27538885D02*
X50041546Y-27574756D01*
X50238364Y-27618639D01*
X50432387Y-27670419D01*
X50623375Y-27729985D01*
X50872896Y-27821318D01*
X51116037Y-27926021D01*
X51352234Y-28043825D01*
X51580922Y-28174461D01*
X51801540Y-28317661D01*
X51274982Y-35039015D02*
X51088324Y-34940063D01*
X50888243Y-34946405D01*
X50721819Y-35021215D01*
X52716432Y-32730964D02*
X52574291Y-32976092D01*
X52399081Y-33197503D01*
X52192868Y-33394303D01*
X51957722Y-33565599D01*
X51695709Y-33710495D01*
X51507130Y-33791986D01*
X51308142Y-33861082D01*
X51099358Y-33917518D01*
X50881391Y-33961031D01*
X50654853Y-33991354D01*
X50420358Y-34008224D01*
X50178519Y-34011375D01*
X49929947Y-34000542D01*
X49803328Y-33989800D01*
X50852316Y-32974762D02*
X50915146Y-33168834D01*
X50952176Y-33212909D01*
X59811100Y-147152620D02*
X59811100Y-148429500D01*
X43226529Y-25346042D02*
X43418162Y-25408420D01*
X43596298Y-25312612D01*
X43614605Y-25288577D01*
X47128329Y-31998193D02*
X47302177Y-32113740D01*
X47406899Y-32128376D01*
X48334240Y-39121541D02*
X48795294Y-37858118D01*
X49791455Y-35885136D02*
X49845478Y-35786124D01*
X47082914Y-31694423D02*
X47141137Y-31902935D01*
X47298756Y-32042192D01*
X47409054Y-32062586D01*
X45386094Y-31362598D02*
X45488435Y-31534642D01*
X45598967Y-31703611D01*
X45717402Y-31869244D01*
X45843457Y-32031282D01*
X45976846Y-32189466D01*
X46117284Y-32343537D01*
X46264485Y-32493234D01*
X46418164Y-32638298D01*
X46578037Y-32778470D01*
X46743817Y-32913490D01*
X46915220Y-33043100D01*
X47091961Y-33167039D01*
X47273754Y-33285047D01*
X47460313Y-33396867D01*
X47651355Y-33502237D01*
X47846594Y-33600900D01*
X51393350Y-33080439D02*
X51376669Y-32881112D01*
X51340219Y-32835300D01*
X51890997Y-148592018D02*
G75*
G03*
X52056518Y-148426497I903J164618D01*
G01*
X52151100Y-147149620D02*
X52151100Y-148426500D01*
X45850689Y-38545893D02*
X45956694Y-38375115D01*
X46026391Y-38175609D01*
X46042401Y-38067118D01*
X74165101Y-39626000D02*
X74321871Y-39626000D01*
X52693211Y-39624000D02*
X52442371Y-39624000D01*
X47686040Y-31294130D02*
X47514329Y-31174730D01*
X47303552Y-31166733D01*
X47229570Y-31195862D01*
X51414989Y-35417882D02*
X51385577Y-35216903D01*
X51274982Y-35039015D01*
X46652418Y-25903419D02*
X46480269Y-26017551D01*
X46329541Y-26149417D01*
X46178442Y-26328987D01*
X46061562Y-26529416D01*
X45980742Y-26748154D01*
X45947805Y-26902890D01*
X47101379Y-31700891D02*
X47155525Y-31895148D01*
X47194169Y-31947960D01*
X51429112Y-32680013D02*
X51254161Y-32582443D01*
X51044382Y-32600611D01*
X51031692Y-32606162D01*
X51358285Y-32804476D02*
X51163868Y-32733860D01*
X51082427Y-32754777D01*
X60812064Y-39593640D02*
G75*
G03*
X61156960Y-38997915I-343964J596840D01*
G01*
X49928690Y-147102330D02*
X49455770Y-147173270D01*
X59905690Y-147105330D02*
X59905690Y-148429500D01*
X48670793Y-37870693D02*
X48601278Y-38061248D01*
X48514569Y-38298946D01*
X48436369Y-38513320D01*
X48359996Y-38722687D01*
X48280707Y-38940046D01*
X48231172Y-39075843D01*
X47739329Y-31829487D02*
X47762099Y-31626179D01*
X47696681Y-31422151D01*
X47652202Y-31361032D01*
X73945661Y-38121004D02*
G75*
G03*
X73757502Y-37776112I-414561J-2396D01*
G01*
X55792100Y-146370310D02*
X55792100Y-146559480D01*
X47209582Y-148379237D02*
G75*
G03*
X48250038Y-148379209I520218J385137D01*
G01*
X51740702Y-32808142D02*
X51906111Y-32936430D01*
X52068705Y-33074443D01*
X52171467Y-33207911D01*
X48804345Y-40313230D02*
X49005920Y-40385493D01*
X49210428Y-40421637D01*
X49303656Y-40425703D01*
X53226242Y-36645386D02*
G75*
G03*
X53069457Y-36833476I109558J-250714D01*
G01*
X55792100Y-147150620D02*
X55792100Y-148427500D01*
X45823089Y-27719741D02*
X45872871Y-27513066D01*
X45893644Y-27305759D01*
X45886710Y-27100848D01*
X45853374Y-26901362D01*
X45770108Y-26649055D01*
X45645311Y-26418959D01*
X45482073Y-26218254D01*
X45283485Y-26054120D01*
X45052636Y-25933738D01*
X50756290Y-147291500D02*
X50709000Y-147338790D01*
X48234892Y-37100028D02*
X48337205Y-37280959D01*
X48439507Y-37461779D01*
X48544106Y-37646657D01*
X48650145Y-37834140D01*
X48670793Y-37870693D01*
X51031692Y-32606162D02*
X50878489Y-32738716D01*
X50814253Y-32934755D01*
X50813742Y-32963507D01*
X54350000Y-148569370D02*
X54539170Y-148569370D01*
X47185708Y-31727112D02*
X47253882Y-31902907D01*
X47596025Y-31474319D02*
X47413727Y-31385549D01*
X47294757Y-31411951D01*
X50580542Y-29261416D02*
X50427786Y-29119552D01*
X50258739Y-28986385D01*
X50133304Y-28937811D01*
X49928690Y-148166390D02*
X49928690Y-147102330D01*
X51506919Y-33093457D02*
X51525703Y-32891968D01*
X51432386Y-32700963D01*
X51422926Y-32691075D01*
X60165790Y-148595020D02*
X59432770Y-148595020D01*
X51188262Y-33224539D02*
X51369859Y-33125202D01*
X51393350Y-33080439D01*
X47556806Y-31552678D02*
X47361331Y-31491680D01*
X47323473Y-31505666D01*
X50989051Y-33011273D02*
X51049231Y-33147792D01*
X57754492Y-147293530D02*
G75*
G03*
X57021524Y-147293503I-366492J-219270D01*
G01*
X62388210Y-148595020D02*
X62482790Y-148595020D01*
X50998249Y-33014227D02*
X51055538Y-33143616D01*
X47409054Y-32062586D02*
X47409054Y-32062586D01*
X45247770Y-147196920D02*
X45247770Y-146984100D01*
X68617011Y-38371831D02*
G75*
G03*
X68115337Y-38121009I-532411J-437769D01*
G01*
X50570959Y-37952170D02*
X49887970Y-39824900D01*
X47428886Y-28747769D02*
X47674777Y-28779152D01*
X47916901Y-28779565D01*
X48152186Y-28749693D01*
X48377559Y-28690221D01*
X48589950Y-28601836D01*
X48786286Y-28485224D01*
X48859637Y-28430829D01*
X45341319Y-29877330D02*
X45393864Y-29977453D01*
X53445708Y-36614035D02*
G75*
G03*
X53226235Y-36833478I-1208J-218265D01*
G01*
X51063268Y-33138416D02*
X51190392Y-33186618D01*
X49786809Y-147291504D02*
G75*
G03*
X49692232Y-147173274I-129309J-6496D01*
G01*
X54539182Y-148427498D02*
G75*
G03*
X54704684Y-148593018I164618J-902D01*
G01*
X51967722Y-30472782D02*
X51854333Y-30270321D01*
X51764503Y-30062873D01*
X51698216Y-29853631D01*
X51655462Y-29645788D01*
X51636228Y-29442537D01*
X51635041Y-29376360D01*
X47602014Y-31463327D02*
X47413895Y-31371271D01*
X47291084Y-31398518D01*
X57092428Y-148523111D02*
G75*
G03*
X57423495Y-148617665I280972J356911D01*
G01*
X51187161Y-33254376D02*
X51374534Y-33167707D01*
X51425693Y-33084035D01*
X45612734Y-39906377D02*
X45507919Y-40077986D01*
X45355309Y-40237964D01*
X45178220Y-40351616D01*
X44985239Y-40415793D01*
X44842423Y-40429600D01*
X47407371Y-32111919D02*
X47601943Y-32041746D01*
X47729561Y-31876507D01*
X47747014Y-31831144D01*
X47409462Y-32046457D02*
X47593677Y-31968111D01*
X47684590Y-31823026D01*
X53940386Y-30951188D02*
X54010182Y-30761650D01*
X54079979Y-30576078D01*
X47412223Y-31980782D02*
X47588711Y-31881808D01*
X47622847Y-31814500D01*
X43108252Y-34752206D02*
X43320603Y-34743473D01*
X43516535Y-34649954D01*
X43677879Y-34504378D01*
X43710243Y-34464873D01*
X63073770Y-147199920D02*
X63073770Y-146987100D01*
X72534691Y-39406520D02*
X72660100Y-39406520D01*
X46130368Y-32082758D02*
X45966275Y-31884793D01*
X45816984Y-31683733D01*
X45682653Y-31480245D01*
X45563443Y-31274994D01*
X45459513Y-31068646D01*
X45371024Y-30861867D01*
X45298135Y-30655323D01*
X45241006Y-30449680D01*
X45199796Y-30245604D01*
X45174667Y-30043761D01*
X45167471Y-29746639D01*
X45197354Y-29458287D01*
X45264854Y-29180951D01*
X45370512Y-28916881D01*
X49692230Y-147173270D02*
X49834100Y-147149620D01*
X51098987Y-32804234D02*
X50972754Y-32966031D01*
X50969731Y-33006178D01*
X50980203Y-33194277D02*
X51164837Y-33276756D01*
X51186333Y-33277094D01*
X66923871Y-38121000D02*
X67895851Y-38121000D01*
X56974243Y-148452132D02*
G75*
G03*
X57423500Y-148617662I384057J349932D01*
G01*
X47449777Y-28608865D02*
X47228454Y-28552772D01*
X47020634Y-28472649D01*
X46828150Y-28370731D01*
X46652836Y-28249258D01*
X46496526Y-28110467D01*
X46361055Y-27956596D01*
X46248256Y-27789883D01*
X46136296Y-27551491D01*
X46072251Y-27299552D01*
X46058277Y-27104899D01*
X47396742Y-31877711D02*
X47396742Y-31877711D01*
X51186333Y-33277094D02*
X51186333Y-33277094D01*
X51334356Y-32845668D02*
X51137192Y-32791506D01*
X51098987Y-32804234D01*
X51116100Y-32853139D02*
X51008789Y-33016451D01*
X59777371Y-37743750D02*
X60059561Y-37743750D01*
X53540282Y-27202202D02*
X53394819Y-26998278D01*
X53238635Y-26802748D01*
X53072191Y-26615900D01*
X52895944Y-26438023D01*
X52710355Y-26269404D01*
X52515884Y-26110332D01*
X52312990Y-25961094D01*
X52102132Y-25821980D01*
X51883769Y-25693276D01*
X51658362Y-25575272D01*
X51426370Y-25468256D01*
X51188252Y-25372515D01*
X50944468Y-25288338D01*
X50695478Y-25216013D01*
X50441740Y-25155828D01*
X50183715Y-25108072D01*
X51772770Y-148592020D02*
X51891000Y-148592020D01*
X52028181Y-28485474D02*
X52074395Y-28456565D01*
X45055258Y-28666853D02*
X44978940Y-28896340D01*
X44925204Y-29133683D01*
X44893919Y-29377825D01*
X44884956Y-29627713D01*
X44898185Y-29882292D01*
X44933477Y-30140506D01*
X44990703Y-30401302D01*
X45069733Y-30663625D01*
X45170438Y-30926421D01*
X45292688Y-31188633D01*
X45386094Y-31362598D01*
X59716520Y-148429500D02*
X59716520Y-147341790D01*
X73757503Y-37776092D02*
G75*
G03*
X72660105Y-38120998I-406903J-623608D01*
G01*
X57708789Y-37681036D02*
G75*
G03*
X57865565Y-37555626I-224489J441336D01*
G01*
X56141922Y-39592668D02*
G75*
G03*
X56298692Y-39404518I-34422J188068D01*
G01*
X46028080Y-147811710D02*
X45318710Y-147811710D01*
X42509898Y-34397828D02*
X42569328Y-34601213D01*
X42661249Y-34781970D01*
X42814864Y-34971117D01*
X43003150Y-35113420D01*
X43217165Y-35202499D01*
X43447969Y-35231972D01*
X43638690Y-35208346D01*
X73945621Y-38121000D02*
X73945621Y-39406520D01*
X47282060Y-31371522D02*
X47137701Y-31526174D01*
X47101379Y-31700891D01*
X47412223Y-31980782D02*
X47412223Y-31980782D01*
X59669230Y-147176270D02*
X59811100Y-147152620D01*
X48260116Y-27655271D02*
X48515192Y-27687225D01*
X48770471Y-27732683D01*
X49025181Y-27791244D01*
X49278549Y-27862505D01*
X49529802Y-27946066D01*
X49778168Y-28041526D01*
X50022875Y-28148484D01*
X50263149Y-28266538D01*
X50498219Y-28395288D01*
X50727311Y-28534332D01*
X50949653Y-28683269D01*
X51164473Y-28841698D01*
X51370998Y-29009218D01*
X51568454Y-29185428D01*
X51756071Y-29369926D01*
X51933075Y-29562312D01*
X52029060Y-32597365D02*
X52029060Y-32597365D01*
X51055538Y-33143616D02*
X51189202Y-33194786D01*
X68083981Y-38121000D02*
X66923871Y-38121000D01*
X47045639Y-31683182D02*
X47090949Y-31879948D01*
X47154865Y-31977755D01*
X48439168Y-148899427D02*
G75*
G03*
X48746600Y-149017640I199832J60827D01*
G01*
X59902789Y-37681036D02*
G75*
G03*
X60059565Y-37555626I-224489J441336D01*
G01*
X51381578Y-32762816D02*
X51190188Y-32680047D01*
X51065168Y-32705227D01*
X51048127Y-32656374D02*
X50897712Y-32795293D01*
X50852316Y-32974762D01*
X51399378Y-32731900D02*
X51212585Y-32642013D01*
X51052514Y-32668159D01*
X52056527Y-147338793D02*
G75*
G03*
X51890997Y-147173273I-164627J893D01*
G01*
X47064403Y-31688897D02*
X47111486Y-31883522D01*
X47168057Y-31967676D01*
X48589399Y-27059531D02*
X48280708Y-27023262D01*
X47979279Y-27007245D01*
X47686064Y-27011048D01*
X47402016Y-27034236D01*
X47128087Y-27076376D01*
X46865231Y-27137036D01*
X46614400Y-27215781D01*
X46376547Y-27312179D01*
X46152624Y-27425796D01*
X45943585Y-27556199D01*
X45750382Y-27702954D01*
X45573968Y-27865629D01*
X45415296Y-28043789D01*
X45275319Y-28237002D01*
X45154988Y-28444834D01*
X45055258Y-28666853D01*
X51690045Y-35399994D02*
X51640227Y-35185203D01*
X51548186Y-34986467D01*
X51418437Y-34812273D01*
X51331723Y-34729227D01*
X47073481Y-31691779D02*
X47123516Y-31888938D01*
X47174427Y-31962627D01*
X60059567Y-37681043D02*
G75*
G03*
X60184986Y-37461564I-395267J371443D01*
G01*
X73820211Y-39406520D02*
X73945621Y-39406520D01*
X60875146Y-147460023D02*
G75*
G03*
X60733290Y-147199920I-312646J-1777D01*
G01*
X47148189Y-31982348D02*
X47318810Y-32092036D01*
X47407751Y-32103121D01*
X66610331Y-36835480D02*
X66610331Y-39406520D01*
X47406899Y-32128376D02*
X47598643Y-32063456D01*
X47729877Y-31910815D01*
X47762594Y-31833200D01*
X54444627Y-148427505D02*
G75*
G03*
X54539164Y-148569377I137373J-10895D01*
G01*
X43438310Y-35108448D02*
X43226450Y-35077985D01*
X43031587Y-34990804D01*
X42862574Y-34853217D01*
X42728261Y-34671536D01*
X42637501Y-34452073D01*
X42618457Y-34371614D01*
X52424046Y-31236523D02*
X52514556Y-31110943D01*
X50166249Y-25247261D02*
X49922737Y-25214504D01*
X49681178Y-25193775D01*
X49441944Y-25184824D01*
X49205405Y-25187402D01*
X48971933Y-25201259D01*
X48741899Y-25226147D01*
X48515674Y-25261815D01*
X48293630Y-25308014D01*
X48076138Y-25364495D01*
X47863569Y-25431009D01*
X47656295Y-25507307D01*
X47454686Y-25593138D01*
X47259115Y-25688254D01*
X47069951Y-25792406D01*
X46887568Y-25905343D01*
X46712336Y-26026818D01*
X47458204Y-31754433D02*
X47458204Y-31754433D01*
X44026768Y-39494210D02*
X44047595Y-39284165D01*
X44104365Y-39091703D01*
X44136053Y-39019695D01*
X53226231Y-39404520D02*
X53226231Y-36833480D01*
X55697527Y-147339793D02*
G75*
G03*
X55531997Y-147174273I-164627J893D01*
G01*
X45248661Y-38832978D02*
X45460944Y-38824312D01*
X45656888Y-38730873D01*
X45818302Y-38585379D01*
X45850689Y-38545893D01*
X42599523Y-34171818D02*
X42627207Y-33936337D01*
X42705737Y-33719833D01*
X42829403Y-33532094D01*
X42992496Y-33382906D01*
X43189306Y-33282054D01*
X43261416Y-33260871D01*
X50948073Y-26712251D02*
X50948073Y-26712251D01*
X50330797Y-36197228D02*
X50523145Y-36323293D01*
X50728166Y-36393198D01*
X50936296Y-36408047D01*
X51137971Y-36368941D01*
X51323627Y-36276983D01*
X51483702Y-36133276D01*
X51538427Y-36061551D01*
X73694791Y-39406520D02*
X73694791Y-38121000D01*
X51801540Y-28317661D02*
X51644016Y-28488495D01*
X51537139Y-28662669D01*
X51457325Y-28859936D01*
X51405601Y-29077910D01*
X51382992Y-29314209D01*
X51382127Y-29355207D01*
X51007974Y-33175655D02*
X51187652Y-33247021D01*
X57920074Y-147790063D02*
G75*
G03*
X57754543Y-147293502I-777874J16563D01*
G01*
X72660100Y-39406520D02*
X72660100Y-38121000D01*
X51340219Y-32835300D02*
X51142485Y-32776699D01*
X51094467Y-32791779D01*
X60686002Y-147460019D02*
G75*
G03*
X60567769Y-147247209I-256902J-3481D01*
G01*
X49511705Y-27498342D02*
X49720527Y-27521068D01*
X49842170Y-27538885D01*
X47406899Y-32128376D02*
X47406899Y-32128376D01*
X45709461Y-39965182D02*
X46982096Y-37335602D01*
X47411248Y-32013080D02*
X47411248Y-32013080D01*
X51450212Y-33086752D02*
X51455133Y-32882552D01*
X51381578Y-32762816D01*
X47115020Y-146558464D02*
G75*
G03*
X47115040Y-148355559I1047780J-898536D01*
G01*
X49250878Y-27531834D02*
X49189510Y-27769121D01*
X49084289Y-27983871D01*
X48939942Y-28173279D01*
X48761193Y-28334539D01*
X48552769Y-28464848D01*
X48319395Y-28561398D01*
X48065798Y-28621385D01*
X47865171Y-28640694D01*
X47796703Y-28642005D01*
X47612423Y-31440706D02*
X47434426Y-31344088D01*
X47282060Y-31371522D01*
X45318710Y-147102330D02*
X46028080Y-147102330D01*
X47412262Y-31972896D02*
X47412262Y-31972896D01*
X51186351Y-33270368D02*
X51186351Y-33270368D01*
X45915881Y-37670535D02*
X45724641Y-37577217D01*
X45513404Y-37597692D01*
X45333839Y-37689267D01*
X49303656Y-40425703D02*
X49505138Y-40405678D01*
X49715145Y-40334466D01*
X49891174Y-40216311D01*
X50025885Y-40056030D01*
X50092743Y-39918421D01*
X52151100Y-146322121D02*
G75*
G03*
X52151100Y-146558479I0J-118179D01*
G01*
X48143496Y-39633075D02*
X48233913Y-39817549D01*
X48357979Y-39985442D01*
X48511810Y-40132779D01*
X48691524Y-40255591D01*
X48804345Y-40313230D01*
X60875182Y-148429498D02*
G75*
G03*
X61040684Y-148595018I164618J-902D01*
G01*
X49845478Y-35786124D02*
X50018081Y-35932253D01*
X50177165Y-36067031D01*
X50329789Y-36196373D01*
X50330797Y-36197228D01*
X57865567Y-37681043D02*
G75*
G03*
X57990986Y-37461564I-395267J371443D01*
G01*
X52289609Y-32991465D02*
X52156013Y-32838873D01*
X52008278Y-32693470D01*
X51991332Y-32685750D01*
X54231796Y-147245173D02*
G75*
G03*
X53687917Y-147292505I-240996J-379227D01*
G01*
X55886690Y-147103330D02*
X55886690Y-148427500D01*
X51073329Y-32730141D02*
X50930877Y-32879971D01*
X50910705Y-32990476D01*
X52056520Y-148426500D02*
X52056520Y-147338790D01*
X64071269Y-37901518D02*
G75*
G03*
X64165338Y-39531936I1082231J-755482D01*
G01*
X43851097Y-39847217D02*
X43929281Y-40061274D01*
X44041179Y-40250771D01*
X44183701Y-40411409D01*
X44353756Y-40538886D01*
X50385528Y-30972432D02*
X50385528Y-30972432D01*
X53687924Y-147292512D02*
G75*
G03*
X53569691Y-147458026I340876J-368488D01*
G01*
X51021870Y-33166212D02*
X51188474Y-33231734D01*
X49375593Y-25185633D02*
X49595169Y-25190516D01*
X49816871Y-25205293D01*
X50040574Y-25230151D01*
X50165672Y-25248386D01*
X51353376Y-33075473D02*
X51311293Y-32886572D01*
X49376543Y-27555807D02*
X49379392Y-27353092D01*
X49860529Y-27398924D02*
X50086068Y-27440374D01*
X50308121Y-27492188D01*
X50526419Y-27554132D01*
X50740698Y-27625973D01*
X50950691Y-27707477D01*
X51156132Y-27798409D01*
X51356756Y-27898538D01*
X51552295Y-28007629D01*
X51742484Y-28125448D01*
X51927058Y-28251763D01*
X52046856Y-28340577D01*
X49834065Y-148190042D02*
G75*
G03*
X50330663Y-148544727I376135J1642D01*
G01*
X52881331Y-39592650D02*
X53257581Y-39592650D01*
X42401959Y-34423511D02*
X42456447Y-34618503D01*
X42563283Y-34838424D01*
X42707353Y-35026655D01*
X42882447Y-35177598D01*
X43082356Y-35285652D01*
X43300870Y-35345220D01*
X43438327Y-35355359D01*
X45931978Y-27111245D02*
X45948278Y-27323816D01*
X45995878Y-27531169D01*
X46072827Y-27730874D01*
X46177173Y-27920501D01*
X46306964Y-28097621D01*
X46460249Y-28259805D01*
X46635077Y-28404621D01*
X46829496Y-28529641D01*
X47041555Y-28632435D01*
X47269302Y-28710574D01*
X47428886Y-28747769D01*
X43261416Y-33260871D02*
X45689252Y-32676716D01*
X46982096Y-37335602D02*
X47032044Y-37196029D01*
X51189469Y-33201719D02*
X51363183Y-33090754D01*
X51369128Y-33077260D01*
X54444580Y-147505310D02*
X54444580Y-148427500D01*
X51189383Y-33209260D02*
X51364281Y-33106096D01*
X51377721Y-33078333D01*
X64541581Y-39657350D02*
X64604291Y-39657350D01*
X51189383Y-33209260D02*
X51189383Y-33209260D01*
X47657750Y-31350438D02*
X47478035Y-31236558D01*
X47275933Y-31251117D01*
X47249788Y-31263296D01*
X72816887Y-37901531D02*
G75*
G03*
X72660105Y-38120999I451913J-488569D01*
G01*
X60071210Y-148595020D02*
X60165790Y-148595020D01*
X63144710Y-147814710D02*
X63073770Y-147932940D01*
X54095208Y-29922796D02*
X54115704Y-29717723D01*
X54124486Y-29513519D01*
X54121802Y-29310475D01*
X54107897Y-29108887D01*
X54083020Y-28909046D01*
X54047416Y-28711248D01*
X54001334Y-28515786D01*
X53945020Y-28322953D01*
X53878722Y-28133043D01*
X53802685Y-27946350D01*
X53717158Y-27763168D01*
X53622388Y-27583789D01*
X53518621Y-27408508D01*
X53406104Y-27237618D01*
X53285084Y-27071413D01*
X53155810Y-26910187D01*
X53018526Y-26754232D01*
X52873482Y-26603844D01*
X52720923Y-26459315D01*
X52561096Y-26320939D01*
X52394250Y-26189011D01*
X52220630Y-26063822D01*
X52040483Y-25945667D01*
X51854058Y-25834841D01*
X51661600Y-25731635D01*
X51463358Y-25636345D01*
X51259577Y-25549263D01*
X51050505Y-25470683D01*
X50836390Y-25400900D01*
X50617477Y-25340206D01*
X50394014Y-25288895D01*
X50166249Y-25247261D01*
X51188474Y-33231734D02*
X51188474Y-33231734D01*
X61940021Y-39625000D02*
X62096791Y-39625000D01*
X50709028Y-147338793D02*
G75*
G03*
X50543477Y-147173273I-164628J893D01*
G01*
X60059552Y-37555620D02*
G75*
G03*
X60310393Y-36897189I-842652J698020D01*
G01*
X47406151Y-32144361D02*
X47406151Y-32144361D01*
X45807588Y-40023810D02*
X47080222Y-37394053D01*
X50688410Y-37286539D02*
X50607322Y-37096810D01*
X50593472Y-37071865D01*
X51184731Y-33314427D02*
X51184731Y-33314427D01*
X55673866Y-148569344D02*
G75*
G03*
X55792101Y-148427501I-25966J141844D01*
G01*
X51172271Y-32613704D02*
X50972795Y-32687735D01*
X50856267Y-32866945D01*
X50843038Y-32971465D01*
X47410888Y-32021317D02*
X47593969Y-31935330D01*
X47661808Y-31819497D01*
X45310933Y-36332196D02*
X44038175Y-38961599D01*
X46073787Y-26670561D02*
X45862052Y-26669785D01*
X45666430Y-26736046D01*
X45497825Y-26860376D01*
X45367141Y-27033811D01*
X45285282Y-27247384D01*
X45270731Y-27325946D01*
X51189469Y-33201719D02*
X51189469Y-33201719D01*
X74321871Y-39626000D02*
X73318541Y-39626000D01*
X61867997Y-148595018D02*
G75*
G03*
X62033518Y-148429497I903J164618D01*
G01*
X53826116Y-30890198D02*
X53701761Y-31047042D01*
X53629546Y-31117943D01*
X54350000Y-148427500D02*
X54350000Y-147458020D01*
X52657222Y-29800787D02*
X52498261Y-29540181D01*
X52321479Y-29288031D01*
X52127972Y-29045074D01*
X51918837Y-28812050D01*
X51695171Y-28589699D01*
X51458069Y-28378758D01*
X51208630Y-28179967D01*
X50947949Y-27994065D01*
X50677123Y-27821791D01*
X50397248Y-27663883D01*
X50109422Y-27521082D01*
X49814741Y-27394126D01*
X49514301Y-27283754D01*
X49209200Y-27190704D01*
X48900534Y-27115717D01*
X48589399Y-27059531D01*
X64008577Y-39437864D02*
G75*
G03*
X64604290Y-39657363I509323J464164D01*
G01*
X47692751Y-31823620D02*
X47706684Y-31613262D01*
X47618305Y-31429080D01*
X51188474Y-33231734D02*
X51367290Y-33141979D01*
X51401954Y-33081183D01*
X51184463Y-33321547D02*
X51375035Y-33256571D01*
X51499224Y-33091959D01*
X60567796Y-147247173D02*
G75*
G03*
X60023917Y-147294505I-240996J-379227D01*
G01*
X49893638Y-33667015D02*
X51265461Y-34827176D01*
X59905690Y-148429500D02*
X59905690Y-147460020D01*
X47409639Y-32054320D02*
X47599230Y-31973390D01*
X47692751Y-31823620D01*
X55697520Y-148427500D02*
X55697520Y-147339790D01*
X57865552Y-37555620D02*
G75*
G03*
X58116393Y-36897189I-842652J698020D01*
G01*
X47674548Y-31316552D02*
X47510128Y-31202577D01*
X47308306Y-31194976D01*
X47237468Y-31222801D01*
X51000905Y-33180260D02*
X51187161Y-33254376D01*
X47260863Y-31897462D02*
X47412875Y-31964402D01*
X57920060Y-147790060D02*
X57825480Y-147837350D01*
X66028750Y-147578250D02*
X66028750Y-147365440D01*
X47270089Y-31330837D02*
X47125126Y-31476160D01*
X47073461Y-31677185D01*
X47073481Y-31691779D01*
X48273769Y-149017599D02*
G75*
G03*
X48746608Y-149017640I236431J130299D01*
G01*
X56926940Y-147837350D02*
X57991000Y-147837350D01*
X53283804Y-28868733D02*
X53050764Y-28936156D01*
X52826343Y-29025037D01*
X52647394Y-29118350D01*
X52480230Y-29235948D01*
X52308188Y-29432756D01*
X52235123Y-29678103D01*
X52272098Y-29895813D01*
X52408636Y-30143847D01*
X47253882Y-31902907D02*
X47412262Y-31972896D01*
X51188821Y-33216723D02*
X51188821Y-33216723D01*
X48517143Y-33333702D02*
X48527905Y-33263897D01*
X50930899Y-32995573D02*
X51007974Y-33175655D01*
X47618305Y-31429080D02*
X47435043Y-31329438D01*
X47278215Y-31357812D01*
X47115040Y-148355561D02*
X47162330Y-148450150D01*
X49511467Y-36853907D02*
X49511467Y-36853907D01*
X60402250Y-148595020D02*
X60520480Y-148595020D01*
X56052210Y-148593020D02*
X56146790Y-148593020D01*
X52442371Y-36614000D02*
X52693211Y-36614000D01*
X71030322Y-38622670D02*
G75*
G03*
X70873535Y-37901525I-1694222J9270D01*
G01*
X72660100Y-37650690D02*
X72660100Y-39406520D01*
X66767075Y-36772802D02*
G75*
G03*
X66390854Y-36616002I-371575J-361798D01*
G01*
X66390853Y-39626040D02*
G75*
G03*
X66767104Y-39469228I4647J518640D01*
G01*
X48037225Y-148024518D02*
G75*
G03*
X47587953Y-148615665I-224625J-295582D01*
G01*
X45431848Y-30025400D02*
X45948122Y-29310787D01*
X50898122Y-148355558D02*
G75*
G03*
X51063684Y-148521078I164678J-842D01*
G01*
X52151088Y-148426498D02*
G75*
G03*
X52269333Y-148568374I170512J21898D01*
G01*
X51933075Y-29562312D02*
X52097167Y-29760277D01*
X52246459Y-29961336D01*
X52380790Y-30164825D01*
X52500000Y-30370076D01*
X52603929Y-30576424D01*
X52692418Y-30783203D01*
X52765308Y-30989747D01*
X52822437Y-31195390D01*
X52863646Y-31399466D01*
X52888776Y-31601309D01*
X52895971Y-31898431D01*
X52866088Y-32186783D01*
X52798588Y-32464119D01*
X52692931Y-32728190D01*
X53827043Y-30889184D02*
X53913024Y-30705168D01*
X53956875Y-30544678D01*
X53475118Y-148427499D02*
G75*
G03*
X53569681Y-148569379I213282J39699D01*
G01*
X47240757Y-31912817D02*
X47411725Y-31989190D01*
X54229563Y-39623997D02*
G75*
G03*
X54762584Y-39561293I-17063J2441897D01*
G01*
X47168057Y-31967676D02*
X47342357Y-32072633D01*
X47408614Y-32078923D01*
X50398441Y-36099102D02*
X49815349Y-35605635D01*
X47167256Y-31721370D02*
X47240757Y-31912817D01*
X51433798Y-33085155D02*
X51431533Y-32876277D01*
X51369637Y-32783773D01*
X47407371Y-32111919D02*
X47407371Y-32111919D01*
X43774693Y-33589294D02*
X43774693Y-33589294D01*
X65043251Y-37838812D02*
G75*
G03*
X64008571Y-37838812I-517340J-498369D01*
G01*
X48368256Y-148994011D02*
G75*
G03*
X48533795Y-149112236I181844J79611D01*
G01*
X57708791Y-37681040D02*
X57583371Y-37743750D01*
X47700349Y-31824722D02*
X47717073Y-31621006D01*
X47632535Y-31427533D01*
X47623976Y-31417502D01*
X54250593Y-29468023D02*
X54244145Y-29247090D01*
X54224888Y-29026458D01*
X54192948Y-28806632D01*
X54148452Y-28588119D01*
X54091525Y-28371422D01*
X54022296Y-28157049D01*
X53940891Y-27945503D01*
X53847437Y-27737291D01*
X53742060Y-27532919D01*
X53624887Y-27332890D01*
X53540282Y-27202202D01*
X47407751Y-32103121D02*
X47407751Y-32103121D01*
X62482790Y-148595020D02*
X61749770Y-148595020D01*
X47408485Y-32086432D02*
X47599625Y-32013444D01*
X47718931Y-31841736D01*
X47723918Y-31827480D01*
X48547338Y-37882738D02*
X48129149Y-39029260D01*
X47406151Y-32144361D02*
X47606600Y-32076329D01*
X47743794Y-31916311D01*
X47777999Y-31834939D01*
X69901522Y-37838772D02*
G75*
G03*
X69901563Y-39437873I882078J-799528D01*
G01*
X73820179Y-39406523D02*
G75*
G03*
X73945626Y-39594646I182221J-14377D01*
G01*
X51441931Y-33086644D02*
X51443360Y-32879564D01*
X51375602Y-32773775D01*
X53069461Y-36833480D02*
X53069461Y-39467230D01*
X47204460Y-31728202D02*
X47286598Y-31910702D01*
X47408944Y-31955948D01*
X51425693Y-33084035D02*
X51423501Y-32883109D01*
X51363771Y-32794137D01*
X62096791Y-36709060D02*
X61940021Y-36709060D01*
X47411685Y-31997075D02*
X47589935Y-31905581D01*
X47638566Y-31816718D01*
X57376210Y-148617670D02*
X57423500Y-148617670D01*
X43662743Y-35328436D02*
X44665317Y-35086662D01*
X48344599Y-148355543D02*
G75*
G03*
X48344620Y-146558481I-1047699J898543D01*
G01*
X47716068Y-31827033D02*
X47735705Y-31625509D01*
X47661390Y-31428541D01*
X47635472Y-31395687D01*
X62104443Y-146537838D02*
G75*
G03*
X61986227Y-146395960I-154643J-8662D01*
G01*
X72189793Y-39625968D02*
G75*
G03*
X72409268Y-39406523I1207J218268D01*
G01*
X50862227Y-32976999D02*
X50928766Y-33172779D01*
X51105817Y-33290889D01*
X51185254Y-33299499D01*
X51377721Y-33078333D02*
X51349534Y-32878630D01*
X51328936Y-32855778D01*
X48302358Y-39302030D02*
X48334240Y-39121541D01*
X50803522Y-148355558D02*
G75*
G03*
X50969104Y-148521078I164678J-842D01*
G01*
X51256103Y-35854358D02*
X51360362Y-35673654D01*
X51411172Y-35475346D01*
X51414989Y-35417882D01*
X49455770Y-147173270D02*
X49574000Y-147173270D01*
X47307352Y-31451802D02*
X47176639Y-31604694D01*
X47158185Y-31717780D01*
X44668043Y-26851770D02*
X44799445Y-26626797D01*
X44896463Y-26388556D01*
X44959599Y-26141218D01*
X44989355Y-25888955D01*
X44986232Y-25635936D01*
X44950734Y-25386332D01*
X44883364Y-25144315D01*
X44784622Y-24914055D01*
X44655012Y-24699724D01*
X44495035Y-24505491D01*
X44371763Y-24389229D01*
X47408614Y-32078923D02*
X47408614Y-32078923D01*
X48290668Y-36966477D02*
X48098851Y-37023875D01*
X47901239Y-37066994D01*
X47698280Y-37095101D01*
X47490423Y-37107467D01*
X52074395Y-28456565D02*
X52260617Y-28382132D01*
X52315597Y-28370191D01*
X47208047Y-31937411D02*
X47389527Y-32029120D01*
X47410647Y-32029582D01*
X72409271Y-39406520D02*
X72409271Y-37964230D01*
X61986230Y-146395960D02*
X62128100Y-146372310D01*
X51538427Y-36061551D02*
X51634845Y-35876687D01*
X51687775Y-35672114D01*
X51698015Y-35528409D01*
X73005001Y-39626000D02*
X72033021Y-39626000D01*
X46075370Y-147196920D02*
X45247770Y-147196920D01*
X50697151Y-36086512D02*
X50898811Y-36091287D01*
X51098094Y-36004301D01*
X51256103Y-35854358D01*
X51369637Y-32783773D02*
X51180555Y-32706623D01*
X51073329Y-32730141D01*
X44771237Y-34935399D02*
X44812940Y-35161182D01*
X44873224Y-35380868D01*
X44951986Y-35593678D01*
X45049125Y-35798835D01*
X45164540Y-35995559D01*
X45298129Y-36183073D01*
X45356631Y-36255325D01*
X47408944Y-31500457D02*
X47234063Y-31610107D01*
X47204460Y-31728202D01*
X56643581Y-39624000D02*
X56769000Y-39624000D01*
X46998707Y-31668485D02*
X47040603Y-31871265D01*
X47121647Y-32002888D01*
X47080222Y-37394053D02*
X47106082Y-37337374D01*
X67989928Y-39626051D02*
G75*
G03*
X68115337Y-38121002I-118828J767651D01*
G01*
X59811100Y-148429500D02*
X59905690Y-148429500D01*
X48085931Y-28765824D02*
X49474581Y-30556014D01*
X51186596Y-33262192D02*
X51186596Y-33262192D01*
X51189202Y-33194786D02*
X51189202Y-33194786D01*
X57707244Y-147293497D02*
G75*
G03*
X57068816Y-147293497I-319214J-144142D01*
G01*
X54066250Y-148593020D02*
X54184480Y-148593020D01*
X67864501Y-39626000D02*
X67989921Y-39626000D01*
X53162336Y-31274827D02*
X52927414Y-31244434D01*
X52728437Y-31174094D01*
X52531436Y-31064708D01*
X52340996Y-30918037D01*
X52196449Y-30775036D01*
X52061385Y-30610198D01*
X51967722Y-30472782D01*
X47407678Y-28887377D02*
X47614008Y-28916137D01*
X47797336Y-28924395D01*
X49928663Y-148166395D02*
G75*
G03*
X50259727Y-148497436I329337J-1705D01*
G01*
X44395820Y-26973752D02*
X44601414Y-26939557D01*
X44677855Y-26823919D01*
X50803580Y-147149620D02*
X50685350Y-147173270D01*
X51185766Y-33284564D02*
X51185766Y-33284564D01*
X61940021Y-36709060D02*
X62567101Y-36615000D01*
X63901370Y-147720120D02*
X63073770Y-147720120D01*
X44842441Y-40676688D02*
X45063267Y-40650937D01*
X45272016Y-40576268D01*
X45463000Y-40456554D01*
X45630530Y-40295669D01*
X45748118Y-40132944D01*
X45807588Y-40023810D01*
X47245724Y-31250223D02*
X47093110Y-31393936D01*
X47022590Y-31589889D01*
X47017415Y-31674421D01*
X51008789Y-33016451D02*
X51063268Y-33138416D01*
X50952176Y-33212909D02*
X51136424Y-33304660D01*
X51184673Y-33307316D01*
X47846594Y-33600900D02*
X48148699Y-33736605D01*
X48452628Y-33853307D01*
X48757198Y-33951033D01*
X49061226Y-34029807D01*
X49363527Y-34089655D01*
X49662919Y-34130603D01*
X49958218Y-34152676D01*
X50248241Y-34155899D01*
X50531804Y-34140299D01*
X50807723Y-34105900D01*
X51074815Y-34052728D01*
X51331898Y-33980810D01*
X51577786Y-33890169D01*
X51811298Y-33780833D01*
X52031249Y-33652826D01*
X52236456Y-33506174D01*
X66028750Y-147365440D02*
X64515420Y-147365440D01*
X45689252Y-32676716D02*
X45865421Y-32531815D01*
X46054264Y-32402141D01*
X46254806Y-32288723D01*
X46466072Y-32192592D01*
X46687084Y-32114777D01*
X46916868Y-32056307D01*
X47154448Y-32018211D01*
X47398850Y-32001521D01*
X47680096Y-31305252D02*
X47512025Y-31188574D01*
X47305725Y-31180787D01*
X47233316Y-31209268D01*
X44665317Y-35086662D02*
X44711267Y-35289093D01*
X44772076Y-35486525D01*
X44847498Y-35678392D01*
X44937291Y-35864133D01*
X45041212Y-36043182D01*
X45159016Y-36214978D01*
X45209972Y-36281539D01*
X68083987Y-36710049D02*
G75*
G03*
X67645024Y-36615997I-488887J-1210351D01*
G01*
X53569690Y-148427500D02*
X53569690Y-147458020D01*
X62253561Y-36709060D02*
X62441691Y-36677710D01*
X60780580Y-147507310D02*
X60780580Y-148429500D01*
X70873602Y-37901498D02*
G75*
G03*
X70026985Y-37901528I-423302J-191202D01*
G01*
X50891633Y-32985087D02*
X50965282Y-33178348D01*
X50980203Y-33194277D01*
X43901605Y-33985930D02*
X43885155Y-33785404D01*
X43791634Y-33606736D01*
X43774693Y-33589294D01*
X51184165Y-33329681D02*
X51379607Y-33262787D01*
X51506919Y-33093457D01*
X51363771Y-32794137D02*
X51171778Y-32720205D01*
X51077846Y-32742599D01*
X55797021Y-39624000D02*
X55953791Y-39624000D01*
X58723640Y-148594020D02*
X58723640Y-148404850D01*
X42488679Y-34175361D02*
X42506081Y-34376897D01*
X42509898Y-34397828D01*
X59811118Y-148429499D02*
G75*
G03*
X59905681Y-148571379I213282J39699D01*
G01*
X47148107Y-31715143D02*
X47213862Y-31906813D01*
X47227165Y-31922640D01*
X50823653Y-32966798D02*
X50881956Y-33163679D01*
X50932017Y-33226677D01*
X45646228Y-32561055D02*
X45409634Y-32617794D01*
X45165042Y-32676649D01*
X44867242Y-32748353D01*
X44650624Y-32800527D01*
X44427572Y-32854261D01*
X44204973Y-32907892D01*
X43989713Y-32959761D01*
X43788677Y-33008207D01*
X43528857Y-33070823D01*
X43296486Y-33126830D01*
X43237877Y-33140958D01*
X51042388Y-33152458D02*
X51189383Y-33209260D01*
X52692931Y-32728190D02*
X52550790Y-32973318D01*
X52375580Y-33194729D01*
X52169368Y-33391529D01*
X51934221Y-33562825D01*
X51672209Y-33707721D01*
X51483629Y-33789212D01*
X51284641Y-33858308D01*
X51075857Y-33914744D01*
X50857890Y-33958257D01*
X50631353Y-33988580D01*
X50396858Y-34005450D01*
X50155018Y-34008601D01*
X49906446Y-33997768D01*
X49779827Y-33987026D01*
X47253940Y-31276125D02*
X47100705Y-31425540D01*
X47037703Y-31630981D01*
X47036250Y-31679596D01*
X47408112Y-32095229D02*
X47604141Y-32020172D01*
X47726493Y-31843579D01*
X47731606Y-31828917D01*
X45347012Y-28914107D02*
X45489152Y-28668978D01*
X45664362Y-28447567D01*
X45870574Y-28250767D01*
X46105721Y-28079471D01*
X46367733Y-27934575D01*
X46556313Y-27853084D01*
X46755301Y-27783988D01*
X46964085Y-27727552D01*
X47182052Y-27684039D01*
X47408589Y-27653716D01*
X47643084Y-27636846D01*
X47884924Y-27633695D01*
X48133496Y-27644528D01*
X48260116Y-27655271D01*
X60780580Y-148429500D02*
X60875170Y-148429500D01*
X50920930Y-32993052D02*
X51000905Y-33180260D01*
X72189791Y-37744750D02*
X72033021Y-37744750D01*
X62410297Y-36897185D02*
G75*
G03*
X62253567Y-36709055I-205097J-11515D01*
G01*
X68303448Y-36741432D02*
G75*
G03*
X67864498Y-36616005I-436348J-696268D01*
G01*
X43438327Y-35355359D02*
X43642114Y-35333192D01*
X43662743Y-35328436D01*
X54982061Y-39624000D02*
X55013421Y-38589310D01*
X47652202Y-31361032D02*
X47476761Y-31250060D01*
X47266643Y-31269889D01*
X47253940Y-31276125D01*
X51190392Y-33186618D02*
X51190392Y-33186618D01*
X45600563Y-27826563D02*
X45788925Y-27759161D01*
X45852211Y-27621028D01*
X47262169Y-31304059D02*
X47116394Y-31445452D01*
X47056460Y-31639830D01*
X47055077Y-31685824D01*
X49661960Y-35886553D02*
X50406411Y-37203291D01*
X45884814Y-30217890D02*
X45736531Y-30063661D01*
X45669414Y-29857812D01*
X45738519Y-29662225D01*
X45761364Y-29632662D01*
X46058277Y-27104899D02*
X46058277Y-27104899D01*
X52881331Y-39592630D02*
G75*
G03*
X53069459Y-39467232I-58931J292230D01*
G01*
X49870714Y-36877361D02*
X49680543Y-36814400D01*
X49511467Y-36853907D01*
X52029060Y-32597365D02*
X52208548Y-32717703D01*
X52347541Y-32881433D01*
X52357270Y-32911051D01*
X63073770Y-147720120D02*
X63073770Y-147932940D01*
X56298691Y-36927600D02*
G75*
G03*
X56298691Y-36614000I9J156800D01*
G01*
X48115688Y-28603224D02*
X48115688Y-28603224D01*
X73694791Y-39594650D02*
X73945621Y-39594650D01*
X63945851Y-38622670D02*
X65356791Y-38622670D01*
X58962961Y-38997920D02*
X58962961Y-38903850D01*
X54036930Y-31046023D02*
X54128973Y-30859496D01*
X54190267Y-30666779D01*
X54200263Y-30623319D01*
X58461288Y-39593623D02*
G75*
G03*
X58837540Y-39374163I-68688J550023D01*
G01*
X47646581Y-31373104D02*
X47475407Y-31265153D01*
X47270404Y-31284482D01*
X47258011Y-31290552D01*
X45915881Y-37670535D02*
X45915881Y-37670535D01*
X47278215Y-31357812D02*
X47135232Y-31505989D01*
X47092366Y-31697806D01*
X49989480Y-39871483D02*
X50673000Y-37998400D01*
X50476393Y-30847560D02*
X50385528Y-30972432D01*
X48533789Y-149112235D02*
G75*
G03*
X48746599Y-149017645I-9089J307135D01*
G01*
X50932017Y-33226677D02*
X51114686Y-33324042D01*
X51184165Y-33329681D01*
X46026940Y-30120940D02*
X45968063Y-30234813D01*
X54350002Y-147458019D02*
G75*
G03*
X54231769Y-147245209I-256902J-3481D01*
G01*
X45356631Y-36255325D02*
X45310933Y-36332196D01*
X73820211Y-38183710D02*
X73820211Y-39406520D01*
X66923871Y-36835480D02*
X66923871Y-39406520D01*
X50602664Y-37773098D02*
X50570959Y-37952170D01*
X64133961Y-37901512D02*
G75*
G03*
X64133977Y-39406523I1623439J-752488D01*
G01*
X62316271Y-39593650D02*
X62567101Y-39593650D01*
X47158185Y-31717780D02*
X47225724Y-31907361D01*
X47234401Y-31917406D01*
X72879581Y-39626000D02*
X73005001Y-39626000D01*
X60655288Y-39593623D02*
G75*
G03*
X61031540Y-39374163I-68688J550023D01*
G01*
X64008522Y-37838772D02*
G75*
G03*
X64008563Y-39437873I882078J-799528D01*
G01*
X50881730Y-32982510D02*
X50952864Y-33176674D01*
X50973100Y-33198876D01*
X57068808Y-147293500D02*
G75*
G03*
X57068809Y-148428502I1224492J-567500D01*
G01*
X68115354Y-38058325D02*
G75*
G03*
X68083984Y-36710060I-338354J666625D01*
G01*
X47407751Y-32103121D02*
X47597700Y-32034729D01*
X47722290Y-31873696D01*
X47739329Y-31829487D01*
X47408944Y-31500457D02*
X47408944Y-31500457D01*
X49952331Y-148544733D02*
G75*
G03*
X50425249Y-148544733I236459J383572D01*
G01*
X47227165Y-31922640D02*
X47410816Y-32005361D01*
X45629685Y-29461324D02*
X45668619Y-29358028D01*
X61040690Y-148595020D02*
X61158920Y-148595020D01*
X47311110Y-31466235D02*
X47181887Y-31622181D01*
X47167256Y-31721370D01*
X46042401Y-38067118D02*
X46026132Y-37866633D01*
X45932800Y-37687978D01*
X45915881Y-37670535D01*
X57021569Y-147293534D02*
G75*
G03*
X57092460Y-148523088I816131J-569766D01*
G01*
X47187983Y-31952753D02*
X47363675Y-32051354D01*
X47409639Y-32054320D01*
X57754535Y-147246213D02*
G75*
G03*
X56974225Y-147246213I-390155J-375846D01*
G01*
X46711927Y-26027868D02*
X46921681Y-25883920D01*
X47141535Y-25752200D01*
X47370854Y-25633128D01*
X47609006Y-25527128D01*
X47855355Y-25434620D01*
X48109269Y-25356027D01*
X48370113Y-25291770D01*
X48637253Y-25242271D01*
X48910057Y-25207952D01*
X49187890Y-25189235D01*
X49375593Y-25185633D01*
X51187909Y-33239550D02*
X51187909Y-33239550D01*
X51482373Y-33090877D02*
X51494694Y-32882142D01*
X51405026Y-32722148D01*
X56298717Y-39404522D02*
G75*
G03*
X56455458Y-39592649I225983J28922D01*
G01*
X73412591Y-37713443D02*
G75*
G03*
X72660097Y-38120999I-124791J-668057D01*
G01*
X47409462Y-32046457D02*
X47409462Y-32046457D01*
X48746603Y-149017650D02*
G75*
G03*
X48864833Y-148710254I-1156003J621050D01*
G01*
X48283616Y-27658045D02*
X48538692Y-27689999D01*
X48793971Y-27735457D01*
X49048681Y-27794018D01*
X49302049Y-27865279D01*
X49553302Y-27948840D01*
X49801668Y-28044300D01*
X50046375Y-28151258D01*
X50286650Y-28269312D01*
X50521719Y-28398062D01*
X50750811Y-28537106D01*
X50973154Y-28686043D01*
X51187973Y-28844472D01*
X51394498Y-29011992D01*
X51591955Y-29188202D01*
X51779572Y-29372700D01*
X51956576Y-29565086D01*
X51385242Y-33079324D02*
X51360573Y-32876073D01*
X51334356Y-32845668D01*
X46075370Y-146984100D02*
X46075370Y-147196920D01*
X52437330Y-30974557D02*
X50476393Y-30847560D01*
X46652418Y-25903419D02*
X46652418Y-25903419D01*
X53475100Y-148427500D02*
X53569690Y-148427500D01*
X60780627Y-148429505D02*
G75*
G03*
X60875164Y-148571377I137373J-10895D01*
G01*
X50462754Y-31109880D02*
X52424046Y-31236523D01*
X50709000Y-148592020D02*
X51181920Y-148521080D01*
X63901370Y-147199920D02*
X63073770Y-147199920D01*
X47241533Y-31236551D02*
X47085433Y-31384011D01*
X47013356Y-31585018D01*
X47008096Y-31671721D01*
X57990981Y-37461560D02*
X57990981Y-39123330D01*
X51509059Y-29374598D02*
X51522200Y-29596590D01*
X51561039Y-29822221D01*
X51624699Y-30047769D01*
X51712305Y-30269511D01*
X51802969Y-30448701D01*
X51864847Y-30552810D01*
X53162652Y-31556159D02*
X53369870Y-31535232D01*
X53564383Y-31473444D01*
X53742018Y-31372278D01*
X53775153Y-31347451D01*
X53955896Y-30545407D02*
X53900198Y-30738074D01*
X53826116Y-30890198D01*
X62033537Y-146561483D02*
G75*
G03*
X61867997Y-146395963I-164637J883D01*
G01*
X50425250Y-147173270D02*
X50543480Y-147173270D01*
X51399208Y-34631100D02*
X50073436Y-33510438D01*
X48623324Y-32022953D02*
X48562324Y-32235754D01*
X48560281Y-32451467D01*
X48613049Y-32656565D01*
X48716480Y-32837520D01*
X48866426Y-32980804D01*
X48926029Y-33017857D01*
X47237468Y-31222801D02*
X47086705Y-31360139D01*
X47010026Y-31545272D01*
X46998707Y-31668485D01*
X52032866Y-148568344D02*
G75*
G03*
X52151101Y-148426501I-25966J141844D01*
G01*
X50803580Y-148355561D02*
X50803580Y-147149620D01*
X51028189Y-33161904D02*
X51188262Y-33224539D01*
X46028080Y-147102330D02*
X46075370Y-147196920D01*
X51474569Y-33089526D02*
X51486532Y-32887068D01*
X51399378Y-32731900D01*
X47026811Y-31677306D02*
X47070025Y-31875315D01*
X47141486Y-31987978D01*
X51409765Y-33082310D02*
X51400378Y-32880426D01*
X51352321Y-32814578D01*
X53665191Y-36614000D02*
X52442371Y-36614000D01*
X48191319Y-39304510D02*
X48219056Y-39505734D01*
X48244811Y-39585605D01*
X47409639Y-32054320D02*
X47409639Y-32054320D01*
X47490423Y-37107467D02*
X47425596Y-37108530D01*
X61868000Y-146395960D02*
X61749770Y-146395960D01*
X59905682Y-148429498D02*
G75*
G03*
X60071204Y-148595018I164618J-902D01*
G01*
X50581427Y-37330997D02*
X50502434Y-37145322D01*
X50498888Y-37137047D01*
X52962284Y-31394693D02*
X53166599Y-31414958D01*
X53383196Y-31388761D01*
X53582094Y-31311546D01*
X53702982Y-31232168D01*
X55792100Y-146323121D02*
G75*
G03*
X55792100Y-146559479I0J-118179D01*
G01*
X47120836Y-31706384D02*
X47179943Y-31901065D01*
X47208047Y-31937411D01*
X53069464Y-39467222D02*
G75*
G03*
X53445708Y-39623999I371636J362022D01*
G01*
X72346561Y-37744750D02*
X72534691Y-37713400D01*
X50756290Y-148544730D02*
X50969100Y-148521080D01*
X57423500Y-148617708D02*
G75*
G03*
X57967345Y-148192041I-97100J684308D01*
G01*
X55886682Y-148427498D02*
G75*
G03*
X56052204Y-148593018I164618J-902D01*
G01*
X47032044Y-37196029D02*
X47233020Y-37211307D01*
X47438294Y-37227089D01*
X47492566Y-37231277D01*
X50709000Y-147338790D02*
X50709000Y-148592020D01*
X51627343Y-36136829D02*
X51725445Y-35955376D01*
X51785506Y-35759807D01*
X51808458Y-35556213D01*
X51795234Y-35350687D01*
X51746764Y-35149320D01*
X51663982Y-34958206D01*
X51547819Y-34783435D01*
X51399208Y-34631100D01*
X51049231Y-33147792D02*
X51189469Y-33201719D01*
X47412875Y-31964402D02*
X47412875Y-31964402D01*
X46058277Y-27104899D02*
X46072521Y-26926863D01*
X47129959Y-31709395D02*
X47196391Y-31910257D01*
X47368893Y-32018569D01*
X47410888Y-32021317D01*
X49653299Y-30384027D02*
X48264294Y-28594368D01*
X52505790Y-148592020D02*
X51772770Y-148592020D01*
X47162312Y-146463871D02*
G75*
G03*
X47162332Y-148450143I735188J-993129D01*
G01*
X56173271Y-39404520D02*
X56173271Y-37962230D01*
X51069256Y-32718040D02*
X50926017Y-32863885D01*
X50901119Y-32988251D01*
X63854080Y-147105330D02*
X63901370Y-147199920D01*
X72503348Y-37901515D02*
G75*
G03*
X72346564Y-37744748I-187048J-30285D01*
G01*
X58116461Y-39091972D02*
G75*
G03*
X58837543Y-39374163I424239J21672D01*
G01*
X65356769Y-38622671D02*
G75*
G03*
X65043251Y-37838818I-1156969J-8129D01*
G01*
X55531997Y-148593018D02*
G75*
G03*
X55697518Y-148427497I903J164618D01*
G01*
X57865615Y-39217401D02*
G75*
G03*
X58085044Y-39593648I435885J2101D01*
G01*
X63073770Y-146987100D02*
X63901370Y-146987100D01*
X44609460Y-147457020D02*
X44656750Y-147575250D01*
X51186596Y-33262192D02*
X51373944Y-33179473D01*
X51433798Y-33085155D01*
X47406094Y-32152598D02*
X47597731Y-32091986D01*
X47742672Y-31934750D01*
X47786033Y-31836077D01*
X49379392Y-27353092D02*
X49581436Y-27372348D01*
X49780942Y-27391347D01*
X49860529Y-27398924D01*
X51111066Y-32841033D02*
X50998258Y-33007243D01*
X50998249Y-33014227D01*
X51956576Y-29565086D02*
X52120668Y-29763051D01*
X52269959Y-29964110D01*
X52404290Y-30167599D01*
X52523500Y-30372850D01*
X52627430Y-30579198D01*
X52715919Y-30785977D01*
X52788808Y-30992521D01*
X52845937Y-31198164D01*
X52887146Y-31402240D01*
X52912276Y-31604083D01*
X52919471Y-31901205D01*
X52889589Y-32189557D01*
X52822089Y-32466893D01*
X52716432Y-32730964D01*
X47623976Y-31417502D02*
X47447069Y-31316212D01*
X47274228Y-31343694D01*
X47234401Y-31917406D02*
X47411685Y-31997075D01*
X53735210Y-148593020D02*
X53829790Y-148593020D01*
X51188821Y-33216723D02*
X51367102Y-33115322D01*
X51385242Y-33079324D01*
X52245682Y-148426498D02*
G75*
G03*
X52411204Y-148592018I164618J-902D01*
G01*
X59902791Y-37681040D02*
X59777371Y-37743750D01*
X57990995Y-147837350D02*
G75*
G03*
X57754540Y-147246204I-872295J-6050D01*
G01*
X47408944Y-31955948D02*
X47583823Y-31846296D01*
X47613427Y-31728202D01*
X47121647Y-32002888D02*
X47290007Y-32118218D01*
X47406529Y-32136269D01*
X43214496Y-33019982D02*
X43010583Y-33093766D01*
X42829318Y-33207974D01*
X42673995Y-33356916D01*
X42547915Y-33534903D01*
X42454373Y-33736245D01*
X42396668Y-33955254D01*
X42378097Y-34186238D01*
X42401959Y-34423511D01*
X63854080Y-147814710D02*
X63144710Y-147814710D01*
X65262725Y-38559956D02*
G75*
G03*
X65043248Y-37901521I-1031525J21956D01*
G01*
X48297327Y-146463897D02*
G75*
G03*
X47162333Y-146463897I-567497J-764164D01*
G01*
X45408865Y-36390470D02*
X45489810Y-36252491D01*
X44154618Y-26414259D02*
X44137203Y-26629362D01*
X44210194Y-26822040D01*
X44358463Y-26956852D01*
X44395820Y-26973752D01*
X54444580Y-148427500D02*
X54539170Y-148427500D01*
X56424101Y-37648690D02*
X56424101Y-39404520D01*
X53380520Y-148427500D02*
X53380520Y-147339790D01*
X46960114Y-37066906D02*
X46894307Y-37257682D01*
X46885191Y-37276975D01*
X72033021Y-37744750D02*
X72660100Y-37650690D01*
X47408112Y-32095229D02*
X47408112Y-32095229D01*
X52171467Y-33207911D02*
X52091407Y-33314716D01*
X53775153Y-31347451D02*
X53920919Y-31199773D01*
X54041154Y-31038039D01*
X54054339Y-31012179D01*
X62096793Y-39624968D02*
G75*
G03*
X62316268Y-39405523I1207J218268D01*
G01*
X51322565Y-32865808D02*
X51121087Y-32823003D01*
X51107269Y-32828430D01*
X46106868Y-32079984D02*
X45942775Y-31882019D01*
X45793483Y-31680959D01*
X45659152Y-31477471D01*
X45539942Y-31272220D01*
X45436013Y-31065872D01*
X45347524Y-30859093D01*
X45274634Y-30652549D01*
X45217505Y-30446906D01*
X45176296Y-30242830D01*
X45151166Y-30040987D01*
X45143971Y-29743865D01*
X45173854Y-29455513D01*
X45241354Y-29178177D01*
X45347012Y-28914107D01*
X51090896Y-32779366D02*
X50959438Y-32931259D01*
X50950401Y-33000733D01*
X53940702Y-30951188D02*
X53940386Y-30951188D01*
X73318541Y-39626000D02*
X73475310Y-39626000D01*
X48129149Y-39029260D02*
X48084413Y-39229590D01*
X48091670Y-39439209D01*
X48143496Y-39633075D01*
X47406094Y-32152598D02*
X47406094Y-32152598D01*
X53569690Y-147103330D02*
X53569690Y-148427500D01*
X47458186Y-32000812D02*
X47665454Y-32008802D01*
X47868320Y-32032377D01*
X48066154Y-32070945D01*
X48352091Y-32155611D01*
X48623165Y-32270678D01*
X48877251Y-32414144D01*
X49112224Y-32584010D01*
X49325961Y-32778276D01*
X49516336Y-32994941D01*
X49681226Y-33232006D01*
X49818506Y-33487470D01*
X49893638Y-33667015D01*
X58618064Y-39593640D02*
G75*
G03*
X58962960Y-38997915I-343964J596840D01*
G01*
X49474581Y-30556014D02*
X49623542Y-30546803D01*
X49739512Y-148166391D02*
G75*
G03*
X49952328Y-148544728I445888J1791D01*
G01*
X51185254Y-33299499D02*
X51378855Y-33225603D01*
X51474569Y-33089526D01*
X50924997Y-33230813D02*
X51103824Y-33329234D01*
X51183904Y-33336792D01*
X47115037Y-148355568D02*
G75*
G03*
X48344623Y-148355568I614793J518879D01*
G01*
X45456538Y-29812109D02*
X45341319Y-29877330D01*
X71249769Y-38622671D02*
G75*
G03*
X70936251Y-37838818I-1156969J-8129D01*
G01*
X52912691Y-36833480D02*
X52912691Y-39404520D01*
X49834100Y-147149620D02*
X49834100Y-148190040D01*
X47055077Y-31685824D02*
X47108926Y-31896379D01*
X47257674Y-32049459D01*
X47408485Y-32086432D01*
X47411725Y-31989190D02*
X47411725Y-31989190D01*
X66767101Y-39469230D02*
X66767101Y-36772770D01*
X47258011Y-31290552D02*
X47108513Y-31435964D01*
X47047055Y-31635878D01*
X47045639Y-31683182D01*
X60310391Y-39091980D02*
X60310391Y-36897190D01*
X50950401Y-33000733D02*
X51021870Y-33166212D01*
X45333839Y-37689267D02*
X45172551Y-37838139D01*
X45049485Y-38023826D01*
X44973923Y-38230150D01*
X44955889Y-38347738D01*
X49803328Y-33989800D02*
X49548251Y-33957845D01*
X49292972Y-33912386D01*
X49038262Y-33853826D01*
X48784894Y-33782565D01*
X48533641Y-33699003D01*
X48285274Y-33603543D01*
X48040568Y-33496586D01*
X47800293Y-33378531D01*
X47565223Y-33249782D01*
X47336131Y-33110738D01*
X47113789Y-32961801D01*
X46898969Y-32803371D01*
X46692445Y-32635851D01*
X46494988Y-32459642D01*
X46307371Y-32275143D01*
X46130368Y-32082758D01*
X53096770Y-147174270D02*
X53569690Y-147103330D01*
X43133784Y-24574669D02*
X43047764Y-24770999D01*
X43036527Y-24981640D01*
X43097104Y-25181639D01*
X43226529Y-25346042D01*
X51772770Y-147173270D02*
X52245690Y-147102330D01*
X50489305Y-37397596D02*
X50573815Y-37583620D01*
X50602664Y-37773098D01*
X62033520Y-148571370D02*
X62222690Y-148571370D01*
X50709000Y-148237330D02*
X50756290Y-148544730D01*
X55013421Y-38589310D02*
X54982061Y-38996920D01*
X55673870Y-148569370D02*
X55910330Y-148569370D01*
X56146790Y-148593020D02*
X55413770Y-148593020D01*
X48297309Y-148450119D02*
G75*
G03*
X48297330Y-146463897I-735109J993119D01*
G01*
X62441691Y-39405520D02*
X62567101Y-39405520D01*
X59432770Y-148595020D02*
X59551000Y-148595020D01*
X48191319Y-37253063D02*
X48547338Y-37882738D01*
X51316298Y-32876560D02*
X51117624Y-32838337D01*
X51111066Y-32841033D01*
X48859637Y-28430829D02*
X49029586Y-28273466D01*
X49169509Y-28093924D01*
X49277276Y-27895833D01*
X49350761Y-27682825D01*
X49376543Y-27555807D01*
X51184731Y-33314427D02*
X51384206Y-33240395D01*
X51500734Y-33061185D01*
X51513964Y-32956666D01*
X47723918Y-31827480D02*
X47743993Y-31620403D01*
X47675705Y-31429935D01*
X47641037Y-31384301D01*
X56298691Y-36676710D02*
X56298691Y-36927540D01*
X51328936Y-32855778D02*
X51132465Y-32806096D01*
X51103261Y-32816369D01*
X43192459Y-33608208D02*
X43031244Y-33757163D01*
X42908296Y-33942929D01*
X42832888Y-34149324D01*
X42814951Y-34266945D01*
X48131824Y-148402851D02*
G75*
G03*
X48037235Y-148024517I-665324J34651D01*
G01*
X56141921Y-39592650D02*
X56455460Y-39592650D01*
X51082427Y-32754777D02*
X50946390Y-32902097D01*
X50930899Y-32995573D01*
X66140021Y-36616000D02*
X67864501Y-36616000D01*
X54094540Y-29923513D02*
X54062982Y-30123152D01*
X54015838Y-30337275D01*
X53955896Y-30545407D01*
X50201441Y-24968816D02*
X49994860Y-24940480D01*
X49787804Y-24920076D01*
X49581105Y-24907737D01*
X49375593Y-24903595D01*
X50165672Y-25248386D02*
X50377549Y-25286732D01*
X50585722Y-25333463D01*
X50789993Y-25388342D01*
X50990164Y-25451133D01*
X51186035Y-25521600D01*
X51377408Y-25599508D01*
X51564086Y-25684620D01*
X51745868Y-25776699D01*
X51922558Y-25875511D01*
X52093956Y-25980819D01*
X52420084Y-26209980D01*
X52722665Y-26462293D01*
X53000110Y-26735870D01*
X53250833Y-27028823D01*
X53473245Y-27339265D01*
X53665759Y-27665307D01*
X53826788Y-28005061D01*
X53954743Y-28356640D01*
X54048038Y-28718154D01*
X54105084Y-29087716D01*
X54124294Y-29463439D01*
X54349985Y-148569348D02*
G75*
G03*
X54444582Y-148427499I-111985J177148D01*
G01*
X58116401Y-39091980D02*
X58116401Y-36897190D01*
X72660103Y-39406523D02*
G75*
G03*
X72879579Y-39625997I218397J-1077D01*
G01*
X51311293Y-32886572D02*
X51116100Y-32853139D01*
X50973100Y-33198876D02*
X51156241Y-33283716D01*
X51185766Y-33284564D01*
X47645669Y-31817712D02*
X47649879Y-31615470D01*
X47584269Y-31496626D01*
X50330669Y-148544732D02*
G75*
G03*
X50590772Y-148402855I-276369J816032D01*
G01*
X50092743Y-39918421D02*
X50776086Y-38045337D01*
X53069471Y-39467226D02*
G75*
G03*
X53257587Y-39592648I247229J167026D01*
G01*
X52009230Y-147173270D02*
X52151100Y-147149620D01*
X47141486Y-31987978D02*
X47316264Y-32100540D01*
X47407371Y-32111919D01*
X51417494Y-32700639D02*
X51239124Y-32605831D01*
X51040181Y-32630724D01*
X44656750Y-147362440D02*
X43143420Y-147362440D01*
X62316271Y-39405520D02*
X62316271Y-36928540D01*
X55792088Y-148427498D02*
G75*
G03*
X55910333Y-148569374I170512J21898D01*
G01*
X46442399Y-26227428D02*
X46791224Y-26197335D01*
X47145521Y-26171112D01*
X47502197Y-26149657D01*
X47858157Y-26133864D01*
X48210310Y-26124630D01*
X48555561Y-26122851D01*
X48890819Y-26129424D01*
X49212991Y-26145244D01*
X49518982Y-26171208D01*
X49805700Y-26208211D01*
X50070053Y-26257151D01*
X50308946Y-26318922D01*
X50519288Y-26394422D01*
X50697985Y-26484545D01*
X50899931Y-26649112D01*
X50948073Y-26712251D01*
X60685985Y-148571349D02*
G75*
G03*
X60780583Y-148429499I-111985J177149D01*
G01*
X51346680Y-32824937D02*
X51149368Y-32762131D01*
X51090896Y-32779366D01*
X45393864Y-29977453D02*
X45431848Y-30025400D01*
X61749770Y-148595020D02*
X61868000Y-148595020D01*
X47630039Y-31717460D02*
X47545804Y-31525832D01*
X47403485Y-31471675D01*
X47669741Y-31820796D02*
X47680271Y-31618606D01*
X47602014Y-31463327D01*
X51375602Y-32773775D02*
X51190318Y-32693769D01*
X51069256Y-32718040D01*
X50969731Y-33006178D02*
X51035511Y-33157052D01*
X54397275Y-147197947D02*
G75*
G03*
X53569694Y-147458021I-306875J-470253D01*
G01*
X47092366Y-31697806D02*
X47148183Y-31898264D01*
X47187983Y-31952753D01*
X48795294Y-37858118D02*
X48290668Y-36966477D01*
X47622847Y-31814500D02*
X47617278Y-31608810D01*
X47567795Y-31530177D01*
X47201025Y-31942582D02*
X47380956Y-32036972D01*
X47409950Y-32038027D01*
X55413770Y-148593020D02*
X55532000Y-148593020D01*
X51360559Y-33076944D02*
X51316298Y-32876560D01*
X50073436Y-33510438D02*
X49987240Y-33317100D01*
X49887237Y-33132505D01*
X49774178Y-32957168D01*
X49648815Y-32791603D01*
X49511898Y-32636325D01*
X49364180Y-32491849D01*
X49206411Y-32358689D01*
X49039343Y-32237361D01*
X48863728Y-32128378D01*
X48680316Y-32032257D01*
X48489859Y-31949511D01*
X48293110Y-31880655D01*
X48090818Y-31826205D01*
X47883735Y-31786675D01*
X47672613Y-31762579D01*
X47458204Y-31754433D01*
X54762597Y-39561329D02*
G75*
G03*
X54919350Y-39341814I-111897J245629D01*
G01*
X58723640Y-148357580D02*
G75*
G03*
X58723640Y-148594020I-40J-118220D01*
G01*
X45761364Y-29632662D02*
X45789220Y-29626669D01*
X55792100Y-146559581D02*
G75*
G03*
X55792100Y-146323019I0J118281D01*
G01*
X51515333Y-33093882D02*
X51534633Y-32886650D01*
X51448115Y-32700674D01*
X51429112Y-32680013D01*
X51190392Y-33186618D02*
X51353376Y-33075473D01*
X43915357Y-39495981D02*
X43933117Y-39704208D01*
X43956822Y-39811970D01*
X58806191Y-37743750D02*
X57865561Y-37743750D01*
X51184463Y-33321547D02*
X51184463Y-33321547D01*
X50910705Y-32990476D02*
X50988791Y-33180275D01*
X50993578Y-33185108D01*
X50185556Y-28846593D02*
X50355563Y-28952417D01*
X50516956Y-29084215D01*
X50610653Y-29216427D01*
X71155731Y-38559960D02*
X71030311Y-38622670D01*
X47747014Y-31831144D02*
X47770331Y-31622522D01*
X47711100Y-31426672D01*
X47657750Y-31350438D01*
X52912696Y-36833478D02*
G75*
G03*
X52693214Y-36614004I-218396J1078D01*
G01*
X71155725Y-38559956D02*
G75*
G03*
X70936248Y-37901521I-1031525J21956D01*
G01*
X42814951Y-34266945D02*
X42835337Y-34481728D01*
X42936781Y-34658619D01*
X43108252Y-34752206D01*
X51107269Y-32828430D02*
X50989338Y-32996577D01*
X50989051Y-33011273D01*
X46075370Y-147717120D02*
X45247770Y-147717120D01*
X72534691Y-37713400D02*
X72534691Y-39406520D01*
X54124294Y-29463439D02*
X54118501Y-29664200D01*
X54101531Y-29865772D01*
X54094540Y-29923513D01*
X47668922Y-31328021D02*
X47494442Y-31212279D01*
X47282784Y-31218313D01*
X47241533Y-31236551D01*
X45948122Y-29310787D02*
X45896842Y-29277295D01*
X57991057Y-39123330D02*
G75*
G03*
X58461292Y-39593644I467843J-2470D01*
G01*
X50054484Y-36118231D02*
X50264376Y-36295886D01*
X51014766Y-33171055D02*
X51187909Y-33239550D01*
X54219889Y-29943256D02*
X54240790Y-29735872D01*
X54250104Y-29527629D01*
X54250593Y-29468023D01*
X51698015Y-35528409D02*
X51690045Y-35399994D01*
X47008096Y-31671721D02*
X47049075Y-31869696D01*
X47128329Y-31998193D01*
X44038175Y-38961599D02*
X43963563Y-39156118D01*
X43923107Y-39358632D01*
X43915357Y-39495981D01*
X56298691Y-37711400D02*
X56298691Y-39404520D01*
X49779827Y-33987026D02*
X49524750Y-33955071D01*
X49269471Y-33909612D01*
X49014761Y-33851052D01*
X48761393Y-33779791D01*
X48510140Y-33696229D01*
X48261774Y-33600769D01*
X48017067Y-33493812D01*
X47776793Y-33375757D01*
X47541723Y-33247008D01*
X47312631Y-33107964D01*
X47090289Y-32959027D01*
X46875469Y-32800597D01*
X46668944Y-32633077D01*
X46471488Y-32456868D01*
X46283871Y-32272369D01*
X46106868Y-32079984D01*
X43237877Y-33140958D02*
X43040429Y-33214454D01*
X42867206Y-33330140D01*
X42721989Y-33481504D01*
X42608562Y-33662037D01*
X42530708Y-33865227D01*
X42492210Y-34084563D01*
X42488679Y-34175361D01*
X47410647Y-32029582D02*
X47410647Y-32029582D01*
X43774693Y-33589294D02*
X43583303Y-33496013D01*
X43372009Y-33516558D01*
X43192459Y-33608208D01*
X47176634Y-31723884D02*
X47247526Y-31907606D01*
X62912001Y-39625000D02*
X61940021Y-39625000D01*
X47409950Y-32038027D02*
X47409950Y-32038027D01*
X59550997Y-148595018D02*
G75*
G03*
X59716518Y-148429497I903J164618D01*
G01*
X50498888Y-37137047D02*
X50397592Y-36957800D01*
X50292378Y-36771618D01*
X50169813Y-36554730D01*
X50044169Y-36332387D01*
X49929714Y-36129840D01*
X49824121Y-35942962D01*
X49791455Y-35885136D01*
X48226403Y-148308267D02*
G75*
G03*
X48037228Y-148024522I-838703J-354233D01*
G01*
X44656750Y-147575250D02*
X44656750Y-147362440D01*
X58723640Y-148594040D02*
G75*
G03*
X58723640Y-148357560I-40J118240D01*
G01*
X43143420Y-147362440D02*
X43143420Y-147575250D01*
X55650230Y-147174270D02*
X55792100Y-147150620D01*
X68616995Y-39375166D02*
G75*
G03*
X68616995Y-38371834I-601695J501666D01*
G01*
X52692931Y-32728190D02*
X52692931Y-32728190D01*
X49887970Y-39824900D02*
X49770317Y-40007797D01*
X49586055Y-40126906D01*
X49378896Y-40175652D01*
X49303639Y-40178970D01*
X52716432Y-32730964D02*
X52716432Y-32730964D01*
X63144710Y-147105330D02*
X63854080Y-147105330D01*
X53451429Y-147292506D02*
G75*
G03*
X53333228Y-147174276I-141129J-22894D01*
G01*
X51185508Y-33292029D02*
X51185508Y-33292029D01*
X45823089Y-26878917D02*
X45805641Y-27135097D01*
X45830369Y-27387142D01*
X45894563Y-27631620D01*
X45995510Y-27865100D01*
X46130502Y-28084155D01*
X46296828Y-28285352D01*
X46491777Y-28465262D01*
X46712639Y-28620454D01*
X46956704Y-28747500D01*
X47221260Y-28842968D01*
X47407678Y-28887377D01*
X47233316Y-31209268D02*
X47079211Y-31349852D01*
X47000836Y-31539363D01*
X46989269Y-31665492D01*
X50979321Y-33008761D02*
X51042388Y-33152458D01*
X62128106Y-148429498D02*
G75*
G03*
X62222689Y-148571372I279094J83598D01*
G01*
X51187909Y-33239550D02*
X51373741Y-33145819D01*
X51409765Y-33082310D01*
X47663376Y-31339571D02*
X47492901Y-31226656D01*
X47286046Y-31232457D01*
X47245724Y-31250223D01*
X48264294Y-28594368D02*
X48115688Y-28603224D01*
X63073770Y-147932940D02*
X63901370Y-147932940D01*
X47139351Y-31712273D02*
X47203135Y-31905293D01*
X47221235Y-31927398D01*
X56769000Y-39624000D02*
X55797021Y-39624000D01*
X67864486Y-39625921D02*
G75*
G03*
X67989919Y-38121003I-158786J770921D01*
G01*
X50940491Y-32998151D02*
X51014766Y-33171055D01*
X47403485Y-31471675D02*
X47227218Y-31576208D01*
X47185708Y-31727112D01*
X50833126Y-32968533D02*
X50894622Y-33167313D01*
X50938673Y-33221287D01*
X53096770Y-148593020D02*
X53215000Y-148593020D01*
X51060784Y-32693099D02*
X50912870Y-32839155D01*
X50881730Y-32982510D01*
X47408671Y-32070678D02*
X47599708Y-31993499D01*
X47708036Y-31825892D01*
X47410816Y-32005361D02*
X47595360Y-31910130D01*
X47645669Y-31817712D01*
X53214997Y-148593018D02*
G75*
G03*
X53380518Y-148427497I903J164618D01*
G01*
X51422926Y-32691075D02*
X51239933Y-32593649D01*
X51035887Y-32619328D01*
X69901577Y-39437864D02*
G75*
G03*
X70497290Y-39657363I509323J464164D01*
G01*
X47114945Y-32007814D02*
X47287043Y-32125880D01*
X47406151Y-32144361D01*
X60279041Y-39593642D02*
G75*
G03*
X60812061Y-39593642I266510J462073D01*
G01*
X52693213Y-39623988D02*
G75*
G03*
X52912688Y-39404523I1187J218288D01*
G01*
X58085041Y-39593642D02*
G75*
G03*
X58618061Y-39593642I266510J462073D01*
G01*
X46584363Y-25783905D02*
X46400695Y-25908074D01*
X46238628Y-26052985D01*
X46099777Y-26216345D01*
X45985757Y-26395863D01*
X45898184Y-26589247D01*
X45838673Y-26794206D01*
X45823089Y-26878917D01*
X51417891Y-33083310D02*
X51412170Y-32881501D01*
X51358285Y-32804476D01*
X64515420Y-147365440D02*
X64515420Y-147578250D01*
X70936251Y-37838812D02*
G75*
G03*
X69901571Y-37838812I-517340J-498369D01*
G01*
X46712336Y-26026818D02*
X46545143Y-26138975D01*
X46442399Y-26227428D01*
X55797021Y-37742750D02*
X56424101Y-37648690D01*
X47286614Y-31384657D02*
X47146419Y-31534284D01*
X47111079Y-31703385D01*
X47630524Y-31816159D02*
X47628395Y-31610997D01*
X47573530Y-31519929D01*
X47409950Y-32038027D02*
X47596947Y-31954317D01*
X47677108Y-31821888D01*
X56424103Y-39404523D02*
G75*
G03*
X56643579Y-39623997I218397J-1077D01*
G01*
X51086499Y-32766906D02*
X50952497Y-32916919D01*
X50940491Y-32998151D01*
X53629546Y-31117943D02*
X53452182Y-31220478D01*
X53256972Y-31269502D01*
X53162336Y-31274827D01*
X68115331Y-38058290D02*
X67989921Y-38121000D01*
X50898170Y-148355561D02*
X50898170Y-147102330D01*
X45896842Y-29277295D02*
X45787666Y-29450268D01*
X45670273Y-29612834D01*
X45524078Y-29769491D01*
X45456538Y-29812109D01*
X51187652Y-33247021D02*
X51374618Y-33156719D01*
X51417891Y-33083310D01*
X53569682Y-148427498D02*
G75*
G03*
X53735204Y-148593018I164618J-902D01*
G01*
X47247526Y-31907606D02*
X47412223Y-31980782D01*
X47607244Y-31451783D02*
X47423904Y-31357092D01*
X47286614Y-31384657D01*
X72534683Y-39406524D02*
G75*
G03*
X72660110Y-39594645I282717J52624D01*
G01*
X44842423Y-40429600D02*
X44635156Y-40399525D01*
X44458773Y-40321378D01*
X47629536Y-31406806D02*
X47447722Y-31302560D01*
X47270089Y-31330837D01*
X48926029Y-33017857D02*
X49116933Y-33085811D01*
X49342177Y-33082446D01*
X49551746Y-32997081D01*
X49704260Y-32864219D01*
X49818909Y-32681145D01*
X45318710Y-147811710D02*
X45247770Y-147929940D01*
X46989269Y-31665492D02*
X47027763Y-31862344D01*
X47114945Y-32007814D01*
X65262731Y-38559960D02*
X65137311Y-38622670D01*
X48131798Y-148402849D02*
G75*
G03*
X48273683Y-149017643I1198602J-47151D01*
G01*
X47797336Y-28924395D02*
X48037008Y-28909774D01*
X48266513Y-28867073D01*
X48483646Y-28798030D01*
X48686201Y-28704384D01*
X48871975Y-28587876D01*
X49038762Y-28450245D01*
X49184356Y-28293230D01*
X49306553Y-28118571D01*
X49403149Y-27928006D01*
X49471937Y-27723277D01*
X49501259Y-27579780D01*
X48249999Y-146534862D02*
G75*
G03*
X47209623Y-146534832I-520199J-385038D01*
G01*
X60686000Y-148429500D02*
X60686000Y-147460020D01*
X43940987Y-38902971D02*
X43863394Y-39101062D01*
X43817866Y-39307268D01*
X43804841Y-39517650D01*
X43824757Y-39728270D01*
X43851097Y-39847217D01*
X51265461Y-34827176D02*
X51405234Y-34976103D01*
X51506482Y-35149010D01*
X51572767Y-35361356D01*
X51588358Y-35531951D01*
X47762594Y-31833200D02*
X47788234Y-31630805D01*
X47732525Y-31422629D01*
X47668922Y-31328021D01*
X47408485Y-32086432D02*
X47408485Y-32086432D01*
X65137322Y-38622670D02*
G75*
G03*
X64980535Y-37901525I-1694222J9270D01*
G01*
X50871820Y-32979932D02*
X50940361Y-33174502D01*
X50966083Y-33203474D01*
X51052514Y-32668159D02*
X50900652Y-32813354D01*
X50862227Y-32976999D01*
X62316297Y-39593684D02*
G75*
G03*
X62441688Y-39405522I-157297J240684D01*
G01*
X47174427Y-31962627D02*
X47352101Y-32066148D01*
X47408671Y-32070678D01*
X51513964Y-32956666D02*
X51453188Y-32762039D01*
X51287992Y-32632419D01*
X51172271Y-32613704D01*
X53215000Y-147174270D02*
X53096770Y-147174270D01*
X62441691Y-36677710D02*
X62441691Y-39405520D01*
X43710243Y-34464873D02*
X43816137Y-34294023D01*
X43885684Y-34094451D01*
X43901605Y-33985930D01*
X70434581Y-39657350D02*
X70497291Y-39657350D01*
X45489810Y-36252491D02*
X45331291Y-36059197D01*
X45218450Y-35893747D01*
X45118818Y-35719396D01*
X45033121Y-35536797D01*
X44962086Y-35346608D01*
X44906438Y-35149484D01*
X44866905Y-34946081D01*
X44848268Y-34789803D01*
X62567101Y-36615000D02*
X62567101Y-39405520D01*
X53956875Y-30544678D02*
X54016487Y-30336631D01*
X54063687Y-30122521D01*
X54095208Y-29922796D01*
X68083981Y-39626000D02*
X66140021Y-39626000D01*
X50890685Y-36533940D02*
X51106441Y-36507410D01*
X51305442Y-36430101D01*
X51481229Y-36305433D01*
X51627343Y-36136829D01*
X48898571Y-33507860D02*
X48854889Y-33578722D01*
X51401954Y-33081183D02*
X51388911Y-32880325D01*
X51346680Y-32824937D01*
X59716520Y-148571370D02*
X59905690Y-148571370D01*
X49255626Y-27200440D02*
X49264489Y-27354855D01*
X47209620Y-148379210D02*
X47115040Y-148355561D01*
X47194169Y-31947960D02*
X47372185Y-32044579D01*
X47409462Y-32046457D01*
X47266334Y-31317440D02*
X47117453Y-31466985D01*
X47064383Y-31673877D01*
X47064403Y-31688897D01*
X51991332Y-32685750D02*
X52029060Y-32597365D01*
X45947805Y-26902890D02*
X45931992Y-27104764D01*
X45931978Y-27111245D01*
X52046856Y-28340577D02*
X51918026Y-28397690D01*
X72409271Y-39594650D02*
X72660100Y-39594650D01*
X47492566Y-37231277D02*
X47705457Y-37216067D01*
X47915167Y-37182180D01*
X48121624Y-37132878D01*
X48234892Y-37100028D01*
X48527905Y-33263897D02*
X48712407Y-33369617D01*
X48882007Y-33484927D01*
X48898571Y-33507860D01*
X56267334Y-37899520D02*
G75*
G03*
X56110559Y-37742752I-429334J-272580D01*
G01*
X50776086Y-38045337D02*
X50820824Y-37838521D01*
X50810737Y-37622019D01*
X50756546Y-37428495D01*
X50688410Y-37286539D01*
X48439203Y-148899416D02*
G75*
G03*
X48226392Y-148308270I-6359103J-1955384D01*
G01*
X45789220Y-29626669D02*
X45629685Y-29461324D01*
X61749770Y-146395960D02*
X62222690Y-146325021D01*
X54054339Y-31012179D02*
X54036930Y-31046023D01*
X51891000Y-147173270D02*
X51772770Y-147173270D01*
X61000191Y-37743750D02*
X60059561Y-37743750D01*
X50385528Y-30972432D02*
X50462754Y-31109880D01*
X64515420Y-147578250D02*
X66028750Y-147578250D01*
X47406987Y-32119810D02*
X47606189Y-32047932D01*
X47736853Y-31878633D01*
X47754724Y-31832152D01*
X47195531Y-31729537D02*
X47260863Y-31897462D01*
X47411248Y-32013080D02*
X47595385Y-31922321D01*
X47654086Y-31818374D01*
X42618457Y-34371614D02*
X42599452Y-34171818D01*
X51185508Y-33292029D02*
X51373505Y-33220469D01*
X51466444Y-33088740D01*
X62222690Y-146325021D02*
X62222690Y-148429500D01*
X59716527Y-147341793D02*
G75*
G03*
X59550997Y-147176273I-164627J893D01*
G01*
X51918026Y-28397690D02*
X51761787Y-28553421D01*
X51652707Y-28724140D01*
X51573187Y-28922564D01*
X51529000Y-29116886D01*
X56298691Y-36614060D02*
G75*
G03*
X56298691Y-36927540I9J-156740D01*
G01*
X47249788Y-31263296D02*
X47100727Y-31403567D01*
X47031859Y-31594809D01*
X47026811Y-31677306D01*
X49375593Y-24903595D02*
X49089433Y-24911784D01*
X48805766Y-24936164D01*
X48525482Y-24976456D01*
X48249472Y-25032377D01*
X47978626Y-25103648D01*
X47713835Y-25189987D01*
X47455989Y-25291115D01*
X47205978Y-25406751D01*
X46964694Y-25536613D01*
X46733026Y-25680422D01*
X46584363Y-25783905D01*
X50199727Y-37258202D02*
X50093803Y-37083852D01*
X49953606Y-36935584D01*
X49870714Y-36877361D01*
X48344622Y-146558473D02*
G75*
G03*
X47115038Y-146558473I-614792J-518877D01*
G01*
X47458204Y-31754433D02*
X47395502Y-31754787D01*
X56173346Y-37962228D02*
G75*
G03*
X55953794Y-37742754I-218346J1128D01*
G01*
X48854889Y-33578722D02*
X48517143Y-33333702D01*
X46072521Y-26926863D02*
X46124864Y-26715794D01*
X46212041Y-26522160D01*
X46330758Y-26347926D01*
X46477723Y-26195057D01*
X46649643Y-26065521D01*
X46711927Y-26027868D01*
X51181920Y-148521080D02*
X51063690Y-148521080D01*
X47315035Y-31478847D02*
X47187910Y-31637700D01*
X47176634Y-31723884D01*
X47425613Y-37355617D02*
X47496994Y-37354555D01*
X45968063Y-30234813D02*
X45884814Y-30217890D01*
X70026961Y-37901512D02*
G75*
G03*
X70026977Y-39406523I1623439J-752488D01*
G01*
X47398850Y-32001521D02*
X47458186Y-32000812D01*
X47017415Y-31674421D02*
X47058478Y-31870278D01*
X47177058Y-32034623D01*
X47367922Y-32118311D01*
X47406987Y-32119810D01*
X59787429Y-147294506D02*
G75*
G03*
X59669228Y-147176276I-141129J-22894D01*
G01*
X51352321Y-32814578D02*
X51156113Y-32747693D01*
X51086499Y-32766906D01*
X47677108Y-31821888D02*
X47687952Y-31612555D01*
X47607244Y-31451783D01*
X51990196Y-28513325D02*
X52028181Y-28485474D01*
X45247770Y-147929940D02*
X46075370Y-147929940D01*
X54539170Y-147458020D02*
X54539170Y-148427500D01*
X51184673Y-33307316D02*
X51184673Y-33307316D01*
X48179096Y-148331917D02*
G75*
G03*
X48037231Y-148024519I-712496J-142383D01*
G01*
X53226303Y-39404523D02*
G75*
G03*
X53445709Y-39623997I218297J-1177D01*
G01*
X49303639Y-40178970D02*
X49098773Y-40155766D01*
X48901118Y-40090620D01*
X48887929Y-40084740D01*
X51687565Y-32901487D02*
X51740702Y-32808142D01*
X47786033Y-31836077D02*
X47814260Y-31637132D01*
X47768864Y-31427656D01*
X47686040Y-31294130D01*
X69838851Y-38622670D02*
X71249791Y-38622670D01*
X52245690Y-147102330D02*
X52245690Y-148426500D01*
X73694776Y-39594618D02*
G75*
G03*
X73820210Y-39406522I-148376J234818D01*
G01*
X66390851Y-36616000D02*
X66140021Y-36616000D01*
X55532000Y-147174270D02*
X55413770Y-147174270D01*
X55413770Y-147174270D02*
X55886690Y-147103330D01*
X47406529Y-32136269D02*
X47602628Y-32069803D01*
X47736848Y-31913481D01*
X47770313Y-31833990D01*
X47154865Y-31977755D02*
X47329828Y-32086654D01*
X47408112Y-32095229D01*
X45247770Y-147717120D02*
X45247770Y-147929940D01*
X53380516Y-148569372D02*
G75*
G03*
X53475096Y-148427495I-60616J142872D01*
G01*
X73945703Y-39406523D02*
G75*
G03*
X74165109Y-39625997I218297J-1177D01*
G01*
X53475100Y-147150620D02*
X53475100Y-148427500D01*
X62786581Y-39625000D02*
X62912001Y-39625000D01*
X47731606Y-31828917D02*
X47752184Y-31615941D01*
X47682138Y-31420040D01*
X47646581Y-31373104D01*
X47274228Y-31343694D02*
X47127096Y-31496502D01*
X47082914Y-31694423D01*
X51274982Y-35039015D02*
X51274982Y-35039015D01*
X54229561Y-39624062D02*
G75*
G03*
X54982061Y-38996918I139J764862D01*
G01*
X61156961Y-38997920D02*
X61156961Y-38903850D01*
X49349723Y-37456814D02*
X49410961Y-37655515D01*
X49505806Y-37835909D01*
X49643705Y-38003205D01*
X49767490Y-38097556D01*
X47708036Y-31825892D02*
X47725219Y-31616242D01*
X47646746Y-31427773D01*
X47629536Y-31406806D01*
X51035511Y-33157052D02*
X51188821Y-33216723D01*
X62128100Y-146372310D02*
X62128100Y-148429500D01*
X51635041Y-29376360D02*
X51652268Y-29146513D01*
X51703457Y-28934932D01*
X51788488Y-28747132D01*
X51926952Y-28568695D01*
X51990196Y-28513325D01*
X47221235Y-31927398D02*
X47404629Y-32013130D01*
X47411248Y-32013080D01*
X47294757Y-31411951D02*
X47158491Y-31561886D01*
X47129959Y-31709395D01*
X52151100Y-148426500D02*
X52245690Y-148426500D01*
X47410888Y-32021317D02*
X47410888Y-32021317D01*
X50898170Y-147102330D02*
X50425250Y-147173270D01*
X64980602Y-37901498D02*
G75*
G03*
X64133985Y-37901528I-423302J-191202D01*
G01*
X49511467Y-36853907D02*
X49377860Y-37013640D01*
X49331396Y-37215028D01*
X49344819Y-37431396D01*
X49349723Y-37456814D01*
X51369128Y-33077260D02*
X51332853Y-32876350D01*
X51322565Y-32865808D01*
X51529000Y-29116886D02*
X51510013Y-29317025D01*
X51509059Y-29374598D01*
X47410816Y-32005361D02*
X47410816Y-32005361D01*
X54444605Y-147505309D02*
G75*
G03*
X54137190Y-147150621I-360505J-1891D01*
G01*
X60059615Y-39217401D02*
G75*
G03*
X60279044Y-39593648I435885J2101D01*
G01*
X65043310Y-37901490D02*
G75*
G03*
X64071269Y-37901523I-486010J-290910D01*
G01*
X62441680Y-39405529D02*
G75*
G03*
X62567108Y-39593652I370020J110829D01*
G01*
X53333230Y-147174270D02*
X53475100Y-147150620D01*
X51387230Y-32752713D02*
X51200618Y-32667613D01*
X51060784Y-32693099D01*
X47553535Y-31567162D02*
X47408944Y-31500457D01*
X68083982Y-39626006D02*
G75*
G03*
X68617006Y-39375164I-3982J700206D01*
G01*
X51499224Y-33091959D02*
X51515168Y-32883192D01*
X51417494Y-32700639D01*
X44353756Y-40538886D02*
X44544221Y-40627371D01*
X44746915Y-40671696D01*
X44842441Y-40676688D01*
X70058348Y-39531919D02*
G75*
G03*
X70497293Y-39657353I372652J473319D01*
G01*
X49972122Y-33579870D02*
X49888389Y-33388614D01*
X49790919Y-33206278D01*
X49680447Y-33033376D01*
X49557713Y-32870420D01*
X49423451Y-32717925D01*
X49278401Y-32576403D01*
X49123300Y-32446369D01*
X48958885Y-32328336D01*
X48785893Y-32222816D01*
X48605061Y-32130325D01*
X48417128Y-32051374D01*
X48222830Y-31986479D01*
X48022905Y-31936151D01*
X47818091Y-31900905D01*
X47609124Y-31881253D01*
X47396742Y-31877711D01*
X46980195Y-31662599D02*
X47019512Y-31864007D01*
X47108577Y-32012853D01*
X70027044Y-39406495D02*
G75*
G03*
X70434586Y-39657354I388756J175095D01*
G01*
X62567103Y-39405523D02*
G75*
G03*
X62786579Y-39624997I218397J-1077D01*
G01*
X43956822Y-39811970D02*
X44026814Y-40003565D01*
X44141200Y-40192503D01*
X44289648Y-40348102D01*
X44405653Y-40430663D01*
X47395502Y-31754787D02*
X47147707Y-31771258D01*
X46903740Y-31808776D01*
X46664887Y-31866836D01*
X46432436Y-31944929D01*
X46207673Y-32042551D01*
X45991885Y-32159194D01*
X45786359Y-32294351D01*
X45592383Y-32447518D01*
X50183715Y-25108072D02*
X49944777Y-25075882D01*
X49706054Y-25055125D01*
X49468021Y-25045692D01*
X49231153Y-25047472D01*
X48995925Y-25060355D01*
X48762810Y-25084231D01*
X48532286Y-25118991D01*
X48304825Y-25164524D01*
X48080902Y-25220719D01*
X47860994Y-25287468D01*
X47645574Y-25364660D01*
X47435117Y-25452186D01*
X47230098Y-25549934D01*
X47030992Y-25657796D01*
X46838273Y-25775661D01*
X46652418Y-25903419D01*
X53069492Y-36833477D02*
G75*
G03*
X52912687Y-36645355I-212992J-18123D01*
G01*
X53829790Y-148593020D02*
X53096770Y-148593020D01*
X47229570Y-31195862D02*
X47072111Y-31339673D01*
X46992022Y-31533555D01*
X46980195Y-31662599D01*
X52091407Y-33314716D02*
X51687565Y-32901487D01*
X53638937Y-31109526D02*
X53774905Y-30960897D01*
X53827043Y-30889184D01*
X49739520Y-147338790D02*
X49739520Y-148166390D01*
X66610397Y-36835478D02*
G75*
G03*
X66390854Y-36616004I-218297J1178D01*
G01*
X47641037Y-31384301D02*
X47461798Y-31276464D01*
X47262169Y-31304059D01*
X51185766Y-33284564D02*
X51376271Y-33208026D01*
X51458027Y-33087751D01*
X48887929Y-40084740D02*
X48701807Y-39978250D01*
X48546197Y-39844885D01*
X48408877Y-39665279D01*
X48325606Y-39471095D01*
X48302358Y-39302030D01*
X46075370Y-147929940D02*
X46075370Y-147717120D01*
X70936310Y-37901490D02*
G75*
G03*
X69964269Y-37901523I-486010J-290910D01*
G01*
X59716516Y-148571372D02*
G75*
G03*
X59811096Y-148429495I-60616J142872D01*
G01*
X50756309Y-147291498D02*
G75*
G03*
X50685358Y-147173269I-173809J-23902D01*
G01*
X69964269Y-37901518D02*
G75*
G03*
X70058338Y-39531936I1082231J-755482D01*
G01*
X47613427Y-31728202D02*
X47553535Y-31567162D01*
X47846594Y-33600900D02*
X47846594Y-33600900D01*
X45370512Y-28916881D02*
X45512652Y-28671752D01*
X45687862Y-28450341D01*
X45894075Y-28253541D01*
X46129221Y-28082245D01*
X46391234Y-27937349D01*
X46579813Y-27855858D01*
X46778801Y-27786762D01*
X46987585Y-27730326D01*
X47205552Y-27686813D01*
X47432090Y-27656490D01*
X47666585Y-27639620D01*
X47908424Y-27636469D01*
X48156996Y-27647302D01*
X48283616Y-27658045D01*
X47036250Y-31679596D02*
X47082682Y-31881821D01*
X47148189Y-31982348D01*
X50843038Y-32971465D02*
X50902855Y-33164602D01*
X50945698Y-33217041D01*
X45592383Y-32447518D02*
X43214496Y-33019982D01*
X68083963Y-38120929D02*
G75*
G03*
X68303463Y-36741411I-183563J736429D01*
G01*
X47635472Y-31395687D02*
X47460863Y-31290665D01*
X47266334Y-31317440D01*
X49878256Y-27259667D02*
X49662771Y-27230092D01*
X49448718Y-27210483D01*
X49255626Y-27200440D01*
X47408614Y-32078923D02*
X47604809Y-31999519D01*
X47716068Y-31827033D01*
X62033520Y-148429500D02*
X62033520Y-146561480D01*
X53226231Y-36645350D02*
X52912691Y-36645350D01*
X51466444Y-33088740D02*
X51475076Y-32881611D01*
X51393418Y-32742601D01*
X73820202Y-38183709D02*
G75*
G03*
X73412607Y-37713392I-477902J-2391D01*
G01*
X51065168Y-32705227D02*
X50921809Y-32846472D01*
X50891633Y-32985087D01*
X44405653Y-40430663D02*
X44628711Y-40525255D01*
X44859757Y-40552452D01*
X45088461Y-40515953D01*
X45304494Y-40419454D01*
X45497526Y-40266652D01*
X45628449Y-40106358D01*
X45709461Y-39965182D01*
X57825487Y-147837349D02*
G75*
G03*
X57707251Y-147293495I-1277487J7049D01*
G01*
X73475313Y-39625988D02*
G75*
G03*
X73694788Y-39406523I1187J218288D01*
G01*
X49501259Y-27579780D02*
X49511705Y-27498342D01*
X47396742Y-31877711D02*
X47155617Y-31894033D01*
X46918355Y-31931205D01*
X46686212Y-31988673D01*
X46460444Y-32065883D01*
X46242305Y-32162280D01*
X46033052Y-32277310D01*
X45833941Y-32410420D01*
X45646228Y-32561055D01*
X51077846Y-32742599D02*
X50936935Y-32895849D01*
X50920930Y-32993052D01*
X52442371Y-39624000D02*
X54982061Y-39624000D01*
X47573530Y-31519929D02*
X47379798Y-31445251D01*
X47311110Y-31466235D01*
X52357270Y-32911051D02*
X52289609Y-32991465D01*
X47754724Y-31832152D02*
X47778612Y-31618384D01*
X47717988Y-31417694D01*
X47663376Y-31339571D01*
X47412262Y-31972896D02*
X47588528Y-31868362D01*
X47630039Y-31717460D01*
X54079979Y-30576078D02*
X54124386Y-30374454D01*
X54169471Y-30170786D01*
X54213890Y-29970317D01*
X54219889Y-29943256D01*
X50959507Y-33003608D02*
X51028189Y-33161904D01*
X60473180Y-147152641D02*
G75*
G03*
X59905687Y-147460017I-94080J-503859D01*
G01*
X43614605Y-25288577D02*
X43618205Y-25083672D01*
X43585800Y-25046377D01*
X62222682Y-148429498D02*
G75*
G03*
X62388204Y-148595018I164618J-902D01*
G01*
X57583371Y-37743750D02*
X57865561Y-37743750D01*
X51035887Y-32619328D02*
X50879563Y-32759454D01*
X50823651Y-32952777D01*
X50823653Y-32966798D01*
X51040181Y-32630724D02*
X50887717Y-32766928D01*
X50833126Y-32968533D01*
X49623542Y-30546803D02*
X49653299Y-30384027D01*
X53380520Y-148569370D02*
X53569690Y-148569370D01*
X47108577Y-32012853D02*
X47274632Y-32130199D01*
X47406094Y-32152598D01*
X49660029Y-40226439D02*
X49829929Y-40112671D01*
X49958417Y-39942781D01*
X49989480Y-39871483D01*
X54345554Y-29962999D02*
X54367314Y-29748138D01*
X54377346Y-29533432D01*
X54375745Y-29319191D01*
X54362607Y-29105725D01*
X54338030Y-28893346D01*
X54302109Y-28682364D01*
X54254941Y-28473091D01*
X54196623Y-28265837D01*
X54127250Y-28060913D01*
X54046920Y-27858630D01*
X53955729Y-27659298D01*
X53853773Y-27463230D01*
X53741148Y-27270735D01*
X53617952Y-27082125D01*
X53484280Y-26897711D01*
X53340230Y-26717803D01*
X64134044Y-39406495D02*
G75*
G03*
X64541586Y-39657354I388756J175095D01*
G01*
X63901370Y-146987100D02*
X63901370Y-147199920D01*
X47323473Y-31505666D02*
X47201695Y-31667655D01*
X47195531Y-31729537D01*
X50673000Y-37998400D02*
X50712507Y-37795982D01*
X50689290Y-37584030D01*
X50615677Y-37391822D01*
X50580187Y-37328518D01*
X51458027Y-33087751D02*
X51466380Y-32887258D01*
X51387230Y-32752713D01*
X47162332Y-148450144D02*
G75*
G03*
X48297327Y-148450144I567498J764166D01*
G01*
X67143358Y-36615985D02*
G75*
G03*
X66923885Y-36835478I-1158J-218315D01*
G01*
X52411210Y-148592020D02*
X52505790Y-148592020D01*
X50890668Y-36286321D02*
X50684460Y-36255752D01*
X50499764Y-36172501D01*
X50398441Y-36099102D01*
X49264489Y-27354855D02*
X49250878Y-27531834D01*
X52151100Y-146369310D02*
X52151100Y-146558480D01*
X44458773Y-40321378D02*
X44294663Y-40191183D01*
X44167635Y-40025008D01*
X44079904Y-39831674D01*
X44033686Y-39620003D01*
X44026768Y-39494210D01*
X43214350Y-147457020D02*
X44609460Y-147457020D01*
X50133304Y-28937811D02*
X50133304Y-28937811D01*
X47410647Y-32029582D02*
X47599661Y-31940685D01*
X47669741Y-31820796D01*
X73538002Y-37838842D02*
G75*
G03*
X72816870Y-37901518I-319602J-502658D01*
G01*
X47406987Y-32119810D02*
X47406987Y-32119810D01*
X50248978Y-37985051D02*
X50304541Y-37786669D01*
X50298782Y-37576697D01*
X50250327Y-37380050D01*
X50199727Y-37258202D01*
X47567795Y-31530177D02*
X47372767Y-31459917D01*
X47315035Y-31478847D01*
X45270731Y-27325946D02*
X45289288Y-27540899D01*
X45392931Y-27715262D01*
X45580585Y-27822581D01*
X45600563Y-27826563D01*
X51183904Y-33336792D02*
X51384595Y-33268021D01*
X51510076Y-33107218D01*
X51515333Y-33093882D01*
X47411685Y-31997075D02*
X47411685Y-31997075D01*
X48231172Y-39075843D02*
X48191941Y-39275047D01*
X48191319Y-39304510D01*
X52408636Y-30143847D02*
X52553190Y-30325610D01*
X52705310Y-30488518D01*
X52862531Y-30633277D01*
X53022391Y-30760591D01*
X53222173Y-30896279D01*
X53417414Y-31007192D01*
X53603304Y-31094709D01*
X53638937Y-31109526D01*
X57068805Y-148428503D02*
G75*
G03*
X57376210Y-148617667I293195J132103D01*
G01*
X49815349Y-35605635D02*
X49723585Y-35783844D01*
X49661960Y-35886553D01*
X47106082Y-37337374D02*
X47306328Y-37353020D01*
X47425613Y-37355617D01*
X49739527Y-147338793D02*
G75*
G03*
X49573997Y-147173273I-164627J893D01*
G01*
X50813742Y-32963507D02*
X50868798Y-33158168D01*
X50924997Y-33230813D01*
X60059561Y-37743750D02*
X60059561Y-39217400D01*
X47579466Y-31507846D02*
X47387647Y-31428953D01*
X47307352Y-31451802D01*
X43143420Y-147575250D02*
X44656750Y-147575250D01*
X47209606Y-146534817D02*
G75*
G03*
X47209626Y-148379210I1241794J-922183D01*
G01*
X51382127Y-29355207D02*
X51389881Y-29557676D01*
X51417512Y-29761916D01*
X51464446Y-29966029D01*
X51530111Y-30168121D01*
X51613935Y-30366294D01*
X51715345Y-30558652D01*
X51760706Y-30633543D01*
X50945698Y-33217041D02*
X51126971Y-33310485D01*
X51184731Y-33314427D01*
X54822920Y-148593020D02*
X54066250Y-148593020D01*
X44371763Y-24389229D02*
X44179532Y-24264802D01*
X43972564Y-24199273D01*
X43760602Y-24191223D01*
X43553392Y-24239231D01*
X43360677Y-24341877D01*
X43192203Y-24497740D01*
X43133784Y-24574669D01*
X52315597Y-28370191D02*
X52125349Y-28216831D01*
X51926098Y-28072362D01*
X51718219Y-27937232D01*
X51502091Y-27811892D01*
X51278091Y-27696791D01*
X51046595Y-27592379D01*
X50807980Y-27499106D01*
X50562625Y-27417420D01*
X50310906Y-27347773D01*
X50053199Y-27290613D01*
X49878256Y-27259667D01*
X60185057Y-39123330D02*
G75*
G03*
X60655292Y-39593644I467843J-2470D01*
G01*
X51186351Y-33270368D02*
X51372728Y-33191882D01*
X51441931Y-33086644D01*
X51186333Y-33277094D02*
X51378786Y-33195749D01*
X51450212Y-33086752D01*
X51588358Y-35531951D02*
X51561806Y-35740356D01*
X51483409Y-35935171D01*
X51451264Y-35986805D01*
X48244811Y-39585605D02*
X48340604Y-39772260D01*
X48477263Y-39941447D01*
X48647897Y-40086057D01*
X48845614Y-40198985D01*
X51188262Y-33224539D02*
X51188262Y-33224539D01*
X54137180Y-147150641D02*
G75*
G03*
X53569687Y-147458017I-94080J-503859D01*
G01*
X47406529Y-32136269D02*
X47406529Y-32136269D01*
X47584269Y-31496626D02*
X47394964Y-31414086D01*
X47302423Y-31438524D01*
X50406411Y-37203291D02*
X50487328Y-37391294D01*
X50489305Y-37397596D01*
X43615575Y-35087371D02*
X43438310Y-35108448D01*
X47654086Y-31818374D02*
X47658338Y-31608656D01*
X47590410Y-31485453D01*
X47409054Y-32062586D02*
X47594940Y-31987586D01*
X47700349Y-31824722D01*
X51189202Y-33194786D02*
X51357835Y-33083405D01*
X51360559Y-33076944D01*
X52514556Y-31110943D02*
X52437330Y-30974557D01*
X56110561Y-37742750D02*
X56298691Y-37711400D01*
X51405026Y-32722148D02*
X51224598Y-32630929D01*
X51048127Y-32656374D01*
X72409272Y-39594647D02*
G75*
G03*
X72534687Y-39406525I-80372J189447D01*
G01*
X67143358Y-36616042D02*
G75*
G03*
X66767108Y-36772773I-4758J-518558D01*
G01*
X73694769Y-38121004D02*
G75*
G03*
X73538022Y-37838819I-340469J-4496D01*
G01*
X60310461Y-39091972D02*
G75*
G03*
X61031543Y-39374163I424239J21672D01*
G01*
X48250025Y-148379196D02*
G75*
G03*
X48250045Y-146534831I-1241725J922196D01*
G01*
X55953791Y-37742750D02*
X55797021Y-37742750D01*
X48179098Y-148331916D02*
G75*
G03*
X48368272Y-148993998I4292502J868416D01*
G01*
X56974251Y-147246229D02*
G75*
G03*
X56974232Y-148452150I665049J-602971D01*
G01*
X64604294Y-39657370D02*
G75*
G03*
X65325434Y-39092978I-128794J907470D01*
G01*
X59432770Y-147176270D02*
X59905690Y-147105330D01*
X64165348Y-39531919D02*
G75*
G03*
X64604293Y-39657353I372652J473319D01*
G01*
X53702982Y-31232168D02*
X53849280Y-31079775D01*
X53940702Y-30951188D01*
X54184477Y-148593098D02*
G75*
G03*
X54349998Y-148427497I823J164698D01*
G01*
X44955889Y-38347738D02*
X44976080Y-38562479D01*
X45077334Y-38739360D01*
X45248661Y-38832978D01*
X47111079Y-31703385D02*
X47167718Y-31898253D01*
X47201025Y-31942582D01*
X50966083Y-33203474D02*
X51147492Y-33290445D01*
X51185508Y-33292029D01*
X47425596Y-37108530D02*
X47219013Y-37100238D01*
X47016969Y-37076373D01*
X46960114Y-37066906D01*
X47302423Y-31438524D02*
X47167147Y-31597561D01*
X47148107Y-31715143D01*
X50394503Y-35614574D02*
X50424318Y-35816789D01*
X50529434Y-35988489D01*
X50697151Y-36086512D01*
X47684590Y-31823026D02*
X47698208Y-31619204D01*
X47612423Y-31440706D01*
X54539146Y-147458023D02*
G75*
G03*
X54397290Y-147197920I-312646J-1777D01*
G01*
X51331723Y-34729227D02*
X51167790Y-34590657D01*
X50965974Y-34420063D01*
X50786730Y-34268547D01*
X50598115Y-34109108D01*
X50413205Y-33952796D01*
X50245075Y-33810665D01*
X50069604Y-33662316D01*
X49972122Y-33579870D01*
X67895886Y-38121074D02*
G75*
G03*
X67645022Y-36616003I-314786J720974D01*
G01*
X50580187Y-37328518D02*
X50581427Y-37330997D01*
X66767079Y-39469256D02*
G75*
G03*
X67143358Y-39625999I371521J361856D01*
G01*
X50133304Y-28937811D02*
X50185556Y-28846593D01*
X57865561Y-37743750D02*
X57865561Y-39217400D01*
X61158920Y-148595020D02*
X60402250Y-148595020D01*
X53380527Y-147339793D02*
G75*
G03*
X53214997Y-147174273I-164627J893D01*
G01*
X45668619Y-29358028D02*
X45930712Y-29502572D01*
X54200263Y-30623319D02*
X54258175Y-30420434D01*
X54304785Y-30213882D01*
X54339919Y-30004955D01*
X54345554Y-29962999D01*
X50948073Y-26712251D02*
X51108720Y-26940326D01*
X51282618Y-27160076D01*
X51466509Y-27370619D01*
X51657135Y-27571074D01*
X51851236Y-27760559D01*
X52045555Y-27938193D01*
X52236832Y-28103093D01*
X52421809Y-28254379D01*
X52597227Y-28391168D01*
X52759829Y-28512579D01*
X52972571Y-28663933D01*
X53180956Y-28803686D01*
X53283804Y-28868733D01*
X47408671Y-32070678D02*
X47408671Y-32070678D01*
X43638690Y-35208346D02*
X43867402Y-35153210D01*
X44092894Y-35098854D01*
X44289911Y-35051366D01*
X44523139Y-34995158D01*
X44730729Y-34945148D01*
X44771237Y-34935399D01*
X60875170Y-147460020D02*
X60875170Y-148429500D01*
X50721819Y-35021215D02*
X50561589Y-35167693D01*
X50449623Y-35357576D01*
X50396951Y-35570866D01*
X50394503Y-35614574D01*
X51103261Y-32816369D02*
X50981075Y-32978045D01*
X50979321Y-33008761D01*
X44136053Y-39019695D02*
X45408865Y-36390470D01*
X49375593Y-24903595D02*
X49375593Y-24903595D01*
X62128100Y-148429500D02*
X62222690Y-148429500D01*
X47496994Y-37354555D02*
X47716510Y-37341296D01*
X47934081Y-37311219D01*
X48148798Y-37264420D01*
X48191319Y-37253063D01*
X47411725Y-31989190D02*
X47589448Y-31893949D01*
X47630524Y-31816159D01*
X53445711Y-36614000D02*
X53665191Y-36614000D01*
X52236456Y-33506174D02*
X52423483Y-33342984D01*
X52589609Y-33166013D01*
X52734721Y-32976259D01*
X52858704Y-32774722D01*
X52961446Y-32562401D01*
X53042833Y-32340294D01*
X53102751Y-32109401D01*
X53141088Y-31870720D01*
X53157729Y-31625250D01*
X53152561Y-31373991D01*
X53125472Y-31117940D01*
X53076347Y-30858098D01*
X53005072Y-30595462D01*
X52911536Y-30331033D01*
X52795623Y-30065808D01*
X52657222Y-29800787D01*
X47796703Y-28642005D02*
X47592168Y-28630523D01*
X47449777Y-28608865D01*
X47638566Y-31816718D02*
X47639710Y-31612441D01*
X47579466Y-31507846D01*
X51094467Y-32791779D02*
X50966052Y-32945162D01*
X50959507Y-33003608D01*
X66390853Y-39626028D02*
G75*
G03*
X66610328Y-39406523I1147J218328D01*
G01*
X51184673Y-33307316D02*
X51374530Y-33238776D01*
X51482373Y-33090877D01*
X48845614Y-40198985D02*
X49057803Y-40271771D01*
X49270490Y-40300919D01*
X49474342Y-40285963D01*
X49660029Y-40226439D01*
X42599452Y-34171818D02*
X42599452Y-34171818D01*
X60780605Y-147507309D02*
G75*
G03*
X60473190Y-147152621I-360505J-1891D01*
G01*
X47590410Y-31485453D02*
X47404269Y-31399710D01*
X47298836Y-31425351D01*
X48115688Y-28603224D02*
X48085931Y-28765824D01*
X60023924Y-147294512D02*
G75*
G03*
X59905691Y-147460026I340876J-368488D01*
G01*
X50993578Y-33185108D02*
X51179867Y-33262256D01*
X51186596Y-33262192D01*
X47291084Y-31398518D02*
X47150359Y-31553667D01*
X47120836Y-31706384D01*
X51451264Y-35986805D02*
X51305324Y-36143706D01*
X51128088Y-36243578D01*
X50931327Y-36285125D01*
X50890668Y-36286321D01*
X52151100Y-146558580D02*
G75*
G03*
X52151100Y-146322020I0J118280D01*
G01*
X47412875Y-31964402D02*
X47585185Y-31859858D01*
X47607448Y-31812531D01*
X47777999Y-31834939D02*
X47804810Y-31622737D01*
X47754125Y-31419964D01*
X47680096Y-31305252D01*
X44848268Y-34789803D02*
X43615575Y-35087371D01*
X60686000Y-148571370D02*
X60875170Y-148571370D01*
X45930712Y-29502572D02*
X45834630Y-29693765D01*
X45786019Y-29890424D01*
X45885029Y-30089511D01*
X46026940Y-30120940D01*
X70497294Y-39657370D02*
G75*
G03*
X71218434Y-39092978I-128794J907470D01*
G01*
X51183904Y-33336792D02*
X51183904Y-33336792D01*
X51187652Y-33247021D02*
X51187652Y-33247021D01*
D11*
X58973523Y-122467857D02*
X59125904Y-122325000D01*
X59430666Y-122182142D01*
X60192571Y-122182142D01*
X60497333Y-122325000D01*
X60649714Y-122467857D01*
X60802095Y-122753571D01*
X60802095Y-123039285D01*
X60649714Y-123467857D01*
X58821142Y-125182142D01*
X60802095Y-125182142D01*
X75735428Y-122182142D02*
X75125904Y-122182142D01*
X74821142Y-122325000D01*
X74668761Y-122467857D01*
X74364000Y-122896428D01*
X74211619Y-123467857D01*
X74211619Y-124610714D01*
X74364000Y-124896428D01*
X74516380Y-125039285D01*
X74821142Y-125182142D01*
X75430666Y-125182142D01*
X75735428Y-125039285D01*
X75887809Y-124896428D01*
X76040190Y-124610714D01*
X76040190Y-123896428D01*
X75887809Y-123610714D01*
X75735428Y-123467857D01*
X75430666Y-123325000D01*
X74821142Y-123325000D01*
X74516380Y-123467857D01*
X74364000Y-123610714D01*
X74211619Y-123896428D01*
X60497333Y-101846142D02*
X60497333Y-103846142D01*
X59735428Y-100703285D02*
X58973523Y-102846142D01*
X60954476Y-102846142D01*
X74821142Y-102131857D02*
X74516380Y-101989000D01*
X74364000Y-101846142D01*
X74211619Y-101560428D01*
X74211619Y-101417571D01*
X74364000Y-101131857D01*
X74516380Y-100989000D01*
X74821142Y-100846142D01*
X75430666Y-100846142D01*
X75735428Y-100989000D01*
X75887809Y-101131857D01*
X76040190Y-101417571D01*
X76040190Y-101560428D01*
X75887809Y-101846142D01*
X75735428Y-101989000D01*
X75430666Y-102131857D01*
X74821142Y-102131857D01*
X74516380Y-102274714D01*
X74364000Y-102417571D01*
X74211619Y-102703285D01*
X74211619Y-103274714D01*
X74364000Y-103560428D01*
X74516380Y-103703285D01*
X74821142Y-103846142D01*
X75430666Y-103846142D01*
X75735428Y-103703285D01*
X75887809Y-103560428D01*
X76040190Y-103274714D01*
X76040190Y-102703285D01*
X75887809Y-102417571D01*
X75735428Y-102274714D01*
X75430666Y-102131857D01*
D12*
X34691285Y-124160142D02*
X34691285Y-121160142D01*
X35834142Y-121160142D01*
X36119857Y-121303000D01*
X36262714Y-121445857D01*
X36405571Y-121731571D01*
X36405571Y-122160142D01*
X36262714Y-122445857D01*
X36119857Y-122588714D01*
X35834142Y-122731571D01*
X34691285Y-122731571D01*
X38119857Y-124160142D02*
X37834142Y-124017285D01*
X37691285Y-123731571D01*
X37691285Y-121160142D01*
X40548428Y-124160142D02*
X40548428Y-122588714D01*
X40405571Y-122303000D01*
X40119857Y-122160142D01*
X39548428Y-122160142D01*
X39262714Y-122303000D01*
X40548428Y-124017285D02*
X40262714Y-124160142D01*
X39548428Y-124160142D01*
X39262714Y-124017285D01*
X39119857Y-123731571D01*
X39119857Y-123445857D01*
X39262714Y-123160142D01*
X39548428Y-123017285D01*
X40262714Y-123017285D01*
X40548428Y-122874428D01*
X41691285Y-122160142D02*
X42405571Y-124160142D01*
X43119857Y-122160142D02*
X42405571Y-124160142D01*
X42119857Y-124874428D01*
X41977000Y-125017285D01*
X41691285Y-125160142D01*
X34548428Y-138507285D02*
X34977000Y-138650142D01*
X35691285Y-138650142D01*
X35977000Y-138507285D01*
X36119857Y-138364428D01*
X36262714Y-138078714D01*
X36262714Y-137793000D01*
X36119857Y-137507285D01*
X35977000Y-137364428D01*
X35691285Y-137221571D01*
X35119857Y-137078714D01*
X34834142Y-136935857D01*
X34691285Y-136793000D01*
X34548428Y-136507285D01*
X34548428Y-136221571D01*
X34691285Y-135935857D01*
X34834142Y-135793000D01*
X35119857Y-135650142D01*
X35834142Y-135650142D01*
X36262714Y-135793000D01*
X37119857Y-136650142D02*
X38262714Y-136650142D01*
X37548428Y-135650142D02*
X37548428Y-138221571D01*
X37691285Y-138507285D01*
X37977000Y-138650142D01*
X38262714Y-138650142D01*
X39691285Y-138650142D02*
X39405571Y-138507285D01*
X39262714Y-138364428D01*
X39119857Y-138078714D01*
X39119857Y-137221571D01*
X39262714Y-136935857D01*
X39405571Y-136793000D01*
X39691285Y-136650142D01*
X40119857Y-136650142D01*
X40405571Y-136793000D01*
X40548428Y-136935857D01*
X40691285Y-137221571D01*
X40691285Y-138078714D01*
X40548428Y-138364428D01*
X40405571Y-138507285D01*
X40119857Y-138650142D01*
X39691285Y-138650142D01*
X41977000Y-136650142D02*
X41977000Y-139650142D01*
X41977000Y-136793000D02*
X42262714Y-136650142D01*
X42834142Y-136650142D01*
X43119857Y-136793000D01*
X43262714Y-136935857D01*
X43405571Y-137221571D01*
X43405571Y-138078714D01*
X43262714Y-138364428D01*
X43119857Y-138507285D01*
X42834142Y-138650142D01*
X42262714Y-138650142D01*
X41977000Y-138507285D01*
D11*
X60802095Y-135723142D02*
X58973523Y-135723142D01*
X59887809Y-135723142D02*
X59887809Y-132723142D01*
X59583047Y-133151714D01*
X59278285Y-133437428D01*
X58973523Y-133580285D01*
X75887809Y-132723142D02*
X74364000Y-132723142D01*
X74211619Y-134151714D01*
X74364000Y-134008857D01*
X74668761Y-133866000D01*
X75430666Y-133866000D01*
X75735428Y-134008857D01*
X75887809Y-134151714D01*
X76040190Y-134437428D01*
X76040190Y-135151714D01*
X75887809Y-135437428D01*
X75735428Y-135580285D01*
X75430666Y-135723142D01*
X74668761Y-135723142D01*
X74364000Y-135580285D01*
X74211619Y-135437428D01*
D12*
X49602857Y-79081142D02*
X49602857Y-76081142D01*
X50745714Y-76081142D01*
X51031428Y-76224000D01*
X51174285Y-76366857D01*
X51317142Y-76652571D01*
X51317142Y-77081142D01*
X51174285Y-77366857D01*
X51031428Y-77509714D01*
X50745714Y-77652571D01*
X49602857Y-77652571D01*
X53031428Y-79081142D02*
X52745714Y-78938285D01*
X52602857Y-78652571D01*
X52602857Y-76081142D01*
X55460000Y-79081142D02*
X55460000Y-77509714D01*
X55317142Y-77224000D01*
X55031428Y-77081142D01*
X54460000Y-77081142D01*
X54174285Y-77224000D01*
X55460000Y-78938285D02*
X55174285Y-79081142D01*
X54460000Y-79081142D01*
X54174285Y-78938285D01*
X54031428Y-78652571D01*
X54031428Y-78366857D01*
X54174285Y-78081142D01*
X54460000Y-77938285D01*
X55174285Y-77938285D01*
X55460000Y-77795428D01*
X56602857Y-77081142D02*
X57317142Y-79081142D01*
X58031428Y-77081142D02*
X57317142Y-79081142D01*
X57031428Y-79795428D01*
X56888571Y-79938285D01*
X56602857Y-80081142D01*
X63602857Y-78938285D02*
X64031428Y-79081142D01*
X64745714Y-79081142D01*
X65031428Y-78938285D01*
X65174285Y-78795428D01*
X65317142Y-78509714D01*
X65317142Y-78224000D01*
X65174285Y-77938285D01*
X65031428Y-77795428D01*
X64745714Y-77652571D01*
X64174285Y-77509714D01*
X63888571Y-77366857D01*
X63745714Y-77224000D01*
X63602857Y-76938285D01*
X63602857Y-76652571D01*
X63745714Y-76366857D01*
X63888571Y-76224000D01*
X64174285Y-76081142D01*
X64888571Y-76081142D01*
X65317142Y-76224000D01*
X66174285Y-77081142D02*
X67317142Y-77081142D01*
X66602857Y-76081142D02*
X66602857Y-78652571D01*
X66745714Y-78938285D01*
X67031428Y-79081142D01*
X67317142Y-79081142D01*
X68745714Y-79081142D02*
X68460000Y-78938285D01*
X68317142Y-78795428D01*
X68174285Y-78509714D01*
X68174285Y-77652571D01*
X68317142Y-77366857D01*
X68460000Y-77224000D01*
X68745714Y-77081142D01*
X69174285Y-77081142D01*
X69460000Y-77224000D01*
X69602857Y-77366857D01*
X69745714Y-77652571D01*
X69745714Y-78509714D01*
X69602857Y-78795428D01*
X69460000Y-78938285D01*
X69174285Y-79081142D01*
X68745714Y-79081142D01*
X71031428Y-77081142D02*
X71031428Y-80081142D01*
X71031428Y-77224000D02*
X71317142Y-77081142D01*
X71888571Y-77081142D01*
X72174285Y-77224000D01*
X72317142Y-77366857D01*
X72460000Y-77652571D01*
X72460000Y-78509714D01*
X72317142Y-78795428D01*
X72174285Y-78938285D01*
X71888571Y-79081142D01*
X71317142Y-79081142D01*
X71031428Y-78938285D01*
D11*
X58821142Y-111387142D02*
X60802095Y-111387142D01*
X59735428Y-112530000D01*
X60192571Y-112530000D01*
X60497333Y-112672857D01*
X60649714Y-112815714D01*
X60802095Y-113101428D01*
X60802095Y-113815714D01*
X60649714Y-114101428D01*
X60497333Y-114244285D01*
X60192571Y-114387142D01*
X59278285Y-114387142D01*
X58973523Y-114244285D01*
X58821142Y-114101428D01*
X74059238Y-111387142D02*
X76192571Y-111387142D01*
X74821142Y-114387142D01*
M02*
