%TF.GenerationSoftware,KiCad,Pcbnew,(6.0.7-1)-1*%
%TF.CreationDate,2022-12-12T14:07:04+01:00*%
%TF.ProjectId,panel,70616e65-6c2e-46b6-9963-61645f706362,rev?*%
%TF.SameCoordinates,Original*%
%TF.FileFunction,Profile,NP*%
%FSLAX46Y46*%
G04 Gerber Fmt 4.6, Leading zero omitted, Abs format (unit mm)*
G04 Created by KiCad (PCBNEW (6.0.7-1)-1) date 2022-12-12 14:07:04*
%MOMM*%
%LPD*%
G01*
G04 APERTURE LIST*
%TA.AperFunction,Profile*%
%ADD10C,0.200000*%
%TD*%
G04 APERTURE END LIST*
D10*
X62947997Y-25317000D02*
G75*
G03*
X62947998Y-23503002I-2911797J907000D01*
G01*
X30802000Y-22660000D02*
X27270000Y-22660000D01*
X66499000Y-67410000D02*
G75*
G03*
X66499000Y-67410000I-6900000J0D01*
G01*
X22036000Y-21410000D02*
X67416000Y-21410000D01*
X31500500Y-53210000D02*
X54419500Y-53210000D01*
X26124003Y-25317001D02*
G75*
G03*
X27270005Y-26160001I1145645J356971D01*
G01*
X30802000Y-145060000D02*
X27270000Y-145060000D01*
X57124005Y-147717000D02*
G75*
G03*
X58270005Y-148560001I1145645J356970D01*
G01*
X67416000Y-21410000D02*
X67416000Y-149810000D01*
X30536000Y-116310000D02*
G75*
G03*
X30536000Y-116310000I-3000000J0D01*
G01*
X31947997Y-25317000D02*
G75*
G03*
X31947998Y-23503002I-2911970J907001D01*
G01*
X61802000Y-145060000D02*
X58270000Y-145060000D01*
X47136000Y-121860000D02*
G75*
G03*
X47136000Y-121860000I-3000000J0D01*
G01*
X26124002Y-23503001D02*
G75*
G03*
X26124002Y-25316999I2912026J-906999D01*
G01*
X62536000Y-132510000D02*
G75*
G03*
X62536000Y-132510000I-3000000J0D01*
G01*
X58270003Y-145059996D02*
G75*
G03*
X57124004Y-145903001I-233J-1200134D01*
G01*
X61802000Y-22660000D02*
X58270000Y-22660000D01*
X57124002Y-23503001D02*
G75*
G03*
X57124002Y-25316999I2912198J-906999D01*
G01*
X52383000Y-67410000D02*
G75*
G03*
X52383000Y-67410000I-6900000J0D01*
G01*
X47136000Y-132510000D02*
G75*
G03*
X47136000Y-132510000I-3000000J0D01*
G01*
X27270000Y-26160000D02*
X30802000Y-26160000D01*
X47136000Y-100410000D02*
G75*
G03*
X47136000Y-100410000I-3000000J0D01*
G01*
X61801996Y-26159997D02*
G75*
G03*
X62947996Y-25317000I234J1200137D01*
G01*
X26124002Y-145903001D02*
G75*
G03*
X26124002Y-147716999I2912026J-906999D01*
G01*
X31947996Y-23503000D02*
G75*
G03*
X30801996Y-22660000I-1145674J-357011D01*
G01*
X30000500Y-45710000D02*
X30000500Y-51710000D01*
X30000500Y-51710000D02*
G75*
G03*
X31500500Y-53210000I1499994J-6D01*
G01*
X62947969Y-145903008D02*
G75*
G03*
X61801996Y-145060000I-1145669J-356992D01*
G01*
X62536000Y-100410000D02*
G75*
G03*
X62536000Y-100410000I-3000000J0D01*
G01*
X62947969Y-23503008D02*
G75*
G03*
X61801996Y-22660000I-1145669J-356992D01*
G01*
X27270000Y-148560000D02*
X30802000Y-148560000D01*
X30801996Y-26160000D02*
G75*
G03*
X31947996Y-25317000I232J1200139D01*
G01*
X54419500Y-53210000D02*
G75*
G03*
X55919500Y-51710000I-40J1500040D01*
G01*
X55919500Y-45710000D02*
G75*
G03*
X54419500Y-44210000I-1500000J0D01*
G01*
X54419500Y-44210000D02*
X31500500Y-44210000D01*
X31947996Y-145903000D02*
G75*
G03*
X30801996Y-145060000I-1145674J-357011D01*
G01*
X57124002Y-145903001D02*
G75*
G03*
X57124002Y-147716999I2912198J-906999D01*
G01*
X26124003Y-147717001D02*
G75*
G03*
X27270005Y-148560001I1145645J356971D01*
G01*
X58270003Y-22659996D02*
G75*
G03*
X57124004Y-23503001I-233J-1200134D01*
G01*
X61801996Y-148559997D02*
G75*
G03*
X62947996Y-147717000I234J1200137D01*
G01*
X55919500Y-51710000D02*
X55919500Y-45710000D01*
X62536000Y-121860000D02*
G75*
G03*
X62536000Y-121860000I-3000000J0D01*
G01*
X62947997Y-147717000D02*
G75*
G03*
X62947998Y-145903002I-2911797J907000D01*
G01*
X27270003Y-22660001D02*
G75*
G03*
X26124004Y-23503001I-236J-1200131D01*
G01*
X47136000Y-111010000D02*
G75*
G03*
X47136000Y-111010000I-3000000J0D01*
G01*
X34836000Y-67456000D02*
G75*
G03*
X34836000Y-67456000I-4500000J0D01*
G01*
X58270000Y-26160000D02*
X61802000Y-26160000D01*
X67416000Y-149810000D02*
X22036000Y-149810000D01*
X57124005Y-25317000D02*
G75*
G03*
X58270005Y-26160001I1145645J356970D01*
G01*
X62536000Y-111010000D02*
G75*
G03*
X62536000Y-111010000I-3000000J0D01*
G01*
X22036000Y-149810000D02*
X22036000Y-21410000D01*
X27270003Y-145060001D02*
G75*
G03*
X26124004Y-145903001I-236J-1200131D01*
G01*
X58270000Y-148560000D02*
X61802000Y-148560000D01*
X30801996Y-148560000D02*
G75*
G03*
X31947996Y-147717000I232J1200139D01*
G01*
X31500500Y-44210000D02*
G75*
G03*
X30000500Y-45710000I59J-1500059D01*
G01*
X31947997Y-147717000D02*
G75*
G03*
X31947998Y-145903002I-2911970J907001D01*
G01*
X30536000Y-131010000D02*
G75*
G03*
X30536000Y-131010000I-3000000J0D01*
G01*
M02*
