%TF.GenerationSoftware,KiCad,Pcbnew,(6.0.7-1)-1*%
%TF.CreationDate,2022-12-12T14:07:04+01:00*%
%TF.ProjectId,panel,70616e65-6c2e-46b6-9963-61645f706362,rev?*%
%TF.SameCoordinates,Original*%
%TF.FileFunction,Soldermask,Top*%
%TF.FilePolarity,Negative*%
%FSLAX46Y46*%
G04 Gerber Fmt 4.6, Leading zero omitted, Abs format (unit mm)*
G04 Created by KiCad (PCBNEW (6.0.7-1)-1) date 2022-12-12 14:07:04*
%MOMM*%
%LPD*%
G01*
G04 APERTURE LIST*
%ADD10C,0.150000*%
G04 APERTURE END LIST*
D10*
X21982870Y-28255000D02*
X67452870Y-28255000D01*
X67452870Y-28255000D02*
X67452870Y-29205000D01*
X67452870Y-29205000D02*
X21982870Y-29205000D01*
X21982870Y-29205000D02*
X21982870Y-28255000D01*
G36*
X21982870Y-28255000D02*
G01*
X67452870Y-28255000D01*
X67452870Y-29205000D01*
X21982870Y-29205000D01*
X21982870Y-28255000D01*
G37*
%TO.C,kibuzzard-63947FA2*%
G36*
X21671952Y-140262442D02*
G01*
X67820048Y-140262442D01*
X67820048Y-142677558D01*
X21671952Y-142677558D01*
X21671952Y-141751252D01*
X38869869Y-141751252D01*
X38880156Y-141851773D01*
X38911017Y-141942514D01*
X38962452Y-142023477D01*
X39034461Y-142094660D01*
X39127044Y-142156065D01*
X39202847Y-142175115D01*
X39258806Y-142181465D01*
X40239881Y-142181465D01*
X40239881Y-142173527D01*
X40316081Y-142173527D01*
X40324019Y-142181465D01*
X40531981Y-142181465D01*
X40541506Y-142173527D01*
X40541506Y-141078152D01*
X40531981Y-141070215D01*
X40617706Y-141070215D01*
X40884406Y-141298815D01*
X41181269Y-141298815D01*
X41181269Y-142173527D01*
X41189206Y-142181465D01*
X41401931Y-142181465D01*
X41409869Y-142173527D01*
X41409869Y-141298815D01*
X41701969Y-141298815D01*
X41970256Y-141070215D01*
X42046456Y-141070215D01*
X42313156Y-141298815D01*
X42610019Y-141298815D01*
X42610019Y-142173527D01*
X42617956Y-142181465D01*
X42830681Y-142181465D01*
X42838619Y-142173527D01*
X42838619Y-141751252D01*
X43475206Y-141751252D01*
X43485493Y-141851773D01*
X43516354Y-141942514D01*
X43567789Y-142023477D01*
X43639798Y-142094660D01*
X43732381Y-142156065D01*
X43808184Y-142175115D01*
X43864144Y-142181465D01*
X44845219Y-142181465D01*
X44845219Y-141952865D01*
X43880019Y-141952865D01*
X43774450Y-141921115D01*
X43708569Y-141825865D01*
X43703806Y-141792527D01*
X43703806Y-141754427D01*
X44921419Y-141754427D01*
X44935706Y-141862774D01*
X44978569Y-141971915D01*
X45049212Y-142063593D01*
X45124619Y-142129077D01*
X45204787Y-142168368D01*
X45289719Y-142181465D01*
X45921544Y-142181465D01*
X46014677Y-142165060D01*
X46103577Y-142115848D01*
X46188244Y-142033827D01*
X46251744Y-141934211D01*
X46286669Y-141813165D01*
X46278731Y-141803640D01*
X46070769Y-141803640D01*
X46061244Y-141813165D01*
X45999331Y-141916749D01*
X45902494Y-141951277D01*
X45286544Y-141951277D01*
X45185341Y-141888174D01*
X45151606Y-141803640D01*
X45151606Y-141751252D01*
X46364456Y-141751252D01*
X46374743Y-141851773D01*
X46405604Y-141942514D01*
X46457039Y-142023477D01*
X46529048Y-142094660D01*
X46621631Y-142156065D01*
X46697434Y-142175115D01*
X46753394Y-142181465D01*
X47340769Y-142181465D01*
X47449314Y-142165093D01*
X47544763Y-142115980D01*
X47627114Y-142034125D01*
X47696369Y-141919527D01*
X47721372Y-141833008D01*
X47729382Y-141754427D01*
X47809081Y-141754427D01*
X47823369Y-141862774D01*
X47866231Y-141971915D01*
X47936875Y-142063593D01*
X48012281Y-142129077D01*
X48092450Y-142168368D01*
X48177381Y-142181465D01*
X48809206Y-142181465D01*
X48854271Y-142173527D01*
X49252119Y-142173527D01*
X49260056Y-142181465D01*
X49474369Y-142181465D01*
X49482306Y-142173527D01*
X49482306Y-141459152D01*
X49517231Y-141361521D01*
X49622006Y-141303577D01*
X49653756Y-141298815D01*
X50220494Y-141298815D01*
X50301809Y-141315395D01*
X50359488Y-141365137D01*
X50393531Y-141448040D01*
X50393531Y-142173527D01*
X50401469Y-142181465D01*
X50614194Y-142181465D01*
X50622131Y-142173527D01*
X50622131Y-141500427D01*
X50608836Y-141386722D01*
X50568950Y-141285321D01*
X50502473Y-141196222D01*
X50409406Y-141119427D01*
X50324475Y-141082518D01*
X50237956Y-141070215D01*
X49637881Y-141070215D01*
X49555331Y-141079343D01*
X49482306Y-141106727D01*
X49482306Y-141070215D01*
X49252119Y-141070215D01*
X49252119Y-142173527D01*
X48854271Y-142173527D01*
X48902340Y-142165060D01*
X48991240Y-142115848D01*
X49075906Y-142033827D01*
X49139406Y-141934211D01*
X49174331Y-141813165D01*
X49166394Y-141803640D01*
X48958431Y-141803640D01*
X48948906Y-141813165D01*
X48886994Y-141916749D01*
X48790156Y-141951277D01*
X48174206Y-141951277D01*
X48073003Y-141888174D01*
X48039269Y-141803640D01*
X48039269Y-141448040D01*
X48073135Y-141365137D01*
X48130285Y-141315395D01*
X48210719Y-141298815D01*
X48777456Y-141298815D01*
X48856478Y-141315395D01*
X48913628Y-141365137D01*
X48948906Y-141448040D01*
X48175794Y-141448040D01*
X48456781Y-141676640D01*
X49166394Y-141676640D01*
X49174331Y-141668702D01*
X49174331Y-141459152D01*
X49150519Y-141340090D01*
X49079974Y-141222019D01*
X48996928Y-141137683D01*
X48901380Y-141087082D01*
X48793331Y-141070215D01*
X48194844Y-141070215D01*
X48107134Y-141082518D01*
X48021806Y-141119427D01*
X47928739Y-141196222D01*
X47862262Y-141285321D01*
X47822377Y-141386722D01*
X47809081Y-141500427D01*
X47809081Y-141754427D01*
X47729382Y-141754427D01*
X47729706Y-141751252D01*
X47729706Y-141498840D01*
X47716907Y-141389897D01*
X47678509Y-141291671D01*
X47614513Y-141204160D01*
X47524919Y-141127365D01*
X47429272Y-141084502D01*
X47304256Y-141070215D01*
X46789906Y-141070215D01*
X46685131Y-141080533D01*
X46593056Y-141111490D01*
X46593056Y-141006715D01*
X46364456Y-140857490D01*
X46364456Y-141751252D01*
X45151606Y-141751252D01*
X45151606Y-141448040D01*
X45185473Y-141365137D01*
X45242623Y-141315395D01*
X45323056Y-141298815D01*
X45889794Y-141298815D01*
X45968816Y-141315395D01*
X46025966Y-141365137D01*
X46061244Y-141448040D01*
X45288131Y-141448040D01*
X45569119Y-141676640D01*
X46278731Y-141676640D01*
X46286669Y-141668702D01*
X46286669Y-141459152D01*
X46262856Y-141340090D01*
X46192312Y-141222019D01*
X46109266Y-141137683D01*
X46013718Y-141087082D01*
X45905669Y-141070215D01*
X45307181Y-141070215D01*
X45219472Y-141082518D01*
X45134144Y-141119427D01*
X45041077Y-141196222D01*
X44974600Y-141285321D01*
X44934714Y-141386722D01*
X44921419Y-141500427D01*
X44921419Y-141754427D01*
X43703806Y-141754427D01*
X43703806Y-141138477D01*
X43475206Y-140989252D01*
X43475206Y-141751252D01*
X42838619Y-141751252D01*
X42838619Y-141298815D01*
X43130719Y-141298815D01*
X43399006Y-141070215D01*
X42046456Y-141070215D01*
X41970256Y-141070215D01*
X40617706Y-141070215D01*
X40531981Y-141070215D01*
X40324019Y-141070215D01*
X40316081Y-141078152D01*
X40316081Y-142173527D01*
X40239881Y-142173527D01*
X40239881Y-141952865D01*
X39274681Y-141952865D01*
X39169112Y-141921115D01*
X39103231Y-141825865D01*
X39098469Y-141792527D01*
X39098469Y-141138477D01*
X38874733Y-140992427D01*
X40316081Y-140992427D01*
X40324019Y-141000365D01*
X40531981Y-141000365D01*
X40541506Y-140992427D01*
X40541506Y-140779702D01*
X40531981Y-140771765D01*
X40324019Y-140771765D01*
X40316081Y-140779702D01*
X40316081Y-140992427D01*
X38874733Y-140992427D01*
X38869869Y-140989252D01*
X38869869Y-141751252D01*
X21671952Y-141751252D01*
X21671952Y-140262442D01*
G37*
G36*
X47406253Y-141319452D02*
G01*
X47475706Y-141381365D01*
X47501106Y-141449627D01*
X47501106Y-141792527D01*
X47469533Y-141881603D01*
X47410795Y-141935049D01*
X47324894Y-141952865D01*
X46769269Y-141952865D01*
X46663700Y-141921115D01*
X46597819Y-141825865D01*
X46593056Y-141792527D01*
X46593056Y-141462327D01*
X46624806Y-141367077D01*
X46720056Y-141306752D01*
X46810544Y-141298815D01*
X47283619Y-141298815D01*
X47406253Y-141319452D01*
G37*
%TD*%
M02*
