%TF.GenerationSoftware,KiCad,Pcbnew,(6.0.7-1)-1*%
%TF.CreationDate,2022-12-12T14:07:04+01:00*%
%TF.ProjectId,panel,70616e65-6c2e-46b6-9963-61645f706362,rev?*%
%TF.SameCoordinates,Original*%
%TF.FileFunction,Legend,Bot*%
%TF.FilePolarity,Positive*%
%FSLAX46Y46*%
G04 Gerber Fmt 4.6, Leading zero omitted, Abs format (unit mm)*
G04 Created by KiCad (PCBNEW (6.0.7-1)-1) date 2022-12-12 14:07:04*
%MOMM*%
%LPD*%
G01*
G04 APERTURE LIST*
%ADD10C,0.150000*%
%ADD11C,0.010000*%
G04 APERTURE END LIST*
D10*
X56868622Y-95239010D02*
X56868622Y-95953296D01*
X56821003Y-96096153D01*
X56725765Y-96191391D01*
X56582908Y-96239010D01*
X56487670Y-96239010D01*
X57821003Y-96239010D02*
X57344812Y-96239010D01*
X57344812Y-95239010D01*
X58725765Y-96143772D02*
X58678146Y-96191391D01*
X58535289Y-96239010D01*
X58440050Y-96239010D01*
X58297193Y-96191391D01*
X58201955Y-96096153D01*
X58154336Y-96000915D01*
X58106717Y-95810439D01*
X58106717Y-95667582D01*
X58154336Y-95477106D01*
X58201955Y-95381868D01*
X58297193Y-95286630D01*
X58440050Y-95239010D01*
X58535289Y-95239010D01*
X58678146Y-95286630D01*
X58725765Y-95334249D01*
X59440050Y-95239010D02*
X59440050Y-95953296D01*
X59392431Y-96096153D01*
X59297193Y-96191391D01*
X59154336Y-96239010D01*
X59059098Y-96239010D01*
X60392431Y-96239010D02*
X59916241Y-96239010D01*
X59916241Y-95239010D01*
X61297193Y-96143772D02*
X61249574Y-96191391D01*
X61106717Y-96239010D01*
X61011479Y-96239010D01*
X60868622Y-96191391D01*
X60773384Y-96096153D01*
X60725765Y-96000915D01*
X60678146Y-95810439D01*
X60678146Y-95667582D01*
X60725765Y-95477106D01*
X60773384Y-95381868D01*
X60868622Y-95286630D01*
X61011479Y-95239010D01*
X61106717Y-95239010D01*
X61249574Y-95286630D01*
X61297193Y-95334249D01*
X62011479Y-95239010D02*
X62011479Y-95953296D01*
X61963860Y-96096153D01*
X61868622Y-96191391D01*
X61725765Y-96239010D01*
X61630527Y-96239010D01*
X62963860Y-96239010D02*
X62487670Y-96239010D01*
X62487670Y-95239010D01*
X63868622Y-96143772D02*
X63821003Y-96191391D01*
X63678146Y-96239010D01*
X63582908Y-96239010D01*
X63440050Y-96191391D01*
X63344812Y-96096153D01*
X63297193Y-96000915D01*
X63249574Y-95810439D01*
X63249574Y-95667582D01*
X63297193Y-95477106D01*
X63344812Y-95381868D01*
X63440050Y-95286630D01*
X63582908Y-95239010D01*
X63678146Y-95239010D01*
X63821003Y-95286630D01*
X63868622Y-95334249D01*
X64582908Y-95239010D02*
X64582908Y-95953296D01*
X64535289Y-96096153D01*
X64440050Y-96191391D01*
X64297193Y-96239010D01*
X64201955Y-96239010D01*
X65535289Y-96239010D02*
X65059098Y-96239010D01*
X65059098Y-95239010D01*
X66440050Y-96143772D02*
X66392431Y-96191391D01*
X66249574Y-96239010D01*
X66154336Y-96239010D01*
X66011479Y-96191391D01*
X65916241Y-96096153D01*
X65868622Y-96000915D01*
X65821003Y-95810439D01*
X65821003Y-95667582D01*
X65868622Y-95477106D01*
X65916241Y-95381868D01*
X66011479Y-95286630D01*
X66154336Y-95239010D01*
X66249574Y-95239010D01*
X66392431Y-95286630D01*
X66440050Y-95334249D01*
%TO.C,kibuzzard-639724E7*%
G36*
X65097839Y-77064462D02*
G01*
X65316121Y-77186005D01*
X65497195Y-77362118D01*
X65643542Y-77580400D01*
X65755163Y-77825966D01*
X65834538Y-78083935D01*
X65881667Y-78341903D01*
X65896550Y-78587470D01*
X65889109Y-78751181D01*
X65876706Y-78919853D01*
X65608816Y-78637079D01*
X65576570Y-78800790D01*
X65549285Y-78952099D01*
X65519519Y-79088525D01*
X65482312Y-79207587D01*
X65427742Y-79309286D01*
X65350847Y-79391142D01*
X65246667Y-79448193D01*
X65102800Y-79480439D01*
X65013503Y-79460595D01*
X64941570Y-79423388D01*
X64874597Y-79373778D01*
X64800183Y-79316728D01*
X64944050Y-79128212D01*
X64557097Y-78711493D01*
X64413230Y-78855360D01*
X64889480Y-79678876D01*
X64646394Y-79666474D01*
X64433074Y-79569735D01*
X64591824Y-79351454D01*
X64224714Y-78919853D01*
X64036199Y-79083564D01*
X63939460Y-78862802D01*
X63867527Y-78649482D01*
X63817917Y-78433681D01*
X63793113Y-78205478D01*
X63800554Y-78071532D01*
X63817917Y-77937587D01*
X64204871Y-78438642D01*
X64095730Y-77843329D01*
X64110613Y-77672177D01*
X64150300Y-77533271D01*
X64207351Y-77424130D01*
X64281765Y-77339794D01*
X64368581Y-77280263D01*
X64457878Y-77243056D01*
X64547175Y-77220732D01*
X64626550Y-77213290D01*
X64735691Y-77243056D01*
X64681121Y-77044618D01*
X64762976Y-77024775D01*
X64844831Y-77014853D01*
X65097839Y-77064462D01*
G37*
G36*
X60948015Y-79083564D02*
G01*
X61096843Y-79284482D01*
X61233269Y-79492841D01*
X61352331Y-79718564D01*
X61210945Y-79676396D01*
X61101804Y-79597021D01*
X61014988Y-79492841D01*
X60940574Y-79381220D01*
X60886003Y-79264638D01*
X60853757Y-79138134D01*
X60831433Y-79006669D01*
X60806628Y-78875204D01*
X60948015Y-79083564D01*
G37*
G36*
X21640027Y-75361207D02*
G01*
X67535313Y-75361207D01*
X67535313Y-81392053D01*
X21640027Y-81392053D01*
X21640027Y-79014110D01*
X47040027Y-79014110D01*
X47188855Y-80140243D01*
X47211179Y-80189853D01*
X47253347Y-80232021D01*
X47305437Y-80261786D01*
X47362488Y-80274189D01*
X47675027Y-80298993D01*
X47650222Y-80021181D01*
X48037175Y-80120400D01*
X47774747Y-78475849D01*
X48317468Y-78475849D01*
X48322429Y-78699091D01*
X48344753Y-78937216D01*
X48381960Y-79182782D01*
X48426609Y-79430829D01*
X48471257Y-79681357D01*
X48513425Y-79931884D01*
X48548152Y-80174970D01*
X48984714Y-80284110D01*
X48781316Y-78974423D01*
X49227800Y-79624306D01*
X49133542Y-78696610D01*
X49133542Y-78570107D01*
X49165788Y-78488251D01*
X49220359Y-78446083D01*
X49292292Y-78428720D01*
X49490730Y-78483290D01*
X49637078Y-78629638D01*
X49741257Y-78847919D01*
X49815671Y-79115810D01*
X49867761Y-79408505D01*
X49907449Y-79706161D01*
X49947136Y-79983974D01*
X49991785Y-80214657D01*
X50423386Y-80333720D01*
X50299363Y-79430829D01*
X50750808Y-80050946D01*
X50678541Y-79549892D01*
X50919480Y-79549892D01*
X50988933Y-80219618D01*
X51544558Y-80333720D01*
X51445339Y-79673915D01*
X50919480Y-79549892D01*
X50678541Y-79549892D01*
X50669955Y-79490360D01*
X51504871Y-79490360D01*
X51703308Y-79822743D01*
X51658660Y-79544931D01*
X51504871Y-79490360D01*
X50669955Y-79490360D01*
X50603054Y-79026513D01*
X52087781Y-79026513D01*
X52097703Y-79105888D01*
X52124988Y-79177821D01*
X52239089Y-79202626D01*
X52373035Y-79232392D01*
X52511941Y-79262157D01*
X52645886Y-79291923D01*
X52628523Y-79222470D01*
X52603718Y-79153017D01*
X52583874Y-79083564D01*
X52571472Y-79009150D01*
X52848044Y-79067441D01*
X53122136Y-79123251D01*
X53396228Y-79177821D01*
X53672800Y-79232392D01*
X53685203Y-79257196D01*
X53700085Y-79284482D01*
X53712488Y-79309286D01*
X53717449Y-79336571D01*
X53677761Y-79468036D01*
X53618230Y-79574696D01*
X53536374Y-79644150D01*
X53429714Y-79668954D01*
X53320574Y-79649110D01*
X53201511Y-79594540D01*
X53087410Y-79507724D01*
X52998113Y-79396103D01*
X52933621Y-79341532D01*
X52854246Y-79311767D01*
X52804636Y-79301845D01*
X52750066Y-79301845D01*
X53037800Y-79872353D01*
X52916257Y-79815302D01*
X52812078Y-79730966D01*
X52725261Y-79631747D01*
X52645886Y-79530048D01*
X52219246Y-79500282D01*
X52293660Y-79659032D01*
X52390398Y-79815302D01*
X52504499Y-79959169D01*
X52638445Y-80085673D01*
X52787273Y-80192333D01*
X52946023Y-80271708D01*
X53112214Y-80318837D01*
X53285847Y-80328759D01*
X53146941Y-80045985D01*
X53266003Y-80070790D01*
X53390027Y-80098075D01*
X53506609Y-80120400D01*
X53603347Y-80130321D01*
X53826589Y-80085673D01*
X53977898Y-79988935D01*
X54079597Y-79840107D01*
X54149050Y-79644150D01*
X54312761Y-79792978D01*
X54349968Y-79730966D01*
X54382214Y-79649110D01*
X54409499Y-79557333D01*
X54431824Y-79463075D01*
X54449187Y-79371298D01*
X54461589Y-79289443D01*
X54469031Y-79224950D01*
X54471511Y-79182782D01*
X54439265Y-78952099D01*
X54374773Y-78701571D01*
X54288720Y-78483290D01*
X54640183Y-78483290D01*
X54952722Y-80244423D01*
X55448816Y-80333720D01*
X55299988Y-79579657D01*
X55791121Y-80155126D01*
X55523881Y-78475849D01*
X56086296Y-78475849D01*
X56091257Y-78699091D01*
X56113581Y-78937216D01*
X56150788Y-79182782D01*
X56195437Y-79430829D01*
X56240085Y-79681357D01*
X56282253Y-79931884D01*
X56316980Y-80174970D01*
X56753542Y-80284110D01*
X56550144Y-78974423D01*
X56996628Y-79624306D01*
X56902371Y-78696610D01*
X56902371Y-78570107D01*
X56934617Y-78488251D01*
X56989187Y-78446083D01*
X57061121Y-78428720D01*
X57259558Y-78483290D01*
X57405906Y-78629638D01*
X57510085Y-78847919D01*
X57584499Y-79115810D01*
X57636589Y-79408505D01*
X57676277Y-79706161D01*
X57715964Y-79983974D01*
X57760613Y-80214657D01*
X58192214Y-80333720D01*
X58068191Y-79430829D01*
X58519636Y-80050946D01*
X58293532Y-78483290D01*
X58703191Y-78483290D01*
X59015730Y-80244423D01*
X59511824Y-80333720D01*
X59362996Y-79579657D01*
X59854128Y-80155126D01*
X59487019Y-77848290D01*
X59407644Y-77829429D01*
X59407644Y-77193446D01*
X59774753Y-77228173D01*
X59710261Y-76712235D01*
X59209206Y-76608056D01*
X59209206Y-76890829D01*
X58852019Y-76851142D01*
X58926433Y-77377001D01*
X59407644Y-77471259D01*
X59407644Y-77555595D01*
X59581277Y-77555595D01*
X59878933Y-78012001D01*
X59869266Y-77917743D01*
X60156746Y-77917743D01*
X60543699Y-80021181D01*
X61005066Y-80125360D01*
X61024910Y-79996376D01*
X61168777Y-80127841D01*
X61325046Y-80236982D01*
X61498679Y-80308915D01*
X61694636Y-80333720D01*
X61570613Y-80016220D01*
X61682234Y-80045985D01*
X61793855Y-80080712D01*
X61905476Y-80107997D01*
X62017097Y-80125360D01*
X62188249Y-80088153D01*
X62317234Y-79976532D01*
X62394128Y-79822743D01*
X62409011Y-79663993D01*
X62354441Y-79227431D01*
X62671941Y-79639189D01*
X62701706Y-79525087D01*
X62714109Y-79398583D01*
X62714109Y-79267118D01*
X62696746Y-79143095D01*
X62659996Y-78954579D01*
X63019206Y-78954579D01*
X63361511Y-79703681D01*
X63172996Y-79956689D01*
X63525222Y-80333720D01*
X63807996Y-80090634D01*
X63892331Y-80135282D01*
X63936980Y-80073271D01*
X63976667Y-80016220D01*
X64021316Y-79971571D01*
X64080847Y-79936845D01*
X64294167Y-80080712D01*
X64497566Y-80189853D01*
X64725769Y-80256825D01*
X65013503Y-80274189D01*
X65211941Y-80234501D01*
X65142488Y-80055907D01*
X65345886Y-80055907D01*
X65608816Y-80036064D01*
X65814695Y-79921962D01*
X65983367Y-79721044D01*
X66139636Y-79440751D01*
X66308308Y-79549892D01*
X66367839Y-79373778D01*
X66422410Y-79157978D01*
X66462097Y-78927294D01*
X66472019Y-78701571D01*
X66427371Y-78327021D01*
X66333113Y-77937587D01*
X66186765Y-77555595D01*
X65990808Y-77198407D01*
X65745242Y-76888349D01*
X65447585Y-76642782D01*
X65102800Y-76479071D01*
X64710886Y-76419540D01*
X64537253Y-76449306D01*
X64368581Y-76484032D01*
X64368581Y-76583251D01*
X64073406Y-76670067D01*
X63845203Y-76816415D01*
X63679011Y-77054540D01*
X63569871Y-77411728D01*
X63371433Y-77213290D01*
X63306941Y-77374521D01*
X63252371Y-77550634D01*
X63215163Y-77731708D01*
X63207722Y-77907821D01*
X63222605Y-78093857D01*
X63247410Y-78294775D01*
X63282136Y-78505614D01*
X63331746Y-78716454D01*
X63398718Y-78924814D01*
X63480574Y-79125732D01*
X63577312Y-79309286D01*
X63693894Y-79470517D01*
X63540105Y-79659032D01*
X63019206Y-78954579D01*
X62659996Y-78954579D01*
X62428855Y-77768915D01*
X61942683Y-77664735D01*
X62086550Y-78746220D01*
X61649988Y-78170751D01*
X61828581Y-79425868D01*
X61786413Y-79455634D01*
X61744246Y-79492841D01*
X61702078Y-79522607D01*
X61654949Y-79530048D01*
X61503640Y-79470517D01*
X61362253Y-79356415D01*
X61248152Y-79192704D01*
X61173738Y-78989306D01*
X60945535Y-77744110D01*
X60469285Y-77659775D01*
X60568503Y-78423759D01*
X60156746Y-77917743D01*
X59869266Y-77917743D01*
X59839246Y-77625048D01*
X59581277Y-77555595D01*
X59407644Y-77555595D01*
X59407644Y-77829429D01*
X59204246Y-79172860D01*
X58703191Y-78483290D01*
X58293532Y-78483290D01*
X58221980Y-77987196D01*
X57800300Y-77848290D01*
X57765574Y-77987196D01*
X57629148Y-77880536D01*
X57480320Y-77776357D01*
X57319089Y-77694501D01*
X57140496Y-77654814D01*
X57309167Y-78046728D01*
X57366218Y-78148427D01*
X57435671Y-78227802D01*
X57515046Y-78274931D01*
X57601863Y-78284853D01*
X57755652Y-78465927D01*
X57852390Y-78666845D01*
X57909441Y-78877685D01*
X57939206Y-79093485D01*
X57815183Y-78909931D01*
X57693640Y-78709013D01*
X57569617Y-78505614D01*
X57443113Y-78312138D01*
X57306687Y-78138505D01*
X57152898Y-77997118D01*
X56979265Y-77902860D01*
X56783308Y-77868134D01*
X56567507Y-77927665D01*
X56436042Y-78091376D01*
X56383953Y-78339423D01*
X56401316Y-78651962D01*
X56108621Y-78269970D01*
X56086296Y-78475849D01*
X55523881Y-78475849D01*
X55424011Y-77848290D01*
X55344636Y-77829429D01*
X55344636Y-77193446D01*
X55711746Y-77228173D01*
X55647253Y-76712235D01*
X55146199Y-76608056D01*
X55146199Y-76890829D01*
X54789011Y-76851142D01*
X54863425Y-77377001D01*
X55344636Y-77471259D01*
X55344636Y-77555595D01*
X55518269Y-77555595D01*
X55815925Y-78012001D01*
X55776238Y-77625048D01*
X55518269Y-77555595D01*
X55344636Y-77555595D01*
X55344636Y-77829429D01*
X55141238Y-79172860D01*
X54640183Y-78483290D01*
X54288720Y-78483290D01*
X54273074Y-78443603D01*
X54134167Y-78198036D01*
X53960535Y-77982235D01*
X53752175Y-77808603D01*
X53509089Y-77694501D01*
X53231277Y-77659775D01*
X53176706Y-77659775D01*
X53119656Y-77664735D01*
X53070046Y-77682099D01*
X53032839Y-77724267D01*
X53097331Y-77873095D01*
X53012996Y-77860692D01*
X52928660Y-77848290D01*
X52777351Y-77853251D01*
X52660769Y-77902860D01*
X52571472Y-77989677D01*
X52504499Y-78106259D01*
X52454890Y-78247646D01*
X52417683Y-78406396D01*
X52390398Y-78572587D01*
X52363113Y-78736298D01*
X52149792Y-78463446D01*
X52102663Y-78661884D01*
X52090261Y-78860321D01*
X52087781Y-78942177D01*
X52087781Y-79026513D01*
X50603054Y-79026513D01*
X50453152Y-77987196D01*
X50031472Y-77848290D01*
X49996746Y-77987196D01*
X49860320Y-77880536D01*
X49711492Y-77776357D01*
X49550261Y-77694501D01*
X49371667Y-77654814D01*
X49540339Y-78046728D01*
X49597390Y-78148427D01*
X49666843Y-78227802D01*
X49746218Y-78274931D01*
X49833035Y-78284853D01*
X49986824Y-78465927D01*
X50083562Y-78666845D01*
X50140613Y-78877685D01*
X50170378Y-79093485D01*
X50046355Y-78909931D01*
X49924812Y-78709013D01*
X49800788Y-78505614D01*
X49674285Y-78312138D01*
X49537859Y-78138505D01*
X49384070Y-77997118D01*
X49210437Y-77902860D01*
X49014480Y-77868134D01*
X48798679Y-77927665D01*
X48667214Y-78091376D01*
X48615124Y-78339423D01*
X48632488Y-78651962D01*
X48339792Y-78269970D01*
X48317468Y-78475849D01*
X47774747Y-78475849D01*
X47665105Y-77788759D01*
X48141355Y-78468407D01*
X47903230Y-76707275D01*
X47387292Y-76588212D01*
X47481550Y-77357157D01*
X47054910Y-76851142D01*
X47481550Y-79579657D01*
X47040027Y-79014110D01*
X21640027Y-79014110D01*
X21640027Y-75361207D01*
G37*
G36*
X53905964Y-79036435D02*
G01*
X54034949Y-79068681D01*
X54029988Y-79202626D01*
X54000222Y-79326650D01*
X53933249Y-79272079D01*
X53871238Y-79195185D01*
X53819148Y-79105888D01*
X53781941Y-79004189D01*
X53905964Y-79036435D01*
G37*
G36*
X53533894Y-78143466D02*
G01*
X53630632Y-78178192D01*
X53710007Y-78230282D01*
X53776980Y-78297255D01*
X53829070Y-78371669D01*
X53871238Y-78446083D01*
X53903484Y-78518017D01*
X53925808Y-78577548D01*
X53528933Y-78552743D01*
X53546296Y-78614755D01*
X53568621Y-78679247D01*
X53585984Y-78741259D01*
X53598386Y-78795829D01*
X52854246Y-78647001D01*
X52869128Y-78527939D01*
X52911296Y-78418798D01*
X52983230Y-78336942D01*
X53092371Y-78299735D01*
X53161824Y-78304696D01*
X53231277Y-78329501D01*
X53300730Y-78361747D01*
X53370183Y-78389032D01*
X53315613Y-78279892D01*
X53261042Y-78170751D01*
X53340417Y-78148427D01*
X53419792Y-78136025D01*
X53533894Y-78143466D01*
G37*
%TO.C,REF\u002A\u002A*%
G36*
X49470506Y-91541299D02*
G01*
X49484693Y-91554968D01*
X49526062Y-91596655D01*
X49580777Y-91653408D01*
X49646180Y-91722333D01*
X49719613Y-91800535D01*
X49798416Y-91885118D01*
X49879930Y-91973189D01*
X49961497Y-92061852D01*
X50040458Y-92148212D01*
X50114153Y-92229375D01*
X50179924Y-92302446D01*
X50235111Y-92364530D01*
X50277056Y-92412731D01*
X50303101Y-92444156D01*
X50310585Y-92455910D01*
X50308016Y-92457208D01*
X50283455Y-92470914D01*
X50234874Y-92498549D01*
X50164322Y-92538934D01*
X50073843Y-92590891D01*
X49965485Y-92653241D01*
X49841294Y-92724807D01*
X49703315Y-92804411D01*
X49553596Y-92890874D01*
X49394183Y-92983019D01*
X49227121Y-93079668D01*
X49164678Y-93115803D01*
X49000553Y-93210742D01*
X48845028Y-93300650D01*
X48700124Y-93384360D01*
X48567865Y-93460707D01*
X48450274Y-93528525D01*
X48349372Y-93586647D01*
X48267183Y-93633907D01*
X48205729Y-93669139D01*
X48167034Y-93691178D01*
X48153119Y-93698856D01*
X48153745Y-93694767D01*
X48165163Y-93671266D01*
X48186163Y-93633722D01*
X48199046Y-93611500D01*
X48226442Y-93564109D01*
X48266757Y-93494313D01*
X48318679Y-93404380D01*
X48380901Y-93296578D01*
X48452113Y-93173176D01*
X48531005Y-93036442D01*
X48616268Y-92888645D01*
X48706594Y-92732053D01*
X48800672Y-92568936D01*
X48892791Y-92409259D01*
X48982350Y-92254123D01*
X49066563Y-92108348D01*
X49144167Y-91974119D01*
X49213895Y-91853621D01*
X49274484Y-91749038D01*
X49324668Y-91662555D01*
X49363182Y-91596357D01*
X49388762Y-91552629D01*
X49400142Y-91533555D01*
X49423490Y-91497137D01*
X49470506Y-91541299D01*
G37*
D11*
X49470506Y-91541299D02*
X49484693Y-91554968D01*
X49526062Y-91596655D01*
X49580777Y-91653408D01*
X49646180Y-91722333D01*
X49719613Y-91800535D01*
X49798416Y-91885118D01*
X49879930Y-91973189D01*
X49961497Y-92061852D01*
X50040458Y-92148212D01*
X50114153Y-92229375D01*
X50179924Y-92302446D01*
X50235111Y-92364530D01*
X50277056Y-92412731D01*
X50303101Y-92444156D01*
X50310585Y-92455910D01*
X50308016Y-92457208D01*
X50283455Y-92470914D01*
X50234874Y-92498549D01*
X50164322Y-92538934D01*
X50073843Y-92590891D01*
X49965485Y-92653241D01*
X49841294Y-92724807D01*
X49703315Y-92804411D01*
X49553596Y-92890874D01*
X49394183Y-92983019D01*
X49227121Y-93079668D01*
X49164678Y-93115803D01*
X49000553Y-93210742D01*
X48845028Y-93300650D01*
X48700124Y-93384360D01*
X48567865Y-93460707D01*
X48450274Y-93528525D01*
X48349372Y-93586647D01*
X48267183Y-93633907D01*
X48205729Y-93669139D01*
X48167034Y-93691178D01*
X48153119Y-93698856D01*
X48153745Y-93694767D01*
X48165163Y-93671266D01*
X48186163Y-93633722D01*
X48199046Y-93611500D01*
X48226442Y-93564109D01*
X48266757Y-93494313D01*
X48318679Y-93404380D01*
X48380901Y-93296578D01*
X48452113Y-93173176D01*
X48531005Y-93036442D01*
X48616268Y-92888645D01*
X48706594Y-92732053D01*
X48800672Y-92568936D01*
X48892791Y-92409259D01*
X48982350Y-92254123D01*
X49066563Y-92108348D01*
X49144167Y-91974119D01*
X49213895Y-91853621D01*
X49274484Y-91749038D01*
X49324668Y-91662555D01*
X49363182Y-91596357D01*
X49388762Y-91552629D01*
X49400142Y-91533555D01*
X49423490Y-91497137D01*
X49470506Y-91541299D01*
G36*
X51233230Y-88372111D02*
G01*
X51244763Y-88389447D01*
X51270170Y-88431098D01*
X51308177Y-88494847D01*
X51357507Y-88578481D01*
X51416883Y-88679785D01*
X51485029Y-88796545D01*
X51560670Y-88926544D01*
X51642529Y-89067569D01*
X51729330Y-89217404D01*
X51819796Y-89373836D01*
X51912652Y-89534649D01*
X52006621Y-89697629D01*
X52100427Y-89860560D01*
X52192794Y-90021228D01*
X52282446Y-90177418D01*
X52368106Y-90326916D01*
X52448498Y-90467507D01*
X52522347Y-90596976D01*
X52588375Y-90713108D01*
X52645307Y-90813688D01*
X52691867Y-90896503D01*
X52726778Y-90959336D01*
X52748764Y-90999973D01*
X52756549Y-91016200D01*
X52756557Y-91016324D01*
X52744003Y-91033352D01*
X52707928Y-91062215D01*
X52652087Y-91100183D01*
X52580231Y-91144523D01*
X52532043Y-91172888D01*
X52462702Y-91212332D01*
X52414404Y-91237190D01*
X52383912Y-91248860D01*
X52367990Y-91248742D01*
X52363402Y-91238233D01*
X52363052Y-91236519D01*
X52349938Y-91215618D01*
X52321670Y-91180075D01*
X52283456Y-91136519D01*
X52265825Y-91117811D01*
X52211152Y-91067448D01*
X52150692Y-91024401D01*
X52080852Y-90987409D01*
X51998040Y-90955209D01*
X51898662Y-90926538D01*
X51779125Y-90900134D01*
X51635836Y-90874736D01*
X51465201Y-90849081D01*
X51268804Y-90820163D01*
X51078944Y-90789109D01*
X50912930Y-90757980D01*
X50767052Y-90725878D01*
X50637597Y-90691905D01*
X50520853Y-90655162D01*
X50413110Y-90614753D01*
X50310655Y-90569779D01*
X50235358Y-90532690D01*
X50163435Y-90493661D01*
X50106556Y-90458818D01*
X50069169Y-90430901D01*
X50055719Y-90412650D01*
X50056116Y-90411306D01*
X50066950Y-90389798D01*
X50091515Y-90344758D01*
X50128355Y-90278708D01*
X50176017Y-90194169D01*
X50233046Y-90093663D01*
X50297988Y-89979712D01*
X50369389Y-89854837D01*
X50445794Y-89721560D01*
X50525749Y-89582403D01*
X50607800Y-89439887D01*
X50690492Y-89296534D01*
X50772371Y-89154866D01*
X50851983Y-89017404D01*
X50927874Y-88886670D01*
X50998589Y-88765186D01*
X51062674Y-88655474D01*
X51118674Y-88560054D01*
X51165136Y-88481450D01*
X51200605Y-88422181D01*
X51223627Y-88384771D01*
X51232747Y-88371741D01*
X51233230Y-88372111D01*
G37*
X51233230Y-88372111D02*
X51244763Y-88389447D01*
X51270170Y-88431098D01*
X51308177Y-88494847D01*
X51357507Y-88578481D01*
X51416883Y-88679785D01*
X51485029Y-88796545D01*
X51560670Y-88926544D01*
X51642529Y-89067569D01*
X51729330Y-89217404D01*
X51819796Y-89373836D01*
X51912652Y-89534649D01*
X52006621Y-89697629D01*
X52100427Y-89860560D01*
X52192794Y-90021228D01*
X52282446Y-90177418D01*
X52368106Y-90326916D01*
X52448498Y-90467507D01*
X52522347Y-90596976D01*
X52588375Y-90713108D01*
X52645307Y-90813688D01*
X52691867Y-90896503D01*
X52726778Y-90959336D01*
X52748764Y-90999973D01*
X52756549Y-91016200D01*
X52756557Y-91016324D01*
X52744003Y-91033352D01*
X52707928Y-91062215D01*
X52652087Y-91100183D01*
X52580231Y-91144523D01*
X52532043Y-91172888D01*
X52462702Y-91212332D01*
X52414404Y-91237190D01*
X52383912Y-91248860D01*
X52367990Y-91248742D01*
X52363402Y-91238233D01*
X52363052Y-91236519D01*
X52349938Y-91215618D01*
X52321670Y-91180075D01*
X52283456Y-91136519D01*
X52265825Y-91117811D01*
X52211152Y-91067448D01*
X52150692Y-91024401D01*
X52080852Y-90987409D01*
X51998040Y-90955209D01*
X51898662Y-90926538D01*
X51779125Y-90900134D01*
X51635836Y-90874736D01*
X51465201Y-90849081D01*
X51268804Y-90820163D01*
X51078944Y-90789109D01*
X50912930Y-90757980D01*
X50767052Y-90725878D01*
X50637597Y-90691905D01*
X50520853Y-90655162D01*
X50413110Y-90614753D01*
X50310655Y-90569779D01*
X50235358Y-90532690D01*
X50163435Y-90493661D01*
X50106556Y-90458818D01*
X50069169Y-90430901D01*
X50055719Y-90412650D01*
X50056116Y-90411306D01*
X50066950Y-90389798D01*
X50091515Y-90344758D01*
X50128355Y-90278708D01*
X50176017Y-90194169D01*
X50233046Y-90093663D01*
X50297988Y-89979712D01*
X50369389Y-89854837D01*
X50445794Y-89721560D01*
X50525749Y-89582403D01*
X50607800Y-89439887D01*
X50690492Y-89296534D01*
X50772371Y-89154866D01*
X50851983Y-89017404D01*
X50927874Y-88886670D01*
X50998589Y-88765186D01*
X51062674Y-88655474D01*
X51118674Y-88560054D01*
X51165136Y-88481450D01*
X51200605Y-88422181D01*
X51223627Y-88384771D01*
X51232747Y-88371741D01*
X51233230Y-88372111D01*
G36*
X53097717Y-91594976D02*
G01*
X53103472Y-91603561D01*
X53124035Y-91637282D01*
X53157849Y-91694136D01*
X53203620Y-91771904D01*
X53260053Y-91868368D01*
X53325854Y-91981307D01*
X53399728Y-92108504D01*
X53480381Y-92247739D01*
X53566518Y-92396793D01*
X53656845Y-92553448D01*
X53681617Y-92596457D01*
X53779570Y-92766511D01*
X53878179Y-92937690D01*
X53975430Y-93106498D01*
X54069308Y-93269439D01*
X54157801Y-93423018D01*
X54238892Y-93563737D01*
X54310568Y-93688102D01*
X54370814Y-93792616D01*
X54417617Y-93873783D01*
X54638700Y-94257107D01*
X51538746Y-94257107D01*
X51410591Y-94257095D01*
X51105170Y-94256978D01*
X50809102Y-94256738D01*
X50523829Y-94256380D01*
X50250793Y-94255912D01*
X49991435Y-94255339D01*
X49747197Y-94254668D01*
X49519519Y-94253904D01*
X49309844Y-94253055D01*
X49119613Y-94252125D01*
X48950267Y-94251122D01*
X48803248Y-94250051D01*
X48679997Y-94248919D01*
X48581956Y-94247732D01*
X48510566Y-94246495D01*
X48467268Y-94245216D01*
X48453505Y-94243899D01*
X48463724Y-94237240D01*
X48498981Y-94216019D01*
X48556891Y-94181856D01*
X48635100Y-94136107D01*
X48731253Y-94080126D01*
X48842993Y-94015269D01*
X48967966Y-93942890D01*
X49103816Y-93864345D01*
X49248188Y-93780990D01*
X49398726Y-93694179D01*
X49553075Y-93605268D01*
X49708880Y-93515612D01*
X49863786Y-93426565D01*
X50015436Y-93339484D01*
X50161476Y-93255724D01*
X50299551Y-93176639D01*
X50427304Y-93103585D01*
X50542381Y-93037917D01*
X50642426Y-92980990D01*
X50725084Y-92934160D01*
X50787999Y-92898782D01*
X50828817Y-92876210D01*
X50845181Y-92867800D01*
X50855859Y-92869885D01*
X50888028Y-92888844D01*
X50933891Y-92923968D01*
X50988410Y-92971605D01*
X51037515Y-93019292D01*
X51100059Y-93084252D01*
X51170038Y-93160091D01*
X51243866Y-93242634D01*
X51317955Y-93327704D01*
X51388718Y-93411126D01*
X51452568Y-93488725D01*
X51505917Y-93556325D01*
X51545179Y-93609750D01*
X51566765Y-93644825D01*
X51581176Y-93670441D01*
X51620313Y-93723452D01*
X51670628Y-93779848D01*
X51724946Y-93832398D01*
X51776094Y-93873866D01*
X51816897Y-93897022D01*
X51861962Y-93902374D01*
X51922096Y-93887581D01*
X51979249Y-93853662D01*
X52023603Y-93804989D01*
X52031283Y-93792361D01*
X52041062Y-93771679D01*
X52047435Y-93746790D01*
X52050812Y-93712345D01*
X52051601Y-93662998D01*
X52050211Y-93593400D01*
X52047051Y-93498204D01*
X52044786Y-93443138D01*
X52039974Y-93356053D01*
X52034295Y-93279835D01*
X52028278Y-93221185D01*
X52022453Y-93186802D01*
X52008349Y-93147524D01*
X51966536Y-93070176D01*
X51901565Y-92978527D01*
X51812640Y-92871503D01*
X51698970Y-92748026D01*
X51649642Y-92696002D01*
X51592608Y-92634632D01*
X51545534Y-92582601D01*
X51512294Y-92544202D01*
X51496759Y-92523732D01*
X51495162Y-92520482D01*
X51493247Y-92506489D01*
X51502815Y-92490975D01*
X51527785Y-92470595D01*
X51572076Y-92442007D01*
X51639608Y-92401868D01*
X51697017Y-92368358D01*
X51802662Y-92307059D01*
X51885841Y-92259445D01*
X51949348Y-92223969D01*
X51995976Y-92199085D01*
X52028520Y-92183249D01*
X52049774Y-92174913D01*
X52071767Y-92165664D01*
X52084621Y-92153243D01*
X52085824Y-92150314D01*
X52104631Y-92134020D01*
X52139005Y-92113034D01*
X52193389Y-92083746D01*
X52233544Y-92121128D01*
X52247727Y-92136272D01*
X52280725Y-92177429D01*
X52321016Y-92232381D01*
X52362852Y-92293467D01*
X52452006Y-92428425D01*
X52448507Y-92778298D01*
X52445009Y-93128171D01*
X52394063Y-93177669D01*
X52376944Y-93195315D01*
X52322046Y-93274596D01*
X52290000Y-93368871D01*
X52279082Y-93482716D01*
X52281793Y-93543715D01*
X52300931Y-93651314D01*
X52335811Y-93749519D01*
X52383412Y-93828318D01*
X52416465Y-93857050D01*
X52475219Y-93878873D01*
X52541731Y-93881390D01*
X52607486Y-93865764D01*
X52663971Y-93833156D01*
X52702673Y-93784729D01*
X52703940Y-93782104D01*
X52727333Y-93734161D01*
X52752109Y-93684058D01*
X52773142Y-93637023D01*
X52803314Y-93557746D01*
X52836602Y-93460008D01*
X52871849Y-93348164D01*
X52907899Y-93226570D01*
X52943595Y-93099581D01*
X52977780Y-92971552D01*
X53009297Y-92846838D01*
X53036990Y-92729795D01*
X53059702Y-92624779D01*
X53076276Y-92536145D01*
X53085555Y-92468248D01*
X53086384Y-92425443D01*
X53084517Y-92415718D01*
X53066328Y-92366492D01*
X53032577Y-92300635D01*
X52986225Y-92224101D01*
X52968434Y-92196521D01*
X52896952Y-92084058D01*
X52836190Y-91985708D01*
X52787487Y-91903768D01*
X52752184Y-91840541D01*
X52731622Y-91798326D01*
X52727139Y-91779423D01*
X52727658Y-91778756D01*
X52746215Y-91765141D01*
X52785872Y-91740255D01*
X52841196Y-91707412D01*
X52906754Y-91669924D01*
X52912296Y-91666812D01*
X52983477Y-91627648D01*
X53033051Y-91602672D01*
X53065576Y-91590094D01*
X53085612Y-91588125D01*
X53097717Y-91594976D01*
G37*
X53097717Y-91594976D02*
X53103472Y-91603561D01*
X53124035Y-91637282D01*
X53157849Y-91694136D01*
X53203620Y-91771904D01*
X53260053Y-91868368D01*
X53325854Y-91981307D01*
X53399728Y-92108504D01*
X53480381Y-92247739D01*
X53566518Y-92396793D01*
X53656845Y-92553448D01*
X53681617Y-92596457D01*
X53779570Y-92766511D01*
X53878179Y-92937690D01*
X53975430Y-93106498D01*
X54069308Y-93269439D01*
X54157801Y-93423018D01*
X54238892Y-93563737D01*
X54310568Y-93688102D01*
X54370814Y-93792616D01*
X54417617Y-93873783D01*
X54638700Y-94257107D01*
X51538746Y-94257107D01*
X51410591Y-94257095D01*
X51105170Y-94256978D01*
X50809102Y-94256738D01*
X50523829Y-94256380D01*
X50250793Y-94255912D01*
X49991435Y-94255339D01*
X49747197Y-94254668D01*
X49519519Y-94253904D01*
X49309844Y-94253055D01*
X49119613Y-94252125D01*
X48950267Y-94251122D01*
X48803248Y-94250051D01*
X48679997Y-94248919D01*
X48581956Y-94247732D01*
X48510566Y-94246495D01*
X48467268Y-94245216D01*
X48453505Y-94243899D01*
X48463724Y-94237240D01*
X48498981Y-94216019D01*
X48556891Y-94181856D01*
X48635100Y-94136107D01*
X48731253Y-94080126D01*
X48842993Y-94015269D01*
X48967966Y-93942890D01*
X49103816Y-93864345D01*
X49248188Y-93780990D01*
X49398726Y-93694179D01*
X49553075Y-93605268D01*
X49708880Y-93515612D01*
X49863786Y-93426565D01*
X50015436Y-93339484D01*
X50161476Y-93255724D01*
X50299551Y-93176639D01*
X50427304Y-93103585D01*
X50542381Y-93037917D01*
X50642426Y-92980990D01*
X50725084Y-92934160D01*
X50787999Y-92898782D01*
X50828817Y-92876210D01*
X50845181Y-92867800D01*
X50855859Y-92869885D01*
X50888028Y-92888844D01*
X50933891Y-92923968D01*
X50988410Y-92971605D01*
X51037515Y-93019292D01*
X51100059Y-93084252D01*
X51170038Y-93160091D01*
X51243866Y-93242634D01*
X51317955Y-93327704D01*
X51388718Y-93411126D01*
X51452568Y-93488725D01*
X51505917Y-93556325D01*
X51545179Y-93609750D01*
X51566765Y-93644825D01*
X51581176Y-93670441D01*
X51620313Y-93723452D01*
X51670628Y-93779848D01*
X51724946Y-93832398D01*
X51776094Y-93873866D01*
X51816897Y-93897022D01*
X51861962Y-93902374D01*
X51922096Y-93887581D01*
X51979249Y-93853662D01*
X52023603Y-93804989D01*
X52031283Y-93792361D01*
X52041062Y-93771679D01*
X52047435Y-93746790D01*
X52050812Y-93712345D01*
X52051601Y-93662998D01*
X52050211Y-93593400D01*
X52047051Y-93498204D01*
X52044786Y-93443138D01*
X52039974Y-93356053D01*
X52034295Y-93279835D01*
X52028278Y-93221185D01*
X52022453Y-93186802D01*
X52008349Y-93147524D01*
X51966536Y-93070176D01*
X51901565Y-92978527D01*
X51812640Y-92871503D01*
X51698970Y-92748026D01*
X51649642Y-92696002D01*
X51592608Y-92634632D01*
X51545534Y-92582601D01*
X51512294Y-92544202D01*
X51496759Y-92523732D01*
X51495162Y-92520482D01*
X51493247Y-92506489D01*
X51502815Y-92490975D01*
X51527785Y-92470595D01*
X51572076Y-92442007D01*
X51639608Y-92401868D01*
X51697017Y-92368358D01*
X51802662Y-92307059D01*
X51885841Y-92259445D01*
X51949348Y-92223969D01*
X51995976Y-92199085D01*
X52028520Y-92183249D01*
X52049774Y-92174913D01*
X52071767Y-92165664D01*
X52084621Y-92153243D01*
X52085824Y-92150314D01*
X52104631Y-92134020D01*
X52139005Y-92113034D01*
X52193389Y-92083746D01*
X52233544Y-92121128D01*
X52247727Y-92136272D01*
X52280725Y-92177429D01*
X52321016Y-92232381D01*
X52362852Y-92293467D01*
X52452006Y-92428425D01*
X52448507Y-92778298D01*
X52445009Y-93128171D01*
X52394063Y-93177669D01*
X52376944Y-93195315D01*
X52322046Y-93274596D01*
X52290000Y-93368871D01*
X52279082Y-93482716D01*
X52281793Y-93543715D01*
X52300931Y-93651314D01*
X52335811Y-93749519D01*
X52383412Y-93828318D01*
X52416465Y-93857050D01*
X52475219Y-93878873D01*
X52541731Y-93881390D01*
X52607486Y-93865764D01*
X52663971Y-93833156D01*
X52702673Y-93784729D01*
X52703940Y-93782104D01*
X52727333Y-93734161D01*
X52752109Y-93684058D01*
X52773142Y-93637023D01*
X52803314Y-93557746D01*
X52836602Y-93460008D01*
X52871849Y-93348164D01*
X52907899Y-93226570D01*
X52943595Y-93099581D01*
X52977780Y-92971552D01*
X53009297Y-92846838D01*
X53036990Y-92729795D01*
X53059702Y-92624779D01*
X53076276Y-92536145D01*
X53085555Y-92468248D01*
X53086384Y-92425443D01*
X53084517Y-92415718D01*
X53066328Y-92366492D01*
X53032577Y-92300635D01*
X52986225Y-92224101D01*
X52968434Y-92196521D01*
X52896952Y-92084058D01*
X52836190Y-91985708D01*
X52787487Y-91903768D01*
X52752184Y-91840541D01*
X52731622Y-91798326D01*
X52727139Y-91779423D01*
X52727658Y-91778756D01*
X52746215Y-91765141D01*
X52785872Y-91740255D01*
X52841196Y-91707412D01*
X52906754Y-91669924D01*
X52912296Y-91666812D01*
X52983477Y-91627648D01*
X53033051Y-91602672D01*
X53065576Y-91590094D01*
X53085612Y-91588125D01*
X53097717Y-91594976D01*
G36*
X66450641Y-94334452D02*
G01*
X62929848Y-94334452D01*
X62929848Y-93466828D01*
X66450641Y-93466828D01*
X66450641Y-94334452D01*
G37*
X66450641Y-94334452D02*
X62929848Y-94334452D01*
X62929848Y-93466828D01*
X66450641Y-93466828D01*
X66450641Y-94334452D01*
G36*
X65689332Y-89077326D02*
G01*
X65728984Y-89078412D01*
X65796779Y-89078412D01*
X65796779Y-89191581D01*
X65637247Y-89191581D01*
X65622352Y-89369362D01*
X65620352Y-89393667D01*
X65615693Y-89454510D01*
X65612401Y-89504019D01*
X65610762Y-89537622D01*
X65611060Y-89550746D01*
X65615394Y-89546973D01*
X65635166Y-89527306D01*
X65669349Y-89492448D01*
X65716211Y-89444206D01*
X65774024Y-89384387D01*
X65841057Y-89314797D01*
X65915582Y-89237245D01*
X65995867Y-89153537D01*
X66080183Y-89065479D01*
X66166800Y-88974880D01*
X66253989Y-88883545D01*
X66340019Y-88793283D01*
X66423162Y-88705899D01*
X66501686Y-88623202D01*
X66573862Y-88546998D01*
X66637961Y-88479093D01*
X66692253Y-88421296D01*
X66789262Y-88317670D01*
X66789704Y-88405945D01*
X66790145Y-88494219D01*
X66189608Y-89125788D01*
X65589071Y-89757356D01*
X65577066Y-89901304D01*
X65529035Y-90477265D01*
X65520546Y-90579421D01*
X65510013Y-90707242D01*
X65500291Y-90826397D01*
X65491568Y-90934544D01*
X65484028Y-91029343D01*
X65477857Y-91108449D01*
X65473243Y-91169522D01*
X65470370Y-91210220D01*
X65469424Y-91228200D01*
X65471921Y-91236438D01*
X65483141Y-91254229D01*
X65504421Y-91281041D01*
X65514691Y-91292759D01*
X65536895Y-91318096D01*
X65581693Y-91366616D01*
X65639951Y-91427822D01*
X65712799Y-91502937D01*
X65801373Y-91593180D01*
X65906804Y-91699775D01*
X65976162Y-91769723D01*
X66072849Y-91867288D01*
X66169196Y-91964571D01*
X66262308Y-92058644D01*
X66349288Y-92146580D01*
X66427239Y-92225450D01*
X66493266Y-92292329D01*
X66544472Y-92344288D01*
X66745184Y-92548250D01*
X66708728Y-92586301D01*
X66700130Y-92594875D01*
X66674765Y-92615927D01*
X66657365Y-92624353D01*
X66643741Y-92617160D01*
X66618413Y-92595574D01*
X66588049Y-92564625D01*
X66569566Y-92545078D01*
X66535097Y-92509382D01*
X66486382Y-92459314D01*
X66425139Y-92396631D01*
X66353090Y-92323087D01*
X66271955Y-92240440D01*
X66183454Y-92150445D01*
X66089307Y-92054858D01*
X65991235Y-91955435D01*
X65448831Y-91405973D01*
X65426736Y-91691376D01*
X65421920Y-91752292D01*
X65414886Y-91834178D01*
X65408542Y-91896199D01*
X65402418Y-91941617D01*
X65396043Y-91973692D01*
X65388947Y-91995682D01*
X65380661Y-92010849D01*
X65369063Y-92032046D01*
X65359520Y-92071016D01*
X65356680Y-92127161D01*
X65356680Y-92209403D01*
X65130344Y-92209403D01*
X65130344Y-92033363D01*
X64284752Y-92033363D01*
X64235873Y-92088892D01*
X64222506Y-92103352D01*
X64150058Y-92161443D01*
X64068202Y-92197206D01*
X63979570Y-92209403D01*
X63901362Y-92202936D01*
X63812903Y-92175677D01*
X63737177Y-92126958D01*
X63722418Y-92113033D01*
X63685534Y-92067958D01*
X63653173Y-92015449D01*
X63629967Y-91963691D01*
X63620549Y-91920869D01*
X63620367Y-91914653D01*
X63619012Y-91891876D01*
X63615470Y-91876143D01*
X63608060Y-91868698D01*
X63595101Y-91870786D01*
X63574913Y-91883650D01*
X63545815Y-91908535D01*
X63506126Y-91946683D01*
X63454166Y-91999340D01*
X63388254Y-92067749D01*
X63306710Y-92153154D01*
X63263274Y-92198742D01*
X63190670Y-92275071D01*
X63121979Y-92347438D01*
X63059893Y-92412996D01*
X63007104Y-92468904D01*
X62966304Y-92512316D01*
X62940185Y-92540388D01*
X62868789Y-92618066D01*
X62780533Y-92530046D01*
X63326360Y-91957917D01*
X63360775Y-91921818D01*
X63483216Y-91792902D01*
X63588321Y-91681384D01*
X63676406Y-91586918D01*
X63747786Y-91509159D01*
X63798258Y-91452804D01*
X64004917Y-91452804D01*
X64006542Y-91466064D01*
X64006826Y-91467449D01*
X64020368Y-91498858D01*
X64047418Y-91513493D01*
X64130799Y-91544693D01*
X64205088Y-91596668D01*
X64263516Y-91665421D01*
X64303560Y-91747945D01*
X64322696Y-91841236D01*
X64329034Y-91920195D01*
X65278508Y-91920195D01*
X65285128Y-91891903D01*
X65286299Y-91884959D01*
X65289938Y-91853911D01*
X65294904Y-91803711D01*
X65300827Y-91738357D01*
X65307339Y-91661849D01*
X65314071Y-91578185D01*
X65336394Y-91292759D01*
X65035496Y-90987195D01*
X64980306Y-90931334D01*
X64912779Y-90863518D01*
X64852199Y-90803273D01*
X64800691Y-90752682D01*
X64760380Y-90713830D01*
X64733392Y-90688800D01*
X64721852Y-90679676D01*
X64714114Y-90684035D01*
X64691065Y-90703871D01*
X64656379Y-90737005D01*
X64613157Y-90780450D01*
X64564502Y-90831217D01*
X64551810Y-90844681D01*
X64494899Y-90904905D01*
X64427084Y-90976494D01*
X64353470Y-91054067D01*
X64279163Y-91132241D01*
X64209269Y-91205635D01*
X64205071Y-91210039D01*
X64140090Y-91278415D01*
X64090506Y-91331362D01*
X64054358Y-91371397D01*
X64029686Y-91401041D01*
X64014528Y-91422811D01*
X64006926Y-91439225D01*
X64004917Y-91452804D01*
X63798258Y-91452804D01*
X63802775Y-91447761D01*
X63841689Y-91402378D01*
X63864843Y-91372665D01*
X63872552Y-91358274D01*
X63872553Y-91358189D01*
X63871495Y-91340254D01*
X63868407Y-91300051D01*
X63863528Y-91240317D01*
X63857102Y-91163788D01*
X63849370Y-91073199D01*
X63840575Y-90971287D01*
X63830957Y-90860789D01*
X63820761Y-90744441D01*
X63810226Y-90624978D01*
X63799596Y-90505137D01*
X63789112Y-90387655D01*
X63779016Y-90275267D01*
X63769551Y-90170711D01*
X63760958Y-90076721D01*
X63753479Y-89996035D01*
X63747357Y-89931389D01*
X63742832Y-89885518D01*
X63740148Y-89861160D01*
X63734737Y-89820362D01*
X63863923Y-89820362D01*
X63865578Y-89851283D01*
X63869219Y-89903283D01*
X63874665Y-89974117D01*
X63881733Y-90061541D01*
X63890240Y-90163311D01*
X63900005Y-90277182D01*
X63910844Y-90400909D01*
X63922577Y-90532248D01*
X63931749Y-90633538D01*
X63943236Y-90759156D01*
X63953992Y-90875392D01*
X63963801Y-90980010D01*
X63972451Y-91070770D01*
X63979727Y-91145434D01*
X63985416Y-91201764D01*
X63989304Y-91237521D01*
X63991176Y-91250467D01*
X63996858Y-91246456D01*
X64017690Y-91226768D01*
X64051542Y-91192952D01*
X64096082Y-91147467D01*
X64148980Y-91092776D01*
X64207906Y-91031340D01*
X64270528Y-90965620D01*
X64334518Y-90898079D01*
X64397544Y-90831177D01*
X64457276Y-90767376D01*
X64511383Y-90709137D01*
X64557535Y-90658922D01*
X64593403Y-90619193D01*
X64616654Y-90592410D01*
X64623448Y-90583107D01*
X64805271Y-90583107D01*
X65080975Y-90858598D01*
X65148396Y-90925854D01*
X65211937Y-90988792D01*
X65261160Y-91036730D01*
X65297866Y-91071224D01*
X65323860Y-91093829D01*
X65340946Y-91106101D01*
X65350926Y-91109596D01*
X65355605Y-91105868D01*
X65356786Y-91096474D01*
X65357543Y-91081379D01*
X65360271Y-91042513D01*
X65364778Y-90983525D01*
X65370849Y-90907103D01*
X65378266Y-90815935D01*
X65386812Y-90712710D01*
X65396272Y-90600113D01*
X65406428Y-90480835D01*
X65415393Y-90375707D01*
X65424736Y-90264981D01*
X65433113Y-90164444D01*
X65440323Y-90076573D01*
X65446166Y-90003845D01*
X65450439Y-89948740D01*
X65452943Y-89913734D01*
X65453475Y-89901304D01*
X65453054Y-89901538D01*
X65441179Y-89912980D01*
X65414800Y-89939828D01*
X65376240Y-89979648D01*
X65327823Y-90030002D01*
X65271873Y-90088458D01*
X65210712Y-90152578D01*
X65146665Y-90219928D01*
X65082055Y-90288073D01*
X65019205Y-90354578D01*
X64960438Y-90417007D01*
X64908079Y-90472925D01*
X64807203Y-90581036D01*
X64805271Y-90583107D01*
X64623448Y-90583107D01*
X64624960Y-90581036D01*
X64616818Y-90570013D01*
X64593148Y-90543629D01*
X64556148Y-90504157D01*
X64508020Y-90453821D01*
X64450966Y-90394847D01*
X64387190Y-90329460D01*
X64318892Y-90259885D01*
X64248275Y-90188346D01*
X64177541Y-90117068D01*
X64108892Y-90048277D01*
X64044531Y-89984196D01*
X63986659Y-89927052D01*
X63937480Y-89879069D01*
X63899194Y-89842471D01*
X63874004Y-89819484D01*
X63864112Y-89812333D01*
X63863923Y-89820362D01*
X63734737Y-89820362D01*
X63733060Y-89807719D01*
X63457967Y-89807719D01*
X63457810Y-89707125D01*
X63558561Y-89707125D01*
X63640294Y-89707125D01*
X63647565Y-89707119D01*
X63688620Y-89706243D01*
X63710947Y-89702497D01*
X63720199Y-89693900D01*
X63722027Y-89678470D01*
X63713976Y-89655789D01*
X63686400Y-89618058D01*
X63640294Y-89568809D01*
X63558561Y-89487802D01*
X63558561Y-89707125D01*
X63457810Y-89707125D01*
X63457638Y-89597101D01*
X63457309Y-89386482D01*
X63005584Y-88927521D01*
X62553859Y-88468561D01*
X62553240Y-88381478D01*
X62552621Y-88294397D01*
X63094439Y-88843582D01*
X63146807Y-88896628D01*
X63255473Y-89006402D01*
X63348379Y-89099744D01*
X63426725Y-89177803D01*
X63491713Y-89241727D01*
X63544542Y-89292665D01*
X63586413Y-89331765D01*
X63618525Y-89360178D01*
X63642080Y-89379050D01*
X63658278Y-89389531D01*
X63668319Y-89392769D01*
X63685249Y-89391788D01*
X63694754Y-89384626D01*
X63696393Y-89365031D01*
X63692452Y-89326754D01*
X63689735Y-89302655D01*
X63685954Y-89262374D01*
X63684430Y-89235591D01*
X63683685Y-89226358D01*
X63676416Y-89216469D01*
X63656338Y-89213192D01*
X63617359Y-89214622D01*
X63607407Y-89215183D01*
X63567568Y-89214551D01*
X63539230Y-89205797D01*
X63519256Y-89191581D01*
X63802522Y-89191581D01*
X63806683Y-89238734D01*
X63808605Y-89260128D01*
X63814594Y-89318539D01*
X63820496Y-89357011D01*
X63827397Y-89379542D01*
X63836382Y-89390128D01*
X63848540Y-89392769D01*
X63859471Y-89394567D01*
X63866720Y-89403160D01*
X63870770Y-89423135D01*
X63872533Y-89459080D01*
X63872918Y-89515582D01*
X63872918Y-89638396D01*
X63913117Y-89678470D01*
X64011235Y-89776284D01*
X64149551Y-89914172D01*
X64149551Y-89807719D01*
X64904007Y-89807719D01*
X64904007Y-90046630D01*
X64285501Y-90046630D01*
X64495262Y-90263536D01*
X64535440Y-90304964D01*
X64590998Y-90361830D01*
X64639240Y-90410712D01*
X64677641Y-90449071D01*
X64703673Y-90474371D01*
X64714810Y-90484072D01*
X64719043Y-90481397D01*
X64738894Y-90463412D01*
X64773121Y-90430111D01*
X64819897Y-90383342D01*
X64877394Y-90324955D01*
X64943782Y-90256799D01*
X65017234Y-90180724D01*
X65095921Y-90098580D01*
X65175011Y-90015573D01*
X65252541Y-89933766D01*
X65315416Y-89866713D01*
X65365172Y-89812637D01*
X65403348Y-89769759D01*
X65431481Y-89736303D01*
X65451110Y-89710491D01*
X65463771Y-89690544D01*
X65471004Y-89674686D01*
X65474345Y-89661139D01*
X65475231Y-89654540D01*
X65479158Y-89618178D01*
X65484129Y-89564648D01*
X65489597Y-89500051D01*
X65495014Y-89430492D01*
X65496851Y-89406265D01*
X65502158Y-89340808D01*
X65507218Y-89284347D01*
X65511533Y-89242248D01*
X65514604Y-89219873D01*
X65520625Y-89191581D01*
X63802522Y-89191581D01*
X63519256Y-89191581D01*
X63511300Y-89185919D01*
X63506490Y-89181734D01*
X63467152Y-89131057D01*
X63451573Y-89078412D01*
X63792368Y-89078412D01*
X65206891Y-89078412D01*
X65419551Y-89078412D01*
X65476578Y-89078412D01*
X65493663Y-89078292D01*
X65518978Y-89076092D01*
X65526286Y-89068964D01*
X65520613Y-89054138D01*
X65518937Y-89051312D01*
X65500118Y-89029574D01*
X65472853Y-89005450D01*
X65445657Y-88985884D01*
X65427041Y-88977818D01*
X65425367Y-88979093D01*
X65421214Y-88996606D01*
X65419551Y-89028115D01*
X65419551Y-89078412D01*
X65206891Y-89078412D01*
X65203196Y-88987725D01*
X65199502Y-88897037D01*
X65124056Y-88881882D01*
X65086221Y-88875009D01*
X65023038Y-88865386D01*
X64963735Y-88858126D01*
X64878858Y-88849523D01*
X64878858Y-88952670D01*
X64300443Y-88952670D01*
X64300443Y-88861752D01*
X64228141Y-88870383D01*
X64117668Y-88888879D01*
X64006486Y-88922321D01*
X63914520Y-88968954D01*
X63840212Y-89029416D01*
X63792368Y-89078412D01*
X63451573Y-89078412D01*
X63449842Y-89072564D01*
X63455144Y-89011205D01*
X63483645Y-88951927D01*
X63486403Y-88948236D01*
X63524492Y-88916481D01*
X63574146Y-88897697D01*
X63627672Y-88892701D01*
X63677377Y-88902308D01*
X63715570Y-88927334D01*
X63728501Y-88940110D01*
X63741098Y-88943206D01*
X63759137Y-88933628D01*
X63789598Y-88909712D01*
X63798944Y-88902361D01*
X63871100Y-88855969D01*
X63956585Y-88814714D01*
X64026500Y-88789205D01*
X64401037Y-88789205D01*
X64401037Y-88852076D01*
X64778264Y-88852076D01*
X64778264Y-88789205D01*
X64401037Y-88789205D01*
X64026500Y-88789205D01*
X64047437Y-88781566D01*
X64135697Y-88759498D01*
X64213406Y-88751482D01*
X64221661Y-88751418D01*
X64267549Y-88746951D01*
X64292749Y-88734425D01*
X64300443Y-88712414D01*
X64301346Y-88705479D01*
X64306285Y-88699515D01*
X64318281Y-88695149D01*
X64340350Y-88692133D01*
X64375506Y-88690220D01*
X64426764Y-88689160D01*
X64497141Y-88688707D01*
X64589650Y-88688610D01*
X64676330Y-88688780D01*
X64750002Y-88689464D01*
X64803935Y-88690845D01*
X64840958Y-88693100D01*
X64863900Y-88696408D01*
X64875590Y-88700950D01*
X64878858Y-88706902D01*
X64889607Y-88721518D01*
X64919725Y-88730845D01*
X64931252Y-88732477D01*
X64970556Y-88738221D01*
X65022858Y-88746008D01*
X65080046Y-88754633D01*
X65111586Y-88759023D01*
X65157744Y-88763778D01*
X65190311Y-88764925D01*
X65203693Y-88762125D01*
X65205978Y-88760301D01*
X65227075Y-88755795D01*
X65265025Y-88752659D01*
X65313718Y-88751482D01*
X65419551Y-88751482D01*
X65419564Y-88789205D01*
X65419564Y-88792348D01*
X65420058Y-88805298D01*
X65426489Y-88827041D01*
X65444793Y-88845481D01*
X65480500Y-88867431D01*
X65511844Y-88887484D01*
X65559563Y-88925986D01*
X65602808Y-88969209D01*
X65635889Y-89011257D01*
X65653112Y-89046234D01*
X65657332Y-89059711D01*
X65665150Y-89068964D01*
X65667786Y-89072084D01*
X65689332Y-89077326D01*
G37*
X65689332Y-89077326D02*
X65728984Y-89078412D01*
X65796779Y-89078412D01*
X65796779Y-89191581D01*
X65637247Y-89191581D01*
X65622352Y-89369362D01*
X65620352Y-89393667D01*
X65615693Y-89454510D01*
X65612401Y-89504019D01*
X65610762Y-89537622D01*
X65611060Y-89550746D01*
X65615394Y-89546973D01*
X65635166Y-89527306D01*
X65669349Y-89492448D01*
X65716211Y-89444206D01*
X65774024Y-89384387D01*
X65841057Y-89314797D01*
X65915582Y-89237245D01*
X65995867Y-89153537D01*
X66080183Y-89065479D01*
X66166800Y-88974880D01*
X66253989Y-88883545D01*
X66340019Y-88793283D01*
X66423162Y-88705899D01*
X66501686Y-88623202D01*
X66573862Y-88546998D01*
X66637961Y-88479093D01*
X66692253Y-88421296D01*
X66789262Y-88317670D01*
X66789704Y-88405945D01*
X66790145Y-88494219D01*
X66189608Y-89125788D01*
X65589071Y-89757356D01*
X65577066Y-89901304D01*
X65529035Y-90477265D01*
X65520546Y-90579421D01*
X65510013Y-90707242D01*
X65500291Y-90826397D01*
X65491568Y-90934544D01*
X65484028Y-91029343D01*
X65477857Y-91108449D01*
X65473243Y-91169522D01*
X65470370Y-91210220D01*
X65469424Y-91228200D01*
X65471921Y-91236438D01*
X65483141Y-91254229D01*
X65504421Y-91281041D01*
X65514691Y-91292759D01*
X65536895Y-91318096D01*
X65581693Y-91366616D01*
X65639951Y-91427822D01*
X65712799Y-91502937D01*
X65801373Y-91593180D01*
X65906804Y-91699775D01*
X65976162Y-91769723D01*
X66072849Y-91867288D01*
X66169196Y-91964571D01*
X66262308Y-92058644D01*
X66349288Y-92146580D01*
X66427239Y-92225450D01*
X66493266Y-92292329D01*
X66544472Y-92344288D01*
X66745184Y-92548250D01*
X66708728Y-92586301D01*
X66700130Y-92594875D01*
X66674765Y-92615927D01*
X66657365Y-92624353D01*
X66643741Y-92617160D01*
X66618413Y-92595574D01*
X66588049Y-92564625D01*
X66569566Y-92545078D01*
X66535097Y-92509382D01*
X66486382Y-92459314D01*
X66425139Y-92396631D01*
X66353090Y-92323087D01*
X66271955Y-92240440D01*
X66183454Y-92150445D01*
X66089307Y-92054858D01*
X65991235Y-91955435D01*
X65448831Y-91405973D01*
X65426736Y-91691376D01*
X65421920Y-91752292D01*
X65414886Y-91834178D01*
X65408542Y-91896199D01*
X65402418Y-91941617D01*
X65396043Y-91973692D01*
X65388947Y-91995682D01*
X65380661Y-92010849D01*
X65369063Y-92032046D01*
X65359520Y-92071016D01*
X65356680Y-92127161D01*
X65356680Y-92209403D01*
X65130344Y-92209403D01*
X65130344Y-92033363D01*
X64284752Y-92033363D01*
X64235873Y-92088892D01*
X64222506Y-92103352D01*
X64150058Y-92161443D01*
X64068202Y-92197206D01*
X63979570Y-92209403D01*
X63901362Y-92202936D01*
X63812903Y-92175677D01*
X63737177Y-92126958D01*
X63722418Y-92113033D01*
X63685534Y-92067958D01*
X63653173Y-92015449D01*
X63629967Y-91963691D01*
X63620549Y-91920869D01*
X63620367Y-91914653D01*
X63619012Y-91891876D01*
X63615470Y-91876143D01*
X63608060Y-91868698D01*
X63595101Y-91870786D01*
X63574913Y-91883650D01*
X63545815Y-91908535D01*
X63506126Y-91946683D01*
X63454166Y-91999340D01*
X63388254Y-92067749D01*
X63306710Y-92153154D01*
X63263274Y-92198742D01*
X63190670Y-92275071D01*
X63121979Y-92347438D01*
X63059893Y-92412996D01*
X63007104Y-92468904D01*
X62966304Y-92512316D01*
X62940185Y-92540388D01*
X62868789Y-92618066D01*
X62780533Y-92530046D01*
X63326360Y-91957917D01*
X63360775Y-91921818D01*
X63483216Y-91792902D01*
X63588321Y-91681384D01*
X63676406Y-91586918D01*
X63747786Y-91509159D01*
X63798258Y-91452804D01*
X64004917Y-91452804D01*
X64006542Y-91466064D01*
X64006826Y-91467449D01*
X64020368Y-91498858D01*
X64047418Y-91513493D01*
X64130799Y-91544693D01*
X64205088Y-91596668D01*
X64263516Y-91665421D01*
X64303560Y-91747945D01*
X64322696Y-91841236D01*
X64329034Y-91920195D01*
X65278508Y-91920195D01*
X65285128Y-91891903D01*
X65286299Y-91884959D01*
X65289938Y-91853911D01*
X65294904Y-91803711D01*
X65300827Y-91738357D01*
X65307339Y-91661849D01*
X65314071Y-91578185D01*
X65336394Y-91292759D01*
X65035496Y-90987195D01*
X64980306Y-90931334D01*
X64912779Y-90863518D01*
X64852199Y-90803273D01*
X64800691Y-90752682D01*
X64760380Y-90713830D01*
X64733392Y-90688800D01*
X64721852Y-90679676D01*
X64714114Y-90684035D01*
X64691065Y-90703871D01*
X64656379Y-90737005D01*
X64613157Y-90780450D01*
X64564502Y-90831217D01*
X64551810Y-90844681D01*
X64494899Y-90904905D01*
X64427084Y-90976494D01*
X64353470Y-91054067D01*
X64279163Y-91132241D01*
X64209269Y-91205635D01*
X64205071Y-91210039D01*
X64140090Y-91278415D01*
X64090506Y-91331362D01*
X64054358Y-91371397D01*
X64029686Y-91401041D01*
X64014528Y-91422811D01*
X64006926Y-91439225D01*
X64004917Y-91452804D01*
X63798258Y-91452804D01*
X63802775Y-91447761D01*
X63841689Y-91402378D01*
X63864843Y-91372665D01*
X63872552Y-91358274D01*
X63872553Y-91358189D01*
X63871495Y-91340254D01*
X63868407Y-91300051D01*
X63863528Y-91240317D01*
X63857102Y-91163788D01*
X63849370Y-91073199D01*
X63840575Y-90971287D01*
X63830957Y-90860789D01*
X63820761Y-90744441D01*
X63810226Y-90624978D01*
X63799596Y-90505137D01*
X63789112Y-90387655D01*
X63779016Y-90275267D01*
X63769551Y-90170711D01*
X63760958Y-90076721D01*
X63753479Y-89996035D01*
X63747357Y-89931389D01*
X63742832Y-89885518D01*
X63740148Y-89861160D01*
X63734737Y-89820362D01*
X63863923Y-89820362D01*
X63865578Y-89851283D01*
X63869219Y-89903283D01*
X63874665Y-89974117D01*
X63881733Y-90061541D01*
X63890240Y-90163311D01*
X63900005Y-90277182D01*
X63910844Y-90400909D01*
X63922577Y-90532248D01*
X63931749Y-90633538D01*
X63943236Y-90759156D01*
X63953992Y-90875392D01*
X63963801Y-90980010D01*
X63972451Y-91070770D01*
X63979727Y-91145434D01*
X63985416Y-91201764D01*
X63989304Y-91237521D01*
X63991176Y-91250467D01*
X63996858Y-91246456D01*
X64017690Y-91226768D01*
X64051542Y-91192952D01*
X64096082Y-91147467D01*
X64148980Y-91092776D01*
X64207906Y-91031340D01*
X64270528Y-90965620D01*
X64334518Y-90898079D01*
X64397544Y-90831177D01*
X64457276Y-90767376D01*
X64511383Y-90709137D01*
X64557535Y-90658922D01*
X64593403Y-90619193D01*
X64616654Y-90592410D01*
X64623448Y-90583107D01*
X64805271Y-90583107D01*
X65080975Y-90858598D01*
X65148396Y-90925854D01*
X65211937Y-90988792D01*
X65261160Y-91036730D01*
X65297866Y-91071224D01*
X65323860Y-91093829D01*
X65340946Y-91106101D01*
X65350926Y-91109596D01*
X65355605Y-91105868D01*
X65356786Y-91096474D01*
X65357543Y-91081379D01*
X65360271Y-91042513D01*
X65364778Y-90983525D01*
X65370849Y-90907103D01*
X65378266Y-90815935D01*
X65386812Y-90712710D01*
X65396272Y-90600113D01*
X65406428Y-90480835D01*
X65415393Y-90375707D01*
X65424736Y-90264981D01*
X65433113Y-90164444D01*
X65440323Y-90076573D01*
X65446166Y-90003845D01*
X65450439Y-89948740D01*
X65452943Y-89913734D01*
X65453475Y-89901304D01*
X65453054Y-89901538D01*
X65441179Y-89912980D01*
X65414800Y-89939828D01*
X65376240Y-89979648D01*
X65327823Y-90030002D01*
X65271873Y-90088458D01*
X65210712Y-90152578D01*
X65146665Y-90219928D01*
X65082055Y-90288073D01*
X65019205Y-90354578D01*
X64960438Y-90417007D01*
X64908079Y-90472925D01*
X64807203Y-90581036D01*
X64805271Y-90583107D01*
X64623448Y-90583107D01*
X64624960Y-90581036D01*
X64616818Y-90570013D01*
X64593148Y-90543629D01*
X64556148Y-90504157D01*
X64508020Y-90453821D01*
X64450966Y-90394847D01*
X64387190Y-90329460D01*
X64318892Y-90259885D01*
X64248275Y-90188346D01*
X64177541Y-90117068D01*
X64108892Y-90048277D01*
X64044531Y-89984196D01*
X63986659Y-89927052D01*
X63937480Y-89879069D01*
X63899194Y-89842471D01*
X63874004Y-89819484D01*
X63864112Y-89812333D01*
X63863923Y-89820362D01*
X63734737Y-89820362D01*
X63733060Y-89807719D01*
X63457967Y-89807719D01*
X63457810Y-89707125D01*
X63558561Y-89707125D01*
X63640294Y-89707125D01*
X63647565Y-89707119D01*
X63688620Y-89706243D01*
X63710947Y-89702497D01*
X63720199Y-89693900D01*
X63722027Y-89678470D01*
X63713976Y-89655789D01*
X63686400Y-89618058D01*
X63640294Y-89568809D01*
X63558561Y-89487802D01*
X63558561Y-89707125D01*
X63457810Y-89707125D01*
X63457638Y-89597101D01*
X63457309Y-89386482D01*
X63005584Y-88927521D01*
X62553859Y-88468561D01*
X62553240Y-88381478D01*
X62552621Y-88294397D01*
X63094439Y-88843582D01*
X63146807Y-88896628D01*
X63255473Y-89006402D01*
X63348379Y-89099744D01*
X63426725Y-89177803D01*
X63491713Y-89241727D01*
X63544542Y-89292665D01*
X63586413Y-89331765D01*
X63618525Y-89360178D01*
X63642080Y-89379050D01*
X63658278Y-89389531D01*
X63668319Y-89392769D01*
X63685249Y-89391788D01*
X63694754Y-89384626D01*
X63696393Y-89365031D01*
X63692452Y-89326754D01*
X63689735Y-89302655D01*
X63685954Y-89262374D01*
X63684430Y-89235591D01*
X63683685Y-89226358D01*
X63676416Y-89216469D01*
X63656338Y-89213192D01*
X63617359Y-89214622D01*
X63607407Y-89215183D01*
X63567568Y-89214551D01*
X63539230Y-89205797D01*
X63519256Y-89191581D01*
X63802522Y-89191581D01*
X63806683Y-89238734D01*
X63808605Y-89260128D01*
X63814594Y-89318539D01*
X63820496Y-89357011D01*
X63827397Y-89379542D01*
X63836382Y-89390128D01*
X63848540Y-89392769D01*
X63859471Y-89394567D01*
X63866720Y-89403160D01*
X63870770Y-89423135D01*
X63872533Y-89459080D01*
X63872918Y-89515582D01*
X63872918Y-89638396D01*
X63913117Y-89678470D01*
X64011235Y-89776284D01*
X64149551Y-89914172D01*
X64149551Y-89807719D01*
X64904007Y-89807719D01*
X64904007Y-90046630D01*
X64285501Y-90046630D01*
X64495262Y-90263536D01*
X64535440Y-90304964D01*
X64590998Y-90361830D01*
X64639240Y-90410712D01*
X64677641Y-90449071D01*
X64703673Y-90474371D01*
X64714810Y-90484072D01*
X64719043Y-90481397D01*
X64738894Y-90463412D01*
X64773121Y-90430111D01*
X64819897Y-90383342D01*
X64877394Y-90324955D01*
X64943782Y-90256799D01*
X65017234Y-90180724D01*
X65095921Y-90098580D01*
X65175011Y-90015573D01*
X65252541Y-89933766D01*
X65315416Y-89866713D01*
X65365172Y-89812637D01*
X65403348Y-89769759D01*
X65431481Y-89736303D01*
X65451110Y-89710491D01*
X65463771Y-89690544D01*
X65471004Y-89674686D01*
X65474345Y-89661139D01*
X65475231Y-89654540D01*
X65479158Y-89618178D01*
X65484129Y-89564648D01*
X65489597Y-89500051D01*
X65495014Y-89430492D01*
X65496851Y-89406265D01*
X65502158Y-89340808D01*
X65507218Y-89284347D01*
X65511533Y-89242248D01*
X65514604Y-89219873D01*
X65520625Y-89191581D01*
X63802522Y-89191581D01*
X63519256Y-89191581D01*
X63511300Y-89185919D01*
X63506490Y-89181734D01*
X63467152Y-89131057D01*
X63451573Y-89078412D01*
X63792368Y-89078412D01*
X65206891Y-89078412D01*
X65419551Y-89078412D01*
X65476578Y-89078412D01*
X65493663Y-89078292D01*
X65518978Y-89076092D01*
X65526286Y-89068964D01*
X65520613Y-89054138D01*
X65518937Y-89051312D01*
X65500118Y-89029574D01*
X65472853Y-89005450D01*
X65445657Y-88985884D01*
X65427041Y-88977818D01*
X65425367Y-88979093D01*
X65421214Y-88996606D01*
X65419551Y-89028115D01*
X65419551Y-89078412D01*
X65206891Y-89078412D01*
X65203196Y-88987725D01*
X65199502Y-88897037D01*
X65124056Y-88881882D01*
X65086221Y-88875009D01*
X65023038Y-88865386D01*
X64963735Y-88858126D01*
X64878858Y-88849523D01*
X64878858Y-88952670D01*
X64300443Y-88952670D01*
X64300443Y-88861752D01*
X64228141Y-88870383D01*
X64117668Y-88888879D01*
X64006486Y-88922321D01*
X63914520Y-88968954D01*
X63840212Y-89029416D01*
X63792368Y-89078412D01*
X63451573Y-89078412D01*
X63449842Y-89072564D01*
X63455144Y-89011205D01*
X63483645Y-88951927D01*
X63486403Y-88948236D01*
X63524492Y-88916481D01*
X63574146Y-88897697D01*
X63627672Y-88892701D01*
X63677377Y-88902308D01*
X63715570Y-88927334D01*
X63728501Y-88940110D01*
X63741098Y-88943206D01*
X63759137Y-88933628D01*
X63789598Y-88909712D01*
X63798944Y-88902361D01*
X63871100Y-88855969D01*
X63956585Y-88814714D01*
X64026500Y-88789205D01*
X64401037Y-88789205D01*
X64401037Y-88852076D01*
X64778264Y-88852076D01*
X64778264Y-88789205D01*
X64401037Y-88789205D01*
X64026500Y-88789205D01*
X64047437Y-88781566D01*
X64135697Y-88759498D01*
X64213406Y-88751482D01*
X64221661Y-88751418D01*
X64267549Y-88746951D01*
X64292749Y-88734425D01*
X64300443Y-88712414D01*
X64301346Y-88705479D01*
X64306285Y-88699515D01*
X64318281Y-88695149D01*
X64340350Y-88692133D01*
X64375506Y-88690220D01*
X64426764Y-88689160D01*
X64497141Y-88688707D01*
X64589650Y-88688610D01*
X64676330Y-88688780D01*
X64750002Y-88689464D01*
X64803935Y-88690845D01*
X64840958Y-88693100D01*
X64863900Y-88696408D01*
X64875590Y-88700950D01*
X64878858Y-88706902D01*
X64889607Y-88721518D01*
X64919725Y-88730845D01*
X64931252Y-88732477D01*
X64970556Y-88738221D01*
X65022858Y-88746008D01*
X65080046Y-88754633D01*
X65111586Y-88759023D01*
X65157744Y-88763778D01*
X65190311Y-88764925D01*
X65203693Y-88762125D01*
X65205978Y-88760301D01*
X65227075Y-88755795D01*
X65265025Y-88752659D01*
X65313718Y-88751482D01*
X65419551Y-88751482D01*
X65419564Y-88789205D01*
X65419564Y-88792348D01*
X65420058Y-88805298D01*
X65426489Y-88827041D01*
X65444793Y-88845481D01*
X65480500Y-88867431D01*
X65511844Y-88887484D01*
X65559563Y-88925986D01*
X65602808Y-88969209D01*
X65635889Y-89011257D01*
X65653112Y-89046234D01*
X65657332Y-89059711D01*
X65665150Y-89068964D01*
X65667786Y-89072084D01*
X65689332Y-89077326D01*
G36*
X55623437Y-86795698D02*
G01*
X55717560Y-86795788D01*
X55792075Y-86796128D01*
X55849481Y-86796869D01*
X55892281Y-86798165D01*
X55922974Y-86800167D01*
X55944061Y-86803026D01*
X55958043Y-86806896D01*
X55967420Y-86811928D01*
X55974692Y-86818275D01*
X55993498Y-86850992D01*
X55994945Y-86888569D01*
X55978587Y-86921808D01*
X55977227Y-86923261D01*
X55966024Y-86931622D01*
X55948922Y-86937177D01*
X55921752Y-86940470D01*
X55880348Y-86942048D01*
X55820543Y-86942452D01*
X55681181Y-86942452D01*
X55681181Y-87206219D01*
X55681106Y-87282047D01*
X55680698Y-87348713D01*
X55679716Y-87398497D01*
X55677920Y-87434414D01*
X55675069Y-87459480D01*
X55670923Y-87476711D01*
X55665241Y-87489122D01*
X55657784Y-87499730D01*
X55655494Y-87502536D01*
X55624316Y-87525178D01*
X55589936Y-87526742D01*
X55557004Y-87506897D01*
X55550025Y-87498821D01*
X55544553Y-87488223D01*
X55540533Y-87472379D01*
X55537742Y-87448403D01*
X55535958Y-87413404D01*
X55534959Y-87364494D01*
X55534522Y-87298784D01*
X55534426Y-87213386D01*
X55534426Y-86942452D01*
X55388490Y-86942452D01*
X55377390Y-86942451D01*
X55320872Y-86942226D01*
X55282028Y-86941087D01*
X55256635Y-86938287D01*
X55240474Y-86933080D01*
X55229322Y-86924719D01*
X55218959Y-86912456D01*
X55203111Y-86881768D01*
X55206213Y-86847988D01*
X55231857Y-86815452D01*
X55236799Y-86811735D01*
X55247008Y-86806899D01*
X55262434Y-86803136D01*
X55285556Y-86800313D01*
X55318853Y-86798300D01*
X55364807Y-86796963D01*
X55425898Y-86796172D01*
X55504605Y-86795793D01*
X55603410Y-86795697D01*
X55623437Y-86795698D01*
G37*
X55623437Y-86795698D02*
X55717560Y-86795788D01*
X55792075Y-86796128D01*
X55849481Y-86796869D01*
X55892281Y-86798165D01*
X55922974Y-86800167D01*
X55944061Y-86803026D01*
X55958043Y-86806896D01*
X55967420Y-86811928D01*
X55974692Y-86818275D01*
X55993498Y-86850992D01*
X55994945Y-86888569D01*
X55978587Y-86921808D01*
X55977227Y-86923261D01*
X55966024Y-86931622D01*
X55948922Y-86937177D01*
X55921752Y-86940470D01*
X55880348Y-86942048D01*
X55820543Y-86942452D01*
X55681181Y-86942452D01*
X55681181Y-87206219D01*
X55681106Y-87282047D01*
X55680698Y-87348713D01*
X55679716Y-87398497D01*
X55677920Y-87434414D01*
X55675069Y-87459480D01*
X55670923Y-87476711D01*
X55665241Y-87489122D01*
X55657784Y-87499730D01*
X55655494Y-87502536D01*
X55624316Y-87525178D01*
X55589936Y-87526742D01*
X55557004Y-87506897D01*
X55550025Y-87498821D01*
X55544553Y-87488223D01*
X55540533Y-87472379D01*
X55537742Y-87448403D01*
X55535958Y-87413404D01*
X55534959Y-87364494D01*
X55534522Y-87298784D01*
X55534426Y-87213386D01*
X55534426Y-86942452D01*
X55388490Y-86942452D01*
X55377390Y-86942451D01*
X55320872Y-86942226D01*
X55282028Y-86941087D01*
X55256635Y-86938287D01*
X55240474Y-86933080D01*
X55229322Y-86924719D01*
X55218959Y-86912456D01*
X55203111Y-86881768D01*
X55206213Y-86847988D01*
X55231857Y-86815452D01*
X55236799Y-86811735D01*
X55247008Y-86806899D01*
X55262434Y-86803136D01*
X55285556Y-86800313D01*
X55318853Y-86798300D01*
X55364807Y-86796963D01*
X55425898Y-86796172D01*
X55504605Y-86795793D01*
X55603410Y-86795697D01*
X55623437Y-86795698D01*
G36*
X63453807Y-86800093D02*
G01*
X63487961Y-86823406D01*
X63515670Y-86851115D01*
X63515670Y-87164167D01*
X63515629Y-87248197D01*
X63515371Y-87322419D01*
X63514700Y-87379171D01*
X63513422Y-87421142D01*
X63511343Y-87451019D01*
X63508269Y-87471491D01*
X63504004Y-87485244D01*
X63498354Y-87494967D01*
X63491125Y-87503347D01*
X63459661Y-87524811D01*
X63424496Y-87526577D01*
X63391492Y-87506897D01*
X63386186Y-87501028D01*
X63380736Y-87491944D01*
X63376570Y-87478603D01*
X63373516Y-87458387D01*
X63371402Y-87428679D01*
X63370056Y-87386862D01*
X63369308Y-87330319D01*
X63368984Y-87256432D01*
X63368915Y-87162586D01*
X63368954Y-87086924D01*
X63369209Y-87009015D01*
X63369853Y-86949005D01*
X63371057Y-86904278D01*
X63372994Y-86872215D01*
X63375834Y-86850201D01*
X63379749Y-86835617D01*
X63384912Y-86825848D01*
X63391492Y-86818275D01*
X63420676Y-86799253D01*
X63453807Y-86800093D01*
G37*
X63453807Y-86800093D02*
X63487961Y-86823406D01*
X63515670Y-86851115D01*
X63515670Y-87164167D01*
X63515629Y-87248197D01*
X63515371Y-87322419D01*
X63514700Y-87379171D01*
X63513422Y-87421142D01*
X63511343Y-87451019D01*
X63508269Y-87471491D01*
X63504004Y-87485244D01*
X63498354Y-87494967D01*
X63491125Y-87503347D01*
X63459661Y-87524811D01*
X63424496Y-87526577D01*
X63391492Y-87506897D01*
X63386186Y-87501028D01*
X63380736Y-87491944D01*
X63376570Y-87478603D01*
X63373516Y-87458387D01*
X63371402Y-87428679D01*
X63370056Y-87386862D01*
X63369308Y-87330319D01*
X63368984Y-87256432D01*
X63368915Y-87162586D01*
X63368954Y-87086924D01*
X63369209Y-87009015D01*
X63369853Y-86949005D01*
X63371057Y-86904278D01*
X63372994Y-86872215D01*
X63375834Y-86850201D01*
X63379749Y-86835617D01*
X63384912Y-86825848D01*
X63391492Y-86818275D01*
X63420676Y-86799253D01*
X63453807Y-86800093D01*
G36*
X64308523Y-86796566D02*
G01*
X64374770Y-86801996D01*
X64430070Y-86811594D01*
X64480953Y-86826455D01*
X64552265Y-86859588D01*
X64603422Y-86902270D01*
X64634245Y-86954335D01*
X64644559Y-87015613D01*
X64643622Y-87046862D01*
X64637830Y-87071659D01*
X64623023Y-87093329D01*
X64595050Y-87120679D01*
X64587072Y-87128008D01*
X64563362Y-87148911D01*
X64540968Y-87165881D01*
X64516935Y-87179835D01*
X64488307Y-87191686D01*
X64452130Y-87202350D01*
X64405450Y-87212741D01*
X64345311Y-87223776D01*
X64268760Y-87236368D01*
X64172841Y-87251434D01*
X64154478Y-87254468D01*
X64092148Y-87268088D01*
X64046930Y-87283822D01*
X64020646Y-87300893D01*
X64015117Y-87318527D01*
X64017738Y-87322798D01*
X64035670Y-87337863D01*
X64063796Y-87354497D01*
X64076596Y-87360487D01*
X64097894Y-87367680D01*
X64124280Y-87372457D01*
X64160124Y-87375276D01*
X64209798Y-87376594D01*
X64277670Y-87376867D01*
X64295455Y-87376794D01*
X64363076Y-87375683D01*
X64428015Y-87373458D01*
X64483640Y-87370392D01*
X64523321Y-87366757D01*
X64558832Y-87362689D01*
X64588085Y-87361906D01*
X64606985Y-87366506D01*
X64622099Y-87377181D01*
X64625755Y-87380774D01*
X64642097Y-87412548D01*
X64640777Y-87448202D01*
X64621820Y-87478820D01*
X64601450Y-87490426D01*
X64565466Y-87503121D01*
X64523042Y-87513171D01*
X64519592Y-87513770D01*
X64476922Y-87518986D01*
X64419536Y-87523360D01*
X64354519Y-87526448D01*
X64288959Y-87527807D01*
X64272727Y-87527848D01*
X64174414Y-87525371D01*
X64094362Y-87517365D01*
X64029183Y-87502833D01*
X63975487Y-87480779D01*
X63929886Y-87450206D01*
X63888993Y-87410116D01*
X63868872Y-87383889D01*
X63857246Y-87354342D01*
X63854337Y-87314625D01*
X63854478Y-87302656D01*
X63858351Y-87269975D01*
X63870735Y-87243449D01*
X63895900Y-87212601D01*
X63917112Y-87190461D01*
X63943508Y-87167915D01*
X63973225Y-87149547D01*
X64009455Y-87134291D01*
X64055387Y-87121079D01*
X64114214Y-87108844D01*
X64189126Y-87096519D01*
X64283315Y-87083036D01*
X64328627Y-87076026D01*
X64396581Y-87061467D01*
X64445717Y-87044967D01*
X64475284Y-87027069D01*
X64484534Y-87008315D01*
X64472718Y-86989245D01*
X64439086Y-86970401D01*
X64436040Y-86969187D01*
X64389681Y-86957109D01*
X64327031Y-86948909D01*
X64253597Y-86944749D01*
X64174887Y-86944791D01*
X64096409Y-86949199D01*
X64023670Y-86958135D01*
X64019743Y-86958784D01*
X63970927Y-86966491D01*
X63938675Y-86970103D01*
X63917678Y-86969506D01*
X63902624Y-86964584D01*
X63888204Y-86955226D01*
X63887034Y-86954355D01*
X63862517Y-86923981D01*
X63857724Y-86888480D01*
X63873530Y-86853899D01*
X63878076Y-86849443D01*
X63907690Y-86834303D01*
X63954672Y-86821180D01*
X64014976Y-86810380D01*
X64084558Y-86802211D01*
X64159373Y-86796981D01*
X64235376Y-86794997D01*
X64308523Y-86796566D01*
G37*
X64308523Y-86796566D02*
X64374770Y-86801996D01*
X64430070Y-86811594D01*
X64480953Y-86826455D01*
X64552265Y-86859588D01*
X64603422Y-86902270D01*
X64634245Y-86954335D01*
X64644559Y-87015613D01*
X64643622Y-87046862D01*
X64637830Y-87071659D01*
X64623023Y-87093329D01*
X64595050Y-87120679D01*
X64587072Y-87128008D01*
X64563362Y-87148911D01*
X64540968Y-87165881D01*
X64516935Y-87179835D01*
X64488307Y-87191686D01*
X64452130Y-87202350D01*
X64405450Y-87212741D01*
X64345311Y-87223776D01*
X64268760Y-87236368D01*
X64172841Y-87251434D01*
X64154478Y-87254468D01*
X64092148Y-87268088D01*
X64046930Y-87283822D01*
X64020646Y-87300893D01*
X64015117Y-87318527D01*
X64017738Y-87322798D01*
X64035670Y-87337863D01*
X64063796Y-87354497D01*
X64076596Y-87360487D01*
X64097894Y-87367680D01*
X64124280Y-87372457D01*
X64160124Y-87375276D01*
X64209798Y-87376594D01*
X64277670Y-87376867D01*
X64295455Y-87376794D01*
X64363076Y-87375683D01*
X64428015Y-87373458D01*
X64483640Y-87370392D01*
X64523321Y-87366757D01*
X64558832Y-87362689D01*
X64588085Y-87361906D01*
X64606985Y-87366506D01*
X64622099Y-87377181D01*
X64625755Y-87380774D01*
X64642097Y-87412548D01*
X64640777Y-87448202D01*
X64621820Y-87478820D01*
X64601450Y-87490426D01*
X64565466Y-87503121D01*
X64523042Y-87513171D01*
X64519592Y-87513770D01*
X64476922Y-87518986D01*
X64419536Y-87523360D01*
X64354519Y-87526448D01*
X64288959Y-87527807D01*
X64272727Y-87527848D01*
X64174414Y-87525371D01*
X64094362Y-87517365D01*
X64029183Y-87502833D01*
X63975487Y-87480779D01*
X63929886Y-87450206D01*
X63888993Y-87410116D01*
X63868872Y-87383889D01*
X63857246Y-87354342D01*
X63854337Y-87314625D01*
X63854478Y-87302656D01*
X63858351Y-87269975D01*
X63870735Y-87243449D01*
X63895900Y-87212601D01*
X63917112Y-87190461D01*
X63943508Y-87167915D01*
X63973225Y-87149547D01*
X64009455Y-87134291D01*
X64055387Y-87121079D01*
X64114214Y-87108844D01*
X64189126Y-87096519D01*
X64283315Y-87083036D01*
X64328627Y-87076026D01*
X64396581Y-87061467D01*
X64445717Y-87044967D01*
X64475284Y-87027069D01*
X64484534Y-87008315D01*
X64472718Y-86989245D01*
X64439086Y-86970401D01*
X64436040Y-86969187D01*
X64389681Y-86957109D01*
X64327031Y-86948909D01*
X64253597Y-86944749D01*
X64174887Y-86944791D01*
X64096409Y-86949199D01*
X64023670Y-86958135D01*
X64019743Y-86958784D01*
X63970927Y-86966491D01*
X63938675Y-86970103D01*
X63917678Y-86969506D01*
X63902624Y-86964584D01*
X63888204Y-86955226D01*
X63887034Y-86954355D01*
X63862517Y-86923981D01*
X63857724Y-86888480D01*
X63873530Y-86853899D01*
X63878076Y-86849443D01*
X63907690Y-86834303D01*
X63954672Y-86821180D01*
X64014976Y-86810380D01*
X64084558Y-86802211D01*
X64159373Y-86796981D01*
X64235376Y-86794997D01*
X64308523Y-86796566D01*
G36*
X65324404Y-86795713D02*
G01*
X65401501Y-86795905D01*
X65460447Y-86796490D01*
X65504034Y-86797681D01*
X65535053Y-86799694D01*
X65556295Y-86802742D01*
X65570552Y-86807039D01*
X65580615Y-86812802D01*
X65589276Y-86820242D01*
X65591061Y-86821923D01*
X65598305Y-86829462D01*
X65603947Y-86838480D01*
X65608187Y-86851614D01*
X65611226Y-86871502D01*
X65613264Y-86900781D01*
X65614500Y-86942088D01*
X65615135Y-86998061D01*
X65615370Y-87071337D01*
X65615404Y-87164553D01*
X65615367Y-87237343D01*
X65615118Y-87315519D01*
X65614482Y-87375733D01*
X65613285Y-87420612D01*
X65611354Y-87452782D01*
X65608516Y-87474869D01*
X65604597Y-87489500D01*
X65599425Y-87499300D01*
X65592826Y-87506897D01*
X65589492Y-87510074D01*
X65580970Y-87516184D01*
X65568968Y-87520859D01*
X65550757Y-87524289D01*
X65523610Y-87526666D01*
X65484799Y-87528182D01*
X65431594Y-87529028D01*
X65361268Y-87529395D01*
X65271092Y-87529475D01*
X65228984Y-87529463D01*
X65147837Y-87529281D01*
X65085345Y-87528728D01*
X65038779Y-87527612D01*
X65005411Y-87525743D01*
X64982514Y-87522928D01*
X64967358Y-87518976D01*
X64957216Y-87513696D01*
X64949359Y-87506897D01*
X64934633Y-87485297D01*
X64926781Y-87456097D01*
X64932280Y-87432190D01*
X64949359Y-87405297D01*
X64954338Y-87400689D01*
X64964113Y-87394402D01*
X64978229Y-87389776D01*
X64999724Y-87386560D01*
X65031638Y-87384500D01*
X65077012Y-87383342D01*
X65138883Y-87382832D01*
X65220292Y-87382719D01*
X65468648Y-87382719D01*
X65468648Y-87224675D01*
X65307471Y-87224675D01*
X65271653Y-87224529D01*
X65206029Y-87222806D01*
X65158788Y-87218371D01*
X65127053Y-87210267D01*
X65107947Y-87197536D01*
X65098593Y-87179222D01*
X65096115Y-87154368D01*
X65096912Y-87134112D01*
X65102164Y-87112286D01*
X65114958Y-87096934D01*
X65138298Y-87086939D01*
X65175187Y-87081183D01*
X65228629Y-87078549D01*
X65301628Y-87077919D01*
X65469775Y-87077919D01*
X65466389Y-87013008D01*
X65463004Y-86948097D01*
X65215287Y-86945048D01*
X65152696Y-86944169D01*
X65084235Y-86942725D01*
X65033331Y-86940794D01*
X64997078Y-86938144D01*
X64972571Y-86934540D01*
X64956905Y-86929751D01*
X64947176Y-86923543D01*
X64941161Y-86917140D01*
X64928152Y-86885458D01*
X64931713Y-86849772D01*
X64951488Y-86818714D01*
X64954739Y-86815791D01*
X64963719Y-86809440D01*
X64975823Y-86804587D01*
X64993829Y-86801033D01*
X65020517Y-86798576D01*
X65058667Y-86797015D01*
X65111056Y-86796148D01*
X65180464Y-86795776D01*
X65269671Y-86795697D01*
X65324404Y-86795713D01*
G37*
X65324404Y-86795713D02*
X65401501Y-86795905D01*
X65460447Y-86796490D01*
X65504034Y-86797681D01*
X65535053Y-86799694D01*
X65556295Y-86802742D01*
X65570552Y-86807039D01*
X65580615Y-86812802D01*
X65589276Y-86820242D01*
X65591061Y-86821923D01*
X65598305Y-86829462D01*
X65603947Y-86838480D01*
X65608187Y-86851614D01*
X65611226Y-86871502D01*
X65613264Y-86900781D01*
X65614500Y-86942088D01*
X65615135Y-86998061D01*
X65615370Y-87071337D01*
X65615404Y-87164553D01*
X65615367Y-87237343D01*
X65615118Y-87315519D01*
X65614482Y-87375733D01*
X65613285Y-87420612D01*
X65611354Y-87452782D01*
X65608516Y-87474869D01*
X65604597Y-87489500D01*
X65599425Y-87499300D01*
X65592826Y-87506897D01*
X65589492Y-87510074D01*
X65580970Y-87516184D01*
X65568968Y-87520859D01*
X65550757Y-87524289D01*
X65523610Y-87526666D01*
X65484799Y-87528182D01*
X65431594Y-87529028D01*
X65361268Y-87529395D01*
X65271092Y-87529475D01*
X65228984Y-87529463D01*
X65147837Y-87529281D01*
X65085345Y-87528728D01*
X65038779Y-87527612D01*
X65005411Y-87525743D01*
X64982514Y-87522928D01*
X64967358Y-87518976D01*
X64957216Y-87513696D01*
X64949359Y-87506897D01*
X64934633Y-87485297D01*
X64926781Y-87456097D01*
X64932280Y-87432190D01*
X64949359Y-87405297D01*
X64954338Y-87400689D01*
X64964113Y-87394402D01*
X64978229Y-87389776D01*
X64999724Y-87386560D01*
X65031638Y-87384500D01*
X65077012Y-87383342D01*
X65138883Y-87382832D01*
X65220292Y-87382719D01*
X65468648Y-87382719D01*
X65468648Y-87224675D01*
X65307471Y-87224675D01*
X65271653Y-87224529D01*
X65206029Y-87222806D01*
X65158788Y-87218371D01*
X65127053Y-87210267D01*
X65107947Y-87197536D01*
X65098593Y-87179222D01*
X65096115Y-87154368D01*
X65096912Y-87134112D01*
X65102164Y-87112286D01*
X65114958Y-87096934D01*
X65138298Y-87086939D01*
X65175187Y-87081183D01*
X65228629Y-87078549D01*
X65301628Y-87077919D01*
X65469775Y-87077919D01*
X65466389Y-87013008D01*
X65463004Y-86948097D01*
X65215287Y-86945048D01*
X65152696Y-86944169D01*
X65084235Y-86942725D01*
X65033331Y-86940794D01*
X64997078Y-86938144D01*
X64972571Y-86934540D01*
X64956905Y-86929751D01*
X64947176Y-86923543D01*
X64941161Y-86917140D01*
X64928152Y-86885458D01*
X64931713Y-86849772D01*
X64951488Y-86818714D01*
X64954739Y-86815791D01*
X64963719Y-86809440D01*
X64975823Y-86804587D01*
X64993829Y-86801033D01*
X65020517Y-86798576D01*
X65058667Y-86797015D01*
X65111056Y-86796148D01*
X65180464Y-86795776D01*
X65269671Y-86795697D01*
X65324404Y-86795713D01*
G36*
X59650833Y-87439805D02*
G01*
X59647905Y-87462725D01*
X59643828Y-87478527D01*
X59638413Y-87489949D01*
X59631473Y-87499730D01*
X59608076Y-87529475D01*
X59442384Y-87528881D01*
X59407588Y-87528583D01*
X59309105Y-87525152D01*
X59228143Y-87517469D01*
X59161049Y-87504912D01*
X59104166Y-87486857D01*
X59053839Y-87462682D01*
X59050480Y-87460765D01*
X58992668Y-87424047D01*
X58950314Y-87387081D01*
X58917498Y-87343596D01*
X58888298Y-87287319D01*
X58884016Y-87277703D01*
X58861439Y-87214517D01*
X58855704Y-87168963D01*
X59004949Y-87168963D01*
X59010562Y-87193691D01*
X59016288Y-87209569D01*
X59049218Y-87269477D01*
X59096556Y-87315230D01*
X59160322Y-87348366D01*
X59242531Y-87370420D01*
X59245325Y-87370922D01*
X59291610Y-87376885D01*
X59348006Y-87381113D01*
X59402944Y-87382719D01*
X59496826Y-87382719D01*
X59496826Y-86942452D01*
X59409337Y-86942900D01*
X59342417Y-86945376D01*
X59250019Y-86956628D01*
X59170704Y-86976167D01*
X59108730Y-87003141D01*
X59077790Y-87023870D01*
X59049670Y-87053636D01*
X59026330Y-87096064D01*
X59019203Y-87112030D01*
X59007379Y-87144532D01*
X59004949Y-87168963D01*
X58855704Y-87168963D01*
X58854467Y-87159139D01*
X58863069Y-87104113D01*
X58887211Y-87041981D01*
X58888007Y-87040288D01*
X58928458Y-86970866D01*
X58979143Y-86914268D01*
X59041868Y-86869700D01*
X59118444Y-86836371D01*
X59210679Y-86813491D01*
X59320382Y-86800266D01*
X59449361Y-86795905D01*
X59452933Y-86795900D01*
X59512953Y-86796040D01*
X59554884Y-86797076D01*
X59582998Y-86799670D01*
X59601567Y-86804483D01*
X59614864Y-86812174D01*
X59627161Y-86823406D01*
X59654870Y-86851115D01*
X59654870Y-87160550D01*
X59654845Y-87222156D01*
X59654620Y-87300941D01*
X59654002Y-87361651D01*
X59653445Y-87382719D01*
X59652803Y-87407026D01*
X59650833Y-87439805D01*
G37*
X59650833Y-87439805D02*
X59647905Y-87462725D01*
X59643828Y-87478527D01*
X59638413Y-87489949D01*
X59631473Y-87499730D01*
X59608076Y-87529475D01*
X59442384Y-87528881D01*
X59407588Y-87528583D01*
X59309105Y-87525152D01*
X59228143Y-87517469D01*
X59161049Y-87504912D01*
X59104166Y-87486857D01*
X59053839Y-87462682D01*
X59050480Y-87460765D01*
X58992668Y-87424047D01*
X58950314Y-87387081D01*
X58917498Y-87343596D01*
X58888298Y-87287319D01*
X58884016Y-87277703D01*
X58861439Y-87214517D01*
X58855704Y-87168963D01*
X59004949Y-87168963D01*
X59010562Y-87193691D01*
X59016288Y-87209569D01*
X59049218Y-87269477D01*
X59096556Y-87315230D01*
X59160322Y-87348366D01*
X59242531Y-87370420D01*
X59245325Y-87370922D01*
X59291610Y-87376885D01*
X59348006Y-87381113D01*
X59402944Y-87382719D01*
X59496826Y-87382719D01*
X59496826Y-86942452D01*
X59409337Y-86942900D01*
X59342417Y-86945376D01*
X59250019Y-86956628D01*
X59170704Y-86976167D01*
X59108730Y-87003141D01*
X59077790Y-87023870D01*
X59049670Y-87053636D01*
X59026330Y-87096064D01*
X59019203Y-87112030D01*
X59007379Y-87144532D01*
X59004949Y-87168963D01*
X58855704Y-87168963D01*
X58854467Y-87159139D01*
X58863069Y-87104113D01*
X58887211Y-87041981D01*
X58888007Y-87040288D01*
X58928458Y-86970866D01*
X58979143Y-86914268D01*
X59041868Y-86869700D01*
X59118444Y-86836371D01*
X59210679Y-86813491D01*
X59320382Y-86800266D01*
X59449361Y-86795905D01*
X59452933Y-86795900D01*
X59512953Y-86796040D01*
X59554884Y-86797076D01*
X59582998Y-86799670D01*
X59601567Y-86804483D01*
X59614864Y-86812174D01*
X59627161Y-86823406D01*
X59654870Y-86851115D01*
X59654870Y-87160550D01*
X59654845Y-87222156D01*
X59654620Y-87300941D01*
X59654002Y-87361651D01*
X59653445Y-87382719D01*
X59652803Y-87407026D01*
X59650833Y-87439805D01*
G36*
X66743729Y-82769641D02*
G01*
X66744032Y-82916846D01*
X66744218Y-83080979D01*
X66744312Y-83262982D01*
X66744341Y-83463795D01*
X66744331Y-83684362D01*
X66744306Y-83925622D01*
X66744292Y-84188519D01*
X66744292Y-84230670D01*
X66744316Y-84491298D01*
X66744355Y-84730426D01*
X66744378Y-84948990D01*
X66744357Y-85147925D01*
X66744263Y-85328165D01*
X66744065Y-85490645D01*
X66743733Y-85636300D01*
X66743239Y-85766064D01*
X66742553Y-85880873D01*
X66741646Y-85981660D01*
X66740487Y-86069360D01*
X66739048Y-86144909D01*
X66737299Y-86209241D01*
X66735210Y-86263291D01*
X66732753Y-86307993D01*
X66729897Y-86344282D01*
X66726613Y-86373093D01*
X66722872Y-86395361D01*
X66718644Y-86412020D01*
X66713899Y-86424005D01*
X66708609Y-86432251D01*
X66702743Y-86437692D01*
X66696272Y-86441264D01*
X66689167Y-86443900D01*
X66681398Y-86446536D01*
X66672936Y-86450107D01*
X66668578Y-86451775D01*
X66660065Y-86453741D01*
X66647364Y-86455541D01*
X66629555Y-86457185D01*
X66605719Y-86458677D01*
X66574936Y-86460027D01*
X66536287Y-86461241D01*
X66488852Y-86462327D01*
X66431713Y-86463291D01*
X66363949Y-86464141D01*
X66284641Y-86464883D01*
X66192869Y-86465527D01*
X66087714Y-86466077D01*
X65968257Y-86466543D01*
X65833578Y-86466930D01*
X65682758Y-86467246D01*
X65514876Y-86467499D01*
X65329015Y-86467696D01*
X65124253Y-86467843D01*
X64899672Y-86467948D01*
X64654352Y-86468019D01*
X64387374Y-86468062D01*
X64348991Y-86468067D01*
X64083592Y-86468110D01*
X63839720Y-86468155D01*
X63616453Y-86468178D01*
X63412866Y-86468154D01*
X63228037Y-86468060D01*
X63061043Y-86467873D01*
X62910960Y-86467569D01*
X62776866Y-86467124D01*
X62657836Y-86466515D01*
X62552949Y-86465719D01*
X62461280Y-86464710D01*
X62381907Y-86463467D01*
X62313907Y-86461965D01*
X62256356Y-86460181D01*
X62208332Y-86458091D01*
X62168910Y-86455672D01*
X62137169Y-86452900D01*
X62112184Y-86449751D01*
X62093034Y-86446202D01*
X62078793Y-86442228D01*
X62068541Y-86437808D01*
X62061352Y-86432916D01*
X62056305Y-86427530D01*
X62052475Y-86421626D01*
X62048941Y-86415179D01*
X62044778Y-86408167D01*
X62043695Y-86406317D01*
X62041483Y-86400810D01*
X62039456Y-86392498D01*
X62037608Y-86380439D01*
X62035931Y-86363693D01*
X62034415Y-86341317D01*
X62033053Y-86312370D01*
X62031837Y-86275910D01*
X62030759Y-86230997D01*
X62029810Y-86176687D01*
X62028982Y-86112040D01*
X62028267Y-86036114D01*
X62027657Y-85947968D01*
X62027612Y-85939123D01*
X62319048Y-85939123D01*
X62322930Y-85940395D01*
X62346190Y-85942421D01*
X62388544Y-85944256D01*
X62447802Y-85945857D01*
X62521777Y-85947179D01*
X62608280Y-85948178D01*
X62705122Y-85948810D01*
X62810115Y-85949030D01*
X63508321Y-85949030D01*
X64662760Y-85949030D01*
X64662126Y-85872830D01*
X64663244Y-85830790D01*
X64668974Y-85794964D01*
X64681560Y-85757402D01*
X64703238Y-85709207D01*
X64706459Y-85702527D01*
X64731858Y-85652989D01*
X64758666Y-85604999D01*
X64781587Y-85568096D01*
X64786155Y-85561464D01*
X64808186Y-85530223D01*
X64840363Y-85485284D01*
X64881127Y-85428777D01*
X64928915Y-85362834D01*
X64982168Y-85289587D01*
X65039325Y-85211166D01*
X65098825Y-85129702D01*
X65159107Y-85047328D01*
X65218610Y-84966174D01*
X65275775Y-84888372D01*
X65329040Y-84816053D01*
X65376844Y-84751348D01*
X65417627Y-84696389D01*
X65449828Y-84653306D01*
X65471886Y-84624232D01*
X65482241Y-84611297D01*
X65486714Y-84606981D01*
X65490906Y-84604942D01*
X65494313Y-84607556D01*
X65496995Y-84616616D01*
X65499011Y-84633915D01*
X65500418Y-84661244D01*
X65501275Y-84700395D01*
X65501640Y-84753163D01*
X65501573Y-84821337D01*
X65501130Y-84906712D01*
X65500372Y-85011079D01*
X65499355Y-85136230D01*
X65498978Y-85180930D01*
X65497839Y-85302025D01*
X65496642Y-85403318D01*
X65495306Y-85486892D01*
X65493747Y-85554834D01*
X65491885Y-85609229D01*
X65489636Y-85652162D01*
X65486918Y-85685719D01*
X65483649Y-85711985D01*
X65479748Y-85733046D01*
X65475131Y-85750987D01*
X65466862Y-85777400D01*
X65443253Y-85839402D01*
X65417355Y-85892203D01*
X65392205Y-85929275D01*
X65391009Y-85930705D01*
X65388838Y-85935054D01*
X65390998Y-85938656D01*
X65399314Y-85941581D01*
X65415610Y-85943899D01*
X65441711Y-85945681D01*
X65479441Y-85946997D01*
X65530626Y-85947916D01*
X65597090Y-85948508D01*
X65680657Y-85948845D01*
X65783153Y-85948995D01*
X65906402Y-85949030D01*
X66437966Y-85949030D01*
X66399193Y-85891413D01*
X66393102Y-85882523D01*
X66382646Y-85867699D01*
X66373249Y-85854052D01*
X66364853Y-85840395D01*
X66357403Y-85825541D01*
X66350843Y-85808300D01*
X66345116Y-85787485D01*
X66340165Y-85761910D01*
X66335936Y-85730385D01*
X66332371Y-85691723D01*
X66329414Y-85644737D01*
X66327010Y-85588238D01*
X66325101Y-85521039D01*
X66323632Y-85441952D01*
X66322546Y-85349790D01*
X66321788Y-85243364D01*
X66321300Y-85121487D01*
X66321028Y-84982971D01*
X66320913Y-84826629D01*
X66320901Y-84651272D01*
X66320935Y-84455712D01*
X66320959Y-84238763D01*
X66320950Y-84116143D01*
X66320913Y-83911077D01*
X66320897Y-83726746D01*
X66320958Y-83561964D01*
X66321154Y-83415546D01*
X66321540Y-83286304D01*
X66322175Y-83173052D01*
X66323114Y-83074605D01*
X66324415Y-82989774D01*
X66326134Y-82917374D01*
X66328329Y-82856219D01*
X66331055Y-82805122D01*
X66334371Y-82762897D01*
X66338332Y-82728357D01*
X66342995Y-82700316D01*
X66348417Y-82677588D01*
X66354656Y-82658986D01*
X66361767Y-82643323D01*
X66369808Y-82629414D01*
X66378836Y-82616071D01*
X66388906Y-82602109D01*
X66400077Y-82586341D01*
X66439867Y-82528497D01*
X65379984Y-82528497D01*
X65417981Y-82591596D01*
X65432663Y-82616635D01*
X65447201Y-82644216D01*
X65459297Y-82672330D01*
X65469202Y-82703181D01*
X65477164Y-82738974D01*
X65483431Y-82781913D01*
X65488252Y-82834204D01*
X65491876Y-82898049D01*
X65494551Y-82975655D01*
X65496527Y-83069224D01*
X65498052Y-83180963D01*
X65499374Y-83313075D01*
X65500283Y-83433064D01*
X65500690Y-83549693D01*
X65500437Y-83645161D01*
X65499527Y-83719186D01*
X65497963Y-83771485D01*
X65495749Y-83801779D01*
X65492890Y-83809786D01*
X65489831Y-83806488D01*
X65471676Y-83785038D01*
X65441945Y-83748519D01*
X65402309Y-83699072D01*
X65354441Y-83638837D01*
X65300013Y-83569957D01*
X65240697Y-83494573D01*
X65178165Y-83414826D01*
X65114091Y-83332858D01*
X65050145Y-83250810D01*
X64988001Y-83170824D01*
X64929331Y-83095041D01*
X64875807Y-83025603D01*
X64829100Y-82964651D01*
X64790884Y-82914326D01*
X64762831Y-82876770D01*
X64746613Y-82854125D01*
X64701305Y-82781842D01*
X64661331Y-82702093D01*
X64639800Y-82633818D01*
X64636497Y-82576474D01*
X64641786Y-82528497D01*
X63510026Y-82528747D01*
X63549537Y-82559352D01*
X63558918Y-82566719D01*
X63621853Y-82621068D01*
X63690667Y-82688889D01*
X63767266Y-82772146D01*
X63853558Y-82872808D01*
X63870722Y-82893477D01*
X63911503Y-82943039D01*
X63961258Y-83003956D01*
X64018625Y-83074528D01*
X64082239Y-83153054D01*
X64150739Y-83237834D01*
X64222760Y-83327167D01*
X64296940Y-83419352D01*
X64312187Y-83438332D01*
X64371916Y-83512690D01*
X64446323Y-83605478D01*
X64518801Y-83696018D01*
X64587984Y-83782608D01*
X64652511Y-83863548D01*
X64711017Y-83937136D01*
X64762140Y-84001674D01*
X64804517Y-84055459D01*
X64836785Y-84096792D01*
X64857580Y-84123972D01*
X64865539Y-84135298D01*
X64863781Y-84139401D01*
X64850900Y-84159964D01*
X64826555Y-84196191D01*
X64791917Y-84246454D01*
X64748156Y-84309122D01*
X64696445Y-84382566D01*
X64637954Y-84465157D01*
X64573854Y-84555266D01*
X64505316Y-84651261D01*
X64433513Y-84751515D01*
X64359614Y-84854398D01*
X64284791Y-84958280D01*
X64210215Y-85061531D01*
X64137057Y-85162522D01*
X64066489Y-85259624D01*
X63999681Y-85351207D01*
X63937805Y-85435641D01*
X63882031Y-85511297D01*
X63833532Y-85576546D01*
X63793477Y-85629758D01*
X63763039Y-85669303D01*
X63742614Y-85694656D01*
X63696569Y-85748925D01*
X63646282Y-85805405D01*
X63599485Y-85855299D01*
X63508321Y-85949030D01*
X62810115Y-85949030D01*
X62879026Y-85948979D01*
X62977277Y-85948721D01*
X63066700Y-85948267D01*
X63145003Y-85947640D01*
X63209893Y-85946865D01*
X63259081Y-85945965D01*
X63290274Y-85944964D01*
X63301181Y-85943887D01*
X63299992Y-85940667D01*
X63289846Y-85923082D01*
X63272710Y-85896788D01*
X63264210Y-85884321D01*
X63254999Y-85870252D01*
X63246903Y-85855981D01*
X63239855Y-85840109D01*
X63233787Y-85821239D01*
X63228631Y-85797971D01*
X63224321Y-85768908D01*
X63220789Y-85732651D01*
X63217967Y-85687800D01*
X63215788Y-85632958D01*
X63214184Y-85566727D01*
X63213089Y-85487707D01*
X63212435Y-85394501D01*
X63212154Y-85285709D01*
X63212179Y-85159933D01*
X63212442Y-85015775D01*
X63212876Y-84851837D01*
X63213415Y-84666719D01*
X63213949Y-84487862D01*
X63214475Y-84329004D01*
X63215020Y-84189946D01*
X63215615Y-84069295D01*
X63216289Y-83965658D01*
X63217073Y-83877641D01*
X63217996Y-83803853D01*
X63219089Y-83742899D01*
X63220382Y-83693387D01*
X63221905Y-83653923D01*
X63223689Y-83623114D01*
X63225762Y-83599568D01*
X63228156Y-83581890D01*
X63230900Y-83568689D01*
X63234026Y-83558570D01*
X63237562Y-83550141D01*
X63241461Y-83542005D01*
X63261108Y-83505174D01*
X63279895Y-83475021D01*
X63280942Y-83473538D01*
X63295272Y-83451289D01*
X63301181Y-83438332D01*
X63300174Y-83437879D01*
X63282975Y-83436433D01*
X63246326Y-83435110D01*
X63192632Y-83433946D01*
X63124300Y-83432977D01*
X63043734Y-83432241D01*
X62953340Y-83431772D01*
X62855523Y-83431608D01*
X62409865Y-83431608D01*
X62406790Y-84608475D01*
X62403715Y-85785341D01*
X62377077Y-85844252D01*
X62365155Y-85868813D01*
X62347916Y-85899064D01*
X62334744Y-85916190D01*
X62326746Y-85924221D01*
X62319048Y-85939123D01*
X62027612Y-85939123D01*
X62027144Y-85846659D01*
X62026720Y-85731247D01*
X62026376Y-85600790D01*
X62026104Y-85454346D01*
X62025897Y-85290974D01*
X62025746Y-85109731D01*
X62025642Y-84909678D01*
X62025578Y-84689871D01*
X62025546Y-84449369D01*
X62025537Y-84187232D01*
X62025537Y-81995661D01*
X62063919Y-81957279D01*
X62091025Y-81933541D01*
X62117923Y-81921741D01*
X62154230Y-81918897D01*
X62206159Y-81918897D01*
X62206159Y-82006836D01*
X62208097Y-82056732D01*
X62226869Y-82167153D01*
X62263887Y-82268617D01*
X62317039Y-82359782D01*
X62384216Y-82439303D01*
X62463308Y-82505835D01*
X62552204Y-82558036D01*
X62648795Y-82594560D01*
X62750970Y-82614064D01*
X62856620Y-82615203D01*
X62963634Y-82596635D01*
X63069902Y-82557014D01*
X63166889Y-82499146D01*
X63251963Y-82424314D01*
X63320685Y-82336245D01*
X63371588Y-82237246D01*
X63403205Y-82129623D01*
X63414070Y-82015684D01*
X63414070Y-81918897D01*
X65034423Y-81918897D01*
X65245567Y-81918910D01*
X65449690Y-81918960D01*
X65633356Y-81919060D01*
X65797661Y-81919222D01*
X65943699Y-81919459D01*
X66072564Y-81919783D01*
X66185353Y-81920205D01*
X66283158Y-81920739D01*
X66367074Y-81921397D01*
X66438197Y-81922191D01*
X66497620Y-81923134D01*
X66546438Y-81924238D01*
X66585747Y-81925514D01*
X66616639Y-81926977D01*
X66640211Y-81928637D01*
X66657556Y-81930508D01*
X66669769Y-81932602D01*
X66677945Y-81934930D01*
X66683178Y-81937506D01*
X66689174Y-81941075D01*
X66695949Y-81944608D01*
X66702148Y-81948118D01*
X66707796Y-81952548D01*
X66712917Y-81958838D01*
X66717539Y-81967931D01*
X66721685Y-81980769D01*
X66725383Y-81998292D01*
X66728657Y-82021443D01*
X66731533Y-82051164D01*
X66734037Y-82088395D01*
X66736194Y-82134079D01*
X66738030Y-82189157D01*
X66739570Y-82254571D01*
X66740840Y-82331263D01*
X66741865Y-82420174D01*
X66742671Y-82522247D01*
X66742704Y-82528497D01*
X66743284Y-82638422D01*
X66743729Y-82769641D01*
G37*
X66743729Y-82769641D02*
X66744032Y-82916846D01*
X66744218Y-83080979D01*
X66744312Y-83262982D01*
X66744341Y-83463795D01*
X66744331Y-83684362D01*
X66744306Y-83925622D01*
X66744292Y-84188519D01*
X66744292Y-84230670D01*
X66744316Y-84491298D01*
X66744355Y-84730426D01*
X66744378Y-84948990D01*
X66744357Y-85147925D01*
X66744263Y-85328165D01*
X66744065Y-85490645D01*
X66743733Y-85636300D01*
X66743239Y-85766064D01*
X66742553Y-85880873D01*
X66741646Y-85981660D01*
X66740487Y-86069360D01*
X66739048Y-86144909D01*
X66737299Y-86209241D01*
X66735210Y-86263291D01*
X66732753Y-86307993D01*
X66729897Y-86344282D01*
X66726613Y-86373093D01*
X66722872Y-86395361D01*
X66718644Y-86412020D01*
X66713899Y-86424005D01*
X66708609Y-86432251D01*
X66702743Y-86437692D01*
X66696272Y-86441264D01*
X66689167Y-86443900D01*
X66681398Y-86446536D01*
X66672936Y-86450107D01*
X66668578Y-86451775D01*
X66660065Y-86453741D01*
X66647364Y-86455541D01*
X66629555Y-86457185D01*
X66605719Y-86458677D01*
X66574936Y-86460027D01*
X66536287Y-86461241D01*
X66488852Y-86462327D01*
X66431713Y-86463291D01*
X66363949Y-86464141D01*
X66284641Y-86464883D01*
X66192869Y-86465527D01*
X66087714Y-86466077D01*
X65968257Y-86466543D01*
X65833578Y-86466930D01*
X65682758Y-86467246D01*
X65514876Y-86467499D01*
X65329015Y-86467696D01*
X65124253Y-86467843D01*
X64899672Y-86467948D01*
X64654352Y-86468019D01*
X64387374Y-86468062D01*
X64348991Y-86468067D01*
X64083592Y-86468110D01*
X63839720Y-86468155D01*
X63616453Y-86468178D01*
X63412866Y-86468154D01*
X63228037Y-86468060D01*
X63061043Y-86467873D01*
X62910960Y-86467569D01*
X62776866Y-86467124D01*
X62657836Y-86466515D01*
X62552949Y-86465719D01*
X62461280Y-86464710D01*
X62381907Y-86463467D01*
X62313907Y-86461965D01*
X62256356Y-86460181D01*
X62208332Y-86458091D01*
X62168910Y-86455672D01*
X62137169Y-86452900D01*
X62112184Y-86449751D01*
X62093034Y-86446202D01*
X62078793Y-86442228D01*
X62068541Y-86437808D01*
X62061352Y-86432916D01*
X62056305Y-86427530D01*
X62052475Y-86421626D01*
X62048941Y-86415179D01*
X62044778Y-86408167D01*
X62043695Y-86406317D01*
X62041483Y-86400810D01*
X62039456Y-86392498D01*
X62037608Y-86380439D01*
X62035931Y-86363693D01*
X62034415Y-86341317D01*
X62033053Y-86312370D01*
X62031837Y-86275910D01*
X62030759Y-86230997D01*
X62029810Y-86176687D01*
X62028982Y-86112040D01*
X62028267Y-86036114D01*
X62027657Y-85947968D01*
X62027612Y-85939123D01*
X62319048Y-85939123D01*
X62322930Y-85940395D01*
X62346190Y-85942421D01*
X62388544Y-85944256D01*
X62447802Y-85945857D01*
X62521777Y-85947179D01*
X62608280Y-85948178D01*
X62705122Y-85948810D01*
X62810115Y-85949030D01*
X63508321Y-85949030D01*
X64662760Y-85949030D01*
X64662126Y-85872830D01*
X64663244Y-85830790D01*
X64668974Y-85794964D01*
X64681560Y-85757402D01*
X64703238Y-85709207D01*
X64706459Y-85702527D01*
X64731858Y-85652989D01*
X64758666Y-85604999D01*
X64781587Y-85568096D01*
X64786155Y-85561464D01*
X64808186Y-85530223D01*
X64840363Y-85485284D01*
X64881127Y-85428777D01*
X64928915Y-85362834D01*
X64982168Y-85289587D01*
X65039325Y-85211166D01*
X65098825Y-85129702D01*
X65159107Y-85047328D01*
X65218610Y-84966174D01*
X65275775Y-84888372D01*
X65329040Y-84816053D01*
X65376844Y-84751348D01*
X65417627Y-84696389D01*
X65449828Y-84653306D01*
X65471886Y-84624232D01*
X65482241Y-84611297D01*
X65486714Y-84606981D01*
X65490906Y-84604942D01*
X65494313Y-84607556D01*
X65496995Y-84616616D01*
X65499011Y-84633915D01*
X65500418Y-84661244D01*
X65501275Y-84700395D01*
X65501640Y-84753163D01*
X65501573Y-84821337D01*
X65501130Y-84906712D01*
X65500372Y-85011079D01*
X65499355Y-85136230D01*
X65498978Y-85180930D01*
X65497839Y-85302025D01*
X65496642Y-85403318D01*
X65495306Y-85486892D01*
X65493747Y-85554834D01*
X65491885Y-85609229D01*
X65489636Y-85652162D01*
X65486918Y-85685719D01*
X65483649Y-85711985D01*
X65479748Y-85733046D01*
X65475131Y-85750987D01*
X65466862Y-85777400D01*
X65443253Y-85839402D01*
X65417355Y-85892203D01*
X65392205Y-85929275D01*
X65391009Y-85930705D01*
X65388838Y-85935054D01*
X65390998Y-85938656D01*
X65399314Y-85941581D01*
X65415610Y-85943899D01*
X65441711Y-85945681D01*
X65479441Y-85946997D01*
X65530626Y-85947916D01*
X65597090Y-85948508D01*
X65680657Y-85948845D01*
X65783153Y-85948995D01*
X65906402Y-85949030D01*
X66437966Y-85949030D01*
X66399193Y-85891413D01*
X66393102Y-85882523D01*
X66382646Y-85867699D01*
X66373249Y-85854052D01*
X66364853Y-85840395D01*
X66357403Y-85825541D01*
X66350843Y-85808300D01*
X66345116Y-85787485D01*
X66340165Y-85761910D01*
X66335936Y-85730385D01*
X66332371Y-85691723D01*
X66329414Y-85644737D01*
X66327010Y-85588238D01*
X66325101Y-85521039D01*
X66323632Y-85441952D01*
X66322546Y-85349790D01*
X66321788Y-85243364D01*
X66321300Y-85121487D01*
X66321028Y-84982971D01*
X66320913Y-84826629D01*
X66320901Y-84651272D01*
X66320935Y-84455712D01*
X66320959Y-84238763D01*
X66320950Y-84116143D01*
X66320913Y-83911077D01*
X66320897Y-83726746D01*
X66320958Y-83561964D01*
X66321154Y-83415546D01*
X66321540Y-83286304D01*
X66322175Y-83173052D01*
X66323114Y-83074605D01*
X66324415Y-82989774D01*
X66326134Y-82917374D01*
X66328329Y-82856219D01*
X66331055Y-82805122D01*
X66334371Y-82762897D01*
X66338332Y-82728357D01*
X66342995Y-82700316D01*
X66348417Y-82677588D01*
X66354656Y-82658986D01*
X66361767Y-82643323D01*
X66369808Y-82629414D01*
X66378836Y-82616071D01*
X66388906Y-82602109D01*
X66400077Y-82586341D01*
X66439867Y-82528497D01*
X65379984Y-82528497D01*
X65417981Y-82591596D01*
X65432663Y-82616635D01*
X65447201Y-82644216D01*
X65459297Y-82672330D01*
X65469202Y-82703181D01*
X65477164Y-82738974D01*
X65483431Y-82781913D01*
X65488252Y-82834204D01*
X65491876Y-82898049D01*
X65494551Y-82975655D01*
X65496527Y-83069224D01*
X65498052Y-83180963D01*
X65499374Y-83313075D01*
X65500283Y-83433064D01*
X65500690Y-83549693D01*
X65500437Y-83645161D01*
X65499527Y-83719186D01*
X65497963Y-83771485D01*
X65495749Y-83801779D01*
X65492890Y-83809786D01*
X65489831Y-83806488D01*
X65471676Y-83785038D01*
X65441945Y-83748519D01*
X65402309Y-83699072D01*
X65354441Y-83638837D01*
X65300013Y-83569957D01*
X65240697Y-83494573D01*
X65178165Y-83414826D01*
X65114091Y-83332858D01*
X65050145Y-83250810D01*
X64988001Y-83170824D01*
X64929331Y-83095041D01*
X64875807Y-83025603D01*
X64829100Y-82964651D01*
X64790884Y-82914326D01*
X64762831Y-82876770D01*
X64746613Y-82854125D01*
X64701305Y-82781842D01*
X64661331Y-82702093D01*
X64639800Y-82633818D01*
X64636497Y-82576474D01*
X64641786Y-82528497D01*
X63510026Y-82528747D01*
X63549537Y-82559352D01*
X63558918Y-82566719D01*
X63621853Y-82621068D01*
X63690667Y-82688889D01*
X63767266Y-82772146D01*
X63853558Y-82872808D01*
X63870722Y-82893477D01*
X63911503Y-82943039D01*
X63961258Y-83003956D01*
X64018625Y-83074528D01*
X64082239Y-83153054D01*
X64150739Y-83237834D01*
X64222760Y-83327167D01*
X64296940Y-83419352D01*
X64312187Y-83438332D01*
X64371916Y-83512690D01*
X64446323Y-83605478D01*
X64518801Y-83696018D01*
X64587984Y-83782608D01*
X64652511Y-83863548D01*
X64711017Y-83937136D01*
X64762140Y-84001674D01*
X64804517Y-84055459D01*
X64836785Y-84096792D01*
X64857580Y-84123972D01*
X64865539Y-84135298D01*
X64863781Y-84139401D01*
X64850900Y-84159964D01*
X64826555Y-84196191D01*
X64791917Y-84246454D01*
X64748156Y-84309122D01*
X64696445Y-84382566D01*
X64637954Y-84465157D01*
X64573854Y-84555266D01*
X64505316Y-84651261D01*
X64433513Y-84751515D01*
X64359614Y-84854398D01*
X64284791Y-84958280D01*
X64210215Y-85061531D01*
X64137057Y-85162522D01*
X64066489Y-85259624D01*
X63999681Y-85351207D01*
X63937805Y-85435641D01*
X63882031Y-85511297D01*
X63833532Y-85576546D01*
X63793477Y-85629758D01*
X63763039Y-85669303D01*
X63742614Y-85694656D01*
X63696569Y-85748925D01*
X63646282Y-85805405D01*
X63599485Y-85855299D01*
X63508321Y-85949030D01*
X62810115Y-85949030D01*
X62879026Y-85948979D01*
X62977277Y-85948721D01*
X63066700Y-85948267D01*
X63145003Y-85947640D01*
X63209893Y-85946865D01*
X63259081Y-85945965D01*
X63290274Y-85944964D01*
X63301181Y-85943887D01*
X63299992Y-85940667D01*
X63289846Y-85923082D01*
X63272710Y-85896788D01*
X63264210Y-85884321D01*
X63254999Y-85870252D01*
X63246903Y-85855981D01*
X63239855Y-85840109D01*
X63233787Y-85821239D01*
X63228631Y-85797971D01*
X63224321Y-85768908D01*
X63220789Y-85732651D01*
X63217967Y-85687800D01*
X63215788Y-85632958D01*
X63214184Y-85566727D01*
X63213089Y-85487707D01*
X63212435Y-85394501D01*
X63212154Y-85285709D01*
X63212179Y-85159933D01*
X63212442Y-85015775D01*
X63212876Y-84851837D01*
X63213415Y-84666719D01*
X63213949Y-84487862D01*
X63214475Y-84329004D01*
X63215020Y-84189946D01*
X63215615Y-84069295D01*
X63216289Y-83965658D01*
X63217073Y-83877641D01*
X63217996Y-83803853D01*
X63219089Y-83742899D01*
X63220382Y-83693387D01*
X63221905Y-83653923D01*
X63223689Y-83623114D01*
X63225762Y-83599568D01*
X63228156Y-83581890D01*
X63230900Y-83568689D01*
X63234026Y-83558570D01*
X63237562Y-83550141D01*
X63241461Y-83542005D01*
X63261108Y-83505174D01*
X63279895Y-83475021D01*
X63280942Y-83473538D01*
X63295272Y-83451289D01*
X63301181Y-83438332D01*
X63300174Y-83437879D01*
X63282975Y-83436433D01*
X63246326Y-83435110D01*
X63192632Y-83433946D01*
X63124300Y-83432977D01*
X63043734Y-83432241D01*
X62953340Y-83431772D01*
X62855523Y-83431608D01*
X62409865Y-83431608D01*
X62406790Y-84608475D01*
X62403715Y-85785341D01*
X62377077Y-85844252D01*
X62365155Y-85868813D01*
X62347916Y-85899064D01*
X62334744Y-85916190D01*
X62326746Y-85924221D01*
X62319048Y-85939123D01*
X62027612Y-85939123D01*
X62027144Y-85846659D01*
X62026720Y-85731247D01*
X62026376Y-85600790D01*
X62026104Y-85454346D01*
X62025897Y-85290974D01*
X62025746Y-85109731D01*
X62025642Y-84909678D01*
X62025578Y-84689871D01*
X62025546Y-84449369D01*
X62025537Y-84187232D01*
X62025537Y-81995661D01*
X62063919Y-81957279D01*
X62091025Y-81933541D01*
X62117923Y-81921741D01*
X62154230Y-81918897D01*
X62206159Y-81918897D01*
X62206159Y-82006836D01*
X62208097Y-82056732D01*
X62226869Y-82167153D01*
X62263887Y-82268617D01*
X62317039Y-82359782D01*
X62384216Y-82439303D01*
X62463308Y-82505835D01*
X62552204Y-82558036D01*
X62648795Y-82594560D01*
X62750970Y-82614064D01*
X62856620Y-82615203D01*
X62963634Y-82596635D01*
X63069902Y-82557014D01*
X63166889Y-82499146D01*
X63251963Y-82424314D01*
X63320685Y-82336245D01*
X63371588Y-82237246D01*
X63403205Y-82129623D01*
X63414070Y-82015684D01*
X63414070Y-81918897D01*
X65034423Y-81918897D01*
X65245567Y-81918910D01*
X65449690Y-81918960D01*
X65633356Y-81919060D01*
X65797661Y-81919222D01*
X65943699Y-81919459D01*
X66072564Y-81919783D01*
X66185353Y-81920205D01*
X66283158Y-81920739D01*
X66367074Y-81921397D01*
X66438197Y-81922191D01*
X66497620Y-81923134D01*
X66546438Y-81924238D01*
X66585747Y-81925514D01*
X66616639Y-81926977D01*
X66640211Y-81928637D01*
X66657556Y-81930508D01*
X66669769Y-81932602D01*
X66677945Y-81934930D01*
X66683178Y-81937506D01*
X66689174Y-81941075D01*
X66695949Y-81944608D01*
X66702148Y-81948118D01*
X66707796Y-81952548D01*
X66712917Y-81958838D01*
X66717539Y-81967931D01*
X66721685Y-81980769D01*
X66725383Y-81998292D01*
X66728657Y-82021443D01*
X66731533Y-82051164D01*
X66734037Y-82088395D01*
X66736194Y-82134079D01*
X66738030Y-82189157D01*
X66739570Y-82254571D01*
X66740840Y-82331263D01*
X66741865Y-82420174D01*
X66742671Y-82522247D01*
X66742704Y-82528497D01*
X66743284Y-82638422D01*
X66743729Y-82769641D01*
G36*
X60647473Y-86825441D02*
G01*
X60652422Y-86832125D01*
X60658266Y-86842696D01*
X60662727Y-86856783D01*
X60665991Y-86877108D01*
X60668244Y-86906395D01*
X60669672Y-86947367D01*
X60670462Y-87002747D01*
X60670799Y-87075258D01*
X60670870Y-87167624D01*
X60670841Y-87233541D01*
X60670609Y-87311858D01*
X60669989Y-87372126D01*
X60668796Y-87417023D01*
X60666849Y-87449232D01*
X60663964Y-87471430D01*
X60659958Y-87486299D01*
X60654649Y-87496519D01*
X60647853Y-87504768D01*
X60643338Y-87509425D01*
X60635108Y-87515912D01*
X60623748Y-87520824D01*
X60606480Y-87524379D01*
X60580525Y-87526797D01*
X60543106Y-87528297D01*
X60491443Y-87529097D01*
X60422759Y-87529417D01*
X60334276Y-87529475D01*
X60314601Y-87529468D01*
X60227576Y-87529202D01*
X60159924Y-87528436D01*
X60108969Y-87527022D01*
X60072037Y-87524810D01*
X60046453Y-87521652D01*
X60029541Y-87517399D01*
X60018627Y-87511901D01*
X60008134Y-87501915D01*
X59994873Y-87470798D01*
X59996056Y-87434910D01*
X60012220Y-87403363D01*
X60014409Y-87401087D01*
X60023097Y-87394819D01*
X60036439Y-87390153D01*
X60057422Y-87386857D01*
X60089033Y-87384698D01*
X60134260Y-87383444D01*
X60196090Y-87382861D01*
X60277509Y-87382719D01*
X60524115Y-87382719D01*
X60524115Y-87224675D01*
X60361676Y-87224675D01*
X60326008Y-87224594D01*
X60270238Y-87223797D01*
X60231100Y-87221792D01*
X60204646Y-87218151D01*
X60186929Y-87212442D01*
X60173999Y-87204237D01*
X60170356Y-87201053D01*
X60151948Y-87170078D01*
X60151314Y-87133742D01*
X60168853Y-87100123D01*
X60168915Y-87100054D01*
X60178586Y-87091428D01*
X60191879Y-87085372D01*
X60212587Y-87081441D01*
X60244498Y-87079186D01*
X60291404Y-87078161D01*
X60357094Y-87077919D01*
X60525241Y-87077919D01*
X60521856Y-87013008D01*
X60518470Y-86948097D01*
X60276393Y-86945044D01*
X60251377Y-86944716D01*
X60169757Y-86943236D01*
X60107438Y-86940852D01*
X60061824Y-86936857D01*
X60030322Y-86930543D01*
X60010337Y-86921204D01*
X59999274Y-86908133D01*
X59994539Y-86890622D01*
X59993537Y-86867965D01*
X59993543Y-86865600D01*
X59994697Y-86845569D01*
X59999494Y-86829776D01*
X60010302Y-86817720D01*
X60029487Y-86808897D01*
X60059415Y-86802805D01*
X60102453Y-86798941D01*
X60160969Y-86796804D01*
X60237327Y-86795890D01*
X60333896Y-86795697D01*
X60624076Y-86795697D01*
X60647473Y-86825441D01*
G37*
X60647473Y-86825441D02*
X60652422Y-86832125D01*
X60658266Y-86842696D01*
X60662727Y-86856783D01*
X60665991Y-86877108D01*
X60668244Y-86906395D01*
X60669672Y-86947367D01*
X60670462Y-87002747D01*
X60670799Y-87075258D01*
X60670870Y-87167624D01*
X60670841Y-87233541D01*
X60670609Y-87311858D01*
X60669989Y-87372126D01*
X60668796Y-87417023D01*
X60666849Y-87449232D01*
X60663964Y-87471430D01*
X60659958Y-87486299D01*
X60654649Y-87496519D01*
X60647853Y-87504768D01*
X60643338Y-87509425D01*
X60635108Y-87515912D01*
X60623748Y-87520824D01*
X60606480Y-87524379D01*
X60580525Y-87526797D01*
X60543106Y-87528297D01*
X60491443Y-87529097D01*
X60422759Y-87529417D01*
X60334276Y-87529475D01*
X60314601Y-87529468D01*
X60227576Y-87529202D01*
X60159924Y-87528436D01*
X60108969Y-87527022D01*
X60072037Y-87524810D01*
X60046453Y-87521652D01*
X60029541Y-87517399D01*
X60018627Y-87511901D01*
X60008134Y-87501915D01*
X59994873Y-87470798D01*
X59996056Y-87434910D01*
X60012220Y-87403363D01*
X60014409Y-87401087D01*
X60023097Y-87394819D01*
X60036439Y-87390153D01*
X60057422Y-87386857D01*
X60089033Y-87384698D01*
X60134260Y-87383444D01*
X60196090Y-87382861D01*
X60277509Y-87382719D01*
X60524115Y-87382719D01*
X60524115Y-87224675D01*
X60361676Y-87224675D01*
X60326008Y-87224594D01*
X60270238Y-87223797D01*
X60231100Y-87221792D01*
X60204646Y-87218151D01*
X60186929Y-87212442D01*
X60173999Y-87204237D01*
X60170356Y-87201053D01*
X60151948Y-87170078D01*
X60151314Y-87133742D01*
X60168853Y-87100123D01*
X60168915Y-87100054D01*
X60178586Y-87091428D01*
X60191879Y-87085372D01*
X60212587Y-87081441D01*
X60244498Y-87079186D01*
X60291404Y-87078161D01*
X60357094Y-87077919D01*
X60525241Y-87077919D01*
X60521856Y-87013008D01*
X60518470Y-86948097D01*
X60276393Y-86945044D01*
X60251377Y-86944716D01*
X60169757Y-86943236D01*
X60107438Y-86940852D01*
X60061824Y-86936857D01*
X60030322Y-86930543D01*
X60010337Y-86921204D01*
X59999274Y-86908133D01*
X59994539Y-86890622D01*
X59993537Y-86867965D01*
X59993543Y-86865600D01*
X59994697Y-86845569D01*
X59999494Y-86829776D01*
X60010302Y-86817720D01*
X60029487Y-86808897D01*
X60059415Y-86802805D01*
X60102453Y-86798941D01*
X60160969Y-86796804D01*
X60237327Y-86795890D01*
X60333896Y-86795697D01*
X60624076Y-86795697D01*
X60647473Y-86825441D01*
G36*
X59194931Y-85203993D02*
G01*
X59191302Y-85278832D01*
X59183692Y-85341031D01*
X59171358Y-85397614D01*
X59126983Y-85523706D01*
X59064070Y-85638309D01*
X58983908Y-85739198D01*
X58887410Y-85825554D01*
X58775492Y-85896562D01*
X58649067Y-85951406D01*
X58509048Y-85989268D01*
X58472819Y-85994981D01*
X58393825Y-86000943D01*
X58305511Y-86001276D01*
X58215745Y-85996289D01*
X58132392Y-85986296D01*
X58063321Y-85971608D01*
X57976857Y-85941379D01*
X57866956Y-85886687D01*
X57769626Y-85819173D01*
X57707537Y-85768186D01*
X57704275Y-85864252D01*
X57701013Y-85960319D01*
X57278120Y-85960319D01*
X57267213Y-85960316D01*
X57172726Y-85960010D01*
X57086001Y-85959246D01*
X57009507Y-85958081D01*
X56945713Y-85956572D01*
X56897088Y-85954777D01*
X56866103Y-85952751D01*
X56855226Y-85950552D01*
X56855248Y-85950093D01*
X56862284Y-85934540D01*
X56878104Y-85911701D01*
X56882404Y-85906268D01*
X56893447Y-85892236D01*
X56902981Y-85878816D01*
X56911131Y-85864352D01*
X56918022Y-85847186D01*
X56923781Y-85825664D01*
X56928532Y-85798128D01*
X56932401Y-85762922D01*
X56935514Y-85718390D01*
X56937995Y-85662876D01*
X56939970Y-85594723D01*
X56941564Y-85512275D01*
X56942904Y-85413876D01*
X56944114Y-85297869D01*
X56944566Y-85247092D01*
X57747048Y-85247092D01*
X57791718Y-85303603D01*
X57804455Y-85318842D01*
X57851274Y-85361474D01*
X57911925Y-85397302D01*
X57922567Y-85402480D01*
X57961346Y-85419375D01*
X57996362Y-85429539D01*
X58036392Y-85434955D01*
X58090211Y-85437608D01*
X58108318Y-85438013D01*
X58183681Y-85435170D01*
X58244413Y-85423250D01*
X58296122Y-85400667D01*
X58344416Y-85365841D01*
X58349473Y-85361428D01*
X58397942Y-85305790D01*
X58426129Y-85241963D01*
X58435422Y-85166912D01*
X58428190Y-85095323D01*
X58403466Y-85032275D01*
X58358919Y-84974388D01*
X58303989Y-84927438D01*
X58231564Y-84887591D01*
X58145010Y-84859893D01*
X58042340Y-84843726D01*
X57921564Y-84838472D01*
X57912677Y-84838487D01*
X57857330Y-84839285D01*
X57810406Y-84841118D01*
X57776623Y-84843741D01*
X57760698Y-84846904D01*
X57756613Y-84853371D01*
X57752242Y-84875505D01*
X57749274Y-84914618D01*
X57747584Y-84972569D01*
X57747048Y-85051216D01*
X57747048Y-85247092D01*
X56944566Y-85247092D01*
X56945319Y-85162598D01*
X56946645Y-85006408D01*
X56947898Y-84863642D01*
X56949321Y-84718572D01*
X56950846Y-84592657D01*
X56952603Y-84484066D01*
X56954721Y-84390964D01*
X56957330Y-84311521D01*
X56960560Y-84243903D01*
X56964539Y-84186279D01*
X56969398Y-84136815D01*
X56975267Y-84093680D01*
X56982274Y-84055040D01*
X56990550Y-84019064D01*
X57000224Y-83983919D01*
X57011426Y-83947772D01*
X57024286Y-83908791D01*
X57039760Y-83865721D01*
X57082664Y-83773501D01*
X57136405Y-83693729D01*
X57205246Y-83619595D01*
X57282855Y-83556035D01*
X57387431Y-83494355D01*
X57506914Y-83446832D01*
X57642178Y-83413197D01*
X57794096Y-83393182D01*
X57963542Y-83386519D01*
X58021560Y-83386917D01*
X58087068Y-83388965D01*
X58148363Y-83393334D01*
X58209767Y-83400665D01*
X58275602Y-83411599D01*
X58350190Y-83426777D01*
X58437854Y-83446839D01*
X58542915Y-83472427D01*
X58571476Y-83479450D01*
X58646724Y-83497406D01*
X58717058Y-83513450D01*
X58778237Y-83526658D01*
X58826024Y-83536104D01*
X58856181Y-83540861D01*
X58884453Y-83544540D01*
X58910730Y-83549817D01*
X58920729Y-83554572D01*
X58917622Y-83563411D01*
X58906864Y-83590702D01*
X58889534Y-83633536D01*
X58866796Y-83689055D01*
X58839817Y-83754402D01*
X58809760Y-83826719D01*
X58803163Y-83842509D01*
X58764577Y-83933114D01*
X58733438Y-84002847D01*
X58709587Y-84052035D01*
X58692868Y-84081004D01*
X58683124Y-84090082D01*
X58675436Y-84088035D01*
X58649085Y-84078390D01*
X58610652Y-84062820D01*
X58565492Y-84043445D01*
X58470963Y-84005444D01*
X58334150Y-83964410D01*
X58192959Y-83939242D01*
X58154984Y-83935241D01*
X58051729Y-83933077D01*
X57964622Y-83946252D01*
X57892799Y-83975386D01*
X57835401Y-84021096D01*
X57791566Y-84084002D01*
X57760432Y-84164722D01*
X57741140Y-84263875D01*
X57733720Y-84322854D01*
X57895606Y-84316075D01*
X58022165Y-84314443D01*
X58173621Y-84320824D01*
X58322066Y-84335407D01*
X58458248Y-84357512D01*
X58522915Y-84372451D01*
X58655160Y-84415371D01*
X58777432Y-84471970D01*
X58887355Y-84540647D01*
X58982553Y-84619800D01*
X59060650Y-84707826D01*
X59119269Y-84803123D01*
X59143265Y-84855494D01*
X59168902Y-84926220D01*
X59185148Y-84997442D01*
X59193492Y-85076342D01*
X59195360Y-85166912D01*
X59195425Y-85170097D01*
X59194931Y-85203993D01*
G37*
X59194931Y-85203993D02*
X59191302Y-85278832D01*
X59183692Y-85341031D01*
X59171358Y-85397614D01*
X59126983Y-85523706D01*
X59064070Y-85638309D01*
X58983908Y-85739198D01*
X58887410Y-85825554D01*
X58775492Y-85896562D01*
X58649067Y-85951406D01*
X58509048Y-85989268D01*
X58472819Y-85994981D01*
X58393825Y-86000943D01*
X58305511Y-86001276D01*
X58215745Y-85996289D01*
X58132392Y-85986296D01*
X58063321Y-85971608D01*
X57976857Y-85941379D01*
X57866956Y-85886687D01*
X57769626Y-85819173D01*
X57707537Y-85768186D01*
X57704275Y-85864252D01*
X57701013Y-85960319D01*
X57278120Y-85960319D01*
X57267213Y-85960316D01*
X57172726Y-85960010D01*
X57086001Y-85959246D01*
X57009507Y-85958081D01*
X56945713Y-85956572D01*
X56897088Y-85954777D01*
X56866103Y-85952751D01*
X56855226Y-85950552D01*
X56855248Y-85950093D01*
X56862284Y-85934540D01*
X56878104Y-85911701D01*
X56882404Y-85906268D01*
X56893447Y-85892236D01*
X56902981Y-85878816D01*
X56911131Y-85864352D01*
X56918022Y-85847186D01*
X56923781Y-85825664D01*
X56928532Y-85798128D01*
X56932401Y-85762922D01*
X56935514Y-85718390D01*
X56937995Y-85662876D01*
X56939970Y-85594723D01*
X56941564Y-85512275D01*
X56942904Y-85413876D01*
X56944114Y-85297869D01*
X56944566Y-85247092D01*
X57747048Y-85247092D01*
X57791718Y-85303603D01*
X57804455Y-85318842D01*
X57851274Y-85361474D01*
X57911925Y-85397302D01*
X57922567Y-85402480D01*
X57961346Y-85419375D01*
X57996362Y-85429539D01*
X58036392Y-85434955D01*
X58090211Y-85437608D01*
X58108318Y-85438013D01*
X58183681Y-85435170D01*
X58244413Y-85423250D01*
X58296122Y-85400667D01*
X58344416Y-85365841D01*
X58349473Y-85361428D01*
X58397942Y-85305790D01*
X58426129Y-85241963D01*
X58435422Y-85166912D01*
X58428190Y-85095323D01*
X58403466Y-85032275D01*
X58358919Y-84974388D01*
X58303989Y-84927438D01*
X58231564Y-84887591D01*
X58145010Y-84859893D01*
X58042340Y-84843726D01*
X57921564Y-84838472D01*
X57912677Y-84838487D01*
X57857330Y-84839285D01*
X57810406Y-84841118D01*
X57776623Y-84843741D01*
X57760698Y-84846904D01*
X57756613Y-84853371D01*
X57752242Y-84875505D01*
X57749274Y-84914618D01*
X57747584Y-84972569D01*
X57747048Y-85051216D01*
X57747048Y-85247092D01*
X56944566Y-85247092D01*
X56945319Y-85162598D01*
X56946645Y-85006408D01*
X56947898Y-84863642D01*
X56949321Y-84718572D01*
X56950846Y-84592657D01*
X56952603Y-84484066D01*
X56954721Y-84390964D01*
X56957330Y-84311521D01*
X56960560Y-84243903D01*
X56964539Y-84186279D01*
X56969398Y-84136815D01*
X56975267Y-84093680D01*
X56982274Y-84055040D01*
X56990550Y-84019064D01*
X57000224Y-83983919D01*
X57011426Y-83947772D01*
X57024286Y-83908791D01*
X57039760Y-83865721D01*
X57082664Y-83773501D01*
X57136405Y-83693729D01*
X57205246Y-83619595D01*
X57282855Y-83556035D01*
X57387431Y-83494355D01*
X57506914Y-83446832D01*
X57642178Y-83413197D01*
X57794096Y-83393182D01*
X57963542Y-83386519D01*
X58021560Y-83386917D01*
X58087068Y-83388965D01*
X58148363Y-83393334D01*
X58209767Y-83400665D01*
X58275602Y-83411599D01*
X58350190Y-83426777D01*
X58437854Y-83446839D01*
X58542915Y-83472427D01*
X58571476Y-83479450D01*
X58646724Y-83497406D01*
X58717058Y-83513450D01*
X58778237Y-83526658D01*
X58826024Y-83536104D01*
X58856181Y-83540861D01*
X58884453Y-83544540D01*
X58910730Y-83549817D01*
X58920729Y-83554572D01*
X58917622Y-83563411D01*
X58906864Y-83590702D01*
X58889534Y-83633536D01*
X58866796Y-83689055D01*
X58839817Y-83754402D01*
X58809760Y-83826719D01*
X58803163Y-83842509D01*
X58764577Y-83933114D01*
X58733438Y-84002847D01*
X58709587Y-84052035D01*
X58692868Y-84081004D01*
X58683124Y-84090082D01*
X58675436Y-84088035D01*
X58649085Y-84078390D01*
X58610652Y-84062820D01*
X58565492Y-84043445D01*
X58470963Y-84005444D01*
X58334150Y-83964410D01*
X58192959Y-83939242D01*
X58154984Y-83935241D01*
X58051729Y-83933077D01*
X57964622Y-83946252D01*
X57892799Y-83975386D01*
X57835401Y-84021096D01*
X57791566Y-84084002D01*
X57760432Y-84164722D01*
X57741140Y-84263875D01*
X57733720Y-84322854D01*
X57895606Y-84316075D01*
X58022165Y-84314443D01*
X58173621Y-84320824D01*
X58322066Y-84335407D01*
X58458248Y-84357512D01*
X58522915Y-84372451D01*
X58655160Y-84415371D01*
X58777432Y-84471970D01*
X58887355Y-84540647D01*
X58982553Y-84619800D01*
X59060650Y-84707826D01*
X59119269Y-84803123D01*
X59143265Y-84855494D01*
X59168902Y-84926220D01*
X59185148Y-84997442D01*
X59193492Y-85076342D01*
X59195360Y-85166912D01*
X59195425Y-85170097D01*
X59194931Y-85203993D01*
G36*
X56757372Y-86805108D02*
G01*
X56775333Y-86823619D01*
X56795933Y-86854701D01*
X56820765Y-86900386D01*
X56851420Y-86962708D01*
X56889490Y-87043701D01*
X56904124Y-87075084D01*
X56933873Y-87138268D01*
X56959967Y-87192874D01*
X56980962Y-87235920D01*
X56995409Y-87264423D01*
X57001861Y-87275400D01*
X57003220Y-87274819D01*
X57013212Y-87260872D01*
X57030503Y-87231334D01*
X57053100Y-87189717D01*
X57079008Y-87139533D01*
X57094981Y-87108044D01*
X57123931Y-87052691D01*
X57146419Y-87013674D01*
X57164635Y-86988196D01*
X57180766Y-86973461D01*
X57197000Y-86966672D01*
X57215527Y-86965030D01*
X57226030Y-86965505D01*
X57242146Y-86969712D01*
X57257460Y-86980576D01*
X57274058Y-87000849D01*
X57294027Y-87033284D01*
X57319453Y-87080634D01*
X57352422Y-87145652D01*
X57362155Y-87164907D01*
X57386613Y-87211576D01*
X57406848Y-87247739D01*
X57420981Y-87270127D01*
X57427130Y-87275475D01*
X57428497Y-87272203D01*
X57437872Y-87251294D01*
X57454732Y-87214355D01*
X57477649Y-87164504D01*
X57505190Y-87104856D01*
X57535925Y-87038528D01*
X57562640Y-86981307D01*
X57592263Y-86919318D01*
X57615334Y-86873579D01*
X57633313Y-86841538D01*
X57647660Y-86820644D01*
X57659836Y-86808348D01*
X57671302Y-86802096D01*
X57680712Y-86799204D01*
X57705817Y-86799055D01*
X57732960Y-86814398D01*
X57734260Y-86815383D01*
X57756344Y-86838018D01*
X57767393Y-86860243D01*
X57767439Y-86860883D01*
X57762898Y-86878545D01*
X57750034Y-86913111D01*
X57730275Y-86961456D01*
X57705051Y-87020455D01*
X57675789Y-87086985D01*
X57643920Y-87157921D01*
X57610871Y-87230137D01*
X57578071Y-87300510D01*
X57546950Y-87365915D01*
X57518935Y-87423227D01*
X57495456Y-87469322D01*
X57477942Y-87501076D01*
X57467821Y-87515363D01*
X57433413Y-87528732D01*
X57391716Y-87522371D01*
X57386351Y-87517674D01*
X57370522Y-87495523D01*
X57348320Y-87458762D01*
X57321903Y-87411045D01*
X57293430Y-87356023D01*
X57213656Y-87196780D01*
X57140469Y-87343372D01*
X57130773Y-87362662D01*
X57103795Y-87415010D01*
X57079766Y-87459800D01*
X57061002Y-87492784D01*
X57049816Y-87509719D01*
X57048670Y-87510962D01*
X57020549Y-87526249D01*
X56985487Y-87527932D01*
X56954446Y-87515363D01*
X56952020Y-87512514D01*
X56939760Y-87491889D01*
X56920022Y-87454338D01*
X56894118Y-87402510D01*
X56863355Y-87339053D01*
X56829045Y-87266615D01*
X56792495Y-87187846D01*
X56772255Y-87143723D01*
X56735482Y-87062995D01*
X56707025Y-86999317D01*
X56686001Y-86950382D01*
X56671524Y-86913887D01*
X56662709Y-86887525D01*
X56658674Y-86868991D01*
X56658532Y-86855982D01*
X56661400Y-86846191D01*
X56676057Y-86825308D01*
X56702660Y-86805007D01*
X56703415Y-86804665D01*
X56723005Y-86797664D01*
X56740460Y-86797134D01*
X56757372Y-86805108D01*
G37*
X56757372Y-86805108D02*
X56775333Y-86823619D01*
X56795933Y-86854701D01*
X56820765Y-86900386D01*
X56851420Y-86962708D01*
X56889490Y-87043701D01*
X56904124Y-87075084D01*
X56933873Y-87138268D01*
X56959967Y-87192874D01*
X56980962Y-87235920D01*
X56995409Y-87264423D01*
X57001861Y-87275400D01*
X57003220Y-87274819D01*
X57013212Y-87260872D01*
X57030503Y-87231334D01*
X57053100Y-87189717D01*
X57079008Y-87139533D01*
X57094981Y-87108044D01*
X57123931Y-87052691D01*
X57146419Y-87013674D01*
X57164635Y-86988196D01*
X57180766Y-86973461D01*
X57197000Y-86966672D01*
X57215527Y-86965030D01*
X57226030Y-86965505D01*
X57242146Y-86969712D01*
X57257460Y-86980576D01*
X57274058Y-87000849D01*
X57294027Y-87033284D01*
X57319453Y-87080634D01*
X57352422Y-87145652D01*
X57362155Y-87164907D01*
X57386613Y-87211576D01*
X57406848Y-87247739D01*
X57420981Y-87270127D01*
X57427130Y-87275475D01*
X57428497Y-87272203D01*
X57437872Y-87251294D01*
X57454732Y-87214355D01*
X57477649Y-87164504D01*
X57505190Y-87104856D01*
X57535925Y-87038528D01*
X57562640Y-86981307D01*
X57592263Y-86919318D01*
X57615334Y-86873579D01*
X57633313Y-86841538D01*
X57647660Y-86820644D01*
X57659836Y-86808348D01*
X57671302Y-86802096D01*
X57680712Y-86799204D01*
X57705817Y-86799055D01*
X57732960Y-86814398D01*
X57734260Y-86815383D01*
X57756344Y-86838018D01*
X57767393Y-86860243D01*
X57767439Y-86860883D01*
X57762898Y-86878545D01*
X57750034Y-86913111D01*
X57730275Y-86961456D01*
X57705051Y-87020455D01*
X57675789Y-87086985D01*
X57643920Y-87157921D01*
X57610871Y-87230137D01*
X57578071Y-87300510D01*
X57546950Y-87365915D01*
X57518935Y-87423227D01*
X57495456Y-87469322D01*
X57477942Y-87501076D01*
X57467821Y-87515363D01*
X57433413Y-87528732D01*
X57391716Y-87522371D01*
X57386351Y-87517674D01*
X57370522Y-87495523D01*
X57348320Y-87458762D01*
X57321903Y-87411045D01*
X57293430Y-87356023D01*
X57213656Y-87196780D01*
X57140469Y-87343372D01*
X57130773Y-87362662D01*
X57103795Y-87415010D01*
X57079766Y-87459800D01*
X57061002Y-87492784D01*
X57049816Y-87509719D01*
X57048670Y-87510962D01*
X57020549Y-87526249D01*
X56985487Y-87527932D01*
X56954446Y-87515363D01*
X56952020Y-87512514D01*
X56939760Y-87491889D01*
X56920022Y-87454338D01*
X56894118Y-87402510D01*
X56863355Y-87339053D01*
X56829045Y-87266615D01*
X56792495Y-87187846D01*
X56772255Y-87143723D01*
X56735482Y-87062995D01*
X56707025Y-86999317D01*
X56686001Y-86950382D01*
X56671524Y-86913887D01*
X56662709Y-86887525D01*
X56658674Y-86868991D01*
X56658532Y-86855982D01*
X56661400Y-86846191D01*
X56676057Y-86825308D01*
X56702660Y-86805007D01*
X56703415Y-86804665D01*
X56723005Y-86797664D01*
X56740460Y-86797134D01*
X56757372Y-86805108D01*
G36*
X56652938Y-84846788D02*
G01*
X56644359Y-84998224D01*
X56625503Y-85134913D01*
X56595507Y-85260906D01*
X56553506Y-85380255D01*
X56498639Y-85497011D01*
X56431837Y-85607809D01*
X56341033Y-85721369D01*
X56237378Y-85816841D01*
X56121557Y-85893703D01*
X55994256Y-85951427D01*
X55856159Y-85989488D01*
X55818463Y-85995296D01*
X55739422Y-86001026D01*
X55651299Y-86001213D01*
X55561906Y-85996169D01*
X55479054Y-85986208D01*
X55410557Y-85971642D01*
X55379705Y-85961994D01*
X55302400Y-85931753D01*
X55225349Y-85894247D01*
X55155870Y-85853244D01*
X55101285Y-85812509D01*
X55078586Y-85793135D01*
X55055871Y-85775292D01*
X55044449Y-85768408D01*
X55043207Y-85770054D01*
X55040398Y-85787835D01*
X55038446Y-85821000D01*
X55037715Y-85864363D01*
X55037715Y-85960319D01*
X54179566Y-85960319D01*
X54213831Y-85899604D01*
X54219025Y-85890498D01*
X54227385Y-85875879D01*
X54234958Y-85861803D01*
X54241782Y-85847170D01*
X54247897Y-85830879D01*
X54253343Y-85811828D01*
X54258157Y-85788916D01*
X54262378Y-85761043D01*
X54266047Y-85727108D01*
X54269201Y-85686009D01*
X54271881Y-85636645D01*
X54274124Y-85577916D01*
X54275969Y-85508720D01*
X54277457Y-85427956D01*
X54278625Y-85334524D01*
X54279348Y-85247351D01*
X55082870Y-85247351D01*
X55153426Y-85293719D01*
X55194087Y-85317421D01*
X55248216Y-85343269D01*
X55297359Y-85361459D01*
X55360835Y-85377181D01*
X55457001Y-85388171D01*
X55541570Y-85379995D01*
X55614889Y-85352435D01*
X55677307Y-85305272D01*
X55729172Y-85238288D01*
X55770830Y-85151263D01*
X55802632Y-85043980D01*
X55805215Y-85031639D01*
X55813670Y-84970402D01*
X55819333Y-84893322D01*
X55822246Y-84805632D01*
X55822453Y-84712564D01*
X55820000Y-84619350D01*
X55814931Y-84531224D01*
X55807289Y-84453418D01*
X55797118Y-84391163D01*
X55795837Y-84385296D01*
X55766796Y-84274751D01*
X55732280Y-84184205D01*
X55691126Y-84111583D01*
X55642169Y-84054811D01*
X55584244Y-84011814D01*
X55552290Y-83996245D01*
X55479454Y-83977352D01*
X55398113Y-83974095D01*
X55312989Y-83986019D01*
X55228803Y-84012670D01*
X55150278Y-84053592D01*
X55082870Y-84097160D01*
X55082870Y-85247351D01*
X54279348Y-85247351D01*
X54279514Y-85227322D01*
X54280161Y-85105250D01*
X54280606Y-84967206D01*
X54280888Y-84812089D01*
X54281045Y-84638798D01*
X54281118Y-84446233D01*
X54281144Y-84233292D01*
X54281163Y-83998875D01*
X54281359Y-82314008D01*
X55186687Y-82314008D01*
X55162255Y-82350697D01*
X55155988Y-82360277D01*
X55129878Y-82406611D01*
X55112139Y-82453732D01*
X55100578Y-82508881D01*
X55093001Y-82579297D01*
X55092509Y-82586280D01*
X55090732Y-82624271D01*
X55089114Y-82678206D01*
X55087669Y-82745333D01*
X55086410Y-82822901D01*
X55085350Y-82908158D01*
X55084499Y-82998354D01*
X55083873Y-83090737D01*
X55083482Y-83182555D01*
X55083340Y-83271057D01*
X55083460Y-83353492D01*
X55083853Y-83427109D01*
X55084532Y-83489156D01*
X55085511Y-83536881D01*
X55086802Y-83567534D01*
X55088417Y-83578363D01*
X55096627Y-83573963D01*
X55118317Y-83558992D01*
X55147684Y-83537078D01*
X55196549Y-83502866D01*
X55284795Y-83456344D01*
X55383586Y-83422676D01*
X55496180Y-83400861D01*
X55625834Y-83389895D01*
X55718340Y-83388849D01*
X55839681Y-83398644D01*
X55949769Y-83422804D01*
X56053059Y-83462415D01*
X56154008Y-83518562D01*
X56199173Y-83549513D01*
X56304581Y-83640745D01*
X56396208Y-83749736D01*
X56474002Y-83876356D01*
X56537911Y-84020475D01*
X56587884Y-84181962D01*
X56623868Y-84360689D01*
X56645813Y-84556525D01*
X56651570Y-84712564D01*
X56653664Y-84769341D01*
X56652938Y-84846788D01*
G37*
X56652938Y-84846788D02*
X56644359Y-84998224D01*
X56625503Y-85134913D01*
X56595507Y-85260906D01*
X56553506Y-85380255D01*
X56498639Y-85497011D01*
X56431837Y-85607809D01*
X56341033Y-85721369D01*
X56237378Y-85816841D01*
X56121557Y-85893703D01*
X55994256Y-85951427D01*
X55856159Y-85989488D01*
X55818463Y-85995296D01*
X55739422Y-86001026D01*
X55651299Y-86001213D01*
X55561906Y-85996169D01*
X55479054Y-85986208D01*
X55410557Y-85971642D01*
X55379705Y-85961994D01*
X55302400Y-85931753D01*
X55225349Y-85894247D01*
X55155870Y-85853244D01*
X55101285Y-85812509D01*
X55078586Y-85793135D01*
X55055871Y-85775292D01*
X55044449Y-85768408D01*
X55043207Y-85770054D01*
X55040398Y-85787835D01*
X55038446Y-85821000D01*
X55037715Y-85864363D01*
X55037715Y-85960319D01*
X54179566Y-85960319D01*
X54213831Y-85899604D01*
X54219025Y-85890498D01*
X54227385Y-85875879D01*
X54234958Y-85861803D01*
X54241782Y-85847170D01*
X54247897Y-85830879D01*
X54253343Y-85811828D01*
X54258157Y-85788916D01*
X54262378Y-85761043D01*
X54266047Y-85727108D01*
X54269201Y-85686009D01*
X54271881Y-85636645D01*
X54274124Y-85577916D01*
X54275969Y-85508720D01*
X54277457Y-85427956D01*
X54278625Y-85334524D01*
X54279348Y-85247351D01*
X55082870Y-85247351D01*
X55153426Y-85293719D01*
X55194087Y-85317421D01*
X55248216Y-85343269D01*
X55297359Y-85361459D01*
X55360835Y-85377181D01*
X55457001Y-85388171D01*
X55541570Y-85379995D01*
X55614889Y-85352435D01*
X55677307Y-85305272D01*
X55729172Y-85238288D01*
X55770830Y-85151263D01*
X55802632Y-85043980D01*
X55805215Y-85031639D01*
X55813670Y-84970402D01*
X55819333Y-84893322D01*
X55822246Y-84805632D01*
X55822453Y-84712564D01*
X55820000Y-84619350D01*
X55814931Y-84531224D01*
X55807289Y-84453418D01*
X55797118Y-84391163D01*
X55795837Y-84385296D01*
X55766796Y-84274751D01*
X55732280Y-84184205D01*
X55691126Y-84111583D01*
X55642169Y-84054811D01*
X55584244Y-84011814D01*
X55552290Y-83996245D01*
X55479454Y-83977352D01*
X55398113Y-83974095D01*
X55312989Y-83986019D01*
X55228803Y-84012670D01*
X55150278Y-84053592D01*
X55082870Y-84097160D01*
X55082870Y-85247351D01*
X54279348Y-85247351D01*
X54279514Y-85227322D01*
X54280161Y-85105250D01*
X54280606Y-84967206D01*
X54280888Y-84812089D01*
X54281045Y-84638798D01*
X54281118Y-84446233D01*
X54281144Y-84233292D01*
X54281163Y-83998875D01*
X54281359Y-82314008D01*
X55186687Y-82314008D01*
X55162255Y-82350697D01*
X55155988Y-82360277D01*
X55129878Y-82406611D01*
X55112139Y-82453732D01*
X55100578Y-82508881D01*
X55093001Y-82579297D01*
X55092509Y-82586280D01*
X55090732Y-82624271D01*
X55089114Y-82678206D01*
X55087669Y-82745333D01*
X55086410Y-82822901D01*
X55085350Y-82908158D01*
X55084499Y-82998354D01*
X55083873Y-83090737D01*
X55083482Y-83182555D01*
X55083340Y-83271057D01*
X55083460Y-83353492D01*
X55083853Y-83427109D01*
X55084532Y-83489156D01*
X55085511Y-83536881D01*
X55086802Y-83567534D01*
X55088417Y-83578363D01*
X55096627Y-83573963D01*
X55118317Y-83558992D01*
X55147684Y-83537078D01*
X55196549Y-83502866D01*
X55284795Y-83456344D01*
X55383586Y-83422676D01*
X55496180Y-83400861D01*
X55625834Y-83389895D01*
X55718340Y-83388849D01*
X55839681Y-83398644D01*
X55949769Y-83422804D01*
X56053059Y-83462415D01*
X56154008Y-83518562D01*
X56199173Y-83549513D01*
X56304581Y-83640745D01*
X56396208Y-83749736D01*
X56474002Y-83876356D01*
X56537911Y-84020475D01*
X56587884Y-84181962D01*
X56623868Y-84360689D01*
X56645813Y-84556525D01*
X56651570Y-84712564D01*
X56653664Y-84769341D01*
X56652938Y-84846788D01*
G36*
X62596820Y-86800809D02*
G01*
X62702827Y-86817124D01*
X62796639Y-86845175D01*
X62875435Y-86884082D01*
X62936389Y-86932964D01*
X62962459Y-86965825D01*
X62991967Y-87015024D01*
X63017238Y-87068882D01*
X63034888Y-87120049D01*
X63041528Y-87161174D01*
X63039968Y-87180889D01*
X63027027Y-87232222D01*
X63003864Y-87288748D01*
X62973972Y-87342665D01*
X62940843Y-87386169D01*
X62930647Y-87396517D01*
X62863562Y-87448292D01*
X62783436Y-87488184D01*
X62697226Y-87512586D01*
X62642262Y-87520698D01*
X62548809Y-87527303D01*
X62459028Y-87525216D01*
X62376539Y-87514970D01*
X62304956Y-87497100D01*
X62247898Y-87472138D01*
X62208981Y-87440618D01*
X62207606Y-87438642D01*
X62200518Y-87413416D01*
X62196279Y-87366165D01*
X62194870Y-87296701D01*
X62195730Y-87234468D01*
X62200450Y-87187086D01*
X62212140Y-87154983D01*
X62233909Y-87135430D01*
X62268868Y-87125700D01*
X62320126Y-87123063D01*
X62390793Y-87124791D01*
X62439413Y-87127803D01*
X62489609Y-87135996D01*
X62522103Y-87150049D01*
X62539562Y-87171284D01*
X62544653Y-87201024D01*
X62544547Y-87205566D01*
X62535845Y-87240360D01*
X62511835Y-87263777D01*
X62470570Y-87276977D01*
X62410101Y-87281119D01*
X62341626Y-87281119D01*
X62341626Y-87319471D01*
X62341676Y-87328606D01*
X62343897Y-87345857D01*
X62353164Y-87356151D01*
X62374545Y-87363089D01*
X62413106Y-87370271D01*
X62418580Y-87371205D01*
X62515530Y-87381108D01*
X62605522Y-87378189D01*
X62686430Y-87363459D01*
X62756129Y-87337929D01*
X62812494Y-87302608D01*
X62853399Y-87258509D01*
X62876721Y-87206642D01*
X62880333Y-87148018D01*
X62874815Y-87119124D01*
X62848131Y-87063234D01*
X62801943Y-87017575D01*
X62736961Y-86982738D01*
X62653899Y-86959320D01*
X62629225Y-86954871D01*
X62539896Y-86944372D01*
X62460089Y-86945601D01*
X62381996Y-86958536D01*
X62346853Y-86965326D01*
X62301415Y-86966343D01*
X62270100Y-86953812D01*
X62249947Y-86927025D01*
X62243563Y-86898778D01*
X62253049Y-86867554D01*
X62262378Y-86854129D01*
X62296613Y-86830597D01*
X62349235Y-86812725D01*
X62417751Y-86801229D01*
X62499670Y-86796822D01*
X62596820Y-86800809D01*
G37*
X62596820Y-86800809D02*
X62702827Y-86817124D01*
X62796639Y-86845175D01*
X62875435Y-86884082D01*
X62936389Y-86932964D01*
X62962459Y-86965825D01*
X62991967Y-87015024D01*
X63017238Y-87068882D01*
X63034888Y-87120049D01*
X63041528Y-87161174D01*
X63039968Y-87180889D01*
X63027027Y-87232222D01*
X63003864Y-87288748D01*
X62973972Y-87342665D01*
X62940843Y-87386169D01*
X62930647Y-87396517D01*
X62863562Y-87448292D01*
X62783436Y-87488184D01*
X62697226Y-87512586D01*
X62642262Y-87520698D01*
X62548809Y-87527303D01*
X62459028Y-87525216D01*
X62376539Y-87514970D01*
X62304956Y-87497100D01*
X62247898Y-87472138D01*
X62208981Y-87440618D01*
X62207606Y-87438642D01*
X62200518Y-87413416D01*
X62196279Y-87366165D01*
X62194870Y-87296701D01*
X62195730Y-87234468D01*
X62200450Y-87187086D01*
X62212140Y-87154983D01*
X62233909Y-87135430D01*
X62268868Y-87125700D01*
X62320126Y-87123063D01*
X62390793Y-87124791D01*
X62439413Y-87127803D01*
X62489609Y-87135996D01*
X62522103Y-87150049D01*
X62539562Y-87171284D01*
X62544653Y-87201024D01*
X62544547Y-87205566D01*
X62535845Y-87240360D01*
X62511835Y-87263777D01*
X62470570Y-87276977D01*
X62410101Y-87281119D01*
X62341626Y-87281119D01*
X62341626Y-87319471D01*
X62341676Y-87328606D01*
X62343897Y-87345857D01*
X62353164Y-87356151D01*
X62374545Y-87363089D01*
X62413106Y-87370271D01*
X62418580Y-87371205D01*
X62515530Y-87381108D01*
X62605522Y-87378189D01*
X62686430Y-87363459D01*
X62756129Y-87337929D01*
X62812494Y-87302608D01*
X62853399Y-87258509D01*
X62876721Y-87206642D01*
X62880333Y-87148018D01*
X62874815Y-87119124D01*
X62848131Y-87063234D01*
X62801943Y-87017575D01*
X62736961Y-86982738D01*
X62653899Y-86959320D01*
X62629225Y-86954871D01*
X62539896Y-86944372D01*
X62460089Y-86945601D01*
X62381996Y-86958536D01*
X62346853Y-86965326D01*
X62301415Y-86966343D01*
X62270100Y-86953812D01*
X62249947Y-86927025D01*
X62243563Y-86898778D01*
X62253049Y-86867554D01*
X62262378Y-86854129D01*
X62296613Y-86830597D01*
X62349235Y-86812725D01*
X62417751Y-86801229D01*
X62499670Y-86796822D01*
X62596820Y-86800809D01*
G36*
X62922232Y-81559480D02*
G01*
X63004983Y-81586683D01*
X63080076Y-81632114D01*
X63151968Y-81697932D01*
X63190516Y-81742197D01*
X63229926Y-81800591D01*
X63255116Y-81861216D01*
X63268531Y-81930495D01*
X63272618Y-82014852D01*
X63272339Y-82060937D01*
X63270130Y-82102080D01*
X63264564Y-82134212D01*
X63254256Y-82164752D01*
X63237818Y-82201119D01*
X63223870Y-82228358D01*
X63165335Y-82314059D01*
X63093289Y-82383247D01*
X63009617Y-82434371D01*
X62916201Y-82465880D01*
X62883104Y-82472855D01*
X62842630Y-82479724D01*
X62809669Y-82481549D01*
X62775368Y-82478577D01*
X62730870Y-82471056D01*
X62679604Y-82458632D01*
X62589104Y-82420742D01*
X62510015Y-82366466D01*
X62444198Y-82298400D01*
X62393510Y-82219141D01*
X62359810Y-82131284D01*
X62344956Y-82037425D01*
X62350806Y-81940160D01*
X62377069Y-81843850D01*
X62422088Y-81755124D01*
X62483043Y-81680049D01*
X62557854Y-81620271D01*
X62644438Y-81577439D01*
X62740713Y-81553201D01*
X62844598Y-81549206D01*
X62922232Y-81559480D01*
G37*
X62922232Y-81559480D02*
X63004983Y-81586683D01*
X63080076Y-81632114D01*
X63151968Y-81697932D01*
X63190516Y-81742197D01*
X63229926Y-81800591D01*
X63255116Y-81861216D01*
X63268531Y-81930495D01*
X63272618Y-82014852D01*
X63272339Y-82060937D01*
X63270130Y-82102080D01*
X63264564Y-82134212D01*
X63254256Y-82164752D01*
X63237818Y-82201119D01*
X63223870Y-82228358D01*
X63165335Y-82314059D01*
X63093289Y-82383247D01*
X63009617Y-82434371D01*
X62916201Y-82465880D01*
X62883104Y-82472855D01*
X62842630Y-82479724D01*
X62809669Y-82481549D01*
X62775368Y-82478577D01*
X62730870Y-82471056D01*
X62679604Y-82458632D01*
X62589104Y-82420742D01*
X62510015Y-82366466D01*
X62444198Y-82298400D01*
X62393510Y-82219141D01*
X62359810Y-82131284D01*
X62344956Y-82037425D01*
X62350806Y-81940160D01*
X62377069Y-81843850D01*
X62422088Y-81755124D01*
X62483043Y-81680049D01*
X62557854Y-81620271D01*
X62644438Y-81577439D01*
X62740713Y-81553201D01*
X62844598Y-81549206D01*
X62922232Y-81559480D01*
G36*
X54947404Y-86818275D02*
G01*
X54953036Y-86824465D01*
X54958126Y-86832671D01*
X54962213Y-86844447D01*
X54965391Y-86861906D01*
X54967757Y-86887160D01*
X54969408Y-86922320D01*
X54970439Y-86969499D01*
X54970947Y-87030807D01*
X54971029Y-87108357D01*
X54970779Y-87204261D01*
X54970295Y-87320630D01*
X54970227Y-87334805D01*
X54969641Y-87396567D01*
X54968318Y-87440250D01*
X54965773Y-87469631D01*
X54961518Y-87488485D01*
X54955066Y-87500589D01*
X54945932Y-87509719D01*
X54912474Y-87527136D01*
X54877526Y-87524234D01*
X54846623Y-87499730D01*
X54837614Y-87486527D01*
X54830162Y-87467991D01*
X54825794Y-87441963D01*
X54823739Y-87403417D01*
X54823226Y-87347330D01*
X54823226Y-87224675D01*
X54326515Y-87224675D01*
X54326515Y-87359501D01*
X54326442Y-87395292D01*
X54325679Y-87441622D01*
X54323503Y-87472156D01*
X54319206Y-87491187D01*
X54312082Y-87503004D01*
X54301425Y-87511901D01*
X54269174Y-87526971D01*
X54233887Y-87524303D01*
X54203156Y-87499730D01*
X54198501Y-87493475D01*
X54192565Y-87482951D01*
X54188034Y-87469021D01*
X54184718Y-87448947D01*
X54182429Y-87419990D01*
X54180978Y-87379410D01*
X54180175Y-87324470D01*
X54179832Y-87252429D01*
X54179759Y-87160550D01*
X54179759Y-86851115D01*
X54207468Y-86823406D01*
X54238847Y-86801163D01*
X54272076Y-86798474D01*
X54303937Y-86818275D01*
X54312223Y-86828045D01*
X54319635Y-86843937D01*
X54323972Y-86867905D01*
X54326008Y-86904778D01*
X54326515Y-86959386D01*
X54326515Y-87077919D01*
X54823226Y-87077919D01*
X54823226Y-86962406D01*
X54823664Y-86910708D01*
X54825628Y-86876184D01*
X54830144Y-86853608D01*
X54838237Y-86837756D01*
X54850935Y-86823406D01*
X54882313Y-86801163D01*
X54915542Y-86798474D01*
X54947404Y-86818275D01*
G37*
X54947404Y-86818275D02*
X54953036Y-86824465D01*
X54958126Y-86832671D01*
X54962213Y-86844447D01*
X54965391Y-86861906D01*
X54967757Y-86887160D01*
X54969408Y-86922320D01*
X54970439Y-86969499D01*
X54970947Y-87030807D01*
X54971029Y-87108357D01*
X54970779Y-87204261D01*
X54970295Y-87320630D01*
X54970227Y-87334805D01*
X54969641Y-87396567D01*
X54968318Y-87440250D01*
X54965773Y-87469631D01*
X54961518Y-87488485D01*
X54955066Y-87500589D01*
X54945932Y-87509719D01*
X54912474Y-87527136D01*
X54877526Y-87524234D01*
X54846623Y-87499730D01*
X54837614Y-87486527D01*
X54830162Y-87467991D01*
X54825794Y-87441963D01*
X54823739Y-87403417D01*
X54823226Y-87347330D01*
X54823226Y-87224675D01*
X54326515Y-87224675D01*
X54326515Y-87359501D01*
X54326442Y-87395292D01*
X54325679Y-87441622D01*
X54323503Y-87472156D01*
X54319206Y-87491187D01*
X54312082Y-87503004D01*
X54301425Y-87511901D01*
X54269174Y-87526971D01*
X54233887Y-87524303D01*
X54203156Y-87499730D01*
X54198501Y-87493475D01*
X54192565Y-87482951D01*
X54188034Y-87469021D01*
X54184718Y-87448947D01*
X54182429Y-87419990D01*
X54180978Y-87379410D01*
X54180175Y-87324470D01*
X54179832Y-87252429D01*
X54179759Y-87160550D01*
X54179759Y-86851115D01*
X54207468Y-86823406D01*
X54238847Y-86801163D01*
X54272076Y-86798474D01*
X54303937Y-86818275D01*
X54312223Y-86828045D01*
X54319635Y-86843937D01*
X54323972Y-86867905D01*
X54326008Y-86904778D01*
X54326515Y-86959386D01*
X54326515Y-87077919D01*
X54823226Y-87077919D01*
X54823226Y-86962406D01*
X54823664Y-86910708D01*
X54825628Y-86876184D01*
X54830144Y-86853608D01*
X54838237Y-86837756D01*
X54850935Y-86823406D01*
X54882313Y-86801163D01*
X54915542Y-86798474D01*
X54947404Y-86818275D01*
G36*
X56323076Y-86801579D02*
G01*
X56348797Y-86817277D01*
X56375448Y-86838857D01*
X56375448Y-87486314D01*
X56348797Y-87507894D01*
X56317437Y-87525369D01*
X56281636Y-87526205D01*
X56250198Y-87505712D01*
X56246322Y-87501046D01*
X56240856Y-87491579D01*
X56236649Y-87477897D01*
X56233537Y-87457378D01*
X56231357Y-87427398D01*
X56229946Y-87385334D01*
X56229141Y-87328562D01*
X56228777Y-87254460D01*
X56228692Y-87160403D01*
X56228692Y-86838857D01*
X56255343Y-86817277D01*
X56279056Y-86802507D01*
X56302070Y-86795697D01*
X56323076Y-86801579D01*
G37*
X56323076Y-86801579D02*
X56348797Y-86817277D01*
X56375448Y-86838857D01*
X56375448Y-87486314D01*
X56348797Y-87507894D01*
X56317437Y-87525369D01*
X56281636Y-87526205D01*
X56250198Y-87505712D01*
X56246322Y-87501046D01*
X56240856Y-87491579D01*
X56236649Y-87477897D01*
X56233537Y-87457378D01*
X56231357Y-87427398D01*
X56229946Y-87385334D01*
X56229141Y-87328562D01*
X56228777Y-87254460D01*
X56228692Y-87160403D01*
X56228692Y-86838857D01*
X56255343Y-86817277D01*
X56279056Y-86802507D01*
X56302070Y-86795697D01*
X56323076Y-86801579D01*
G36*
X66744540Y-87061671D02*
G01*
X66744292Y-87162586D01*
X66744253Y-87238247D01*
X66743998Y-87316156D01*
X66743354Y-87376166D01*
X66742150Y-87420894D01*
X66740213Y-87452956D01*
X66737373Y-87474970D01*
X66733458Y-87489554D01*
X66728296Y-87499324D01*
X66721715Y-87506897D01*
X66714747Y-87513131D01*
X66701749Y-87520431D01*
X66682601Y-87525184D01*
X66653198Y-87527922D01*
X66609432Y-87529175D01*
X66547198Y-87529475D01*
X66498252Y-87529099D01*
X66391392Y-87524671D01*
X66302164Y-87514583D01*
X66227366Y-87497995D01*
X66163795Y-87474065D01*
X66108249Y-87441951D01*
X66057524Y-87400812D01*
X66051536Y-87394960D01*
X66014669Y-87346451D01*
X65983569Y-87285643D01*
X65962087Y-87221399D01*
X65956806Y-87182656D01*
X66104023Y-87182656D01*
X66122305Y-87233591D01*
X66151975Y-87279508D01*
X66198672Y-87321917D01*
X66260062Y-87351720D01*
X66339208Y-87370856D01*
X66340698Y-87371094D01*
X66389669Y-87376886D01*
X66448363Y-87381026D01*
X66504404Y-87382634D01*
X66597537Y-87382719D01*
X66597537Y-86942452D01*
X66521337Y-86942438D01*
X66518309Y-86942447D01*
X66467189Y-86944412D01*
X66407086Y-86949137D01*
X66350378Y-86955665D01*
X66300420Y-86964961D01*
X66225668Y-86991230D01*
X66168159Y-87030529D01*
X66126658Y-87083563D01*
X66105441Y-87134830D01*
X66104023Y-87182656D01*
X65956806Y-87182656D01*
X65954070Y-87162586D01*
X65955349Y-87141369D01*
X65967661Y-87083953D01*
X65990190Y-87024043D01*
X66019420Y-86969993D01*
X66051837Y-86930162D01*
X66071378Y-86913140D01*
X66126090Y-86873952D01*
X66186393Y-86843823D01*
X66255589Y-86821862D01*
X66336981Y-86807180D01*
X66433870Y-86798889D01*
X66549559Y-86796097D01*
X66589041Y-86795696D01*
X66634752Y-86795283D01*
X66670553Y-86797087D01*
X66697644Y-86803369D01*
X66717226Y-86816389D01*
X66730500Y-86838408D01*
X66738668Y-86871685D01*
X66742930Y-86918481D01*
X66743527Y-86942452D01*
X66744487Y-86981057D01*
X66744540Y-87061671D01*
G37*
X66744540Y-87061671D02*
X66744292Y-87162586D01*
X66744253Y-87238247D01*
X66743998Y-87316156D01*
X66743354Y-87376166D01*
X66742150Y-87420894D01*
X66740213Y-87452956D01*
X66737373Y-87474970D01*
X66733458Y-87489554D01*
X66728296Y-87499324D01*
X66721715Y-87506897D01*
X66714747Y-87513131D01*
X66701749Y-87520431D01*
X66682601Y-87525184D01*
X66653198Y-87527922D01*
X66609432Y-87529175D01*
X66547198Y-87529475D01*
X66498252Y-87529099D01*
X66391392Y-87524671D01*
X66302164Y-87514583D01*
X66227366Y-87497995D01*
X66163795Y-87474065D01*
X66108249Y-87441951D01*
X66057524Y-87400812D01*
X66051536Y-87394960D01*
X66014669Y-87346451D01*
X65983569Y-87285643D01*
X65962087Y-87221399D01*
X65956806Y-87182656D01*
X66104023Y-87182656D01*
X66122305Y-87233591D01*
X66151975Y-87279508D01*
X66198672Y-87321917D01*
X66260062Y-87351720D01*
X66339208Y-87370856D01*
X66340698Y-87371094D01*
X66389669Y-87376886D01*
X66448363Y-87381026D01*
X66504404Y-87382634D01*
X66597537Y-87382719D01*
X66597537Y-86942452D01*
X66521337Y-86942438D01*
X66518309Y-86942447D01*
X66467189Y-86944412D01*
X66407086Y-86949137D01*
X66350378Y-86955665D01*
X66300420Y-86964961D01*
X66225668Y-86991230D01*
X66168159Y-87030529D01*
X66126658Y-87083563D01*
X66105441Y-87134830D01*
X66104023Y-87182656D01*
X65956806Y-87182656D01*
X65954070Y-87162586D01*
X65955349Y-87141369D01*
X65967661Y-87083953D01*
X65990190Y-87024043D01*
X66019420Y-86969993D01*
X66051837Y-86930162D01*
X66071378Y-86913140D01*
X66126090Y-86873952D01*
X66186393Y-86843823D01*
X66255589Y-86821862D01*
X66336981Y-86807180D01*
X66433870Y-86798889D01*
X66549559Y-86796097D01*
X66589041Y-86795696D01*
X66634752Y-86795283D01*
X66670553Y-86797087D01*
X66697644Y-86803369D01*
X66717226Y-86816389D01*
X66730500Y-86838408D01*
X66738668Y-86871685D01*
X66742930Y-86918481D01*
X66743527Y-86942452D01*
X66744487Y-86981057D01*
X66744540Y-87061671D01*
G36*
X60456381Y-82488663D02*
G01*
X60551938Y-82506153D01*
X60716228Y-82551194D01*
X60870259Y-82614286D01*
X61016179Y-82696545D01*
X61156136Y-82799087D01*
X61292278Y-82923029D01*
X61336143Y-82968291D01*
X61448428Y-83100495D01*
X61541642Y-83238462D01*
X61618389Y-83386380D01*
X61681273Y-83548433D01*
X61685090Y-83560021D01*
X61735177Y-83746022D01*
X61768569Y-83942151D01*
X61785254Y-84144198D01*
X61785221Y-84347955D01*
X61768461Y-84549211D01*
X61734962Y-84743758D01*
X61684714Y-84927386D01*
X61640860Y-85044683D01*
X61563018Y-85207581D01*
X61469498Y-85361496D01*
X61362492Y-85503301D01*
X61244189Y-85629869D01*
X61116781Y-85738071D01*
X61039276Y-85790750D01*
X60912395Y-85860380D01*
X60774913Y-85919098D01*
X60633386Y-85964217D01*
X60494372Y-85993052D01*
X60480267Y-85994736D01*
X60436823Y-85998064D01*
X60379393Y-86000905D01*
X60313792Y-86003003D01*
X60245837Y-86004098D01*
X60119048Y-86001770D01*
X59971343Y-85988766D01*
X59833449Y-85963763D01*
X59699684Y-85925948D01*
X59676232Y-85917519D01*
X59628282Y-85898038D01*
X59571810Y-85873103D01*
X59510049Y-85844352D01*
X59446233Y-85813420D01*
X59383596Y-85781945D01*
X59325373Y-85751564D01*
X59274797Y-85723913D01*
X59235103Y-85700629D01*
X59209524Y-85683348D01*
X59201295Y-85673709D01*
X59202746Y-85670614D01*
X59213920Y-85650709D01*
X59234804Y-85615050D01*
X59263935Y-85566089D01*
X59299851Y-85506276D01*
X59341090Y-85438063D01*
X59386187Y-85363901D01*
X59567455Y-85066638D01*
X59613985Y-85111169D01*
X59705393Y-85189495D01*
X59819004Y-85264069D01*
X59936792Y-85318104D01*
X60057229Y-85350920D01*
X60178787Y-85361841D01*
X60220255Y-85360498D01*
X60337750Y-85342242D01*
X60447759Y-85303247D01*
X60549100Y-85244300D01*
X60640591Y-85166187D01*
X60721050Y-85069694D01*
X60789297Y-84955608D01*
X60805578Y-84921354D01*
X60851652Y-84797870D01*
X60886776Y-84659548D01*
X60910867Y-84510191D01*
X60923843Y-84353603D01*
X60925619Y-84193586D01*
X60916113Y-84033944D01*
X60895242Y-83878480D01*
X60862922Y-83730996D01*
X60819069Y-83595297D01*
X60781652Y-83508706D01*
X60716855Y-83395318D01*
X60641442Y-83301700D01*
X60555088Y-83227589D01*
X60457465Y-83172724D01*
X60348247Y-83136842D01*
X60227109Y-83119681D01*
X60157708Y-83118510D01*
X60034838Y-83132771D01*
X59919334Y-83167871D01*
X59812623Y-83223312D01*
X59716134Y-83298594D01*
X59700390Y-83313070D01*
X59669820Y-83339592D01*
X59647479Y-83356768D01*
X59637361Y-83361417D01*
X59635376Y-83359227D01*
X59620911Y-83340351D01*
X59597070Y-83307027D01*
X59565699Y-83262010D01*
X59528644Y-83208055D01*
X59487753Y-83147915D01*
X59444872Y-83084348D01*
X59401848Y-83020106D01*
X59360527Y-82957945D01*
X59322756Y-82900621D01*
X59290382Y-82850887D01*
X59265252Y-82811498D01*
X59249212Y-82785210D01*
X59244109Y-82774777D01*
X59248720Y-82770571D01*
X59267937Y-82765563D01*
X59277508Y-82763016D01*
X59305479Y-82751879D01*
X59347118Y-82733432D01*
X59398665Y-82709355D01*
X59456360Y-82681329D01*
X59467627Y-82675784D01*
X59645357Y-82596519D01*
X59815160Y-82537015D01*
X59979100Y-82496875D01*
X60139241Y-82475701D01*
X60297647Y-82473096D01*
X60456381Y-82488663D01*
G37*
X60456381Y-82488663D02*
X60551938Y-82506153D01*
X60716228Y-82551194D01*
X60870259Y-82614286D01*
X61016179Y-82696545D01*
X61156136Y-82799087D01*
X61292278Y-82923029D01*
X61336143Y-82968291D01*
X61448428Y-83100495D01*
X61541642Y-83238462D01*
X61618389Y-83386380D01*
X61681273Y-83548433D01*
X61685090Y-83560021D01*
X61735177Y-83746022D01*
X61768569Y-83942151D01*
X61785254Y-84144198D01*
X61785221Y-84347955D01*
X61768461Y-84549211D01*
X61734962Y-84743758D01*
X61684714Y-84927386D01*
X61640860Y-85044683D01*
X61563018Y-85207581D01*
X61469498Y-85361496D01*
X61362492Y-85503301D01*
X61244189Y-85629869D01*
X61116781Y-85738071D01*
X61039276Y-85790750D01*
X60912395Y-85860380D01*
X60774913Y-85919098D01*
X60633386Y-85964217D01*
X60494372Y-85993052D01*
X60480267Y-85994736D01*
X60436823Y-85998064D01*
X60379393Y-86000905D01*
X60313792Y-86003003D01*
X60245837Y-86004098D01*
X60119048Y-86001770D01*
X59971343Y-85988766D01*
X59833449Y-85963763D01*
X59699684Y-85925948D01*
X59676232Y-85917519D01*
X59628282Y-85898038D01*
X59571810Y-85873103D01*
X59510049Y-85844352D01*
X59446233Y-85813420D01*
X59383596Y-85781945D01*
X59325373Y-85751564D01*
X59274797Y-85723913D01*
X59235103Y-85700629D01*
X59209524Y-85683348D01*
X59201295Y-85673709D01*
X59202746Y-85670614D01*
X59213920Y-85650709D01*
X59234804Y-85615050D01*
X59263935Y-85566089D01*
X59299851Y-85506276D01*
X59341090Y-85438063D01*
X59386187Y-85363901D01*
X59567455Y-85066638D01*
X59613985Y-85111169D01*
X59705393Y-85189495D01*
X59819004Y-85264069D01*
X59936792Y-85318104D01*
X60057229Y-85350920D01*
X60178787Y-85361841D01*
X60220255Y-85360498D01*
X60337750Y-85342242D01*
X60447759Y-85303247D01*
X60549100Y-85244300D01*
X60640591Y-85166187D01*
X60721050Y-85069694D01*
X60789297Y-84955608D01*
X60805578Y-84921354D01*
X60851652Y-84797870D01*
X60886776Y-84659548D01*
X60910867Y-84510191D01*
X60923843Y-84353603D01*
X60925619Y-84193586D01*
X60916113Y-84033944D01*
X60895242Y-83878480D01*
X60862922Y-83730996D01*
X60819069Y-83595297D01*
X60781652Y-83508706D01*
X60716855Y-83395318D01*
X60641442Y-83301700D01*
X60555088Y-83227589D01*
X60457465Y-83172724D01*
X60348247Y-83136842D01*
X60227109Y-83119681D01*
X60157708Y-83118510D01*
X60034838Y-83132771D01*
X59919334Y-83167871D01*
X59812623Y-83223312D01*
X59716134Y-83298594D01*
X59700390Y-83313070D01*
X59669820Y-83339592D01*
X59647479Y-83356768D01*
X59637361Y-83361417D01*
X59635376Y-83359227D01*
X59620911Y-83340351D01*
X59597070Y-83307027D01*
X59565699Y-83262010D01*
X59528644Y-83208055D01*
X59487753Y-83147915D01*
X59444872Y-83084348D01*
X59401848Y-83020106D01*
X59360527Y-82957945D01*
X59322756Y-82900621D01*
X59290382Y-82850887D01*
X59265252Y-82811498D01*
X59249212Y-82785210D01*
X59244109Y-82774777D01*
X59248720Y-82770571D01*
X59267937Y-82765563D01*
X59277508Y-82763016D01*
X59305479Y-82751879D01*
X59347118Y-82733432D01*
X59398665Y-82709355D01*
X59456360Y-82681329D01*
X59467627Y-82675784D01*
X59645357Y-82596519D01*
X59815160Y-82537015D01*
X59979100Y-82496875D01*
X60139241Y-82475701D01*
X60297647Y-82473096D01*
X60456381Y-82488663D01*
G36*
X61799563Y-86794522D02*
G01*
X61810971Y-86800659D01*
X61821520Y-86811321D01*
X61832806Y-86825441D01*
X61837259Y-86831402D01*
X61843258Y-86841898D01*
X61847837Y-86855723D01*
X61851189Y-86875628D01*
X61853503Y-86904362D01*
X61854971Y-86944675D01*
X61855783Y-86999317D01*
X61856130Y-87071037D01*
X61856204Y-87162586D01*
X61856181Y-87221116D01*
X61855962Y-87300203D01*
X61855353Y-87361146D01*
X61854162Y-87406692D01*
X61852199Y-87439593D01*
X61849273Y-87462598D01*
X61845193Y-87478456D01*
X61839767Y-87489916D01*
X61832806Y-87499730D01*
X61802378Y-87524123D01*
X61767435Y-87527002D01*
X61730454Y-87507912D01*
X61726270Y-87504437D01*
X61718094Y-87495909D01*
X61712034Y-87484358D01*
X61707651Y-87466526D01*
X61704509Y-87439154D01*
X61702172Y-87398984D01*
X61700201Y-87342758D01*
X61698159Y-87267219D01*
X61692515Y-87048088D01*
X61427226Y-87288729D01*
X61353392Y-87355505D01*
X61288212Y-87413621D01*
X61236018Y-87458579D01*
X61194943Y-87491501D01*
X61163125Y-87513509D01*
X61138696Y-87525724D01*
X61119794Y-87529269D01*
X61104553Y-87525266D01*
X61091109Y-87514837D01*
X61077597Y-87499104D01*
X61071352Y-87490621D01*
X61065720Y-87480043D01*
X61061509Y-87465885D01*
X61058557Y-87445433D01*
X61056702Y-87415972D01*
X61055783Y-87374791D01*
X61055638Y-87319174D01*
X61056105Y-87246409D01*
X61057022Y-87153781D01*
X61060337Y-86838829D01*
X61086988Y-86817263D01*
X61113053Y-86801071D01*
X61145911Y-86798300D01*
X61180442Y-86817253D01*
X61184754Y-86820838D01*
X61192886Y-86829367D01*
X61198915Y-86840959D01*
X61203276Y-86858865D01*
X61206404Y-86886336D01*
X61208733Y-86926624D01*
X61210699Y-86982981D01*
X61212737Y-87058659D01*
X61218381Y-87278508D01*
X61399004Y-87114714D01*
X61485742Y-87036081D01*
X61561513Y-86967688D01*
X61623650Y-86912338D01*
X61673748Y-86868968D01*
X61713405Y-86836511D01*
X61744218Y-86813903D01*
X61767784Y-86800078D01*
X61785700Y-86793973D01*
X61799563Y-86794522D01*
G37*
X61799563Y-86794522D02*
X61810971Y-86800659D01*
X61821520Y-86811321D01*
X61832806Y-86825441D01*
X61837259Y-86831402D01*
X61843258Y-86841898D01*
X61847837Y-86855723D01*
X61851189Y-86875628D01*
X61853503Y-86904362D01*
X61854971Y-86944675D01*
X61855783Y-86999317D01*
X61856130Y-87071037D01*
X61856204Y-87162586D01*
X61856181Y-87221116D01*
X61855962Y-87300203D01*
X61855353Y-87361146D01*
X61854162Y-87406692D01*
X61852199Y-87439593D01*
X61849273Y-87462598D01*
X61845193Y-87478456D01*
X61839767Y-87489916D01*
X61832806Y-87499730D01*
X61802378Y-87524123D01*
X61767435Y-87527002D01*
X61730454Y-87507912D01*
X61726270Y-87504437D01*
X61718094Y-87495909D01*
X61712034Y-87484358D01*
X61707651Y-87466526D01*
X61704509Y-87439154D01*
X61702172Y-87398984D01*
X61700201Y-87342758D01*
X61698159Y-87267219D01*
X61692515Y-87048088D01*
X61427226Y-87288729D01*
X61353392Y-87355505D01*
X61288212Y-87413621D01*
X61236018Y-87458579D01*
X61194943Y-87491501D01*
X61163125Y-87513509D01*
X61138696Y-87525724D01*
X61119794Y-87529269D01*
X61104553Y-87525266D01*
X61091109Y-87514837D01*
X61077597Y-87499104D01*
X61071352Y-87490621D01*
X61065720Y-87480043D01*
X61061509Y-87465885D01*
X61058557Y-87445433D01*
X61056702Y-87415972D01*
X61055783Y-87374791D01*
X61055638Y-87319174D01*
X61056105Y-87246409D01*
X61057022Y-87153781D01*
X61060337Y-86838829D01*
X61086988Y-86817263D01*
X61113053Y-86801071D01*
X61145911Y-86798300D01*
X61180442Y-86817253D01*
X61184754Y-86820838D01*
X61192886Y-86829367D01*
X61198915Y-86840959D01*
X61203276Y-86858865D01*
X61206404Y-86886336D01*
X61208733Y-86926624D01*
X61210699Y-86982981D01*
X61212737Y-87058659D01*
X61218381Y-87278508D01*
X61399004Y-87114714D01*
X61485742Y-87036081D01*
X61561513Y-86967688D01*
X61623650Y-86912338D01*
X61673748Y-86868968D01*
X61713405Y-86836511D01*
X61744218Y-86813903D01*
X61767784Y-86800078D01*
X61785700Y-86793973D01*
X61799563Y-86794522D01*
G36*
X56050499Y-93258793D02*
G01*
X56110423Y-93281051D01*
X56135343Y-93297776D01*
X56160580Y-93321739D01*
X56178582Y-93352222D01*
X56190528Y-93393719D01*
X56197600Y-93450728D01*
X56200978Y-93527743D01*
X56201841Y-93629261D01*
X56201672Y-93681723D01*
X56200823Y-93753411D01*
X56199381Y-93810621D01*
X56197484Y-93848505D01*
X56195267Y-93862210D01*
X56180842Y-93857677D01*
X56151724Y-93845366D01*
X56150851Y-93844968D01*
X56135730Y-93837052D01*
X56125561Y-93826191D01*
X56119361Y-93807167D01*
X56116148Y-93774765D01*
X56114940Y-93723767D01*
X56114756Y-93648957D01*
X56114384Y-93601500D01*
X56110420Y-93512311D01*
X56101343Y-93446983D01*
X56086194Y-93402089D01*
X56064015Y-93374203D01*
X56033845Y-93359899D01*
X56029660Y-93358902D01*
X55973150Y-93358123D01*
X55929080Y-93383440D01*
X55898642Y-93434198D01*
X55893214Y-93448871D01*
X55880841Y-93481345D01*
X55874575Y-93496268D01*
X55861706Y-93494212D01*
X55833603Y-93483053D01*
X55807391Y-93464623D01*
X55795441Y-93429794D01*
X55799006Y-93404847D01*
X55820905Y-93354243D01*
X55856314Y-93306824D01*
X55897722Y-93274030D01*
X55915070Y-93266448D01*
X55980759Y-93253772D01*
X56050499Y-93258793D01*
G37*
X56050499Y-93258793D02*
X56110423Y-93281051D01*
X56135343Y-93297776D01*
X56160580Y-93321739D01*
X56178582Y-93352222D01*
X56190528Y-93393719D01*
X56197600Y-93450728D01*
X56200978Y-93527743D01*
X56201841Y-93629261D01*
X56201672Y-93681723D01*
X56200823Y-93753411D01*
X56199381Y-93810621D01*
X56197484Y-93848505D01*
X56195267Y-93862210D01*
X56180842Y-93857677D01*
X56151724Y-93845366D01*
X56150851Y-93844968D01*
X56135730Y-93837052D01*
X56125561Y-93826191D01*
X56119361Y-93807167D01*
X56116148Y-93774765D01*
X56114940Y-93723767D01*
X56114756Y-93648957D01*
X56114384Y-93601500D01*
X56110420Y-93512311D01*
X56101343Y-93446983D01*
X56086194Y-93402089D01*
X56064015Y-93374203D01*
X56033845Y-93359899D01*
X56029660Y-93358902D01*
X55973150Y-93358123D01*
X55929080Y-93383440D01*
X55898642Y-93434198D01*
X55893214Y-93448871D01*
X55880841Y-93481345D01*
X55874575Y-93496268D01*
X55861706Y-93494212D01*
X55833603Y-93483053D01*
X55807391Y-93464623D01*
X55795441Y-93429794D01*
X55799006Y-93404847D01*
X55820905Y-93354243D01*
X55856314Y-93306824D01*
X55897722Y-93274030D01*
X55915070Y-93266448D01*
X55980759Y-93253772D01*
X56050499Y-93258793D01*
G36*
X58175361Y-93274163D02*
G01*
X58179943Y-93276699D01*
X58217374Y-93305753D01*
X58250840Y-93343106D01*
X58256677Y-93351548D01*
X58267835Y-93371249D01*
X58275806Y-93394631D01*
X58281288Y-93426763D01*
X58284977Y-93472715D01*
X58287569Y-93537555D01*
X58289762Y-93626353D01*
X58290072Y-93641365D01*
X58291070Y-93738695D01*
X58289664Y-93807630D01*
X58285834Y-93848644D01*
X58279559Y-93862210D01*
X58260568Y-93858148D01*
X58228308Y-93845840D01*
X58220711Y-93842241D01*
X58208846Y-93834094D01*
X58200664Y-93820700D01*
X58195313Y-93797304D01*
X58191939Y-93759151D01*
X58189689Y-93701486D01*
X58187710Y-93619553D01*
X58187168Y-93595603D01*
X58185073Y-93519962D01*
X58182353Y-93467024D01*
X58178185Y-93431771D01*
X58171749Y-93409183D01*
X58162220Y-93394240D01*
X58148776Y-93381923D01*
X58108975Y-93360330D01*
X58060011Y-93356172D01*
X58016199Y-93372695D01*
X57984678Y-93406906D01*
X57972584Y-93455810D01*
X57972248Y-93469103D01*
X57965642Y-93493168D01*
X57946140Y-93496840D01*
X57907953Y-93482509D01*
X57899108Y-93477913D01*
X57875204Y-93450882D01*
X57874731Y-93410690D01*
X57897506Y-93355105D01*
X57918397Y-93324813D01*
X57971812Y-93281780D01*
X58037744Y-93257451D01*
X58108244Y-93254139D01*
X58175361Y-93274163D01*
G37*
X58175361Y-93274163D02*
X58179943Y-93276699D01*
X58217374Y-93305753D01*
X58250840Y-93343106D01*
X58256677Y-93351548D01*
X58267835Y-93371249D01*
X58275806Y-93394631D01*
X58281288Y-93426763D01*
X58284977Y-93472715D01*
X58287569Y-93537555D01*
X58289762Y-93626353D01*
X58290072Y-93641365D01*
X58291070Y-93738695D01*
X58289664Y-93807630D01*
X58285834Y-93848644D01*
X58279559Y-93862210D01*
X58260568Y-93858148D01*
X58228308Y-93845840D01*
X58220711Y-93842241D01*
X58208846Y-93834094D01*
X58200664Y-93820700D01*
X58195313Y-93797304D01*
X58191939Y-93759151D01*
X58189689Y-93701486D01*
X58187710Y-93619553D01*
X58187168Y-93595603D01*
X58185073Y-93519962D01*
X58182353Y-93467024D01*
X58178185Y-93431771D01*
X58171749Y-93409183D01*
X58162220Y-93394240D01*
X58148776Y-93381923D01*
X58108975Y-93360330D01*
X58060011Y-93356172D01*
X58016199Y-93372695D01*
X57984678Y-93406906D01*
X57972584Y-93455810D01*
X57972248Y-93469103D01*
X57965642Y-93493168D01*
X57946140Y-93496840D01*
X57907953Y-93482509D01*
X57899108Y-93477913D01*
X57875204Y-93450882D01*
X57874731Y-93410690D01*
X57897506Y-93355105D01*
X57918397Y-93324813D01*
X57971812Y-93281780D01*
X58037744Y-93257451D01*
X58108244Y-93254139D01*
X58175361Y-93274163D01*
G36*
X61833371Y-93558631D02*
G01*
X61832584Y-93628815D01*
X61829880Y-93677718D01*
X61824276Y-93711874D01*
X61814789Y-93737820D01*
X61800438Y-93762093D01*
X61796907Y-93767129D01*
X61759548Y-93806839D01*
X61716981Y-93836788D01*
X61695122Y-93846506D01*
X61616578Y-93862716D01*
X61538901Y-93852231D01*
X61467315Y-93816403D01*
X61407044Y-93756583D01*
X61401956Y-93748569D01*
X61385400Y-93702038D01*
X61374243Y-93637248D01*
X61368830Y-93562423D01*
X61369438Y-93493209D01*
X61515918Y-93493209D01*
X61517072Y-93589095D01*
X61517536Y-93595265D01*
X61524299Y-93648174D01*
X61536341Y-93681725D01*
X61556675Y-93704712D01*
X61590767Y-93726244D01*
X61624484Y-93727376D01*
X61659213Y-93702553D01*
X61665254Y-93696021D01*
X61677087Y-93676475D01*
X61684074Y-93648082D01*
X61687397Y-93604126D01*
X61688241Y-93537888D01*
X61686795Y-93475846D01*
X61679577Y-93416738D01*
X61664676Y-93379382D01*
X61640306Y-93359848D01*
X61604678Y-93354210D01*
X61591110Y-93355331D01*
X61553100Y-93375890D01*
X61527982Y-93421995D01*
X61515918Y-93493209D01*
X61369438Y-93493209D01*
X61369503Y-93485792D01*
X61376607Y-93415578D01*
X61390485Y-93360008D01*
X61408319Y-93322997D01*
X61458525Y-93265429D01*
X61526555Y-93229658D01*
X61609828Y-93217361D01*
X61632068Y-93218027D01*
X61697561Y-93231643D01*
X61751357Y-93265945D01*
X61800727Y-93325034D01*
X61803665Y-93329418D01*
X61816957Y-93352995D01*
X61825602Y-93379645D01*
X61830574Y-93415855D01*
X61832844Y-93468109D01*
X61833348Y-93537888D01*
X61833384Y-93542896D01*
X61833371Y-93558631D01*
G37*
X61833371Y-93558631D02*
X61832584Y-93628815D01*
X61829880Y-93677718D01*
X61824276Y-93711874D01*
X61814789Y-93737820D01*
X61800438Y-93762093D01*
X61796907Y-93767129D01*
X61759548Y-93806839D01*
X61716981Y-93836788D01*
X61695122Y-93846506D01*
X61616578Y-93862716D01*
X61538901Y-93852231D01*
X61467315Y-93816403D01*
X61407044Y-93756583D01*
X61401956Y-93748569D01*
X61385400Y-93702038D01*
X61374243Y-93637248D01*
X61368830Y-93562423D01*
X61369438Y-93493209D01*
X61515918Y-93493209D01*
X61517072Y-93589095D01*
X61517536Y-93595265D01*
X61524299Y-93648174D01*
X61536341Y-93681725D01*
X61556675Y-93704712D01*
X61590767Y-93726244D01*
X61624484Y-93727376D01*
X61659213Y-93702553D01*
X61665254Y-93696021D01*
X61677087Y-93676475D01*
X61684074Y-93648082D01*
X61687397Y-93604126D01*
X61688241Y-93537888D01*
X61686795Y-93475846D01*
X61679577Y-93416738D01*
X61664676Y-93379382D01*
X61640306Y-93359848D01*
X61604678Y-93354210D01*
X61591110Y-93355331D01*
X61553100Y-93375890D01*
X61527982Y-93421995D01*
X61515918Y-93493209D01*
X61369438Y-93493209D01*
X61369503Y-93485792D01*
X61376607Y-93415578D01*
X61390485Y-93360008D01*
X61408319Y-93322997D01*
X61458525Y-93265429D01*
X61526555Y-93229658D01*
X61609828Y-93217361D01*
X61632068Y-93218027D01*
X61697561Y-93231643D01*
X61751357Y-93265945D01*
X61800727Y-93325034D01*
X61803665Y-93329418D01*
X61816957Y-93352995D01*
X61825602Y-93379645D01*
X61830574Y-93415855D01*
X61832844Y-93468109D01*
X61833348Y-93537888D01*
X61833384Y-93542896D01*
X61833371Y-93558631D01*
G36*
X56535165Y-93253916D02*
G01*
X56566269Y-93261817D01*
X56595229Y-93281513D01*
X56632501Y-93318180D01*
X56656471Y-93344074D01*
X56681440Y-93377693D01*
X56692701Y-93409202D01*
X56695327Y-93449181D01*
X56695327Y-93514613D01*
X56650705Y-93491538D01*
X56615343Y-93463420D01*
X56591121Y-93425544D01*
X56586961Y-93415247D01*
X56555264Y-93375333D01*
X56511224Y-93355320D01*
X56463201Y-93357268D01*
X56419556Y-93383239D01*
X56401090Y-93404331D01*
X56390333Y-93431315D01*
X56401848Y-93455330D01*
X56437651Y-93479487D01*
X56499760Y-93506895D01*
X56509185Y-93510681D01*
X56565728Y-93535455D01*
X56614250Y-93559885D01*
X56645121Y-93579182D01*
X56676041Y-93613649D01*
X56696597Y-93668653D01*
X56694414Y-93727679D01*
X56670094Y-93783541D01*
X56624238Y-93829051D01*
X56587108Y-93848423D01*
X56515381Y-93861988D01*
X56475522Y-93860158D01*
X56438623Y-93850264D01*
X56424467Y-93829502D01*
X56429761Y-93795309D01*
X56431301Y-93790788D01*
X56443512Y-93766812D01*
X56463844Y-93757738D01*
X56502578Y-93758345D01*
X56529927Y-93759170D01*
X56561927Y-93752088D01*
X56583852Y-93730915D01*
X56596340Y-93704848D01*
X56597732Y-93677541D01*
X56597668Y-93677381D01*
X56581477Y-93662626D01*
X56546825Y-93641153D01*
X56501991Y-93617154D01*
X56455252Y-93594821D01*
X56414887Y-93578348D01*
X56389174Y-93571925D01*
X56385349Y-93578214D01*
X56380534Y-93607811D01*
X56377236Y-93656143D01*
X56376013Y-93717068D01*
X56375728Y-93759238D01*
X56374388Y-93812349D01*
X56372198Y-93848721D01*
X56369439Y-93862210D01*
X56355014Y-93857677D01*
X56325896Y-93845366D01*
X56288927Y-93828522D01*
X56288927Y-93612417D01*
X56289163Y-93557023D01*
X56291399Y-93472903D01*
X56297093Y-93410496D01*
X56307573Y-93365054D01*
X56324167Y-93331829D01*
X56348201Y-93306074D01*
X56381003Y-93283040D01*
X56422794Y-93264031D01*
X56499957Y-93252610D01*
X56535165Y-93253916D01*
G37*
X56535165Y-93253916D02*
X56566269Y-93261817D01*
X56595229Y-93281513D01*
X56632501Y-93318180D01*
X56656471Y-93344074D01*
X56681440Y-93377693D01*
X56692701Y-93409202D01*
X56695327Y-93449181D01*
X56695327Y-93514613D01*
X56650705Y-93491538D01*
X56615343Y-93463420D01*
X56591121Y-93425544D01*
X56586961Y-93415247D01*
X56555264Y-93375333D01*
X56511224Y-93355320D01*
X56463201Y-93357268D01*
X56419556Y-93383239D01*
X56401090Y-93404331D01*
X56390333Y-93431315D01*
X56401848Y-93455330D01*
X56437651Y-93479487D01*
X56499760Y-93506895D01*
X56509185Y-93510681D01*
X56565728Y-93535455D01*
X56614250Y-93559885D01*
X56645121Y-93579182D01*
X56676041Y-93613649D01*
X56696597Y-93668653D01*
X56694414Y-93727679D01*
X56670094Y-93783541D01*
X56624238Y-93829051D01*
X56587108Y-93848423D01*
X56515381Y-93861988D01*
X56475522Y-93860158D01*
X56438623Y-93850264D01*
X56424467Y-93829502D01*
X56429761Y-93795309D01*
X56431301Y-93790788D01*
X56443512Y-93766812D01*
X56463844Y-93757738D01*
X56502578Y-93758345D01*
X56529927Y-93759170D01*
X56561927Y-93752088D01*
X56583852Y-93730915D01*
X56596340Y-93704848D01*
X56597732Y-93677541D01*
X56597668Y-93677381D01*
X56581477Y-93662626D01*
X56546825Y-93641153D01*
X56501991Y-93617154D01*
X56455252Y-93594821D01*
X56414887Y-93578348D01*
X56389174Y-93571925D01*
X56385349Y-93578214D01*
X56380534Y-93607811D01*
X56377236Y-93656143D01*
X56376013Y-93717068D01*
X56375728Y-93759238D01*
X56374388Y-93812349D01*
X56372198Y-93848721D01*
X56369439Y-93862210D01*
X56355014Y-93857677D01*
X56325896Y-93845366D01*
X56288927Y-93828522D01*
X56288927Y-93612417D01*
X56289163Y-93557023D01*
X56291399Y-93472903D01*
X56297093Y-93410496D01*
X56307573Y-93365054D01*
X56324167Y-93331829D01*
X56348201Y-93306074D01*
X56381003Y-93283040D01*
X56422794Y-93264031D01*
X56499957Y-93252610D01*
X56535165Y-93253916D01*
G36*
X57221611Y-93256978D02*
G01*
X57253444Y-93269454D01*
X57290413Y-93286298D01*
X57290413Y-93772892D01*
X57244482Y-93818823D01*
X57233990Y-93829123D01*
X57204925Y-93852016D01*
X57175613Y-93859431D01*
X57131996Y-93856017D01*
X57114238Y-93853810D01*
X57068437Y-93849141D01*
X57036413Y-93847281D01*
X57026914Y-93847565D01*
X56987944Y-93850644D01*
X56940830Y-93856017D01*
X56925755Y-93857864D01*
X56887780Y-93858589D01*
X56859995Y-93847125D01*
X56828344Y-93818823D01*
X56782413Y-93772892D01*
X56782413Y-93512751D01*
X56782771Y-93435876D01*
X56783886Y-93362582D01*
X56785622Y-93304546D01*
X56787837Y-93266359D01*
X56790391Y-93252610D01*
X56790926Y-93252647D01*
X56809478Y-93259489D01*
X56840823Y-93274564D01*
X56883278Y-93296518D01*
X56887274Y-93524936D01*
X56891270Y-93753353D01*
X56978356Y-93753353D01*
X56982327Y-93502982D01*
X56983586Y-93434923D01*
X56985388Y-93362178D01*
X56987341Y-93304426D01*
X56989282Y-93266344D01*
X56991047Y-93252610D01*
X56991555Y-93252658D01*
X57009152Y-93257711D01*
X57041504Y-93268545D01*
X57087213Y-93284479D01*
X57087435Y-93504402D01*
X57087658Y-93542605D01*
X57089201Y-93616842D01*
X57091962Y-93678841D01*
X57095647Y-93723004D01*
X57099962Y-93743737D01*
X57115402Y-93754827D01*
X57146911Y-93758252D01*
X57181556Y-93753353D01*
X57185527Y-93502982D01*
X57186948Y-93439359D01*
X57189895Y-93364052D01*
X57193749Y-93304982D01*
X57198212Y-93266414D01*
X57202987Y-93252610D01*
X57221611Y-93256978D01*
G37*
X57221611Y-93256978D02*
X57253444Y-93269454D01*
X57290413Y-93286298D01*
X57290413Y-93772892D01*
X57244482Y-93818823D01*
X57233990Y-93829123D01*
X57204925Y-93852016D01*
X57175613Y-93859431D01*
X57131996Y-93856017D01*
X57114238Y-93853810D01*
X57068437Y-93849141D01*
X57036413Y-93847281D01*
X57026914Y-93847565D01*
X56987944Y-93850644D01*
X56940830Y-93856017D01*
X56925755Y-93857864D01*
X56887780Y-93858589D01*
X56859995Y-93847125D01*
X56828344Y-93818823D01*
X56782413Y-93772892D01*
X56782413Y-93512751D01*
X56782771Y-93435876D01*
X56783886Y-93362582D01*
X56785622Y-93304546D01*
X56787837Y-93266359D01*
X56790391Y-93252610D01*
X56790926Y-93252647D01*
X56809478Y-93259489D01*
X56840823Y-93274564D01*
X56883278Y-93296518D01*
X56887274Y-93524936D01*
X56891270Y-93753353D01*
X56978356Y-93753353D01*
X56982327Y-93502982D01*
X56983586Y-93434923D01*
X56985388Y-93362178D01*
X56987341Y-93304426D01*
X56989282Y-93266344D01*
X56991047Y-93252610D01*
X56991555Y-93252658D01*
X57009152Y-93257711D01*
X57041504Y-93268545D01*
X57087213Y-93284479D01*
X57087435Y-93504402D01*
X57087658Y-93542605D01*
X57089201Y-93616842D01*
X57091962Y-93678841D01*
X57095647Y-93723004D01*
X57099962Y-93743737D01*
X57115402Y-93754827D01*
X57146911Y-93758252D01*
X57181556Y-93753353D01*
X57185527Y-93502982D01*
X57186948Y-93439359D01*
X57189895Y-93364052D01*
X57193749Y-93304982D01*
X57198212Y-93266414D01*
X57202987Y-93252610D01*
X57221611Y-93256978D01*
G36*
X58657153Y-93268265D02*
G01*
X58707046Y-93297357D01*
X58728995Y-93320023D01*
X58771174Y-93387778D01*
X58785384Y-93461646D01*
X58785384Y-93512466D01*
X58738669Y-93492824D01*
X58706362Y-93473004D01*
X58680901Y-93431856D01*
X58678286Y-93423371D01*
X58650148Y-93380147D01*
X58607737Y-93356799D01*
X58559040Y-93355796D01*
X58512043Y-93379610D01*
X58505027Y-93385752D01*
X58481563Y-93412441D01*
X58477689Y-93435710D01*
X58495438Y-93458558D01*
X58536849Y-93483983D01*
X58603956Y-93514984D01*
X58608494Y-93516948D01*
X58682992Y-93551686D01*
X58733873Y-93582459D01*
X58765195Y-93613184D01*
X58781013Y-93647778D01*
X58785384Y-93690158D01*
X58779656Y-93737142D01*
X58750732Y-93797281D01*
X58699848Y-93840484D01*
X58663044Y-93853455D01*
X58611104Y-93860552D01*
X58560669Y-93859036D01*
X58524653Y-93848328D01*
X58520828Y-93845662D01*
X58510668Y-93827033D01*
X58517718Y-93794201D01*
X58529967Y-93768431D01*
X58549609Y-93757702D01*
X58586861Y-93758235D01*
X58638578Y-93755158D01*
X58672371Y-93733908D01*
X58683784Y-93694573D01*
X58683774Y-93693443D01*
X58676857Y-93670609D01*
X58653329Y-93649659D01*
X58607584Y-93625511D01*
X58545374Y-93596437D01*
X58504169Y-93580621D01*
X58480382Y-93581640D01*
X58469267Y-93602533D01*
X58466078Y-93646337D01*
X58466070Y-93716089D01*
X58465714Y-93759148D01*
X58464083Y-93812322D01*
X58461431Y-93848718D01*
X58458092Y-93862210D01*
X58457200Y-93862119D01*
X58437907Y-93854806D01*
X58405954Y-93839374D01*
X58361794Y-93816538D01*
X58367041Y-93610774D01*
X58367406Y-93597128D01*
X58371574Y-93501347D01*
X58378938Y-93429158D01*
X58391000Y-93375754D01*
X58409263Y-93336329D01*
X58435230Y-93306076D01*
X58470403Y-93280189D01*
X58471054Y-93279783D01*
X58527926Y-93258664D01*
X58593703Y-93255096D01*
X58657153Y-93268265D01*
G37*
X58657153Y-93268265D02*
X58707046Y-93297357D01*
X58728995Y-93320023D01*
X58771174Y-93387778D01*
X58785384Y-93461646D01*
X58785384Y-93512466D01*
X58738669Y-93492824D01*
X58706362Y-93473004D01*
X58680901Y-93431856D01*
X58678286Y-93423371D01*
X58650148Y-93380147D01*
X58607737Y-93356799D01*
X58559040Y-93355796D01*
X58512043Y-93379610D01*
X58505027Y-93385752D01*
X58481563Y-93412441D01*
X58477689Y-93435710D01*
X58495438Y-93458558D01*
X58536849Y-93483983D01*
X58603956Y-93514984D01*
X58608494Y-93516948D01*
X58682992Y-93551686D01*
X58733873Y-93582459D01*
X58765195Y-93613184D01*
X58781013Y-93647778D01*
X58785384Y-93690158D01*
X58779656Y-93737142D01*
X58750732Y-93797281D01*
X58699848Y-93840484D01*
X58663044Y-93853455D01*
X58611104Y-93860552D01*
X58560669Y-93859036D01*
X58524653Y-93848328D01*
X58520828Y-93845662D01*
X58510668Y-93827033D01*
X58517718Y-93794201D01*
X58529967Y-93768431D01*
X58549609Y-93757702D01*
X58586861Y-93758235D01*
X58638578Y-93755158D01*
X58672371Y-93733908D01*
X58683784Y-93694573D01*
X58683774Y-93693443D01*
X58676857Y-93670609D01*
X58653329Y-93649659D01*
X58607584Y-93625511D01*
X58545374Y-93596437D01*
X58504169Y-93580621D01*
X58480382Y-93581640D01*
X58469267Y-93602533D01*
X58466078Y-93646337D01*
X58466070Y-93716089D01*
X58465714Y-93759148D01*
X58464083Y-93812322D01*
X58461431Y-93848718D01*
X58458092Y-93862210D01*
X58457200Y-93862119D01*
X58437907Y-93854806D01*
X58405954Y-93839374D01*
X58361794Y-93816538D01*
X58367041Y-93610774D01*
X58367406Y-93597128D01*
X58371574Y-93501347D01*
X58378938Y-93429158D01*
X58391000Y-93375754D01*
X58409263Y-93336329D01*
X58435230Y-93306076D01*
X58470403Y-93280189D01*
X58471054Y-93279783D01*
X58527926Y-93258664D01*
X58593703Y-93255096D01*
X58657153Y-93268265D01*
G36*
X61278922Y-93720696D02*
G01*
X61279321Y-93753035D01*
X61280599Y-93861151D01*
X61280855Y-93943882D01*
X61279304Y-94004122D01*
X61275160Y-94044769D01*
X61267634Y-94068719D01*
X61255941Y-94078867D01*
X61239294Y-94078110D01*
X61216906Y-94069344D01*
X61187991Y-94055465D01*
X61181812Y-94052504D01*
X61156083Y-94038007D01*
X61142646Y-94020761D01*
X61137504Y-93992004D01*
X61136660Y-93942979D01*
X61136622Y-93854953D01*
X61045946Y-93854953D01*
X60990168Y-93852511D01*
X60946310Y-93842604D01*
X60909888Y-93822582D01*
X60907173Y-93820625D01*
X60870216Y-93787565D01*
X60844496Y-93747627D01*
X60828276Y-93695353D01*
X60819818Y-93625284D01*
X60817753Y-93546126D01*
X60962527Y-93546126D01*
X60962552Y-93559393D01*
X60963931Y-93619280D01*
X60968357Y-93658428D01*
X60977131Y-93683849D01*
X60991556Y-93702553D01*
X60992454Y-93703446D01*
X61027907Y-93727648D01*
X61062266Y-93725263D01*
X61101073Y-93695956D01*
X61110565Y-93685940D01*
X61124546Y-93665404D01*
X61132430Y-93638693D01*
X61135915Y-93598195D01*
X61136699Y-93536299D01*
X61136020Y-93498826D01*
X61128653Y-93430676D01*
X61111838Y-93386026D01*
X61083904Y-93361622D01*
X61043179Y-93354210D01*
X61026020Y-93355790D01*
X60996330Y-93371462D01*
X60976701Y-93406387D01*
X60965858Y-93463597D01*
X60962527Y-93546126D01*
X60817753Y-93546126D01*
X60817384Y-93531963D01*
X60817923Y-93463865D01*
X60820377Y-93412283D01*
X60825828Y-93376512D01*
X60835356Y-93349711D01*
X60850041Y-93325034D01*
X60863522Y-93306176D01*
X60912469Y-93255264D01*
X60967926Y-93227614D01*
X61037598Y-93218861D01*
X61117334Y-93227586D01*
X61186265Y-93258881D01*
X61240783Y-93314077D01*
X61244893Y-93319920D01*
X61254478Y-93335449D01*
X61261821Y-93353194D01*
X61267282Y-93376986D01*
X61271220Y-93410654D01*
X61273993Y-93458029D01*
X61275962Y-93522941D01*
X61276198Y-93536299D01*
X61277485Y-93609220D01*
X61278922Y-93720696D01*
G37*
X61278922Y-93720696D02*
X61279321Y-93753035D01*
X61280599Y-93861151D01*
X61280855Y-93943882D01*
X61279304Y-94004122D01*
X61275160Y-94044769D01*
X61267634Y-94068719D01*
X61255941Y-94078867D01*
X61239294Y-94078110D01*
X61216906Y-94069344D01*
X61187991Y-94055465D01*
X61181812Y-94052504D01*
X61156083Y-94038007D01*
X61142646Y-94020761D01*
X61137504Y-93992004D01*
X61136660Y-93942979D01*
X61136622Y-93854953D01*
X61045946Y-93854953D01*
X60990168Y-93852511D01*
X60946310Y-93842604D01*
X60909888Y-93822582D01*
X60907173Y-93820625D01*
X60870216Y-93787565D01*
X60844496Y-93747627D01*
X60828276Y-93695353D01*
X60819818Y-93625284D01*
X60817753Y-93546126D01*
X60962527Y-93546126D01*
X60962552Y-93559393D01*
X60963931Y-93619280D01*
X60968357Y-93658428D01*
X60977131Y-93683849D01*
X60991556Y-93702553D01*
X60992454Y-93703446D01*
X61027907Y-93727648D01*
X61062266Y-93725263D01*
X61101073Y-93695956D01*
X61110565Y-93685940D01*
X61124546Y-93665404D01*
X61132430Y-93638693D01*
X61135915Y-93598195D01*
X61136699Y-93536299D01*
X61136020Y-93498826D01*
X61128653Y-93430676D01*
X61111838Y-93386026D01*
X61083904Y-93361622D01*
X61043179Y-93354210D01*
X61026020Y-93355790D01*
X60996330Y-93371462D01*
X60976701Y-93406387D01*
X60965858Y-93463597D01*
X60962527Y-93546126D01*
X60817753Y-93546126D01*
X60817384Y-93531963D01*
X60817923Y-93463865D01*
X60820377Y-93412283D01*
X60825828Y-93376512D01*
X60835356Y-93349711D01*
X60850041Y-93325034D01*
X60863522Y-93306176D01*
X60912469Y-93255264D01*
X60967926Y-93227614D01*
X61037598Y-93218861D01*
X61117334Y-93227586D01*
X61186265Y-93258881D01*
X61240783Y-93314077D01*
X61244893Y-93319920D01*
X61254478Y-93335449D01*
X61261821Y-93353194D01*
X61267282Y-93376986D01*
X61271220Y-93410654D01*
X61273993Y-93458029D01*
X61275962Y-93522941D01*
X61276198Y-93536299D01*
X61277485Y-93609220D01*
X61278922Y-93720696D01*
G36*
X59998690Y-93225518D02*
G01*
X60066480Y-93257376D01*
X60122036Y-93312466D01*
X60133551Y-93329712D01*
X60143102Y-93349258D01*
X60149876Y-93373894D01*
X60154489Y-93408407D01*
X60157558Y-93457585D01*
X60159699Y-93526215D01*
X60161529Y-93619085D01*
X60166074Y-93876703D01*
X60127895Y-93862187D01*
X60092938Y-93848852D01*
X60066767Y-93836019D01*
X60049683Y-93819476D01*
X60039756Y-93794161D01*
X60035056Y-93755012D01*
X60033652Y-93696964D01*
X60033613Y-93614957D01*
X60033414Y-93549591D01*
X60032229Y-93486869D01*
X60029399Y-93444030D01*
X60024279Y-93415916D01*
X60016223Y-93397371D01*
X60004584Y-93383239D01*
X59975973Y-93363296D01*
X59927909Y-93355779D01*
X59880358Y-93374775D01*
X59877220Y-93377207D01*
X59867439Y-93388444D01*
X59860223Y-93406466D01*
X59854969Y-93435722D01*
X59851072Y-93480658D01*
X59847926Y-93545724D01*
X59844927Y-93635366D01*
X59837670Y-93875393D01*
X59775984Y-93847740D01*
X59714299Y-93820087D01*
X59714299Y-93600942D01*
X59714554Y-93541407D01*
X59716756Y-93458588D01*
X59722331Y-93396923D01*
X59732611Y-93351444D01*
X59748928Y-93317180D01*
X59772613Y-93289162D01*
X59804998Y-93262419D01*
X59851577Y-93235476D01*
X59924957Y-93217887D01*
X59998690Y-93225518D01*
G37*
X59998690Y-93225518D02*
X60066480Y-93257376D01*
X60122036Y-93312466D01*
X60133551Y-93329712D01*
X60143102Y-93349258D01*
X60149876Y-93373894D01*
X60154489Y-93408407D01*
X60157558Y-93457585D01*
X60159699Y-93526215D01*
X60161529Y-93619085D01*
X60166074Y-93876703D01*
X60127895Y-93862187D01*
X60092938Y-93848852D01*
X60066767Y-93836019D01*
X60049683Y-93819476D01*
X60039756Y-93794161D01*
X60035056Y-93755012D01*
X60033652Y-93696964D01*
X60033613Y-93614957D01*
X60033414Y-93549591D01*
X60032229Y-93486869D01*
X60029399Y-93444030D01*
X60024279Y-93415916D01*
X60016223Y-93397371D01*
X60004584Y-93383239D01*
X59975973Y-93363296D01*
X59927909Y-93355779D01*
X59880358Y-93374775D01*
X59877220Y-93377207D01*
X59867439Y-93388444D01*
X59860223Y-93406466D01*
X59854969Y-93435722D01*
X59851072Y-93480658D01*
X59847926Y-93545724D01*
X59844927Y-93635366D01*
X59837670Y-93875393D01*
X59775984Y-93847740D01*
X59714299Y-93820087D01*
X59714299Y-93600942D01*
X59714554Y-93541407D01*
X59716756Y-93458588D01*
X59722331Y-93396923D01*
X59732611Y-93351444D01*
X59748928Y-93317180D01*
X59772613Y-93289162D01*
X59804998Y-93262419D01*
X59851577Y-93235476D01*
X59924957Y-93217887D01*
X59998690Y-93225518D01*
G36*
X57797207Y-93614009D02*
G01*
X57789015Y-93691158D01*
X57771189Y-93748972D01*
X57741645Y-93793118D01*
X57698295Y-93829264D01*
X57657002Y-93850159D01*
X57587657Y-93861786D01*
X57518406Y-93849073D01*
X57455815Y-93813641D01*
X57406449Y-93757114D01*
X57400488Y-93746691D01*
X57392615Y-93728429D01*
X57386776Y-93705125D01*
X57382669Y-93672781D01*
X57379995Y-93627400D01*
X57378451Y-93564983D01*
X57378404Y-93559444D01*
X57479099Y-93559444D01*
X57479442Y-93612273D01*
X57481612Y-93660058D01*
X57486977Y-93690905D01*
X57496887Y-93711631D01*
X57512691Y-93729052D01*
X57516394Y-93732401D01*
X57563969Y-93757115D01*
X57614305Y-93754586D01*
X57661187Y-93724984D01*
X57675147Y-93709649D01*
X57686830Y-93689318D01*
X57693356Y-93661210D01*
X57696194Y-93618246D01*
X57696813Y-93553343D01*
X57696507Y-93503818D01*
X57694392Y-93455478D01*
X57689060Y-93424283D01*
X57679130Y-93403343D01*
X57663220Y-93385769D01*
X57653874Y-93377855D01*
X57605446Y-93356539D01*
X57554710Y-93359894D01*
X57510657Y-93387803D01*
X57501174Y-93398869D01*
X57489609Y-93419705D01*
X57482922Y-93448802D01*
X57479843Y-93493077D01*
X57479099Y-93559444D01*
X57378404Y-93559444D01*
X57377737Y-93481533D01*
X57377553Y-93373054D01*
X57377499Y-93036297D01*
X57424670Y-93056058D01*
X57437142Y-93061466D01*
X57456994Y-93073681D01*
X57468357Y-93092178D01*
X57474603Y-93124525D01*
X57479099Y-93178289D01*
X57483205Y-93226562D01*
X57488633Y-93258253D01*
X57496409Y-93270079D01*
X57508127Y-93266908D01*
X57537988Y-93255763D01*
X57591354Y-93253000D01*
X57648763Y-93263321D01*
X57698295Y-93285557D01*
X57725546Y-93306139D01*
X57760535Y-93346296D01*
X57782944Y-93397782D01*
X57794860Y-93466264D01*
X57798212Y-93553343D01*
X57798368Y-93557410D01*
X57797207Y-93614009D01*
G37*
X57797207Y-93614009D02*
X57789015Y-93691158D01*
X57771189Y-93748972D01*
X57741645Y-93793118D01*
X57698295Y-93829264D01*
X57657002Y-93850159D01*
X57587657Y-93861786D01*
X57518406Y-93849073D01*
X57455815Y-93813641D01*
X57406449Y-93757114D01*
X57400488Y-93746691D01*
X57392615Y-93728429D01*
X57386776Y-93705125D01*
X57382669Y-93672781D01*
X57379995Y-93627400D01*
X57378451Y-93564983D01*
X57378404Y-93559444D01*
X57479099Y-93559444D01*
X57479442Y-93612273D01*
X57481612Y-93660058D01*
X57486977Y-93690905D01*
X57496887Y-93711631D01*
X57512691Y-93729052D01*
X57516394Y-93732401D01*
X57563969Y-93757115D01*
X57614305Y-93754586D01*
X57661187Y-93724984D01*
X57675147Y-93709649D01*
X57686830Y-93689318D01*
X57693356Y-93661210D01*
X57696194Y-93618246D01*
X57696813Y-93553343D01*
X57696507Y-93503818D01*
X57694392Y-93455478D01*
X57689060Y-93424283D01*
X57679130Y-93403343D01*
X57663220Y-93385769D01*
X57653874Y-93377855D01*
X57605446Y-93356539D01*
X57554710Y-93359894D01*
X57510657Y-93387803D01*
X57501174Y-93398869D01*
X57489609Y-93419705D01*
X57482922Y-93448802D01*
X57479843Y-93493077D01*
X57479099Y-93559444D01*
X57378404Y-93559444D01*
X57377737Y-93481533D01*
X57377553Y-93373054D01*
X57377499Y-93036297D01*
X57424670Y-93056058D01*
X57437142Y-93061466D01*
X57456994Y-93073681D01*
X57468357Y-93092178D01*
X57474603Y-93124525D01*
X57479099Y-93178289D01*
X57483205Y-93226562D01*
X57488633Y-93258253D01*
X57496409Y-93270079D01*
X57508127Y-93266908D01*
X57537988Y-93255763D01*
X57591354Y-93253000D01*
X57648763Y-93263321D01*
X57698295Y-93285557D01*
X57725546Y-93306139D01*
X57760535Y-93346296D01*
X57782944Y-93397782D01*
X57794860Y-93466264D01*
X57798212Y-93553343D01*
X57798368Y-93557410D01*
X57797207Y-93614009D01*
G36*
X55707977Y-93599001D02*
G01*
X55704432Y-93675217D01*
X55695153Y-93730990D01*
X55678045Y-93772309D01*
X55651014Y-93805163D01*
X55611962Y-93835542D01*
X55587115Y-93849356D01*
X55547285Y-93858661D01*
X55491335Y-93857926D01*
X55460055Y-93854979D01*
X55422323Y-93845979D01*
X55392164Y-93826416D01*
X55357078Y-93789963D01*
X55352390Y-93784639D01*
X55320847Y-93743665D01*
X55305798Y-93707979D01*
X55301956Y-93665662D01*
X55301956Y-93603475D01*
X55345412Y-93619878D01*
X55377094Y-93639052D01*
X55404632Y-93684043D01*
X55410381Y-93698448D01*
X55442525Y-93739242D01*
X55486281Y-93759777D01*
X55533924Y-93757931D01*
X55577727Y-93731582D01*
X55592781Y-93715151D01*
X55606433Y-93690363D01*
X55602163Y-93667840D01*
X55577586Y-93644660D01*
X55530321Y-93617898D01*
X55457984Y-93584630D01*
X55309213Y-93519512D01*
X55305265Y-93455004D01*
X55306749Y-93413916D01*
X55403680Y-93413916D01*
X55411038Y-93439353D01*
X55444518Y-93466510D01*
X55505284Y-93497410D01*
X55515339Y-93501886D01*
X55563421Y-93522713D01*
X55599396Y-93537361D01*
X55616114Y-93542896D01*
X55618647Y-93538822D01*
X55619663Y-93513943D01*
X55616039Y-93473953D01*
X55606912Y-93434848D01*
X55578443Y-93385580D01*
X55537348Y-93357818D01*
X55488260Y-93354060D01*
X55435814Y-93376805D01*
X55421279Y-93388177D01*
X55403680Y-93413916D01*
X55306749Y-93413916D01*
X55307008Y-93406760D01*
X55328951Y-93345792D01*
X55356649Y-93312193D01*
X55414075Y-93274662D01*
X55482197Y-93255702D01*
X55552617Y-93257203D01*
X55616937Y-93281051D01*
X55631096Y-93290209D01*
X55663574Y-93318545D01*
X55685786Y-93354391D01*
X55699474Y-93403080D01*
X55706385Y-93469945D01*
X55707298Y-93513943D01*
X55708260Y-93560318D01*
X55707977Y-93599001D01*
G37*
X55707977Y-93599001D02*
X55704432Y-93675217D01*
X55695153Y-93730990D01*
X55678045Y-93772309D01*
X55651014Y-93805163D01*
X55611962Y-93835542D01*
X55587115Y-93849356D01*
X55547285Y-93858661D01*
X55491335Y-93857926D01*
X55460055Y-93854979D01*
X55422323Y-93845979D01*
X55392164Y-93826416D01*
X55357078Y-93789963D01*
X55352390Y-93784639D01*
X55320847Y-93743665D01*
X55305798Y-93707979D01*
X55301956Y-93665662D01*
X55301956Y-93603475D01*
X55345412Y-93619878D01*
X55377094Y-93639052D01*
X55404632Y-93684043D01*
X55410381Y-93698448D01*
X55442525Y-93739242D01*
X55486281Y-93759777D01*
X55533924Y-93757931D01*
X55577727Y-93731582D01*
X55592781Y-93715151D01*
X55606433Y-93690363D01*
X55602163Y-93667840D01*
X55577586Y-93644660D01*
X55530321Y-93617898D01*
X55457984Y-93584630D01*
X55309213Y-93519512D01*
X55305265Y-93455004D01*
X55306749Y-93413916D01*
X55403680Y-93413916D01*
X55411038Y-93439353D01*
X55444518Y-93466510D01*
X55505284Y-93497410D01*
X55515339Y-93501886D01*
X55563421Y-93522713D01*
X55599396Y-93537361D01*
X55616114Y-93542896D01*
X55618647Y-93538822D01*
X55619663Y-93513943D01*
X55616039Y-93473953D01*
X55606912Y-93434848D01*
X55578443Y-93385580D01*
X55537348Y-93357818D01*
X55488260Y-93354060D01*
X55435814Y-93376805D01*
X55421279Y-93388177D01*
X55403680Y-93413916D01*
X55306749Y-93413916D01*
X55307008Y-93406760D01*
X55328951Y-93345792D01*
X55356649Y-93312193D01*
X55414075Y-93274662D01*
X55482197Y-93255702D01*
X55552617Y-93257203D01*
X55616937Y-93281051D01*
X55631096Y-93290209D01*
X55663574Y-93318545D01*
X55685786Y-93354391D01*
X55699474Y-93403080D01*
X55706385Y-93469945D01*
X55707298Y-93513943D01*
X55708260Y-93560318D01*
X55707977Y-93599001D01*
G36*
X59246213Y-93057140D02*
G01*
X59293384Y-93077038D01*
X59293384Y-93474205D01*
X59293189Y-93577194D01*
X59292668Y-93669837D01*
X59291869Y-93748396D01*
X59290842Y-93809135D01*
X59289633Y-93848319D01*
X59288293Y-93862210D01*
X59287769Y-93862164D01*
X59269957Y-93857116D01*
X59237493Y-93846276D01*
X59191784Y-93830342D01*
X59191784Y-93625869D01*
X59191494Y-93545528D01*
X59190144Y-93487258D01*
X59187039Y-93447605D01*
X59181482Y-93421314D01*
X59172777Y-93403132D01*
X59160226Y-93387803D01*
X59151669Y-93379651D01*
X59105398Y-93357071D01*
X59054398Y-93359071D01*
X59007663Y-93385769D01*
X59000859Y-93392394D01*
X58989963Y-93406152D01*
X58982506Y-93424338D01*
X58977839Y-93451873D01*
X58975312Y-93493677D01*
X58974272Y-93554669D01*
X58974070Y-93639769D01*
X58973973Y-93682930D01*
X58973344Y-93753920D01*
X58972226Y-93810772D01*
X58970733Y-93848524D01*
X58968979Y-93862210D01*
X58968455Y-93862164D01*
X58950643Y-93857116D01*
X58918179Y-93846276D01*
X58872470Y-93830342D01*
X58872493Y-93624933D01*
X58872527Y-93606647D01*
X58874448Y-93511322D01*
X58880348Y-93439239D01*
X58891671Y-93385509D01*
X58909857Y-93345245D01*
X58936349Y-93313557D01*
X58972588Y-93285557D01*
X59007933Y-93268029D01*
X59064443Y-93254481D01*
X59120026Y-93253711D01*
X59162756Y-93266891D01*
X59165968Y-93268711D01*
X59175875Y-93268516D01*
X59182645Y-93253268D01*
X59187531Y-93218309D01*
X59191784Y-93158985D01*
X59199041Y-93037243D01*
X59246213Y-93057140D01*
G37*
X59246213Y-93057140D02*
X59293384Y-93077038D01*
X59293384Y-93474205D01*
X59293189Y-93577194D01*
X59292668Y-93669837D01*
X59291869Y-93748396D01*
X59290842Y-93809135D01*
X59289633Y-93848319D01*
X59288293Y-93862210D01*
X59287769Y-93862164D01*
X59269957Y-93857116D01*
X59237493Y-93846276D01*
X59191784Y-93830342D01*
X59191784Y-93625869D01*
X59191494Y-93545528D01*
X59190144Y-93487258D01*
X59187039Y-93447605D01*
X59181482Y-93421314D01*
X59172777Y-93403132D01*
X59160226Y-93387803D01*
X59151669Y-93379651D01*
X59105398Y-93357071D01*
X59054398Y-93359071D01*
X59007663Y-93385769D01*
X59000859Y-93392394D01*
X58989963Y-93406152D01*
X58982506Y-93424338D01*
X58977839Y-93451873D01*
X58975312Y-93493677D01*
X58974272Y-93554669D01*
X58974070Y-93639769D01*
X58973973Y-93682930D01*
X58973344Y-93753920D01*
X58972226Y-93810772D01*
X58970733Y-93848524D01*
X58968979Y-93862210D01*
X58968455Y-93862164D01*
X58950643Y-93857116D01*
X58918179Y-93846276D01*
X58872470Y-93830342D01*
X58872493Y-93624933D01*
X58872527Y-93606647D01*
X58874448Y-93511322D01*
X58880348Y-93439239D01*
X58891671Y-93385509D01*
X58909857Y-93345245D01*
X58936349Y-93313557D01*
X58972588Y-93285557D01*
X59007933Y-93268029D01*
X59064443Y-93254481D01*
X59120026Y-93253711D01*
X59162756Y-93266891D01*
X59165968Y-93268711D01*
X59175875Y-93268516D01*
X59182645Y-93253268D01*
X59187531Y-93218309D01*
X59191784Y-93158985D01*
X59199041Y-93037243D01*
X59246213Y-93057140D01*
G36*
X60725354Y-93611774D02*
G01*
X60722748Y-93635083D01*
X60703330Y-93718048D01*
X60668243Y-93781144D01*
X60614882Y-93829504D01*
X60611866Y-93831500D01*
X60544032Y-93859881D01*
X60473205Y-93862407D01*
X60404959Y-93840793D01*
X60344866Y-93796758D01*
X60298499Y-93732018D01*
X60297720Y-93730457D01*
X60282313Y-93690254D01*
X60271027Y-93644562D01*
X60265040Y-93601668D01*
X60265531Y-93569856D01*
X60273677Y-93557410D01*
X60280914Y-93558167D01*
X60315521Y-93571931D01*
X60354748Y-93597242D01*
X60388118Y-93626541D01*
X60405153Y-93652268D01*
X60422862Y-93687167D01*
X60459155Y-93718908D01*
X60501300Y-93731582D01*
X60516747Y-93727917D01*
X60547239Y-93709470D01*
X60573798Y-93683862D01*
X60585156Y-93660630D01*
X60585152Y-93660544D01*
X60572266Y-93649875D01*
X60537911Y-93630629D01*
X60487263Y-93605509D01*
X60425499Y-93577220D01*
X60425159Y-93577070D01*
X60358058Y-93547194D01*
X60313081Y-93525669D01*
X60285815Y-93509133D01*
X60271848Y-93494227D01*
X60266767Y-93477589D01*
X60266160Y-93455858D01*
X60270382Y-93414709D01*
X60413670Y-93414709D01*
X60428461Y-93427645D01*
X60465314Y-93447029D01*
X60466395Y-93447577D01*
X60509875Y-93468283D01*
X60548772Y-93484801D01*
X60573448Y-93491789D01*
X60583346Y-93482449D01*
X60585156Y-93450444D01*
X60577636Y-93410611D01*
X60551567Y-93374413D01*
X60513824Y-93355646D01*
X60471747Y-93357541D01*
X60432675Y-93383328D01*
X60417317Y-93401147D01*
X60413670Y-93414709D01*
X60270382Y-93414709D01*
X60271503Y-93403782D01*
X60297921Y-93333031D01*
X60342143Y-93277431D01*
X60399367Y-93238935D01*
X60464790Y-93219493D01*
X60533607Y-93221055D01*
X60601017Y-93245574D01*
X60662214Y-93294998D01*
X60696120Y-93343908D01*
X60720476Y-93413723D01*
X60724437Y-93450444D01*
X60729969Y-93501751D01*
X60725354Y-93611774D01*
G37*
X60725354Y-93611774D02*
X60722748Y-93635083D01*
X60703330Y-93718048D01*
X60668243Y-93781144D01*
X60614882Y-93829504D01*
X60611866Y-93831500D01*
X60544032Y-93859881D01*
X60473205Y-93862407D01*
X60404959Y-93840793D01*
X60344866Y-93796758D01*
X60298499Y-93732018D01*
X60297720Y-93730457D01*
X60282313Y-93690254D01*
X60271027Y-93644562D01*
X60265040Y-93601668D01*
X60265531Y-93569856D01*
X60273677Y-93557410D01*
X60280914Y-93558167D01*
X60315521Y-93571931D01*
X60354748Y-93597242D01*
X60388118Y-93626541D01*
X60405153Y-93652268D01*
X60422862Y-93687167D01*
X60459155Y-93718908D01*
X60501300Y-93731582D01*
X60516747Y-93727917D01*
X60547239Y-93709470D01*
X60573798Y-93683862D01*
X60585156Y-93660630D01*
X60585152Y-93660544D01*
X60572266Y-93649875D01*
X60537911Y-93630629D01*
X60487263Y-93605509D01*
X60425499Y-93577220D01*
X60425159Y-93577070D01*
X60358058Y-93547194D01*
X60313081Y-93525669D01*
X60285815Y-93509133D01*
X60271848Y-93494227D01*
X60266767Y-93477589D01*
X60266160Y-93455858D01*
X60270382Y-93414709D01*
X60413670Y-93414709D01*
X60428461Y-93427645D01*
X60465314Y-93447029D01*
X60466395Y-93447577D01*
X60509875Y-93468283D01*
X60548772Y-93484801D01*
X60573448Y-93491789D01*
X60583346Y-93482449D01*
X60585156Y-93450444D01*
X60577636Y-93410611D01*
X60551567Y-93374413D01*
X60513824Y-93355646D01*
X60471747Y-93357541D01*
X60432675Y-93383328D01*
X60417317Y-93401147D01*
X60413670Y-93414709D01*
X60270382Y-93414709D01*
X60271503Y-93403782D01*
X60297921Y-93333031D01*
X60342143Y-93277431D01*
X60399367Y-93238935D01*
X60464790Y-93219493D01*
X60533607Y-93221055D01*
X60601017Y-93245574D01*
X60662214Y-93294998D01*
X60696120Y-93343908D01*
X60720476Y-93413723D01*
X60724437Y-93450444D01*
X60729969Y-93501751D01*
X60725354Y-93611774D01*
G36*
X58681603Y-88550067D02*
G01*
X58757526Y-88550561D01*
X58812161Y-88551831D01*
X58849170Y-88554243D01*
X58872217Y-88558163D01*
X58884966Y-88563958D01*
X58891081Y-88571995D01*
X58894226Y-88582639D01*
X58894316Y-88583021D01*
X58899484Y-88608043D01*
X58908879Y-88656377D01*
X58921537Y-88722956D01*
X58936495Y-88802710D01*
X58952789Y-88890571D01*
X58954118Y-88897760D01*
X58970361Y-88983036D01*
X58985475Y-89057938D01*
X58998478Y-89117915D01*
X59008385Y-89158413D01*
X59014214Y-89174880D01*
X59014245Y-89174906D01*
X59032613Y-89184016D01*
X59070310Y-89199153D01*
X59119213Y-89217054D01*
X59121967Y-89218026D01*
X59184487Y-89241655D01*
X59257213Y-89271291D01*
X59324964Y-89300758D01*
X59436373Y-89351322D01*
X59683069Y-89182856D01*
X59700445Y-89171007D01*
X59774872Y-89120643D01*
X59841284Y-89076308D01*
X59895709Y-89040612D01*
X59934176Y-89016167D01*
X59952712Y-89005585D01*
X59965413Y-89008011D01*
X59994249Y-89026806D01*
X60038813Y-89064026D01*
X60100340Y-89120716D01*
X60180068Y-89197923D01*
X60187202Y-89204951D01*
X60250466Y-89267918D01*
X60306660Y-89324964D01*
X60352347Y-89372513D01*
X60384084Y-89406993D01*
X60398434Y-89424827D01*
X60398480Y-89424913D01*
X60400303Y-89438491D01*
X60393580Y-89460516D01*
X60376616Y-89494000D01*
X60347714Y-89541957D01*
X60305178Y-89607400D01*
X60247314Y-89693341D01*
X60237453Y-89707847D01*
X60187583Y-89781331D01*
X60143575Y-89846383D01*
X60108050Y-89899113D01*
X60083629Y-89935632D01*
X60072934Y-89952052D01*
X60072128Y-89955530D01*
X60077188Y-89981481D01*
X60092347Y-90023855D01*
X60115133Y-90075424D01*
X60146099Y-90142866D01*
X60180674Y-90222891D01*
X60210036Y-90295325D01*
X60217315Y-90314073D01*
X60236380Y-90361942D01*
X60250385Y-90395292D01*
X60256711Y-90407810D01*
X60263695Y-90408746D01*
X60295083Y-90414157D01*
X60346457Y-90423502D01*
X60412472Y-90435765D01*
X60487783Y-90449928D01*
X60567045Y-90464976D01*
X60644913Y-90479891D01*
X60716040Y-90493657D01*
X60775082Y-90505258D01*
X60816692Y-90513676D01*
X60835527Y-90517895D01*
X60838650Y-90519085D01*
X60846261Y-90525501D01*
X60851924Y-90539161D01*
X60855921Y-90563695D01*
X60858536Y-90602734D01*
X60860054Y-90659909D01*
X60860756Y-90738850D01*
X60860927Y-90843188D01*
X60860927Y-91160495D01*
X60784727Y-91175535D01*
X60775510Y-91177338D01*
X60726561Y-91186676D01*
X60658875Y-91199365D01*
X60580148Y-91213969D01*
X60498070Y-91229051D01*
X60465748Y-91235118D01*
X60393525Y-91249877D01*
X60333336Y-91263833D01*
X60290710Y-91275648D01*
X60271180Y-91283983D01*
X60262330Y-91297601D01*
X60246218Y-91333634D01*
X60229735Y-91380268D01*
X60223933Y-91397730D01*
X60202576Y-91455054D01*
X60175029Y-91522897D01*
X60145777Y-91590051D01*
X60130133Y-91625126D01*
X60107844Y-91677518D01*
X60092527Y-91716754D01*
X60086832Y-91736259D01*
X60087148Y-91737732D01*
X60097951Y-91758425D01*
X60122308Y-91798361D01*
X60157751Y-91853668D01*
X60201806Y-91920477D01*
X60252002Y-91994916D01*
X60417171Y-92237319D01*
X60200173Y-92454679D01*
X60179186Y-92475595D01*
X60115012Y-92538201D01*
X60057660Y-92592191D01*
X60010490Y-92634522D01*
X59976862Y-92662153D01*
X59960137Y-92672039D01*
X59941973Y-92664517D01*
X59903935Y-92642923D01*
X59850396Y-92609847D01*
X59785554Y-92567887D01*
X59713610Y-92519639D01*
X59642945Y-92471987D01*
X59579196Y-92430024D01*
X59527183Y-92396861D01*
X59490949Y-92375074D01*
X59474537Y-92367239D01*
X59473575Y-92367310D01*
X59451773Y-92375034D01*
X59413110Y-92393019D01*
X59365282Y-92417709D01*
X59364780Y-92417980D01*
X59301257Y-92449795D01*
X59257730Y-92465338D01*
X59230722Y-92465381D01*
X59216760Y-92450696D01*
X59210850Y-92436240D01*
X59194899Y-92397527D01*
X59170330Y-92338012D01*
X59138449Y-92260861D01*
X59100563Y-92169237D01*
X59057980Y-92066303D01*
X59012007Y-91955222D01*
X58970337Y-91854168D01*
X58927938Y-91750476D01*
X58890426Y-91657815D01*
X58859058Y-91579338D01*
X58835095Y-91518196D01*
X58819793Y-91477539D01*
X58814413Y-91460521D01*
X58824688Y-91444915D01*
X58853233Y-91418858D01*
X58893641Y-91388583D01*
X58990649Y-91309380D01*
X59077463Y-91208171D01*
X59140992Y-91096812D01*
X59180847Y-90978589D01*
X59196635Y-90856791D01*
X59187966Y-90734706D01*
X59154448Y-90615621D01*
X59095691Y-90502825D01*
X59011302Y-90399607D01*
X58967301Y-90359409D01*
X58861881Y-90288334D01*
X58749080Y-90241997D01*
X58632195Y-90219295D01*
X58514523Y-90219124D01*
X58399360Y-90240383D01*
X58290005Y-90281966D01*
X58189753Y-90342772D01*
X58101903Y-90421697D01*
X58029750Y-90517637D01*
X57976592Y-90629491D01*
X57945727Y-90756153D01*
X57940062Y-90817203D01*
X57947855Y-90949472D01*
X57982954Y-91074962D01*
X58044319Y-91191455D01*
X58130913Y-91296735D01*
X58241699Y-91388583D01*
X58280601Y-91417626D01*
X58309774Y-91443968D01*
X58320927Y-91460496D01*
X58316480Y-91474905D01*
X58302048Y-91513511D01*
X58278843Y-91572897D01*
X58248122Y-91649911D01*
X58211144Y-91741399D01*
X58169166Y-91844212D01*
X58123448Y-91955198D01*
X58081848Y-92055768D01*
X58038892Y-92159643D01*
X58000499Y-92252515D01*
X57967975Y-92331221D01*
X57942628Y-92392595D01*
X57925765Y-92433475D01*
X57918695Y-92450696D01*
X57918613Y-92450900D01*
X57904468Y-92465441D01*
X57877329Y-92465275D01*
X57833693Y-92449623D01*
X57770058Y-92417709D01*
X57765049Y-92415022D01*
X57717795Y-92390846D01*
X57680481Y-92373733D01*
X57660803Y-92367239D01*
X57644675Y-92374914D01*
X57608629Y-92396567D01*
X57556762Y-92429624D01*
X57493115Y-92471506D01*
X57421730Y-92519639D01*
X57351394Y-92566827D01*
X57286340Y-92608963D01*
X57232490Y-92642274D01*
X57194044Y-92664165D01*
X57175204Y-92672039D01*
X57171995Y-92671039D01*
X57149624Y-92655280D01*
X57111403Y-92622729D01*
X57060691Y-92576429D01*
X57000851Y-92519422D01*
X56935241Y-92454754D01*
X56718318Y-92237468D01*
X56887271Y-91988949D01*
X57056223Y-91740429D01*
X57004853Y-91629291D01*
X57004701Y-91628962D01*
X56973853Y-91558114D01*
X56942331Y-91479219D01*
X56916936Y-91409296D01*
X56913093Y-91398018D01*
X56893717Y-91345663D01*
X56876244Y-91304979D01*
X56864058Y-91283983D01*
X56859096Y-91281018D01*
X56829304Y-91271071D01*
X56778717Y-91258201D01*
X56712864Y-91243749D01*
X56637270Y-91229051D01*
X56614627Y-91224906D01*
X56532708Y-91209812D01*
X56456270Y-91195595D01*
X56393007Y-91183691D01*
X56350613Y-91175535D01*
X56274413Y-91160495D01*
X56274413Y-90843188D01*
X56274430Y-90804172D01*
X56274752Y-90708988D01*
X56275703Y-90637951D01*
X56277566Y-90587430D01*
X56280625Y-90553794D01*
X56285164Y-90533414D01*
X56291465Y-90522658D01*
X56299813Y-90517895D01*
X56307894Y-90515966D01*
X56340842Y-90509141D01*
X56393406Y-90498718D01*
X56460239Y-90485714D01*
X56535998Y-90471145D01*
X56615335Y-90456029D01*
X56692907Y-90441381D01*
X56763368Y-90428219D01*
X56821372Y-90417559D01*
X56861574Y-90410417D01*
X56878629Y-90407810D01*
X56879782Y-90406237D01*
X56889055Y-90385815D01*
X56905102Y-90346741D01*
X56925305Y-90295325D01*
X56953342Y-90226049D01*
X56987856Y-90145986D01*
X57020208Y-90075424D01*
X57027622Y-90059585D01*
X57048425Y-90009989D01*
X57060889Y-89971734D01*
X57062533Y-89952052D01*
X57061685Y-89950658D01*
X57048218Y-89930116D01*
X57021520Y-89890212D01*
X56984209Y-89834836D01*
X56938904Y-89767873D01*
X56888222Y-89693213D01*
X56831115Y-89608388D01*
X56788277Y-89542496D01*
X56759130Y-89494174D01*
X56741987Y-89460429D01*
X56735165Y-89438268D01*
X56736976Y-89424698D01*
X56737585Y-89423680D01*
X56753967Y-89403906D01*
X56787365Y-89367871D01*
X56834341Y-89319147D01*
X56891456Y-89261308D01*
X56955273Y-89197923D01*
X57021472Y-89133601D01*
X57086318Y-89073143D01*
X57133969Y-89032351D01*
X57165660Y-89010180D01*
X57182628Y-89005585D01*
X57184845Y-89006617D01*
X57208194Y-89020533D01*
X57250582Y-89047726D01*
X57308039Y-89085585D01*
X57376593Y-89131499D01*
X57452271Y-89182856D01*
X57698968Y-89351322D01*
X57810376Y-89300758D01*
X57813613Y-89299293D01*
X57882013Y-89269661D01*
X57954577Y-89240189D01*
X58016127Y-89217054D01*
X58016399Y-89216958D01*
X58065265Y-89199063D01*
X58102882Y-89183949D01*
X58121127Y-89174880D01*
X58121422Y-89174551D01*
X58127616Y-89155978D01*
X58137809Y-89113741D01*
X58151018Y-89052392D01*
X58166260Y-88976485D01*
X58182551Y-88890571D01*
X58183119Y-88887492D01*
X58199383Y-88799824D01*
X58214278Y-88720437D01*
X58226841Y-88654397D01*
X58236108Y-88606775D01*
X58241114Y-88582639D01*
X58241434Y-88581301D01*
X58244730Y-88570969D01*
X58251408Y-88563202D01*
X58265132Y-88557636D01*
X58289565Y-88553903D01*
X58328372Y-88551638D01*
X58385216Y-88550474D01*
X58463760Y-88550044D01*
X58567670Y-88549982D01*
X58580726Y-88549982D01*
X58681603Y-88550067D01*
G37*
X58681603Y-88550067D02*
X58757526Y-88550561D01*
X58812161Y-88551831D01*
X58849170Y-88554243D01*
X58872217Y-88558163D01*
X58884966Y-88563958D01*
X58891081Y-88571995D01*
X58894226Y-88582639D01*
X58894316Y-88583021D01*
X58899484Y-88608043D01*
X58908879Y-88656377D01*
X58921537Y-88722956D01*
X58936495Y-88802710D01*
X58952789Y-88890571D01*
X58954118Y-88897760D01*
X58970361Y-88983036D01*
X58985475Y-89057938D01*
X58998478Y-89117915D01*
X59008385Y-89158413D01*
X59014214Y-89174880D01*
X59014245Y-89174906D01*
X59032613Y-89184016D01*
X59070310Y-89199153D01*
X59119213Y-89217054D01*
X59121967Y-89218026D01*
X59184487Y-89241655D01*
X59257213Y-89271291D01*
X59324964Y-89300758D01*
X59436373Y-89351322D01*
X59683069Y-89182856D01*
X59700445Y-89171007D01*
X59774872Y-89120643D01*
X59841284Y-89076308D01*
X59895709Y-89040612D01*
X59934176Y-89016167D01*
X59952712Y-89005585D01*
X59965413Y-89008011D01*
X59994249Y-89026806D01*
X60038813Y-89064026D01*
X60100340Y-89120716D01*
X60180068Y-89197923D01*
X60187202Y-89204951D01*
X60250466Y-89267918D01*
X60306660Y-89324964D01*
X60352347Y-89372513D01*
X60384084Y-89406993D01*
X60398434Y-89424827D01*
X60398480Y-89424913D01*
X60400303Y-89438491D01*
X60393580Y-89460516D01*
X60376616Y-89494000D01*
X60347714Y-89541957D01*
X60305178Y-89607400D01*
X60247314Y-89693341D01*
X60237453Y-89707847D01*
X60187583Y-89781331D01*
X60143575Y-89846383D01*
X60108050Y-89899113D01*
X60083629Y-89935632D01*
X60072934Y-89952052D01*
X60072128Y-89955530D01*
X60077188Y-89981481D01*
X60092347Y-90023855D01*
X60115133Y-90075424D01*
X60146099Y-90142866D01*
X60180674Y-90222891D01*
X60210036Y-90295325D01*
X60217315Y-90314073D01*
X60236380Y-90361942D01*
X60250385Y-90395292D01*
X60256711Y-90407810D01*
X60263695Y-90408746D01*
X60295083Y-90414157D01*
X60346457Y-90423502D01*
X60412472Y-90435765D01*
X60487783Y-90449928D01*
X60567045Y-90464976D01*
X60644913Y-90479891D01*
X60716040Y-90493657D01*
X60775082Y-90505258D01*
X60816692Y-90513676D01*
X60835527Y-90517895D01*
X60838650Y-90519085D01*
X60846261Y-90525501D01*
X60851924Y-90539161D01*
X60855921Y-90563695D01*
X60858536Y-90602734D01*
X60860054Y-90659909D01*
X60860756Y-90738850D01*
X60860927Y-90843188D01*
X60860927Y-91160495D01*
X60784727Y-91175535D01*
X60775510Y-91177338D01*
X60726561Y-91186676D01*
X60658875Y-91199365D01*
X60580148Y-91213969D01*
X60498070Y-91229051D01*
X60465748Y-91235118D01*
X60393525Y-91249877D01*
X60333336Y-91263833D01*
X60290710Y-91275648D01*
X60271180Y-91283983D01*
X60262330Y-91297601D01*
X60246218Y-91333634D01*
X60229735Y-91380268D01*
X60223933Y-91397730D01*
X60202576Y-91455054D01*
X60175029Y-91522897D01*
X60145777Y-91590051D01*
X60130133Y-91625126D01*
X60107844Y-91677518D01*
X60092527Y-91716754D01*
X60086832Y-91736259D01*
X60087148Y-91737732D01*
X60097951Y-91758425D01*
X60122308Y-91798361D01*
X60157751Y-91853668D01*
X60201806Y-91920477D01*
X60252002Y-91994916D01*
X60417171Y-92237319D01*
X60200173Y-92454679D01*
X60179186Y-92475595D01*
X60115012Y-92538201D01*
X60057660Y-92592191D01*
X60010490Y-92634522D01*
X59976862Y-92662153D01*
X59960137Y-92672039D01*
X59941973Y-92664517D01*
X59903935Y-92642923D01*
X59850396Y-92609847D01*
X59785554Y-92567887D01*
X59713610Y-92519639D01*
X59642945Y-92471987D01*
X59579196Y-92430024D01*
X59527183Y-92396861D01*
X59490949Y-92375074D01*
X59474537Y-92367239D01*
X59473575Y-92367310D01*
X59451773Y-92375034D01*
X59413110Y-92393019D01*
X59365282Y-92417709D01*
X59364780Y-92417980D01*
X59301257Y-92449795D01*
X59257730Y-92465338D01*
X59230722Y-92465381D01*
X59216760Y-92450696D01*
X59210850Y-92436240D01*
X59194899Y-92397527D01*
X59170330Y-92338012D01*
X59138449Y-92260861D01*
X59100563Y-92169237D01*
X59057980Y-92066303D01*
X59012007Y-91955222D01*
X58970337Y-91854168D01*
X58927938Y-91750476D01*
X58890426Y-91657815D01*
X58859058Y-91579338D01*
X58835095Y-91518196D01*
X58819793Y-91477539D01*
X58814413Y-91460521D01*
X58824688Y-91444915D01*
X58853233Y-91418858D01*
X58893641Y-91388583D01*
X58990649Y-91309380D01*
X59077463Y-91208171D01*
X59140992Y-91096812D01*
X59180847Y-90978589D01*
X59196635Y-90856791D01*
X59187966Y-90734706D01*
X59154448Y-90615621D01*
X59095691Y-90502825D01*
X59011302Y-90399607D01*
X58967301Y-90359409D01*
X58861881Y-90288334D01*
X58749080Y-90241997D01*
X58632195Y-90219295D01*
X58514523Y-90219124D01*
X58399360Y-90240383D01*
X58290005Y-90281966D01*
X58189753Y-90342772D01*
X58101903Y-90421697D01*
X58029750Y-90517637D01*
X57976592Y-90629491D01*
X57945727Y-90756153D01*
X57940062Y-90817203D01*
X57947855Y-90949472D01*
X57982954Y-91074962D01*
X58044319Y-91191455D01*
X58130913Y-91296735D01*
X58241699Y-91388583D01*
X58280601Y-91417626D01*
X58309774Y-91443968D01*
X58320927Y-91460496D01*
X58316480Y-91474905D01*
X58302048Y-91513511D01*
X58278843Y-91572897D01*
X58248122Y-91649911D01*
X58211144Y-91741399D01*
X58169166Y-91844212D01*
X58123448Y-91955198D01*
X58081848Y-92055768D01*
X58038892Y-92159643D01*
X58000499Y-92252515D01*
X57967975Y-92331221D01*
X57942628Y-92392595D01*
X57925765Y-92433475D01*
X57918695Y-92450696D01*
X57918613Y-92450900D01*
X57904468Y-92465441D01*
X57877329Y-92465275D01*
X57833693Y-92449623D01*
X57770058Y-92417709D01*
X57765049Y-92415022D01*
X57717795Y-92390846D01*
X57680481Y-92373733D01*
X57660803Y-92367239D01*
X57644675Y-92374914D01*
X57608629Y-92396567D01*
X57556762Y-92429624D01*
X57493115Y-92471506D01*
X57421730Y-92519639D01*
X57351394Y-92566827D01*
X57286340Y-92608963D01*
X57232490Y-92642274D01*
X57194044Y-92664165D01*
X57175204Y-92672039D01*
X57171995Y-92671039D01*
X57149624Y-92655280D01*
X57111403Y-92622729D01*
X57060691Y-92576429D01*
X57000851Y-92519422D01*
X56935241Y-92454754D01*
X56718318Y-92237468D01*
X56887271Y-91988949D01*
X57056223Y-91740429D01*
X57004853Y-91629291D01*
X57004701Y-91628962D01*
X56973853Y-91558114D01*
X56942331Y-91479219D01*
X56916936Y-91409296D01*
X56913093Y-91398018D01*
X56893717Y-91345663D01*
X56876244Y-91304979D01*
X56864058Y-91283983D01*
X56859096Y-91281018D01*
X56829304Y-91271071D01*
X56778717Y-91258201D01*
X56712864Y-91243749D01*
X56637270Y-91229051D01*
X56614627Y-91224906D01*
X56532708Y-91209812D01*
X56456270Y-91195595D01*
X56393007Y-91183691D01*
X56350613Y-91175535D01*
X56274413Y-91160495D01*
X56274413Y-90843188D01*
X56274430Y-90804172D01*
X56274752Y-90708988D01*
X56275703Y-90637951D01*
X56277566Y-90587430D01*
X56280625Y-90553794D01*
X56285164Y-90533414D01*
X56291465Y-90522658D01*
X56299813Y-90517895D01*
X56307894Y-90515966D01*
X56340842Y-90509141D01*
X56393406Y-90498718D01*
X56460239Y-90485714D01*
X56535998Y-90471145D01*
X56615335Y-90456029D01*
X56692907Y-90441381D01*
X56763368Y-90428219D01*
X56821372Y-90417559D01*
X56861574Y-90410417D01*
X56878629Y-90407810D01*
X56879782Y-90406237D01*
X56889055Y-90385815D01*
X56905102Y-90346741D01*
X56925305Y-90295325D01*
X56953342Y-90226049D01*
X56987856Y-90145986D01*
X57020208Y-90075424D01*
X57027622Y-90059585D01*
X57048425Y-90009989D01*
X57060889Y-89971734D01*
X57062533Y-89952052D01*
X57061685Y-89950658D01*
X57048218Y-89930116D01*
X57021520Y-89890212D01*
X56984209Y-89834836D01*
X56938904Y-89767873D01*
X56888222Y-89693213D01*
X56831115Y-89608388D01*
X56788277Y-89542496D01*
X56759130Y-89494174D01*
X56741987Y-89460429D01*
X56735165Y-89438268D01*
X56736976Y-89424698D01*
X56737585Y-89423680D01*
X56753967Y-89403906D01*
X56787365Y-89367871D01*
X56834341Y-89319147D01*
X56891456Y-89261308D01*
X56955273Y-89197923D01*
X57021472Y-89133601D01*
X57086318Y-89073143D01*
X57133969Y-89032351D01*
X57165660Y-89010180D01*
X57182628Y-89005585D01*
X57184845Y-89006617D01*
X57208194Y-89020533D01*
X57250582Y-89047726D01*
X57308039Y-89085585D01*
X57376593Y-89131499D01*
X57452271Y-89182856D01*
X57698968Y-89351322D01*
X57810376Y-89300758D01*
X57813613Y-89299293D01*
X57882013Y-89269661D01*
X57954577Y-89240189D01*
X58016127Y-89217054D01*
X58016399Y-89216958D01*
X58065265Y-89199063D01*
X58102882Y-89183949D01*
X58121127Y-89174880D01*
X58121422Y-89174551D01*
X58127616Y-89155978D01*
X58137809Y-89113741D01*
X58151018Y-89052392D01*
X58166260Y-88976485D01*
X58182551Y-88890571D01*
X58183119Y-88887492D01*
X58199383Y-88799824D01*
X58214278Y-88720437D01*
X58226841Y-88654397D01*
X58236108Y-88606775D01*
X58241114Y-88582639D01*
X58241434Y-88581301D01*
X58244730Y-88570969D01*
X58251408Y-88563202D01*
X58265132Y-88557636D01*
X58289565Y-88553903D01*
X58328372Y-88551638D01*
X58385216Y-88550474D01*
X58463760Y-88550044D01*
X58567670Y-88549982D01*
X58580726Y-88549982D01*
X58681603Y-88550067D01*
%TD*%
M02*
