%TF.GenerationSoftware,KiCad,Pcbnew,(6.0.7-1)-1*%
%TF.CreationDate,2022-12-12T14:07:08+01:00*%
%TF.ProjectId,panel,70616e65-6c2e-46b6-9963-61645f706362,rev?*%
%TF.SameCoordinates,Original*%
%TF.FileFunction,Drillmap*%
%TF.FilePolarity,Positive*%
%FSLAX45Y45*%
G04 Gerber Fmt 4.5, Leading zero omitted, Abs format (unit mm)*
G04 Created by KiCad (PCBNEW (6.0.7-1)-1) date 2022-12-12 14:07:08*
%MOMM*%
%LPD*%
G01*
G04 APERTURE LIST*
%ADD10C,0.200000*%
G04 APERTURE END LIST*
D10*
X6294800Y-2531700D02*
G75*
G03*
X6294800Y-2350300I-291180J90700D01*
G01*
X3080200Y-2266000D02*
X2727000Y-2266000D01*
X6649900Y-6741000D02*
G75*
G03*
X6649900Y-6741000I-690000J0D01*
G01*
X2203600Y-2141000D02*
X6741600Y-2141000D01*
X3150050Y-5321000D02*
X5441950Y-5321000D01*
X2612400Y-2531700D02*
G75*
G03*
X2727001Y-2616000I114565J35697D01*
G01*
X3080200Y-14506000D02*
X2727000Y-14506000D01*
X5712400Y-14771700D02*
G75*
G03*
X5827000Y-14856000I114565J35697D01*
G01*
X6741600Y-2141000D02*
X6741600Y-14981000D01*
X3053600Y-11631000D02*
G75*
G03*
X3053600Y-11631000I-300000J0D01*
G01*
X3194800Y-2531700D02*
G75*
G03*
X3194800Y-2350300I-291197J90700D01*
G01*
X6180200Y-14506000D02*
X5827000Y-14506000D01*
X4713600Y-12186000D02*
G75*
G03*
X4713600Y-12186000I-300000J0D01*
G01*
X2612400Y-2350300D02*
G75*
G03*
X2612400Y-2531700I291203J-90700D01*
G01*
X6253600Y-13251000D02*
G75*
G03*
X6253600Y-13251000I-300000J0D01*
G01*
X5827000Y-14506000D02*
G75*
G03*
X5712400Y-14590300I-23J-120013D01*
G01*
X6180200Y-2266000D02*
X5827000Y-2266000D01*
X5712400Y-2350300D02*
G75*
G03*
X5712400Y-2531700I291220J-90700D01*
G01*
X5238300Y-6741000D02*
G75*
G03*
X5238300Y-6741000I-690000J0D01*
G01*
X4713600Y-13251000D02*
G75*
G03*
X4713600Y-13251000I-300000J0D01*
G01*
X2727000Y-2616000D02*
X3080200Y-2616000D01*
X4713600Y-10041000D02*
G75*
G03*
X4713600Y-10041000I-300000J0D01*
G01*
X6180200Y-2616000D02*
G75*
G03*
X6294800Y-2531700I23J120014D01*
G01*
X2612400Y-14590300D02*
G75*
G03*
X2612400Y-14771700I291203J-90700D01*
G01*
X3194800Y-2350300D02*
G75*
G03*
X3080200Y-2266000I-114567J-35701D01*
G01*
X3000050Y-4571000D02*
X3000050Y-5171000D01*
X3000050Y-5171000D02*
G75*
G03*
X3150050Y-5321000I149999J-1D01*
G01*
X6294797Y-14590301D02*
G75*
G03*
X6180200Y-14506000I-114567J-35699D01*
G01*
X6253600Y-10041000D02*
G75*
G03*
X6253600Y-10041000I-300000J0D01*
G01*
X6294797Y-2350301D02*
G75*
G03*
X6180200Y-2266000I-114567J-35699D01*
G01*
X2727000Y-14856000D02*
X3080200Y-14856000D01*
X3080200Y-2616000D02*
G75*
G03*
X3194800Y-2531700I23J120014D01*
G01*
X5441950Y-5321000D02*
G75*
G03*
X5591950Y-5171000I-4J150004D01*
G01*
X5591950Y-4571000D02*
G75*
G03*
X5441950Y-4421000I-150000J0D01*
G01*
X5441950Y-4421000D02*
X3150050Y-4421000D01*
X3194800Y-14590300D02*
G75*
G03*
X3080200Y-14506000I-114567J-35701D01*
G01*
X5712400Y-14590300D02*
G75*
G03*
X5712400Y-14771700I291220J-90700D01*
G01*
X2612400Y-14771700D02*
G75*
G03*
X2727001Y-14856000I114565J35697D01*
G01*
X5827000Y-2266000D02*
G75*
G03*
X5712400Y-2350300I-23J-120013D01*
G01*
X6180200Y-14856000D02*
G75*
G03*
X6294800Y-14771700I23J120014D01*
G01*
X5591950Y-5171000D02*
X5591950Y-4571000D01*
X6253600Y-12186000D02*
G75*
G03*
X6253600Y-12186000I-300000J0D01*
G01*
X6294800Y-14771700D02*
G75*
G03*
X6294800Y-14590300I-291180J90700D01*
G01*
X2727000Y-2266000D02*
G75*
G03*
X2612400Y-2350300I-24J-120013D01*
G01*
X4713600Y-11101000D02*
G75*
G03*
X4713600Y-11101000I-300000J0D01*
G01*
X3483600Y-6745600D02*
G75*
G03*
X3483600Y-6745600I-450000J0D01*
G01*
X5827000Y-2616000D02*
X6180200Y-2616000D01*
X6741600Y-14981000D02*
X2203600Y-14981000D01*
X5712400Y-2531700D02*
G75*
G03*
X5827000Y-2616000I114565J35697D01*
G01*
X6253600Y-11101000D02*
G75*
G03*
X6253600Y-11101000I-300000J0D01*
G01*
X2203600Y-14981000D02*
X2203600Y-2141000D01*
X2727000Y-14506000D02*
G75*
G03*
X2612400Y-14590300I-24J-120013D01*
G01*
X5827000Y-14856000D02*
X6180200Y-14856000D01*
X3080200Y-14856000D02*
G75*
G03*
X3194800Y-14771700I23J120014D01*
G01*
X3150050Y-4421000D02*
G75*
G03*
X3000050Y-4571000I6J-150006D01*
G01*
X3194800Y-14771700D02*
G75*
G03*
X3194800Y-14590300I-291197J90700D01*
G01*
X3053600Y-13101000D02*
G75*
G03*
X3053600Y-13101000I-300000J0D01*
G01*
X2451219Y-15301476D02*
X2451219Y-15101476D01*
X2498838Y-15101476D01*
X2527410Y-15111000D01*
X2546457Y-15130048D01*
X2555981Y-15149095D01*
X2565505Y-15187190D01*
X2565505Y-15215762D01*
X2555981Y-15253857D01*
X2546457Y-15272905D01*
X2527410Y-15291952D01*
X2498838Y-15301476D01*
X2451219Y-15301476D01*
X2651219Y-15301476D02*
X2651219Y-15168143D01*
X2651219Y-15206238D02*
X2660743Y-15187190D01*
X2670267Y-15177667D01*
X2689314Y-15168143D01*
X2708362Y-15168143D01*
X2775029Y-15301476D02*
X2775029Y-15168143D01*
X2775029Y-15101476D02*
X2765505Y-15111000D01*
X2775029Y-15120524D01*
X2784552Y-15111000D01*
X2775029Y-15101476D01*
X2775029Y-15120524D01*
X2898838Y-15301476D02*
X2879790Y-15291952D01*
X2870267Y-15272905D01*
X2870267Y-15101476D01*
X3003600Y-15301476D02*
X2984552Y-15291952D01*
X2975028Y-15272905D01*
X2975028Y-15101476D01*
X3232171Y-15301476D02*
X3232171Y-15101476D01*
X3298838Y-15244333D01*
X3365505Y-15101476D01*
X3365505Y-15301476D01*
X3546457Y-15301476D02*
X3546457Y-15196714D01*
X3536933Y-15177667D01*
X3517886Y-15168143D01*
X3479790Y-15168143D01*
X3460743Y-15177667D01*
X3546457Y-15291952D02*
X3527409Y-15301476D01*
X3479790Y-15301476D01*
X3460743Y-15291952D01*
X3451219Y-15272905D01*
X3451219Y-15253857D01*
X3460743Y-15234809D01*
X3479790Y-15225286D01*
X3527409Y-15225286D01*
X3546457Y-15215762D01*
X3641695Y-15168143D02*
X3641695Y-15368143D01*
X3641695Y-15177667D02*
X3660743Y-15168143D01*
X3698838Y-15168143D01*
X3717886Y-15177667D01*
X3727409Y-15187190D01*
X3736933Y-15206238D01*
X3736933Y-15263381D01*
X3727409Y-15282428D01*
X3717886Y-15291952D01*
X3698838Y-15301476D01*
X3660743Y-15301476D01*
X3641695Y-15291952D01*
X3822648Y-15282428D02*
X3832171Y-15291952D01*
X3822648Y-15301476D01*
X3813124Y-15291952D01*
X3822648Y-15282428D01*
X3822648Y-15301476D01*
X3822648Y-15177667D02*
X3832171Y-15187190D01*
X3822648Y-15196714D01*
X3813124Y-15187190D01*
X3822648Y-15177667D01*
X3822648Y-15196714D01*
M02*
