%TF.GenerationSoftware,KiCad,Pcbnew,(6.0.7-1)-1*%
%TF.CreationDate,2022-12-12T14:07:04+01:00*%
%TF.ProjectId,panel,70616e65-6c2e-46b6-9963-61645f706362,rev?*%
%TF.SameCoordinates,Original*%
%TF.FileFunction,Copper,L1,Top*%
%TF.FilePolarity,Positive*%
%FSLAX46Y46*%
G04 Gerber Fmt 4.6, Leading zero omitted, Abs format (unit mm)*
G04 Created by KiCad (PCBNEW (6.0.7-1)-1) date 2022-12-12 14:07:04*
%MOMM*%
%LPD*%
G01*
G04 APERTURE LIST*
G04 APERTURE END LIST*
%TA.AperFunction,NonConductor*%
G36*
X27054924Y-21938502D02*
G01*
X27101417Y-21992158D01*
X27111521Y-22062432D01*
X27082027Y-22127012D01*
X27022301Y-22165396D01*
X27013230Y-22167698D01*
X26945424Y-22182243D01*
X26793494Y-22214833D01*
X26567033Y-22298086D01*
X26563119Y-22300190D01*
X26563115Y-22300192D01*
X26563091Y-22300205D01*
X26354518Y-22412334D01*
X26350936Y-22414969D01*
X26350933Y-22414971D01*
X26181671Y-22539488D01*
X26160164Y-22555310D01*
X25987829Y-22724178D01*
X25985131Y-22727693D01*
X25985127Y-22727698D01*
X25843635Y-22912065D01*
X25840933Y-22915586D01*
X25838754Y-22919449D01*
X25838750Y-22919455D01*
X25838739Y-22919475D01*
X25722390Y-23125736D01*
X25704911Y-23170454D01*
X25648028Y-23315980D01*
X25643086Y-23327026D01*
X25637424Y-23338206D01*
X25637403Y-23338270D01*
X25637393Y-23338290D01*
X25633514Y-23350229D01*
X25632741Y-23355027D01*
X25632739Y-23355036D01*
X25631407Y-23363309D01*
X25628815Y-23375515D01*
X25556741Y-23647753D01*
X25504003Y-23950372D01*
X25477535Y-24256410D01*
X25477535Y-24563590D01*
X25504003Y-24869628D01*
X25556741Y-25172247D01*
X25587794Y-25289539D01*
X25625398Y-25431578D01*
X25628442Y-25446828D01*
X25629342Y-25453438D01*
X25629928Y-25457741D01*
X25629948Y-25457808D01*
X25629949Y-25457815D01*
X25631281Y-25462280D01*
X25631283Y-25462289D01*
X25631593Y-25463327D01*
X25631602Y-25463356D01*
X25633514Y-25469771D01*
X25633517Y-25469778D01*
X25633537Y-25469844D01*
X25635709Y-25474407D01*
X25637517Y-25478205D01*
X25641103Y-25486491D01*
X25705598Y-25651500D01*
X25722322Y-25694288D01*
X25788404Y-25811435D01*
X25838668Y-25900541D01*
X25840874Y-25904452D01*
X25987785Y-26095869D01*
X25990964Y-26098984D01*
X25990966Y-26098986D01*
X26156960Y-26261626D01*
X26156966Y-26261631D01*
X26160139Y-26264740D01*
X26354516Y-26407712D01*
X26358424Y-26409812D01*
X26358428Y-26409815D01*
X26437332Y-26452224D01*
X26567056Y-26521948D01*
X26793542Y-26605180D01*
X26797883Y-26606111D01*
X26797888Y-26606112D01*
X26938305Y-26636212D01*
X27029477Y-26655756D01*
X27233241Y-26670077D01*
X27245260Y-26671505D01*
X27257626Y-26673581D01*
X27262490Y-26673639D01*
X27262493Y-26673639D01*
X27264112Y-26673658D01*
X27270178Y-26673730D01*
X27297700Y-26669779D01*
X27315605Y-26668500D01*
X30748695Y-26668500D01*
X30769619Y-26670250D01*
X30789357Y-26673574D01*
X30796423Y-26673661D01*
X30797045Y-26673669D01*
X30797046Y-26673669D01*
X30801909Y-26673729D01*
X30811264Y-26672391D01*
X30820234Y-26671434D01*
X31042592Y-26655772D01*
X31278504Y-26605167D01*
X31282678Y-26603633D01*
X31282680Y-26603632D01*
X31500795Y-26523448D01*
X31504965Y-26521915D01*
X31508880Y-26519811D01*
X31508883Y-26519809D01*
X31713485Y-26409815D01*
X31717481Y-26407667D01*
X31721069Y-26405028D01*
X31908249Y-26267329D01*
X31911835Y-26264691D01*
X32084170Y-26095823D01*
X32231067Y-25904416D01*
X32349610Y-25694265D01*
X32423965Y-25504036D01*
X32428912Y-25492979D01*
X32431594Y-25487685D01*
X32434576Y-25481796D01*
X32434601Y-25481720D01*
X32434606Y-25481711D01*
X32438485Y-25469772D01*
X32439274Y-25464876D01*
X32440595Y-25456675D01*
X32443188Y-25444466D01*
X32514563Y-25174875D01*
X32514565Y-25174864D01*
X32515258Y-25172248D01*
X32567996Y-24869629D01*
X32594464Y-24563591D01*
X32594464Y-24256411D01*
X32567996Y-23950373D01*
X32515258Y-23647754D01*
X32481510Y-23520284D01*
X32446603Y-23388432D01*
X32443559Y-23373181D01*
X32442730Y-23367094D01*
X32442730Y-23367092D01*
X32442072Y-23362260D01*
X32438486Y-23350230D01*
X32438478Y-23350214D01*
X32438465Y-23350169D01*
X32433915Y-23340610D01*
X32430329Y-23332323D01*
X32351218Y-23129898D01*
X32351217Y-23129896D01*
X32349601Y-23125761D01*
X32347403Y-23121863D01*
X32233246Y-22919475D01*
X32231062Y-22915603D01*
X32228360Y-22912083D01*
X32228356Y-22912076D01*
X32086872Y-22727715D01*
X32084166Y-22724189D01*
X31911827Y-22555318D01*
X31717468Y-22412342D01*
X31504944Y-22298098D01*
X31278475Y-22214855D01*
X31058577Y-22167699D01*
X30996165Y-22133858D01*
X30961956Y-22071647D01*
X30966812Y-22000816D01*
X31009190Y-21943855D01*
X31075637Y-21918848D01*
X31084997Y-21918500D01*
X57986803Y-21918500D01*
X58054924Y-21938502D01*
X58101417Y-21992158D01*
X58111521Y-22062432D01*
X58082027Y-22127012D01*
X58022301Y-22165396D01*
X58013230Y-22167698D01*
X57945424Y-22182243D01*
X57793494Y-22214833D01*
X57567033Y-22298086D01*
X57563119Y-22300190D01*
X57563115Y-22300192D01*
X57563091Y-22300205D01*
X57354518Y-22412334D01*
X57350936Y-22414969D01*
X57350933Y-22414971D01*
X57181671Y-22539488D01*
X57160164Y-22555310D01*
X56987829Y-22724178D01*
X56985131Y-22727693D01*
X56985127Y-22727698D01*
X56843635Y-22912065D01*
X56840933Y-22915586D01*
X56838754Y-22919449D01*
X56838750Y-22919455D01*
X56838739Y-22919475D01*
X56722390Y-23125736D01*
X56704911Y-23170454D01*
X56648028Y-23315980D01*
X56643086Y-23327026D01*
X56637424Y-23338206D01*
X56637400Y-23338281D01*
X56637390Y-23338300D01*
X56633511Y-23350239D01*
X56632736Y-23355052D01*
X56631405Y-23363317D01*
X56628814Y-23375522D01*
X56556744Y-23647760D01*
X56556275Y-23650450D01*
X56556275Y-23650451D01*
X56512465Y-23901855D01*
X56504009Y-23950377D01*
X56477544Y-24256412D01*
X56477544Y-24563588D01*
X56504009Y-24869623D01*
X56504477Y-24872309D01*
X56504478Y-24872316D01*
X56556275Y-25169549D01*
X56556744Y-25172240D01*
X56621962Y-25418595D01*
X56625395Y-25431563D01*
X56628438Y-25446806D01*
X56629925Y-25457732D01*
X56631313Y-25462387D01*
X56631314Y-25462393D01*
X56631790Y-25463986D01*
X56633511Y-25469761D01*
X56633516Y-25469771D01*
X56633534Y-25469832D01*
X56635666Y-25474310D01*
X56635669Y-25474318D01*
X56638083Y-25479388D01*
X56641674Y-25487685D01*
X56705696Y-25651500D01*
X56722399Y-25694240D01*
X56840938Y-25904398D01*
X56843640Y-25907918D01*
X56843644Y-25907925D01*
X56985128Y-26092286D01*
X56987834Y-26095812D01*
X57160173Y-26264683D01*
X57354533Y-26407659D01*
X57567056Y-26521903D01*
X57793526Y-26605147D01*
X58029446Y-26655738D01*
X58033878Y-26656050D01*
X58033879Y-26656050D01*
X58233192Y-26670074D01*
X58245219Y-26671504D01*
X58252772Y-26672773D01*
X58252787Y-26672774D01*
X58257584Y-26673580D01*
X58263899Y-26673655D01*
X58265265Y-26673672D01*
X58265268Y-26673672D01*
X58270136Y-26673730D01*
X58297690Y-26669777D01*
X58315582Y-26668500D01*
X61748695Y-26668500D01*
X61769619Y-26670250D01*
X61789357Y-26673574D01*
X61796423Y-26673661D01*
X61797045Y-26673669D01*
X61797046Y-26673669D01*
X61801909Y-26673729D01*
X61811264Y-26672391D01*
X61820234Y-26671434D01*
X62042592Y-26655772D01*
X62278504Y-26605167D01*
X62282678Y-26603633D01*
X62282680Y-26603632D01*
X62500795Y-26523448D01*
X62504965Y-26521915D01*
X62508880Y-26519811D01*
X62508883Y-26519809D01*
X62713485Y-26409815D01*
X62717481Y-26407667D01*
X62721069Y-26405028D01*
X62908249Y-26267329D01*
X62911835Y-26264691D01*
X63084170Y-26095823D01*
X63231067Y-25904416D01*
X63349610Y-25694265D01*
X63423965Y-25504036D01*
X63428912Y-25492979D01*
X63432487Y-25485921D01*
X63432487Y-25485920D01*
X63434576Y-25481796D01*
X63434597Y-25481733D01*
X63434603Y-25481720D01*
X63438482Y-25469782D01*
X63439255Y-25464985D01*
X63439258Y-25464972D01*
X63440592Y-25456691D01*
X63443184Y-25444487D01*
X63511254Y-25187389D01*
X63515261Y-25172256D01*
X63567536Y-24872318D01*
X63567538Y-24872309D01*
X63567539Y-24872304D01*
X63568004Y-24869634D01*
X63594474Y-24563593D01*
X63594474Y-24256409D01*
X63580550Y-24095425D01*
X63568239Y-23953080D01*
X63568238Y-23953070D01*
X63568004Y-23950368D01*
X63567537Y-23947684D01*
X63515727Y-23650412D01*
X63515725Y-23650404D01*
X63515262Y-23647746D01*
X63446602Y-23388425D01*
X63443556Y-23373168D01*
X63442727Y-23367077D01*
X63442070Y-23362250D01*
X63438483Y-23350221D01*
X63438475Y-23350205D01*
X63438453Y-23350130D01*
X63434325Y-23341460D01*
X63430734Y-23333165D01*
X63418928Y-23302964D01*
X63349639Y-23125709D01*
X63231087Y-22915560D01*
X63213836Y-22893083D01*
X63086885Y-22727679D01*
X63086883Y-22727677D01*
X63084180Y-22724155D01*
X62915029Y-22558423D01*
X62915016Y-22558410D01*
X62915011Y-22558406D01*
X62911834Y-22555293D01*
X62717470Y-22412325D01*
X62508881Y-22300205D01*
X62508859Y-22300193D01*
X62508855Y-22300191D01*
X62504944Y-22298089D01*
X62278474Y-22214850D01*
X62058582Y-22167699D01*
X61996169Y-22133860D01*
X61961960Y-22071649D01*
X61966814Y-22000818D01*
X62009192Y-21943856D01*
X62075638Y-21918848D01*
X62085000Y-21918500D01*
X66781500Y-21918500D01*
X66849621Y-21938502D01*
X66896114Y-21992158D01*
X66907500Y-22044500D01*
X66907500Y-65130590D01*
X66887498Y-65198711D01*
X66833842Y-65245204D01*
X66763568Y-65255308D01*
X66698988Y-65225814D01*
X66661976Y-65170466D01*
X66593120Y-64964079D01*
X66542969Y-64813756D01*
X66541520Y-64810265D01*
X66424394Y-64528197D01*
X66339573Y-64323925D01*
X66101676Y-63849889D01*
X66057945Y-63776383D01*
X65831655Y-63396025D01*
X65830495Y-63394075D01*
X65527419Y-62958817D01*
X65289176Y-62664086D01*
X65195409Y-62548086D01*
X65195405Y-62548082D01*
X65193999Y-62546342D01*
X64831941Y-62158761D01*
X64443098Y-61798058D01*
X64029462Y-61466080D01*
X63593148Y-61164525D01*
X63591203Y-61163377D01*
X63591192Y-61163370D01*
X63138338Y-60896086D01*
X63138335Y-60896084D01*
X63136391Y-60894937D01*
X62661527Y-60658696D01*
X62659443Y-60657839D01*
X62173082Y-60457871D01*
X62173069Y-60457866D01*
X62170989Y-60457011D01*
X61667285Y-60290915D01*
X61196727Y-60172282D01*
X61155170Y-60161805D01*
X61155168Y-60161804D01*
X61152996Y-60161257D01*
X60863421Y-60109936D01*
X60632965Y-60069093D01*
X60632959Y-60069092D01*
X60630752Y-60068701D01*
X60628511Y-60068467D01*
X60628508Y-60068467D01*
X60512748Y-60056402D01*
X60103228Y-60013721D01*
X60100981Y-60013648D01*
X60100975Y-60013648D01*
X59855423Y-60005717D01*
X59573122Y-59996599D01*
X59570883Y-59996687D01*
X59570877Y-59996687D01*
X59246791Y-60009421D01*
X59043149Y-60017422D01*
X59040930Y-60017669D01*
X59040916Y-60017670D01*
X58518258Y-60075834D01*
X58518256Y-60075834D01*
X58516021Y-60076083D01*
X57994437Y-60172282D01*
X57992261Y-60172847D01*
X57992251Y-60172849D01*
X57568934Y-60282721D01*
X57481065Y-60305527D01*
X57478935Y-60306246D01*
X56980665Y-60474416D01*
X56980654Y-60474420D01*
X56978533Y-60475136D01*
X56976458Y-60476006D01*
X56976453Y-60476008D01*
X56538397Y-60659701D01*
X56489415Y-60680241D01*
X56487422Y-60681250D01*
X56487411Y-60681255D01*
X56067295Y-60893931D01*
X56016212Y-60919791D01*
X55561348Y-61192561D01*
X55559520Y-61193843D01*
X55559519Y-61193844D01*
X55501399Y-61234616D01*
X55127150Y-61497155D01*
X55125392Y-61498586D01*
X55125391Y-61498587D01*
X54717598Y-61830582D01*
X54717589Y-61830590D01*
X54715841Y-61832013D01*
X54714199Y-61833558D01*
X54331159Y-62193884D01*
X54331147Y-62193896D01*
X54329526Y-62195421D01*
X53970183Y-62585520D01*
X53968787Y-62587272D01*
X53641052Y-62998554D01*
X53641043Y-62998566D01*
X53639651Y-63000313D01*
X53526213Y-63165676D01*
X53369532Y-63394075D01*
X53339621Y-63437677D01*
X53338480Y-63439626D01*
X53338476Y-63439632D01*
X53099398Y-63847947D01*
X53071629Y-63895373D01*
X52837047Y-64371058D01*
X52836193Y-64373155D01*
X52836192Y-64373158D01*
X52658587Y-64809451D01*
X52614377Y-64865003D01*
X52547152Y-64887835D01*
X52478255Y-64870697D01*
X52429560Y-64819032D01*
X52425519Y-64810265D01*
X52416897Y-64789499D01*
X52223573Y-64323925D01*
X51985676Y-63849889D01*
X51941945Y-63776383D01*
X51715655Y-63396025D01*
X51714495Y-63394075D01*
X51411419Y-62958817D01*
X51173176Y-62664086D01*
X51079409Y-62548086D01*
X51079405Y-62548082D01*
X51077999Y-62546342D01*
X50715941Y-62158761D01*
X50327098Y-61798058D01*
X49913462Y-61466080D01*
X49477148Y-61164525D01*
X49475203Y-61163377D01*
X49475192Y-61163370D01*
X49022338Y-60896086D01*
X49022335Y-60896084D01*
X49020391Y-60894937D01*
X48545527Y-60658696D01*
X48543443Y-60657839D01*
X48057082Y-60457871D01*
X48057069Y-60457866D01*
X48054989Y-60457011D01*
X47551285Y-60290915D01*
X47080727Y-60172282D01*
X47039170Y-60161805D01*
X47039168Y-60161804D01*
X47036996Y-60161257D01*
X46747421Y-60109936D01*
X46516965Y-60069093D01*
X46516959Y-60069092D01*
X46514752Y-60068701D01*
X46512511Y-60068467D01*
X46512508Y-60068467D01*
X46396748Y-60056402D01*
X45987228Y-60013721D01*
X45984981Y-60013648D01*
X45984975Y-60013648D01*
X45739423Y-60005717D01*
X45457122Y-59996599D01*
X45454883Y-59996687D01*
X45454877Y-59996687D01*
X45130791Y-60009421D01*
X44927149Y-60017422D01*
X44924930Y-60017669D01*
X44924916Y-60017670D01*
X44402258Y-60075834D01*
X44402256Y-60075834D01*
X44400021Y-60076083D01*
X43878437Y-60172282D01*
X43876261Y-60172847D01*
X43876251Y-60172849D01*
X43452934Y-60282721D01*
X43365065Y-60305527D01*
X43362935Y-60306246D01*
X42864665Y-60474416D01*
X42864654Y-60474420D01*
X42862533Y-60475136D01*
X42860458Y-60476006D01*
X42860453Y-60476008D01*
X42422397Y-60659701D01*
X42373415Y-60680241D01*
X42371422Y-60681250D01*
X42371411Y-60681255D01*
X41951295Y-60893931D01*
X41900212Y-60919791D01*
X41445348Y-61192561D01*
X41443520Y-61193843D01*
X41443519Y-61193844D01*
X41385399Y-61234616D01*
X41011150Y-61497155D01*
X41009392Y-61498586D01*
X41009391Y-61498587D01*
X40601598Y-61830582D01*
X40601589Y-61830590D01*
X40599841Y-61832013D01*
X40598199Y-61833558D01*
X40215159Y-62193884D01*
X40215147Y-62193896D01*
X40213526Y-62195421D01*
X39854183Y-62585520D01*
X39852787Y-62587272D01*
X39525052Y-62998554D01*
X39525043Y-62998566D01*
X39523651Y-63000313D01*
X39410213Y-63165676D01*
X39253532Y-63394075D01*
X39223621Y-63437677D01*
X39222480Y-63439626D01*
X39222476Y-63439632D01*
X38983398Y-63847947D01*
X38955629Y-63895373D01*
X38721047Y-64371058D01*
X38720193Y-64373155D01*
X38720192Y-64373158D01*
X38626148Y-64604182D01*
X38521075Y-64862297D01*
X38497951Y-64933255D01*
X38379213Y-65297612D01*
X38356738Y-65366577D01*
X38228876Y-65881316D01*
X38138144Y-66403880D01*
X38137919Y-66406115D01*
X38137918Y-66406122D01*
X38090226Y-66879757D01*
X38085006Y-66931593D01*
X38084942Y-66933829D01*
X38084941Y-66933838D01*
X38082657Y-67013132D01*
X38071226Y-67410000D01*
X38069735Y-67461755D01*
X38092407Y-67991652D01*
X38092662Y-67993876D01*
X38092663Y-67993884D01*
X38118293Y-68217099D01*
X38152908Y-68518572D01*
X38153320Y-68520761D01*
X38153321Y-68520770D01*
X38222379Y-68888003D01*
X38250927Y-69039818D01*
X38251499Y-69041991D01*
X38251500Y-69041995D01*
X38261500Y-69079976D01*
X38385964Y-69552722D01*
X38557326Y-70054658D01*
X38558200Y-70056721D01*
X38558203Y-70056730D01*
X38651170Y-70276280D01*
X38764136Y-70543058D01*
X39005337Y-71015421D01*
X39006501Y-71017346D01*
X39006505Y-71017354D01*
X39136300Y-71232093D01*
X39279693Y-71469330D01*
X39585800Y-71902462D01*
X39587236Y-71904213D01*
X39587238Y-71904216D01*
X39660427Y-71993476D01*
X39922092Y-72312600D01*
X40286847Y-72697644D01*
X40678198Y-73055623D01*
X41094142Y-73384706D01*
X41096003Y-73385973D01*
X41096011Y-73385979D01*
X41446918Y-73624902D01*
X41532551Y-73683207D01*
X41991179Y-73949600D01*
X41993187Y-73950582D01*
X41993201Y-73950589D01*
X42337274Y-74118776D01*
X42467680Y-74182520D01*
X42959615Y-74380775D01*
X42961754Y-74381464D01*
X42961760Y-74381466D01*
X43135339Y-74437363D01*
X43464465Y-74543351D01*
X43466649Y-74543885D01*
X43466651Y-74543886D01*
X43977455Y-74668879D01*
X43977465Y-74668881D01*
X43979647Y-74669415D01*
X44502524Y-74758323D01*
X44504751Y-74758539D01*
X44504763Y-74758541D01*
X45028182Y-74809401D01*
X45028195Y-74809402D01*
X45030420Y-74809618D01*
X45032647Y-74809674D01*
X45032657Y-74809675D01*
X45452965Y-74820314D01*
X45560632Y-74823040D01*
X45562877Y-74822936D01*
X45562887Y-74822936D01*
X45855300Y-74809401D01*
X46090447Y-74798517D01*
X46092674Y-74798253D01*
X46092679Y-74798253D01*
X46428206Y-74758541D01*
X46617152Y-74736178D01*
X46619359Y-74735755D01*
X47135859Y-74636760D01*
X47135872Y-74636757D01*
X47138053Y-74636339D01*
X47140218Y-74635761D01*
X47648304Y-74500096D01*
X47648316Y-74500092D01*
X47650482Y-74499514D01*
X47652611Y-74498779D01*
X47652617Y-74498777D01*
X47852986Y-74429589D01*
X48151817Y-74326401D01*
X48329158Y-74250575D01*
X48637412Y-74118776D01*
X48637427Y-74118769D01*
X48639492Y-74117886D01*
X48964319Y-73950589D01*
X49109005Y-73876071D01*
X49109013Y-73876067D01*
X49111010Y-73875038D01*
X49307479Y-73755348D01*
X49562019Y-73600282D01*
X49562022Y-73600280D01*
X49563959Y-73599100D01*
X49565807Y-73597784D01*
X49565815Y-73597779D01*
X49994174Y-73292797D01*
X49994186Y-73292787D01*
X49996020Y-73291482D01*
X50221999Y-73104868D01*
X50403257Y-72955185D01*
X50403262Y-72955180D01*
X50404981Y-72953761D01*
X50671862Y-72699169D01*
X50787127Y-72589212D01*
X50787137Y-72589202D01*
X50788749Y-72587664D01*
X50963525Y-72395251D01*
X51143838Y-72196743D01*
X51143842Y-72196739D01*
X51145361Y-72195066D01*
X51205555Y-72118435D01*
X51471595Y-71779750D01*
X51471599Y-71779745D01*
X51472989Y-71777975D01*
X51474243Y-71776119D01*
X51474252Y-71776107D01*
X51768693Y-71340402D01*
X51768698Y-71340394D01*
X51769959Y-71338528D01*
X52034749Y-70878972D01*
X52266004Y-70401661D01*
X52423117Y-70007854D01*
X52466938Y-69951994D01*
X52534002Y-69928694D01*
X52603017Y-69945350D01*
X52652071Y-69996674D01*
X52659389Y-70013835D01*
X52673326Y-70054658D01*
X52674201Y-70056723D01*
X52674205Y-70056735D01*
X52767170Y-70276280D01*
X52880136Y-70543058D01*
X53121337Y-71015421D01*
X53122501Y-71017346D01*
X53122505Y-71017354D01*
X53252300Y-71232093D01*
X53395693Y-71469330D01*
X53701800Y-71902462D01*
X53703236Y-71904213D01*
X53703238Y-71904216D01*
X53776427Y-71993476D01*
X54038092Y-72312600D01*
X54402847Y-72697644D01*
X54794198Y-73055623D01*
X55210142Y-73384706D01*
X55212003Y-73385973D01*
X55212011Y-73385979D01*
X55562918Y-73624902D01*
X55648551Y-73683207D01*
X56107179Y-73949600D01*
X56109187Y-73950582D01*
X56109201Y-73950589D01*
X56453274Y-74118776D01*
X56583680Y-74182520D01*
X57075615Y-74380775D01*
X57077754Y-74381464D01*
X57077760Y-74381466D01*
X57251339Y-74437363D01*
X57580465Y-74543351D01*
X57582649Y-74543885D01*
X57582651Y-74543886D01*
X58093455Y-74668879D01*
X58093465Y-74668881D01*
X58095647Y-74669415D01*
X58618524Y-74758323D01*
X58620751Y-74758539D01*
X58620763Y-74758541D01*
X59144182Y-74809401D01*
X59144195Y-74809402D01*
X59146420Y-74809618D01*
X59148647Y-74809674D01*
X59148657Y-74809675D01*
X59568965Y-74820314D01*
X59676632Y-74823040D01*
X59678877Y-74822936D01*
X59678887Y-74822936D01*
X59971300Y-74809401D01*
X60206447Y-74798517D01*
X60208674Y-74798253D01*
X60208679Y-74798253D01*
X60544206Y-74758541D01*
X60733152Y-74736178D01*
X60735359Y-74735755D01*
X61251859Y-74636760D01*
X61251872Y-74636757D01*
X61254053Y-74636339D01*
X61256218Y-74635761D01*
X61764304Y-74500096D01*
X61764316Y-74500092D01*
X61766482Y-74499514D01*
X61768611Y-74498779D01*
X61768617Y-74498777D01*
X61968986Y-74429589D01*
X62267817Y-74326401D01*
X62445158Y-74250575D01*
X62753412Y-74118776D01*
X62753427Y-74118769D01*
X62755492Y-74117886D01*
X63080319Y-73950589D01*
X63225005Y-73876071D01*
X63225013Y-73876067D01*
X63227010Y-73875038D01*
X63423479Y-73755348D01*
X63678019Y-73600282D01*
X63678022Y-73600280D01*
X63679959Y-73599100D01*
X63681807Y-73597784D01*
X63681815Y-73597779D01*
X64110174Y-73292797D01*
X64110186Y-73292787D01*
X64112020Y-73291482D01*
X64337999Y-73104868D01*
X64519257Y-72955185D01*
X64519262Y-72955180D01*
X64520981Y-72953761D01*
X64787862Y-72699169D01*
X64903127Y-72589212D01*
X64903137Y-72589202D01*
X64904749Y-72587664D01*
X65079525Y-72395251D01*
X65259838Y-72196743D01*
X65259842Y-72196739D01*
X65261361Y-72195066D01*
X65321555Y-72118435D01*
X65587595Y-71779750D01*
X65587599Y-71779745D01*
X65588989Y-71777975D01*
X65590243Y-71776119D01*
X65590252Y-71776107D01*
X65884693Y-71340402D01*
X65884698Y-71340394D01*
X65885959Y-71338528D01*
X66150749Y-70878972D01*
X66382004Y-70401661D01*
X66519616Y-70056735D01*
X66577704Y-69911135D01*
X66578541Y-69909037D01*
X66579220Y-69906905D01*
X66579224Y-69906892D01*
X66661431Y-69648525D01*
X66701146Y-69589676D01*
X66766373Y-69561640D01*
X66836402Y-69573319D01*
X66889001Y-69621005D01*
X66907500Y-69686729D01*
X66907500Y-149175500D01*
X66887498Y-149243621D01*
X66833842Y-149290114D01*
X66781500Y-149301500D01*
X62085191Y-149301500D01*
X62017070Y-149281498D01*
X61970577Y-149227842D01*
X61960473Y-149157568D01*
X61989967Y-149092988D01*
X62049693Y-149054604D01*
X62058764Y-149052303D01*
X62082542Y-149047202D01*
X62278504Y-149005167D01*
X62282678Y-149003633D01*
X62282680Y-149003632D01*
X62500795Y-148923448D01*
X62504965Y-148921915D01*
X62508880Y-148919811D01*
X62508883Y-148919809D01*
X62713485Y-148809815D01*
X62717481Y-148807667D01*
X62721069Y-148805028D01*
X62908249Y-148667329D01*
X62911835Y-148664691D01*
X63084170Y-148495823D01*
X63231067Y-148304416D01*
X63349610Y-148094265D01*
X63423965Y-147904036D01*
X63428912Y-147892979D01*
X63432487Y-147885921D01*
X63432487Y-147885920D01*
X63434576Y-147881796D01*
X63434597Y-147881733D01*
X63434603Y-147881720D01*
X63438482Y-147869782D01*
X63439255Y-147864985D01*
X63439258Y-147864972D01*
X63440592Y-147856691D01*
X63443184Y-147844487D01*
X63511254Y-147587389D01*
X63515261Y-147572256D01*
X63567536Y-147272318D01*
X63567538Y-147272309D01*
X63567539Y-147272304D01*
X63568004Y-147269634D01*
X63594474Y-146963593D01*
X63594474Y-146656409D01*
X63580550Y-146495425D01*
X63568239Y-146353080D01*
X63568238Y-146353070D01*
X63568004Y-146350368D01*
X63567537Y-146347684D01*
X63515727Y-146050412D01*
X63515725Y-146050404D01*
X63515262Y-146047746D01*
X63446602Y-145788425D01*
X63443556Y-145773168D01*
X63442727Y-145767077D01*
X63442070Y-145762250D01*
X63438483Y-145750221D01*
X63438475Y-145750205D01*
X63438453Y-145750130D01*
X63434325Y-145741460D01*
X63430734Y-145733165D01*
X63418928Y-145702964D01*
X63349639Y-145525709D01*
X63231087Y-145315560D01*
X63213836Y-145293083D01*
X63086885Y-145127679D01*
X63086883Y-145127677D01*
X63084180Y-145124155D01*
X62915029Y-144958423D01*
X62915016Y-144958410D01*
X62915011Y-144958406D01*
X62911834Y-144955293D01*
X62717470Y-144812325D01*
X62508881Y-144700205D01*
X62508859Y-144700193D01*
X62508855Y-144700191D01*
X62504944Y-144698089D01*
X62278474Y-144614850D01*
X62274125Y-144613917D01*
X62274120Y-144613916D01*
X62046905Y-144565195D01*
X62042554Y-144564262D01*
X61904958Y-144554581D01*
X61838812Y-144549927D01*
X61826786Y-144548498D01*
X61819223Y-144547228D01*
X61814418Y-144546421D01*
X61808103Y-144546346D01*
X61806737Y-144546329D01*
X61806734Y-144546329D01*
X61801866Y-144546271D01*
X61774319Y-144550223D01*
X61756427Y-144551500D01*
X58323299Y-144551500D01*
X58302373Y-144549750D01*
X58282642Y-144546427D01*
X58275477Y-144546339D01*
X58274953Y-144546332D01*
X58274952Y-144546332D01*
X58270090Y-144546272D01*
X58265286Y-144546959D01*
X58265273Y-144546960D01*
X58260753Y-144547607D01*
X58251768Y-144548565D01*
X58157392Y-144555213D01*
X58033833Y-144563916D01*
X58033830Y-144563916D01*
X58029407Y-144564228D01*
X58025074Y-144565157D01*
X58025070Y-144565158D01*
X57878675Y-144596561D01*
X57793494Y-144614833D01*
X57567033Y-144698086D01*
X57563119Y-144700190D01*
X57563115Y-144700192D01*
X57563091Y-144700205D01*
X57354518Y-144812334D01*
X57350936Y-144814969D01*
X57350933Y-144814971D01*
X57181671Y-144939488D01*
X57160164Y-144955310D01*
X56987829Y-145124178D01*
X56985131Y-145127693D01*
X56985127Y-145127698D01*
X56843635Y-145312065D01*
X56840933Y-145315586D01*
X56838754Y-145319449D01*
X56838750Y-145319455D01*
X56838739Y-145319475D01*
X56722390Y-145525736D01*
X56704911Y-145570454D01*
X56648028Y-145715980D01*
X56643086Y-145727026D01*
X56637424Y-145738206D01*
X56637400Y-145738281D01*
X56637390Y-145738300D01*
X56633511Y-145750239D01*
X56632736Y-145755052D01*
X56631405Y-145763317D01*
X56628814Y-145775522D01*
X56556744Y-146047760D01*
X56556275Y-146050450D01*
X56556275Y-146050451D01*
X56512465Y-146301855D01*
X56504009Y-146350377D01*
X56477544Y-146656412D01*
X56477544Y-146963588D01*
X56504009Y-147269623D01*
X56504477Y-147272309D01*
X56504478Y-147272316D01*
X56556275Y-147569549D01*
X56556744Y-147572240D01*
X56621962Y-147818595D01*
X56625395Y-147831563D01*
X56628438Y-147846806D01*
X56629925Y-147857732D01*
X56631313Y-147862387D01*
X56631314Y-147862393D01*
X56631790Y-147863986D01*
X56633511Y-147869761D01*
X56633516Y-147869771D01*
X56633534Y-147869832D01*
X56635666Y-147874310D01*
X56635669Y-147874318D01*
X56638083Y-147879388D01*
X56641674Y-147887685D01*
X56705696Y-148051500D01*
X56722399Y-148094240D01*
X56840938Y-148304398D01*
X56843640Y-148307918D01*
X56843644Y-148307925D01*
X56985128Y-148492286D01*
X56987834Y-148495812D01*
X57160173Y-148664683D01*
X57354533Y-148807659D01*
X57567056Y-148921903D01*
X57793526Y-149005147D01*
X57797877Y-149006080D01*
X58013418Y-149052301D01*
X58075831Y-149086141D01*
X58110040Y-149148353D01*
X58105184Y-149219183D01*
X58062806Y-149276144D01*
X57996359Y-149301152D01*
X57986999Y-149301500D01*
X31085191Y-149301500D01*
X31017070Y-149281498D01*
X30970577Y-149227842D01*
X30960473Y-149157568D01*
X30989967Y-149092988D01*
X31049693Y-149054604D01*
X31058764Y-149052303D01*
X31082542Y-149047202D01*
X31278504Y-149005167D01*
X31282678Y-149003633D01*
X31282680Y-149003632D01*
X31500795Y-148923448D01*
X31504965Y-148921915D01*
X31508880Y-148919811D01*
X31508883Y-148919809D01*
X31713485Y-148809815D01*
X31717481Y-148807667D01*
X31721069Y-148805028D01*
X31908249Y-148667329D01*
X31911835Y-148664691D01*
X32084170Y-148495823D01*
X32231067Y-148304416D01*
X32349610Y-148094265D01*
X32423965Y-147904036D01*
X32428912Y-147892979D01*
X32431594Y-147887685D01*
X32434576Y-147881796D01*
X32434601Y-147881720D01*
X32434606Y-147881711D01*
X32438485Y-147869772D01*
X32439274Y-147864876D01*
X32440595Y-147856675D01*
X32443188Y-147844466D01*
X32514563Y-147574875D01*
X32514565Y-147574864D01*
X32515258Y-147572248D01*
X32567996Y-147269629D01*
X32594464Y-146963591D01*
X32594464Y-146656411D01*
X32567996Y-146350373D01*
X32515258Y-146047754D01*
X32481510Y-145920284D01*
X32446603Y-145788432D01*
X32443559Y-145773181D01*
X32442730Y-145767094D01*
X32442730Y-145767092D01*
X32442072Y-145762260D01*
X32438486Y-145750230D01*
X32438478Y-145750214D01*
X32438465Y-145750169D01*
X32433915Y-145740610D01*
X32430329Y-145732323D01*
X32351218Y-145529898D01*
X32351217Y-145529896D01*
X32349601Y-145525761D01*
X32347403Y-145521863D01*
X32233246Y-145319475D01*
X32231062Y-145315603D01*
X32228360Y-145312083D01*
X32228356Y-145312076D01*
X32086872Y-145127715D01*
X32084166Y-145124189D01*
X31911827Y-144955318D01*
X31717468Y-144812342D01*
X31504944Y-144698098D01*
X31278475Y-144614855D01*
X31042555Y-144564263D01*
X31038123Y-144563951D01*
X31038122Y-144563951D01*
X30972026Y-144559300D01*
X30838806Y-144549927D01*
X30826782Y-144548497D01*
X30819229Y-144547228D01*
X30819216Y-144547227D01*
X30814418Y-144546421D01*
X30808103Y-144546346D01*
X30806737Y-144546329D01*
X30806734Y-144546329D01*
X30801866Y-144546271D01*
X30774319Y-144550223D01*
X30756427Y-144551500D01*
X27323299Y-144551500D01*
X27302373Y-144549750D01*
X27282642Y-144546427D01*
X27275477Y-144546339D01*
X27274953Y-144546332D01*
X27274952Y-144546332D01*
X27270090Y-144546272D01*
X27265286Y-144546959D01*
X27265273Y-144546960D01*
X27260753Y-144547607D01*
X27251768Y-144548565D01*
X27157392Y-144555213D01*
X27033833Y-144563916D01*
X27033830Y-144563916D01*
X27029407Y-144564228D01*
X27025074Y-144565157D01*
X27025070Y-144565158D01*
X26878675Y-144596561D01*
X26793494Y-144614833D01*
X26567033Y-144698086D01*
X26563119Y-144700190D01*
X26563115Y-144700192D01*
X26563091Y-144700205D01*
X26354518Y-144812334D01*
X26350936Y-144814969D01*
X26350933Y-144814971D01*
X26181671Y-144939488D01*
X26160164Y-144955310D01*
X25987829Y-145124178D01*
X25985131Y-145127693D01*
X25985127Y-145127698D01*
X25843635Y-145312065D01*
X25840933Y-145315586D01*
X25838754Y-145319449D01*
X25838750Y-145319455D01*
X25838739Y-145319475D01*
X25722390Y-145525736D01*
X25704911Y-145570454D01*
X25648028Y-145715980D01*
X25643086Y-145727026D01*
X25637424Y-145738206D01*
X25637403Y-145738270D01*
X25637393Y-145738290D01*
X25633514Y-145750229D01*
X25632741Y-145755027D01*
X25632739Y-145755036D01*
X25631407Y-145763309D01*
X25628815Y-145775515D01*
X25556741Y-146047753D01*
X25504003Y-146350372D01*
X25477535Y-146656410D01*
X25477535Y-146963590D01*
X25504003Y-147269628D01*
X25556741Y-147572247D01*
X25587794Y-147689539D01*
X25625398Y-147831578D01*
X25628442Y-147846828D01*
X25629342Y-147853438D01*
X25629928Y-147857741D01*
X25629948Y-147857808D01*
X25629949Y-147857815D01*
X25631281Y-147862280D01*
X25631283Y-147862289D01*
X25631593Y-147863327D01*
X25631602Y-147863356D01*
X25633514Y-147869771D01*
X25633517Y-147869778D01*
X25633537Y-147869844D01*
X25635709Y-147874407D01*
X25637517Y-147878205D01*
X25641103Y-147886491D01*
X25705598Y-148051500D01*
X25722322Y-148094288D01*
X25788404Y-148211435D01*
X25838668Y-148300541D01*
X25840874Y-148304452D01*
X25987785Y-148495869D01*
X25990964Y-148498984D01*
X25990966Y-148498986D01*
X26156960Y-148661626D01*
X26156966Y-148661631D01*
X26160139Y-148664740D01*
X26354516Y-148807712D01*
X26358424Y-148809812D01*
X26358428Y-148809815D01*
X26437332Y-148852224D01*
X26567056Y-148921948D01*
X26793542Y-149005180D01*
X26797883Y-149006111D01*
X26797888Y-149006112D01*
X27013350Y-149052299D01*
X27075765Y-149086135D01*
X27109979Y-149148344D01*
X27105129Y-149219174D01*
X27062754Y-149276139D01*
X26996310Y-149301151D01*
X26986940Y-149301500D01*
X22670500Y-149301500D01*
X22602379Y-149281498D01*
X22555886Y-149227842D01*
X22544500Y-149175500D01*
X22544500Y-131010000D01*
X24022685Y-131010000D01*
X24041931Y-131377241D01*
X24042444Y-131380481D01*
X24042445Y-131380489D01*
X24049894Y-131427519D01*
X24099459Y-131740459D01*
X24194639Y-132095674D01*
X24195824Y-132098762D01*
X24195825Y-132098764D01*
X24245902Y-132229218D01*
X24326427Y-132438994D01*
X24493380Y-132766657D01*
X24693668Y-133075075D01*
X24925098Y-133360867D01*
X25185133Y-133620902D01*
X25470925Y-133852332D01*
X25473700Y-133854134D01*
X25599623Y-133935909D01*
X25779342Y-134052620D01*
X25782276Y-134054115D01*
X25782283Y-134054119D01*
X26099108Y-134215549D01*
X26107006Y-134219573D01*
X26450326Y-134351361D01*
X26805541Y-134446541D01*
X26998558Y-134477112D01*
X27165511Y-134503555D01*
X27165519Y-134503556D01*
X27168759Y-134504069D01*
X27536000Y-134523315D01*
X27903241Y-134504069D01*
X27906481Y-134503556D01*
X27906489Y-134503555D01*
X28073442Y-134477112D01*
X28266459Y-134446541D01*
X28621674Y-134351361D01*
X28964994Y-134219573D01*
X28972892Y-134215549D01*
X29289717Y-134054119D01*
X29289724Y-134054115D01*
X29292658Y-134052620D01*
X29472378Y-133935909D01*
X29598300Y-133854134D01*
X29601075Y-133852332D01*
X29886867Y-133620902D01*
X30146902Y-133360867D01*
X30378332Y-133075075D01*
X30578620Y-132766657D01*
X30709394Y-132510000D01*
X40622685Y-132510000D01*
X40641931Y-132877241D01*
X40699459Y-133240459D01*
X40794639Y-133595674D01*
X40795824Y-133598762D01*
X40795825Y-133598764D01*
X40845902Y-133729218D01*
X40926427Y-133938994D01*
X40927925Y-133941934D01*
X41069993Y-134220757D01*
X41093380Y-134266657D01*
X41293668Y-134575075D01*
X41525098Y-134860867D01*
X41785133Y-135120902D01*
X42070925Y-135352332D01*
X42379342Y-135552620D01*
X42382276Y-135554115D01*
X42382283Y-135554119D01*
X42704066Y-135718075D01*
X42707006Y-135719573D01*
X43050326Y-135851361D01*
X43405541Y-135946541D01*
X43598558Y-135977112D01*
X43765511Y-136003555D01*
X43765519Y-136003556D01*
X43768759Y-136004069D01*
X44136000Y-136023315D01*
X44503241Y-136004069D01*
X44506481Y-136003556D01*
X44506489Y-136003555D01*
X44673442Y-135977112D01*
X44866459Y-135946541D01*
X45221674Y-135851361D01*
X45564994Y-135719573D01*
X45567934Y-135718075D01*
X45889717Y-135554119D01*
X45889724Y-135554115D01*
X45892658Y-135552620D01*
X46201075Y-135352332D01*
X46486867Y-135120902D01*
X46746902Y-134860867D01*
X46978332Y-134575075D01*
X47178620Y-134266657D01*
X47202008Y-134220757D01*
X47344075Y-133941934D01*
X47345573Y-133938994D01*
X47426098Y-133729218D01*
X47476175Y-133598764D01*
X47476176Y-133598762D01*
X47477361Y-133595674D01*
X47572541Y-133240459D01*
X47630069Y-132877241D01*
X47649315Y-132510000D01*
X56022685Y-132510000D01*
X56041931Y-132877241D01*
X56099459Y-133240459D01*
X56194639Y-133595674D01*
X56195824Y-133598762D01*
X56195825Y-133598764D01*
X56245902Y-133729218D01*
X56326427Y-133938994D01*
X56327925Y-133941934D01*
X56469993Y-134220757D01*
X56493380Y-134266657D01*
X56693668Y-134575075D01*
X56925098Y-134860867D01*
X57185133Y-135120902D01*
X57470925Y-135352332D01*
X57779342Y-135552620D01*
X57782276Y-135554115D01*
X57782283Y-135554119D01*
X58104066Y-135718075D01*
X58107006Y-135719573D01*
X58450326Y-135851361D01*
X58805541Y-135946541D01*
X58998558Y-135977112D01*
X59165511Y-136003555D01*
X59165519Y-136003556D01*
X59168759Y-136004069D01*
X59536000Y-136023315D01*
X59903241Y-136004069D01*
X59906481Y-136003556D01*
X59906489Y-136003555D01*
X60073442Y-135977112D01*
X60266459Y-135946541D01*
X60621674Y-135851361D01*
X60964994Y-135719573D01*
X60967934Y-135718075D01*
X61289717Y-135554119D01*
X61289724Y-135554115D01*
X61292658Y-135552620D01*
X61601075Y-135352332D01*
X61886867Y-135120902D01*
X62146902Y-134860867D01*
X62378332Y-134575075D01*
X62578620Y-134266657D01*
X62602008Y-134220757D01*
X62744075Y-133941934D01*
X62745573Y-133938994D01*
X62826098Y-133729218D01*
X62876175Y-133598764D01*
X62876176Y-133598762D01*
X62877361Y-133595674D01*
X62972541Y-133240459D01*
X63030069Y-132877241D01*
X63049315Y-132510000D01*
X63030069Y-132142759D01*
X63022612Y-132095674D01*
X62995925Y-131927182D01*
X62972541Y-131779541D01*
X62877361Y-131424326D01*
X62833365Y-131309711D01*
X62746757Y-131084091D01*
X62745573Y-131081006D01*
X62578620Y-130753343D01*
X62378332Y-130444925D01*
X62146902Y-130159133D01*
X61886867Y-129899098D01*
X61601075Y-129667668D01*
X61497526Y-129600423D01*
X61295427Y-129469178D01*
X61295424Y-129469176D01*
X61292658Y-129467380D01*
X61289724Y-129465885D01*
X61289717Y-129465881D01*
X60967934Y-129301925D01*
X60964994Y-129300427D01*
X60621674Y-129168639D01*
X60266459Y-129073459D01*
X60073442Y-129042888D01*
X59906489Y-129016445D01*
X59906481Y-129016444D01*
X59903241Y-129015931D01*
X59536000Y-128996685D01*
X59168759Y-129015931D01*
X59165519Y-129016444D01*
X59165511Y-129016445D01*
X58998558Y-129042888D01*
X58805541Y-129073459D01*
X58450326Y-129168639D01*
X58107006Y-129300427D01*
X58104066Y-129301925D01*
X57782284Y-129465881D01*
X57782277Y-129465885D01*
X57779343Y-129467380D01*
X57470925Y-129667668D01*
X57185133Y-129899098D01*
X56925098Y-130159133D01*
X56693668Y-130444925D01*
X56493380Y-130753343D01*
X56326427Y-131081006D01*
X56325243Y-131084091D01*
X56238636Y-131309711D01*
X56194639Y-131424326D01*
X56099459Y-131779541D01*
X56076075Y-131927182D01*
X56049389Y-132095674D01*
X56041931Y-132142759D01*
X56022685Y-132510000D01*
X47649315Y-132510000D01*
X47630069Y-132142759D01*
X47622612Y-132095674D01*
X47595925Y-131927182D01*
X47572541Y-131779541D01*
X47477361Y-131424326D01*
X47433365Y-131309711D01*
X47346757Y-131084091D01*
X47345573Y-131081006D01*
X47178620Y-130753343D01*
X46978332Y-130444925D01*
X46746902Y-130159133D01*
X46486867Y-129899098D01*
X46201075Y-129667668D01*
X46097526Y-129600423D01*
X45895427Y-129469178D01*
X45895424Y-129469176D01*
X45892658Y-129467380D01*
X45889724Y-129465885D01*
X45889717Y-129465881D01*
X45567934Y-129301925D01*
X45564994Y-129300427D01*
X45221674Y-129168639D01*
X44866459Y-129073459D01*
X44673442Y-129042888D01*
X44506489Y-129016445D01*
X44506481Y-129016444D01*
X44503241Y-129015931D01*
X44136000Y-128996685D01*
X43768759Y-129015931D01*
X43765519Y-129016444D01*
X43765511Y-129016445D01*
X43598558Y-129042888D01*
X43405541Y-129073459D01*
X43050326Y-129168639D01*
X42707006Y-129300427D01*
X42704066Y-129301925D01*
X42382284Y-129465881D01*
X42382277Y-129465885D01*
X42379343Y-129467380D01*
X42070925Y-129667668D01*
X41785133Y-129899098D01*
X41525098Y-130159133D01*
X41293668Y-130444925D01*
X41093380Y-130753343D01*
X40926427Y-131081006D01*
X40925243Y-131084091D01*
X40838636Y-131309711D01*
X40794639Y-131424326D01*
X40699459Y-131779541D01*
X40676075Y-131927182D01*
X40649389Y-132095674D01*
X40641931Y-132142759D01*
X40622685Y-132510000D01*
X30709394Y-132510000D01*
X30745573Y-132438994D01*
X30826098Y-132229218D01*
X30876175Y-132098764D01*
X30876176Y-132098762D01*
X30877361Y-132095674D01*
X30972541Y-131740459D01*
X31022106Y-131427519D01*
X31029555Y-131380489D01*
X31029556Y-131380481D01*
X31030069Y-131377241D01*
X31049315Y-131010000D01*
X31030069Y-130642759D01*
X30972541Y-130279541D01*
X30877361Y-129924326D01*
X30833365Y-129809711D01*
X30746757Y-129584091D01*
X30745573Y-129581006D01*
X30602611Y-129300427D01*
X30580119Y-129256284D01*
X30580115Y-129256277D01*
X30578620Y-129253343D01*
X30378332Y-128944925D01*
X30146902Y-128659133D01*
X29886867Y-128399098D01*
X29601075Y-128167668D01*
X29292658Y-127967380D01*
X29289724Y-127965885D01*
X29289717Y-127965881D01*
X28967934Y-127801925D01*
X28964994Y-127800427D01*
X28621674Y-127668639D01*
X28266459Y-127573459D01*
X28073442Y-127542888D01*
X27906489Y-127516445D01*
X27906481Y-127516444D01*
X27903241Y-127515931D01*
X27536000Y-127496685D01*
X27168759Y-127515931D01*
X27165519Y-127516444D01*
X27165511Y-127516445D01*
X26998558Y-127542888D01*
X26805541Y-127573459D01*
X26450326Y-127668639D01*
X26107006Y-127800427D01*
X26104066Y-127801925D01*
X25782284Y-127965881D01*
X25782277Y-127965885D01*
X25779343Y-127967380D01*
X25470925Y-128167668D01*
X25185133Y-128399098D01*
X24925098Y-128659133D01*
X24693668Y-128944925D01*
X24493380Y-129253343D01*
X24491885Y-129256277D01*
X24491881Y-129256284D01*
X24469389Y-129300427D01*
X24326427Y-129581006D01*
X24325243Y-129584091D01*
X24238636Y-129809711D01*
X24194639Y-129924326D01*
X24099459Y-130279541D01*
X24041931Y-130642759D01*
X24022685Y-131010000D01*
X22544500Y-131010000D01*
X22544500Y-121860000D01*
X40622685Y-121860000D01*
X40641931Y-122227241D01*
X40699459Y-122590459D01*
X40794639Y-122945674D01*
X40795824Y-122948762D01*
X40795825Y-122948764D01*
X40845902Y-123079218D01*
X40926427Y-123288994D01*
X41093380Y-123616657D01*
X41293668Y-123925075D01*
X41525098Y-124210867D01*
X41785133Y-124470902D01*
X42070925Y-124702332D01*
X42379342Y-124902620D01*
X42382276Y-124904115D01*
X42382283Y-124904119D01*
X42704066Y-125068075D01*
X42707006Y-125069573D01*
X43050326Y-125201361D01*
X43405541Y-125296541D01*
X43598558Y-125327112D01*
X43765511Y-125353555D01*
X43765519Y-125353556D01*
X43768759Y-125354069D01*
X44136000Y-125373315D01*
X44503241Y-125354069D01*
X44506481Y-125353556D01*
X44506489Y-125353555D01*
X44673442Y-125327112D01*
X44866459Y-125296541D01*
X45221674Y-125201361D01*
X45564994Y-125069573D01*
X45567934Y-125068075D01*
X45889717Y-124904119D01*
X45889724Y-124904115D01*
X45892658Y-124902620D01*
X46201075Y-124702332D01*
X46486867Y-124470902D01*
X46746902Y-124210867D01*
X46978332Y-123925075D01*
X47178620Y-123616657D01*
X47345573Y-123288994D01*
X47426098Y-123079218D01*
X47476175Y-122948764D01*
X47476176Y-122948762D01*
X47477361Y-122945674D01*
X47572541Y-122590459D01*
X47630069Y-122227241D01*
X47649315Y-121860000D01*
X56022685Y-121860000D01*
X56041931Y-122227241D01*
X56099459Y-122590459D01*
X56194639Y-122945674D01*
X56195824Y-122948762D01*
X56195825Y-122948764D01*
X56245902Y-123079218D01*
X56326427Y-123288994D01*
X56493380Y-123616657D01*
X56693668Y-123925075D01*
X56925098Y-124210867D01*
X57185133Y-124470902D01*
X57470925Y-124702332D01*
X57779342Y-124902620D01*
X57782276Y-124904115D01*
X57782283Y-124904119D01*
X58104066Y-125068075D01*
X58107006Y-125069573D01*
X58450326Y-125201361D01*
X58805541Y-125296541D01*
X58998558Y-125327112D01*
X59165511Y-125353555D01*
X59165519Y-125353556D01*
X59168759Y-125354069D01*
X59536000Y-125373315D01*
X59903241Y-125354069D01*
X59906481Y-125353556D01*
X59906489Y-125353555D01*
X60073442Y-125327112D01*
X60266459Y-125296541D01*
X60621674Y-125201361D01*
X60964994Y-125069573D01*
X60967934Y-125068075D01*
X61289717Y-124904119D01*
X61289724Y-124904115D01*
X61292658Y-124902620D01*
X61601075Y-124702332D01*
X61886867Y-124470902D01*
X62146902Y-124210867D01*
X62378332Y-123925075D01*
X62578620Y-123616657D01*
X62745573Y-123288994D01*
X62826098Y-123079218D01*
X62876175Y-122948764D01*
X62876176Y-122948762D01*
X62877361Y-122945674D01*
X62972541Y-122590459D01*
X63030069Y-122227241D01*
X63049315Y-121860000D01*
X63030069Y-121492759D01*
X62972541Y-121129541D01*
X62877361Y-120774326D01*
X62833365Y-120659711D01*
X62746757Y-120434091D01*
X62745573Y-120431006D01*
X62578620Y-120103343D01*
X62378332Y-119794925D01*
X62146902Y-119509133D01*
X61886867Y-119249098D01*
X61601075Y-119017668D01*
X61292658Y-118817380D01*
X61289724Y-118815885D01*
X61289717Y-118815881D01*
X60967934Y-118651925D01*
X60964994Y-118650427D01*
X60621674Y-118518639D01*
X60266459Y-118423459D01*
X60073442Y-118392888D01*
X59906489Y-118366445D01*
X59906481Y-118366444D01*
X59903241Y-118365931D01*
X59536000Y-118346685D01*
X59168759Y-118365931D01*
X59165519Y-118366444D01*
X59165511Y-118366445D01*
X58998558Y-118392888D01*
X58805541Y-118423459D01*
X58450326Y-118518639D01*
X58107006Y-118650427D01*
X58104066Y-118651925D01*
X57782284Y-118815881D01*
X57782277Y-118815885D01*
X57779343Y-118817380D01*
X57470925Y-119017668D01*
X57185133Y-119249098D01*
X56925098Y-119509133D01*
X56693668Y-119794925D01*
X56493380Y-120103343D01*
X56326427Y-120431006D01*
X56325243Y-120434091D01*
X56238636Y-120659711D01*
X56194639Y-120774326D01*
X56099459Y-121129541D01*
X56041931Y-121492759D01*
X56022685Y-121860000D01*
X47649315Y-121860000D01*
X47630069Y-121492759D01*
X47572541Y-121129541D01*
X47477361Y-120774326D01*
X47433365Y-120659711D01*
X47346757Y-120434091D01*
X47345573Y-120431006D01*
X47178620Y-120103343D01*
X46978332Y-119794925D01*
X46746902Y-119509133D01*
X46486867Y-119249098D01*
X46201075Y-119017668D01*
X45892658Y-118817380D01*
X45889724Y-118815885D01*
X45889717Y-118815881D01*
X45567934Y-118651925D01*
X45564994Y-118650427D01*
X45221674Y-118518639D01*
X44866459Y-118423459D01*
X44673442Y-118392888D01*
X44506489Y-118366445D01*
X44506481Y-118366444D01*
X44503241Y-118365931D01*
X44136000Y-118346685D01*
X43768759Y-118365931D01*
X43765519Y-118366444D01*
X43765511Y-118366445D01*
X43598558Y-118392888D01*
X43405541Y-118423459D01*
X43050326Y-118518639D01*
X42707006Y-118650427D01*
X42704066Y-118651925D01*
X42382284Y-118815881D01*
X42382277Y-118815885D01*
X42379343Y-118817380D01*
X42070925Y-119017668D01*
X41785133Y-119249098D01*
X41525098Y-119509133D01*
X41293668Y-119794925D01*
X41093380Y-120103343D01*
X40926427Y-120431006D01*
X40925243Y-120434091D01*
X40838636Y-120659711D01*
X40794639Y-120774326D01*
X40699459Y-121129541D01*
X40641931Y-121492759D01*
X40622685Y-121860000D01*
X22544500Y-121860000D01*
X22544500Y-116310000D01*
X24022685Y-116310000D01*
X24041931Y-116677241D01*
X24099459Y-117040459D01*
X24194639Y-117395674D01*
X24195824Y-117398762D01*
X24195825Y-117398764D01*
X24245902Y-117529218D01*
X24326427Y-117738994D01*
X24493380Y-118066657D01*
X24693668Y-118375075D01*
X24925098Y-118660867D01*
X25185133Y-118920902D01*
X25470925Y-119152332D01*
X25779342Y-119352620D01*
X25782276Y-119354115D01*
X25782283Y-119354119D01*
X25820156Y-119373416D01*
X26107006Y-119519573D01*
X26450326Y-119651361D01*
X26805541Y-119746541D01*
X26998558Y-119777112D01*
X27165511Y-119803555D01*
X27165519Y-119803556D01*
X27168759Y-119804069D01*
X27536000Y-119823315D01*
X27903241Y-119804069D01*
X27906481Y-119803556D01*
X27906489Y-119803555D01*
X28073442Y-119777112D01*
X28266459Y-119746541D01*
X28621674Y-119651361D01*
X28964994Y-119519573D01*
X29251844Y-119373416D01*
X29289717Y-119354119D01*
X29289724Y-119354115D01*
X29292658Y-119352620D01*
X29601075Y-119152332D01*
X29886867Y-118920902D01*
X30146902Y-118660867D01*
X30378332Y-118375075D01*
X30578620Y-118066657D01*
X30745573Y-117738994D01*
X30826098Y-117529218D01*
X30876175Y-117398764D01*
X30876176Y-117398762D01*
X30877361Y-117395674D01*
X30972541Y-117040459D01*
X31030069Y-116677241D01*
X31049315Y-116310000D01*
X31030069Y-115942759D01*
X30972541Y-115579541D01*
X30877361Y-115224326D01*
X30833365Y-115109711D01*
X30746757Y-114884091D01*
X30745573Y-114881006D01*
X30578620Y-114553343D01*
X30559008Y-114523142D01*
X30380134Y-114247700D01*
X30378332Y-114244925D01*
X30146902Y-113959133D01*
X29886867Y-113699098D01*
X29601075Y-113467668D01*
X29436616Y-113360867D01*
X29295427Y-113269178D01*
X29295424Y-113269176D01*
X29292658Y-113267380D01*
X29289724Y-113265885D01*
X29289717Y-113265881D01*
X28967934Y-113101925D01*
X28964994Y-113100427D01*
X28621674Y-112968639D01*
X28266459Y-112873459D01*
X28073442Y-112842888D01*
X27906489Y-112816445D01*
X27906481Y-112816444D01*
X27903241Y-112815931D01*
X27536000Y-112796685D01*
X27168759Y-112815931D01*
X27165519Y-112816444D01*
X27165511Y-112816445D01*
X26998558Y-112842888D01*
X26805541Y-112873459D01*
X26450326Y-112968639D01*
X26107006Y-113100427D01*
X26104066Y-113101925D01*
X25782284Y-113265881D01*
X25782277Y-113265885D01*
X25779343Y-113267380D01*
X25470925Y-113467668D01*
X25185133Y-113699098D01*
X24925098Y-113959133D01*
X24693668Y-114244925D01*
X24691866Y-114247700D01*
X24512993Y-114523142D01*
X24493380Y-114553343D01*
X24326427Y-114881006D01*
X24325243Y-114884091D01*
X24238636Y-115109711D01*
X24194639Y-115224326D01*
X24099459Y-115579541D01*
X24041931Y-115942759D01*
X24022685Y-116310000D01*
X22544500Y-116310000D01*
X22544500Y-111010000D01*
X40622685Y-111010000D01*
X40641931Y-111377241D01*
X40699459Y-111740459D01*
X40794639Y-112095674D01*
X40795824Y-112098762D01*
X40795825Y-112098764D01*
X40845902Y-112229218D01*
X40926427Y-112438994D01*
X41093380Y-112766657D01*
X41095176Y-112769423D01*
X41095178Y-112769426D01*
X41162738Y-112873459D01*
X41293668Y-113075075D01*
X41525098Y-113360867D01*
X41785133Y-113620902D01*
X42070925Y-113852332D01*
X42073700Y-113854134D01*
X42239350Y-113961708D01*
X42379342Y-114052620D01*
X42382276Y-114054115D01*
X42382283Y-114054119D01*
X42681068Y-114206357D01*
X42707006Y-114219573D01*
X43050326Y-114351361D01*
X43405541Y-114446541D01*
X43598558Y-114477112D01*
X43765511Y-114503555D01*
X43765519Y-114503556D01*
X43768759Y-114504069D01*
X44136000Y-114523315D01*
X44503241Y-114504069D01*
X44506481Y-114503556D01*
X44506489Y-114503555D01*
X44673442Y-114477112D01*
X44866459Y-114446541D01*
X45221674Y-114351361D01*
X45564994Y-114219573D01*
X45590932Y-114206357D01*
X45889717Y-114054119D01*
X45889724Y-114054115D01*
X45892658Y-114052620D01*
X46032651Y-113961708D01*
X46198300Y-113854134D01*
X46201075Y-113852332D01*
X46486867Y-113620902D01*
X46746902Y-113360867D01*
X46978332Y-113075075D01*
X47109262Y-112873459D01*
X47176822Y-112769426D01*
X47176824Y-112769423D01*
X47178620Y-112766657D01*
X47345573Y-112438994D01*
X47426098Y-112229218D01*
X47476175Y-112098764D01*
X47476176Y-112098762D01*
X47477361Y-112095674D01*
X47572541Y-111740459D01*
X47630069Y-111377241D01*
X47649315Y-111010000D01*
X56022685Y-111010000D01*
X56041931Y-111377241D01*
X56099459Y-111740459D01*
X56194639Y-112095674D01*
X56195824Y-112098762D01*
X56195825Y-112098764D01*
X56245902Y-112229218D01*
X56326427Y-112438994D01*
X56493380Y-112766657D01*
X56495176Y-112769423D01*
X56495178Y-112769426D01*
X56562738Y-112873459D01*
X56693668Y-113075075D01*
X56925098Y-113360867D01*
X57185133Y-113620902D01*
X57470925Y-113852332D01*
X57473700Y-113854134D01*
X57639350Y-113961708D01*
X57779342Y-114052620D01*
X57782276Y-114054115D01*
X57782283Y-114054119D01*
X58081068Y-114206357D01*
X58107006Y-114219573D01*
X58450326Y-114351361D01*
X58805541Y-114446541D01*
X58998558Y-114477112D01*
X59165511Y-114503555D01*
X59165519Y-114503556D01*
X59168759Y-114504069D01*
X59536000Y-114523315D01*
X59903241Y-114504069D01*
X59906481Y-114503556D01*
X59906489Y-114503555D01*
X60073442Y-114477112D01*
X60266459Y-114446541D01*
X60621674Y-114351361D01*
X60964994Y-114219573D01*
X60990932Y-114206357D01*
X61289717Y-114054119D01*
X61289724Y-114054115D01*
X61292658Y-114052620D01*
X61432651Y-113961708D01*
X61598300Y-113854134D01*
X61601075Y-113852332D01*
X61886867Y-113620902D01*
X62146902Y-113360867D01*
X62378332Y-113075075D01*
X62509262Y-112873459D01*
X62576822Y-112769426D01*
X62576824Y-112769423D01*
X62578620Y-112766657D01*
X62745573Y-112438994D01*
X62826098Y-112229218D01*
X62876175Y-112098764D01*
X62876176Y-112098762D01*
X62877361Y-112095674D01*
X62972541Y-111740459D01*
X63030069Y-111377241D01*
X63049315Y-111010000D01*
X63030069Y-110642759D01*
X62972541Y-110279541D01*
X62877361Y-109924326D01*
X62833365Y-109809711D01*
X62746757Y-109584091D01*
X62745573Y-109581006D01*
X62578620Y-109253343D01*
X62378332Y-108944925D01*
X62146902Y-108659133D01*
X61886867Y-108399098D01*
X61601075Y-108167668D01*
X61292658Y-107967380D01*
X61289724Y-107965885D01*
X61289717Y-107965881D01*
X60967934Y-107801925D01*
X60964994Y-107800427D01*
X60621674Y-107668639D01*
X60266459Y-107573459D01*
X60073442Y-107542888D01*
X59906489Y-107516445D01*
X59906481Y-107516444D01*
X59903241Y-107515931D01*
X59536000Y-107496685D01*
X59168759Y-107515931D01*
X59165519Y-107516444D01*
X59165511Y-107516445D01*
X58998558Y-107542888D01*
X58805541Y-107573459D01*
X58450326Y-107668639D01*
X58107006Y-107800427D01*
X58104066Y-107801925D01*
X57782284Y-107965881D01*
X57782277Y-107965885D01*
X57779343Y-107967380D01*
X57470925Y-108167668D01*
X57185133Y-108399098D01*
X56925098Y-108659133D01*
X56693668Y-108944925D01*
X56493380Y-109253343D01*
X56326427Y-109581006D01*
X56325243Y-109584091D01*
X56238636Y-109809711D01*
X56194639Y-109924326D01*
X56099459Y-110279541D01*
X56041931Y-110642759D01*
X56022685Y-111010000D01*
X47649315Y-111010000D01*
X47630069Y-110642759D01*
X47572541Y-110279541D01*
X47477361Y-109924326D01*
X47433365Y-109809711D01*
X47346757Y-109584091D01*
X47345573Y-109581006D01*
X47178620Y-109253343D01*
X46978332Y-108944925D01*
X46746902Y-108659133D01*
X46486867Y-108399098D01*
X46201075Y-108167668D01*
X45892658Y-107967380D01*
X45889724Y-107965885D01*
X45889717Y-107965881D01*
X45567934Y-107801925D01*
X45564994Y-107800427D01*
X45221674Y-107668639D01*
X44866459Y-107573459D01*
X44673442Y-107542888D01*
X44506489Y-107516445D01*
X44506481Y-107516444D01*
X44503241Y-107515931D01*
X44136000Y-107496685D01*
X43768759Y-107515931D01*
X43765519Y-107516444D01*
X43765511Y-107516445D01*
X43598558Y-107542888D01*
X43405541Y-107573459D01*
X43050326Y-107668639D01*
X42707006Y-107800427D01*
X42704066Y-107801925D01*
X42382284Y-107965881D01*
X42382277Y-107965885D01*
X42379343Y-107967380D01*
X42070925Y-108167668D01*
X41785133Y-108399098D01*
X41525098Y-108659133D01*
X41293668Y-108944925D01*
X41093380Y-109253343D01*
X40926427Y-109581006D01*
X40925243Y-109584091D01*
X40838636Y-109809711D01*
X40794639Y-109924326D01*
X40699459Y-110279541D01*
X40641931Y-110642759D01*
X40622685Y-111010000D01*
X22544500Y-111010000D01*
X22544500Y-100410000D01*
X40622685Y-100410000D01*
X40641931Y-100777241D01*
X40699459Y-101140459D01*
X40794639Y-101495674D01*
X40795824Y-101498762D01*
X40795825Y-101498764D01*
X40845902Y-101629218D01*
X40926427Y-101838994D01*
X41093380Y-102166657D01*
X41293668Y-102475075D01*
X41525098Y-102760867D01*
X41785133Y-103020902D01*
X42070925Y-103252332D01*
X42379342Y-103452620D01*
X42382276Y-103454115D01*
X42382283Y-103454119D01*
X42704066Y-103618075D01*
X42707006Y-103619573D01*
X43050326Y-103751361D01*
X43405541Y-103846541D01*
X43598558Y-103877112D01*
X43765511Y-103903555D01*
X43765519Y-103903556D01*
X43768759Y-103904069D01*
X44136000Y-103923315D01*
X44503241Y-103904069D01*
X44506481Y-103903556D01*
X44506489Y-103903555D01*
X44673442Y-103877112D01*
X44866459Y-103846541D01*
X45221674Y-103751361D01*
X45564994Y-103619573D01*
X45567934Y-103618075D01*
X45889717Y-103454119D01*
X45889724Y-103454115D01*
X45892658Y-103452620D01*
X46201075Y-103252332D01*
X46486867Y-103020902D01*
X46746902Y-102760867D01*
X46978332Y-102475075D01*
X47178620Y-102166657D01*
X47345573Y-101838994D01*
X47426098Y-101629218D01*
X47476175Y-101498764D01*
X47476176Y-101498762D01*
X47477361Y-101495674D01*
X47572541Y-101140459D01*
X47630069Y-100777241D01*
X47649315Y-100410000D01*
X56022685Y-100410000D01*
X56041931Y-100777241D01*
X56099459Y-101140459D01*
X56194639Y-101495674D01*
X56195824Y-101498762D01*
X56195825Y-101498764D01*
X56245902Y-101629218D01*
X56326427Y-101838994D01*
X56493380Y-102166657D01*
X56693668Y-102475075D01*
X56925098Y-102760867D01*
X57185133Y-103020902D01*
X57470925Y-103252332D01*
X57779342Y-103452620D01*
X57782276Y-103454115D01*
X57782283Y-103454119D01*
X58104066Y-103618075D01*
X58107006Y-103619573D01*
X58450326Y-103751361D01*
X58805541Y-103846541D01*
X58998558Y-103877112D01*
X59165511Y-103903555D01*
X59165519Y-103903556D01*
X59168759Y-103904069D01*
X59536000Y-103923315D01*
X59903241Y-103904069D01*
X59906481Y-103903556D01*
X59906489Y-103903555D01*
X60073442Y-103877112D01*
X60266459Y-103846541D01*
X60621674Y-103751361D01*
X60964994Y-103619573D01*
X60967934Y-103618075D01*
X61289717Y-103454119D01*
X61289724Y-103454115D01*
X61292658Y-103452620D01*
X61601075Y-103252332D01*
X61886867Y-103020902D01*
X62146902Y-102760867D01*
X62378332Y-102475075D01*
X62578620Y-102166657D01*
X62745573Y-101838994D01*
X62826098Y-101629218D01*
X62876175Y-101498764D01*
X62876176Y-101498762D01*
X62877361Y-101495674D01*
X62972541Y-101140459D01*
X63030069Y-100777241D01*
X63049315Y-100410000D01*
X63030069Y-100042759D01*
X62972541Y-99679541D01*
X62877361Y-99324326D01*
X62833365Y-99209711D01*
X62746757Y-98984091D01*
X62745573Y-98981006D01*
X62578620Y-98653343D01*
X62378332Y-98344925D01*
X62146902Y-98059133D01*
X61886867Y-97799098D01*
X61601075Y-97567668D01*
X61292658Y-97367380D01*
X61289724Y-97365885D01*
X61289717Y-97365881D01*
X60967934Y-97201925D01*
X60964994Y-97200427D01*
X60621674Y-97068639D01*
X60266459Y-96973459D01*
X60073442Y-96942888D01*
X59906489Y-96916445D01*
X59906481Y-96916444D01*
X59903241Y-96915931D01*
X59536000Y-96896685D01*
X59168759Y-96915931D01*
X59165519Y-96916444D01*
X59165511Y-96916445D01*
X58998558Y-96942888D01*
X58805541Y-96973459D01*
X58450326Y-97068639D01*
X58107006Y-97200427D01*
X58104066Y-97201925D01*
X57782284Y-97365881D01*
X57782277Y-97365885D01*
X57779343Y-97367380D01*
X57470925Y-97567668D01*
X57185133Y-97799098D01*
X56925098Y-98059133D01*
X56693668Y-98344925D01*
X56493380Y-98653343D01*
X56326427Y-98981006D01*
X56325243Y-98984091D01*
X56238636Y-99209711D01*
X56194639Y-99324326D01*
X56099459Y-99679541D01*
X56041931Y-100042759D01*
X56022685Y-100410000D01*
X47649315Y-100410000D01*
X47630069Y-100042759D01*
X47572541Y-99679541D01*
X47477361Y-99324326D01*
X47433365Y-99209711D01*
X47346757Y-98984091D01*
X47345573Y-98981006D01*
X47178620Y-98653343D01*
X46978332Y-98344925D01*
X46746902Y-98059133D01*
X46486867Y-97799098D01*
X46201075Y-97567668D01*
X45892658Y-97367380D01*
X45889724Y-97365885D01*
X45889717Y-97365881D01*
X45567934Y-97201925D01*
X45564994Y-97200427D01*
X45221674Y-97068639D01*
X44866459Y-96973459D01*
X44673442Y-96942888D01*
X44506489Y-96916445D01*
X44506481Y-96916444D01*
X44503241Y-96915931D01*
X44136000Y-96896685D01*
X43768759Y-96915931D01*
X43765519Y-96916444D01*
X43765511Y-96916445D01*
X43598558Y-96942888D01*
X43405541Y-96973459D01*
X43050326Y-97068639D01*
X42707006Y-97200427D01*
X42704066Y-97201925D01*
X42382284Y-97365881D01*
X42382277Y-97365885D01*
X42379343Y-97367380D01*
X42070925Y-97567668D01*
X41785133Y-97799098D01*
X41525098Y-98059133D01*
X41293668Y-98344925D01*
X41093380Y-98653343D01*
X40926427Y-98981006D01*
X40925243Y-98984091D01*
X40838636Y-99209711D01*
X40794639Y-99324326D01*
X40699459Y-99679541D01*
X40641931Y-100042759D01*
X40622685Y-100410000D01*
X22544500Y-100410000D01*
X22544500Y-67324761D01*
X25324170Y-67324761D01*
X25325554Y-67400270D01*
X25332345Y-67770803D01*
X25332644Y-67773578D01*
X25374838Y-68165162D01*
X25380138Y-68214353D01*
X25380683Y-68217094D01*
X25380684Y-68217099D01*
X25456472Y-68598105D01*
X25467172Y-68651899D01*
X25467959Y-68654580D01*
X25467960Y-68654586D01*
X25536437Y-68888003D01*
X25592756Y-69079976D01*
X25593776Y-69082572D01*
X25593777Y-69082575D01*
X25737008Y-69447120D01*
X25755896Y-69495194D01*
X25955301Y-69894266D01*
X26189392Y-70274032D01*
X26456315Y-70631485D01*
X26458176Y-70633563D01*
X26458177Y-70633564D01*
X26732884Y-70940268D01*
X26753957Y-70963796D01*
X26755994Y-70965699D01*
X26756001Y-70965706D01*
X26971303Y-71166829D01*
X27079961Y-71268332D01*
X27082157Y-71270045D01*
X27082161Y-71270048D01*
X27308577Y-71446625D01*
X27431746Y-71542682D01*
X27592588Y-71646536D01*
X27804183Y-71783162D01*
X27804191Y-71783167D01*
X27806527Y-71784675D01*
X28201335Y-71992394D01*
X28203928Y-71993476D01*
X28610462Y-72163116D01*
X28610467Y-72163118D01*
X28613046Y-72164194D01*
X28615711Y-72165037D01*
X28615717Y-72165039D01*
X28710662Y-72195066D01*
X29038398Y-72298715D01*
X29041128Y-72299318D01*
X29041129Y-72299318D01*
X29433664Y-72385982D01*
X29474025Y-72394893D01*
X29476799Y-72395251D01*
X29476800Y-72395251D01*
X29913707Y-72451608D01*
X29913714Y-72451609D01*
X29916477Y-72451965D01*
X29919264Y-72452075D01*
X29919270Y-72452075D01*
X30177519Y-72462221D01*
X30362251Y-72469479D01*
X30365043Y-72469340D01*
X30365048Y-72469340D01*
X30805013Y-72447438D01*
X30805022Y-72447437D01*
X30807817Y-72447298D01*
X30810594Y-72446910D01*
X30810596Y-72446910D01*
X30888542Y-72436025D01*
X31249647Y-72385596D01*
X31252357Y-72384968D01*
X31252367Y-72384966D01*
X31681515Y-72285494D01*
X31684242Y-72284862D01*
X31906990Y-72211842D01*
X32105510Y-72146764D01*
X32105516Y-72146762D01*
X32108163Y-72145894D01*
X32518052Y-71969791D01*
X32910664Y-71757950D01*
X33282890Y-71512046D01*
X33631782Y-71234026D01*
X33954580Y-70926093D01*
X34169168Y-70681402D01*
X34246874Y-70592795D01*
X34246877Y-70592791D01*
X34248725Y-70590684D01*
X34282063Y-70545051D01*
X34510242Y-70232712D01*
X34511891Y-70230455D01*
X34616482Y-70056730D01*
X34740541Y-69850669D01*
X34740546Y-69850660D01*
X34741992Y-69848258D01*
X34884770Y-69554871D01*
X34935974Y-69449654D01*
X34935975Y-69449651D01*
X34937207Y-69447120D01*
X35026211Y-69213428D01*
X35094994Y-69032832D01*
X35094996Y-69032825D01*
X35095990Y-69030216D01*
X35217085Y-68600848D01*
X35225480Y-68556207D01*
X35299015Y-68165162D01*
X35299017Y-68165150D01*
X35299531Y-68162415D01*
X35335719Y-67790000D01*
X35342462Y-67720606D01*
X35342463Y-67720594D01*
X35342677Y-67718389D01*
X35346630Y-67567449D01*
X35349490Y-67458233D01*
X35349490Y-67458220D01*
X35349548Y-67456000D01*
X35329700Y-67010324D01*
X35318825Y-66929355D01*
X35309799Y-66862161D01*
X35270312Y-66568177D01*
X35233136Y-66403880D01*
X35172472Y-66135788D01*
X35171855Y-66133060D01*
X35035108Y-65708417D01*
X34981622Y-65582104D01*
X34862245Y-65300186D01*
X34862245Y-65300185D01*
X34861155Y-65297612D01*
X34838615Y-65255308D01*
X34652679Y-64906351D01*
X34651371Y-64903896D01*
X34649850Y-64901567D01*
X34408944Y-64532721D01*
X34408941Y-64532717D01*
X34407420Y-64530388D01*
X34324192Y-64424813D01*
X34132960Y-64182237D01*
X34132958Y-64182235D01*
X34131231Y-64180044D01*
X33824992Y-63855639D01*
X33566902Y-63626898D01*
X33493234Y-63561607D01*
X33493227Y-63561602D01*
X33491128Y-63559741D01*
X33132282Y-63294694D01*
X32931449Y-63172345D01*
X32753684Y-63064049D01*
X32753677Y-63064045D01*
X32751295Y-63062594D01*
X32628964Y-63002267D01*
X32353696Y-62866521D01*
X32351184Y-62865282D01*
X31935118Y-62704318D01*
X31798562Y-62665032D01*
X31509071Y-62581748D01*
X31509065Y-62581746D01*
X31506390Y-62580977D01*
X31503653Y-62580448D01*
X31503647Y-62580446D01*
X31318892Y-62544701D01*
X31068394Y-62496236D01*
X31065617Y-62495951D01*
X31065607Y-62495950D01*
X30790789Y-62467793D01*
X30624600Y-62450765D01*
X30621810Y-62450728D01*
X30621802Y-62450728D01*
X30343276Y-62447083D01*
X30178521Y-62444926D01*
X30175721Y-62445139D01*
X30175720Y-62445139D01*
X29736475Y-62478551D01*
X29733688Y-62478763D01*
X29293625Y-62552010D01*
X29203566Y-62575385D01*
X28864533Y-62663380D01*
X28864522Y-62663383D01*
X28861815Y-62664086D01*
X28593441Y-62759913D01*
X28444320Y-62813159D01*
X28444315Y-62813161D01*
X28441677Y-62814103D01*
X28439137Y-62815274D01*
X28439132Y-62815276D01*
X28330661Y-62865282D01*
X28036538Y-63000875D01*
X27649607Y-63222921D01*
X27647315Y-63224523D01*
X27647307Y-63224528D01*
X27407382Y-63392214D01*
X27283945Y-63478485D01*
X27281804Y-63480285D01*
X27281801Y-63480287D01*
X26954818Y-63755146D01*
X26942450Y-63765542D01*
X26940476Y-63767526D01*
X26940472Y-63767530D01*
X26813297Y-63895373D01*
X26627824Y-64081819D01*
X26342559Y-64424813D01*
X26088914Y-64791808D01*
X25868896Y-65179897D01*
X25867737Y-65182446D01*
X25867735Y-65182450D01*
X25685405Y-65583462D01*
X25685400Y-65583473D01*
X25684248Y-65586008D01*
X25683326Y-65588634D01*
X25683321Y-65588646D01*
X25599148Y-65828340D01*
X25536433Y-66006925D01*
X25535742Y-66009645D01*
X25535741Y-66009649D01*
X25427308Y-66436603D01*
X25426619Y-66439316D01*
X25426176Y-66442066D01*
X25426174Y-66442076D01*
X25387737Y-66680714D01*
X25355678Y-66879757D01*
X25355480Y-66882558D01*
X25355479Y-66882564D01*
X25342456Y-67066498D01*
X25324170Y-67324761D01*
X22544500Y-67324761D01*
X22544500Y-45709979D01*
X29486771Y-45709979D01*
X29487461Y-45714798D01*
X29487461Y-45714799D01*
X29490728Y-45737618D01*
X29492000Y-45755475D01*
X29492000Y-51660633D01*
X29490500Y-51680018D01*
X29488190Y-51694851D01*
X29488190Y-51694855D01*
X29486809Y-51703724D01*
X29487751Y-51710925D01*
X29487956Y-51714058D01*
X29487953Y-51714333D01*
X29488018Y-51714997D01*
X29504910Y-51972724D01*
X29505714Y-51976764D01*
X29505714Y-51976767D01*
X29551262Y-52205750D01*
X29556275Y-52230954D01*
X29640906Y-52480269D01*
X29696034Y-52592059D01*
X29750005Y-52701500D01*
X29757355Y-52716405D01*
X29903630Y-52935321D01*
X30077228Y-53133272D01*
X30275179Y-53306870D01*
X30494095Y-53453145D01*
X30497794Y-53454969D01*
X30497799Y-53454972D01*
X30618441Y-53514466D01*
X30730231Y-53569594D01*
X30734136Y-53570919D01*
X30734137Y-53570920D01*
X30975639Y-53652899D01*
X30975642Y-53652900D01*
X30979546Y-53654225D01*
X30983585Y-53655028D01*
X30983591Y-53655030D01*
X31233733Y-53704786D01*
X31233736Y-53704786D01*
X31237776Y-53705590D01*
X31241887Y-53705859D01*
X31241891Y-53705860D01*
X31466109Y-53720556D01*
X31478769Y-53722032D01*
X31483139Y-53722767D01*
X31483141Y-53722767D01*
X31487948Y-53723576D01*
X31494466Y-53723655D01*
X31495640Y-53723670D01*
X31495643Y-53723670D01*
X31500500Y-53723729D01*
X31528124Y-53719773D01*
X31545986Y-53718500D01*
X54366250Y-53718500D01*
X54387155Y-53720246D01*
X54402156Y-53722770D01*
X54402159Y-53722770D01*
X54406948Y-53723576D01*
X54413263Y-53723653D01*
X54414642Y-53723670D01*
X54414645Y-53723670D01*
X54419500Y-53723729D01*
X54426554Y-53722718D01*
X54436165Y-53721717D01*
X54498855Y-53717608D01*
X54678109Y-53705860D01*
X54678113Y-53705859D01*
X54682224Y-53705590D01*
X54686264Y-53704786D01*
X54686267Y-53704786D01*
X54936409Y-53655030D01*
X54936415Y-53655028D01*
X54940454Y-53654225D01*
X54944358Y-53652900D01*
X54944361Y-53652899D01*
X55185863Y-53570920D01*
X55185864Y-53570919D01*
X55189769Y-53569594D01*
X55301559Y-53514466D01*
X55422201Y-53454972D01*
X55422206Y-53454969D01*
X55425905Y-53453145D01*
X55644821Y-53306870D01*
X55842772Y-53133272D01*
X56016370Y-52935321D01*
X56162645Y-52716405D01*
X56169996Y-52701500D01*
X56223966Y-52592059D01*
X56279094Y-52480269D01*
X56363725Y-52230954D01*
X56368739Y-52205750D01*
X56414286Y-51976767D01*
X56414286Y-51976764D01*
X56415090Y-51972724D01*
X56430056Y-51744391D01*
X56431532Y-51731731D01*
X56432267Y-51727361D01*
X56432267Y-51727359D01*
X56433076Y-51722552D01*
X56433229Y-51710000D01*
X56429273Y-51682376D01*
X56428000Y-51664514D01*
X56428000Y-45763250D01*
X56429746Y-45742345D01*
X56432270Y-45727344D01*
X56432270Y-45727341D01*
X56433076Y-45722552D01*
X56433229Y-45710000D01*
X56432218Y-45702946D01*
X56431217Y-45693332D01*
X56415360Y-45451391D01*
X56415359Y-45451387D01*
X56415090Y-45447276D01*
X56399899Y-45370906D01*
X56364530Y-45193091D01*
X56364528Y-45193085D01*
X56363725Y-45189046D01*
X56279094Y-44939731D01*
X56199483Y-44778295D01*
X56164472Y-44707299D01*
X56164469Y-44707294D01*
X56162645Y-44703595D01*
X56016370Y-44484679D01*
X55842772Y-44286728D01*
X55644821Y-44113130D01*
X55425905Y-43966855D01*
X55422206Y-43965031D01*
X55422201Y-43965028D01*
X55193506Y-43852249D01*
X55189769Y-43850406D01*
X55185863Y-43849080D01*
X54944361Y-43767101D01*
X54944358Y-43767100D01*
X54940454Y-43765775D01*
X54936415Y-43764972D01*
X54936409Y-43764970D01*
X54686267Y-43715214D01*
X54686264Y-43715214D01*
X54682224Y-43714410D01*
X54678113Y-43714141D01*
X54678109Y-43714140D01*
X54453891Y-43699444D01*
X54441231Y-43697968D01*
X54436861Y-43697233D01*
X54436859Y-43697233D01*
X54432052Y-43696424D01*
X54425534Y-43696345D01*
X54424360Y-43696330D01*
X54424357Y-43696330D01*
X54419500Y-43696271D01*
X54397344Y-43699444D01*
X54391876Y-43700227D01*
X54374014Y-43701500D01*
X31553735Y-43701500D01*
X31532835Y-43699754D01*
X31517843Y-43697232D01*
X31517838Y-43697232D01*
X31513031Y-43696423D01*
X31500479Y-43696271D01*
X31495673Y-43696959D01*
X31495665Y-43696960D01*
X31493433Y-43697280D01*
X31483812Y-43698283D01*
X31241873Y-43714149D01*
X31241868Y-43714150D01*
X31237761Y-43714419D01*
X31233723Y-43715222D01*
X31233718Y-43715223D01*
X30983593Y-43764984D01*
X30983586Y-43764986D01*
X30979539Y-43765791D01*
X30730231Y-43850426D01*
X30617981Y-43905784D01*
X30497802Y-43965052D01*
X30497799Y-43965054D01*
X30494102Y-43966877D01*
X30275192Y-44113151D01*
X30272100Y-44115863D01*
X30272093Y-44115868D01*
X30080364Y-44284012D01*
X30077246Y-44286746D01*
X30074537Y-44289835D01*
X29906368Y-44481593D01*
X29906363Y-44481600D01*
X29903651Y-44484692D01*
X29901362Y-44488118D01*
X29759676Y-44700162D01*
X29757377Y-44703602D01*
X29640926Y-44939731D01*
X29556291Y-45189039D01*
X29555486Y-45193086D01*
X29555484Y-45193093D01*
X29520113Y-45370887D01*
X29504919Y-45447261D01*
X29504650Y-45451366D01*
X29504649Y-45451372D01*
X29489944Y-45675599D01*
X29488468Y-45688254D01*
X29488176Y-45689994D01*
X29486925Y-45697427D01*
X29486771Y-45709979D01*
X22544500Y-45709979D01*
X22544500Y-22044500D01*
X22564502Y-21976379D01*
X22618158Y-21929886D01*
X22670500Y-21918500D01*
X26986803Y-21918500D01*
X27054924Y-21938502D01*
G37*
%TD.AperFunction*%
M02*
